<?xml version="1.0" encoding="UTF-8"?>
<svg id="Layer_1" xmlns="http://www.w3.org/2000/svg" version="1.1" viewBox="0 0 417.6 175">
  <!-- Generator: Adobe Illustrator 30.2.1, SVG Export Plug-In . SVG Version: 2.1.1 Build 1)  -->
  <path id="IBM_" d="M387.2,151.4c0-4.5,3.4-7.9,7.7-7.9s7.7,3.4,7.7,7.9-3.4,7.9-7.7,7.9-7.7-3.4-7.7-7.9ZM400.7,151.9v-1c0-3.2-2.6-5.8-5.8-5.8s-5.8,2.6-5.8,5.8v1c0,3.2,2.6,5.8,5.8,5.8s5.8-2.6,5.8-5.8ZM393.7,155.4h-1.9v-8h3.6c1.8,0,2.7,1.1,2.7,2.6s-.5,2.1-1.5,2.4l1.8,3.1h-2.2l-1.5-2.7h-1.1v2.7h0,0ZM395.2,151.2c.6,0,.9-.3.9-.8v-.6c0-.6-.4-.8-.9-.8h-1.5v2.3h1.5q0,0,0,0ZM15,149.8h70.3v9.1H15v-9.1ZM15,139.7h70.3v-9.1H15v9.1ZM35.1,120.6h30.1v-9.1h-30.1s0,9.1,0,9.1ZM35.1,101.4h30.1v-9.1h-30.1s0,9.1,0,9.1ZM35.1,82.2h30.1v-9.1h-30.1s0,9.1,0,9.1ZM65.2,54h-30.1v9.1h30.1v-9.1ZM15,43.9h70.3v-9.1H15v9.1ZM15,24.8h70.3v-9.1H15v9.1ZM95.3,158.9h73.9c9.5,0,18.2-3.5,24.8-9.1h-98.7v9.1h0ZM95.3,139.7h107.1c1.6-2.8,2.9-5.9,3.8-9.1h-110.9v9.1h0ZM115.4,120.6h30.1v-9.1h-30.1v9.1ZM115.4,73.1v9.1h79.7c2.9-2.7,5.4-5.8,7.4-9.1h-87.1ZM206.2,43.9c-.9-3.2-2.2-6.3-3.8-9.1h-107.1v9.1h111ZM115.4,63.1h30.1v-9.1h-30.1v9.1ZM173.8,63.1h32.7c.7-2.9,1.1-6,1.1-9.1h-33.8v9.1h0ZM173.8,111.4v9.1h33.8c0-3.1-.4-6.2-1.1-9.1h-32.7,0ZM195.1,92.3h-79.7v9.1h87.1c-2-3.4-4.5-6.5-7.4-9.1h0ZM194.1,24.8c-6.7-5.7-15.3-9.1-24.8-9.1h-73.9v9.1h98.7,0ZM215.8,158.9h50.2v-9.1h-50.2v9.1h0ZM215.8,139.7h50.2v-9.1h-50.2v9.1h0ZM235.8,120.6h30.1v-9.1h-30.1v9.1h0ZM235.8,101.4h30.1v-9.1h-30.1v9.1h0ZM326.2,158.9h50.2v-9.1h-50.2v9.1ZM326.2,139.7h50.2v-9.1h-50.2v9.1ZM326.2,120.6h30.1v-9.1h-30.1v9.1ZM356.3,92.3h-30.1v9.1h30.1v-9.1h0ZM326.2,82.2h30.1v-9.1h-56.5l-3.2,9.1h26.5l3.1-8.7v8.7h0ZM356.3,54h-49.8l-3.2,9.1h52.9v-9.1h0,0ZM319.8,15.6l-3.2,9.1h59.8v-9.1h-56.6,0ZM296.1,158.9l3.2-9.1h-6.4l3.2,9.1h0ZM289.3,139.7h13.5l3.2-9.1h-20l3.2,9.1h0ZM282.6,120.6h27l3.2-9.1h-33.5l3.2,9.1h0ZM275.8,101.4h40.5l3.2-9.1h-47l3.2,9.1h0ZM235.8,63.1h52.9l-3.2-9.1h-49.8v9.1h0,0ZM309.9,43.9h66.4v-9.1h-63.2l-3.2,9.1ZM279,34.8h-63.2v9.1h66.4l-3.2-9.1ZM272.3,15.6h-56.6v9.1h59.8l-3.2-9.1ZM295.4,82.2l-3.2-9.1h-56.5v9.1h30.1v-8.7l3.1,8.7h26.5Z"/>
</svg>