<?xml version="1.0" encoding="utf-8"?>
<!-- Generator: Adobe Illustrator 26.0.1, SVG Export Plug-In . SVG Version: 6.00 Build 0)  -->
<svg version="1.1" id="Layer_1" xmlns="http://www.w3.org/2000/svg" xmlns:xlink="http://www.w3.org/1999/xlink" x="0px" y="0px"
	 viewBox="0 0 420 280" style="enable-background:new 0 0 420 280;" xml:space="preserve">
<style type="text/css">
	.st0{fill:#091313;}
	.st1{fill:#4695EB;}
	.st2{fill:#FF004A;}
</style>
<path class="st0" d="M322.1,88.6c0-0.1,0-0.2,0-0.3l0,0c0-0.2-0.1-0.4-0.2-0.5l0-0.1c-0.1-0.2-0.2-0.3-0.3-0.5h0
	c-0.1-0.1-0.2-0.3-0.4-0.4l0,0l0,0c-0.1-0.1-0.3-0.2-0.5-0.3h-0.1h-0.1l-143.7-47c-0.4-0.1-0.9-0.2-1.3-0.1l-76,17.6l-0.3,0.1h-0.1
	c-0.2,0.1-0.3,0.2-0.5,0.3l0,0l0,0c-0.2,0.1-0.3,0.2-0.4,0.4L98,58c-0.1,0.1-0.2,0.3-0.3,0.4v0.1c-0.1,0.2-0.1,0.4-0.2,0.5
	c0,0,0,0.1,0,0.1c0,0,0,0.1,0,0.1c0,0.1,0,0.3,0,0.4l0,0l8.4,96c0.1,0.8,0.5,1.5,1.1,1.9l127.1,82.6l0,0l0,0
	c0.1,0.1,0.3,0.1,0.4,0.2c0.1,0,0.1,0.1,0.2,0.1c0.2,0.1,0.5,0.1,0.7,0.1c0.2,0,0.4,0,0.6-0.1l0.2-0.1c0.1,0,0.3-0.1,0.4-0.1l0,0
	l0,0l74.6-40.9c0.7-0.4,1.2-1.2,1.3-2L322,88.8c0,0,0,0,0-0.1C322.1,88.7,322.1,88.7,322.1,88.6z M175.9,44.5L312,88.8l-16.3,6
	L238.3,116L108,60.2L175.9,44.5z M102.9,63.5l132.9,56.9l-2.6,113.2l-122.4-79.5L102.9,63.5z M239.9,159.1l0.9-38.7l40-14.8
	l-2.4,51.3l-22.6,10.1c-0.8,0.3-1.4,1-1.5,1.9l-0.2,0.8c-0.3,1.4,0.6,2.7,2,2.9c0.5,0.1,0.9,0,1.4-0.1l20.6-9.2l-2.3,49.7
	l-37.6,20.6L239.9,159.1z M307.7,195.6L281.6,210l2.3-49.1l15.5-6.9c0.9-0.4,1.5-1.2,1.6-2.2v-0.8c0.1-1.4-1-2.5-2.4-2.6
	c-0.3,0-0.7,0-1,0.2l-13.4,6l2.4-50.9l30.2-11.2L307.7,195.6z"/>
<path class="st0" d="M148.9,85.2l-0.6-0.3c-0.8-0.4-1.7-0.3-2.4,0.2c-0.7,0.5-1.1,1.3-1.1,2.2l4.5,86.8c0,0.8,0.5,1.6,1.2,2l0.5,0.3
	c0.4,0.2,0.9,0.4,1.3,0.4c0.4,0,0.9-0.1,1.3-0.3c0.8-0.5,1.3-1.3,1.2-2.3l-4.5-86.8C150.3,86.4,149.8,85.6,148.9,85.2z"/>
<path class="st0" d="M175.7,97.2L175,97c-1.3-0.6-2.7,0-3.3,1.2c-0.2,0.3-0.2,0.7-0.2,1.1l2.8,90.6c0,0.8,0.5,1.6,1.2,2l0.6,0.4
	c1.2,0.7,2.7,0.4,3.5-0.8c0.3-0.4,0.4-0.9,0.4-1.4l-2.7-90.7C177.1,98.5,176.5,97.6,175.7,97.2z"/>
<path class="st0" d="M136.6,79.7l-0.5-0.2c-0.8-0.4-1.7-0.3-2.4,0.2c-0.7,0.5-1.1,1.3-1.1,2.2l5.2,85c0,0.8,0.5,1.6,1.2,2l0.5,0.3
	c0.4,0.3,0.9,0.4,1.3,0.4c0.4,0,0.9-0.1,1.3-0.3c0.8-0.5,1.3-1.4,1.2-2.3l-5.2-85C138.1,81,137.5,80.1,136.6,79.7z"/>
<path class="st0" d="M113.9,69.5l-0.5-0.2c-1.3-0.6-2.7,0-3.3,1.3c-0.2,0.4-0.2,0.8-0.2,1.2l6.4,81.6c0.1,0.8,0.5,1.5,1.1,1.9
	l0.5,0.3c1.2,0.7,2.7,0.4,3.4-0.8c0.3-0.5,0.4-1,0.4-1.5l-6.4-81.7C115.3,70.6,114.8,69.8,113.9,69.5z"/>
<path class="st0" d="M125,74.4l-0.5-0.2c-0.8-0.4-1.7-0.3-2.4,0.2c-0.7,0.5-1.1,1.4-1.1,2.2l5.9,83.2c0.1,0.8,0.5,1.5,1.2,1.9
	l0.5,0.3c1.2,0.7,2.7,0.4,3.4-0.7c0.3-0.5,0.4-1,0.4-1.5l-5.8-83.3C126.4,75.6,125.8,74.8,125,74.4z"/>
<path class="st0" d="M161.9,91.1l-0.6-0.3c-1.3-0.6-2.7,0-3.3,1.2c-0.2,0.4-0.2,0.8-0.2,1.1l3.7,88.6c0,0.8,0.5,1.6,1.2,2l0.6,0.4
	c0.4,0.3,0.9,0.4,1.4,0.4c1.4,0,2.5-1.1,2.5-2.5c0,0,0-0.1,0-0.1l-3.6-88.7C163.3,92.3,162.8,91.4,161.9,91.1z"/>
<path class="st0" d="M190.2,103.8l-0.7-0.3c-0.8-0.4-1.7-0.3-2.4,0.2c-0.7,0.5-1.1,1.3-1.1,2.1l1.8,92.6c0,0.8,0.4,1.6,1.2,2.1
	l0.6,0.4c0.4,0.2,0.9,0.4,1.3,0.4c0.4,0,0.8-0.1,1.2-0.3c0.8-0.4,1.3-1.3,1.3-2.2l-1.7-92.7C191.7,105,191.1,104.2,190.2,103.8z"/>
<path class="st0" d="M205.7,110.8l-0.7-0.3c-1.3-0.6-2.7,0-3.3,1.2c-0.2,0.3-0.2,0.7-0.2,1.1l0.6,94.7c0,0.9,0.4,1.6,1.2,2.1
	l0.7,0.4c0.8,0.5,1.7,0.5,2.6,0.1c0.8-0.4,1.3-1.3,1.3-2.2l-0.5-94.8C207.2,112,206.6,111.2,205.7,110.8z"/>
<path class="st0" d="M222.2,118.2l-0.8-0.3c-1.3-0.6-2.7,0-3.3,1.3c-0.1,0.3-0.2,0.7-0.2,1l-0.7,96.9c0,0.9,0.4,1.7,1.2,2.1l0.7,0.4
	c0.4,0.3,0.9,0.4,1.3,0.4c0.4,0,0.8-0.1,1.2-0.3c0.8-0.4,1.3-1.3,1.3-2.2l0.8-97C223.7,119.5,223.1,118.6,222.2,118.2z"/>
<path class="st1" d="M391.4,70.4h-18.2V52.2c0-1.4-1.1-2.5-2.5-2.5s-2.5,1.1-2.5,2.5v18.2h-17.6c-1.4,0-2.5,1.1-2.5,2.5
	s1.1,2.5,2.5,2.5h17.6V93c0,1.4,1.1,2.5,2.5,2.5s2.5-1.1,2.5-2.5V75.4h18.2c1.4,0,2.5-1.1,2.5-2.5S392.7,70.4,391.4,70.4L391.4,70.4
	z"/>
<path class="st1" d="M57.7,183.5h-13v-13c0-1.4-1.1-2.5-2.5-2.5s-2.5,1.1-2.5,2.5v13H27.1c-1.4,0-2.5,1.1-2.5,2.5s1.1,2.5,2.5,2.5
	h12.6v12.6c0,1.4,1.1,2.5,2.5,2.5s2.5-1.1,2.5-2.5v-12.6h13c1.4,0,2.5-1.1,2.5-2.5S59.1,183.5,57.7,183.5L57.7,183.5z"/>
<path class="st2" d="M125.2,222.3h-7.8v-7.8c0-1.4-1.1-2.5-2.5-2.5s-2.5,1.1-2.5,2.5v7.8h-7.6c-1.4,0-2.5,1.1-2.5,2.5
	s1.1,2.5,2.5,2.5h7.6v7.6c0,1.4,1.1,2.5,2.5,2.5s2.5-1.1,2.5-2.5v-7.6h7.8c1.4,0,2.5-1.1,2.5-2.5S126.6,222.3,125.2,222.3z"/>
<path class="st2" d="M66.9,110.5h-7.8v-7.8c0-1.4-1.1-2.5-2.5-2.5s-2.5,1.1-2.5,2.5v7.8h-7.6c-1.4,0-2.5,1.1-2.5,2.5
	s1.1,2.5,2.5,2.5h7.6v7.6c0,1.4,1.1,2.5,2.5,2.5s2.5-1.1,2.5-2.5v-7.6h7.8c1.4,0,2.5-1.1,2.5-2.5S68.3,110.5,66.9,110.5z"/>
<path class="st2" d="M296.8,39.3h-7.8v-7.8c0-1.4-1.1-2.5-2.5-2.5s-2.5,1.1-2.5,2.5l0,0v7.8h-7.6c-1.4,0-2.5,1.1-2.5,2.5
	s1.1,2.5,2.5,2.5h7.6v7.6c0,1.4,1.1,2.5,2.5,2.5s2.5-1.1,2.5-2.5v-7.6h7.8c1.4,0,2.5-1.1,2.5-2.5S298.2,39.3,296.8,39.3z"/>
<path class="st2" d="M363,165.4h-7.8v-7.8c0-1.4-1.1-2.5-2.5-2.5s-2.5,1.1-2.5,2.5v7.8h-7.6c-1.4,0-2.5,1.1-2.5,2.5s1.1,2.5,2.5,2.5
	h7.6v7.6c0,1.4,1.1,2.5,2.5,2.5s2.5-1.1,2.5-2.5v-7.6h7.8c1.4,0,2.5-1.1,2.5-2.5S364.4,165.4,363,165.4L363,165.4z"/>
</svg>
