<?xml version="1.0" encoding="UTF-8"?>
<svg id="Layer_1" xmlns="http://www.w3.org/2000/svg" version="1.1" viewBox="0 0 1000 270">
  <!-- Generator: Adobe Illustrator 29.6.0, SVG Export Plug-In . SVG Version: 2.1.1 Build 207)  -->
  <defs>
    <style>
      .st0 {
        fill: #4695eb;
      }

      .st1 {
        fill: #091313;
      }

      .st2 {
        fill: #fff;
      }

      .st3 {
        fill: #ff004a;
      }
    </style>
  </defs>
  <g>
    <path class="st2" d="M181.8,31.6c-17.4,0-32.7,10.4-39.1,26.6l-56.3,128-.2.4v.2l-.2.2-.2.4c-4.9,13.1-3.2,27.1,4.6,38.5,7.9,11.5,20.9,18.3,34.6,18.3s11.6-1.2,17-3.6l39.6-17.4,39.6,17.4c5.4,2.4,11.2,3.6,17,3.6,13.8,0,26.7-6.8,34.6-18.3,7.9-11.4,9.6-25.4,4.6-38.5l-.2-.4v-.2l-.2-.2-.2-.4-56-128.1c-6.4-16.1-21.7-26.6-39.1-26.6h-.2Z"/>
    <path class="st1" d="M270.9,189.8l-.2-.4-.2-.4-56.3-128.1c-5.3-13.5-18-22.1-32.4-22.1s-27.2,8.7-32.4,22.1l-56.3,128.1-.2.4-.2.4c-4.1,10.8-2.6,22.3,3.9,31.8,6.6,9.5,17.3,15.2,28.7,15.2s9.6-1,14.1-3l39.6-17.4c1-.4,1.8-.6,2.8-.6s2,.2,2.8.6l39.6,17.4c4.6,2,9.3,3,14.1,3,11.3,0,22.1-5.7,28.7-15.2s7.9-20.9,3.9-31.8h0Z"/>
    <path class="st2" d="M238.5,222.8c-2.8,0-5.7-.6-8.5-1.8l-39.6-17.4c-2.7-1.2-5.5-1.8-8.4-1.8s-5.7.6-8.4,1.8l-39.6,17.4c-2.8,1.2-5.7,1.8-8.5,1.8-13.7,0-24.9-13.8-19.5-28.1l28.9-65.7h94.4l28.9,65.7c5.4,14.3-5.8,28.1-19.5,28.1h-.3Z"/>
  </g>
  <g>
    <path class="st3" d="M874.2,93l-18.8-11.5c-2.4-1.4-2.4-4.8,0-6.2l18.8-11.5c.5-.3.9-.7,1.2-1.2l11.5-18.8c1.4-2.4,4.8-2.4,6.2,0l11.5,18.8c.3.5.7.9,1.2,1.2l18.8,11.5c2.4,1.4,2.4,4.8,0,6.2l-18.8,11.5c-.5.3-.9.7-1.2,1.2l-11.5,18.8c-1.4,2.4-4.8,2.4-6.2,0l-11.5-18.8c-.3-.5-.7-.9-1.2-1.2Z"/>
    <path class="st0" d="M782.8,182.7l-43.7-26.8c-5.5-3.3-5.5-11.3,0-14.6l43.7-26.8c1.1-.7,2.1-1.8,2.9-2.9l26.8-43.7c3.3-5.5,11.3-5.5,14.6,0l26.8,43.7c.7,1.1,1.8,2.1,2.9,2.9l43.7,26.8c5.5,3.3,5.5,11.3,0,14.6l-43.7,26.8c-1.1.7-2.1,1.8-2.9,2.9l-26.8,43.7c-3.3,5.5-11.3,5.5-14.6,0l-26.8-43.7c-.7-1.1-1.8-2.1-2.9-2.9h0Z"/>
  </g>
  <g>
    <polygon class="st0" points="528.1 74.4 498 91.8 528.1 109.1 528.1 74.4"/>
    <polygon class="st3" points="468 74.4 468 109.1 498 91.8 468 74.4"/>
    <polygon class="st2" points="528.1 109.1 498 91.8 468 109.1 498 126.5 528.1 109.1"/>
    <polygon class="st0" points="436.4 129.3 466.3 146.6 466.3 112 436.4 129.3"/>
    <polygon class="st3" points="466.3 181.3 496.4 164 466.3 146.6 466.3 181.3"/>
    <polygon class="st2" points="466.3 112 466.3 146.6 496.4 164 496.4 129.3 466.3 112"/>
    <polygon class="st0" points="529.7 181.3 529.7 146.6 499.6 164 529.7 181.3"/>
    <polygon class="st3" points="559.7 129.3 529.7 112 529.7 146.6 559.7 129.3"/>
    <polygon class="st2" points="499.6 164 529.7 146.6 529.7 112 499.6 129.3 499.6 164"/>
    <path class="st0" d="M563.2,40.2h-130.4c-17.8,0-32.3,14.5-32.3,32.3v130.4c0,17.8,14.5,32.3,32.3,32.3h89.3l-24.1-58.5-17.5,37h-47.7c-5.9,0-10.8-4.9-10.8-10.8V72.6c0-5.9,4.9-10.8,10.8-10.8h130.4c5.9,0,10.8,4.9,10.8,10.8v130.4c0,5.9-4.9,10.8-10.8,10.8h-28.3l8.9,21.6h19.4c17.8,0,32.3-14.5,32.3-32.3V72.6c0-17.8-14.5-32.3-32.3-32.3h0Z"/>
  </g>
  <path class="st2" d="M315.3,141.8h-35.3v-25.4h35.3v-34.9h25.5v34.9h35.3v25.4h-35.3v34.3h-25.5v-34.3Z"/>
  <path class="st2" d="M652.6,141.8h-35.3v-25.4h35.3v-34.9h25.5v34.9h35.3v25.4h-35.3v34.3h-25.5v-34.3Z"/>
</svg>