<?xml version="1.0" encoding="UTF-8"?>
<svg id="Layer_1" data-name="Layer 1" xmlns="http://www.w3.org/2000/svg" viewBox="0 0 420 280">
  <defs>
    <style>
      .cls-1 {
        fill: #4695eb;
      }

      .cls-2 {
        fill: #fff;
      }

      .cls-3 {
        fill: #ff004a;
      }
    </style>
  </defs>
  <path class="cls-2" d="M234,232.89h-32.87c-1.02,0-1.85-.83-1.85-1.85V99.87c0-1.02.83-1.85,1.85-1.85h32.87c1.02,0,1.85.83,1.85,1.85v12.2c0,1.02-.83,1.85-1.85,1.85h-13.19c-1.02,0-1.85.83-1.85,1.85v99.31c0,1.02.83,1.85,1.85,1.85h13.19c1.02,0,1.85.83,1.85,1.85v12.27c0,1.02-.83,1.85-1.85,1.85Z"/>
  <path class="cls-2" d="M159.99,216.93h13.19c1.02,0,1.85-.83,1.85-1.85v-99.31c0-1.02-.83-1.85-1.85-1.85h-13.19c-1.02,0-1.85-.83-1.85-1.85v-12.2c0-1.02.83-1.85,1.85-1.85h32.87c1.02,0,1.85.83,1.85,1.85v131.17c0,1.02-.83,1.85-1.85,1.85h-32.87c-1.02,0-1.85-.83-1.85-1.85v-12.27c0-1.02.83-1.85,1.85-1.85Z"/>
  <path class="cls-2" d="M279.17,262.33H114.82c-11.35,0-20.58-9.23-20.58-20.58V89.17c0-11.35,9.23-20.58,20.58-20.58h109.62c3.53,0,6.39,2.86,6.39,6.39s-2.86,6.39-6.39,6.39h-109.62c-4.3,0-7.8,3.5-7.8,7.8v152.58c0,4.3,3.5,7.8,7.8,7.8h164.35c4.3,0,7.8-3.5,7.8-7.8v-97.85c0-3.53,2.86-6.39,6.39-6.39s6.39,2.86,6.39,6.39v97.85c0,11.35-9.23,20.58-20.58,20.58Z"/>
  <path class="cls-1" d="M268.59,98.68l-28.35-17.39c-3.54-2.17-3.54-7.31,0-9.48l28.35-17.39c.75-.46,1.37-1.09,1.83-1.83l17.39-28.35c2.17-3.54,7.31-3.54,9.48,0l17.39,28.35c.46.75,1.09,1.37,1.83,1.83l28.35,17.39c3.54,2.17,3.54,7.31,0,9.48l-28.35,17.39c-.75.46-1.37,1.09-1.83,1.83l-17.39,28.35c-2.17,3.54-7.31,3.54-9.48,0l-17.39-28.35c-.46-.75-1.09-1.37-1.83-1.83Z"/>
  <path class="cls-3" d="M327.91,40.41l-12.14-7.45c-1.51-.93-1.51-3.13,0-4.06l12.14-7.45c.32-.2.59-.46.78-.78l7.45-12.14c.93-1.51,3.13-1.51,4.06,0l7.45,12.14c.2.32.46.59.78.78l12.14,7.45c1.51.93,1.51,3.13,0,4.06l-12.14,7.45c-.32.2-.59.46-.78.78l-7.45,12.14c-.93,1.51-3.13,1.51-4.06,0l-7.45-12.14c-.2-.32-.46-.59-.78-.78Z"/>
</svg>