<?xml version="1.0" encoding="utf-8"?>
<!-- Generator: Adobe Illustrator 27.6.1, SVG Export Plug-In . SVG Version: 6.00 Build 0)  -->
<svg version="1.1" id="Layer_1" xmlns="http://www.w3.org/2000/svg" xmlns:xlink="http://www.w3.org/1999/xlink" x="0px" y="0px"
	 viewBox="0 0 170 170" style="enable-background:new 0 0 170 170;" xml:space="preserve">
<style type="text/css">
	.st0{fill:#5791CD;}
	.st1{fill:#EE1E4F;}
	.st2{fill:#FFFFFF;}
</style>
<path class="st0" d="M165.6,37.6h-9.4v-9.4c0-0.7-0.6-1.3-1.3-1.3s-1.3,0.6-1.3,1.3v9.4h-9.1c-0.7,0-1.3,0.6-1.3,1.3
	s0.6,1.3,1.3,1.3h9.1v9.1c0,0.7,0.6,1.3,1.3,1.3s1.3-0.6,1.3-1.3v-9.1h9.4c0.7,0,1.3-0.6,1.3-1.3C166.9,38.2,166.3,37.6,165.6,37.6
	L165.6,37.6z"/>
<path class="st0" d="M24.1,130.6h-6.7v-6.7c0-0.7-0.6-1.3-1.3-1.3c-0.7,0-1.3,0.6-1.3,1.3v6.7H8.3c-0.7,0-1.3,0.6-1.3,1.3
	s0.6,1.3,1.3,1.3h6.5v6.5c0,0.7,0.6,1.3,1.3,1.3c0.7,0,1.3-0.6,1.3-1.3v-6.5h6.7c0.7,0,1.3-0.6,1.3-1.3S24.8,130.6,24.1,130.6
	L24.1,130.6z"/>
<path class="st1" d="M58.9,150.6h-4v-4c0-0.7-0.6-1.3-1.3-1.3s-1.3,0.6-1.3,1.3v4h-3.9c-0.7,0-1.3,0.6-1.3,1.3s0.6,1.3,1.3,1.3h3.9
	v3.9c0,0.7,0.6,1.3,1.3,1.3s1.3-0.6,1.3-1.3v-3.9h4c0.7,0,1.3-0.6,1.3-1.3S59.6,150.6,58.9,150.6z"/>
<path class="st1" d="M28.8,92.9h-4v-4c0-0.7-0.6-1.3-1.3-1.3c-0.7,0-1.3,0.6-1.3,1.3v4h-3.9c-0.7,0-1.3,0.6-1.3,1.3
	c0,0.7,0.6,1.3,1.3,1.3h3.9v3.9c0,0.7,0.6,1.3,1.3,1.3c0.7,0,1.3-0.6,1.3-1.3v-3.9h4c0.7,0,1.3-0.6,1.3-1.3
	C30.1,93.5,29.5,92.9,28.8,92.9z"/>
<path class="st1" d="M116.7,21.6h-4v-4c0-0.7-0.6-1.3-1.3-1.3c-0.7,0-1.3,0.6-1.3,1.3l0,0v4h-3.9c-0.7,0-1.3,0.6-1.3,1.3
	c0,0.7,0.6,1.3,1.3,1.3h3.9v3.9c0,0.7,0.6,1.3,1.3,1.3c0.7,0,1.3-0.6,1.3-1.3v-3.9h4c0.7,0,1.3-0.6,1.3-1.3
	C118,22.1,117.5,21.6,116.7,21.6z"/>
<path class="st1" d="M150.9,86.7h-4v-4c0-0.7-0.6-1.3-1.3-1.3s-1.3,0.6-1.3,1.3v4h-3.9c-0.7,0-1.3,0.6-1.3,1.3
	c0,0.7,0.6,1.3,1.3,1.3h3.9v3.9c0,0.7,0.6,1.3,1.3,1.3s1.3-0.6,1.3-1.3v-3.9h4c0.7,0,1.3-0.6,1.3-1.3
	C152.2,87.2,151.6,86.7,150.9,86.7L150.9,86.7z"/>
<path class="st0" d="M85,82.3c-1.5,0-2.7,1.2-2.7,2.7v8.1c0,1.5,1.2,2.7,2.7,2.7s2.7-1.2,2.7-2.7V85C87.7,83.5,86.5,82.3,85,82.3z"
	/>
<path class="st0" d="M86.9,75c-1.1-1-2.8-1-3.8,0c-0.2,0.3-0.4,0.6-0.6,0.9c-0.1,0.3-0.2,0.7-0.2,1c0,1.5,1.2,2.7,2.7,2.7
	s2.7-1.2,2.7-2.7c0-0.4-0.1-0.7-0.2-1C87.3,75.6,87.2,75.3,86.9,75z"/>
<path class="st2" d="M131,39.4h-11.6c-11.9,0-23.6,2.7-34.3,7.7c-10.7-5.1-22.5-7.7-34.3-7.7H39c-1.5,0-2.7,1.2-2.7,2.7v77.8
	c0,1.5,1.2,2.7,2.7,2.7h11.6c11.5,0,22.8,2.7,33.1,7.8h0.1c0.7,0.4,1.6,0.4,2.3,0h0.1c10.3-5.1,21.6-7.8,33.1-7.8H131
	c1.5,0,2.7-1.2,2.7-2.7V42.1C133.7,40.6,132.4,39.4,131,39.4z M85,101.1c-9,0-16.2-7.2-16.2-16.1S76,68.9,85,68.9
	s16.2,7.2,16.2,16.1S94,101.1,85,101.1z M41.8,117.2V44.7h8.9c10.9,0,21.7,2.4,31.6,7.1v11.9c-11.8,1.5-20.2,12.2-18.8,23.9
	c1.2,9.7,8.9,17.4,18.8,18.6v17.5c-10-4.3-20.8-6.5-31.6-6.6L41.8,117.2L41.8,117.2z M128.2,117.2h-8.9c-10.9,0-21.7,2.3-31.6,6.6
	v-17.5c11.8-1.5,20.2-12.2,18.8-23.9c-1.2-9.7-8.9-17.4-18.8-18.6v-12c9.9-4.6,20.7-7.1,31.6-7.1h8.9V117.2z"/>
</svg>
