<?xml version="1.0" encoding="UTF-8"?>
<svg id="Layer_1" data-name="Layer 1" xmlns="http://www.w3.org/2000/svg" viewBox="0 0 420 280">
  <defs>
    <style>
      .cls-1, .cls-2 {
        fill-rule: evenodd;
      }

      .cls-1, .cls-3 {
        fill: #ff004a;
      }

      .cls-4, .cls-2 {
        fill: #4695eb;
      }

      .cls-5 {
        fill: #fff;
      }
    </style>
  </defs>
  <path class="cls-5" d="M327.39,21.86H92.61c-6.71,0-12.15,5.44-12.15,12.15v211.99c0,6.71,5.44,12.15,12.15,12.15h234.79c6.71,0,12.15-5.44,12.15-12.15V34c0-6.71-5.44-12.15-12.15-12.15ZM331.88,246c0,2.48-2.01,4.49-4.49,4.49H92.61c-2.48,0-4.49-2.01-4.49-4.49V81.47h243.77v164.52ZM331.88,73.82H88.12v-39.81c0-2.48,2.01-4.49,4.49-4.49h234.79c2.48,0,4.49,2.01,4.49,4.49v39.81Z"/>
  <g>
    <path id="Path_959" data-name="Path 959" class="cls-1" d="M121.03,52.17c0,6.29-5.1,11.4-11.4,11.4s-11.4-5.1-11.4-11.4,5.1-11.4,11.4-11.4h0c6.29,0,11.4,5.1,11.4,11.4"/>
    <path id="Path_960" data-name="Path 960" class="cls-2" d="M155.22,52.17c0,6.29-5.1,11.4-11.4,11.4s-11.4-5.1-11.4-11.4,5.1-11.4,11.4-11.4c6.29,0,11.4,5.1,11.4,11.4"/>
    <path id="Path_961" data-name="Path 961" class="cls-2" d="M189.41,52.17c0,6.29-5.1,11.4-11.4,11.4s-11.4-5.1-11.4-11.4,5.1-11.4,11.4-11.4c6.29,0,11.4,5.1,11.4,11.4"/>
  </g>
  <path class="cls-3" d="M293.26,167.63c-.38-8.82-5.85-16.31-13.55-19.63v-30.42c0-9.42-7.67-17.09-17.09-17.09h-105.25c-9.42,0-17.09,7.67-17.09,17.09v30.42c-7.7,3.32-13.17,10.81-13.55,19.63-.55,12.8,9.87,23.41,22.69,23.41h0c1.63,0,2.95-1.32,2.95-2.95v-38.97c0-1.63-1.32-2.95-2.95-2.95h-.27c-.12,0-.25,0-.37,0v-28.6c0-4.74,3.85-8.59,8.59-8.59h105.25c4.74,0,8.59,3.85,8.59,8.59v28.6c-.12,0-.25,0-.37,0h-.27c-1.63,0-2.95,1.32-2.95,2.95v38.97c0,1.63,1.32,2.95,2.95,2.95.22,0,.43-.01.65-.02v28.21c0,3.92-3.19,7.11-7.11,7.11h-31.78c-.65-3.99-4.11-7.04-8.28-7.04h-24.58c-4.63,0-8.39,3.76-8.39,8.39v5.79c0,4.63,3.76,8.39,8.39,8.39h24.58c4.17,0,7.63-3.05,8.28-7.04h31.78c8.6,0,15.6-7,15.6-15.6v-30.11c8.25-3.61,13.96-11.94,13.55-21.5Z"/>
  <path class="cls-4" d="M243.82,124.5h-67.65c-7.93,0-14.36,6.43-14.36,14.36v55.45c0,7.93,6.43,14.36,14.36,14.36h67.65c7.93,0,14.36-6.43,14.36-14.36v-55.45c0-7.93-6.43-14.36-14.36-14.36ZM186.48,195.55c-3.31,0-5.99-2.68-5.99-5.99s2.68-5.99,5.99-5.99,5.99,2.68,5.99,5.99-2.68,5.99-5.99,5.99ZM188.58,170.52c-7.62,0-13.8-6.18-13.8-13.8s6.18-13.8,13.8-13.8,13.8,6.18,13.8,13.8-6.18,13.8-13.8,13.8ZM210.03,195.55c-3.31,0-5.99-2.68-5.99-5.99s2.68-5.99,5.99-5.99,5.99,2.68,5.99,5.99-2.68,5.99-5.99,5.99ZM233.59,195.55c-3.31,0-5.99-2.68-5.99-5.99s2.68-5.99,5.99-5.99,5.99,2.68,5.99,5.99-2.68,5.99-5.99,5.99ZM231.49,170.52c-7.62,0-13.8-6.18-13.8-13.8s6.18-13.8,13.8-13.8,13.8,6.18,13.8,13.8-6.18,13.8-13.8,13.8Z"/>
</svg>