<?xml version="1.0" encoding="UTF-8"?>
<svg id="Layer_1" data-name="Layer 1" xmlns="http://www.w3.org/2000/svg" viewBox="0 0 420 280">
  <defs>
    <style>
      .cls-1 {
        fill: #ff004a;
      }

      .cls-1, .cls-2 {
        fill-rule: evenodd;
      }

      .cls-2 {
        fill: #4695eb;
      }

      .cls-3 {
        fill: #fff;
      }
    </style>
  </defs>
  <path id="Path_959" data-name="Path 959" class="cls-1" d="M169.25,42.91c0,3.23-2.62,5.85-5.85,5.85s-5.85-2.62-5.85-5.85,2.62-5.85,5.85-5.85h0c3.23,0,5.85,2.62,5.85,5.85"/>
  <path id="Path_960" data-name="Path 960" class="cls-2" d="M186.8,42.91c0,3.23-2.62,5.85-5.85,5.85s-5.85-2.62-5.85-5.85,2.62-5.85,5.85-5.85c3.23,0,5.85,2.62,5.85,5.85"/>
  <path id="Path_961" data-name="Path 961" class="cls-2" d="M204.35,42.91c0,3.23-2.62,5.85-5.85,5.85s-5.85-2.62-5.85-5.85,2.62-5.85,5.85-5.85c3.23,0,5.85,2.62,5.85,5.85"/>
  <path class="cls-3" d="M290.06,83.13c0-8.74,7.22-15.95,15.95-15.95s15.95,7.22,15.95,15.95c0,8.74-7.22,15.95-15.95,15.95s-15.95-7.22-15.95-15.95Z"/>
  <path class="cls-3" d="M97.99,83.13c0-8.74,7.22-15.95,15.95-15.95s15.95,7.22,15.95,15.95-7.22,15.95-15.95,15.95-15.95-7.22-15.95-15.95Z"/>
  <path class="cls-3" d="M335.62,238.02l-9.39-33.07v-1.16l4.56-31.53-.76-46.97c0-5.34-2.12-10.4-5.96-14.25l-.15-.14c-4.48-3.98-9.59-5.86-14.69-5.44-7.85.46-14.7,5.5-17.48,12.84-.19.46-.39.94-.59,1.44-1.69,4.14-3.79,9.29-7.65,12.85l-.1.1c-3.93,3.93-14.66,6.57-22.21,6.57-4.73,0-8.44,3.54-8.44,8.06s3.51,8.4,7.99,8.44c11.99.39,22.95-2.03,30.07-6.64l.34-.25c.36-.3.87-.7,1.48-1.16v21.64c0,.12,0,.22,0,.31h0s-14.82,29.27-14.82,29.27c-.46.92-1.08,2.16-1.13,3.67l-3.03,37.88v.28c-.01,2.56.79,4.77,2.3,6.42,1.44,1.93,3.95,3.16,6.5,3.16s4.77-.8,6.41-2.32c1.89-1.41,3.11-3.84,3.16-6.33l3.03-35.58v-.23s14.45-28.49,14.45-28.49l.11-.24c.12-.19.62-.39.79-.38.28.11.99.53.89,1.11l-3.37,25.86c-.54,1.45-.5,2.99.12,4.43l10.17,35.02c.65,2.52,2.09,4.38,4.29,5.54,1.32.82,3.53,1.55,6.77.74,2.62-.66,4.54-2.17,5.7-4.49,1.06-2.11,1.27-4.46.65-6.97Z"/>
  <path class="cls-3" d="M158.77,140.41c-7.55,0-18.28-2.64-22.21-6.57l-.1-.1c-3.85-3.56-5.96-8.71-7.65-12.85-.2-.5-.4-.98-.59-1.44-2.78-7.34-9.63-12.38-17.4-12.83-5.18-.43-10.29,1.45-14.77,5.43l-.15.14c-3.85,3.85-5.96,8.91-5.96,14.19l-.76,45.64v1.39l4.56,31.53v1.16l-9.36,32.96-.03.11c-.63,2.51-.41,4.86.64,6.97,1.16,2.32,3.08,3.83,5.7,4.49,3.25.81,5.45.08,6.77-.74,2.2-1.16,3.64-3.02,4.29-5.54l10.17-35.02c.62-1.44.66-2.97.12-4.42l-3.36-25.74-.02-.12c-.1-.58.61-1,.84-1.1.22-.04.71.17.82.32l14.56,28.77,3.04,35.81c.05,2.49,1.27,4.92,3.16,6.33,1.64,1.52,3.85,2.32,6.41,2.32s5.06-1.23,6.5-3.16c1.52-1.64,2.32-3.85,2.32-6.42l-3.04-38.16c-.04-1.51-.67-2.75-1.13-3.69l-14.81-29.23v-.02c-.01-.09,0-.2,0-.31v-21.64c.6.46,1.11.86,1.48,1.16l.34.25c7.13,4.61,18.09,7.03,30.08,6.64,4.49-.04,7.99-3.73,7.99-8.44s-3.71-8.06-8.44-8.06Z"/>
  <path class="cls-3" d="M271.07,23.21h-122.18c-2.66,0-4.56,1.9-4.56,4.56v103.83c2.36.95,5.5,1.81,8.73,2.32V61.73h113.06v71.16c3.5-.49,6.95-1.41,9.5-2.43V27.77c0-2.66-1.9-4.56-4.56-4.56ZM266.13,52.61h-113.06v-20.28h113.06v20.28Z"/>
  <path class="cls-3" d="M173.2,148.46c0,3.48-1.15,6.64-3.09,9.11h80.73c-2.29-2.35-3.77-5.54-4.04-9.11h-73.6s0,0,0,0Z"/>
</svg>