<?xml version="1.0" encoding="UTF-8"?>
<svg id="Layer_1" data-name="Layer 1" xmlns="http://www.w3.org/2000/svg" viewBox="0 0 420 280">
  <defs>
    <style>
      .cls-1 {
        fill: #4695eb;
      }

      .cls-2 {
        fill: #fff;
      }

      .cls-3 {
        fill: #ff004a;
      }
    </style>
  </defs>
  <g>
    <rect class="cls-2" x="33.17" y="199.66" width="60.45" height="44.83" rx="11.06" ry="11.06"/>
    <rect class="cls-2" x="106.56" y="199.66" width="60.45" height="44.83" rx="11.06" ry="11.06"/>
    <rect class="cls-2" x="179.95" y="199.66" width="60.45" height="44.83" rx="11.06" ry="11.06"/>
    <rect class="cls-2" x="253.35" y="199.66" width="60.45" height="44.83" rx="11.06" ry="11.06"/>
    <rect class="cls-2" x="326.74" y="199.66" width="60.45" height="44.83" rx="11.06" ry="11.06"/>
  </g>
  <g>
    <path class="cls-1" d="M78.61,143.67l-6.22,6.22v-50.66c0-4.71,3.6-8.54,8.04-8.54h93.82l9.07-9.07-8.93-8.93h-93.95c-14.36,0-26.04,11.91-26.04,26.54v50.66l-6.22-6.22c-3.51-3.51-9.21-3.51-12.73,0-3.51,3.51-3.52,9.21,0,12.73l27.95,27.95,27.95-27.95c3.51-3.52,3.51-9.21,0-12.73-3.51-3.51-9.21-3.51-12.73,0Z"/>
    <path class="cls-1" d="M339.93,72.68h-93.95l-8.93,8.93,9.07,9.07h93.82c4.43,0,8.04,3.83,8.04,8.54v75.33c0,4.97,4.03,9,9,9s9-4.03,9-9v-75.33c0-14.63-11.68-26.54-26.04-26.54Z"/>
  </g>
  <polygon class="cls-3" points="257.62 109.26 229.98 81.62 256.29 55.3 236.49 35.51 210.18 61.82 183.86 35.51 164.07 55.3 190.38 81.62 162.74 109.26 182.54 129.06 210.18 101.42 237.82 129.06 257.62 109.26"/>
</svg>