<?xml version="1.0" encoding="utf-8"?>
<!-- Generator: Adobe Illustrator 27.6.1, SVG Export Plug-In . SVG Version: 6.00 Build 0)  -->
<svg version="1.1" id="Layer_1" xmlns="http://www.w3.org/2000/svg" xmlns:xlink="http://www.w3.org/1999/xlink" x="0px" y="0px"
	 viewBox="0 0 170 170" style="enable-background:new 0 0 170 170;" xml:space="preserve">
<style type="text/css">
	.st0{fill:#5791CD;}
	.st1{fill:#EE1E4F;}
	.st2{fill:#FFFFFF;}
</style>
<path class="st0" d="M139,140.5h9.4v9.4c0,0.7,0.6,1.3,1.3,1.3s1.3-0.6,1.3-1.3v-9.4h9.1c0.7,0,1.3-0.6,1.3-1.3s-0.6-1.3-1.3-1.3
	H151v-9.1c0-0.7-0.6-1.3-1.3-1.3s-1.3,0.6-1.3,1.3v9.1H139c-0.7,0-1.3,0.6-1.3,1.3S138.3,140.5,139,140.5L139,140.5z"/>
<path class="st0" d="M15.1,37.7h6.7v6.7c0,0.7,0.6,1.3,1.3,1.3c0.7,0,1.3-0.6,1.3-1.3v-6.7h6.5c0.7,0,1.3-0.6,1.3-1.3
	s-0.6-1.3-1.3-1.3h-6.5v-6.5c0-0.7-0.6-1.3-1.3-1.3c-0.7,0-1.3,0.6-1.3,1.3v6.5h-6.7c-0.7,0-1.3,0.6-1.3,1.3
	C13.9,37.2,14.4,37.7,15.1,37.7L15.1,37.7z"/>
<path class="st1" d="M60.1,43.3h4v4c0,0.7,0.6,1.3,1.3,1.3c0.7,0,1.3-0.6,1.3-1.3v-4h3.9c0.7,0,1.3-0.6,1.3-1.3s-0.6-1.3-1.3-1.3
	h-3.9v-3.9c0-0.7-0.6-1.3-1.3-1.3c-0.7,0-1.3,0.6-1.3,1.3v3.9h-4c-0.7,0-1.3,0.6-1.3,1.3S59.4,43.3,60.1,43.3z"/>
<path class="st1" d="M134,121.5h4v4c0,0.7,0.6,1.3,1.3,1.3s1.3-0.6,1.3-1.3v-4h3.9c0.7,0,1.3-0.6,1.3-1.3c0-0.7-0.6-1.3-1.3-1.3
	h-3.9V115c0-0.7-0.6-1.3-1.3-1.3s-1.3,0.6-1.3,1.3v3.9h-4c-0.7,0-1.3,0.6-1.3,1.3C132.7,120.9,133.3,121.5,134,121.5z"/>
<path class="st1" d="M115.4,145.7h4v4c0,0.7,0.6,1.3,1.3,1.3c0.7,0,1.3-0.6,1.3-1.3l0,0v-4h3.9c0.7,0,1.3-0.6,1.3-1.3
	s-0.6-1.3-1.3-1.3H122v-3.9c0-0.7-0.6-1.3-1.3-1.3c-0.7,0-1.3,0.6-1.3,1.3v3.9h-4c-0.7,0-1.3,0.6-1.3,1.3
	C114.1,145.1,114.7,145.7,115.4,145.7z"/>
<path class="st1" d="M39,64.5h4v4c0,0.7,0.6,1.3,1.3,1.3s1.3-0.6,1.3-1.3v-4h3.9c0.7,0,1.3-0.6,1.3-1.3s-0.6-1.3-1.3-1.3h-3.9V58
	c0-0.7-0.6-1.3-1.3-1.3S43,57.3,43,58v3.9h-4c-0.7,0-1.3,0.6-1.3,1.3S38.3,64.5,39,64.5L39,64.5z"/>
<g>
	<path class="st2" d="M112.8,124.3V98.7h8.5v34.1H44.7V98.7h8.5v25.6C53.2,124.3,112.8,124.3,112.8,124.3z"/>
	<path class="st2" d="M62.6,96.2l41.7,8.7l1.8-8.4l-41.7-8.7L62.6,96.2z M68.1,76.4l38.6,18l3.5-7.7L71.6,68.6L68.1,76.4z
		 M78.8,57.4l32.7,27.2l5.4-6.5L84.2,50.9L78.8,57.4z M99.9,37.3l-6.8,5.1l25.4,34.2l6.8-5.1L99.9,37.3z M61.7,115.7h42.6v-8.5H61.7
		V115.7z"/>
</g>
</svg>
