<?xml version="1.0" encoding="utf-8"?>
<!-- Generator: Adobe Illustrator 28.3.0, SVG Export Plug-In . SVG Version: 6.00 Build 0)  -->
<svg version="1.1" id="Layer_1" xmlns="http://www.w3.org/2000/svg" xmlns:xlink="http://www.w3.org/1999/xlink" x="0px" y="0px"
	 viewBox="0 0 420 280" style="enable-background:new 0 0 420 280;" xml:space="preserve">
<style type="text/css">
	.st0{fill:#4695EB;}
	.st1{fill:#091313;}
	.st2{fill:#FF004A;}
</style>
<g>
	<path class="st0" d="M128,140.1c-4.8,0-8.6-4.1-8.1-8.9c2-20.8,11.2-40.3,26.1-55.2c17-17,40-26.5,64.1-26.5
		c24,0,47.1,9.5,64.1,26.5c14.9,14.9,24.1,34.4,26.1,55.2c0.5,4.8-3.3,8.9-8.1,8.9l0,0c-4.2,0-7.8-3.2-8.2-7.3
		c-1.7-17-9.2-33-21.4-45.2c-13.9-13.9-32.8-21.7-52.5-21.7c-19.7,0-38.6,7.8-52.5,21.7c-12.2,12.2-19.7,28.2-21.4,45.2
		C135.7,137,132.2,140.1,128,140.1L128,140.1z"/>
	<path class="st0" d="M178.7,187.4h62.5c4.5,0,8.2,3.7,8.2,8.2v0c0,4.5-3.7,8.2-8.2,8.2h-62.5c-4.5,0-8.2-3.7-8.2-8.2v0
		C170.6,191,174.2,187.4,178.7,187.4z"/>
	<path class="st1" d="M210,13C139.9,13,83,69.9,83,140s56.9,127,127,127s127-56.9,127-127S280.1,13,210,13z M210,250.6
		c-61.1,0-110.6-49.5-110.6-110.6S148.9,29.4,210,29.4S320.6,78.9,320.6,140S271.1,250.6,210,250.6z"/>
	<polygon class="st2" points="271.3,79 217.7,171.6 178.8,132.7 271.3,79 217.7,171.6 178.8,132.7 	"/>
</g>
</svg>
