<?xml version="1.0" encoding="utf-8"?>
<!-- Generator: Adobe Illustrator 28.3.0, SVG Export Plug-In . SVG Version: 6.00 Build 0)  -->
<svg version="1.1" id="Layer_1" xmlns="http://www.w3.org/2000/svg" xmlns:xlink="http://www.w3.org/1999/xlink" x="0px" y="0px"
	 viewBox="0 0 420 280" style="enable-background:new 0 0 420 280;" xml:space="preserve">
<style type="text/css">
	.st0{fill:#4695EB;}
	.st1{fill:#FFFFFF;}
</style>
<g>
	<polygon class="st0" points="140.6,4.5 140.6,4.5 140.6,4.5 140.6,227 209.8,275.5 279.4,227 279.4,4.5 209.8,53 	"/>
</g>
<g>
	<path class="st1" d="M322.1,74.7H97.9c-2.4,0-4.3,1.9-4.3,4.3v91.8c0,2.4,1.9,4.3,4.3,4.3h7.7v20.7c0,2.4,1.9,4.3,4.3,4.3h200.2
		c2.4,0,4.3-1.9,4.3-4.3v-20.7h7.7c2.4,0,4.3-1.9,4.3-4.3V79C326.4,76.6,324.5,74.7,322.1,74.7z M305.8,191.5h-14v-8.2
		c0-2.4-1.9-4.3-4.3-4.3s-4.3,1.9-4.3,4.3v8.2h-13.5v-8.2c0-2.4-1.9-4.3-4.3-4.3c-2.4,0-4.3,1.9-4.3,4.3v8.2h-13.5v-8.2
		c0-2.4-1.9-4.3-4.3-4.3s-4.3,1.9-4.3,4.3v8.2h-13.5v-8.2c0-2.4-1.9-4.3-4.3-4.3c-2.4,0-4.3,1.9-4.3,4.3v8.2h-13.5v-8.2
		c0-2.4-1.9-4.3-4.3-4.3s-4.3,1.9-4.3,4.3v8.2h-13.5v-8.2c0-2.4-1.9-4.3-4.3-4.3s-4.3,1.9-4.3,4.3v8.2H159v-8.2
		c0-2.4-1.9-4.3-4.3-4.3c-2.4,0-4.3,1.9-4.3,4.3v8.2h-13.5v-8.2c0-2.4-1.9-4.3-4.3-4.3s-4.3,1.9-4.3,4.3v8.2h-14v-16.4h191.6V191.5z
		 M310.1,166.5H109.9h-7.7l0-83.2h215.6l0,83.2H310.1z"/>
	<path class="st1" d="M141.3,94.8h-25.4c-2.4,0-4.3,1.9-4.3,4.3v51.5c0,2.4,1.9,4.3,4.3,4.3h25.4c2.4,0,4.3-1.9,4.3-4.3V99.2
		C145.6,96.8,143.7,94.8,141.3,94.8z M137,146.3h-16.8v-42.9H137V146.3z"/>
	<path class="st1" d="M182,94.8h-25.4c-2.4,0-4.3,1.9-4.3,4.3v51.5c0,2.4,1.9,4.3,4.3,4.3H182c2.4,0,4.3-1.9,4.3-4.3V99.2
		C186.3,96.8,184.3,94.8,182,94.8z M160.9,146.3l0-42.9h16.8l0,42.9H160.9z"/>
	<path class="st1" d="M222.7,94.8h-25.4c-2.4,0-4.3,1.9-4.3,4.3v51.5c0,2.4,1.9,4.3,4.3,4.3h25.4c2.4,0,4.3-1.9,4.3-4.3V99.2
		C227,96.8,225,94.8,222.7,94.8z M218.4,146.3h-16.8v-42.9h16.8V146.3z"/>
	<path class="st1" d="M263.4,94.8H238c-2.4,0-4.3,1.9-4.3,4.3v51.5c0,2.4,1.9,4.3,4.3,4.3h25.4c2.4,0,4.3-1.9,4.3-4.3V99.2
		C267.7,96.8,265.7,94.8,263.4,94.8z M259,146.3h-16.8v-42.9H259V146.3z"/>
	<path class="st1" d="M304.1,94.8h-25.4c-2.4,0-4.3,1.9-4.3,4.3v51.5c0,2.4,1.9,4.3,4.3,4.3h25.4c2.4,0,4.3-1.9,4.3-4.3V99.2
		C308.4,96.8,306.5,94.8,304.1,94.8z M299.8,146.3H283v-42.9h16.8V146.3z"/>
</g>
</svg>
