<?xml version="1.0" encoding="UTF-8"?>
<svg id="Layer_1" data-name="Layer 1" xmlns="http://www.w3.org/2000/svg" viewBox="0 0 420 280">
  <defs>
    <style>
      .cls-1 {
        fill: #4695eb;
      }

      .cls-2 {
        fill: #fff;
      }

      .cls-3 {
        fill: #ff004a;
      }
    </style>
  </defs>
  <path class="cls-2" d="M226,123.14c9.8-7.34,20.9-15.65,20.9-27.89v-21.7h9.24c3.21,0,5.85-2.63,5.85-5.85v-5.76c0-3.21-2.63-5.84-5.85-5.84h-113.36c-3.21,0-5.85,2.63-5.85,5.84v5.76c0,3.21,2.63,5.85,5.85,5.85h9.24v21.7c0,12.24,11.1,20.55,20.9,27.89,7.7,5.77,14.98,11.22,14.98,17s-7.27,11.23-14.98,17c-9.8,7.34-20.9,15.65-20.9,27.89v21.41h-9.24c-3.21,0-5.85,2.63-5.85,5.84v5.76c0,3.21,2.63,5.85,5.85,5.85h113.36c3.21,0,5.85-2.63,5.85-5.85v-5.76c0-3.21-2.63-5.84-5.85-5.84h-9.24v-21.41c0-12.23-11.1-20.55-20.9-27.89-7.7-5.77-14.98-11.22-14.98-17s7.27-11.23,14.98-17ZM205.49,140.14c0,8.55,8.35,14.81,17.19,21.43,9.19,6.88,18.68,13.99,18.68,23.46v21.41h-83.81v-21.41c0-9.46,9.5-16.58,18.68-23.46,8.84-6.62,17.19-12.88,17.19-21.43s-8.35-14.81-17.19-21.43c-9.19-6.88-18.68-13.99-18.68-23.46v-21.7h83.81v21.7c0,9.46-9.5,16.58-18.68,23.46-8.84,6.62-17.19,12.88-17.19,21.43Z"/>
  <g>
    <path class="cls-3" d="M208.71,188.77c3.8,2.85,7.73,5.79,7.73,8.83v2.78c0,1.7-1.38,3.07-3.07,3.07h-27.92c-1.7,0-3.07-1.38-3.07-3.07v-2.78c0-3.04,3.93-5.98,7.73-8.83,2.53-1.89,5.1-3.82,6.91-6.09,1.23-1.54,3.57-1.54,4.8,0,1.81,2.27,4.38,4.2,6.91,6.09Z"/>
    <path class="cls-3" d="M201.61,130.9c-.91,1.75-3.39,1.75-4.3,0-3.51-6.76-10.52-12.01-17.36-17.14-7.97-5.97-16.2-12.14-16.2-18.5v-10.14c0-1.34,1.08-2.42,2.42-2.42h66.59c1.34,0,2.42,1.08,2.42,2.42v10.14c0,6.37-8.24,12.54-16.2,18.5-6.85,5.13-13.85,10.38-17.36,17.14Z"/>
    <path class="cls-3" d="M195.66,162.94c0,2.1,1.7,3.8,3.8,3.8s3.8-1.7,3.8-3.8-1.7-8.84-3.8-8.84-3.8,6.74-3.8,8.84Z"/>
  </g>
  <path class="cls-1" d="M350.7,161.69c-2.22-4.45-7.62-6.26-12.07-4.04l-10.09,5.03.29-1.75c10.09-62.2-26.08-124.52-87.73-145.17C172.58-7.22,98.16,29.85,75.2,98.36c-12.75,38.04-7.54,79.2,14.29,112.92,0,0,0,0,0,0,1.15,1.77,2.36,3.55,3.59,5.27,1.56,2.18,4.02,3.33,6.5,3.33,1.62,0,3.25-.49,4.66-1.5,3.59-2.58,4.41-7.58,1.83-11.17-1.09-1.51-2.15-3.07-3.16-4.63,0,0,0,0,0,0-19.17-29.61-23.74-65.75-12.55-99.15C110.53,43.29,175.86,10.76,236.01,30.91c53.15,17.81,84.73,70.88,77.46,124.49l-3.7-7.43c-2.22-4.45-7.62-6.26-12.07-4.04-4.45,2.22-6.26,7.62-4.04,12.07l17.62,35.38,35.38-17.62c4.45-2.22,6.26-7.62,4.04-12.07Z"/>
  <path class="cls-1" d="M217.69,253.62c-3.8.61-7.66,1.04-11.49,1.26-4.41.26-7.77,4.05-7.51,8.46.25,4.25,3.78,7.53,7.98,7.53.16,0,.32,0,.48-.01,4.37-.26,8.77-.74,13.1-1.44,4.36-.7,7.33-4.81,6.62-9.17-.7-4.36-4.81-7.34-9.17-6.62Z"/>
  <path class="cls-1" d="M136.56,236.37c-3.22-2.1-6.36-4.38-9.35-6.79-3.44-2.77-8.48-2.24-11.25,1.2-2.77,3.44-2.24,8.47,1.2,11.25,3.41,2.75,6.99,5.35,10.66,7.74,1.35.88,2.86,1.3,4.36,1.3,2.61,0,5.18-1.28,6.71-3.63,2.41-3.7,1.37-8.66-2.33-11.07Z"/>
  <path class="cls-1" d="M175.54,252.55c-3.75-.8-7.51-1.8-11.18-2.98-4.21-1.35-8.71.97-10.06,5.17-1.35,4.21.97,8.71,5.17,10.06,4.18,1.34,8.46,2.48,12.72,3.39.56.12,1.13.18,1.68.18,3.69,0,7.01-2.57,7.82-6.33.92-4.32-1.83-8.57-6.15-9.5Z"/>
  <path class="cls-1" d="M257.41,239.39c-3.32,1.93-6.78,3.72-10.28,5.32-4.02,1.83-5.8,6.58-3.96,10.6,1.34,2.95,4.25,4.69,7.29,4.69,1.11,0,2.24-.23,3.31-.72,3.98-1.81,7.92-3.85,11.69-6.05,3.82-2.22,5.11-7.12,2.89-10.94-2.22-3.82-7.12-5.11-10.94-2.89Z"/>
  <path class="cls-1" d="M296.83,215.72c-3.3-2.93-8.36-2.64-11.29.67-1.24,1.4-2.53,2.78-3.83,4.1-3.09,3.16-3.04,8.22.11,11.31,1.56,1.53,3.58,2.29,5.6,2.29s4.15-.8,5.71-2.4c1.48-1.51,2.95-3.08,4.36-4.67,2.93-3.3,2.64-8.36-.67-11.29Z"/>
</svg>