<?xml version="1.0" encoding="UTF-8"?>
<svg id="Layer_1" data-name="Layer 1" xmlns="http://www.w3.org/2000/svg" viewBox="0 0 420 280">
  <defs>
    <style>
      .cls-1 {
        fill: #ff004a;
      }

      .cls-1, .cls-2 {
        fill-rule: evenodd;
      }

      .cls-3 {
        fill: #091313;
      }

      .cls-2 {
        fill: #4695eb;
      }
    </style>
  </defs>
  <g>
    <path id="Path_959" data-name="Path 959" class="cls-1" d="M169.25,42.91c0,3.23-2.62,5.85-5.85,5.85s-5.85-2.62-5.85-5.85,2.62-5.85,5.85-5.85h0c3.23,0,5.85,2.62,5.85,5.85"/>
    <path id="Path_960" data-name="Path 960" class="cls-2" d="M186.8,42.91c0,3.23-2.62,5.85-5.85,5.85s-5.85-2.62-5.85-5.85,2.62-5.85,5.85-5.85c3.23,0,5.85,2.62,5.85,5.85"/>
    <path id="Path_961" data-name="Path 961" class="cls-2" d="M204.35,42.91c0,3.23-2.62,5.85-5.85,5.85s-5.85-2.62-5.85-5.85,2.62-5.85,5.85-5.85c3.23,0,5.85,2.62,5.85,5.85"/>
  </g>
  <path class="cls-3" d="M340.58,237.34h0l-9.12-32.29,4.56-30.39c0-.76.38-1.9,0-2.66l-.76-45.58c0-6.84-3.04-13.67-7.98-18.23-1.9-1.9-4.18-3.42-6.84-4.56,6.46-4.56,10.64-12.15,10.64-20.51,0-13.67-11.4-25.07-25.07-25.07s-25.07,11.4-25.07,25.07c0,9.88,5.7,18.61,14.43,22.79-4.18,3.04-7.22,6.84-9.12,11.77-1.14,3.42-3.42,8.74-6.84,12.15-.76.76-2.28,1.52-3.8,2.28V27.77c0-2.66-1.9-4.56-4.56-4.56h-122.18c-2.66,0-4.56,1.9-4.56,4.56v104.36c-1.9-.76-3.04-1.52-3.8-2.28-3.42-3.42-5.32-8.74-6.84-12.15-1.9-4.56-4.94-8.74-9.12-11.77,8.74-4.18,14.43-12.91,14.43-22.79,0-13.67-11.4-25.07-25.07-25.07s-25.07,11.4-25.07,25.07c0,7.98,3.8,15.57,10.64,20.51-2.66,1.14-4.94,2.66-6.84,4.56-4.94,4.56-7.98,11.4-7.98,18.23l-.76,45.58v2.66l4.56,30.39-9.12,32.29c-2.28,7.98,2.28,15.95,10.25,18.23,1.52.38,2.66.76,4.18.76,6.46,0,12.54-4.56,14.05-10.64l10.25-35.32c.38-1.9.76-3.42.38-5.32l1.52,3.04,2.66,34.94c.38,3.8,2.28,7.6,5.32,10.26,3.04,2.66,6.84,3.8,10.64,3.42,3.8-.38,7.6-2.28,10.25-5.32,2.66-3.04,3.8-6.84,3.42-10.64l-3.04-37.98c0-1.9-.76-3.8-1.52-5.32l-14.43-28.11v-10.64c9.5,3.8,20.51,4.18,26.21,3.8,3.8,0,7.6-1.9,9.88-4.94h81.16c2.66,3.04,6.08,4.56,9.88,4.94,5.7,0,16.33,0,26.21-3.8v10.64l-14.43,28.11c-.76,1.9-1.52,3.42-1.52,5.32l-3.04,37.98c-.38,3.8.76,7.6,3.42,10.64,2.66,3.04,6.08,4.94,10.25,5.32,3.8.38,7.6-.76,10.64-3.42,3.04-2.66,4.94-6.08,5.32-10.26l2.66-34.94,1.52-3.04c0,1.9,0,3.42.38,5.32l10.25,35.32c1.9,6.46,7.6,10.64,14.05,10.64,1.52,0,2.66-.38,4.18-.76,3.8-1.14,6.84-3.42,8.74-7.22,2.28-3.04,2.66-7.22,1.52-11.02ZM290.06,83.13c0-8.74,7.22-15.95,15.95-15.95s15.95,7.22,15.95,15.95c0,8.74-7.22,15.95-15.95,15.95s-15.95-7.22-15.95-15.95ZM266.13,32.33v20.28h-113.06v-20.28h113.06ZM97.99,83.13c0-8.74,7.22-15.95,15.95-15.95s15.95,7.22,15.95,15.95-7.22,15.95-15.95,15.95-15.95-7.22-15.95-15.95ZM159.15,153.4c-11.4.38-21.65-1.9-28.11-6.08-2.66-1.9-9.88-7.22-12.91-11.02-1.14-2.28-4.18-2.66-6.08-1.14h0c-1.14.76-1.52,1.9-1.9,3.04,0,1.14,0,2.28.76,3.42,3.04,4.18,9.5,9.12,12.91,11.77v16.71c0,.76,0,1.52.38,1.9l14.81,29.25c.38.76.38,1.52.76,2.28l3.04,37.98c0,1.52-.38,3.04-1.52,4.18-1.14,1.14-2.28,1.9-3.8,1.9s-3.04-.38-4.18-1.52c-1.14-1.14-1.9-2.28-1.9-3.8l-3.04-35.7c0-.76-.38-1.14-.38-1.52l-14.43-28.49c-.76-1.52-2.28-2.66-4.18-2.66-.38,0-.76,0-1.52.38-2.28.76-3.42,2.66-3.04,4.94l4.18,26.59v2.28l-10.25,35.32c-.38,1.52-1.52,2.66-2.66,3.42-1.52.76-3.04,1.14-4.56.38-1.52-.38-2.66-1.52-3.42-2.66-.76-1.52-.76-3.04-.38-4.56l9.5-33.43c0-.76.38-1.14,0-1.9l-4.56-31.53v-1.14l.76-45.58c0-4.56,1.9-8.74,4.94-11.77,3.42-3.04,7.6-4.56,12.15-4.56,6.46.38,12.15,4.56,14.43,10.64,1.52,4.18,4.18,10.64,9.12,15.57,4.94,4.56,16.71,7.6,24.69,7.6,1.14,0,2.28.38,3.42,1.14,1.14.76,1.52,1.9,1.52,3.42,0,2.66-1.9,4.94-4.56,4.94ZM247.14,148.46h0s-74.32,0-74.32,0v-.38c0-7.6-6.08-13.29-14.05-13.29h-.38c-1.52,0-3.42,0-5.32-.38V61.73h113.06v72.68c-1.9.38-3.42.38-4.94.38h-.76c-6.84-.38-12.91,5.7-13.3,13.67ZM331.84,243.42c-.76,1.52-1.9,2.28-3.42,2.66-1.52.38-3.04.38-4.18-.38-1.52-.76-2.28-1.9-2.66-3.42l-10.25-35.32c-.38-.76-.38-1.52,0-2.28l3.42-26.21c.38-2.28-1.14-4.18-3.04-4.94-1.9-.76-4.56.38-5.32,2.28l-14.43,28.49c-.38.38-.38,1.14-.38,1.52l-3.04,35.7c0,1.52-.76,3.04-1.9,3.8-1.14,1.14-2.66,1.52-4.18,1.52s-3.04-.76-3.8-1.9c-1.14-1.14-1.52-2.66-1.52-4.18l3.04-37.98c0-.76.38-1.52.76-2.28l14.81-29.25c.38-.76.38-1.14.38-1.9v-16.71c3.8-2.66,9.88-7.6,12.91-11.77.76-1.14,1.14-2.28.76-3.42,0-1.14-.76-2.28-1.9-3.04-1.9-1.52-4.94-1.14-6.46.76-2.66,3.8-10.25,9.12-12.54,11.02-6.46,4.18-16.71,6.46-28.11,6.08-2.66,0-4.56-2.28-4.56-4.94s2.28-4.56,4.94-4.56c7.98,0,19.75-2.66,24.69-7.6,4.94-4.56,7.22-11.02,9.12-15.57,2.28-6.08,7.98-10.25,14.43-10.64,4.56-.38,8.74,1.52,12.15,4.56,3.04,3.04,4.94,7.22,4.94,11.77l.76,45.58v1.14l-4.56,31.53v1.9l9.5,33.43c.38,1.52.38,3.04-.38,4.56Z"/>
</svg>