<?xml version="1.0" encoding="utf-8"?>
<!-- Generator: Adobe Illustrator 26.0.1, SVG Export Plug-In . SVG Version: 6.00 Build 0)  -->
<svg version="1.1" id="Layer_1" xmlns="http://www.w3.org/2000/svg" xmlns:xlink="http://www.w3.org/1999/xlink" x="0px" y="0px"
	 viewBox="0 0 170 170" style="enable-background:new 0 0 170 170;" xml:space="preserve">
<style type="text/css">
	.st0{fill:#5791CD;}
	.st1{fill:#EE1E4F;}
	.st2{fill:none;}
	.st3{fill:#4695EB;}
	.st4{fill:#FF004A;}
	.st5{fill:#0D1515;}
</style>
<path class="st0" d="M8.2,37.6c-0.7,0-1.3,0.6-1.3,1.3c0,0.7,0.6,1.3,1.3,1.3h9.4v9.1c0,0.7,0.6,1.3,1.3,1.3s1.3-0.6,1.3-1.3v-9.1
	h9.1c0.7,0,1.3-0.6,1.3-1.3c0-0.7-0.6-1.3-1.3-1.3h-9.1v-9.4c0-0.7-0.6-1.3-1.3-1.3s-1.3,0.6-1.3,1.3v9.4H8.2L8.2,37.6z"/>
<path class="st0" d="M134.7,129.2c-0.7,0-1.3,0.6-1.3,1.3s0.6,1.3,1.3,1.3h6.7v6.5c0,0.7,0.6,1.3,1.3,1.3s1.3-0.6,1.3-1.3v-6.5h6.5
	c0.7,0,1.3-0.6,1.3-1.3s-0.6-1.3-1.3-1.3H144v-6.7c0-0.7-0.6-1.3-1.3-1.3s-1.3,0.6-1.3,1.3v6.7H134.7L134.7,129.2z"/>
<path class="st1" d="M91,146.3c0,0.7,0.6,1.3,1.3,1.3h4v3.9c0,0.7,0.6,1.3,1.3,1.3c0.7,0,1.3-0.6,1.3-1.3v-3.9h3.9
	c0.7,0,1.3-0.6,1.3-1.3s-0.6-1.3-1.3-1.3h-3.9v-4c0-0.7-0.6-1.3-1.3-1.3c-0.7,0-1.3,0.6-1.3,1.3v4h-4C91.6,145,91,145.6,91,146.3z"
	/>
<path class="st1" d="M147.6,102.3c0,0.7,0.6,1.3,1.3,1.3h4v3.9c0,0.7,0.6,1.3,1.3,1.3s1.3-0.6,1.3-1.3v-3.9h3.9
	c0.7,0,1.3-0.6,1.3-1.3s-0.6-1.3-1.3-1.3h-3.9v-4c0-0.7-0.6-1.3-1.3-1.3s-1.3,0.6-1.3,1.3v4h-4C148.2,101,147.6,101.6,147.6,102.3z"
	/>
<path class="st1" d="M55.8,22.9c0,0.7,0.6,1.3,1.3,1.3h4v3.9c0,0.7,0.6,1.3,1.3,1.3s1.3-0.6,1.3-1.3v-3.9h3.9c0.7,0,1.3-0.6,1.3-1.3
	c0-0.7-0.6-1.3-1.3-1.3h-3.9v-4l0,0c0-0.7-0.6-1.3-1.3-1.3s-1.3,0.6-1.3,1.3v4h-4C56.4,21.6,55.8,22.1,55.8,22.9z"/>
<path class="st1" d="M13.7,95.3c-0.7,0-1.3,0.6-1.3,1.3s0.6,1.3,1.3,1.3h4v3.9c0,0.7,0.6,1.3,1.3,1.3c0.7,0,1.3-0.6,1.3-1.3v-3.9
	h3.9c0.7,0,1.3-0.6,1.3-1.3s-0.6-1.3-1.3-1.3h-3.9v-4c0-0.7-0.6-1.3-1.3-1.3c-0.7,0-1.3,0.6-1.3,1.3v4H13.7L13.7,95.3z"/>
<g>
	<path class="st2" d="M93.4,97.1H63.7l-1,1c1.6,2.9,4.6,5,8.2,5H103l12.5,12.5V103h4.5c5.1,0,9.2-4.1,9.2-9.2V72.4
		c0-5.1-4.1-9.2-9.2-9.2h-11.6v19.1C108.3,90.4,101.6,97.1,93.4,97.1z"/>
	<path class="st2" d="M102.7,82.3V63.2H70.9c-5.1,0-9.3,4.1-9.3,9.2v19.1h31.8C98.5,91.5,102.7,87.4,102.7,82.3z"/>
	<path class="st2" d="M56.1,72.4c0-8.2,6.6-14.8,14.8-14.8h31.2c-1.3-3.5-4.7-5.9-8.6-5.9h-49c-5.1,0-9.2,4.1-9.2,9.2v21.3
		c0,5.1,4.1,9.2,9.2,9.2h4.5V104l7.4-7.4c-0.2-0.9-0.3-1.8-0.3-2.8V72.4z"/>
	<path class="st3" d="M48.9,104V91.5h-4.5c-5.1,0-9.2-4.1-9.2-9.2V60.9c0-5.1,4.1-9.2,9.2-9.2h49c3.9,0,7.3,2.5,8.6,5.9h5.8
		c-1.5-6.6-7.4-11.5-14.4-11.5h-49c-8.2,0-14.8,6.6-14.8,14.8v21.3c0,7.8,6.1,14.2,13.7,14.8v20.4l15.3-15.3
		c-1.1-1.6-1.9-3.5-2.3-5.6L48.9,104z"/>
	<path class="st3" d="M102.7,82.3c0,5.1-4.1,9.2-9.2,9.2H61.6v2.2c0,1.6,0.4,3,1.1,4.3l1-1h29.8c8.2,0,14.8-6.6,14.8-14.8V63.2h-5.6
		V82.3z"/>
	<path class="st4" d="M119.9,57.6h-12c0.2,1.1,0.4,2.2,0.4,3.3v2.2h11.6c5.1,0,9.2,4.1,9.2,9.2v21.3c0,5.1-4.1,9.2-9.2,9.2h-4.5
		v12.5L103,103H70.9c-3.5,0-6.6-2-8.2-5l-4,4c2.7,3.9,7.2,6.5,12.2,6.5h29.8l20.3,20.3v-20.4c7.7-0.6,13.7-7,13.7-14.8V72.4
		C134.7,64.2,128.1,57.6,119.9,57.6z"/>
	<path class="st4" d="M70.9,63.2h31.8v-2.2c0-1.2-0.2-2.3-0.6-3.3H70.9c-8.2,0-14.8,6.6-14.8,14.8v21.3c0,1,0.1,1.9,0.3,2.8l5-5h0.3
		V72.4C61.6,67.3,65.8,63.2,70.9,63.2z"/>
	<path class="st3" d="M61.6,93.8v-2.2h-0.3l-5,5c0.4,2,1.2,3.9,2.3,5.6l4-4C62,96.8,61.6,95.3,61.6,93.8z"/>
	<path class="st5" d="M61.6,93.8v-2.2h-0.3l-5,5c0.4,2,1.2,3.9,2.3,5.6l4-4C62,96.8,61.6,95.3,61.6,93.8z"/>
	<path class="st3" d="M102.7,60.9v2.2h5.6v-2.2c0-1.1-0.1-2.3-0.4-3.3h-5.8C102.5,58.6,102.7,59.7,102.7,60.9z"/>
	<path class="st5" d="M102.7,60.9v2.2h5.6v-2.2c0-1.1-0.1-2.3-0.4-3.3h-5.8C102.5,58.6,102.7,59.7,102.7,60.9z"/>
</g>
</svg>
