<?xml version="1.0" encoding="UTF-8"?><svg xmlns="http://www.w3.org/2000/svg" xmlns:xlink="http://www.w3.org/1999/xlink" fill-opacity="1" color-rendering="auto" color-interpolation="auto" text-rendering="auto" stroke="black" stroke-linecap="square" width="874" stroke-miterlimit="10" shape-rendering="auto" stroke-opacity="1" fill="black" stroke-dasharray="none" font-weight="normal" stroke-width="1" height="1048" font-family="'Dialog'" font-style="normal" stroke-linejoin="miter" font-size="12px" stroke-dashoffset="0" image-rendering="auto">
  <!--Generated by ySVG 2.6-->
  <defs id="genericDefs"/>
  <g>
    <defs id="defs1">
      <clipPath clipPathUnits="userSpaceOnUse" id="clipPath1">
        <path d="M0 0 L874 0 L874 1048 L0 1048 L0 0 Z"/>
      </clipPath>
      <clipPath clipPathUnits="userSpaceOnUse" id="clipPath2">
        <path d="M1947 150 L2821 150 L2821 1198 L1947 1198 L1947 150 Z"/>
      </clipPath>
    </defs>
    <g stroke-linecap="butt" transform="matrix(1,0,0,1,-1947,-150)" fill="navy" text-rendering="geometricPrecision" shape-rendering="geometricPrecision" stroke="navy" stroke-miterlimit="1.45">
      <rect fill="none" x="1962.2842" width="842.75" height="992.5496" y="189.6788" clip-path="url(#clipPath2)"/>
    </g>
    <g text-rendering="geometricPrecision" stroke-miterlimit="1.45" shape-rendering="geometricPrecision" font-family="sans-serif" transform="matrix(1,0,0,1,-1947,-150)" stroke-linecap="butt">
      <text x="2193.8237" xml:space="preserve" y="180.1628" clip-path="url(#clipPath2)" stroke="none">Traditional/Classic Workflow with 'static' and 'dynamic CDS archives</text>
      <rect x="2025.2842" y="549.3159" clip-path="url(#clipPath2)" fill="none" width="751" height="270" stroke="navy"/>
      <text x="2312.7876" xml:space="preserve" y="539.7999" clip-path="url(#clipPath2)" stroke="none">Run training version of the App</text>
    </g>
    <g fill="rgb(127,191,255)" text-rendering="geometricPrecision" shape-rendering="geometricPrecision" transform="matrix(1,0,0,1,-1947,-150)" stroke="rgb(127,191,255)">
      <path d="M2078.2842 685.8159 L2194.3843 685.8159 L2207.2842 731.3159 L2194.3843 776.8159 L2078.2842 776.8159 L2091.1841 731.3159 Z" fill-rule="evenodd" clip-path="url(#clipPath2)" stroke="none"/>
    </g>
    <g stroke-linecap="butt" transform="matrix(1,0,0,1,-1947,-150)" fill="navy" text-rendering="geometricPrecision" shape-rendering="geometricPrecision" stroke="navy" stroke-miterlimit="1.45">
      <path fill="none" d="M2078.2842 685.8159 L2194.3843 685.8159 L2207.2842 731.3159 L2194.3843 776.8159 L2078.2842 776.8159 L2091.1841 731.3159 Z" fill-rule="evenodd" clip-path="url(#clipPath2)"/>
      <text x="2115.7781" y="727.7999" clip-path="url(#clipPath2)" fill="black" font-family="sans-serif" stroke="none" xml:space="preserve">ByteCode</text>
      <text x="2129.98" y="744.144" clip-path="url(#clipPath2)" fill="black" font-family="sans-serif" stroke="none" xml:space="preserve">(JAR)</text>
      <rect fill="none" x="2025.2842" width="751" height="270" y="233.8315" clip-path="url(#clipPath2)"/>
      <text x="2271.9092" y="224.3155" clip-path="url(#clipPath2)" fill="black" font-family="sans-serif" stroke="none" xml:space="preserve">Bootstrap JVM to generate 'static' CDS archive</text>
    </g>
    <g fill="rgb(127,191,255)" text-rendering="geometricPrecision" shape-rendering="geometricPrecision" transform="matrix(1,0,0,1,-1947,-150)" stroke="rgb(127,191,255)">
      <path d="M2078.2842 331.3315 L2194.3843 331.3315 L2207.2842 376.8315 L2194.3843 422.3315 L2078.2842 422.3315 L2091.1841 376.8315 Z" fill-rule="evenodd" clip-path="url(#clipPath2)" stroke="none"/>
    </g>
    <g stroke-linecap="butt" transform="matrix(1,0,0,1,-1947,-150)" fill="navy" text-rendering="geometricPrecision" shape-rendering="geometricPrecision" stroke="navy" stroke-miterlimit="1.45">
      <path fill="none" d="M2078.2842 331.3315 L2194.3843 331.3315 L2207.2842 376.8315 L2194.3843 422.3315 L2078.2842 422.3315 L2091.1841 376.8315 Z" fill-rule="evenodd" clip-path="url(#clipPath2)"/>
      <text x="2115.7781" y="373.3155" clip-path="url(#clipPath2)" fill="black" font-family="sans-serif" stroke="none" xml:space="preserve">ByteCode</text>
      <text x="2129.98" y="389.6596" clip-path="url(#clipPath2)" fill="black" font-family="sans-serif" stroke="none" xml:space="preserve">(JAR)</text>
    </g>
    <g fill="rgb(127,191,255)" text-rendering="geometricPrecision" shape-rendering="geometricPrecision" transform="matrix(1,0,0,1,-1947,-150)" stroke="rgb(127,191,255)">
      <path d="M2597.5342 331.3315 L2713.6343 331.3315 L2726.5342 376.8315 L2713.6343 422.3315 L2597.5342 422.3315 L2610.4341 376.8315 Z" fill-rule="evenodd" clip-path="url(#clipPath2)" stroke="none"/>
    </g>
    <g stroke-linecap="butt" transform="matrix(1,0,0,1,-1947,-150)" fill="navy" text-rendering="geometricPrecision" shape-rendering="geometricPrecision" stroke="navy" stroke-miterlimit="1.45">
      <path fill="none" d="M2597.5342 331.3315 L2713.6343 331.3315 L2726.5342 376.8315 L2713.6343 422.3315 L2597.5342 422.3315 L2610.4341 376.8315 Z" fill-rule="evenodd" clip-path="url(#clipPath2)"/>
      <text x="2631.3079" y="373.3155" clip-path="url(#clipPath2)" fill="black" font-family="sans-serif" stroke="none" xml:space="preserve">CDS 'static'</text>
      <text x="2641.6221" y="389.6596" clip-path="url(#clipPath2)" fill="black" font-family="sans-serif" stroke="none" xml:space="preserve">archive</text>
    </g>
    <g fill="rgb(153,204,255)" text-rendering="geometricPrecision" shape-rendering="geometricPrecision" transform="matrix(1,0,0,1,-1947,-150)" stroke="rgb(153,204,255)">
      <rect x="2273.1592" width="295.5" height="126" y="621.3159" clip-path="url(#clipPath2)" stroke="none"/>
    </g>
    <g stroke-linecap="butt" transform="matrix(1,0,0,1,-1947,-150)" fill="navy" text-rendering="geometricPrecision" shape-rendering="geometricPrecision" stroke="navy" stroke-miterlimit="1.45">
      <rect fill="none" x="2273.1592" width="295.5" height="126" y="621.3159" clip-path="url(#clipPath2)"/>
      <text x="2286.011" y="648.8136" clip-path="url(#clipPath2)" fill="black" font-family="sans-serif" stroke="none" xml:space="preserve">Run</text>
    </g>
    <g fill="rgb(153,204,255)" text-rendering="geometricPrecision" shape-rendering="geometricPrecision" transform="matrix(1,0,0,1,-1947,-150)" stroke="rgb(153,204,255)">
      <rect x="2280.4092" width="85" height="66.322" y="673.9938" clip-path="url(#clipPath2)" stroke="none"/>
    </g>
    <g stroke-linecap="butt" transform="matrix(1,0,0,1,-1947,-150)" fill="navy" text-rendering="geometricPrecision" shape-rendering="geometricPrecision" stroke-dasharray="6,2" stroke="navy" stroke-miterlimit="1.45">
      <rect fill="none" x="2280.4092" width="85" height="66.322" y="673.9938" clip-path="url(#clipPath2)"/>
    </g>
    <g text-rendering="geometricPrecision" stroke-miterlimit="1.45" shape-rendering="geometricPrecision" font-family="sans-serif" transform="matrix(1,0,0,1,-1947,-150)" stroke-linecap="butt">
      <text x="2307.519" xml:space="preserve" y="703.6389" clip-path="url(#clipPath2)" stroke="none">Load </text>
      <text x="2298.2129" xml:space="preserve" y="719.983" clip-path="url(#clipPath2)" stroke="none">(AOT/JIT)</text>
    </g>
    <g fill="rgb(153,204,255)" text-rendering="geometricPrecision" shape-rendering="geometricPrecision" transform="matrix(1,0,0,1,-1947,-150)" stroke="rgb(153,204,255)">
      <rect x="2378.4092" width="85" height="66.322" y="673.9938" clip-path="url(#clipPath2)" stroke="none"/>
    </g>
    <g stroke-linecap="butt" transform="matrix(1,0,0,1,-1947,-150)" fill="navy" text-rendering="geometricPrecision" shape-rendering="geometricPrecision" stroke-dasharray="6,2" stroke="navy" stroke-miterlimit="1.45">
      <rect fill="none" x="2378.4092" width="85" height="66.322" y="673.9938" clip-path="url(#clipPath2)"/>
    </g>
    <g text-rendering="geometricPrecision" stroke-miterlimit="1.45" shape-rendering="geometricPrecision" font-family="sans-serif" transform="matrix(1,0,0,1,-1947,-150)" stroke-linecap="butt">
      <text x="2407.7451" xml:space="preserve" y="703.6389" clip-path="url(#clipPath2)" stroke="none">Link </text>
      <text x="2410.301" xml:space="preserve" y="719.983" clip-path="url(#clipPath2)" stroke="none">(JIT)</text>
    </g>
    <g fill="rgb(153,204,255)" text-rendering="geometricPrecision" shape-rendering="geometricPrecision" transform="matrix(1,0,0,1,-1947,-150)" stroke="rgb(153,204,255)">
      <rect x="2471.4092" width="85" height="66.322" y="673.9938" clip-path="url(#clipPath2)" stroke="none"/>
    </g>
    <g stroke-linecap="butt" transform="matrix(1,0,0,1,-1947,-150)" fill="navy" text-rendering="geometricPrecision" shape-rendering="geometricPrecision" stroke-dasharray="6,2" stroke="navy" stroke-miterlimit="1.45">
      <rect fill="none" x="2471.4092" width="85" height="66.322" y="673.9938" clip-path="url(#clipPath2)"/>
    </g>
    <g text-rendering="geometricPrecision" stroke-miterlimit="1.45" shape-rendering="geometricPrecision" font-family="sans-serif" transform="matrix(1,0,0,1,-1947,-150)" stroke-linecap="butt">
      <text x="2489.147" xml:space="preserve" y="703.6389" clip-path="url(#clipPath2)" stroke="none">Compile </text>
      <text x="2503.301" xml:space="preserve" y="719.983" clip-path="url(#clipPath2)" stroke="none">(JIT)</text>
    </g>
    <g fill="rgb(153,204,255)" text-rendering="geometricPrecision" shape-rendering="geometricPrecision" transform="matrix(1,0,0,1,-1947,-150)" stroke="rgb(153,204,255)">
      <rect x="2328.4092" width="228" height="30.322" y="631.8159" clip-path="url(#clipPath2)" stroke="none"/>
    </g>
    <g stroke-linecap="butt" transform="matrix(1,0,0,1,-1947,-150)" fill="navy" text-rendering="geometricPrecision" shape-rendering="geometricPrecision" stroke-dasharray="6,2" stroke="navy" stroke-miterlimit="1.45">
      <rect fill="none" x="2328.4092" width="228" height="30.322" y="631.8159" clip-path="url(#clipPath2)"/>
    </g>
    <g text-rendering="geometricPrecision" stroke-miterlimit="1.45" shape-rendering="geometricPrecision" font-family="sans-serif" transform="matrix(1,0,0,1,-1947,-150)" stroke-linecap="butt">
      <text x="2362.9146" xml:space="preserve" y="651.6329" clip-path="url(#clipPath2)" stroke="none">Execute App &amp; JDK bytecode</text>
    </g>
    <g fill="rgb(153,204,255)" text-rendering="geometricPrecision" shape-rendering="geometricPrecision" transform="matrix(1,0,0,1,-1947,-150)" stroke="rgb(153,204,255)">
      <rect x="2254.6592" width="295.5" height="126" y="313.8315" clip-path="url(#clipPath2)" stroke="none"/>
    </g>
    <g stroke-linecap="butt" transform="matrix(1,0,0,1,-1947,-150)" fill="navy" text-rendering="geometricPrecision" shape-rendering="geometricPrecision" stroke="navy" stroke-miterlimit="1.45">
      <rect fill="none" x="2254.6592" width="295.5" height="126" y="313.8315" clip-path="url(#clipPath2)"/>
      <text x="2267.511" y="341.3292" clip-path="url(#clipPath2)" fill="black" font-family="sans-serif" stroke="none" xml:space="preserve">Run</text>
    </g>
    <g fill="rgb(153,204,255)" text-rendering="geometricPrecision" shape-rendering="geometricPrecision" transform="matrix(1,0,0,1,-1947,-150)" stroke="rgb(153,204,255)">
      <rect x="2261.9092" width="85" height="66.322" y="366.5095" clip-path="url(#clipPath2)" stroke="none"/>
    </g>
    <g stroke-linecap="butt" transform="matrix(1,0,0,1,-1947,-150)" fill="navy" text-rendering="geometricPrecision" shape-rendering="geometricPrecision" stroke-dasharray="6,2" stroke="navy" stroke-miterlimit="1.45">
      <rect fill="none" x="2261.9092" width="85" height="66.322" y="366.5095" clip-path="url(#clipPath2)"/>
    </g>
    <g text-rendering="geometricPrecision" stroke-miterlimit="1.45" shape-rendering="geometricPrecision" font-family="sans-serif" transform="matrix(1,0,0,1,-1947,-150)" stroke-linecap="butt">
      <text x="2278.4109" xml:space="preserve" y="404.3265" clip-path="url(#clipPath2)" stroke="none">Load (JIT)</text>
    </g>
    <g fill="rgb(153,204,255)" text-rendering="geometricPrecision" shape-rendering="geometricPrecision" transform="matrix(1,0,0,1,-1947,-150)" stroke="rgb(153,204,255)">
      <rect x="2359.9092" width="85" height="66.322" y="366.5095" clip-path="url(#clipPath2)" stroke="none"/>
    </g>
    <g stroke-linecap="butt" transform="matrix(1,0,0,1,-1947,-150)" fill="navy" text-rendering="geometricPrecision" shape-rendering="geometricPrecision" stroke-dasharray="6,2" stroke="navy" stroke-miterlimit="1.45">
      <rect fill="none" x="2359.9092" width="85" height="66.322" y="366.5095" clip-path="url(#clipPath2)"/>
    </g>
    <g text-rendering="geometricPrecision" stroke-miterlimit="1.45" shape-rendering="geometricPrecision" font-family="sans-serif" transform="matrix(1,0,0,1,-1947,-150)" stroke-linecap="butt">
      <text x="2378.637" xml:space="preserve" y="404.3265" clip-path="url(#clipPath2)" stroke="none">Link (JIT)</text>
    </g>
    <g fill="rgb(153,204,255)" text-rendering="geometricPrecision" shape-rendering="geometricPrecision" transform="matrix(1,0,0,1,-1947,-150)" stroke="rgb(153,204,255)">
      <rect x="2452.9092" width="85" height="66.322" y="366.5095" clip-path="url(#clipPath2)" stroke="none"/>
    </g>
    <g stroke-linecap="butt" transform="matrix(1,0,0,1,-1947,-150)" fill="navy" text-rendering="geometricPrecision" shape-rendering="geometricPrecision" stroke-dasharray="6,2" stroke="navy" stroke-miterlimit="1.45">
      <rect fill="none" x="2452.9092" width="85" height="66.322" y="366.5095" clip-path="url(#clipPath2)"/>
    </g>
    <g text-rendering="geometricPrecision" stroke-miterlimit="1.45" shape-rendering="geometricPrecision" font-family="sans-serif" transform="matrix(1,0,0,1,-1947,-150)" stroke-linecap="butt">
      <text x="2460.0388" xml:space="preserve" y="404.3265" clip-path="url(#clipPath2)" stroke="none">Compile (JIT)</text>
    </g>
    <g fill="rgb(153,204,255)" text-rendering="geometricPrecision" shape-rendering="geometricPrecision" transform="matrix(1,0,0,1,-1947,-150)" stroke="rgb(153,204,255)">
      <rect x="2309.9092" width="228" height="30.322" y="324.3315" clip-path="url(#clipPath2)" stroke="none"/>
    </g>
    <g stroke-linecap="butt" transform="matrix(1,0,0,1,-1947,-150)" fill="navy" text-rendering="geometricPrecision" shape-rendering="geometricPrecision" stroke-dasharray="6,2" stroke="navy" stroke-miterlimit="1.45">
      <rect fill="none" x="2309.9092" width="228" height="30.322" y="324.3315" clip-path="url(#clipPath2)"/>
    </g>
    <g text-rendering="geometricPrecision" stroke-miterlimit="1.45" shape-rendering="geometricPrecision" font-family="sans-serif" transform="matrix(1,0,0,1,-1947,-150)" stroke-linecap="butt">
      <text x="2363.1409" xml:space="preserve" y="344.1486" clip-path="url(#clipPath2)" stroke="none">Execute JDK bytecode</text>
    </g>
    <g fill="rgb(127,191,255)" text-rendering="geometricPrecision" shape-rendering="geometricPrecision" transform="matrix(1,0,0,1,-1947,-150)" stroke="rgb(127,191,255)">
      <path d="M2078.2842 582.5377 L2194.3843 582.5377 L2207.2842 628.0377 L2194.3843 673.5377 L2078.2842 673.5377 L2091.1841 628.0377 Z" fill-rule="evenodd" clip-path="url(#clipPath2)" stroke="none"/>
    </g>
    <g stroke-linecap="butt" transform="matrix(1,0,0,1,-1947,-150)" fill="navy" text-rendering="geometricPrecision" shape-rendering="geometricPrecision" stroke="navy" stroke-miterlimit="1.45">
      <path fill="none" d="M2078.2842 582.5377 L2194.3843 582.5377 L2207.2842 628.0377 L2194.3843 673.5377 L2078.2842 673.5377 L2091.1841 628.0377 Z" fill-rule="evenodd" clip-path="url(#clipPath2)"/>
      <text x="2112.0579" y="624.5217" clip-path="url(#clipPath2)" fill="black" font-family="sans-serif" stroke="none" xml:space="preserve">CDS 'static'</text>
      <text x="2122.3721" y="640.8658" clip-path="url(#clipPath2)" fill="black" font-family="sans-serif" stroke="none" xml:space="preserve">archive</text>
      <rect fill="none" x="2025.2842" width="566" height="270" y="864.8003" clip-path="url(#clipPath2)"/>
      <text x="2284.3621" y="855.2842" clip-path="url(#clipPath2)" fill="black" font-family="sans-serif" stroke="none" xml:space="preserve">Run App</text>
    </g>
    <g fill="rgb(127,191,255)" text-rendering="geometricPrecision" shape-rendering="geometricPrecision" transform="matrix(1,0,0,1,-1947,-150)" stroke="rgb(127,191,255)">
      <path d="M2078.2842 1001.3002 L2194.3843 1001.3002 L2207.2842 1046.8003 L2194.3843 1092.3003 L2078.2842 1092.3003 L2091.1841 1046.8003 Z" fill-rule="evenodd" clip-path="url(#clipPath2)" stroke="none"/>
    </g>
    <g stroke-linecap="butt" transform="matrix(1,0,0,1,-1947,-150)" fill="navy" text-rendering="geometricPrecision" shape-rendering="geometricPrecision" stroke="navy" stroke-miterlimit="1.45">
      <path fill="none" d="M2078.2842 1001.3002 L2194.3843 1001.3002 L2207.2842 1046.8003 L2194.3843 1092.3003 L2078.2842 1092.3003 L2091.1841 1046.8003 Z" fill-rule="evenodd" clip-path="url(#clipPath2)"/>
      <text x="2115.7781" y="1043.2842" clip-path="url(#clipPath2)" fill="black" font-family="sans-serif" stroke="none" xml:space="preserve">ByteCode</text>
      <text x="2129.98" y="1059.6283" clip-path="url(#clipPath2)" fill="black" font-family="sans-serif" stroke="none" xml:space="preserve">(JAR)</text>
    </g>
    <g fill="rgb(153,204,255)" text-rendering="geometricPrecision" shape-rendering="geometricPrecision" transform="matrix(1,0,0,1,-1947,-150)" stroke="rgb(153,204,255)">
      <rect x="2273.1592" width="295.5" height="126" y="936.8003" clip-path="url(#clipPath2)" stroke="none"/>
    </g>
    <g stroke-linecap="butt" transform="matrix(1,0,0,1,-1947,-150)" fill="navy" text-rendering="geometricPrecision" shape-rendering="geometricPrecision" stroke="navy" stroke-miterlimit="1.45">
      <rect fill="none" x="2273.1592" width="295.5" height="126" y="936.8003" clip-path="url(#clipPath2)"/>
      <text x="2286.011" y="964.298" clip-path="url(#clipPath2)" fill="black" font-family="sans-serif" stroke="none" xml:space="preserve">Run</text>
    </g>
    <g fill="rgb(153,204,255)" text-rendering="geometricPrecision" shape-rendering="geometricPrecision" transform="matrix(1,0,0,1,-1947,-150)" stroke="rgb(153,204,255)">
      <rect x="2280.4092" width="85" height="66.322" y="989.4782" clip-path="url(#clipPath2)" stroke="none"/>
    </g>
    <g stroke-linecap="butt" transform="matrix(1,0,0,1,-1947,-150)" fill="navy" text-rendering="geometricPrecision" shape-rendering="geometricPrecision" stroke-dasharray="6,2" stroke="navy" stroke-miterlimit="1.45">
      <rect fill="none" x="2280.4092" width="85" height="66.322" y="989.4782" clip-path="url(#clipPath2)"/>
    </g>
    <g text-rendering="geometricPrecision" stroke-miterlimit="1.45" shape-rendering="geometricPrecision" font-family="sans-serif" transform="matrix(1,0,0,1,-1947,-150)" stroke-linecap="butt">
      <text x="2307.519" xml:space="preserve" y="1019.1232" clip-path="url(#clipPath2)" stroke="none">Load </text>
      <text x="2298.2129" xml:space="preserve" y="1035.4673" clip-path="url(#clipPath2)" stroke="none">(AOT/JIT)</text>
    </g>
    <g fill="rgb(153,204,255)" text-rendering="geometricPrecision" shape-rendering="geometricPrecision" transform="matrix(1,0,0,1,-1947,-150)" stroke="rgb(153,204,255)">
      <rect x="2378.4092" width="85" height="66.322" y="989.4782" clip-path="url(#clipPath2)" stroke="none"/>
    </g>
    <g stroke-linecap="butt" transform="matrix(1,0,0,1,-1947,-150)" fill="navy" text-rendering="geometricPrecision" shape-rendering="geometricPrecision" stroke-dasharray="6,2" stroke="navy" stroke-miterlimit="1.45">
      <rect fill="none" x="2378.4092" width="85" height="66.322" y="989.4782" clip-path="url(#clipPath2)"/>
    </g>
    <g text-rendering="geometricPrecision" stroke-miterlimit="1.45" shape-rendering="geometricPrecision" font-family="sans-serif" transform="matrix(1,0,0,1,-1947,-150)" stroke-linecap="butt">
      <text x="2407.7451" xml:space="preserve" y="1019.1232" clip-path="url(#clipPath2)" stroke="none">Link </text>
      <text x="2410.301" xml:space="preserve" y="1035.4673" clip-path="url(#clipPath2)" stroke="none">(JIT)</text>
    </g>
    <g fill="rgb(153,204,255)" text-rendering="geometricPrecision" shape-rendering="geometricPrecision" transform="matrix(1,0,0,1,-1947,-150)" stroke="rgb(153,204,255)">
      <rect x="2471.4092" width="85" height="66.322" y="989.4782" clip-path="url(#clipPath2)" stroke="none"/>
    </g>
    <g stroke-linecap="butt" transform="matrix(1,0,0,1,-1947,-150)" fill="navy" text-rendering="geometricPrecision" shape-rendering="geometricPrecision" stroke-dasharray="6,2" stroke="navy" stroke-miterlimit="1.45">
      <rect fill="none" x="2471.4092" width="85" height="66.322" y="989.4782" clip-path="url(#clipPath2)"/>
    </g>
    <g text-rendering="geometricPrecision" stroke-miterlimit="1.45" shape-rendering="geometricPrecision" font-family="sans-serif" transform="matrix(1,0,0,1,-1947,-150)" stroke-linecap="butt">
      <text x="2489.147" xml:space="preserve" y="1019.1232" clip-path="url(#clipPath2)" stroke="none">Compile </text>
      <text x="2503.301" xml:space="preserve" y="1035.4673" clip-path="url(#clipPath2)" stroke="none">(JIT)</text>
    </g>
    <g fill="rgb(153,204,255)" text-rendering="geometricPrecision" shape-rendering="geometricPrecision" transform="matrix(1,0,0,1,-1947,-150)" stroke="rgb(153,204,255)">
      <rect x="2328.4092" width="228" height="30.322" y="947.3003" clip-path="url(#clipPath2)" stroke="none"/>
    </g>
    <g stroke-linecap="butt" transform="matrix(1,0,0,1,-1947,-150)" fill="navy" text-rendering="geometricPrecision" shape-rendering="geometricPrecision" stroke-dasharray="6,2" stroke="navy" stroke-miterlimit="1.45">
      <rect fill="none" x="2328.4092" width="228" height="30.322" y="947.3003" clip-path="url(#clipPath2)"/>
    </g>
    <g text-rendering="geometricPrecision" stroke-miterlimit="1.45" shape-rendering="geometricPrecision" font-family="sans-serif" transform="matrix(1,0,0,1,-1947,-150)" stroke-linecap="butt">
      <text x="2362.9146" xml:space="preserve" y="967.1173" clip-path="url(#clipPath2)" stroke="none">Execute App &amp; JDK bytecode</text>
    </g>
    <g fill="rgb(127,191,255)" text-rendering="geometricPrecision" shape-rendering="geometricPrecision" transform="matrix(1,0,0,1,-1947,-150)" stroke="rgb(127,191,255)">
      <path d="M2078.2842 898.022 L2194.3843 898.022 L2207.2842 943.522 L2194.3843 989.022 L2078.2842 989.022 L2091.1841 943.522 Z" fill-rule="evenodd" clip-path="url(#clipPath2)" stroke="none"/>
    </g>
    <g stroke-linecap="butt" transform="matrix(1,0,0,1,-1947,-150)" fill="navy" text-rendering="geometricPrecision" shape-rendering="geometricPrecision" stroke="navy" stroke-miterlimit="1.45">
      <path fill="none" d="M2078.2842 898.022 L2194.3843 898.022 L2207.2842 943.522 L2194.3843 989.022 L2078.2842 989.022 L2091.1841 943.522 Z" fill-rule="evenodd" clip-path="url(#clipPath2)"/>
      <text x="2103.1958" y="940.006" clip-path="url(#clipPath2)" fill="black" font-family="sans-serif" stroke="none" xml:space="preserve">CDS 'dynamic'</text>
      <text x="2122.3721" y="956.3502" clip-path="url(#clipPath2)" fill="black" font-family="sans-serif" stroke="none" xml:space="preserve">archive</text>
    </g>
    <g fill="rgb(127,191,255)" text-rendering="geometricPrecision" shape-rendering="geometricPrecision" transform="matrix(1,0,0,1,-1947,-150)" stroke="rgb(127,191,255)">
      <path d="M2623.4263 639.3236 L2739.5264 639.3236 L2752.4263 684.8236 L2739.5264 730.3236 L2623.4263 730.3236 L2636.3262 684.8236 Z" fill-rule="evenodd" clip-path="url(#clipPath2)" stroke="none"/>
    </g>
    <g stroke-linecap="butt" transform="matrix(1,0,0,1,-1947,-150)" fill="navy" text-rendering="geometricPrecision" shape-rendering="geometricPrecision" stroke="navy" stroke-miterlimit="1.45">
      <path fill="none" d="M2623.4263 639.3236 L2739.5264 639.3236 L2752.4263 684.8236 L2739.5264 730.3236 L2623.4263 730.3236 L2636.3262 684.8236 Z" fill-rule="evenodd" clip-path="url(#clipPath2)"/>
      <text x="2648.3379" y="681.3076" clip-path="url(#clipPath2)" fill="black" font-family="sans-serif" stroke="none" xml:space="preserve">CDS 'dynamic'</text>
      <text x="2667.5142" y="697.6517" clip-path="url(#clipPath2)" fill="black" font-family="sans-serif" stroke="none" xml:space="preserve">archive</text>
      <path fill="none" d="M2204.3369 720.9141 L2265.271 710.617" clip-path="url(#clipPath2)" stroke="black"/>
      <path fill="black" d="M2273.1592 709.2839 L2260.4939 706.3535 L2264.2849 710.7836 L2262.1602 716.2136 Z" clip-path="url(#clipPath2)" stroke="none"/>
      <path fill="none" d="M2207.2783 376.8315 L2246.6592 376.8315" clip-path="url(#clipPath2)" stroke="black"/>
      <path fill="black" d="M2254.6592 376.8315 L2242.6592 371.8315 L2245.6592 376.8315 L2242.6592 381.8315 Z" clip-path="url(#clipPath2)" stroke="none"/>
      <path fill="none" d="M2550.1592 376.8315 L2602.4395 376.8315" clip-path="url(#clipPath2)" stroke="black"/>
      <path fill="black" d="M2610.4395 376.8315 L2598.4395 371.8315 L2601.4395 376.8315 L2598.4395 381.8315 Z" clip-path="url(#clipPath2)" stroke="none"/>
      <path fill="none" d="M2203.7937 640.3829 L2265.3181 652.8322" clip-path="url(#clipPath2)" stroke="black"/>
      <path fill="black" d="M2273.1592 654.4189 L2262.3892 647.1382 L2264.3379 652.6339 L2260.406 656.9396 Z" clip-path="url(#clipPath2)" stroke="none"/>
      <path fill="none" d="M2204.3369 1036.3986 L2265.271 1026.1013" clip-path="url(#clipPath2)" stroke="black"/>
      <path fill="black" d="M2273.1592 1024.7683 L2260.4939 1021.8377 L2264.2849 1026.2679 L2262.1602 1031.6979 Z" clip-path="url(#clipPath2)" stroke="none"/>
      <path fill="none" d="M2203.7937 955.8672 L2265.3181 968.3166" clip-path="url(#clipPath2)" stroke="black"/>
      <path fill="black" d="M2273.1592 969.9033 L2262.3892 962.6226 L2264.3379 968.1182 L2260.406 972.424 Z" clip-path="url(#clipPath2)" stroke="none"/>
      <path fill="none" d="M2568.6592 684.5968 L2628.3003 684.7102" clip-path="url(#clipPath2)" stroke="black"/>
      <path fill="black" d="M2636.3003 684.7255 L2624.3098 679.7026 L2627.3003 684.7083 L2624.2908 689.7026 Z" clip-path="url(#clipPath2)" stroke="none"/>
    </g>
  </g>
</svg>
