<?xml version="1.0" encoding="UTF-8"?><svg xmlns="http://www.w3.org/2000/svg" xmlns:xlink="http://www.w3.org/1999/xlink" fill-opacity="1" color-rendering="auto" color-interpolation="auto" text-rendering="auto" stroke="black" stroke-linecap="square" width="874" stroke-miterlimit="10" shape-rendering="auto" stroke-opacity="1" fill="black" stroke-dasharray="none" font-weight="normal" stroke-width="1" height="743" font-family="'Dialog'" font-style="normal" stroke-linejoin="miter" font-size="12px" stroke-dashoffset="0" image-rendering="auto">
  <!--Generated by ySVG 2.6-->
  <defs id="genericDefs"/>
  <g>
    <defs id="defs1">
      <clipPath clipPathUnits="userSpaceOnUse" id="clipPath1">
        <path d="M0 0 L874 0 L874 743 L0 743 L0 0 Z"/>
      </clipPath>
      <clipPath clipPathUnits="userSpaceOnUse" id="clipPath2">
        <path d="M911 166 L1785 166 L1785 909 L911 909 L911 166 Z"/>
      </clipPath>
    </defs>
    <g stroke-linecap="butt" transform="matrix(1,0,0,1,-911,-166)" fill="navy" text-rendering="geometricPrecision" shape-rendering="geometricPrecision" stroke="navy" stroke-miterlimit="1.45">
      <rect fill="none" x="926.3921" width="842.75" height="687.4838" y="206.1323" clip-path="url(#clipPath2)"/>
    </g>
    <g text-rendering="geometricPrecision" stroke-miterlimit="1.45" shape-rendering="geometricPrecision" font-family="sans-serif" transform="matrix(1,0,0,1,-911,-166)" stroke-linecap="butt">
      <text x="1199.23" xml:space="preserve" y="196.6163" clip-path="url(#clipPath2)" stroke="none">Traditional/Classic Workflow with `static` CDS archive</text>
      <rect x="989.3921" y="573.2037" clip-path="url(#clipPath2)" fill="none" width="566" height="270" stroke="navy"/>
      <text x="1248.47" xml:space="preserve" y="563.6876" clip-path="url(#clipPath2)" stroke="none">Run App</text>
    </g>
    <g fill="rgb(127,191,255)" text-rendering="geometricPrecision" shape-rendering="geometricPrecision" transform="matrix(1,0,0,1,-911,-166)" stroke="rgb(127,191,255)">
      <path d="M1042.3921 709.7037 L1158.4921 709.7037 L1171.3921 755.2037 L1158.4921 800.7037 L1042.3921 800.7037 L1055.2921 755.2037 Z" fill-rule="evenodd" clip-path="url(#clipPath2)" stroke="none"/>
    </g>
    <g stroke-linecap="butt" transform="matrix(1,0,0,1,-911,-166)" fill="navy" text-rendering="geometricPrecision" shape-rendering="geometricPrecision" stroke="navy" stroke-miterlimit="1.45">
      <path fill="none" d="M1042.3921 709.7037 L1158.4921 709.7037 L1171.3921 755.2037 L1158.4921 800.7037 L1042.3921 800.7037 L1055.2921 755.2037 Z" fill-rule="evenodd" clip-path="url(#clipPath2)"/>
      <text x="1079.8859" y="751.6876" clip-path="url(#clipPath2)" fill="black" font-family="sans-serif" stroke="none" xml:space="preserve">ByteCode</text>
      <text x="1094.088" y="768.0317" clip-path="url(#clipPath2)" fill="black" font-family="sans-serif" stroke="none" xml:space="preserve">(JAR)</text>
      <rect fill="none" x="989.3921" width="751" height="270" y="257.7193" clip-path="url(#clipPath2)"/>
      <text x="1236.0172" y="248.2033" clip-path="url(#clipPath2)" fill="black" font-family="sans-serif" stroke="none" xml:space="preserve">Bootstrap JVM to generate 'static' CDS archive</text>
    </g>
    <g fill="rgb(127,191,255)" text-rendering="geometricPrecision" shape-rendering="geometricPrecision" transform="matrix(1,0,0,1,-911,-166)" stroke="rgb(127,191,255)">
      <path d="M1042.3921 355.2193 L1158.4921 355.2193 L1171.3921 400.7193 L1158.4921 446.2193 L1042.3921 446.2193 L1055.2921 400.7193 Z" fill-rule="evenodd" clip-path="url(#clipPath2)" stroke="none"/>
    </g>
    <g stroke-linecap="butt" transform="matrix(1,0,0,1,-911,-166)" fill="navy" text-rendering="geometricPrecision" shape-rendering="geometricPrecision" stroke="navy" stroke-miterlimit="1.45">
      <path fill="none" d="M1042.3921 355.2193 L1158.4921 355.2193 L1171.3921 400.7193 L1158.4921 446.2193 L1042.3921 446.2193 L1055.2921 400.7193 Z" fill-rule="evenodd" clip-path="url(#clipPath2)"/>
      <text x="1079.8859" y="397.2032" clip-path="url(#clipPath2)" fill="black" font-family="sans-serif" stroke="none" xml:space="preserve">ByteCode</text>
      <text x="1094.088" y="413.5474" clip-path="url(#clipPath2)" fill="black" font-family="sans-serif" stroke="none" xml:space="preserve">(JAR)</text>
    </g>
    <g fill="rgb(127,191,255)" text-rendering="geometricPrecision" shape-rendering="geometricPrecision" transform="matrix(1,0,0,1,-911,-166)" stroke="rgb(127,191,255)">
      <path d="M1561.6421 355.2193 L1677.7421 355.2193 L1690.6421 400.7193 L1677.7421 446.2193 L1561.6421 446.2193 L1574.5421 400.7193 Z" fill-rule="evenodd" clip-path="url(#clipPath2)" stroke="none"/>
    </g>
    <g stroke-linecap="butt" transform="matrix(1,0,0,1,-911,-166)" fill="navy" text-rendering="geometricPrecision" shape-rendering="geometricPrecision" stroke="navy" stroke-miterlimit="1.45">
      <path fill="none" d="M1561.6421 355.2193 L1677.7421 355.2193 L1690.6421 400.7193 L1677.7421 446.2193 L1561.6421 446.2193 L1574.5421 400.7193 Z" fill-rule="evenodd" clip-path="url(#clipPath2)"/>
      <text x="1595.4159" y="397.2032" clip-path="url(#clipPath2)" fill="black" font-family="sans-serif" stroke="none" xml:space="preserve">CDS 'static'</text>
      <text x="1605.73" y="413.5474" clip-path="url(#clipPath2)" fill="black" font-family="sans-serif" stroke="none" xml:space="preserve">archive</text>
    </g>
    <g fill="rgb(153,204,255)" text-rendering="geometricPrecision" shape-rendering="geometricPrecision" transform="matrix(1,0,0,1,-911,-166)" stroke="rgb(153,204,255)">
      <rect x="1237.2671" width="295.5" height="126" y="645.2037" clip-path="url(#clipPath2)" stroke="none"/>
    </g>
    <g stroke-linecap="butt" transform="matrix(1,0,0,1,-911,-166)" fill="navy" text-rendering="geometricPrecision" shape-rendering="geometricPrecision" stroke="navy" stroke-miterlimit="1.45">
      <rect fill="none" x="1237.2671" width="295.5" height="126" y="645.2037" clip-path="url(#clipPath2)"/>
      <text x="1250.119" y="672.7014" clip-path="url(#clipPath2)" fill="black" font-family="sans-serif" stroke="none" xml:space="preserve">Run</text>
    </g>
    <g fill="rgb(153,204,255)" text-rendering="geometricPrecision" shape-rendering="geometricPrecision" transform="matrix(1,0,0,1,-911,-166)" stroke="rgb(153,204,255)">
      <rect x="1244.5171" width="85" height="66.322" y="697.8816" clip-path="url(#clipPath2)" stroke="none"/>
    </g>
    <g stroke-linecap="butt" transform="matrix(1,0,0,1,-911,-166)" fill="navy" text-rendering="geometricPrecision" shape-rendering="geometricPrecision" stroke-dasharray="6,2" stroke="navy" stroke-miterlimit="1.45">
      <rect fill="none" x="1244.5171" width="85" height="66.322" y="697.8816" clip-path="url(#clipPath2)"/>
    </g>
    <g text-rendering="geometricPrecision" stroke-miterlimit="1.45" shape-rendering="geometricPrecision" font-family="sans-serif" transform="matrix(1,0,0,1,-911,-166)" stroke-linecap="butt">
      <text x="1271.627" xml:space="preserve" y="727.5266" clip-path="url(#clipPath2)" stroke="none">Load </text>
      <text x="1262.3209" xml:space="preserve" y="743.8707" clip-path="url(#clipPath2)" stroke="none">(AOT/JIT)</text>
    </g>
    <g fill="rgb(153,204,255)" text-rendering="geometricPrecision" shape-rendering="geometricPrecision" transform="matrix(1,0,0,1,-911,-166)" stroke="rgb(153,204,255)">
      <rect x="1342.5171" width="85" height="66.322" y="697.8816" clip-path="url(#clipPath2)" stroke="none"/>
    </g>
    <g stroke-linecap="butt" transform="matrix(1,0,0,1,-911,-166)" fill="navy" text-rendering="geometricPrecision" shape-rendering="geometricPrecision" stroke-dasharray="6,2" stroke="navy" stroke-miterlimit="1.45">
      <rect fill="none" x="1342.5171" width="85" height="66.322" y="697.8816" clip-path="url(#clipPath2)"/>
    </g>
    <g text-rendering="geometricPrecision" stroke-miterlimit="1.45" shape-rendering="geometricPrecision" font-family="sans-serif" transform="matrix(1,0,0,1,-911,-166)" stroke-linecap="butt">
      <text x="1371.853" xml:space="preserve" y="727.5266" clip-path="url(#clipPath2)" stroke="none">Link </text>
      <text x="1374.4091" xml:space="preserve" y="743.8707" clip-path="url(#clipPath2)" stroke="none">(JIT)</text>
    </g>
    <g fill="rgb(153,204,255)" text-rendering="geometricPrecision" shape-rendering="geometricPrecision" transform="matrix(1,0,0,1,-911,-166)" stroke="rgb(153,204,255)">
      <rect x="1435.5171" width="85" height="66.322" y="697.8816" clip-path="url(#clipPath2)" stroke="none"/>
    </g>
    <g stroke-linecap="butt" transform="matrix(1,0,0,1,-911,-166)" fill="navy" text-rendering="geometricPrecision" shape-rendering="geometricPrecision" stroke-dasharray="6,2" stroke="navy" stroke-miterlimit="1.45">
      <rect fill="none" x="1435.5171" width="85" height="66.322" y="697.8816" clip-path="url(#clipPath2)"/>
    </g>
    <g text-rendering="geometricPrecision" stroke-miterlimit="1.45" shape-rendering="geometricPrecision" font-family="sans-serif" transform="matrix(1,0,0,1,-911,-166)" stroke-linecap="butt">
      <text x="1453.2549" xml:space="preserve" y="727.5266" clip-path="url(#clipPath2)" stroke="none">Compile </text>
      <text x="1467.4091" xml:space="preserve" y="743.8707" clip-path="url(#clipPath2)" stroke="none">(JIT)</text>
    </g>
    <g fill="rgb(153,204,255)" text-rendering="geometricPrecision" shape-rendering="geometricPrecision" transform="matrix(1,0,0,1,-911,-166)" stroke="rgb(153,204,255)">
      <rect x="1292.5171" width="228" height="30.322" y="655.7037" clip-path="url(#clipPath2)" stroke="none"/>
    </g>
    <g stroke-linecap="butt" transform="matrix(1,0,0,1,-911,-166)" fill="navy" text-rendering="geometricPrecision" shape-rendering="geometricPrecision" stroke-dasharray="6,2" stroke="navy" stroke-miterlimit="1.45">
      <rect fill="none" x="1292.5171" width="228" height="30.322" y="655.7037" clip-path="url(#clipPath2)"/>
    </g>
    <g text-rendering="geometricPrecision" stroke-miterlimit="1.45" shape-rendering="geometricPrecision" font-family="sans-serif" transform="matrix(1,0,0,1,-911,-166)" stroke-linecap="butt">
      <text x="1327.0226" xml:space="preserve" y="675.5207" clip-path="url(#clipPath2)" stroke="none">Execute App &amp; JDK bytecode</text>
    </g>
    <g fill="rgb(153,204,255)" text-rendering="geometricPrecision" shape-rendering="geometricPrecision" transform="matrix(1,0,0,1,-911,-166)" stroke="rgb(153,204,255)">
      <rect x="1218.7671" width="295.5" height="126" y="337.7193" clip-path="url(#clipPath2)" stroke="none"/>
    </g>
    <g stroke-linecap="butt" transform="matrix(1,0,0,1,-911,-166)" fill="navy" text-rendering="geometricPrecision" shape-rendering="geometricPrecision" stroke="navy" stroke-miterlimit="1.45">
      <rect fill="none" x="1218.7671" width="295.5" height="126" y="337.7193" clip-path="url(#clipPath2)"/>
      <text x="1231.619" y="365.217" clip-path="url(#clipPath2)" fill="black" font-family="sans-serif" stroke="none" xml:space="preserve">Run</text>
    </g>
    <g fill="rgb(153,204,255)" text-rendering="geometricPrecision" shape-rendering="geometricPrecision" transform="matrix(1,0,0,1,-911,-166)" stroke="rgb(153,204,255)">
      <rect x="1226.0171" width="85" height="66.322" y="390.3973" clip-path="url(#clipPath2)" stroke="none"/>
    </g>
    <g stroke-linecap="butt" transform="matrix(1,0,0,1,-911,-166)" fill="navy" text-rendering="geometricPrecision" shape-rendering="geometricPrecision" stroke-dasharray="6,2" stroke="navy" stroke-miterlimit="1.45">
      <rect fill="none" x="1226.0171" width="85" height="66.322" y="390.3973" clip-path="url(#clipPath2)"/>
    </g>
    <g text-rendering="geometricPrecision" stroke-miterlimit="1.45" shape-rendering="geometricPrecision" font-family="sans-serif" transform="matrix(1,0,0,1,-911,-166)" stroke-linecap="butt">
      <text x="1242.5189" xml:space="preserve" y="428.2143" clip-path="url(#clipPath2)" stroke="none">Load (JIT)</text>
    </g>
    <g fill="rgb(153,204,255)" text-rendering="geometricPrecision" shape-rendering="geometricPrecision" transform="matrix(1,0,0,1,-911,-166)" stroke="rgb(153,204,255)">
      <rect x="1324.0171" width="85" height="66.322" y="390.3973" clip-path="url(#clipPath2)" stroke="none"/>
    </g>
    <g stroke-linecap="butt" transform="matrix(1,0,0,1,-911,-166)" fill="navy" text-rendering="geometricPrecision" shape-rendering="geometricPrecision" stroke-dasharray="6,2" stroke="navy" stroke-miterlimit="1.45">
      <rect fill="none" x="1324.0171" width="85" height="66.322" y="390.3973" clip-path="url(#clipPath2)"/>
    </g>
    <g text-rendering="geometricPrecision" stroke-miterlimit="1.45" shape-rendering="geometricPrecision" font-family="sans-serif" transform="matrix(1,0,0,1,-911,-166)" stroke-linecap="butt">
      <text x="1342.7449" xml:space="preserve" y="428.2143" clip-path="url(#clipPath2)" stroke="none">Link (JIT)</text>
    </g>
    <g fill="rgb(153,204,255)" text-rendering="geometricPrecision" shape-rendering="geometricPrecision" transform="matrix(1,0,0,1,-911,-166)" stroke="rgb(153,204,255)">
      <rect x="1417.0171" width="85" height="66.322" y="390.3973" clip-path="url(#clipPath2)" stroke="none"/>
    </g>
    <g stroke-linecap="butt" transform="matrix(1,0,0,1,-911,-166)" fill="navy" text-rendering="geometricPrecision" shape-rendering="geometricPrecision" stroke-dasharray="6,2" stroke="navy" stroke-miterlimit="1.45">
      <rect fill="none" x="1417.0171" width="85" height="66.322" y="390.3973" clip-path="url(#clipPath2)"/>
    </g>
    <g text-rendering="geometricPrecision" stroke-miterlimit="1.45" shape-rendering="geometricPrecision" font-family="sans-serif" transform="matrix(1,0,0,1,-911,-166)" stroke-linecap="butt">
      <text x="1424.1469" xml:space="preserve" y="428.2143" clip-path="url(#clipPath2)" stroke="none">Compile (JIT)</text>
    </g>
    <g fill="rgb(153,204,255)" text-rendering="geometricPrecision" shape-rendering="geometricPrecision" transform="matrix(1,0,0,1,-911,-166)" stroke="rgb(153,204,255)">
      <rect x="1274.0171" width="228" height="30.322" y="348.2193" clip-path="url(#clipPath2)" stroke="none"/>
    </g>
    <g stroke-linecap="butt" transform="matrix(1,0,0,1,-911,-166)" fill="navy" text-rendering="geometricPrecision" shape-rendering="geometricPrecision" stroke-dasharray="6,2" stroke="navy" stroke-miterlimit="1.45">
      <rect fill="none" x="1274.0171" width="228" height="30.322" y="348.2193" clip-path="url(#clipPath2)"/>
    </g>
    <g text-rendering="geometricPrecision" stroke-miterlimit="1.45" shape-rendering="geometricPrecision" font-family="sans-serif" transform="matrix(1,0,0,1,-911,-166)" stroke-linecap="butt">
      <text x="1327.2487" xml:space="preserve" y="368.0363" clip-path="url(#clipPath2)" stroke="none">Execute JDK bytecode</text>
    </g>
    <g fill="rgb(127,191,255)" text-rendering="geometricPrecision" shape-rendering="geometricPrecision" transform="matrix(1,0,0,1,-911,-166)" stroke="rgb(127,191,255)">
      <path d="M1042.3921 606.4255 L1158.4921 606.4255 L1171.3921 651.9255 L1158.4921 697.4255 L1042.3921 697.4255 L1055.2921 651.9255 Z" fill-rule="evenodd" clip-path="url(#clipPath2)" stroke="none"/>
    </g>
    <g stroke-linecap="butt" transform="matrix(1,0,0,1,-911,-166)" fill="navy" text-rendering="geometricPrecision" shape-rendering="geometricPrecision" stroke="navy" stroke-miterlimit="1.45">
      <path fill="none" d="M1042.3921 606.4255 L1158.4921 606.4255 L1171.3921 651.9255 L1158.4921 697.4255 L1042.3921 697.4255 L1055.2921 651.9255 Z" fill-rule="evenodd" clip-path="url(#clipPath2)"/>
      <text x="1076.1659" y="648.4094" clip-path="url(#clipPath2)" fill="black" font-family="sans-serif" stroke="none" xml:space="preserve">CDS 'static'</text>
      <text x="1086.48" y="664.7535" clip-path="url(#clipPath2)" fill="black" font-family="sans-serif" stroke="none" xml:space="preserve">archive</text>
      <path fill="none" d="M1168.4449 744.8019 L1229.3789 734.5048" clip-path="url(#clipPath2)" stroke="black"/>
      <path fill="black" d="M1237.2671 733.1718 L1224.6017 730.2411 L1228.3929 734.6714 L1226.2679 740.1014 Z" clip-path="url(#clipPath2)" stroke="none"/>
      <path fill="none" d="M1171.3864 400.7193 L1210.7671 400.7193" clip-path="url(#clipPath2)" stroke="black"/>
      <path fill="black" d="M1218.7671 400.7193 L1206.7671 395.7193 L1209.7671 400.7193 L1206.7671 405.7193 Z" clip-path="url(#clipPath2)" stroke="none"/>
      <path fill="none" d="M1514.2671 400.7193 L1566.5474 400.7193" clip-path="url(#clipPath2)" stroke="black"/>
      <path fill="black" d="M1574.5474 400.7193 L1562.5474 395.7193 L1565.5474 400.7193 L1562.5474 405.7193 Z" clip-path="url(#clipPath2)" stroke="none"/>
      <path fill="none" d="M1167.9017 664.2707 L1229.426 676.72" clip-path="url(#clipPath2)" stroke="black"/>
      <path fill="black" d="M1237.2671 678.3066 L1226.4971 671.0261 L1228.4459 676.5217 L1224.5138 680.8274 Z" clip-path="url(#clipPath2)" stroke="none"/>
    </g>
  </g>
</svg>
