<?xml version="1.0" encoding="UTF-8"?><svg xmlns="http://www.w3.org/2000/svg" xmlns:xlink="http://www.w3.org/1999/xlink" fill-opacity="1" color-rendering="auto" color-interpolation="auto" text-rendering="auto" stroke="black" stroke-linecap="square" width="873" stroke-miterlimit="10" shape-rendering="auto" stroke-opacity="1" fill="black" stroke-dasharray="none" font-weight="normal" stroke-width="1" height="1077" font-family="'Dialog'" font-style="normal" stroke-linejoin="miter" font-size="12px" stroke-dashoffset="0" image-rendering="auto">
  <!--Generated by ySVG 2.6-->
  <defs id="genericDefs"/>
  <g>
    <defs id="defs1">
      <clipPath clipPathUnits="userSpaceOnUse" id="clipPath1">
        <path d="M0 0 L873 0 L873 1077 L0 1077 L0 0 Z"/>
      </clipPath>
      <clipPath clipPathUnits="userSpaceOnUse" id="clipPath2">
        <path d="M1266 570 L2139 570 L2139 1647 L1266 1647 L1266 570 Z"/>
      </clipPath>
    </defs>
    <g stroke-linecap="butt" transform="matrix(1,0,0,1,-1266,-570)" fill="navy" text-rendering="geometricPrecision" shape-rendering="geometricPrecision" stroke="navy" stroke-miterlimit="1.45">
      <rect fill="none" x="1281.0881" width="842.75" height="1022.2866" y="609.7026" clip-path="url(#clipPath2)"/>
    </g>
    <g text-rendering="geometricPrecision" stroke-miterlimit="1.45" shape-rendering="geometricPrecision" font-family="sans-serif" transform="matrix(1,0,0,1,-1266,-570)" stroke-linecap="butt">
      <text x="1653.6827" xml:space="preserve" y="600.1866" clip-path="url(#clipPath2)" stroke="none">Leyden Workflow</text>
      <rect x="1344.0881" y="999.0767" clip-path="url(#clipPath2)" fill="none" width="751" height="270" stroke="navy"/>
      <text x="1631.5916" xml:space="preserve" y="989.5607" clip-path="url(#clipPath2)" stroke="none">Run training version of the App</text>
    </g>
    <g fill="rgb(127,191,255)" text-rendering="geometricPrecision" shape-rendering="geometricPrecision" transform="matrix(1,0,0,1,-1266,-570)" stroke="rgb(127,191,255)">
      <path d="M1397.0881 1135.5768 L1513.1881 1135.5768 L1526.0881 1181.0768 L1513.1881 1226.5768 L1397.0881 1226.5768 L1409.9882 1181.0768 Z" fill-rule="evenodd" clip-path="url(#clipPath2)" stroke="none"/>
    </g>
    <g stroke-linecap="butt" transform="matrix(1,0,0,1,-1266,-570)" fill="navy" text-rendering="geometricPrecision" shape-rendering="geometricPrecision" stroke="navy" stroke-miterlimit="1.45">
      <path fill="none" d="M1397.0881 1135.5768 L1513.1881 1135.5768 L1526.0881 1181.0768 L1513.1881 1226.5768 L1397.0881 1226.5768 L1409.9882 1181.0768 Z" fill-rule="evenodd" clip-path="url(#clipPath2)"/>
      <text x="1434.5819" y="1177.5607" clip-path="url(#clipPath2)" fill="black" font-family="sans-serif" stroke="none" xml:space="preserve">ByteCode</text>
      <text x="1448.7841" y="1193.9048" clip-path="url(#clipPath2)" fill="black" font-family="sans-serif" stroke="none" xml:space="preserve">(JAR)</text>
      <rect fill="none" x="1344.0881" width="751" height="270" y="683.5923" clip-path="url(#clipPath2)"/>
      <text x="1590.7133" y="674.0763" clip-path="url(#clipPath2)" fill="black" font-family="sans-serif" stroke="none" xml:space="preserve">Bootstrap JVM to generate 'static' CDS archive</text>
    </g>
    <g fill="rgb(127,191,255)" text-rendering="geometricPrecision" shape-rendering="geometricPrecision" transform="matrix(1,0,0,1,-1266,-570)" stroke="rgb(127,191,255)">
      <path d="M1397.0881 781.0923 L1513.1881 781.0923 L1526.0881 826.5923 L1513.1881 872.0923 L1397.0881 872.0923 L1409.9882 826.5923 Z" fill-rule="evenodd" clip-path="url(#clipPath2)" stroke="none"/>
    </g>
    <g stroke-linecap="butt" transform="matrix(1,0,0,1,-1266,-570)" fill="navy" text-rendering="geometricPrecision" shape-rendering="geometricPrecision" stroke="navy" stroke-miterlimit="1.45">
      <path fill="none" d="M1397.0881 781.0923 L1513.1881 781.0923 L1526.0881 826.5923 L1513.1881 872.0923 L1397.0881 872.0923 L1409.9882 826.5923 Z" fill-rule="evenodd" clip-path="url(#clipPath2)"/>
      <text x="1434.5819" y="823.0763" clip-path="url(#clipPath2)" fill="black" font-family="sans-serif" stroke="none" xml:space="preserve">ByteCode</text>
      <text x="1448.7841" y="839.4204" clip-path="url(#clipPath2)" fill="black" font-family="sans-serif" stroke="none" xml:space="preserve">(JAR)</text>
    </g>
    <g fill="rgb(127,191,255)" text-rendering="geometricPrecision" shape-rendering="geometricPrecision" transform="matrix(1,0,0,1,-1266,-570)" stroke="rgb(127,191,255)">
      <path d="M1916.3381 781.0923 L2032.4381 781.0923 L2045.3381 826.5923 L2032.4381 872.0923 L1916.3381 872.0923 L1929.2382 826.5923 Z" fill-rule="evenodd" clip-path="url(#clipPath2)" stroke="none"/>
    </g>
    <g stroke-linecap="butt" transform="matrix(1,0,0,1,-1266,-570)" fill="navy" text-rendering="geometricPrecision" shape-rendering="geometricPrecision" stroke="navy" stroke-miterlimit="1.45">
      <path fill="none" d="M1916.3381 781.0923 L2032.4381 781.0923 L2045.3381 826.5923 L2032.4381 872.0923 L1916.3381 872.0923 L1929.2382 826.5923 Z" fill-rule="evenodd" clip-path="url(#clipPath2)"/>
      <text x="1950.1119" y="823.0763" clip-path="url(#clipPath2)" fill="black" font-family="sans-serif" stroke="none" xml:space="preserve">CDS 'static'</text>
      <text x="1960.426" y="839.4204" clip-path="url(#clipPath2)" fill="black" font-family="sans-serif" stroke="none" xml:space="preserve">archive</text>
    </g>
    <g fill="rgb(153,204,255)" text-rendering="geometricPrecision" shape-rendering="geometricPrecision" transform="matrix(1,0,0,1,-1266,-570)" stroke="rgb(153,204,255)">
      <rect x="1591.9631" width="295.5" height="126" y="1071.0767" clip-path="url(#clipPath2)" stroke="none"/>
    </g>
    <g stroke-linecap="butt" transform="matrix(1,0,0,1,-1266,-570)" fill="navy" text-rendering="geometricPrecision" shape-rendering="geometricPrecision" stroke="navy" stroke-miterlimit="1.45">
      <rect fill="none" x="1591.9631" width="295.5" height="126" y="1071.0767" clip-path="url(#clipPath2)"/>
      <text x="1604.8151" y="1098.5745" clip-path="url(#clipPath2)" fill="black" font-family="sans-serif" stroke="none" xml:space="preserve">Run</text>
    </g>
    <g fill="rgb(153,204,255)" text-rendering="geometricPrecision" shape-rendering="geometricPrecision" transform="matrix(1,0,0,1,-1266,-570)" stroke="rgb(153,204,255)">
      <rect x="1599.2131" width="85" height="66.322" y="1123.7547" clip-path="url(#clipPath2)" stroke="none"/>
    </g>
    <g stroke-linecap="butt" transform="matrix(1,0,0,1,-1266,-570)" fill="navy" text-rendering="geometricPrecision" shape-rendering="geometricPrecision" stroke-dasharray="6,2" stroke="navy" stroke-miterlimit="1.45">
      <rect fill="none" x="1599.2131" width="85" height="66.322" y="1123.7547" clip-path="url(#clipPath2)"/>
    </g>
    <g text-rendering="geometricPrecision" stroke-miterlimit="1.45" shape-rendering="geometricPrecision" font-family="sans-serif" transform="matrix(1,0,0,1,-1266,-570)" stroke-linecap="butt">
      <text x="1626.323" xml:space="preserve" y="1153.3997" clip-path="url(#clipPath2)" stroke="none">Load </text>
      <text x="1617.017" xml:space="preserve" y="1169.7438" clip-path="url(#clipPath2)" stroke="none">(AOT/JIT)</text>
    </g>
    <g fill="rgb(153,204,255)" text-rendering="geometricPrecision" shape-rendering="geometricPrecision" transform="matrix(1,0,0,1,-1266,-570)" stroke="rgb(153,204,255)">
      <rect x="1697.2131" width="85" height="66.322" y="1123.7547" clip-path="url(#clipPath2)" stroke="none"/>
    </g>
    <g stroke-linecap="butt" transform="matrix(1,0,0,1,-1266,-570)" fill="navy" text-rendering="geometricPrecision" shape-rendering="geometricPrecision" stroke-dasharray="6,2" stroke="navy" stroke-miterlimit="1.45">
      <rect fill="none" x="1697.2131" width="85" height="66.322" y="1123.7547" clip-path="url(#clipPath2)"/>
    </g>
    <g text-rendering="geometricPrecision" stroke-miterlimit="1.45" shape-rendering="geometricPrecision" font-family="sans-serif" transform="matrix(1,0,0,1,-1266,-570)" stroke-linecap="butt">
      <text x="1726.5491" xml:space="preserve" y="1153.3997" clip-path="url(#clipPath2)" stroke="none">Link </text>
      <text x="1729.1051" xml:space="preserve" y="1169.7438" clip-path="url(#clipPath2)" stroke="none">(JIT)</text>
    </g>
    <g fill="rgb(153,204,255)" text-rendering="geometricPrecision" shape-rendering="geometricPrecision" transform="matrix(1,0,0,1,-1266,-570)" stroke="rgb(153,204,255)">
      <rect x="1790.2131" width="85" height="66.322" y="1123.7547" clip-path="url(#clipPath2)" stroke="none"/>
    </g>
    <g stroke-linecap="butt" transform="matrix(1,0,0,1,-1266,-570)" fill="navy" text-rendering="geometricPrecision" shape-rendering="geometricPrecision" stroke-dasharray="6,2" stroke="navy" stroke-miterlimit="1.45">
      <rect fill="none" x="1790.2131" width="85" height="66.322" y="1123.7547" clip-path="url(#clipPath2)"/>
    </g>
    <g text-rendering="geometricPrecision" stroke-miterlimit="1.45" shape-rendering="geometricPrecision" font-family="sans-serif" transform="matrix(1,0,0,1,-1266,-570)" stroke-linecap="butt">
      <text x="1807.9509" xml:space="preserve" y="1153.3997" clip-path="url(#clipPath2)" stroke="none">Compile </text>
      <text x="1822.1051" xml:space="preserve" y="1169.7438" clip-path="url(#clipPath2)" stroke="none">(JIT)</text>
    </g>
    <g fill="rgb(153,204,255)" text-rendering="geometricPrecision" shape-rendering="geometricPrecision" transform="matrix(1,0,0,1,-1266,-570)" stroke="rgb(153,204,255)">
      <rect x="1647.2131" width="228" height="30.322" y="1081.5767" clip-path="url(#clipPath2)" stroke="none"/>
    </g>
    <g stroke-linecap="butt" transform="matrix(1,0,0,1,-1266,-570)" fill="navy" text-rendering="geometricPrecision" shape-rendering="geometricPrecision" stroke-dasharray="6,2" stroke="navy" stroke-miterlimit="1.45">
      <rect fill="none" x="1647.2131" width="228" height="30.322" y="1081.5767" clip-path="url(#clipPath2)"/>
    </g>
    <g text-rendering="geometricPrecision" stroke-miterlimit="1.45" shape-rendering="geometricPrecision" font-family="sans-serif" transform="matrix(1,0,0,1,-1266,-570)" stroke-linecap="butt">
      <text x="1681.7186" xml:space="preserve" y="1101.3938" clip-path="url(#clipPath2)" stroke="none">Execute App &amp; JDK bytecode</text>
    </g>
    <g fill="rgb(153,204,255)" text-rendering="geometricPrecision" shape-rendering="geometricPrecision" transform="matrix(1,0,0,1,-1266,-570)" stroke="rgb(153,204,255)">
      <rect x="1573.4631" width="295.5" height="126" y="763.5923" clip-path="url(#clipPath2)" stroke="none"/>
    </g>
    <g stroke-linecap="butt" transform="matrix(1,0,0,1,-1266,-570)" fill="navy" text-rendering="geometricPrecision" shape-rendering="geometricPrecision" stroke="navy" stroke-miterlimit="1.45">
      <rect fill="none" x="1573.4631" width="295.5" height="126" y="763.5923" clip-path="url(#clipPath2)"/>
      <text x="1586.3151" y="791.09" clip-path="url(#clipPath2)" fill="black" font-family="sans-serif" stroke="none" xml:space="preserve">Run</text>
    </g>
    <g fill="rgb(153,204,255)" text-rendering="geometricPrecision" shape-rendering="geometricPrecision" transform="matrix(1,0,0,1,-1266,-570)" stroke="rgb(153,204,255)">
      <rect x="1580.7131" width="85" height="66.322" y="816.2703" clip-path="url(#clipPath2)" stroke="none"/>
    </g>
    <g stroke-linecap="butt" transform="matrix(1,0,0,1,-1266,-570)" fill="navy" text-rendering="geometricPrecision" shape-rendering="geometricPrecision" stroke-dasharray="6,2" stroke="navy" stroke-miterlimit="1.45">
      <rect fill="none" x="1580.7131" width="85" height="66.322" y="816.2703" clip-path="url(#clipPath2)"/>
    </g>
    <g text-rendering="geometricPrecision" stroke-miterlimit="1.45" shape-rendering="geometricPrecision" font-family="sans-serif" transform="matrix(1,0,0,1,-1266,-570)" stroke-linecap="butt">
      <text x="1597.215" xml:space="preserve" y="854.0873" clip-path="url(#clipPath2)" stroke="none">Load (JIT)</text>
    </g>
    <g fill="rgb(153,204,255)" text-rendering="geometricPrecision" shape-rendering="geometricPrecision" transform="matrix(1,0,0,1,-1266,-570)" stroke="rgb(153,204,255)">
      <rect x="1678.7131" width="85" height="66.322" y="816.2703" clip-path="url(#clipPath2)" stroke="none"/>
    </g>
    <g stroke-linecap="butt" transform="matrix(1,0,0,1,-1266,-570)" fill="navy" text-rendering="geometricPrecision" shape-rendering="geometricPrecision" stroke-dasharray="6,2" stroke="navy" stroke-miterlimit="1.45">
      <rect fill="none" x="1678.7131" width="85" height="66.322" y="816.2703" clip-path="url(#clipPath2)"/>
    </g>
    <g text-rendering="geometricPrecision" stroke-miterlimit="1.45" shape-rendering="geometricPrecision" font-family="sans-serif" transform="matrix(1,0,0,1,-1266,-570)" stroke-linecap="butt">
      <text x="1697.4409" xml:space="preserve" y="854.0873" clip-path="url(#clipPath2)" stroke="none">Link (JIT)</text>
    </g>
    <g fill="rgb(153,204,255)" text-rendering="geometricPrecision" shape-rendering="geometricPrecision" transform="matrix(1,0,0,1,-1266,-570)" stroke="rgb(153,204,255)">
      <rect x="1771.7131" width="85" height="66.322" y="816.2703" clip-path="url(#clipPath2)" stroke="none"/>
    </g>
    <g stroke-linecap="butt" transform="matrix(1,0,0,1,-1266,-570)" fill="navy" text-rendering="geometricPrecision" shape-rendering="geometricPrecision" stroke-dasharray="6,2" stroke="navy" stroke-miterlimit="1.45">
      <rect fill="none" x="1771.7131" width="85" height="66.322" y="816.2703" clip-path="url(#clipPath2)"/>
    </g>
    <g text-rendering="geometricPrecision" stroke-miterlimit="1.45" shape-rendering="geometricPrecision" font-family="sans-serif" transform="matrix(1,0,0,1,-1266,-570)" stroke-linecap="butt">
      <text x="1778.8429" xml:space="preserve" y="854.0873" clip-path="url(#clipPath2)" stroke="none">Compile (JIT)</text>
    </g>
    <g fill="rgb(153,204,255)" text-rendering="geometricPrecision" shape-rendering="geometricPrecision" transform="matrix(1,0,0,1,-1266,-570)" stroke="rgb(153,204,255)">
      <rect x="1628.7131" width="228" height="30.322" y="774.0923" clip-path="url(#clipPath2)" stroke="none"/>
    </g>
    <g stroke-linecap="butt" transform="matrix(1,0,0,1,-1266,-570)" fill="navy" text-rendering="geometricPrecision" shape-rendering="geometricPrecision" stroke-dasharray="6,2" stroke="navy" stroke-miterlimit="1.45">
      <rect fill="none" x="1628.7131" width="228" height="30.322" y="774.0923" clip-path="url(#clipPath2)"/>
    </g>
    <g text-rendering="geometricPrecision" stroke-miterlimit="1.45" shape-rendering="geometricPrecision" font-family="sans-serif" transform="matrix(1,0,0,1,-1266,-570)" stroke-linecap="butt">
      <text x="1681.9447" xml:space="preserve" y="793.9094" clip-path="url(#clipPath2)" stroke="none">Execute JDK bytecode</text>
    </g>
    <g fill="rgb(127,191,255)" text-rendering="geometricPrecision" shape-rendering="geometricPrecision" transform="matrix(1,0,0,1,-1266,-570)" stroke="rgb(127,191,255)">
      <path d="M1397.0881 1032.2985 L1513.1881 1032.2985 L1526.0881 1077.7985 L1513.1881 1123.2985 L1397.0881 1123.2985 L1409.9882 1077.7985 Z" fill-rule="evenodd" clip-path="url(#clipPath2)" stroke="none"/>
    </g>
    <g stroke-linecap="butt" transform="matrix(1,0,0,1,-1266,-570)" fill="navy" text-rendering="geometricPrecision" shape-rendering="geometricPrecision" stroke="navy" stroke-miterlimit="1.45">
      <path fill="none" d="M1397.0881 1032.2985 L1513.1881 1032.2985 L1526.0881 1077.7985 L1513.1881 1123.2985 L1397.0881 1123.2985 L1409.9882 1077.7985 Z" fill-rule="evenodd" clip-path="url(#clipPath2)"/>
      <text x="1430.8619" y="1074.2825" clip-path="url(#clipPath2)" fill="black" font-family="sans-serif" stroke="none" xml:space="preserve">CDS 'static'</text>
      <text x="1441.176" y="1090.6266" clip-path="url(#clipPath2)" fill="black" font-family="sans-serif" stroke="none" xml:space="preserve">archive</text>
      <rect fill="none" x="1344.0881" width="566" height="270" y="1314.5611" clip-path="url(#clipPath2)"/>
      <text x="1603.166" y="1305.045" clip-path="url(#clipPath2)" fill="black" font-family="sans-serif" stroke="none" xml:space="preserve">Run App</text>
    </g>
    <g fill="rgb(127,191,255)" text-rendering="geometricPrecision" shape-rendering="geometricPrecision" transform="matrix(1,0,0,1,-1266,-570)" stroke="rgb(127,191,255)">
      <path d="M1397.0881 1451.0612 L1513.1881 1451.0612 L1526.0881 1496.5612 L1513.1881 1542.0612 L1397.0881 1542.0612 L1409.9882 1496.5612 Z" fill-rule="evenodd" clip-path="url(#clipPath2)" stroke="none"/>
    </g>
    <g stroke-linecap="butt" transform="matrix(1,0,0,1,-1266,-570)" fill="navy" text-rendering="geometricPrecision" shape-rendering="geometricPrecision" stroke="navy" stroke-miterlimit="1.45">
      <path fill="none" d="M1397.0881 1451.0612 L1513.1881 1451.0612 L1526.0881 1496.5612 L1513.1881 1542.0612 L1397.0881 1542.0612 L1409.9882 1496.5612 Z" fill-rule="evenodd" clip-path="url(#clipPath2)"/>
      <text x="1434.5819" y="1493.045" clip-path="url(#clipPath2)" fill="black" font-family="sans-serif" stroke="none" xml:space="preserve">ByteCode</text>
      <text x="1448.7841" y="1509.3892" clip-path="url(#clipPath2)" fill="black" font-family="sans-serif" stroke="none" xml:space="preserve">(JAR)</text>
    </g>
    <g fill="rgb(153,204,255)" text-rendering="geometricPrecision" shape-rendering="geometricPrecision" transform="matrix(1,0,0,1,-1266,-570)" stroke="rgb(153,204,255)">
      <rect x="1591.9631" width="295.5" height="126" y="1386.5611" clip-path="url(#clipPath2)" stroke="none"/>
    </g>
    <g stroke-linecap="butt" transform="matrix(1,0,0,1,-1266,-570)" fill="navy" text-rendering="geometricPrecision" shape-rendering="geometricPrecision" stroke="navy" stroke-miterlimit="1.45">
      <rect fill="none" x="1591.9631" width="295.5" height="126" y="1386.5611" clip-path="url(#clipPath2)"/>
      <text x="1604.8151" y="1414.0588" clip-path="url(#clipPath2)" fill="black" font-family="sans-serif" stroke="none" xml:space="preserve">Run</text>
    </g>
    <g fill="rgb(153,204,255)" text-rendering="geometricPrecision" shape-rendering="geometricPrecision" transform="matrix(1,0,0,1,-1266,-570)" stroke="rgb(153,204,255)">
      <rect x="1599.2131" width="85" height="66.322" y="1439.2391" clip-path="url(#clipPath2)" stroke="none"/>
    </g>
    <g stroke-linecap="butt" transform="matrix(1,0,0,1,-1266,-570)" fill="navy" text-rendering="geometricPrecision" shape-rendering="geometricPrecision" stroke-dasharray="6,2" stroke="navy" stroke-miterlimit="1.45">
      <rect fill="none" x="1599.2131" width="85" height="66.322" y="1439.2391" clip-path="url(#clipPath2)"/>
    </g>
    <g text-rendering="geometricPrecision" stroke-miterlimit="1.45" shape-rendering="geometricPrecision" font-family="sans-serif" transform="matrix(1,0,0,1,-1266,-570)" stroke-linecap="butt">
      <text x="1626.323" xml:space="preserve" y="1468.884" clip-path="url(#clipPath2)" stroke="none">Load </text>
      <text x="1617.017" xml:space="preserve" y="1485.2281" clip-path="url(#clipPath2)" stroke="none">(AOT/JIT)</text>
    </g>
    <g fill="rgb(153,204,255)" text-rendering="geometricPrecision" shape-rendering="geometricPrecision" transform="matrix(1,0,0,1,-1266,-570)" stroke="rgb(153,204,255)">
      <rect x="1697.2131" width="85" height="66.322" y="1439.2391" clip-path="url(#clipPath2)" stroke="none"/>
    </g>
    <g stroke-linecap="butt" transform="matrix(1,0,0,1,-1266,-570)" fill="navy" text-rendering="geometricPrecision" shape-rendering="geometricPrecision" stroke-dasharray="6,2" stroke="navy" stroke-miterlimit="1.45">
      <rect fill="none" x="1697.2131" width="85" height="66.322" y="1439.2391" clip-path="url(#clipPath2)"/>
    </g>
    <g text-rendering="geometricPrecision" stroke-miterlimit="1.45" shape-rendering="geometricPrecision" font-family="sans-serif" transform="matrix(1,0,0,1,-1266,-570)" stroke-linecap="butt">
      <text x="1726.5491" xml:space="preserve" y="1468.884" clip-path="url(#clipPath2)" stroke="none">Link </text>
      <text x="1715.017" xml:space="preserve" y="1485.2281" clip-path="url(#clipPath2)" stroke="none">(AOT/JIT)</text>
    </g>
    <g fill="rgb(153,204,255)" text-rendering="geometricPrecision" shape-rendering="geometricPrecision" transform="matrix(1,0,0,1,-1266,-570)" stroke="rgb(153,204,255)">
      <rect x="1790.2131" width="85" height="66.322" y="1439.2391" clip-path="url(#clipPath2)" stroke="none"/>
    </g>
    <g stroke-linecap="butt" transform="matrix(1,0,0,1,-1266,-570)" fill="navy" text-rendering="geometricPrecision" shape-rendering="geometricPrecision" stroke-dasharray="6,2" stroke="navy" stroke-miterlimit="1.45">
      <rect fill="none" x="1790.2131" width="85" height="66.322" y="1439.2391" clip-path="url(#clipPath2)"/>
    </g>
    <g text-rendering="geometricPrecision" stroke-miterlimit="1.45" shape-rendering="geometricPrecision" font-family="sans-serif" transform="matrix(1,0,0,1,-1266,-570)" stroke-linecap="butt">
      <text x="1807.9509" xml:space="preserve" y="1468.884" clip-path="url(#clipPath2)" stroke="none">Compile </text>
      <text x="1808.017" xml:space="preserve" y="1485.2281" clip-path="url(#clipPath2)" stroke="none">(AOT/JIT)</text>
    </g>
    <g fill="rgb(153,204,255)" text-rendering="geometricPrecision" shape-rendering="geometricPrecision" transform="matrix(1,0,0,1,-1266,-570)" stroke="rgb(153,204,255)">
      <rect x="1647.2131" width="228" height="30.322" y="1397.0611" clip-path="url(#clipPath2)" stroke="none"/>
    </g>
    <g stroke-linecap="butt" transform="matrix(1,0,0,1,-1266,-570)" fill="navy" text-rendering="geometricPrecision" shape-rendering="geometricPrecision" stroke-dasharray="6,2" stroke="navy" stroke-miterlimit="1.45">
      <rect fill="none" x="1647.2131" width="228" height="30.322" y="1397.0611" clip-path="url(#clipPath2)"/>
    </g>
    <g text-rendering="geometricPrecision" stroke-miterlimit="1.45" shape-rendering="geometricPrecision" font-family="sans-serif" transform="matrix(1,0,0,1,-1266,-570)" stroke-linecap="butt">
      <text x="1681.7186" xml:space="preserve" y="1416.8782" clip-path="url(#clipPath2)" stroke="none">Execute App &amp; JDK bytecode</text>
    </g>
    <g fill="rgb(127,191,255)" text-rendering="geometricPrecision" shape-rendering="geometricPrecision" transform="matrix(1,0,0,1,-1266,-570)" stroke="rgb(127,191,255)">
      <path d="M1397.0881 1347.7828 L1513.1881 1347.7828 L1526.0881 1393.2828 L1513.1881 1438.7828 L1397.0881 1438.7828 L1409.9882 1393.2828 Z" fill-rule="evenodd" clip-path="url(#clipPath2)" stroke="none"/>
    </g>
    <g stroke-linecap="butt" transform="matrix(1,0,0,1,-1266,-570)" fill="navy" text-rendering="geometricPrecision" shape-rendering="geometricPrecision" stroke="navy" stroke-miterlimit="1.45">
      <path fill="none" d="M1397.0881 1347.7828 L1513.1881 1347.7828 L1526.0881 1393.2828 L1513.1881 1438.7828 L1397.0881 1438.7828 L1409.9882 1393.2828 Z" fill-rule="evenodd" clip-path="url(#clipPath2)"/>
      <text x="1431.0419" y="1397.939" clip-path="url(#clipPath2)" fill="black" font-family="sans-serif" stroke="none" xml:space="preserve">AOT Cache</text>
    </g>
    <g fill="rgb(127,191,255)" text-rendering="geometricPrecision" shape-rendering="geometricPrecision" transform="matrix(1,0,0,1,-1266,-570)" stroke="rgb(127,191,255)">
      <path d="M1942.2302 1089.0845 L2058.3303 1089.0845 L2071.2302 1134.5845 L2058.3303 1180.0845 L1942.2302 1180.0845 L1955.1302 1134.5845 Z" fill-rule="evenodd" clip-path="url(#clipPath2)" stroke="none"/>
    </g>
    <g stroke-linecap="butt" transform="matrix(1,0,0,1,-1266,-570)" fill="navy" text-rendering="geometricPrecision" shape-rendering="geometricPrecision" stroke="navy" stroke-miterlimit="1.45">
      <path fill="none" d="M1942.2302 1089.0845 L2058.3303 1089.0845 L2071.2302 1134.5845 L2058.3303 1180.0845 L1942.2302 1180.0845 L1955.1302 1134.5845 Z" fill-rule="evenodd" clip-path="url(#clipPath2)"/>
      <text x="1976.184" y="1139.2405" clip-path="url(#clipPath2)" fill="black" font-family="sans-serif" stroke="none" xml:space="preserve">AOT Cache</text>
      <path fill="none" d="M1523.141 1170.675 L1584.075 1160.3778" clip-path="url(#clipPath2)" stroke="black"/>
      <path fill="black" d="M1591.9631 1159.0448 L1579.2977 1156.1143 L1583.089 1160.5444 L1580.964 1165.9744 Z" clip-path="url(#clipPath2)" stroke="none"/>
      <path fill="none" d="M1526.0824 826.5923 L1565.4631 826.5923" clip-path="url(#clipPath2)" stroke="black"/>
      <path fill="black" d="M1573.4631 826.5923 L1561.4631 821.5923 L1564.4631 826.5923 L1561.4631 831.5923 Z" clip-path="url(#clipPath2)" stroke="none"/>
      <path fill="none" d="M1868.9631 826.5923 L1921.2434 826.5923" clip-path="url(#clipPath2)" stroke="black"/>
      <path fill="black" d="M1929.2434 826.5923 L1917.2434 821.5923 L1920.2434 826.5923 L1917.2434 831.5923 Z" clip-path="url(#clipPath2)" stroke="none"/>
      <path fill="none" d="M1522.5978 1090.1437 L1584.1221 1102.5931" clip-path="url(#clipPath2)" stroke="black"/>
      <path fill="black" d="M1591.9631 1104.1797 L1581.1931 1096.8992 L1583.1418 1102.3948 L1579.2098 1106.7006 Z" clip-path="url(#clipPath2)" stroke="none"/>
      <path fill="none" d="M1523.141 1486.1594 L1584.075 1475.8622" clip-path="url(#clipPath2)" stroke="black"/>
      <path fill="black" d="M1591.9631 1474.5292 L1579.2977 1471.5986 L1583.089 1476.0288 L1580.964 1481.4587 Z" clip-path="url(#clipPath2)" stroke="none"/>
      <path fill="none" d="M1522.5978 1405.6281 L1584.1221 1418.0775" clip-path="url(#clipPath2)" stroke="black"/>
      <path fill="black" d="M1591.9631 1419.6641 L1581.1931 1412.3835 L1583.1418 1417.8792 L1579.2098 1422.1849 Z" clip-path="url(#clipPath2)" stroke="none"/>
      <path fill="none" d="M1887.4631 1134.3577 L1947.1041 1134.4711" clip-path="url(#clipPath2)" stroke="black"/>
      <path fill="black" d="M1955.1041 1134.4863 L1943.1136 1129.4635 L1946.1041 1134.4691 L1943.0946 1139.4634 Z" clip-path="url(#clipPath2)" stroke="none"/>
    </g>
  </g>
</svg>
