<svg version="1.1" xmlns="http://www.w3.org/2000/svg" viewBox="0 0 1130 532" width="1130" height="532">
  <!-- svg-source:excalidraw -->
  
  <defs>
    <style>
      @font-face {
        font-family: "Virgil";
        src: url("https://excalidraw.com/Virgil.woff2");
      }
      @font-face {
        font-family: "Cascadia";
        src: url("https://excalidraw.com/Cascadia.woff2");
      }
    </style>
  </defs>
  <rect x="0" y="0" width="1130" height="532" fill="#ffffff"></rect><g stroke-linecap="round" transform="translate(286 335) rotate(0 125 82)"><path d="M0.39 1.02 C52.54 0.03, 106.09 -0.65, 249.98 0.49 M-0.29 -0.61 C98.97 2.56, 197.45 1.93, 249.97 0.25 M250.82 1 C247.89 54.67, 250.87 110.4, 248.09 165.26 M249.79 -0.67 C250.81 33.53, 251.86 66.9, 250.54 163.77 M251 165.1 C158.4 162.68, 66.85 161.03, 0.63 163.61 M249.8 163.7 C151.2 163.2, 52.76 162.13, 0 163.38 M-1.7 164.03 C1 98.57, -1.67 33.29, 1.47 -1.11 M-0.08 164.47 C-0.97 106.96, -1.31 49.95, -0.27 -0.29" stroke="#e67700" stroke-width="1" fill="none"></path></g><g transform="translate(291 442) rotate(0 120 26)"><text x="120" y="18" font-family="Virgil, Segoe UI Emoji" font-size="20px" fill="#e67700" text-anchor="middle" style="white-space: pre;" direction="ltr">    Bean archives </text><text x="120" y="44" font-family="Virgil, Segoe UI Emoji" font-size="20px" fill="#e67700" text-anchor="middle" style="white-space: pre;" direction="ltr">Jandex indexes</text></g><g stroke-linecap="round"><g transform="translate(310.6314858975891 258.3775594871302) rotate(0 25.77058610523642 28.01733388684673)" fill-rule="evenodd"><path d="M-1.08 -1.86 L0.45 58.83 L13.72 61.56 L26.48 60.06 L42.11 58.97 L51.86 56.47 L50.45 -0.53 L43.94 -3.57 L24.18 -5.64 L6.34 -4.4 L1.68 0.9" stroke="none" stroke-width="0" fill="#228be6" fill-rule="evenodd"></path><path d="M-0.78 -0.88 C-0.9 7.59, -0.55 42.05, -0.59 51.42 C-0.63 60.8, -1.41 54.07, -1.02 55.38 C-0.63 56.69, -0.48 58.28, 1.76 59.26 C4 60.24, 8.08 60.92, 12.4 61.26 C16.71 61.6, 22.82 61.65, 27.65 61.29 C32.48 60.94, 37.58 59.85, 41.38 59.12 C45.18 58.39, 48.77 57.42, 50.45 56.91 C52.14 56.41, 51.51 57, 51.49 56.11 C51.48 55.22, 50.28 60.1, 50.38 51.58 C50.47 43.05, 51.88 13.72, 52.07 4.93 C52.26 -3.86, 52.08 0.01, 51.51 -1.15 C50.93 -2.31, 50.56 -1.34, 48.63 -2.01 C46.69 -2.69, 43.99 -4.65, 39.9 -5.21 C35.82 -5.77, 28.6 -5.37, 24.12 -5.39 C19.65 -5.41, 16.7 -5.72, 13.04 -5.34 C9.39 -4.96, 4.51 -3.84, 2.21 -3.12 C-0.09 -2.39, -0.19 -1.43, -0.74 -1 C-1.3 -0.56, -1.21 -0.56, -1.13 -0.51 M1.02 1.27 C1.26 9.37, 1.67 40.71, 1.72 49.89 C1.78 59.07, 1.37 55.15, 1.34 56.35 C1.31 57.56, -0.11 56.16, 1.54 57.1 C3.18 58.05, 6.6 61.47, 11.2 61.99 C15.81 62.52, 24.11 60.46, 29.16 60.28 C34.22 60.09, 38.12 61.55, 41.51 60.86 C44.91 60.17, 48.13 57.13, 49.52 56.15 C50.91 55.17, 49.71 55.76, 49.88 54.98 C50.05 54.19, 50.06 60.14, 50.53 51.42 C51.01 42.69, 52.77 10.94, 52.73 2.63 C52.69 -5.67, 50.86 2.44, 50.28 1.59 C49.71 0.73, 50.59 -1.84, 49.27 -2.49 C47.95 -3.15, 46.57 -1.75, 42.35 -2.33 C38.14 -2.91, 29.26 -5.63, 24.01 -5.99 C18.76 -6.35, 14.69 -5, 10.85 -4.48 C7 -3.96, 2.56 -3.43, 0.96 -2.87 C-0.64 -2.31, 1.32 -1.53, 1.25 -1.14 C1.19 -0.74, 0.75 -0.85, 0.55 -0.52" stroke="#0a11d3" stroke-width="1" fill="none"></path></g></g><g stroke-linecap="round"><g transform="translate(311.03332130465924 296.54653135839584) rotate(0 26.072143311789944 2.8530555995868667)"><path d="M-0.88 -0.76 C-0.57 -0.42, 1.24 0.58, 2.48 1.26 C3.72 1.93, 4.35 2.53, 6.57 3.3 C8.79 4.07, 12.23 5.49, 15.79 5.88 C19.34 6.27, 23.62 6.01, 27.91 5.65 C32.21 5.3, 38.09 4.32, 41.57 3.75 C45.04 3.18, 47.23 2.87, 48.77 2.22 C50.31 1.57, 50.26 0.45, 50.81 -0.16 M0.86 1.46 C1.05 1.98, 1.35 1.81, 2.12 2.25 C2.88 2.7, 3.08 3.93, 5.46 4.15 C7.85 4.37, 12.88 3.27, 16.43 3.6 C19.98 3.93, 22.36 5.77, 26.79 6.14 C31.22 6.52, 39.33 6.72, 43 5.86 C46.67 5, 47.16 2.02, 48.84 0.97 C50.51 -0.08, 52.71 -0.32, 53.02 -0.44" stroke="#0a11d3" stroke-width="1" fill="none"></path></g></g><g stroke-linecap="round"><g transform="translate(310.3939139353149 277.211196703357) rotate(0 25.485711896676264 3.115964276888775)"><path d="M-0.76 1.12 C-0.57 1.53, -0.85 0.99, 0.33 1.63 C1.51 2.27, 3.79 4.22, 6.33 4.95 C8.87 5.69, 12.03 5.92, 15.55 6.02 C19.07 6.11, 23.28 5.9, 27.45 5.5 C31.61 5.11, 36.79 4.34, 40.55 3.63 C44.32 2.92, 48.18 1.8, 50.04 1.23 C51.9 0.66, 51.66 0.37, 51.73 0.22 M1.04 0.66 C1.66 1.3, 1.22 2.43, 2.51 2.82 C3.79 3.21, 6.49 2.84, 8.75 3.01 C11.02 3.17, 13.19 3.32, 16.07 3.8 C18.96 4.29, 21.84 5.6, 26.07 5.92 C30.3 6.23, 37.34 6.14, 41.45 5.68 C45.57 5.21, 49.23 4.04, 50.78 3.12 C52.33 2.19, 50.59 0.78, 50.76 0.13" stroke="#0a11d3" stroke-width="1" fill="none"></path></g></g><g stroke-linecap="round" transform="translate(309.7386747610158 253.6862774540628) rotate(0 25.62055676422318 5.181564854201213)"><path d="M31.82 0.79 C36.81 0.79, 42.13 0.38, 45.46 1.15 C48.79 1.91, 52.14 4.2, 51.8 5.38 C51.46 6.56, 47.28 7.33, 43.43 8.25 C39.57 9.17, 34.13 10.61, 28.69 10.88 C23.26 11.16, 15.43 10.68, 10.81 9.91 C6.19 9.14, 2.58 7.34, 0.98 6.27 C-0.63 5.19, -1.06 4.27, 1.2 3.44 C3.47 2.62, 8.7 1.88, 14.56 1.33 C20.43 0.77, 32.35 0.06, 36.38 0.13 C40.41 0.2, 38.94 1.44, 38.74 1.72 M14.13 1.58 C18.29 1.14, 25.44 -0.3, 30.93 -0.44 C36.43 -0.59, 43.85 -0.19, 47.08 0.72 C50.3 1.63, 50.67 3.67, 50.28 5.01 C49.89 6.34, 48.31 8.04, 44.75 8.75 C41.19 9.47, 34.28 9.17, 28.93 9.28 C23.57 9.4, 17.07 9.85, 12.62 9.44 C8.16 9.04, 3.71 7.83, 2.19 6.82 C0.67 5.81, 1.48 4.57, 3.51 3.39 C5.53 2.2, 12.58 0.02, 14.33 -0.29 C16.08 -0.6, 13.75 1.24, 14 1.53" stroke="none" stroke-width="0" fill="#fff"></path><path d="M19.15 0.74 C24.23 0.29, 31.55 0.28, 36.35 0.49 C41.14 0.71, 45.53 1.15, 47.91 2.03 C50.28 2.91, 51.8 4.5, 50.59 5.79 C49.38 7.09, 45.28 8.96, 40.64 9.79 C35.99 10.63, 28.1 10.87, 22.7 10.82 C17.3 10.76, 11.96 10.46, 8.25 9.48 C4.53 8.49, 0.94 6.01, 0.43 4.9 C-0.09 3.79, 1.98 3.75, 5.13 2.8 C8.29 1.85, 16.7 -0.35, 19.34 -0.8 C21.97 -1.26, 20.61 -0.03, 20.95 0.1 M24.46 -1.41 C29.77 -1.39, 37.23 0.04, 41.48 0.86 C45.74 1.67, 49.15 2.36, 49.97 3.48 C50.79 4.6, 48.83 6.23, 46.39 7.56 C43.95 8.88, 40.15 11.14, 35.34 11.44 C30.53 11.73, 23.01 9.95, 17.54 9.31 C12.07 8.67, 5.53 8.35, 2.52 7.58 C-0.5 6.81, -1.61 5.87, -0.54 4.68 C0.53 3.49, 4.54 1.36, 8.93 0.43 C13.33 -0.5, 23.06 -0.74, 25.84 -0.89 C28.61 -1.04, 25.66 -0.69, 25.58 -0.49" stroke="#0a11d3" stroke-width="1" fill="none"></path></g><g stroke-linecap="round" transform="translate(351.5436618704839 268.0534284617733) rotate(0 3.754938187987875 4.075257404840755)"><path d="M5.19 -0.49 C5.78 -0.35, 5.43 1.54, 5.81 2.16 C6.19 2.78, 7.4 2.49, 7.45 3.24 C7.49 4, 6.52 6.03, 6.09 6.69 C5.65 7.35, 5.49 7.09, 4.84 7.2 C4.18 7.31, 2.99 7.81, 2.14 7.37 C1.29 6.92, 0.01 5.22, -0.26 4.53 C-0.52 3.83, 0.05 3.75, 0.55 3.18 C1.05 2.61, 1.99 1.7, 2.75 1.1 C3.51 0.5, 4.44 -0.46, 5.13 -0.4 C5.82 -0.35, 6.74 1.4, 6.92 1.44 M6.53 -0.25 C7.32 0.24, 6.74 2.58, 6.64 3.36 C6.54 4.13, 6.17 3.61, 5.95 4.4 C5.72 5.19, 5.71 7.4, 5.27 8.09 C4.82 8.79, 4.15 8.59, 3.26 8.57 C2.37 8.55, 0.48 8.53, -0.07 8 C-0.62 7.47, -0.22 6.23, -0.05 5.39 C0.12 4.55, 0.41 3.82, 0.96 2.95 C1.51 2.09, 2.61 0.69, 3.23 0.2 C3.85 -0.3, 4.14 -0.13, 4.67 0 C5.19 0.13, 6.17 0.87, 6.36 0.97" stroke="none" stroke-width="0" fill="#fff"></path><path d="M2.93 0.44 C3.53 -0.12, 4.47 -0.88, 4.99 -0.6 C5.51 -0.32, 5.75 1.21, 6.05 2.1 C6.35 3, 6.69 4.1, 6.79 4.77 C6.89 5.45, 7.05 5.51, 6.64 6.16 C6.23 6.81, 5.09 8.46, 4.31 8.69 C3.54 8.92, 2.84 8.09, 2 7.56 C1.17 7.04, -0.55 6.58, -0.72 5.54 C-0.88 4.5, 0.61 2.33, 1.01 1.33 C1.41 0.32, 1.39 -0.43, 1.68 -0.51 C1.98 -0.58, 2.71 0.7, 2.78 0.88 M0.88 -0.32 C1.65 -0.63, 3.62 -0.84, 4.49 -0.71 C5.36 -0.58, 5.63 -0.58, 6.09 0.46 C6.56 1.51, 6.99 4.36, 7.26 5.58 C7.53 6.79, 8.37 7.5, 7.7 7.78 C7.02 8.06, 4.28 7.48, 3.21 7.25 C2.15 7.02, 1.76 6.81, 1.31 6.39 C0.86 5.98, 0.78 5.4, 0.5 4.74 C0.23 4.07, -0.51 3.15, -0.37 2.4 C-0.22 1.65, 1.05 0.62, 1.4 0.24 C1.75 -0.13, 1.59 0.19, 1.73 0.15" stroke="#0a11d3" stroke-width="1" fill="none"></path></g><g stroke-linecap="round" transform="translate(351.5436618704839 285.94379314274596) rotate(0 3.754938187987875 4.075257404840755)"><path d="M3.42 -0.89 C4.2 -1.01, 6.43 0.39, 6.95 1.07 C7.46 1.75, 6.54 2.2, 6.51 3.18 C6.48 4.15, 7.2 6.03, 6.76 6.9 C6.33 7.76, 4.68 8.29, 3.9 8.36 C3.11 8.44, 2.8 7.73, 2.08 7.36 C1.36 6.99, -0.2 6.74, -0.42 6.15 C-0.64 5.57, 0.31 4.81, 0.74 3.86 C1.17 2.92, 1.62 0.99, 2.16 0.5 C2.7 0.01, 3.35 0.76, 3.97 0.92 C4.6 1.09, 5.95 1.39, 5.91 1.49 M1.65 -0.3 C2.5 -1.06, 5.03 -1.47, 5.77 -1.18 C6.5 -0.9, 5.66 0.45, 6.04 1.43 C6.42 2.4, 7.94 3.88, 8.05 4.66 C8.16 5.43, 7.21 5.49, 6.71 6.07 C6.21 6.64, 5.74 7.86, 5.05 8.1 C4.36 8.33, 3.18 7.94, 2.58 7.46 C1.98 6.97, 1.78 6.21, 1.44 5.19 C1.11 4.16, 0.47 1.99, 0.55 1.32 C0.62 0.65, 1.52 1.27, 1.9 1.19 C2.28 1.11, 2.76 0.98, 2.82 0.86" stroke="none" stroke-width="0" fill="#fff"></path><path d="M5.07 0.23 C5.61 0.2, 5.7 0.38, 6.13 1.01 C6.55 1.63, 7.59 2.89, 7.62 3.97 C7.66 5.05, 7.14 6.73, 6.35 7.51 C5.57 8.28, 3.64 8.55, 2.91 8.62 C2.18 8.68, 2.4 8.63, 1.98 7.88 C1.56 7.13, 0.53 4.99, 0.38 4.13 C0.24 3.27, 0.91 3.5, 1.1 2.71 C1.3 1.91, 1 -0.21, 1.55 -0.63 C2.1 -1.05, 3.67 0.13, 4.41 0.21 C5.14 0.28, 5.85 -0.13, 5.95 -0.19 M2.01 -0.18 C2.78 -0.38, 3.71 -0.85, 4.33 -0.49 C4.94 -0.13, 5.02 0.85, 5.7 2 C6.38 3.14, 8.24 5.6, 8.42 6.37 C8.59 7.13, 7.7 6.32, 6.74 6.59 C5.78 6.85, 3.75 7.82, 2.67 7.96 C1.59 8.11, 0.75 8.16, 0.27 7.47 C-0.22 6.78, -0.31 4.89, -0.22 3.8 C-0.14 2.72, 0.31 1.67, 0.78 0.97 C1.24 0.27, 2.3 -0.26, 2.57 -0.41 C2.85 -0.56, 2.51 -0.28, 2.42 0.09" stroke="#0a11d3" stroke-width="1" fill="none"></path></g><g stroke-linecap="round" transform="translate(351.5436618704839 305.38824244519606) rotate(0 3.754938187987875 4.075257404840727)"><path d="M3.77 0.72 C4.4 0.8, 6.19 0.12, 6.74 0.71 C7.28 1.3, 7 3.37, 7.04 4.26 C7.09 5.14, 7.43 5.39, 7.01 6 C6.59 6.62, 5.48 7.86, 4.51 7.97 C3.55 8.07, 1.89 7, 1.2 6.64 C0.52 6.28, 0.44 6.42, 0.42 5.82 C0.4 5.22, 0.85 4.07, 1.09 3.03 C1.32 1.99, 1 -0.04, 1.83 -0.42 C2.66 -0.8, 5.24 0.71, 6.07 0.76 C6.89 0.81, 6.75 0, 6.76 -0.13 M3.04 0.84 C3.39 0.72, 4.03 -0.54, 4.68 -0.04 C5.33 0.45, 6.53 2.72, 6.93 3.81 C7.32 4.89, 7.54 5.57, 7.07 6.44 C6.6 7.32, 4.87 8.59, 4.11 9.03 C3.36 9.47, 3.1 9.34, 2.54 9.1 C1.98 8.86, 1.12 8.51, 0.75 7.6 C0.38 6.68, 0.37 4.78, 0.32 3.61 C0.26 2.44, -0.29 1.11, 0.41 0.58 C1.12 0.06, 3.91 0.56, 4.53 0.43 C5.14 0.31, 4.3 -0.21, 4.12 -0.15" stroke="none" stroke-width="0" fill="#fff"></path><path d="M4.6 -0.72 C5.11 -0.59, 5.45 0.9, 5.82 1.74 C6.19 2.58, 6.65 3.65, 6.83 4.34 C7.02 5.02, 7.28 5.13, 6.93 5.85 C6.58 6.57, 5.48 8.33, 4.72 8.65 C3.95 8.98, 3.22 8.26, 2.33 7.82 C1.44 7.37, -0.37 6.98, -0.62 5.97 C-0.87 4.95, 0.55 2.76, 0.83 1.72 C1.12 0.69, 0.4 -0.11, 1.09 -0.24 C1.79 -0.37, 4.37 0.8, 5.01 0.94 C5.64 1.08, 5.04 0.72, 4.9 0.58 M1.92 -0.56 C2.71 -1.06, 3.24 -1.79, 4.04 -1.22 C4.83 -0.65, 5.88 1.77, 6.68 2.85 C7.48 3.94, 9.05 4.74, 8.86 5.29 C8.68 5.84, 6.43 5.84, 5.58 6.16 C4.73 6.48, 4.39 7.06, 3.77 7.21 C3.16 7.36, 2.65 7.42, 1.91 7.08 C1.17 6.74, -0.28 5.99, -0.68 5.17 C-1.08 4.35, -0.88 3, -0.48 2.15 C-0.09 1.3, 1.26 0.49, 1.69 0.08 C2.13 -0.33, 1.81 -0.52, 2.14 -0.31" stroke="#0a11d3" stroke-width="1" fill="none"></path></g><g stroke-linecap="round"><g transform="translate(447.1256599751398 258.8250084603182) rotate(0 25.65421570555037 28.029503906575627)" fill-rule="evenodd"><path d="M-0.93 0.45 L2.26 56.79 L12.43 61.61 L29.39 63.02 L41.68 62 L50.61 55.32 L49.59 -1 L43.77 -2.7 L24.19 -3.93 L5.1 -4.31 L0.52 -1.51" stroke="none" stroke-width="0" fill="#228be6" fill-rule="evenodd"></path><path d="M-0.82 -0.02 C-0.94 8.19, -0.95 40.4, -0.98 49.82 C-1.01 59.24, -1.73 55.11, -0.98 56.49 C-0.23 57.86, 1.39 57.49, 3.52 58.06 C5.65 58.64, 7.66 59.55, 11.8 59.94 C15.94 60.33, 23.42 60.24, 28.35 60.39 C33.27 60.53, 37.74 61.06, 41.35 60.81 C44.96 60.56, 48.3 59.82, 50.01 58.87 C51.72 57.92, 51.48 56.24, 51.6 55.09 C51.72 53.94, 50.76 60.58, 50.75 51.98 C50.74 43.37, 51.56 12.03, 51.56 3.47 C51.56 -5.1, 51.39 1.75, 50.75 0.6 C50.1 -0.54, 49.37 -2.63, 47.69 -3.38 C46 -4.14, 44.4 -3.58, 40.64 -3.94 C36.88 -4.29, 29.96 -5.48, 25.15 -5.49 C20.33 -5.5, 15.7 -4.46, 11.75 -3.99 C7.8 -3.51, 3.51 -3.45, 1.47 -2.64 C-0.57 -1.82, -0.19 0.39, -0.47 0.89 C-0.75 1.38, -0.13 0.55, -0.19 0.33 M0.95 -1.08 C1.2 7.24, 1.06 41.86, 1.13 51.1 C1.2 60.34, 0.87 53.07, 1.39 54.38 C1.91 55.69, 2.74 58, 4.22 58.93 C5.71 59.87, 6.57 59.38, 10.29 59.98 C14.01 60.58, 21.37 62.59, 26.56 62.55 C31.76 62.52, 37.74 60.35, 41.46 59.78 C45.17 59.21, 47.41 59.58, 48.84 59.13 C50.27 58.68, 49.66 58.27, 50.04 57.09 C50.42 55.9, 50.78 60.87, 51.1 52.03 C51.42 43.19, 51.68 12.62, 51.96 4.05 C52.24 -4.52, 53.47 1.43, 52.79 0.6 C52.1 -0.23, 50.01 -0.15, 47.84 -0.92 C45.68 -1.69, 43.53 -3.17, 39.82 -4.04 C36.11 -4.91, 30.12 -5.8, 25.57 -6.14 C21.02 -6.48, 16.21 -6.75, 12.53 -6.08 C8.85 -5.42, 5.3 -3.44, 3.49 -2.14 C1.68 -0.84, 2.54 1.25, 1.68 1.73 C0.81 2.22, -1.27 0.84, -1.68 0.76" stroke="#0a11d3" stroke-width="1" fill="none"></path></g></g><g stroke-linecap="round"><g transform="translate(447.52749538220996 296.993980331584) rotate(0 25.583683893364366 3.0342003205051356)"><path d="M-0.02 -1.15 C0.03 -0.8, -0.41 0.26, 0.87 1.29 C2.16 2.33, 5.39 4.4, 7.68 5.07 C9.96 5.73, 11.43 5.07, 14.59 5.28 C17.74 5.49, 22.25 6.61, 26.59 6.35 C30.94 6.09, 36.68 4.48, 40.66 3.71 C44.64 2.95, 48.44 2.4, 50.46 1.78 C52.47 1.15, 52.67 0.42, 52.77 -0.05 M-1.5 0.86 C-1.69 1.4, -1.77 1.92, -0.33 2.31 C1.11 2.7, 4.66 2.51, 7.15 3.18 C9.64 3.85, 11.05 5.67, 14.6 6.34 C18.15 7.01, 23.93 7.29, 28.43 7.2 C32.94 7.11, 37.79 6.95, 41.62 5.8 C45.45 4.65, 49.62 1.31, 51.41 0.29 C53.2 -0.72, 52.12 -0.36, 52.35 -0.28" stroke="#0a11d3" stroke-width="1" fill="none"></path></g></g><g stroke-linecap="round"><g transform="translate(446.88808801286586 277.65864567654506) rotate(0 25.344382517296538 1.846642915577121)"><path d="M-1.15 -0.49 C-0.95 -0.03, -1.17 2.03, 0.37 2.74 C1.91 3.44, 5.66 3.43, 8.09 3.75 C10.52 4.08, 11.61 4.55, 14.95 4.69 C18.29 4.83, 23.88 4.49, 28.14 4.6 C32.4 4.7, 36.94 5.56, 40.52 5.32 C44.09 5.09, 47.71 4.21, 49.6 3.19 C51.49 2.17, 51.63 -0.38, 51.84 -0.8 M0.45 -1.79 C1.08 -1.69, 1.34 -0.26, 2.56 0.85 C3.78 1.95, 5.68 4.07, 7.78 4.84 C9.88 5.6, 11.93 5.5, 15.16 5.45 C18.38 5.4, 22.76 4.67, 27.13 4.53 C31.51 4.39, 37.57 4.94, 41.4 4.59 C45.22 4.24, 48.51 3.44, 50.1 2.44 C51.69 1.44, 50.54 -0.98, 50.92 -1.42" stroke="#0a11d3" stroke-width="1" fill="none"></path></g></g><g stroke-linecap="round" transform="translate(446.2328488385667 254.1337264272508) rotate(0 25.62055676422318 5.181564854201213)"><path d="M15.92 0.58 C20.57 0.16, 27.48 -0.14, 32.81 0.33 C38.15 0.81, 45 2.39, 47.93 3.42 C50.87 4.46, 51.17 5.69, 50.42 6.55 C49.68 7.42, 47.62 8.04, 43.45 8.62 C39.28 9.21, 30.9 9.83, 25.41 10.07 C19.92 10.32, 14.8 10.86, 10.51 10.1 C6.23 9.33, 0.88 6.68, -0.31 5.51 C-1.5 4.34, 0.1 3.79, 3.37 3.06 C6.64 2.33, 15.85 1.56, 19.29 1.12 C22.73 0.68, 23.93 0.47, 23.99 0.42 M24.27 1 C29.58 0.78, 36.78 -0.27, 41.39 0.26 C46.01 0.79, 50.77 3.15, 51.95 4.16 C53.12 5.18, 51.26 5.16, 48.45 6.35 C45.63 7.53, 39.98 10.39, 35.05 11.26 C30.13 12.13, 23.89 12.22, 18.89 11.57 C13.9 10.91, 8.28 8.64, 5.1 7.33 C1.91 6.02, -0.68 4.58, -0.21 3.71 C0.26 2.85, 3.84 2.72, 7.91 2.15 C11.98 1.57, 21.33 0.64, 24.21 0.24 C27.08 -0.15, 25.06 -0.07, 25.17 -0.21" stroke="none" stroke-width="0" fill="#fff"></path><path d="M30.35 -0.46 C35.54 -0.39, 42.87 0.15, 46.21 1.18 C49.55 2.22, 50.63 4.36, 50.4 5.75 C50.16 7.14, 48.22 8.84, 44.8 9.52 C41.38 10.21, 35.39 9.7, 29.9 9.85 C24.41 10, 16.57 11.03, 11.85 10.43 C7.12 9.84, 3.3 7.33, 1.55 6.26 C-0.21 5.19, -0.57 5.05, 1.34 4.01 C3.25 2.98, 7.97 0.69, 13 0.07 C18.02 -0.56, 28.15 0.27, 31.47 0.28 C34.78 0.3, 33.01 0.02, 32.88 0.16 M19.03 0 C24.07 -0.47, 31.01 -1.01, 35.81 -0.67 C40.61 -0.32, 45.29 0.73, 47.82 2.08 C50.35 3.43, 52.17 6.16, 50.98 7.43 C49.8 8.7, 44.99 8.98, 40.71 9.7 C36.43 10.43, 30.47 12, 25.3 11.8 C20.12 11.6, 13.62 9.58, 9.66 8.5 C5.7 7.42, 2.69 6.59, 1.56 5.34 C0.43 4.08, 0.19 2, 2.88 0.99 C5.57 -0.03, 15.08 -0.57, 17.7 -0.78 C20.32 -0.98, 18.28 -0.31, 18.61 -0.24" stroke="#0a11d3" stroke-width="1" fill="none"></path></g><g stroke-linecap="round" transform="translate(488.03783594803485 268.5008774349613) rotate(0 3.754938187987875 4.075257404840755)"><path d="M3.18 -0.81 C3.95 -0.91, 4.75 0.49, 5.58 0.96 C6.42 1.43, 7.8 1.14, 8.19 2 C8.58 2.87, 8.42 5.39, 7.94 6.16 C7.46 6.93, 6.15 6.15, 5.31 6.61 C4.48 7.08, 3.53 9.03, 2.95 8.93 C2.36 8.82, 2.43 6.71, 1.82 5.98 C1.21 5.24, -0.6 5.29, -0.71 4.5 C-0.82 3.72, 0.32 1.87, 1.14 1.27 C1.96 0.67, 3.75 1.18, 4.18 0.89 C4.62 0.6, 3.87 -0.38, 3.74 -0.47 M4.1 0.23 C4.73 0.29, 4.27 1.43, 4.82 1.85 C5.37 2.28, 7.17 2.25, 7.38 2.79 C7.59 3.33, 6.13 4.14, 6.06 5.11 C5.98 6.08, 7.18 7.92, 6.93 8.59 C6.68 9.27, 5.66 9.57, 4.55 9.18 C3.44 8.8, 1.14 7.19, 0.25 6.27 C-0.64 5.35, -1.03 4.52, -0.79 3.67 C-0.55 2.82, 0.98 1.64, 1.66 1.15 C2.35 0.65, 3.15 0.82, 3.34 0.7 C3.53 0.57, 3.01 0.39, 2.8 0.4" stroke="none" stroke-width="0" fill="#fff"></path><path d="M4.53 1 C5.2 1.11, 5.74 0.63, 6.31 1.24 C6.88 1.84, 7.81 3.58, 7.94 4.61 C8.07 5.64, 7.87 6.93, 7.09 7.41 C6.31 7.88, 4.1 7.51, 3.27 7.49 C2.44 7.47, 2.75 7.8, 2.11 7.28 C1.47 6.77, -0.43 5.31, -0.58 4.4 C-0.73 3.5, 0.78 2.6, 1.2 1.88 C1.61 1.15, 1.18 0.26, 1.92 0.05 C2.66 -0.17, 5 0.55, 5.63 0.61 C6.26 0.67, 5.65 0.45, 5.68 0.38 M2.76 0.5 C3.42 0.01, 3.86 -0.42, 4.49 -0.01 C5.12 0.39, 5.89 2.11, 6.55 2.92 C7.21 3.73, 8.52 3.94, 8.45 4.84 C8.38 5.73, 6.77 7.54, 6.13 8.31 C5.5 9.07, 5.59 9.46, 4.64 9.43 C3.69 9.4, 1.3 9.17, 0.43 8.11 C-0.43 7.05, -0.36 4.2, -0.53 3.07 C-0.7 1.94, -1.02 1.76, -0.6 1.36 C-0.18 0.95, 1.48 0.68, 1.98 0.65 C2.49 0.63, 2.44 1.33, 2.44 1.19" stroke="#0a11d3" stroke-width="1" fill="none"></path></g><g stroke-linecap="round" transform="translate(488.03783594803485 286.39124211593395) rotate(0 3.754938187987875 4.075257404840755)"><path d="M2.63 0.08 C3.52 0.1, 5.78 1.15, 6.48 1.76 C7.19 2.37, 6.62 3.13, 6.87 3.75 C7.11 4.37, 8.36 4.84, 7.94 5.47 C7.52 6.1, 5.07 6.97, 4.33 7.53 C3.59 8.09, 4.25 9.15, 3.49 8.83 C2.74 8.51, 0.32 6.42, -0.21 5.6 C-0.74 4.79, 0.13 4.53, 0.31 3.95 C0.49 3.36, 0.15 2.7, 0.88 2.09 C1.6 1.48, 4.22 0.6, 4.66 0.29 C5.1 -0.02, 3.67 0.27, 3.51 0.23 M3.75 -0.81 C4.77 -1.05, 6.72 0.48, 7.35 0.94 C7.98 1.4, 7.63 0.91, 7.53 1.96 C7.43 3.01, 6.95 6.03, 6.73 7.25 C6.5 8.47, 6.69 9.27, 6.18 9.28 C5.68 9.3, 4.72 7.96, 3.72 7.33 C2.72 6.69, 0.84 5.98, 0.16 5.48 C-0.52 4.98, -0.5 5.03, -0.38 4.33 C-0.25 3.64, 0.14 2.08, 0.91 1.31 C1.67 0.54, 3.73 0.08, 4.22 -0.31 C4.72 -0.7, 3.9 -0.97, 3.85 -1.04" stroke="none" stroke-width="0" fill="#fff"></path><path d="M3.8 -0.65 C4.41 -0.68, 4.21 0.31, 4.75 1.02 C5.3 1.73, 6.6 2.93, 7.05 3.6 C7.5 4.26, 7.82 4.18, 7.47 4.98 C7.13 5.78, 5.71 7.97, 5.01 8.38 C4.3 8.8, 4 7.63, 3.26 7.47 C2.52 7.3, 1.14 8.06, 0.57 7.4 C0.01 6.74, -0.13 4.49, -0.12 3.53 C-0.1 2.57, -0.04 2.24, 0.67 1.63 C1.38 1.02, 3.51 0, 4.14 -0.14 C4.78 -0.29, 4.62 0.75, 4.49 0.77 M3.49 -0.99 C3.95 -1.27, 4.41 -0.97, 5.1 -0.17 C5.78 0.62, 7.34 2.78, 7.61 3.78 C7.89 4.79, 6.96 4.98, 6.76 5.85 C6.56 6.73, 6.8 8.74, 6.42 9.03 C6.03 9.32, 5.15 8.06, 4.46 7.59 C3.76 7.11, 3.16 7.01, 2.24 6.19 C1.31 5.38, -0.85 3.65, -1.11 2.69 C-1.37 1.74, -0.12 1, 0.68 0.46 C1.47 -0.07, 3.07 -0.28, 3.64 -0.52 C4.22 -0.75, 4.3 -1.17, 4.11 -0.94" stroke="#0a11d3" stroke-width="1" fill="none"></path></g><g stroke-linecap="round" transform="translate(488.03783594803485 305.83569141838416) rotate(0 3.754938187987875 4.075257404840727)"><path d="M3.3 0.52 C4.17 0.42, 5.93 -0.44, 6.7 0.08 C7.47 0.6, 7.92 2.88, 7.94 3.65 C7.95 4.41, 7.25 3.88, 6.8 4.69 C6.35 5.49, 5.73 8.06, 5.23 8.49 C4.73 8.91, 4.69 7.5, 3.83 7.23 C2.97 6.96, 0.66 7.47, 0.08 6.87 C-0.5 6.27, 0.04 4.41, 0.35 3.64 C0.66 2.86, 1.34 2.9, 1.94 2.2 C2.54 1.5, 3.55 -0.2, 3.92 -0.56 C4.3 -0.93, 4.27 -0.14, 4.17 0.01 M2.63 1.32 C3.24 1.19, 5.43 0.63, 6.02 0.86 C6.61 1.08, 5.75 1.69, 6.16 2.68 C6.56 3.67, 8.34 5.78, 8.44 6.81 C8.54 7.84, 7.82 8.74, 6.77 8.87 C5.72 9, 3.28 8.06, 2.13 7.58 C0.98 7.1, 0.1 6.69, -0.12 5.99 C-0.34 5.29, 0.56 4.09, 0.8 3.39 C1.05 2.69, 0.96 2.33, 1.35 1.81 C1.74 1.3, 2.97 0.51, 3.13 0.27 C3.29 0.04, 2.46 0.17, 2.33 0.4" stroke="none" stroke-width="0" fill="#fff"></path><path d="M2.91 -0.84 C3.85 -1.08, 5.66 -0.06, 6.57 0.65 C7.48 1.36, 8.38 2.63, 8.39 3.41 C8.39 4.2, 7.03 4.58, 6.62 5.34 C6.22 6.1, 6.73 7.6, 5.95 7.98 C5.18 8.36, 2.74 7.93, 1.96 7.62 C1.17 7.31, 1.66 6.82, 1.24 6.11 C0.82 5.39, -0.58 4.13, -0.56 3.31 C-0.53 2.49, 0.64 1.8, 1.39 1.19 C2.14 0.57, 3.34 -0.11, 3.95 -0.38 C4.56 -0.65, 5.09 -0.51, 5.05 -0.44 M4.1 -0.21 C4.75 0.03, 5.62 1.73, 6.37 2.49 C7.11 3.26, 8.54 3.46, 8.56 4.38 C8.58 5.3, 7.07 7.19, 6.49 8.04 C5.91 8.89, 6.04 9.4, 5.08 9.47 C4.12 9.54, 1.67 9.43, 0.74 8.45 C-0.19 7.46, -0.23 4.66, -0.49 3.54 C-0.76 2.42, -1.2 2.2, -0.85 1.74 C-0.51 1.28, 0.66 0.84, 1.56 0.77 C2.47 0.7, 4.16 1.5, 4.57 1.32 C4.98 1.15, 3.89 0.03, 4.03 -0.27" stroke="#0a11d3" stroke-width="1" fill="none"></path></g><g stroke-linecap="round"><g transform="translate(378.33630178478734 258.52903228207725) rotate(0 25.87640559466621 27.35447981897991)" fill-rule="evenodd"><path d="M1.79 -1.07 L-0.13 56.64 L12.46 61.92 L28.22 62.87 L40.81 60.23 L52.91 58.3 L51.56 0.32 L43.76 -2.42 L26.67 -5.32 L4.92 -1.47 L-0.88 1.69" stroke="none" stroke-width="0" fill="#228be6" fill-rule="evenodd"></path><path d="M0.56 -0.33 C0.86 8.26, 1.61 41.64, 1.37 50.99 C1.13 60.34, -1.13 54.69, -0.87 55.79 C-0.6 56.88, 0.77 56.9, 2.94 57.55 C5.1 58.21, 8.17 59.17, 12.11 59.73 C16.04 60.28, 21.57 60.81, 26.56 60.89 C31.55 60.97, 37.96 60.73, 42.05 60.2 C46.15 59.67, 49.51 58.39, 51.12 57.73 C52.72 57.07, 51.61 57.41, 51.69 56.24 C51.77 55.08, 51.7 59.41, 51.62 50.76 C51.53 42.12, 51.35 12.78, 51.18 4.37 C51.01 -4.03, 51.1 1.34, 50.59 0.33 C50.09 -0.68, 49.72 -0.77, 48.13 -1.69 C46.54 -2.62, 45.06 -4.48, 41.05 -5.22 C37.04 -5.96, 28.94 -6.35, 24.08 -6.14 C19.22 -5.94, 15.47 -4.47, 11.87 -4 C8.28 -3.53, 4.36 -3.85, 2.53 -3.33 C0.69 -2.82, 1.2 -1.5, 0.88 -0.93 C0.55 -0.35, 0.59 0.06, 0.57 0.14 M-0.6 -1.55 C-0.32 6.74, 0.69 39.47, 1.05 49.23 C1.41 58.98, 1.19 55.49, 1.57 56.97 C1.95 58.46, 1.8 57.71, 3.33 58.15 C4.86 58.6, 6.73 59.4, 10.75 59.66 C14.78 59.91, 22.2 59.8, 27.5 59.66 C32.8 59.53, 38.7 59.23, 42.54 58.85 C46.38 58.47, 49.26 58, 50.54 57.39 C51.81 56.78, 49.86 56.39, 50.18 55.19 C50.49 53.98, 52.23 58.47, 52.42 50.18 C52.62 41.88, 51.35 13.77, 51.37 5.44 C51.39 -2.89, 53.03 1.42, 52.55 0.18 C52.08 -1.06, 50.53 -1.58, 48.51 -2 C46.5 -2.42, 44.54 -2.1, 40.45 -2.34 C36.35 -2.59, 28.56 -2.85, 23.94 -3.48 C19.32 -4.11, 16.47 -6.15, 12.72 -6.1 C8.97 -6.05, 3.55 -4.05, 1.44 -3.2 C-0.67 -2.36, 0.39 -1.64, 0.07 -1.03 C-0.26 -0.42, -0.78 0.1, -0.51 0.47" stroke="#0a11d3" stroke-width="1" fill="none"></path></g></g><g stroke-linecap="round"><g transform="translate(378.7381371918575 296.6980041533429) rotate(0 25.649958575028677 3.3696621931538573)"><path d="M-0.33 1.2 C0.1 1.34, 0.83 0.86, 2.04 1.41 C3.26 1.96, 4.97 3.78, 6.98 4.48 C8.98 5.17, 10.84 5.57, 14.07 5.59 C17.31 5.6, 21.87 4.75, 26.38 4.56 C30.9 4.37, 37.25 4.7, 41.16 4.42 C45.08 4.14, 48.1 3.62, 49.85 2.89 C51.59 2.16, 51.23 0.55, 51.63 0.04 M1.7 0.78 C2.07 1, 0.72 1.63, 1.45 2.49 C2.18 3.35, 4.02 5.22, 6.08 5.94 C8.14 6.66, 10.15 7.05, 13.82 6.81 C17.49 6.56, 23.35 5.07, 28.11 4.48 C32.87 3.88, 38.66 3.64, 42.39 3.22 C46.12 2.81, 49.11 2.55, 50.48 1.99 C51.85 1.42, 50.54 0.44, 50.61 -0.14" stroke="#0a11d3" stroke-width="1" fill="none"></path></g></g><g stroke-linecap="round"><g transform="translate(378.0987298225134 277.3626694983041) rotate(0 26.046131252042187 2.7029724406488356)"><path d="M1.2 0.68 C1.19 1.08, -0.56 1.61, 0.49 2.04 C1.54 2.46, 5.04 2.83, 7.51 3.24 C9.97 3.65, 12.12 4.17, 15.26 4.48 C18.4 4.79, 22.03 5.06, 26.35 5.1 C30.68 5.14, 37.16 5.22, 41.22 4.71 C45.28 4.2, 48.92 2.77, 50.71 2.04 C52.49 1.32, 51.76 0.78, 51.93 0.36 M0.37 0 C0.68 0.6, 1.65 2.77, 2.74 3.44 C3.83 4.12, 4.74 3.78, 6.89 4.06 C9.03 4.34, 12.09 4.92, 15.62 5.12 C19.15 5.33, 23.59 5.54, 28.07 5.3 C32.54 5.06, 39.13 4.43, 42.48 3.67 C45.82 2.9, 46.71 1.25, 48.14 0.7 C49.57 0.15, 50.74 0.8, 51.06 0.34" stroke="#0a11d3" stroke-width="1" fill="none"></path></g></g><g stroke-linecap="round" transform="translate(377.44349064821427 253.83775024900984) rotate(0 25.62055676422318 5.181564854201213)"><path d="M35.99 0.73 C40.79 0.99, 46.33 1.99, 48.61 2.97 C50.88 3.96, 51.12 5.41, 49.65 6.64 C48.18 7.86, 43.99 9.83, 39.81 10.31 C35.63 10.79, 29.78 9.92, 24.56 9.54 C19.34 9.15, 12.58 8.54, 8.47 8.01 C4.36 7.48, 0.65 7.29, -0.08 6.34 C-0.82 5.39, 0.77 3.25, 4.04 2.33 C7.31 1.4, 13.74 0.89, 19.53 0.79 C25.31 0.68, 35.01 1.64, 38.73 1.68 C42.45 1.72, 42.03 1, 41.85 1.02 M19.57 -0.34 C24.83 -0.72, 33.53 -0.86, 38.61 -0.02 C43.7 0.81, 48.25 3.48, 50.1 4.66 C51.94 5.84, 51.67 6.45, 49.69 7.06 C47.72 7.67, 42.73 7.86, 38.23 8.31 C33.74 8.76, 28.12 9.77, 22.72 9.77 C17.32 9.77, 9.44 8.92, 5.83 8.32 C2.22 7.71, 1.02 7.18, 1.06 6.13 C1.11 5.07, 2.91 2.97, 6.11 2.01 C9.31 1.05, 17.93 0.41, 20.26 0.34 C22.6 0.28, 19.95 1.36, 20.13 1.62" stroke="none" stroke-width="0" fill="#fff"></path><path d="M23.17 -0.7 C28.16 -0.8, 34.76 -0.15, 39.23 0.59 C43.7 1.33, 48.26 2.63, 50.01 3.75 C51.75 4.87, 51.87 6.2, 49.71 7.3 C47.56 8.4, 42.11 9.91, 37.07 10.36 C32.02 10.81, 24.84 10.33, 19.44 10 C14.04 9.66, 7.97 9.14, 4.66 8.35 C1.36 7.56, -0.86 6.25, -0.39 5.25 C0.07 4.26, 3.24 3.42, 7.47 2.39 C11.7 1.36, 21.9 -0.43, 24.97 -0.93 C28.04 -1.43, 25.95 -0.91, 25.88 -0.59 M27.89 0.76 C33.37 0.81, 40.91 1.76, 44.71 2.68 C48.5 3.6, 50.58 5.47, 50.65 6.31 C50.72 7.14, 48.48 6.96, 45.12 7.69 C41.76 8.42, 35.55 10.24, 30.48 10.68 C25.42 11.12, 19.3 11.12, 14.75 10.34 C10.19 9.56, 5.4 6.92, 3.15 6 C0.89 5.08, -0.43 5.67, 1.21 4.81 C2.85 3.96, 8.24 1.83, 13.01 0.87 C17.77 -0.1, 27.03 -1.08, 29.81 -0.99 C32.6 -0.89, 29.91 1.37, 29.72 1.42" stroke="#0a11d3" stroke-width="1" fill="none"></path></g><g stroke-linecap="round" transform="translate(419.2484777576824 268.20490125672035) rotate(0 3.754938187987875 4.075257404840755)"><path d="M4.84 0.01 C5.48 0.03, 6.3 0.21, 6.78 0.79 C7.25 1.37, 7.57 2.32, 7.69 3.47 C7.8 4.61, 8.16 6.76, 7.45 7.66 C6.74 8.55, 4.53 8.9, 3.43 8.84 C2.33 8.78, 1.29 7.95, 0.85 7.3 C0.41 6.64, 0.9 5.56, 0.81 4.91 C0.73 4.25, 0.05 4.16, 0.35 3.38 C0.65 2.61, 1.64 0.67, 2.61 0.28 C3.58 -0.12, 5.66 0.9, 6.16 1 C6.66 1.09, 5.7 0.96, 5.62 0.84 M2.96 1.25 C3.64 1.34, 4.33 1.34, 5.31 1.57 C6.3 1.81, 8.5 2.14, 8.86 2.64 C9.23 3.14, 8.29 3.66, 7.49 4.58 C6.7 5.5, 4.98 7.72, 4.1 8.13 C3.23 8.55, 2.87 7.17, 2.23 7.06 C1.6 6.95, 0.55 7.86, 0.3 7.45 C0.05 7.03, 0.59 5.58, 0.72 4.58 C0.84 3.58, 0.58 2.21, 1.07 1.46 C1.56 0.7, 3.02 0.13, 3.64 0.03 C4.27 -0.07, 4.65 0.65, 4.83 0.86" stroke="none" stroke-width="0" fill="#fff"></path><path d="M3.46 -0.73 C4.31 -0.76, 5.51 0.15, 6.18 1.03 C6.86 1.9, 7.4 3.59, 7.49 4.55 C7.59 5.5, 7.16 6.17, 6.77 6.76 C6.38 7.35, 5.95 7.98, 5.14 8.1 C4.32 8.23, 2.64 7.99, 1.86 7.51 C1.07 7.03, 0.64 5.96, 0.43 5.23 C0.22 4.5, 0.25 3.89, 0.6 3.15 C0.95 2.42, 2.01 1.46, 2.51 0.83 C3.01 0.19, 3.32 -0.51, 3.58 -0.66 C3.85 -0.8, 3.89 -0.28, 4.12 -0.04 M2.7 0.65 C3.33 0.31, 4.63 -0.5, 5.52 -0.48 C6.41 -0.47, 7.83 0.08, 8.05 0.76 C8.27 1.43, 7.03 2.39, 6.85 3.56 C6.68 4.74, 7.32 6.83, 6.99 7.78 C6.66 8.74, 5.91 9.36, 4.85 9.32 C3.79 9.28, 1.19 8.03, 0.61 7.55 C0.04 7.07, 1.43 7.16, 1.39 6.46 C1.34 5.76, 0.4 4.23, 0.33 3.37 C0.26 2.5, 0.46 1.73, 0.95 1.26 C1.45 0.79, 3.3 0.37, 3.29 0.55" stroke="#0a11d3" stroke-width="1" fill="none"></path></g><g stroke-linecap="round" transform="translate(419.2484777576824 286.095265937693) rotate(0 3.754938187987875 4.075257404840755)"><path d="M5.02 0.32 C5.64 0.55, 5.97 1.37, 6.24 2.29 C6.51 3.2, 6.53 5.09, 6.65 5.79 C6.77 6.48, 7.32 6.19, 6.94 6.44 C6.57 6.68, 5.38 7.04, 4.4 7.26 C3.42 7.49, 1.86 8.2, 1.07 7.79 C0.28 7.37, -0.41 5.64, -0.35 4.77 C-0.29 3.89, 0.96 3.16, 1.41 2.56 C1.86 1.96, 1.49 1.48, 2.35 1.15 C3.22 0.82, 5.88 0.41, 6.6 0.57 C7.31 0.73, 6.86 2.05, 6.64 2.1 M4.82 -0.59 C5.79 -0.36, 6.51 1.63, 6.87 2.32 C7.24 3.01, 7.2 3.13, 7.04 3.53 C6.87 3.93, 6.11 4.09, 5.87 4.72 C5.62 5.35, 6.26 6.81, 5.56 7.29 C4.86 7.77, 2.33 7.64, 1.68 7.59 C1.02 7.53, 1.75 7.65, 1.62 6.97 C1.49 6.29, 0.92 4.46, 0.89 3.52 C0.87 2.57, 1.03 1.64, 1.48 1.29 C1.93 0.93, 3.12 1.38, 3.6 1.4 C4.08 1.41, 4.21 1.68, 4.36 1.37" stroke="none" stroke-width="0" fill="#fff"></path><path d="M1.54 0.02 C2.16 -0.23, 3.6 -0.14, 4.61 0.17 C5.62 0.48, 7.09 1.05, 7.62 1.87 C8.14 2.69, 7.94 4.27, 7.73 5.1 C7.53 5.93, 7.04 6.32, 6.37 6.85 C5.7 7.38, 4.63 8.12, 3.74 8.27 C2.85 8.42, 1.59 8.18, 1.03 7.76 C0.46 7.35, 0.42 6.88, 0.34 5.8 C0.27 4.72, 0.28 2.34, 0.57 1.28 C0.86 0.22, 1.67 -0.46, 2.09 -0.57 C2.51 -0.69, 2.92 0.57, 3.1 0.59 M5.31 1.28 C6.13 1.64, 6.27 2.99, 6.49 3.48 C6.71 3.97, 6.81 3.54, 6.63 4.24 C6.46 4.95, 5.78 6.96, 5.44 7.71 C5.11 8.45, 5.13 9, 4.64 8.71 C4.14 8.42, 3.24 6.44, 2.47 5.96 C1.71 5.49, 0.19 6.53, 0.05 5.87 C-0.08 5.21, 1.12 3.11, 1.67 2 C2.23 0.88, 2.67 -0.75, 3.38 -0.82 C4.09 -0.9, 5.63 1.57, 5.92 1.56 C6.21 1.55, 5.01 -0.61, 5.1 -0.87" stroke="#0a11d3" stroke-width="1" fill="none"></path></g><g stroke-linecap="round" transform="translate(419.2484777576824 305.5397152401431) rotate(0 3.754938187987875 4.075257404840727)"><path d="M3.52 -0.79 C4.27 -1.02, 5.33 -0.8, 6.13 -0.02 C6.93 0.77, 8.29 2.81, 8.32 3.91 C8.35 5.01, 6.98 5.96, 6.32 6.57 C5.67 7.18, 4.9 7.41, 4.41 7.58 C3.91 7.75, 3.99 7.66, 3.37 7.6 C2.75 7.54, 1.17 7.92, 0.71 7.23 C0.25 6.55, 0.38 4.38, 0.61 3.48 C0.84 2.57, 1.46 2.38, 2.07 1.82 C2.68 1.27, 3.62 0.45, 4.26 0.15 C4.91 -0.15, 5.95 -0.02, 5.94 0.02 M2.62 0.88 C3.7 0.44, 6.38 0.11, 7.21 0.23 C8.05 0.34, 7.86 0.63, 7.66 1.58 C7.46 2.54, 6.45 5.1, 6.01 5.95 C5.56 6.81, 5.55 6.19, 4.98 6.72 C4.41 7.24, 3.19 8.98, 2.61 9.1 C2.03 9.22, 1.95 8.27, 1.51 7.46 C1.07 6.64, 0.03 5.23, -0.03 4.21 C-0.08 3.2, 0.4 1.94, 1.17 1.38 C1.94 0.81, 4.06 0.87, 4.61 0.81 C5.17 0.75, 4.88 1.02, 4.52 1.02" stroke="none" stroke-width="0" fill="#fff"></path><path d="M3.81 -0.24 C4.69 0.03, 5.8 1.21, 6.42 1.92 C7.03 2.63, 7.35 3.24, 7.5 4 C7.65 4.77, 7.83 5.86, 7.33 6.5 C6.83 7.13, 5.33 7.68, 4.49 7.81 C3.65 7.95, 2.89 7.6, 2.27 7.3 C1.65 7, 1 6.71, 0.78 6.02 C0.56 5.33, 0.97 4.16, 0.95 3.15 C0.94 2.14, 0.24 0.55, 0.69 -0.02 C1.14 -0.59, 2.91 -0.32, 3.63 -0.25 C4.35 -0.17, 5.08 0.19, 5.02 0.44 M3.38 -0.29 C4.18 -0.8, 5.81 -0.86, 6.3 -0.59 C6.78 -0.32, 6.04 0.27, 6.31 1.31 C6.57 2.36, 7.82 4.5, 7.9 5.68 C7.99 6.85, 7.67 7.93, 6.8 8.34 C5.93 8.76, 3.38 8.16, 2.68 8.16 C1.99 8.17, 3.04 8.79, 2.61 8.38 C2.18 7.96, 0.66 6.6, 0.13 5.69 C-0.4 4.78, -1.16 3.81, -0.57 2.91 C0.02 2, 3.37 0.45, 3.66 0.27 C3.95 0.1, 1.48 1.57, 1.18 1.85" stroke="#0a11d3" stroke-width="1" fill="none"></path></g><g stroke-linecap="round"><g transform="translate(311.1004992846126 354.0254464829552) rotate(0 25.566166404288992 28.453302444562496)" fill-rule="evenodd"><path d="M1.14 1.31 L2.14 57.09 L13.75 59.84 L26.83 62.25 L40.73 61.05 L51.54 55.65 L51.72 -0.7 L45.92 -4.1 L25.45 -6.93 L5.84 -5.15 L-0.42 0.85" stroke="none" stroke-width="0" fill="#228be6" fill-rule="evenodd"></path><path d="M-1.09 -0.34 C-1.04 7.99, -0.58 41.83, -0.38 51.12 C-0.18 60.4, -0.41 54.12, 0.12 55.36 C0.65 56.59, 0.92 57.8, 2.8 58.53 C4.67 59.27, 7.34 59.43, 11.38 59.78 C15.42 60.14, 22.04 60.49, 27.03 60.67 C32.03 60.84, 37.62 61.24, 41.35 60.84 C45.09 60.43, 47.76 59.12, 49.46 58.25 C51.17 57.38, 51.41 56.62, 51.58 55.59 C51.74 54.56, 50.58 60.55, 50.47 52.06 C50.37 43.58, 50.91 13.46, 50.95 4.69 C50.99 -4.09, 51.17 0.59, 50.71 -0.59 C50.25 -1.76, 49.75 -1.86, 48.17 -2.35 C46.58 -2.84, 44.94 -3.01, 41.21 -3.52 C37.47 -4.04, 30.75 -5.21, 25.75 -5.44 C20.75 -5.68, 14.95 -5.35, 11.21 -4.94 C7.47 -4.53, 5.39 -3.92, 3.32 -2.99 C1.25 -2.07, -0.43 0.06, -1.18 0.63 C-1.93 1.2, -1.27 0.33, -1.17 0.42 M0.54 -1.56 C0.45 6.94, -1.43 39.77, -1.61 49.42 C-1.8 59.07, -1.37 54.61, -0.58 56.32 C0.21 58.02, 0.8 59.08, 3.12 59.65 C5.43 60.22, 9.12 59.19, 13.31 59.75 C17.49 60.3, 23.53 62.97, 28.22 62.98 C32.91 62.99, 37.56 60.62, 41.47 59.82 C45.38 59.02, 50.25 59.12, 51.67 58.18 C53.09 57.25, 50.17 55.19, 50 54.19 C49.84 53.19, 50.51 60.21, 50.68 52.16 C50.85 44.12, 50.68 14.82, 51.02 5.92 C51.37 -2.98, 53.14 0.28, 52.73 -1.21 C52.32 -2.7, 50.58 -2.64, 48.57 -3 C46.57 -3.37, 44.37 -2.9, 40.69 -3.41 C37 -3.92, 31.32 -5.99, 26.49 -6.07 C21.66 -6.15, 15.69 -4.43, 11.71 -3.87 C7.74 -3.3, 4.51 -3.56, 2.65 -2.69 C0.8 -1.82, 0.95 0.75, 0.58 1.35 C0.22 1.95, 0.66 1.11, 0.48 0.89" stroke="#0a11d3" stroke-width="1" fill="none"></path></g></g><g stroke-linecap="round"><g transform="translate(311.5023346916828 392.19441835422094) rotate(0 25.927177807931457 2.671831618014096)"><path d="M-0.34 -0.55 C-0.17 0.03, 1.02 1.58, 2.17 2.4 C3.32 3.21, 4.4 3.93, 6.55 4.34 C8.69 4.75, 11.74 4.75, 15.06 4.86 C18.37 4.98, 22.13 5.22, 26.44 5.03 C30.75 4.84, 36.93 4.36, 40.94 3.72 C44.95 3.09, 48.62 1.86, 50.48 1.23 C52.35 0.6, 51.97 0.35, 52.15 -0.08 M1.68 1.78 C1.67 2.67, 1.02 3.34, 1.65 4 C2.27 4.66, 3.15 5.45, 5.43 5.73 C7.7 6.02, 11.52 5.79, 15.32 5.7 C19.11 5.61, 23.74 5.18, 28.2 5.2 C32.65 5.22, 38.17 6.16, 42.04 5.82 C45.92 5.47, 49.9 4.14, 51.45 3.12 C53.01 2.1, 51.66 0.14, 51.4 -0.32" stroke="#0a11d3" stroke-width="1" fill="none"></path></g></g><g stroke-linecap="round"><g transform="translate(310.8629273223387 372.85908369918207) rotate(0 25.632822764176638 2.515571427041209)"><path d="M-0.55 0.81 C-0.12 1.13, 0.16 1.04, 1.48 1.6 C2.79 2.17, 5.19 3.73, 7.37 4.22 C9.54 4.71, 11.29 4.43, 14.53 4.54 C17.78 4.65, 22.5 4.74, 26.83 4.88 C31.16 5.01, 36.82 5.73, 40.52 5.35 C44.23 4.96, 47.17 3.51, 49.05 2.56 C50.93 1.62, 51.56 0, 51.81 -0.3 M1.37 0.19 C1.74 0.69, -0.3 1.89, 0.59 2.79 C1.47 3.68, 4.36 5.15, 6.68 5.55 C9 5.96, 10.83 5.31, 14.52 5.21 C18.2 5.12, 24.31 5.06, 28.79 4.96 C33.27 4.86, 38 5.21, 41.41 4.64 C44.82 4.06, 47.69 2.38, 49.27 1.5 C50.85 0.61, 50.44 -0.4, 50.89 -0.66" stroke="#0a11d3" stroke-width="1" fill="none"></path></g></g><g stroke-linecap="round" transform="translate(310.20768814803955 349.3341644498878) rotate(0 25.62055676422318 5.181564854201213)"><path d="M31.76 0.17 C36.83 0.11, 41.64 0.32, 44.99 1.22 C48.35 2.11, 52.1 4.38, 51.9 5.53 C51.7 6.69, 47.74 7.23, 43.78 8.13 C39.82 9.02, 33.47 10.62, 28.15 10.91 C22.83 11.2, 16.18 10.71, 11.86 9.86 C7.54 9.01, 3.89 6.99, 2.22 5.8 C0.56 4.61, 0.09 3.42, 1.88 2.71 C3.67 1.99, 7.63 1.98, 12.97 1.51 C18.32 1.03, 30.2 0.12, 33.94 -0.15 C37.67 -0.42, 35.55 -0.26, 35.39 -0.11 M37.45 0.97 C42.48 1.09, 46.96 0.77, 48.91 1.86 C50.87 2.95, 50.62 6.22, 49.17 7.48 C47.72 8.75, 44.37 9.13, 40.24 9.44 C36.11 9.75, 29.65 9.52, 24.39 9.32 C19.13 9.11, 12.93 8.97, 8.69 8.2 C4.44 7.43, -0.6 5.82, -1.09 4.71 C-1.59 3.6, 2.27 2.4, 5.73 1.55 C9.2 0.7, 14.53 -0.32, 19.72 -0.39 C24.91 -0.46, 34.39 0.78, 36.87 1.12 C39.35 1.45, 35.11 1.77, 34.6 1.62" stroke="none" stroke-width="0" fill="#fff"></path><path d="M18.06 -0.48 C22.9 -0.92, 30.65 -0.7, 35.6 -0.05 C40.56 0.6, 45.4 2.26, 47.77 3.41 C50.14 4.56, 50.97 5.87, 49.83 6.86 C48.68 7.84, 45.37 8.61, 40.91 9.34 C36.44 10.06, 28.6 11.23, 23.03 11.23 C17.46 11.22, 11.37 10.28, 7.49 9.31 C3.62 8.34, 0.27 6.54, -0.21 5.42 C-0.69 4.3, 0.66 3.39, 4.61 2.57 C8.56 1.75, 19.5 0.93, 23.5 0.51 C27.51 0.08, 28.79 0.06, 28.64 0.01 M37.91 -0.92 C42.99 -0.4, 47.36 0.92, 49.65 2.33 C51.95 3.73, 53.16 6.15, 51.67 7.52 C50.18 8.89, 45.59 9.85, 40.71 10.55 C35.83 11.25, 28.09 12.11, 22.37 11.73 C16.66 11.35, 10.03 9.51, 6.44 8.27 C2.84 7.02, 0.92 5.27, 0.79 4.27 C0.66 3.27, 2.67 2.92, 5.68 2.26 C8.68 1.61, 13.57 0.51, 18.81 0.32 C24.05 0.13, 34.2 1.02, 37.13 1.14 C40.06 1.25, 36.78 1.11, 36.38 1" stroke="#0a11d3" stroke-width="1" fill="none"></path></g><g stroke-linecap="round" transform="translate(352.0126752575077 363.7013154575984) rotate(0 3.754938187987875 4.075257404840727)"><path d="M3.24 -0.83 C3.77 -1.02, 4.21 0.8, 4.91 1.27 C5.62 1.73, 7.16 1.4, 7.46 1.96 C7.76 2.52, 6.93 3.69, 6.72 4.62 C6.5 5.56, 6.72 6.81, 6.15 7.55 C5.59 8.29, 4.36 9.23, 3.31 9.07 C2.26 8.91, 0.5 7.56, -0.14 6.6 C-0.77 5.63, -0.84 4, -0.51 3.27 C-0.18 2.54, 1.19 2.69, 1.84 2.22 C2.5 1.76, 3.1 0.72, 3.44 0.48 C3.78 0.24, 3.79 0.66, 3.86 0.79 M3.51 0.34 C4 -0.33, 3.68 -1.12, 4.48 -0.82 C5.27 -0.52, 7.8 1.02, 8.29 2.15 C8.77 3.27, 7.98 4.89, 7.38 5.94 C6.79 6.98, 5.51 8.27, 4.7 8.42 C3.89 8.58, 3.31 6.93, 2.51 6.88 C1.72 6.83, 0.49 8.38, -0.05 8.13 C-0.59 7.87, -0.78 6.3, -0.73 5.33 C-0.69 4.37, -0.52 3.44, 0.22 2.35 C0.95 1.27, 3.02 -0.6, 3.66 -1.17 C4.3 -1.73, 4.3 -1.12, 4.08 -1.04" stroke="none" stroke-width="0" fill="#fff"></path><path d="M3.3 -0.35 C3.98 -0.43, 5.06 -0.27, 5.85 0.28 C6.63 0.82, 7.76 1.9, 8 2.93 C8.25 3.96, 7.86 5.78, 7.33 6.48 C6.79 7.17, 5.5 6.93, 4.8 7.09 C4.1 7.25, 3.81 7.68, 3.14 7.42 C2.47 7.17, 1.35 6.21, 0.79 5.54 C0.23 4.87, -0.38 4.15, -0.22 3.41 C-0.05 2.67, 0.95 1.55, 1.79 1.09 C2.62 0.64, 4.32 0.99, 4.77 0.69 C5.22 0.4, 4.6 -0.78, 4.46 -0.67 M1 0.77 C1.81 0.55, 3.1 1.36, 4.24 1.73 C5.38 2.11, 7.15 2.56, 7.86 3.01 C8.57 3.47, 8.55 3.87, 8.5 4.47 C8.45 5.07, 8.44 5.88, 7.57 6.62 C6.71 7.36, 4.52 8.69, 3.28 8.89 C2.04 9.1, 0.63 8.66, 0.12 7.83 C-0.39 7, 0.14 4.88, 0.23 3.92 C0.32 2.96, 0.21 2.78, 0.68 2.08 C1.15 1.39, 2.69 0.27, 3.06 -0.23 C3.42 -0.73, 3.02 -0.83, 2.86 -0.89" stroke="#0a11d3" stroke-width="1" fill="none"></path></g><g stroke-linecap="round" transform="translate(352.0126752575077 381.59168013857106) rotate(0 3.754938187987875 4.075257404840727)"><path d="M3.83 -0.66 C4.58 -0.48, 7.02 1.12, 7.5 1.87 C7.98 2.63, 7.02 2.93, 6.69 3.88 C6.35 4.82, 5.94 6.78, 5.49 7.54 C5.04 8.3, 4.48 8.61, 4 8.43 C3.52 8.25, 3.26 7.09, 2.61 6.46 C1.96 5.83, 0.6 5.16, 0.1 4.63 C-0.39 4.1, -0.85 4.05, -0.37 3.28 C0.12 2.51, 1.99 0.61, 2.99 0.01 C3.99 -0.58, 5.1 -0.38, 5.63 -0.28 C6.16 -0.17, 6.14 0.55, 6.18 0.63 M4.5 -1.02 C4.82 -0.87, 4.79 1.54, 5.23 2.37 C5.66 3.2, 6.74 3.44, 7.09 3.97 C7.44 4.5, 7.59 4.97, 7.32 5.53 C7.04 6.1, 6.53 7.16, 5.44 7.35 C4.35 7.54, 1.42 7.09, 0.78 6.68 C0.15 6.27, 1.53 5.63, 1.62 4.89 C1.71 4.16, 1.16 2.85, 1.31 2.25 C1.46 1.65, 2.26 1.49, 2.54 1.3 C2.83 1.11, 2.92 1.43, 3 1.11 C3.08 0.79, 3.03 -0.73, 3.04 -0.6" stroke="none" stroke-width="0" fill="#fff"></path><path d="M3.43 -0.49 C4.13 -0.33, 4.8 0.78, 5.36 1.5 C5.92 2.22, 6.49 3.08, 6.78 3.85 C7.08 4.62, 7.59 5.3, 7.14 6.12 C6.7 6.95, 4.96 8.44, 4.11 8.79 C3.26 9.15, 2.71 8.79, 2.04 8.28 C1.38 7.77, 0.4 6.54, 0.12 5.76 C-0.16 4.97, 0.09 4.32, 0.34 3.6 C0.6 2.87, 0.9 2.02, 1.66 1.41 C2.42 0.8, 4.53 0.17, 4.89 -0.08 C5.25 -0.33, 3.77 -0.06, 3.81 -0.09 M2.54 -0.33 C3.3 -0.38, 5.19 0.46, 6.05 0.95 C6.91 1.45, 7.52 1.85, 7.71 2.63 C7.9 3.42, 7.49 5.03, 7.2 5.65 C6.9 6.27, 6.32 6.14, 5.95 6.35 C5.58 6.56, 5.59 6.67, 5 6.89 C4.4 7.12, 3.32 7.92, 2.37 7.69 C1.43 7.45, -0.35 6.25, -0.69 5.48 C-1.03 4.72, -0.04 3.89, 0.33 3.11 C0.7 2.33, 1.45 1.35, 1.54 0.83 C1.62 0.31, 0.94 0.05, 0.83 -0.01" stroke="#0a11d3" stroke-width="1" fill="none"></path></g><g stroke-linecap="round" transform="translate(352.0126752575077 401.0361294410211) rotate(0 3.754938187987875 4.075257404840727)"><path d="M4.27 0.93 C5.02 1.19, 6.73 0.76, 7.17 1.25 C7.61 1.74, 6.98 2.91, 6.91 3.88 C6.84 4.86, 7.22 6.24, 6.74 7.12 C6.26 8, 5.08 9.14, 4.02 9.15 C2.96 9.16, 1.1 8, 0.36 7.15 C-0.39 6.3, -0.64 4.76, -0.46 4.04 C-0.28 3.33, 1 3.4, 1.43 2.85 C1.86 2.29, 1.51 0.99, 2.12 0.72 C2.73 0.44, 4.4 1, 5.07 1.19 C5.74 1.38, 6.17 1.85, 6.17 1.85 M4.36 -0.88 C5.16 -0.67, 7.73 0.9, 8.24 2.02 C8.75 3.13, 7.99 4.75, 7.42 5.81 C6.85 6.86, 5.6 8.17, 4.81 8.35 C4.01 8.53, 3.43 6.91, 2.64 6.89 C1.84 6.87, 0.6 8.47, 0.03 8.23 C-0.53 7.99, -0.74 6.43, -0.73 5.47 C-0.71 4.51, -0.57 3.56, 0.14 2.46 C0.85 1.36, 2.48 -0.6, 3.54 -1.14 C4.6 -1.68, 6.31 -0.86, 6.49 -0.78 C6.68 -0.7, 4.64 -1.01, 4.67 -0.66" stroke="none" stroke-width="0" fill="#fff"></path><path d="M2.49 -0.75 C3.43 -1.02, 5.18 -0.77, 6.04 -0.19 C6.91 0.38, 7.47 1.94, 7.68 2.71 C7.89 3.49, 7.47 3.71, 7.3 4.45 C7.12 5.19, 7.23 6.59, 6.61 7.14 C6 7.69, 4.61 7.76, 3.62 7.75 C2.62 7.74, 1.2 7.62, 0.64 7.08 C0.08 6.54, 0.16 5.31, 0.27 4.5 C0.38 3.69, 0.76 3.1, 1.29 2.21 C1.81 1.32, 3 -0.64, 3.42 -0.84 C3.84 -1.04, 3.88 0.98, 3.79 1.03 M3.98 1.64 C5.12 1.9, 6.96 2.34, 7.72 2.77 C8.48 3.19, 8.52 3.57, 8.53 4.18 C8.54 4.79, 8.6 5.64, 7.77 6.42 C6.94 7.21, 4.79 8.62, 3.55 8.88 C2.31 9.15, 0.88 8.79, 0.34 8.01 C-0.21 7.23, 0.25 5.15, 0.29 4.21 C0.32 3.26, 0.13 3.06, 0.55 2.34 C0.97 1.62, 2.04 0.45, 2.81 -0.12 C3.57 -0.69, 4.91 -0.91, 5.14 -1.06 C5.38 -1.21, 4.35 -1.41, 4.22 -1.03" stroke="#0a11d3" stroke-width="1" fill="none"></path></g><g stroke-linecap="round"><g transform="translate(446.8979270043461 354.60997870811684) rotate(0 25.513814902648278 27.57627139966729)" fill-rule="evenodd"><path d="M1.1 0.65 L-0.81 58.34 L10.92 61.74 L29.18 61.66 L40.97 58.47 L51.43 56.91 L51.19 -2.4 L43.96 -1.98 L24.75 -6.1 L5.15 -3.92 L1.87 -1.99" stroke="none" stroke-width="0" fill="#228be6" fill-rule="evenodd"></path><path d="M-0.61 -0.85 C-0.21 7.7, 1.24 41.73, 1.26 51.31 C1.29 60.89, -0.56 55.28, -0.44 56.61 C-0.32 57.94, -0.09 58.45, 1.97 59.28 C4.04 60.11, 7.78 61.23, 11.94 61.61 C16.11 61.99, 21.72 61.74, 26.97 61.57 C32.23 61.41, 39.54 61.41, 43.46 60.63 C47.38 59.85, 49.32 57.57, 50.47 56.88 C51.62 56.18, 50.22 57.43, 50.34 56.46 C50.47 55.49, 50.95 59.91, 51.21 51.06 C51.47 42.22, 51.78 12.03, 51.89 3.4 C52 -5.24, 52.69 0.38, 51.85 -0.76 C51.01 -1.91, 48.5 -2.82, 46.85 -3.47 C45.19 -4.13, 45.43 -4.31, 41.93 -4.69 C38.43 -5.07, 30.72 -5.88, 25.88 -5.78 C21.03 -5.67, 16.98 -4.8, 12.87 -4.05 C8.76 -3.31, 3.51 -1.87, 1.2 -1.3 C-1.11 -0.72, -0.64 -1.01, -0.99 -0.61 C-1.35 -0.2, -1.16 0.91, -0.93 1.14 M1.26 1.31 C1.71 9.56, 1.34 40.84, 0.89 49.71 C0.44 58.59, -1.61 53.34, -1.45 54.57 C-1.28 55.81, -0.13 56.41, 1.86 57.13 C3.85 57.84, 6.13 58.28, 10.51 58.87 C14.89 59.47, 23.04 60.6, 28.13 60.7 C33.21 60.81, 37.45 60.27, 41.02 59.5 C44.59 58.73, 47.76 56.76, 49.55 56.09 C51.34 55.43, 51.41 56.42, 51.79 55.52 C52.16 54.61, 51.69 59.23, 51.8 50.64 C51.91 42.04, 52.62 12.63, 52.46 3.95 C52.29 -4.74, 51.79 -0.65, 50.81 -1.48 C49.82 -2.32, 48.06 -0.44, 46.56 -1.06 C45.06 -1.68, 45.1 -4.27, 41.79 -5.19 C38.47 -6.11, 31.88 -6.42, 26.68 -6.58 C21.48 -6.75, 14.51 -6.65, 10.58 -6.18 C6.65 -5.71, 4.7 -4.7, 3.08 -3.76 C1.47 -2.82, 1.25 -0.89, 0.88 -0.54 C0.5 -0.19, 0.82 -1.65, 0.86 -1.66" stroke="#0a11d3" stroke-width="1" fill="none"></path></g></g><g stroke-linecap="round"><g transform="translate(447.2997624114163 392.7789505793826) rotate(0 26.06715130895691 2.632473090028782)"><path d="M-0.85 1.09 C-0.45 1.5, 0.92 1.43, 2.36 1.83 C3.81 2.24, 5.56 2.92, 7.8 3.51 C10.04 4.11, 12.39 5.18, 15.8 5.43 C19.21 5.67, 23.93 4.91, 28.27 4.97 C32.61 5.04, 38.18 6.28, 41.85 5.83 C45.51 5.37, 48.79 3.43, 50.27 2.24 C51.76 1.05, 50.42 -0.83, 50.78 -1.31 M0.9 0.62 C1.23 1.25, 0.87 2.49, 1.94 3.13 C3.01 3.77, 4.92 3.9, 7.34 4.47 C9.76 5.05, 13.12 6.46, 16.45 6.56 C19.78 6.67, 23.44 5.3, 27.32 5.1 C31.21 4.91, 35.8 6.05, 39.77 5.37 C43.73 4.68, 48.93 1.65, 51.14 1 C53.34 0.35, 52.96 1.38, 52.97 1.47" stroke="#0a11d3" stroke-width="1" fill="none"></path></g></g><g stroke-linecap="round"><g transform="translate(446.6603550420722 373.4436159243437) rotate(0 26.058766247429617 3.4361789930157443)"><path d="M1.09 1 C1.35 1.62, 0 2.2, 0.91 2.86 C1.82 3.52, 4.18 4.39, 6.54 4.97 C8.91 5.55, 11.73 6.23, 15.1 6.37 C18.47 6.5, 22.18 5.99, 26.77 5.78 C31.35 5.58, 38.75 5.9, 42.63 5.14 C46.51 4.38, 48.74 1.96, 50.06 1.19 C51.39 0.43, 50.38 0.81, 50.58 0.57 M0.21 0.48 C0.32 0.82, -1.14 0.62, -0.28 1.04 C0.59 1.47, 2.81 2.48, 5.42 3.03 C8.03 3.58, 11.5 3.79, 15.38 4.34 C19.26 4.89, 24.43 6.35, 28.7 6.34 C32.96 6.34, 37.28 4.86, 40.96 4.32 C44.65 3.77, 48.86 3.67, 50.81 3.07 C52.76 2.46, 52.29 1.44, 52.67 0.67" stroke="#0a11d3" stroke-width="1" fill="none"></path></g></g><g stroke-linecap="round" transform="translate(446.00511586777304 349.91869667504943) rotate(0 25.62055676422318 5.181564854201213)"><path d="M12.68 0.34 C16.97 -0.04, 24.27 0.29, 29.77 0.53 C35.26 0.76, 42 0.83, 45.66 1.73 C49.33 2.64, 51.74 4.64, 51.75 5.95 C51.76 7.25, 49.47 8.78, 45.72 9.56 C41.97 10.35, 34.69 10.53, 29.23 10.66 C23.77 10.78, 17.55 10.83, 12.94 10.3 C8.33 9.78, 3.29 8.62, 1.57 7.49 C-0.16 6.37, -0.38 4.85, 2.58 3.54 C5.53 2.23, 15.85 0.09, 19.29 -0.39 C22.74 -0.87, 23.21 0.61, 23.25 0.64 M18.85 1.14 C23.52 1.04, 29.03 1.33, 34.14 1.48 C39.26 1.64, 46.63 1.23, 49.53 2.05 C52.43 2.88, 52.92 5.32, 51.55 6.42 C50.17 7.53, 45.91 8.11, 41.28 8.7 C36.66 9.28, 29.02 9.63, 23.8 9.92 C18.58 10.21, 13.66 11.3, 9.98 10.43 C6.3 9.56, 2.68 5.98, 1.71 4.72 C0.75 3.46, 1.84 3.57, 4.21 2.85 C6.59 2.13, 13.5 0.98, 15.97 0.4 C18.44 -0.18, 18.56 -0.63, 19.03 -0.63" stroke="none" stroke-width="0" fill="#fff"></path><path d="M31.79 0.99 C36.96 1.11, 42.5 1.57, 45.88 2.39 C49.27 3.2, 52.37 4.92, 52.1 5.87 C51.84 6.82, 48.38 7.2, 44.28 8.06 C40.18 8.92, 33.05 10.78, 27.52 11.03 C21.99 11.27, 15.44 10.38, 11.09 9.53 C6.74 8.68, 2.8 7.09, 1.41 5.94 C0.02 4.79, 0.75 3.64, 2.77 2.62 C4.78 1.61, 7.99 0.32, 13.49 -0.14 C18.98 -0.6, 31.6 -0.22, 35.74 -0.14 C39.88 -0.06, 38.54 0.09, 38.32 0.32 M14.5 -0.71 C19.2 -0.91, 28.58 0.08, 34.13 0.72 C39.69 1.36, 44.92 2.47, 47.83 3.12 C50.74 3.76, 52.22 3.71, 51.58 4.56 C50.95 5.41, 47.92 7.02, 44.03 8.19 C40.14 9.37, 33.76 11.61, 28.23 11.64 C22.7 11.66, 15.65 9.18, 10.85 8.33 C6.05 7.48, 0.81 7.46, -0.55 6.52 C-1.91 5.58, 0.26 3.84, 2.68 2.68 C5.11 1.53, 11.68 -0.05, 13.99 -0.43 C16.3 -0.82, 16.27 0.33, 16.55 0.38" stroke="#0a11d3" stroke-width="1" fill="none"></path></g><g stroke-linecap="round" transform="translate(487.8101029772412 364.28584768276005) rotate(0 3.754938187987875 4.075257404840727)"><path d="M3.2 -0.96 C4.14 -0.96, 5.71 0, 6.37 0.76 C7.04 1.52, 6.94 2.59, 7.17 3.6 C7.4 4.6, 7.92 6.1, 7.76 6.77 C7.61 7.44, 7.02 7.3, 6.24 7.63 C5.46 7.95, 3.89 8.88, 3.08 8.71 C2.27 8.54, 1.75 7.32, 1.35 6.61 C0.96 5.9, 0.68 5.22, 0.69 4.45 C0.7 3.68, 1.01 2.82, 1.4 1.97 C1.79 1.11, 2.54 -0.4, 3.02 -0.66 C3.5 -0.91, 4.33 0.39, 4.27 0.46 M4.87 -0.82 C5.94 -0.81, 7.15 1.67, 7.48 2.55 C7.81 3.43, 6.91 3.87, 6.84 4.45 C6.78 5.03, 7.52 5.63, 7.09 6.02 C6.66 6.41, 5.15 6.28, 4.26 6.8 C3.38 7.31, 2.22 9.02, 1.8 9.1 C1.38 9.19, 2.23 8.22, 1.75 7.3 C1.26 6.38, -1.15 4.89, -1.13 3.56 C-1.1 2.23, 1.03 -0.34, 1.91 -0.7 C2.79 -1.05, 3.95 1.21, 4.13 1.43 C4.32 1.64, 3.09 0.68, 3 0.6" stroke="none" stroke-width="0" fill="#fff"></path><path d="M3.54 -0.25 C4.2 -0.39, 4.87 0.82, 5.53 1.26 C6.18 1.71, 7.27 1.95, 7.47 2.43 C7.66 2.92, 6.83 3.4, 6.7 4.17 C6.57 4.94, 7.2 6.35, 6.68 7.08 C6.15 7.81, 4.59 8.44, 3.56 8.53 C2.52 8.62, 1.14 8.42, 0.47 7.61 C-0.19 6.81, -0.36 4.52, -0.45 3.7 C-0.53 2.89, -0.58 3.19, -0.04 2.71 C0.5 2.22, 2.21 1.14, 2.8 0.79 C3.39 0.44, 3.33 0.82, 3.5 0.62 M3.91 1.68 C4.93 2.21, 6.81 2.42, 7.54 3.03 C8.27 3.63, 8.7 4.5, 8.27 5.3 C7.85 6.11, 5.85 7.23, 4.98 7.85 C4.1 8.46, 3.4 9.06, 3 9 C2.61 8.94, 3.27 8.41, 2.6 7.48 C1.94 6.55, -0.66 4.34, -0.99 3.44 C-1.32 2.54, 0.06 2.83, 0.61 2.09 C1.15 1.35, 1.68 -0.88, 2.28 -1 C2.88 -1.12, 3.76 1.25, 4.19 1.37 C4.62 1.5, 4.93 -0.08, 4.88 -0.26" stroke="#0a11d3" stroke-width="1" fill="none"></path></g><g stroke-linecap="round" transform="translate(487.8101029772412 382.1762123637327) rotate(0 3.754938187987875 4.075257404840727)"><path d="M1.59 0.63 C2.41 0.33, 4.11 -0.3, 5.11 0.06 C6.11 0.41, 7.03 1.8, 7.57 2.76 C8.11 3.72, 8.63 5.02, 8.35 5.83 C8.08 6.64, 6.59 7.11, 5.93 7.61 C5.27 8.12, 5.11 8.82, 4.37 8.86 C3.64 8.89, 2.11 8.45, 1.52 7.8 C0.92 7.15, 0.86 6.01, 0.83 4.94 C0.81 3.87, 1.14 2.07, 1.37 1.35 C1.59 0.64, 1.83 1, 2.19 0.64 C2.55 0.29, 3.51 -0.79, 3.53 -0.79 M2.1 1.23 C2.84 0.74, 5.9 -0.44, 6.89 -0.19 C7.88 0.05, 8.01 1.89, 8.03 2.72 C8.05 3.54, 7.59 4.02, 7.02 4.75 C6.45 5.47, 5 6.27, 4.59 7.06 C4.19 7.85, 4.94 9.72, 4.58 9.48 C4.22 9.24, 3.11 6.41, 2.42 5.61 C1.74 4.8, 0.99 5.29, 0.46 4.64 C-0.06 4, -1.36 2.66, -0.71 1.74 C-0.07 0.81, 3.65 -0.58, 4.35 -0.9 C5.04 -1.23, 3.59 -0.6, 3.45 -0.21" stroke="none" stroke-width="0" fill="#fff"></path><path d="M4.53 0.47 C5.41 0.6, 7.35 1.7, 7.87 2.29 C8.39 2.87, 8.05 3.04, 7.64 3.97 C7.22 4.89, 6.06 7.12, 5.38 7.82 C4.7 8.52, 4.17 8.4, 3.58 8.19 C2.99 7.98, 2.3 7.21, 1.81 6.58 C1.33 5.95, 1.03 5.28, 0.66 4.43 C0.3 3.57, -0.8 2.24, -0.37 1.47 C0.06 0.7, 2.2 0.05, 3.27 -0.2 C4.33 -0.46, 5.55 -0.26, 6.01 -0.05 C6.48 0.15, 6.35 0.78, 6.06 1.02 M3.71 0.84 C4.68 0.8, 5.2 1.03, 5.81 1 C6.42 0.98, 7.01 0.21, 7.39 0.69 C7.77 1.16, 8.15 2.58, 8.11 3.85 C8.07 5.13, 7.81 7.8, 7.17 8.34 C6.53 8.88, 5.42 7.26, 4.26 7.1 C3.1 6.95, 0.87 7.81, 0.19 7.42 C-0.49 7.03, 0.35 5.78, 0.18 4.77 C0.01 3.76, -1.36 2.12, -0.83 1.35 C-0.29 0.58, 2.98 0.5, 3.4 0.16 C3.83 -0.17, 1.94 -0.98, 1.72 -0.66" stroke="#0a11d3" stroke-width="1" fill="none"></path></g><g stroke-linecap="round" transform="translate(487.8101029772412 401.62066166618274) rotate(0 3.754938187987875 4.075257404840727)"><path d="M2.84 0.25 C3.55 0.16, 3.97 0.3, 4.77 0.75 C5.56 1.19, 7 2.27, 7.61 2.91 C8.22 3.54, 8.58 3.73, 8.41 4.56 C8.23 5.39, 7.21 7.24, 6.56 7.88 C5.91 8.51, 5.26 8.37, 4.51 8.4 C3.76 8.42, 2.75 8.48, 2.05 8.02 C1.35 7.56, 0.69 6.75, 0.33 5.65 C-0.04 4.55, -0.6 2.28, -0.12 1.43 C0.36 0.58, 2.84 0.87, 3.19 0.55 C3.55 0.24, 2.06 -0.4, 2.01 -0.47 M6.57 1.85 C7.02 2.45, 6.39 2.76, 6.56 3.28 C6.72 3.79, 7.78 4.43, 7.57 4.93 C7.36 5.43, 6.06 5.54, 5.28 6.29 C4.5 7.04, 3.36 9.09, 2.87 9.42 C2.39 9.76, 3.06 9.07, 2.38 8.29 C1.7 7.52, -1.02 6.12, -1.23 4.77 C-1.44 3.41, 0.41 0.7, 1.12 0.16 C1.83 -0.38, 2.47 1.4, 3.02 1.53 C3.58 1.66, 4.11 1.03, 4.44 0.95 C4.78 0.86, 4.73 1.15, 5.02 1.03" stroke="none" stroke-width="0" fill="#fff"></path><path d="M4.13 0.92 C4.81 0.99, 6.15 0.91, 6.59 1.19 C7.03 1.48, 6.59 1.82, 6.77 2.61 C6.94 3.4, 7.95 4.98, 7.65 5.93 C7.35 6.88, 5.98 7.91, 4.98 8.33 C3.99 8.75, 2.52 8.98, 1.69 8.45 C0.85 7.93, 0.36 5.91, -0.02 5.19 C-0.4 4.48, -0.75 4.74, -0.59 4.15 C-0.43 3.56, 0.16 2.23, 0.93 1.64 C1.71 1.05, 3.3 0.96, 4.06 0.6 C4.81 0.24, 5.27 -0.36, 5.44 -0.52 M3.38 1.07 C4.44 0.67, 5.8 0.58, 6.24 0.91 C6.69 1.24, 5.96 2.2, 6.02 3.06 C6.09 3.92, 6.46 5.28, 6.64 6.07 C6.83 6.85, 7.85 7.65, 7.12 7.77 C6.4 7.9, 3.3 6.95, 2.3 6.82 C1.3 6.69, 1.55 7.59, 1.13 6.97 C0.71 6.35, 0 3.81, -0.21 3.11 C-0.43 2.41, -0.64 3.38, -0.15 2.78 C0.33 2.18, 2.37 0.01, 2.7 -0.48 C3.03 -0.97, 1.55 -0.06, 1.83 -0.15" stroke="#0a11d3" stroke-width="1" fill="none"></path></g><g stroke-linecap="round"><g transform="translate(379.4332962522783 352.66900726340555) rotate(0 25.335549484557703 28.373182645270106)" fill-rule="evenodd"><path d="M0.38 -1.64 L0.18 57.78 L11.15 62.32 L26.81 59.33 L43.57 59.78 L52.94 56.98 L53.18 -2.33 L45.11 -5.08 L26.62 -6.91 L6.13 -3.38 L-0.55 1.11" stroke="none" stroke-width="0" fill="#228be6" fill-rule="evenodd"></path><path d="M-0.88 0.09 C-0.87 8.73, -0.05 41.86, -0.02 51.34 C0.01 60.82, -1.34 55.59, -0.71 56.97 C-0.08 58.36, 1.83 59.21, 3.75 59.64 C5.68 60.06, 7.05 59.22, 10.83 59.51 C14.61 59.81, 20.99 61.19, 26.44 61.4 C31.89 61.61, 39.55 61.27, 43.56 60.76 C47.57 60.24, 49.15 59.36, 50.51 58.32 C51.88 57.29, 51.68 55.77, 51.75 54.54 C51.81 53.31, 51.15 59.32, 50.9 50.94 C50.65 42.56, 50.2 12.76, 50.25 4.26 C50.3 -4.25, 51.62 1.26, 51.2 -0.08 C50.77 -1.43, 49.27 -3.22, 47.7 -3.81 C46.13 -4.4, 45.5 -3.51, 41.78 -3.62 C38.06 -3.72, 30.25 -4.28, 25.36 -4.43 C20.46 -4.58, 16.2 -4.96, 12.44 -4.5 C8.68 -4.03, 4.76 -2.41, 2.79 -1.64 C0.82 -0.88, 1.22 -0.23, 0.61 0.1 C-0.01 0.43, -0.77 0.48, -0.91 0.32 M0.86 -0.9 C0.7 7.47, -1.23 40.42, -1.07 49.76 C-0.91 59.1, 1.48 53.81, 1.81 55.13 C2.14 56.44, -0.86 56.97, 0.92 57.67 C2.69 58.37, 8.07 58.87, 12.47 59.33 C16.87 59.79, 22.53 60.38, 27.31 60.44 C32.1 60.5, 37.45 60.05, 41.17 59.7 C44.89 59.34, 48.09 58.87, 49.61 58.3 C51.13 57.72, 49.98 57.55, 50.26 56.25 C50.55 54.94, 51.38 58.95, 51.33 50.45 C51.28 41.96, 50.21 13.74, 49.95 5.26 C49.7 -3.22, 50.16 0.69, 49.81 -0.44 C49.46 -1.58, 49.23 -1.05, 47.85 -1.57 C46.48 -2.09, 45.22 -3.06, 41.56 -3.55 C37.9 -4.04, 30.55 -4.59, 25.89 -4.53 C21.22 -4.47, 17.59 -3.84, 13.58 -3.19 C9.57 -2.54, 4.16 -1.25, 1.84 -0.63 C-0.48 -0.01, -0.19 0.31, -0.35 0.54 C-0.51 0.77, 0.81 0.74, 0.89 0.75" stroke="#0a11d3" stroke-width="1" fill="none"></path></g></g><g stroke-linecap="round"><g transform="translate(379.83513165934846 390.8379791346713) rotate(0 25.453901511273045 2.3200311351563982)"><path d="M0.09 -0.19 C0.58 0.22, 1.05 0.65, 2.39 1.57 C3.74 2.48, 5.87 4.84, 8.17 5.3 C10.46 5.75, 13.16 4.45, 16.16 4.31 C19.16 4.17, 21.92 4.17, 26.17 4.44 C30.42 4.71, 37.63 6.29, 41.67 5.93 C45.71 5.57, 48.65 3.25, 50.4 2.28 C52.16 1.31, 52.2 0.63, 52.22 0.1 M-1.32 -1.34 C-0.86 -0.71, 0.45 1.92, 1.99 2.73 C3.52 3.54, 6 3.18, 7.89 3.53 C9.79 3.89, 10.02 4.74, 13.34 4.86 C16.65 4.99, 22.82 4.18, 27.79 4.29 C32.76 4.4, 39.24 6.05, 43.16 5.52 C47.09 4.98, 49.94 1.99, 51.33 1.06 C52.73 0.13, 51.41 -0.05, 51.51 -0.06" stroke="#0a11d3" stroke-width="1" fill="none"></path></g></g><g stroke-linecap="round"><g transform="translate(379.19572429000436 371.5026444796324) rotate(0 25.116380883912313 2.365960211681056)"><path d="M-0.19 1.03 C0.06 1.55, -0.78 2.51, 0.64 3.22 C2.06 3.94, 6.1 5.15, 8.32 5.33 C10.55 5.5, 11 4.22, 13.98 4.27 C16.97 4.32, 21.44 5.44, 26.23 5.61 C31.02 5.78, 38.75 5.77, 42.73 5.27 C46.7 4.77, 48.56 3.74, 50.1 2.64 C51.64 1.53, 51.84 -0.85, 51.98 -1.35 M-1.75 0.53 C-1.03 0.72, 1.33 1.09, 2.98 1.6 C4.63 2.1, 6.35 3.04, 8.13 3.57 C9.92 4.11, 10.39 4.39, 13.68 4.8 C16.97 5.22, 23.31 6.13, 27.88 6.08 C32.46 6.03, 37.28 5.26, 41.11 4.52 C44.94 3.77, 49.2 2.13, 50.87 1.61 C52.54 1.09, 50.85 1.96, 51.15 1.4" stroke="#0a11d3" stroke-width="1" fill="none"></path></g></g><g stroke-linecap="round" transform="translate(378.5404851157052 347.97772523033814) rotate(0 25.62055676422318 5.181564854201213)"><path d="M32.11 1.09 C37.15 1.4, 43.68 2, 46.95 2.87 C50.22 3.74, 52.24 5.21, 51.72 6.31 C51.19 7.41, 47.76 8.66, 43.8 9.47 C39.85 10.28, 33.41 11.06, 27.99 11.18 C22.58 11.3, 15.96 11.07, 11.32 10.2 C6.67 9.33, 1.52 7.2, 0.13 5.98 C-1.26 4.76, 0.49 3.88, 2.96 2.87 C5.44 1.86, 9.53 0.28, 14.96 -0.08 C20.4 -0.44, 31.87 0.57, 35.55 0.73 C39.23 0.88, 37.11 0.81, 37.04 0.85 M26.95 -0.97 C32.11 -1.24, 39.36 -0.78, 43.23 0.28 C47.11 1.34, 49.86 3.86, 50.21 5.39 C50.55 6.91, 48.32 8.67, 45.3 9.42 C42.27 10.16, 37.31 9.55, 32.06 9.84 C26.81 10.12, 18.63 11.42, 13.81 11.13 C8.99 10.83, 5.31 9.17, 3.11 8.07 C0.92 6.96, -0.7 5.57, 0.62 4.48 C1.94 3.39, 6.39 2.15, 11.04 1.55 C15.69 0.95, 25.91 1.09, 28.51 0.87 C31.1 0.66, 26.73 0.36, 26.6 0.25" stroke="none" stroke-width="0" fill="#fff"></path><path d="M34.53 -0.51 C39.18 -0.31, 44.63 1.7, 47.48 2.91 C50.33 4.12, 52.65 5.61, 51.64 6.75 C50.63 7.9, 45.9 9.34, 41.43 9.79 C36.96 10.24, 30.43 9.59, 24.82 9.45 C19.21 9.31, 12.05 9.54, 7.79 8.95 C3.53 8.35, -0.13 6.97, -0.75 5.89 C-1.38 4.82, 0.96 3.6, 4.05 2.5 C7.14 1.4, 12.06 -0.46, 17.78 -0.71 C23.51 -0.96, 34.72 0.61, 38.38 1.01 C42.04 1.41, 40.05 1.65, 39.76 1.67 M31.93 -0.98 C37.03 -0.97, 43.69 0.71, 46.72 1.84 C49.75 2.98, 50.74 4.74, 50.1 5.82 C49.45 6.91, 46.45 7.69, 42.86 8.35 C39.27 9.01, 33.6 9.68, 28.56 9.79 C23.52 9.9, 17.46 9.37, 12.63 8.99 C7.79 8.62, 1.35 8.31, -0.44 7.53 C-2.23 6.75, -0.61 5.26, 1.87 4.3 C4.36 3.35, 9.68 2.49, 14.47 1.8 C19.26 1.11, 27.93 0.19, 30.59 0.14 C33.25 0.09, 30.54 1.46, 30.43 1.49" stroke="#0a11d3" stroke-width="1" fill="none"></path></g><g stroke-linecap="round" transform="translate(420.34547222517335 362.34487623804876) rotate(0 3.754938187987875 4.075257404840727)"><path d="M5.55 0.22 C6.38 0.56, 6.95 1.53, 7.37 2.28 C7.8 3.03, 8.15 3.85, 8.1 4.72 C8.04 5.58, 7.55 6.77, 7.03 7.46 C6.51 8.15, 5.74 8.97, 4.99 8.87 C4.23 8.76, 3.37 7.37, 2.49 6.82 C1.61 6.28, 0.06 6.36, -0.31 5.59 C-0.68 4.82, -0.03 3.05, 0.28 2.21 C0.59 1.38, 0.68 1.02, 1.57 0.59 C2.46 0.17, 4.88 -0.48, 5.61 -0.33 C6.34 -0.18, 5.99 1.28, 5.93 1.49 M2.35 -0.67 C2.8 -0.78, 3.63 -0.68, 4.56 -0.27 C5.5 0.14, 7.32 0.78, 7.96 1.79 C8.6 2.8, 8.89 4.92, 8.41 5.79 C7.92 6.66, 5.76 6.48, 5.05 7 C4.34 7.51, 4.73 9, 4.14 8.86 C3.54 8.72, 2.04 7.02, 1.47 6.16 C0.9 5.3, 0.66 4.45, 0.7 3.7 C0.74 2.95, 1.1 2.5, 1.69 1.64 C2.27 0.78, 3.9 -1.17, 4.2 -1.45 C4.49 -1.73, 3.66 -0.47, 3.48 -0.04" stroke="none" stroke-width="0" fill="#fff"></path><path d="M4.51 -0.44 C5.08 0.2, 6.76 2.46, 7.31 3.43 C7.86 4.41, 7.98 4.69, 7.81 5.41 C7.65 6.13, 7.24 7.4, 6.34 7.76 C5.45 8.13, 3.34 7.9, 2.44 7.59 C1.55 7.28, 1.39 6.45, 0.98 5.92 C0.58 5.38, 0.07 5.12, 0.04 4.39 C0.01 3.66, 0.51 2.14, 0.82 1.55 C1.14 0.97, 0.99 0.96, 1.91 0.88 C2.83 0.81, 5.49 1, 6.35 1.09 C7.22 1.18, 7.19 1.35, 7.1 1.44 M3.41 0.49 C3.99 0.41, 5.7 0.07, 6.43 0.49 C7.17 0.91, 7.85 1.91, 7.8 3 C7.74 4.09, 6.8 5.95, 6.12 7.02 C5.44 8.09, 4.53 9.56, 3.72 9.4 C2.91 9.24, 1.71 6.81, 1.27 6.08 C0.83 5.34, 1.05 5.57, 1.09 5 C1.13 4.43, 1.13 3.62, 1.5 2.67 C1.86 1.72, 2.77 -0.07, 3.27 -0.7 C3.78 -1.33, 4.12 -1.07, 4.53 -1.12 C4.95 -1.17, 5.83 -1.31, 5.77 -1.03" stroke="#0a11d3" stroke-width="1" fill="none"></path></g><g stroke-linecap="round" transform="translate(420.34547222517335 380.2352409190214) rotate(0 3.754938187987875 4.075257404840727)"><path d="M4.02 0.59 C4.98 0.53, 6.27 1.08, 6.91 1.67 C7.54 2.25, 7.75 3.21, 7.85 4.11 C7.95 5.02, 7.86 6.32, 7.49 7.1 C7.11 7.87, 6.59 8.74, 5.62 8.79 C4.65 8.84, 2.48 7.86, 1.68 7.38 C0.87 6.9, 1.1 6.7, 0.8 5.91 C0.5 5.13, -0.27 3.45, -0.13 2.66 C0.01 1.87, 0.94 1.57, 1.65 1.18 C2.35 0.78, 3.33 0.35, 4.11 0.27 C4.88 0.2, 6.16 0.69, 6.29 0.7 M3.76 -1.21 C4.55 -0.84, 5.27 1, 5.7 2.1 C6.14 3.19, 6.2 4.63, 6.36 5.34 C6.52 6.05, 7.13 5.7, 6.67 6.37 C6.22 7.04, 4.29 9.05, 3.63 9.37 C2.96 9.7, 3.29 8.87, 2.66 8.33 C2.04 7.78, 0.31 6.96, -0.11 6.12 C-0.53 5.27, -0.27 4.07, 0.13 3.28 C0.54 2.49, 1.82 1.88, 2.3 1.37 C2.77 0.85, 2.65 0.45, 2.98 0.19 C3.31 -0.06, 3.95 -0.38, 4.29 -0.15" stroke="none" stroke-width="0" fill="#fff"></path><path d="M4.6 0.56 C5.61 1.12, 7.72 2.06, 8.21 2.93 C8.7 3.8, 7.9 5.15, 7.55 5.76 C7.2 6.37, 6.9 6.2, 6.1 6.58 C5.31 6.97, 3.78 8.01, 2.77 8.06 C1.76 8.11, 0.49 7.5, 0.04 6.89 C-0.42 6.28, -0.05 5.43, 0.05 4.39 C0.15 3.36, 0.04 1.33, 0.64 0.68 C1.24 0.03, 2.66 0.31, 3.67 0.51 C4.69 0.72, 6.14 1.62, 6.73 1.92 C7.32 2.22, 7.22 2.34, 7.2 2.33 M5.14 -0.14 C5.68 0.26, 5.56 1.34, 5.75 2.03 C5.94 2.73, 6.12 3.29, 6.27 4.02 C6.41 4.75, 6.76 5.81, 6.61 6.42 C6.46 7.02, 6.44 7.33, 5.36 7.65 C4.29 7.96, 1.07 8.54, 0.15 8.32 C-0.78 8.1, -0.25 7.13, -0.2 6.34 C-0.14 5.56, 0.28 4.61, 0.48 3.62 C0.68 2.62, 0.49 0.74, 1 0.37 C1.51 -0.01, 3.1 1.46, 3.52 1.38 C3.94 1.3, 3.32 0.1, 3.51 -0.11" stroke="#0a11d3" stroke-width="1" fill="none"></path></g><g stroke-linecap="round" transform="translate(420.34547222517335 399.67969022147145) rotate(0 3.754938187987875 4.075257404840727)"><path d="M3.32 0.77 C3.99 0.54, 5.15 0.38, 5.88 0.73 C6.61 1.08, 7.31 2.01, 7.7 2.86 C8.09 3.71, 8.38 5.16, 8.22 5.81 C8.07 6.46, 7.65 6.29, 6.78 6.74 C5.91 7.19, 3.98 8.51, 3.03 8.52 C2.08 8.53, 1.69 7.43, 1.1 6.78 C0.51 6.14, -0.49 5.61, -0.51 4.67 C-0.53 3.72, 0.31 1.77, 0.98 1.11 C1.65 0.46, 2.97 0.89, 3.5 0.75 C4.02 0.61, 4.19 0.28, 4.14 0.29 M1.04 -0.65 C1.99 -1.09, 4.3 -1.4, 5.49 -0.96 C6.67 -0.53, 7.87 1.15, 8.14 1.96 C8.41 2.76, 7.21 2.88, 7.11 3.87 C7.02 4.86, 7.98 7.25, 7.57 7.91 C7.16 8.57, 5.57 7.94, 4.66 7.82 C3.76 7.7, 2.82 7.61, 2.16 7.2 C1.51 6.79, 0.88 6.42, 0.73 5.34 C0.58 4.26, 0.99 1.58, 1.27 0.72 C1.56 -0.14, 2.31 0.11, 2.44 0.16 C2.57 0.22, 1.86 0.84, 2.04 1.05" stroke="none" stroke-width="0" fill="#fff"></path><path d="M2.29 1.38 C3.19 1.16, 4.34 0.23, 5.18 0.34 C6.02 0.45, 7.09 1.44, 7.33 2.04 C7.56 2.63, 6.75 3.24, 6.59 3.89 C6.43 4.55, 6.76 5.26, 6.35 5.98 C5.94 6.69, 4.89 7.96, 4.11 8.18 C3.34 8.4, 2.52 7.68, 1.7 7.3 C0.88 6.92, -0.66 6.67, -0.82 5.9 C-0.98 5.13, -0.06 3.63, 0.76 2.68 C1.58 1.73, 3.44 0.53, 4.09 0.2 C4.74 -0.14, 4.7 0.54, 4.65 0.67 M3.67 -1.08 C4.68 -1.36, 6.05 -0.94, 6.61 -0.13 C7.17 0.68, 7.1 2.51, 7.06 3.8 C7.02 5.08, 6.81 7.14, 6.35 7.59 C5.9 8.05, 4.88 6.54, 4.36 6.53 C3.83 6.51, 3.64 7.58, 3.19 7.5 C2.73 7.42, 1.93 6.97, 1.63 6.05 C1.32 5.12, 1.39 3.05, 1.37 1.98 C1.35 0.9, 0.85 0.13, 1.49 -0.4 C2.13 -0.92, 4.84 -1.28, 5.2 -1.19 C5.55 -1.1, 3.91 -0.26, 3.63 0.15" stroke="#0a11d3" stroke-width="1" fill="none"></path></g><g stroke-linecap="round" transform="translate(297 202.5) rotate(0 123.5 109.5)"><path d="M0.8 0.34 C55.59 -0.05, 107.9 2.42, 246.11 0.44 M0.52 -0.06 C95.97 -1.2, 190.94 -1.32, 246.43 -0.27 M247.8 1.35 C244.4 73.3, 245.32 148.58, 248.25 217.81 M246.8 0.05 C247.84 65.87, 248.92 131.58, 247.32 219.73 M246.09 220.45 C184.19 220.06, 122.41 219.81, -0.65 218.79 M246.81 219.69 C170.9 218.26, 94.88 219.65, -0.76 218.84 M0.16 218.39 C-0.4 163.7, -0.65 106.91, -0.21 -0.57 M-0.32 218.44 C-0.77 169.29, 0.2 117.28, -0.23 -0.75" stroke="#087f5b" stroke-width="1" fill="none"></path></g><g transform="translate(302 207.5) rotate(0 118.5 13)"><text x="118.5" y="18" font-family="Virgil, Segoe UI Emoji" font-size="20px" fill="#087f5b" text-anchor="middle" style="white-space: pre;" direction="ltr">Combined index</text></g><g stroke-linecap="round" transform="translate(60.631970815099066 338.51158837080243) rotate(0 35.339290345615666 53.625409397054625)"><path d="M0.28 0.77 L70.58 1.81 L72.49 105.91 L-0.05 106.64" stroke="none" stroke-width="0" fill="#fff"></path><path d="M1.04 -1.57 C14.92 1.51, 35.12 1.29, 70.05 1.45 M-0.5 0.78 C23.58 0.83, 46.44 0.59, 71.02 0.24 M69.06 1.43 C70.79 31.24, 69.9 64.18, 69.62 107.5 M70.33 -0.76 C70.06 31.14, 70.04 59.87, 70.4 106.47 M72.13 107.44 C47.54 108.75, 29.32 107.55, 1.81 107.07 M70.12 108 C46.85 108.17, 22.17 107.57, 0.75 108.2 M0.06 107.62 C1.28 79.93, 2.22 54.37, 1.44 -0.34 M0.8 107.3 C-0.1 65.96, -0.02 24.82, 0.94 0.34" stroke="#862e9c" stroke-width="2" fill="none"></path></g><g stroke-linecap="round" transform="translate(53.084537779384846 331.4914990850881) rotate(0 35.339290345615666 53.625409397054625)"><path d="M0.77 -0.1 L72.48 1.81 L69.33 107.2 L-0.61 109.2" stroke="none" stroke-width="0" fill="#fff"></path><path d="M-1.57 -1.73 C20.17 1.44, 38.5 -1, 72.13 0.64 M0.78 0.12 C16.1 -0.13, 31.69 0.7, 70.92 -0.06 M72.11 0.67 C71.2 26.37, 72.63 52.1, 70.92 106.92 M69.92 0.4 C70.86 22.33, 69.17 43.62, 69.9 107.28 M70.86 105.53 C44.16 109.22, 15.56 109.58, -0.18 108.12 M71.43 107.69 C47.91 106.89, 23.63 107.6, 0.95 106.68 M0.37 108 C-0.9 82.04, -0.4 54.87, -0.34 1.63 M0.04 106.97 C-0.45 76.69, -0.68 47.46, 0.34 0.14" stroke="#862e9c" stroke-width="2" fill="none"></path></g><g stroke-linecap="round" transform="translate(43.68944849366949 323.2375928350883) rotate(0 35.339290345615666 53.625409397054625)"><path d="M-0.1 1.81 L72.49 -1.35 L70.63 106.64 L1.95 105.67" stroke="none" stroke-width="0" fill="#fff"></path><path d="M-1.73 1.6 C23.93 1.93, 43.61 2, 71.32 -1.52 M0.12 0.26 C14.97 -0.53, 31.27 -0.31, 70.62 -0.52 M71.35 -0.26 C69.6 41.19, 68.75 80.3, 70.35 105.34 M71.08 0.73 C70.68 25.77, 70.02 52.7, 70.71 108.13 M68.96 108.14 C44.9 107.01, 18.01 107.14, 0.87 107.95 M71.12 108.18 C49.55 108.11, 29.11 108.73, -0.57 106.76 M0.75 105.98 C1.67 77.97, 1.41 49.89, 1.63 -0.34 M-0.28 106.86 C-1.06 73.86, 0.08 42.04, 0.14 0.38" stroke="#862e9c" stroke-width="2" fill="none"></path></g><g stroke-linecap="round"><g transform="translate(55.675875080580454 371.984829882441) rotate(0 22.71629197229734 -1.4059156161137594)"><path d="M-1.04 0.96 C5.77 1.28, 33.63 1.51, 41.51 0.98 C49.38 0.45, 45.29 -1.39, 46.2 -2.22 M0.61 0.42 C7.31 0.49, 33.69 0.05, 41.13 -0.7 C48.57 -1.46, 44.19 -3.67, 45.24 -4.11" stroke="#862e9c" stroke-width="1" fill="none"></path></g></g><g stroke-linecap="round"><g transform="translate(57.53112731859483 340.5195425836025) rotate(0 23.22201356254783 -1.0514560257393555)"><path d="M0.96 1.08 C4.06 0.73, 10.08 -3.01, 17.66 -3.18 C25.24 -3.35, 41.94 -0.26, 46.44 0.06 M0.01 0.61 C3.11 0.51, 9.46 -1.39, 17.14 -1.84 C24.83 -2.29, 41.58 -2.27, 46.13 -2.09" stroke="#862e9c" stroke-width="1" fill="none"></path></g></g><g stroke-linecap="round"><g transform="translate(57.45452780222536 407.91391685395956) rotate(0 23.77780407107568 -0.15993570671321322)"><path d="M1.08 0.83 C5.6 0.77, 19.88 0.52, 26.04 0.61 C32.19 0.71, 34.45 1.93, 38 1.4 C41.56 0.87, 45.48 -2.03, 47.36 -2.57 M0.19 0.21 C4.61 -0.26, 18.68 -1.39, 24.89 -1.05 C31.1 -0.72, 33.74 2.36, 37.44 2.24 C41.14 2.12, 45.29 -1.18, 47.1 -1.78" stroke="#862e9c" stroke-width="1" fill="none"></path></g></g><g stroke-linecap="round"><g transform="translate(54.270480620695025 419.15706526223835) rotate(0 27.17434884083181 -0.5811749598017855)"><path d="M0.83 -0.38 C2.51 -0.69, 8.64 -0.54, 11.03 -0.78 C13.43 -1.02, 9.45 -2.21, 15.22 -1.82 C20.99 -1.43, 39.1 1.58, 45.66 1.55 C52.21 1.52, 53.19 -1.35, 54.55 -1.99 M-0.2 -1.62 C1.31 -1.79, 7.57 -2.81, 10.54 -2.7 C13.51 -2.6, 11.79 -1.38, 17.64 -1.01 C23.48 -0.65, 39.67 -0.45, 45.59 -0.52 C51.51 -0.59, 51.59 -0.97, 53.15 -1.43" stroke="#862e9c" stroke-width="1" fill="none"></path></g></g><g stroke-linecap="round"><g transform="translate(54.55532351626084 355.5801441368636) rotate(0 23.97955576019507 0.3903198475258023)"><path d="M-0.38 0.87 C2.54 0.48, 10.86 -1.57, 18.58 -1.5 C26.3 -1.43, 41.07 0.7, 45.95 1.28 M1.63 0.28 C4.32 -0.06, 10.05 -0.78, 17.83 -0.44 C25.62 -0.11, 43.21 1.68, 48.34 2.28" stroke="#862e9c" stroke-width="1" fill="none"></path></g></g><g stroke-linecap="round"><g transform="translate(54.66281171241121 390.0634731727032) rotate(0 23.627393061403694 0.9661411181164112)"><path d="M0.87 0.38 C1.93 0.52, 4.4 0.46, 7.18 0.45 C9.97 0.45, 10.94 0.05, 17.59 0.35 C24.24 0.64, 42.28 1.94, 47.07 2.2 M-0.14 -0.46 C1.22 -0.17, 6.64 1.65, 9.42 1.48 C12.19 1.3, 10.18 -1.84, 16.51 -1.51 C22.84 -1.18, 42.1 2.83, 47.39 3.46" stroke="#862e9c" stroke-width="1" fill="none"></path></g></g><g transform="translate(10 458) rotate(0 83 26)"><text x="83" y="18" font-family="Virgil, Segoe UI Emoji" font-size="20px" fill="#862e9c" text-anchor="middle" style="white-space: pre;" direction="ltr">Command classes</text><text x="83" y="44" font-family="Virgil, Segoe UI Emoji" font-size="20px" fill="#862e9c" text-anchor="middle" style="white-space: pre;" direction="ltr">with annotations</text></g><g stroke-linecap="round"><g transform="translate(127.00000000000006 380.58478263782183) rotate(0 96.79148566280955 1.0211952450860053)"><path d="M0.07 -0.58 C32.42 -0.33, 162.63 0.67, 194.94 1.18 M-1.36 1.73 C30.77 2.2, 161.02 2.77, 193.96 2.59" stroke="#862e9c" stroke-width="1" fill="none"></path></g><g transform="translate(127.00000000000006 380.58478263782183) rotate(0 96.79148566280955 1.0211952450860053)"><path d="M164.8 12.74 C175.72 7.29, 188.13 5.52, 193.16 2.27 M166.19 13.8 C174.52 10.5, 184.12 7.12, 193.88 3.2" stroke="#862e9c" stroke-width="1" fill="none"></path></g><g transform="translate(127.00000000000006 380.58478263782183) rotate(0 96.79148566280955 1.0211952450860053)"><path d="M164.8 -7.78 C175.67 -5.72, 188.08 0.03, 193.16 2.27 M166.19 -6.72 C174.56 -3.6, 184.16 -0.56, 193.88 3.2" stroke="#862e9c" stroke-width="1" fill="none"></path></g></g><g stroke-linecap="round" transform="translate(897 351) rotate(0 111.5 57)"><path d="M133.57 1.24 C147.02 1.79, 161.27 5.54, 172.94 9.43 C184.62 13.32, 195.75 18.36, 203.64 24.59 C211.53 30.81, 217.57 39.62, 220.29 46.79 C223.01 53.95, 222.83 60.56, 219.97 67.57 C217.12 74.57, 210.78 82.78, 203.17 88.8 C195.56 94.82, 185.84 99.55, 174.3 103.69 C162.76 107.83, 147.89 112.07, 133.93 113.64 C119.98 115.2, 104.51 114.67, 90.6 113.08 C76.68 111.49, 62.41 108.13, 50.43 104.11 C38.46 100.08, 26.89 94.92, 18.76 88.91 C10.63 82.89, 4.48 75.1, 1.67 68 C-1.13 60.9, -0.98 53.45, 1.92 46.31 C4.82 39.17, 11.05 31.18, 19.08 25.14 C27.11 19.09, 38.23 14.1, 50.1 10.06 C61.97 6.02, 73.87 1.9, 90.27 0.92 C106.68 -0.07, 136.46 2.99, 148.54 4.15 C160.63 5.31, 163.35 7.02, 162.79 7.88 M89.88 1.14 C102.81 -1.05, 119.95 -0.17, 133.85 1.46 C147.74 3.09, 161.63 7.06, 173.25 10.94 C184.88 14.81, 195.78 18.88, 203.62 24.73 C211.45 30.58, 217.58 38.6, 220.27 46.04 C222.96 53.49, 222.49 62.42, 219.74 69.37 C217 76.33, 211.41 82.13, 203.8 87.79 C196.19 93.45, 185.99 99.08, 174.09 103.34 C162.2 107.59, 146.49 111.95, 132.43 113.3 C118.36 114.66, 103.34 113, 89.71 111.48 C76.09 109.95, 62.38 107.74, 50.68 104.16 C38.99 100.58, 27.54 96.25, 19.54 90.01 C11.54 83.77, 5.49 73.98, 2.68 66.72 C-0.14 59.45, 0.02 53.19, 2.64 46.43 C5.26 39.67, 10.67 32.38, 18.38 26.16 C26.09 19.94, 36.75 13.14, 48.92 9.11 C61.09 5.09, 84.5 3.26, 91.4 2.03 C98.31 0.81, 90.4 1.19, 90.37 1.78" stroke="#e67700" stroke-width="1" fill="none"></path></g><g transform="translate(902 382) rotate(0 106.5 26)"><text x="106.5" y="18" font-family="Virgil, Segoe UI Emoji" font-size="20px" fill="#e67700" text-anchor="middle" style="white-space: pre;" direction="ltr">ArC</text><text x="106.5" y="44" font-family="Virgil, Segoe UI Emoji" font-size="20px" fill="#e67700" text-anchor="middle" style="white-space: pre;" direction="ltr">CDI implementation</text></g><g stroke-linecap="round" transform="translate(585.5 10) rotate(0 111.5 57)"><path d="M156.65 4.41 C169.52 6.43, 182.26 11.93, 192.22 17.34 C202.17 22.75, 211.38 29.94, 216.37 36.86 C221.36 43.77, 222.83 51.73, 222.15 58.83 C221.46 65.92, 218.01 72.86, 212.27 79.44 C206.52 86.02, 197.75 93.3, 187.68 98.3 C177.6 103.3, 165.03 106.76, 151.82 109.44 C138.61 112.11, 122.88 114.45, 108.44 114.35 C94.01 114.24, 78.09 111.95, 65.21 108.81 C52.32 105.67, 40.66 100.89, 31.12 95.51 C21.59 90.13, 13.18 83.19, 8.01 76.53 C2.84 69.88, -0.22 62.65, 0.11 55.59 C0.44 48.53, 4.2 40.83, 9.98 34.15 C15.75 27.48, 24.61 20.74, 34.76 15.53 C44.91 10.32, 57.49 5.58, 70.86 2.9 C84.23 0.22, 99.89 -1.01, 114.96 -0.54 C130.03 -0.08, 153.03 4.41, 161.28 5.68 C169.53 6.96, 165.26 6.33, 164.46 7.11 M138.38 2.92 C152.04 3.64, 166.44 6.3, 177.81 10.66 C189.18 15.03, 199.13 22.99, 206.58 29.11 C214.03 35.22, 220.32 40.63, 222.51 47.35 C224.7 54.08, 223.17 62.09, 219.72 69.47 C216.26 76.84, 210.47 85.49, 201.78 91.61 C193.08 97.74, 180.08 102.81, 167.53 106.23 C154.98 109.65, 140.42 111.08, 126.49 112.14 C112.56 113.2, 97.72 113.93, 83.94 112.57 C70.16 111.21, 55.38 108.47, 43.81 103.98 C32.25 99.49, 21.85 91.95, 14.55 85.66 C7.26 79.36, 2 73.35, 0.03 66.2 C-1.95 59.05, -0.81 50.09, 2.71 42.77 C6.23 35.44, 12.62 27.8, 21.16 22.24 C29.71 16.68, 41.67 12.92, 53.97 9.39 C66.27 5.86, 80.98 2.37, 94.96 1.04 C108.95 -0.29, 130.66 1.23, 137.87 1.41 C145.08 1.59, 138.32 1.09, 138.22 2.11" stroke="#087f5b" stroke-width="1" fill="none"></path></g><g transform="translate(590.5 41) rotate(0 106.5 26)"><text x="106.5" y="18" font-family="Virgil, Segoe UI Emoji" font-size="20px" fill="#087f5b" text-anchor="middle" style="white-space: pre;" direction="ltr">Most of Quarkus </text><text x="106.5" y="44" font-family="Virgil, Segoe UI Emoji" font-size="20px" fill="#087f5b" text-anchor="middle" style="white-space: pre;" direction="ltr">build steps</text></g><g stroke-linecap="round"><g transform="translate(546.940794184972 201.90693207671035) rotate(0 40.69580351071943 -42.09281957472527)"><path d="M-1.05 0.55 C12.68 -13.53, 68.41 -70.78, 82.44 -84.74 M0.6 -0.2 C14.11 -14.15, 67.56 -69.54, 81.21 -83.72" stroke="#087f5b" stroke-width="1" fill="none"></path></g><g transform="translate(546.940794184972 201.90693207671035) rotate(0 40.69580351071943 -42.09281957472527)"><path d="M69.95 -57.22 C71.16 -64.31, 77.44 -71.04, 80.36 -84.23 M68.19 -55.78 C71.15 -62.84, 74.6 -68.07, 81.43 -83.12" stroke="#087f5b" stroke-width="1" fill="none"></path></g><g transform="translate(546.940794184972 201.90693207671035) rotate(0 40.69580351071943 -42.09281957472527)"><path d="M55.17 -71.46 C60.88 -74.07, 71.67 -76.45, 80.36 -84.23 M53.41 -70.02 C59.64 -73.96, 66.3 -76.08, 81.43 -83.12" stroke="#087f5b" stroke-width="1" fill="none"></path></g></g><g stroke-linecap="round" transform="translate(604 391) rotate(0 43 36.5)"><path d="M-0.05 37.06 C-0.05 37.06, -0.05 37.06, -0.05 37.06 M-0.05 37.06 C-0.05 37.06, -0.05 37.06, -0.05 37.06 M3.23 40.25 C6.76 33.09, 15.11 28.84, 19.38 20.6 M3.41 39.08 C9.77 31.67, 16.16 24.23, 19.88 19.79 M7.95 42.13 C13.87 31.24, 23.71 21.52, 38.79 5.79 M6.74 41.48 C12.83 35.2, 20.28 27.25, 39.3 4.69 M7.96 46.46 C18.22 33.17, 26.38 24.09, 44.86 0.91 M8.9 45.22 C21.35 30.5, 34.17 14.82, 46.89 2.22 M11.9 44.83 C25.59 33.24, 34.3 19.61, 49.91 6.24 M13.61 46.17 C26.82 30.97, 40.39 13.71, 49.41 4.73 M14.61 50.01 C24.19 40.46, 32.8 30.44, 50.49 7.64 M15.9 49.17 C26.81 37.34, 37.95 25.14, 53.02 6.87 M20.68 53.77 C30.87 40.02, 41.48 24.67, 55.59 10.11 M19.21 51.32 C33.45 35.84, 47.74 19.68, 55.04 10.64 M21.47 56.27 C32.05 42.79, 41.04 33.39, 58.26 11.71 M21.94 54.78 C34.94 39.77, 48.47 23.82, 59.16 12.7 M23.35 55.73 C33.47 44.54, 44.69 35.28, 63.2 13.88 M25.34 57.89 C32.8 47.94, 39.73 39.18, 60.54 14.14 M27.37 58.76 C40.53 44.97, 52.76 28.01, 66.39 15.86 M28.67 60.92 C36.09 50.08, 43.56 40.72, 65.07 18.34 M28.87 62.73 C37.54 52.82, 45.68 45.17, 66.72 21.03 M30.4 61.9 C39.73 53.14, 48.62 43.64, 68.52 20.75 M33.07 66.18 C43.53 53.23, 52.79 40.41, 69.63 23.29 M33.37 64.47 C45.64 53.03, 56.09 40.12, 69.73 22.72 M39.41 66.43 C45.96 57.17, 51.59 47.61, 74.71 25.45 M36.65 66.89 C50.38 53.58, 61.69 38.2, 73.82 25.29 M42.51 68.94 C51.05 54.09, 62.96 41.2, 75.33 29.6 M40.14 68.88 C51.42 56.87, 61.5 43.43, 77.34 29.02 M43.74 73.21 C57.13 55.73, 68.22 42.38, 78.28 31.48 M43.61 72.93 C57.51 56.96, 71.53 40.62, 79.51 29.83 M48.24 74.13 C56.31 62.38, 69.45 50.7, 83.38 34.86 M47.36 75.1 C58.36 62.48, 69.95 49.11, 83.33 32.73 M66.88 55.25 C73.47 51.06, 79.94 46.06, 87.11 37.9 M67.69 57.75 C72.58 51.14, 76.31 46.54, 84.86 35.74" stroke="#fd7e14" stroke-width="0.5" fill="none"></path><path d="M43.65 1.01 C51.58 7.81, 62.52 15.41, 85.08 35.35 M43.01 -0.31 C56.79 12.12, 69.8 22.46, 85.44 36.73 M86.99 38.82 C76.35 46.48, 65.33 52.16, 42.88 74.7 M86.01 37.35 C70.24 50.37, 53.34 64.34, 44.89 72.04 M45.17 72.77 C32.29 62.06, 18.59 52.74, -0.34 36.23 M43.91 73.36 C32.22 61.87, 19.74 53.52, -0.57 36.68 M1.76 37.32 C12.14 26.02, 25.44 18.59, 43.67 -0.74 M-0.73 37.01 C15.68 23.8, 30.62 11.09, 43.36 -0.1" stroke="#e67700" stroke-width="1" fill="none"></path></g><g transform="translate(593 470) rotate(0 63.5 26)"><text x="63.5" y="18" font-family="Virgil, Segoe UI Emoji" font-size="20px" fill="#e67700" text-anchor="middle" style="white-space: pre;" direction="ltr">Annotations</text><text x="63.5" y="44" font-family="Virgil, Segoe UI Emoji" font-size="20px" fill="#e67700" text-anchor="middle" style="white-space: pre;" direction="ltr">transformers</text></g><g stroke-linecap="round"><g transform="translate(750.2658773697417 368.14798588518) rotate(0 44.117745304369976 47.90626706323667)" fill-rule="evenodd"><path d="M0.12 1.31 L0.5 94.84 L-0.3 98.64 L20.4 102.02 L45.59 106.29 L74.19 104.01 L81.62 101.44 L87.99 98.09 L89.21 -3.24 L87.09 -1.09 L84.04 -2.07 L78.76 -5.34 L43.13 -8.9 L12.5 -4.97 L4.65 -1.96 L-0.46 -0.21" stroke="none" stroke-width="0" fill="#fab005" fill-rule="evenodd"></path><path d="M-0.84 1.12 C-0.63 15.65, 0.4 71.01, 0.5 86.63 C0.61 102.26, -0.85 92.78, -0.21 94.86 C0.42 96.95, 0.89 97.55, 4.32 99.14 C7.75 100.73, 13.04 103.51, 20.35 104.39 C27.65 105.27, 39.4 104.69, 48.13 104.41 C56.87 104.14, 66.63 103.75, 72.75 102.72 C78.88 101.7, 82.23 99.52, 84.87 98.25 C87.51 96.98, 87.96 96.87, 88.59 95.1 C89.21 93.33, 88.53 102.42, 88.6 87.61 C88.66 72.8, 89.21 20.7, 89 6.22 C88.78 -8.26, 88.34 2.51, 87.3 0.74 C86.26 -1.04, 85.79 -3.2, 82.76 -4.44 C79.72 -5.69, 75.81 -5.99, 69.09 -6.72 C62.36 -7.45, 50.57 -8.81, 42.42 -8.82 C34.26 -8.84, 26.41 -7.59, 20.17 -6.8 C13.93 -6.02, 8.48 -5.05, 4.97 -4.12 C1.47 -3.19, 0.1 -1.75, -0.83 -1.21 C-1.76 -0.67, -0.6 -1.24, -0.59 -0.89 M0.92 0.67 C1.06 14.89, 0 68.99, -0.34 84.82 C-0.67 100.65, -1.89 93.17, -1.1 95.66 C-0.3 98.15, 1.12 98.17, 4.45 99.75 C7.78 101.33, 11.88 104.58, 18.89 105.16 C25.9 105.73, 37.38 103.83, 46.49 103.18 C55.6 102.53, 66.81 102.15, 73.55 101.23 C80.29 100.31, 84.63 98.91, 86.91 97.65 C89.2 96.39, 86.83 95.41, 87.27 93.69 C87.72 91.97, 89.77 101.84, 89.59 87.34 C89.41 72.84, 86.84 21.09, 86.2 6.68 C85.57 -7.73, 86.24 2.86, 85.79 0.88 C85.34 -1.1, 85.84 -3.93, 83.48 -5.2 C81.12 -6.47, 78.44 -6.08, 71.62 -6.76 C64.81 -7.43, 51.06 -8.93, 42.59 -9.25 C34.12 -9.56, 27.19 -9.61, 20.81 -8.66 C14.44 -7.72, 7.63 -4.8, 4.35 -3.6 C1.07 -2.4, 1.63 -1.86, 1.13 -1.45 C0.64 -1.03, 1.67 -1.27, 1.37 -1.11" stroke="#e67700" stroke-width="1" fill="none"></path></g></g><g stroke-linecap="round"><g transform="translate(750.9532389592387 433.4381139159676) rotate(0 44.033822729696055 4.894674941966912)"><path d="M1.12 0.21 C1.7 0.96, 1.2 2.55, 2.91 3.68 C4.62 4.8, 7.73 6.04, 11.37 6.96 C15.01 7.88, 18.77 8.6, 24.77 9.2 C30.77 9.79, 39.7 10.63, 47.35 10.5 C55 10.36, 64.39 9.74, 70.67 8.38 C76.95 7.02, 82.16 3.72, 85.01 2.36 C87.87 1.01, 87.27 0.63, 87.82 0.23 M0.25 -0.72 C0.77 0.29, 0.02 3.62, 2.27 5.1 C4.51 6.58, 10.04 7.29, 13.75 8.16 C17.46 9.03, 19.1 10.37, 24.52 10.31 C29.94 10.26, 38.36 8.3, 46.26 7.83 C54.15 7.36, 65.34 8.12, 71.89 7.5 C78.43 6.87, 83.07 5.3, 85.51 4.09 C87.95 2.88, 86.36 1.13, 86.53 0.25" stroke="#e67700" stroke-width="1" fill="none"></path></g></g><g stroke-linecap="round"><g transform="translate(749.8594974471775 400.3639593538959) rotate(0 43.92785611549067 4.568975918756166)"><path d="M0.21 0.58 C0.7 0.88, 0.11 1.97, 2.1 2.92 C4.09 3.86, 8.2 5.08, 12.14 6.24 C16.08 7.4, 19.8 9.43, 25.74 9.89 C31.68 10.35, 40.18 9.33, 47.78 8.98 C55.38 8.63, 65.27 8.81, 71.33 7.81 C77.4 6.81, 81.22 4.38, 84.17 3 C87.11 1.61, 88.23 0.02, 88.99 -0.5 M-1.14 -0.16 C-0.75 0.77, -1.03 2.73, 1.03 3.94 C3.1 5.14, 7.09 6.43, 11.25 7.06 C15.41 7.69, 20.06 7.36, 26 7.71 C31.94 8.06, 39.7 9.36, 46.91 9.18 C54.12 9, 63.02 7.31, 69.24 6.62 C75.46 5.94, 81.04 6.3, 84.22 5.05 C87.4 3.8, 87.82 0.19, 88.33 -0.87" stroke="#e67700" stroke-width="1" fill="none"></path></g></g><g stroke-linecap="round" transform="translate(748.7386747610155 360.1232896580833) rotate(0 43.825373054270926 8.863351988406805)"><path d="M51.68 0.22 C60.54 0.46, 71.99 2.06, 78.06 3.64 C84.13 5.23, 88.24 7.93, 88.09 9.73 C87.94 11.54, 83.42 13.15, 77.15 14.46 C70.87 15.78, 59.77 17.26, 50.45 17.61 C41.13 17.96, 29.05 17.57, 21.23 16.55 C13.4 15.53, 6.69 13.29, 3.48 11.5 C0.27 9.71, -1.19 7.47, 1.96 5.82 C5.11 4.17, 13.6 2.41, 22.37 1.6 C31.14 0.8, 48.84 1.16, 54.58 0.98 C60.31 0.8, 57.01 0.36, 56.79 0.51 M48.93 0.74 C57.94 0.45, 69.71 0.24, 76.16 1.65 C82.61 3.06, 86.94 7.19, 87.62 9.2 C88.31 11.21, 86 12.26, 80.28 13.72 C74.57 15.18, 62.5 17.25, 53.34 17.97 C44.17 18.68, 33.28 18.72, 25.3 18 C17.31 17.28, 9.13 15.65, 5.42 13.63 C1.7 11.62, 0.96 7.71, 3.01 5.92 C5.05 4.14, 10.07 3.74, 17.68 2.91 C25.29 2.07, 43.56 1.45, 48.68 0.92 C53.8 0.4, 48.79 -0.41, 48.42 -0.25" stroke="none" stroke-width="0" fill="#fff"></path><path d="M26.3 1.34 C34.44 0.6, 48.11 -0.34, 57.16 0.05 C66.2 0.45, 75.69 2.16, 80.58 3.73 C85.46 5.29, 87.43 7.52, 86.44 9.44 C85.45 11.36, 81.2 13.81, 74.62 15.24 C68.03 16.67, 56.26 18.01, 46.93 18 C37.61 17.99, 26.33 16.19, 18.68 15.16 C11.04 14.14, 3.3 13.54, 1.08 11.85 C-1.15 10.16, 0.3 6.91, 5.35 5.03 C10.41 3.15, 25.97 1.33, 31.4 0.57 C36.84 -0.19, 37.77 0.22, 37.97 0.46 M63.38 0.35 C71.38 1.12, 79.68 2.79, 83.52 4.69 C87.36 6.6, 89.09 9.74, 86.44 11.79 C83.79 13.83, 75.91 16.21, 67.62 16.99 C59.33 17.76, 46.11 16.81, 36.7 16.45 C27.28 16.08, 17.47 16.19, 11.15 14.79 C4.84 13.38, -1.15 9.73, -1.22 8.03 C-1.29 6.34, 4.53 5.83, 10.72 4.63 C16.91 3.44, 26.87 1.43, 35.94 0.86 C45.01 0.3, 60.31 1.04, 65.17 1.24 C70.02 1.45, 65.74 2.05, 65.1 2.1" stroke="#e67700" stroke-width="1" fill="none"></path></g><g stroke-linecap="round" transform="translate(820.2484070615965 384.6990925352169) rotate(0 6.423028523489847 6.97095218120802)"><path d="M8.95 1.16 C10.22 1.65, 11.81 2.99, 12.58 4.17 C13.35 5.35, 13.95 7, 13.56 8.23 C13.17 9.45, 11.48 10.69, 10.25 11.53 C9.02 12.38, 7.54 13.04, 6.18 13.28 C4.83 13.52, 3.2 13.99, 2.12 12.97 C1.03 11.96, -0.14 8.76, -0.33 7.21 C-0.52 5.66, 0.12 4.76, 0.99 3.67 C1.86 2.59, 3.33 1.14, 4.89 0.71 C6.45 0.27, 9.46 0.93, 10.33 1.08 C11.21 1.23, 10.2 1.5, 10.16 1.61 M8.37 1.19 C9.32 1.25, 9.51 1.59, 10.43 2.71 C11.34 3.83, 13.78 6.68, 13.87 7.92 C13.96 9.15, 11.95 9.08, 10.96 10.13 C9.97 11.19, 9.04 13.51, 7.92 14.23 C6.8 14.94, 5.32 15.02, 4.24 14.42 C3.16 13.82, 2.17 12.51, 1.44 10.62 C0.71 8.73, -0.67 4.62, -0.13 3.1 C0.41 1.58, 3.23 1.9, 4.68 1.48 C6.13 1.06, 8.14 0.98, 8.55 0.58 C8.97 0.17, 7.19 -0.77, 7.18 -0.92" stroke="none" stroke-width="0" fill="#fff"></path><path d="M6.42 0.99 C7.8 0.81, 8.77 0.95, 9.77 1.48 C10.76 2.02, 12.04 2.69, 12.39 4.19 C12.73 5.68, 12.39 8.88, 11.85 10.45 C11.31 12.02, 10.26 12.94, 9.13 13.63 C8.01 14.31, 6.55 15.04, 5.09 14.58 C3.63 14.12, 1.05 12.08, 0.35 10.85 C-0.34 9.62, 0.65 8.76, 0.92 7.19 C1.19 5.61, 1.05 2.64, 1.96 1.4 C2.87 0.16, 5.61 0.08, 6.4 -0.24 C7.19 -0.55, 6.59 -0.81, 6.7 -0.48 M4.53 -1 C5.81 -0.92, 7.32 0.91, 8.66 2 C9.99 3.08, 11.81 4.4, 12.54 5.53 C13.26 6.65, 13.7 7.48, 13.03 8.76 C12.36 10.04, 9.76 12.56, 8.49 13.2 C7.22 13.85, 6.75 12.71, 5.41 12.61 C4.08 12.51, 1.17 13.42, 0.49 12.62 C-0.2 11.81, 1.02 9.4, 1.3 7.77 C1.58 6.14, 1.48 4.03, 2.17 2.87 C2.85 1.7, 4.76 1.48, 5.43 0.81 C6.09 0.13, 6.21 -1.11, 6.15 -1.2" stroke="#e67700" stroke-width="1" fill="none"></path></g><g stroke-linecap="round" transform="translate(820.2484070615965 415.30154639427735) rotate(0 6.423028523489847 6.97095218120802)"><path d="M8 0.55 C9.34 0.8, 10.89 2.18, 11.66 3.2 C12.43 4.23, 12.81 5.32, 12.61 6.67 C12.42 8.03, 11.43 10.13, 10.5 11.32 C9.58 12.51, 8.11 13.58, 7.06 13.82 C6.01 14.05, 5.43 13.43, 4.22 12.71 C3 12, 0.33 10.79, -0.25 9.53 C-0.82 8.28, 0.14 6.49, 0.76 5.19 C1.37 3.89, 2.05 2.54, 3.43 1.76 C4.82 0.98, 7.94 0.39, 9.09 0.49 C10.24 0.59, 10.37 2.18, 10.34 2.36 M9.71 -0.57 C10.84 -0.1, 11.47 3.13, 12.11 4.54 C12.75 5.96, 14.04 6.54, 13.54 7.93 C13.04 9.31, 10.22 11.66, 9.09 12.86 C7.96 14.05, 7.64 15, 6.75 15.08 C5.86 15.17, 4.63 14.64, 3.75 13.38 C2.87 12.13, 2.2 9.01, 1.5 7.58 C0.79 6.15, -1.04 5.85, -0.47 4.8 C0.09 3.75, 3.29 2.09, 4.88 1.29 C6.48 0.48, 8.68 -0.07, 9.1 -0.03 C9.52 0, 7.73 1.4, 7.42 1.52" stroke="none" stroke-width="0" fill="#fff"></path><path d="M4.93 0.22 C6.14 -0.54, 7.61 -0.34, 8.6 0.09 C9.6 0.52, 10.11 1.52, 10.9 2.82 C11.7 4.11, 13.33 6.24, 13.36 7.84 C13.4 9.44, 12.08 11.52, 11.12 12.4 C10.15 13.28, 9.03 12.93, 7.57 13.1 C6.11 13.27, 3.46 14.15, 2.36 13.4 C1.25 12.65, 1.32 10.15, 0.93 8.58 C0.55 7.02, -0.49 5.34, 0.06 4 C0.61 2.66, 3.51 1.01, 4.23 0.54 C4.96 0.07, 4.17 1.16, 4.41 1.18 M3.25 -0.57 C4.88 -0.98, 8.21 -0.23, 9.84 0.57 C11.47 1.36, 12.65 3.08, 13.04 4.18 C13.43 5.28, 12.56 5.77, 12.17 7.15 C11.77 8.54, 11.84 11.52, 10.66 12.48 C9.47 13.43, 6.27 12.73, 5.05 12.9 C3.82 13.07, 4.02 14.21, 3.32 13.51 C2.61 12.81, 1.17 10.38, 0.83 8.72 C0.49 7.05, 0.57 4.76, 1.28 3.51 C1.98 2.26, 4.77 1.78, 5.05 1.23 C5.33 0.68, 3.13 0.4, 2.95 0.2" stroke="#e67700" stroke-width="1" fill="none"></path></g><g stroke-linecap="round" transform="translate(820.2484070615965 448.56234756877404) rotate(0 6.423028523489847 6.97095218120802)"><path d="M7.57 0.48 C9.01 0.39, 11.05 1.06, 11.91 1.9 C12.77 2.74, 12.77 4.11, 12.73 5.53 C12.68 6.95, 12.43 8.9, 11.64 10.41 C10.85 11.92, 9.4 14.23, 7.99 14.58 C6.59 14.94, 4.46 13.26, 3.22 12.54 C1.98 11.81, 0.98 11.42, 0.55 10.23 C0.13 9.05, 0.17 6.91, 0.67 5.43 C1.17 3.95, 2.26 2.18, 3.56 1.35 C4.85 0.52, 7.27 0.46, 8.43 0.45 C9.59 0.45, 10.49 1.13, 10.53 1.34 M7.26 0.4 C8.59 0.67, 11.93 2.94, 12.81 3.93 C13.68 4.92, 12.75 4.93, 12.51 6.34 C12.27 7.76, 12.12 10.89, 11.35 12.41 C10.59 13.92, 9.22 15.15, 7.94 15.41 C6.67 15.68, 5.08 15.33, 3.69 13.97 C2.3 12.61, -0.11 8.82, -0.39 7.23 C-0.67 5.65, 1.17 5.51, 2.03 4.47 C2.89 3.43, 3.79 1.91, 4.75 1.02 C5.71 0.12, 7.06 -0.61, 7.79 -0.9 C8.53 -1.2, 9.2 -1.21, 9.17 -0.76" stroke="none" stroke-width="0" fill="#fff"></path><path d="M6.19 0.25 C7.36 -0.14, 9.35 -0.28, 10.38 0.75 C11.41 1.77, 12.1 4.72, 12.35 6.41 C12.61 8.1, 12.49 9.55, 11.91 10.88 C11.32 12.22, 10.27 14.01, 8.84 14.41 C7.41 14.82, 4.51 13.88, 3.32 13.34 C2.14 12.8, 2.24 12.56, 1.72 11.17 C1.21 9.78, 0.07 6.65, 0.22 5.01 C0.36 3.37, 1.46 2.27, 2.6 1.33 C3.74 0.4, 6.16 -0.58, 7.07 -0.61 C7.98 -0.63, 8.17 1.08, 8.06 1.19 M2.5 1.88 C3.76 1.49, 6.3 1.1, 7.89 1.14 C9.48 1.19, 11.44 1.11, 12.07 2.16 C12.7 3.22, 11.8 6.1, 11.66 7.48 C11.52 8.86, 12.14 9.18, 11.23 10.44 C10.33 11.69, 7.39 14.48, 6.23 15.01 C5.08 15.54, 5.16 14.54, 4.29 13.61 C3.41 12.68, 1.6 10.86, 0.99 9.42 C0.38 7.99, 0.09 6.69, 0.64 5.01 C1.2 3.33, 3.88 0.12, 4.31 -0.66 C4.74 -1.43, 3.47 -0.08, 3.21 0.36" stroke="#e67700" stroke-width="1" fill="none"></path></g><g stroke-linecap="round"><g transform="translate(537 456) rotate(0 34.89178626164795 -13.231769435321894)"><path d="M-1.03 -0.67 C10.79 -5.01, 58.81 -21.86, 70.81 -26.3 M0.63 1.6 C12.37 -3.07, 58.61 -23.44, 70.29 -28.06" stroke="#e67700" stroke-width="1" fill="none"></path></g><g transform="translate(537 456) rotate(0 34.89178626164795 -13.231769435321894)"><path d="M47.18 -6.31 C55.88 -11.78, 60.59 -19.19, 68.77 -28.75 M48.91 -8.05 C54.07 -14.26, 59.83 -19.78, 71.23 -27.29" stroke="#e67700" stroke-width="1" fill="none"></path></g><g transform="translate(537 456) rotate(0 34.89178626164795 -13.231769435321894)"><path d="M39.22 -25.23 C50.2 -25.13, 57.22 -27.05, 68.77 -28.75 M40.95 -26.96 C48.27 -28.05, 56.22 -28.38, 71.23 -27.29" stroke="#e67700" stroke-width="1" fill="none"></path></g></g><g stroke-linecap="round"><g transform="translate(688 427) rotate(0 30.43517983829139 0.5128480271942522)"><path d="M0.58 0.61 C10.67 0.74, 51.43 1.54, 61.45 1.49 M-0.58 -0.12 C9.32 -0.41, 50.69 -0.6, 60.73 -0.37" stroke="#e67700" stroke-width="1" fill="none"></path></g><g transform="translate(688 427) rotate(0 30.43517983829139 0.5128480271942522)"><path d="M33.48 10.45 C43.84 5.21, 52.44 3.66, 60.88 -1.04 M32.19 9.78 C43.11 6.47, 54.88 2.34, 59.94 -0.88" stroke="#e67700" stroke-width="1" fill="none"></path></g><g transform="translate(688 427) rotate(0 30.43517983829139 0.5128480271942522)"><path d="M33.62 -10.07 C44.03 -7.62, 52.59 -1.47, 60.88 -1.04 M32.33 -10.74 C43.26 -6.25, 54.99 -2.56, 59.94 -0.88" stroke="#e67700" stroke-width="1" fill="none"></path></g></g><g stroke-linecap="round"><g transform="translate(831 420) rotate(0 34.237612808379254 -3.042126720654778)"><path d="M0.33 -1.12 C11.97 -2.31, 57.77 -6.28, 69.44 -7 M-0.96 0.91 C10.51 -0.18, 56.41 -4.59, 68.19 -5.98" stroke="#e67700" stroke-width="1" fill="none"></path></g><g transform="translate(831 420) rotate(0 34.237612808379254 -3.042126720654778)"><path d="M39.37 6.24 C46.66 4.22, 56.39 2.12, 69.22 -5.97 M40.52 7.27 C51.73 1.71, 61.58 -1.77, 69.03 -5.03" stroke="#e67700" stroke-width="1" fill="none"></path></g><g transform="translate(831 420) rotate(0 34.237612808379254 -3.042126720654778)"><path d="M37.22 -14.16 C45.11 -10.81, 55.4 -7.53, 69.22 -5.97 M38.36 -13.14 C50.44 -10.89, 61.12 -6.58, 69.03 -5.03" stroke="#e67700" stroke-width="1" fill="none"></path></g></g><g transform="translate(730 297) rotate(0 61.5 26)"><text x="61.5" y="18" font-family="Virgil, Segoe UI Emoji" font-size="20px" fill="#e67700" text-anchor="middle" style="white-space: pre;" direction="ltr">Transformed</text><text x="61.5" y="44" font-family="Virgil, Segoe UI Emoji" font-size="20px" fill="#e67700" text-anchor="middle" style="white-space: pre;" direction="ltr">index view</text></g><g stroke-linecap="round" transform="translate(36.77960290751406 33.046533961644855) rotate(0 111.50000000000003 57)"><path d="M67.81 4.97 C79.76 1.43, 96.19 0.93, 110.13 0.71 C124.06 0.49, 138.43 1.01, 151.42 3.66 C164.4 6.31, 177.59 11.65, 188.05 16.59 C198.51 21.53, 208.36 26.83, 214.17 33.29 C219.98 39.75, 222.7 48.04, 222.93 55.38 C223.16 62.71, 220.71 70.3, 215.53 77.31 C210.35 84.32, 201.66 92.14, 191.87 97.44 C182.09 102.74, 169.78 106.4, 156.81 109.09 C143.84 111.77, 128.56 113.23, 114.04 113.53 C99.53 113.83, 83.08 113.34, 69.72 110.87 C56.36 108.4, 43.85 103.75, 33.9 98.7 C23.95 93.65, 15.59 87.31, 10 80.58 C4.41 73.84, 0.67 65.71, 0.36 58.29 C0.05 50.86, 2.95 42.67, 8.15 36.02 C13.35 29.37, 19.58 24.06, 31.54 18.4 C43.51 12.74, 69.43 4.79, 79.93 2.06 C90.43 -0.68, 93.98 1.04, 94.55 2 M110.72 -1.39 C124.06 -2.16, 139.33 2.67, 152.62 5.67 C165.9 8.67, 180.2 11.74, 190.42 16.6 C200.64 21.47, 208.5 28.13, 213.95 34.86 C219.39 41.58, 223.04 49.51, 223.06 56.95 C223.09 64.39, 219.62 72.75, 214.08 79.49 C208.53 86.23, 199.78 92.65, 189.8 97.4 C179.81 102.16, 167.04 105.06, 154.17 108.03 C141.3 111.01, 126.81 115.03, 112.6 115.27 C98.38 115.51, 81.96 112.32, 68.91 109.48 C55.85 106.65, 44.25 103.17, 34.25 98.27 C24.25 93.36, 14.57 87.01, 8.93 80.02 C3.28 73.03, 0.46 63.81, 0.39 56.32 C0.33 48.84, 3.22 41.86, 8.54 35.14 C13.87 28.42, 22.46 21, 32.35 15.99 C42.25 10.98, 55 7.65, 67.9 5.09 C80.81 2.52, 102.76 1.13, 109.79 0.59 C116.81 0.06, 109.75 1.04, 110.07 1.89" stroke="#c92a2a" stroke-width="1" fill="none"></path></g><g transform="translate(41.77960290751406 64.04653396164485) rotate(0 106.50000000000003 26)"><text x="106.5" y="18" font-family="Virgil, Segoe UI Emoji" font-size="20px" fill="#c92a2a" text-anchor="middle" style="white-space: pre;" direction="ltr">Airline</text><text x="106.5" y="44" font-family="Virgil, Segoe UI Emoji" font-size="20px" fill="#c92a2a" text-anchor="middle" style="white-space: pre;" direction="ltr">via reflection</text></g><g stroke-linecap="round"><g transform="translate(77.22039709248583 316.95346603835515) rotate(0 29.086910172381636 -81.34181050228182)"><path d="M-0.98 -1.08 C2.06 -19.06, 8.13 -79.99, 18.16 -106.76 C28.18 -133.52, 52.23 -152.22, 59.16 -161.68 M0.7 0.97 C3.65 -16.82, 7.95 -80.95, 17.59 -108.39 C27.23 -135.83, 51.41 -154.55, 58.54 -163.65" stroke="#c92a2a" stroke-width="1" fill="none"></path></g><g transform="translate(77.22039709248583 316.95346603835515) rotate(0 29.086910172381636 -81.34181050228182)"><path d="M44.85 -134.92 C51.42 -143.58, 54.5 -150.69, 56.67 -164.26 M45.67 -136.17 C48.36 -141.69, 50.92 -147.62, 59.39 -162.81" stroke="#c92a2a" stroke-width="1" fill="none"></path></g><g transform="translate(77.22039709248583 316.95346603835515) rotate(0 29.086910172381636 -81.34181050228182)"><path d="M29.93 -149.01 C40.99 -153.43, 48.43 -156.43, 56.67 -164.26 M30.75 -150.26 C36.68 -152.87, 42.38 -155.83, 59.39 -162.81" stroke="#c92a2a" stroke-width="1" fill="none"></path></g></g></svg>