<?xml version="1.0" encoding="UTF-8"?><svg xmlns="http://www.w3.org/2000/svg" xmlns:xlink="http://www.w3.org/1999/xlink" fill-opacity="1" color-rendering="auto" color-interpolation="auto" text-rendering="auto" stroke="black" stroke-linecap="square" width="725" stroke-miterlimit="10" shape-rendering="auto" stroke-opacity="1" fill="black" stroke-dasharray="none" font-weight="normal" stroke-width="1" height="548" font-family="'Dialog'" font-style="normal" stroke-linejoin="miter" font-size="12px" stroke-dashoffset="0" image-rendering="auto">
  <!--Generated by ySVG 2.6-->
  <defs id="genericDefs"/>
  <g>
    <defs id="defs1">
      <clipPath clipPathUnits="userSpaceOnUse" id="clipPath1">
        <path d="M0 0 L725 0 L725 548 L0 548 L0 0 Z"/>
      </clipPath>
      <clipPath clipPathUnits="userSpaceOnUse" id="clipPath2">
        <path d="M26 248 L751 248 L751 796 L26 796 L26 248 Z"/>
      </clipPath>
    </defs>
    <g stroke-linecap="butt" transform="matrix(1,0,0,1,-26,-248)" fill="navy" text-rendering="geometricPrecision" shape-rendering="geometricPrecision" stroke="navy" stroke-miterlimit="1.45">
      <rect fill="none" x="42" width="694" height="492.6" y="288.0406" clip-path="url(#clipPath2)"/>
    </g>
    <g text-rendering="geometricPrecision" stroke-miterlimit="1.45" shape-rendering="geometricPrecision" font-family="sans-serif" transform="matrix(1,0,0,1,-26,-248)" stroke-linecap="butt">
      <text x="248.017" xml:space="preserve" y="278.5246" clip-path="url(#clipPath2)" stroke="none">Traditional/Classic Workflow without CDS archives</text>
      <rect x="105" y="333.0406" clip-path="url(#clipPath2)" fill="none" width="566" height="165" stroke="navy"/>
      <text x="212.9787" xml:space="preserve" y="323.5246" clip-path="url(#clipPath2)" stroke="none">Translate App and JDK runtime source code class to ByteCode </text>
      <rect x="105" y="540.5406" clip-path="url(#clipPath2)" fill="none" width="566" height="177" stroke="navy"/>
      <text x="364.0778" xml:space="preserve" y="531.0246" clip-path="url(#clipPath2)" stroke="none">Run App</text>
    </g>
    <g fill="rgb(153,204,255)" text-rendering="geometricPrecision" shape-rendering="geometricPrecision" transform="matrix(1,0,0,1,-26,-248)" stroke="rgb(153,204,255)">
      <rect x="330.5" width="129" height="66.322" y="389.8796" clip-path="url(#clipPath2)" stroke="none"/>
    </g>
    <g stroke-linecap="butt" transform="matrix(1,0,0,1,-26,-248)" fill="navy" text-rendering="geometricPrecision" shape-rendering="geometricPrecision" stroke="navy" stroke-miterlimit="1.45">
      <rect fill="none" x="330.5" width="129" height="66.322" y="389.8796" clip-path="url(#clipPath2)"/>
      <text x="371.7978" y="419.5246" clip-path="url(#clipPath2)" fill="black" font-family="sans-serif" stroke="none" xml:space="preserve">Compile</text>
      <text x="361.2558" y="435.8687" clip-path="url(#clipPath2)" fill="black" font-family="sans-serif" stroke="none" xml:space="preserve">(static code)</text>
    </g>
    <g fill="rgb(127,191,255)" text-rendering="geometricPrecision" shape-rendering="geometricPrecision" transform="matrix(1,0,0,1,-26,-248)" stroke="rgb(127,191,255)">
      <path d="M503 377.5406 L619.1 377.5406 L632 423.0406 L619.1 468.5406 L503 468.5406 L515.9 423.0406 Z" fill-rule="evenodd" clip-path="url(#clipPath2)" stroke="none"/>
    </g>
    <g stroke-linecap="butt" transform="matrix(1,0,0,1,-26,-248)" fill="navy" text-rendering="geometricPrecision" shape-rendering="geometricPrecision" stroke="navy" stroke-miterlimit="1.45">
      <path fill="none" d="M503 377.5406 L619.1 377.5406 L632 423.0406 L619.1 468.5406 L503 468.5406 L515.9 423.0406 Z" fill-rule="evenodd" clip-path="url(#clipPath2)"/>
      <text x="540.4938" y="419.5246" clip-path="url(#clipPath2)" fill="black" font-family="sans-serif" stroke="none" xml:space="preserve">ByteCode</text>
      <text x="554.6959" y="435.8687" clip-path="url(#clipPath2)" fill="black" font-family="sans-serif" stroke="none" xml:space="preserve">(JAR)</text>
    </g>
    <g fill="rgb(127,191,255)" text-rendering="geometricPrecision" shape-rendering="geometricPrecision" transform="matrix(1,0,0,1,-26,-248)" stroke="rgb(127,191,255)">
      <path d="M158 379.5406 L274.1 379.5406 L287 425.0406 L274.1 470.5406 L158 470.5406 L170.9 425.0406 Z" fill-rule="evenodd" clip-path="url(#clipPath2)" stroke="none"/>
    </g>
    <g stroke-linecap="butt" transform="matrix(1,0,0,1,-26,-248)" fill="navy" text-rendering="geometricPrecision" shape-rendering="geometricPrecision" stroke="navy" stroke-miterlimit="1.45">
      <path fill="none" d="M158 379.5406 L274.1 379.5406 L287 425.0406 L274.1 470.5406 L158 470.5406 L170.9 425.0406 Z" fill-rule="evenodd" clip-path="url(#clipPath2)"/>
      <text x="187.0697" y="421.5246" clip-path="url(#clipPath2)" fill="black" font-family="sans-serif" stroke="none" xml:space="preserve">Source Code</text>
      <text x="207.4819" y="437.8687" clip-path="url(#clipPath2)" fill="black" font-family="sans-serif" stroke="none" xml:space="preserve">(Java)</text>
    </g>
    <g fill="rgb(153,204,255)" text-rendering="geometricPrecision" shape-rendering="geometricPrecision" transform="matrix(1,0,0,1,-26,-248)" stroke="rgb(153,204,255)">
      <rect x="352.5" width="295.5" height="126" y="566.0406" clip-path="url(#clipPath2)" stroke="none"/>
    </g>
    <g stroke-linecap="butt" transform="matrix(1,0,0,1,-26,-248)" fill="navy" text-rendering="geometricPrecision" shape-rendering="geometricPrecision" stroke="navy" stroke-miterlimit="1.45">
      <rect fill="none" x="352.5" width="295.5" height="126" y="566.0406" clip-path="url(#clipPath2)"/>
      <text x="365.3519" y="593.5383" clip-path="url(#clipPath2)" fill="black" font-family="sans-serif" stroke="none" xml:space="preserve">Run</text>
    </g>
    <g fill="rgb(127,191,255)" text-rendering="geometricPrecision" shape-rendering="geometricPrecision" transform="matrix(1,0,0,1,-26,-248)" stroke="rgb(127,191,255)">
      <path d="M158 584.0406 L274.1 584.0406 L287 629.5406 L274.1 675.0406 L158 675.0406 L170.9 629.5406 Z" fill-rule="evenodd" clip-path="url(#clipPath2)" stroke="none"/>
    </g>
    <g stroke-linecap="butt" transform="matrix(1,0,0,1,-26,-248)" fill="navy" text-rendering="geometricPrecision" shape-rendering="geometricPrecision" stroke="navy" stroke-miterlimit="1.45">
      <path fill="none" d="M158 584.0406 L274.1 584.0406 L287 629.5406 L274.1 675.0406 L158 675.0406 L170.9 629.5406 Z" fill-rule="evenodd" clip-path="url(#clipPath2)"/>
      <text x="195.4938" y="626.0246" clip-path="url(#clipPath2)" fill="black" font-family="sans-serif" stroke="none" xml:space="preserve">ByteCode</text>
      <text x="209.6959" y="642.3687" clip-path="url(#clipPath2)" fill="black" font-family="sans-serif" stroke="none" xml:space="preserve">(JAR)</text>
    </g>
    <g fill="rgb(153,204,255)" text-rendering="geometricPrecision" shape-rendering="geometricPrecision" transform="matrix(1,0,0,1,-26,-248)" stroke="rgb(153,204,255)">
      <rect x="359.75" width="85" height="66.322" y="618.7186" clip-path="url(#clipPath2)" stroke="none"/>
    </g>
    <g stroke-linecap="butt" transform="matrix(1,0,0,1,-26,-248)" fill="navy" text-rendering="geometricPrecision" shape-rendering="geometricPrecision" stroke-dasharray="6,2" stroke="navy" stroke-miterlimit="1.45">
      <rect fill="none" x="359.75" width="85" height="66.322" y="618.7186" clip-path="url(#clipPath2)"/>
    </g>
    <g text-rendering="geometricPrecision" stroke-miterlimit="1.45" shape-rendering="geometricPrecision" font-family="sans-serif" transform="matrix(1,0,0,1,-26,-248)" stroke-linecap="butt">
      <text x="376.2518" xml:space="preserve" y="656.5356" clip-path="url(#clipPath2)" stroke="none">Load (JIT)</text>
    </g>
    <g fill="rgb(153,204,255)" text-rendering="geometricPrecision" shape-rendering="geometricPrecision" transform="matrix(1,0,0,1,-26,-248)" stroke="rgb(153,204,255)">
      <rect x="457.75" width="85" height="66.322" y="618.7186" clip-path="url(#clipPath2)" stroke="none"/>
    </g>
    <g stroke-linecap="butt" transform="matrix(1,0,0,1,-26,-248)" fill="navy" text-rendering="geometricPrecision" shape-rendering="geometricPrecision" stroke-dasharray="6,2" stroke="navy" stroke-miterlimit="1.45">
      <rect fill="none" x="457.75" width="85" height="66.322" y="618.7186" clip-path="url(#clipPath2)"/>
    </g>
    <g text-rendering="geometricPrecision" stroke-miterlimit="1.45" shape-rendering="geometricPrecision" font-family="sans-serif" transform="matrix(1,0,0,1,-26,-248)" stroke-linecap="butt">
      <text x="476.4778" xml:space="preserve" y="656.5356" clip-path="url(#clipPath2)" stroke="none">Link (JIT)</text>
    </g>
    <g fill="rgb(153,204,255)" text-rendering="geometricPrecision" shape-rendering="geometricPrecision" transform="matrix(1,0,0,1,-26,-248)" stroke="rgb(153,204,255)">
      <rect x="550.75" width="85" height="66.322" y="618.7186" clip-path="url(#clipPath2)" stroke="none"/>
    </g>
    <g stroke-linecap="butt" transform="matrix(1,0,0,1,-26,-248)" fill="navy" text-rendering="geometricPrecision" shape-rendering="geometricPrecision" stroke-dasharray="6,2" stroke="navy" stroke-miterlimit="1.45">
      <rect fill="none" x="550.75" width="85" height="66.322" y="618.7186" clip-path="url(#clipPath2)"/>
    </g>
    <g text-rendering="geometricPrecision" stroke-miterlimit="1.45" shape-rendering="geometricPrecision" font-family="sans-serif" transform="matrix(1,0,0,1,-26,-248)" stroke-linecap="butt">
      <text x="557.8798" xml:space="preserve" y="656.5356" clip-path="url(#clipPath2)" stroke="none">Compile (JIT)</text>
    </g>
    <g fill="rgb(153,204,255)" text-rendering="geometricPrecision" shape-rendering="geometricPrecision" transform="matrix(1,0,0,1,-26,-248)" stroke="rgb(153,204,255)">
      <rect x="407.75" width="228" height="30.322" y="576.5406" clip-path="url(#clipPath2)" stroke="none"/>
    </g>
    <g stroke-linecap="butt" transform="matrix(1,0,0,1,-26,-248)" fill="navy" text-rendering="geometricPrecision" shape-rendering="geometricPrecision" stroke-dasharray="6,2" stroke="navy" stroke-miterlimit="1.45">
      <rect fill="none" x="407.75" width="228" height="30.322" y="576.5406" clip-path="url(#clipPath2)"/>
    </g>
    <g text-rendering="geometricPrecision" stroke-miterlimit="1.45" shape-rendering="geometricPrecision" font-family="sans-serif" transform="matrix(1,0,0,1,-26,-248)" stroke-linecap="butt">
      <text x="442.2554" xml:space="preserve" y="596.3577" clip-path="url(#clipPath2)" stroke="none">Execute App &amp; JDK bytecode</text>
      <path fill="none" d="M459.5 423.0406 L507.8994 423.0406" clip-path="url(#clipPath2)"/>
      <path d="M515.8994 423.0406 L503.8994 418.0406 L506.8994 423.0406 L503.8994 428.0406 Z" clip-path="url(#clipPath2)" stroke="none"/>
      <path fill="none" d="M286.8085 424.295 L322.5005 423.8812" clip-path="url(#clipPath2)"/>
      <path d="M330.5 423.7885 L318.4428 418.9279 L321.5006 423.8928 L318.5588 428.9272 Z" clip-path="url(#clipPath2)" stroke="none"/>
      <path fill="none" d="M286.9535 629.4246 L344.5 629.321" clip-path="url(#clipPath2)"/>
      <path d="M352.5 629.3066 L340.491 624.3282 L343.5 629.3228 L340.509 634.3282 Z" clip-path="url(#clipPath2)" stroke="none"/>
    </g>
  </g>
</svg>
