<?xml version="1.0" encoding="UTF-8"?>
<svg id="Layer_1" xmlns="http://www.w3.org/2000/svg" viewBox="0 0 1568 620">
  <g>
    <g>
      <path d="M489.17,226.39c8.45,4.98,18.14,7.47,29.06,7.47,7.81,0,15.04-1.39,21.67-4.17,6.63-2.78,12.44-6.69,17.42-11.72,4.98-5.03,8.8-10.81,11.48-17.34l-20.39-7.38c-1.82,4.07-4.2,7.65-7.14,10.76-2.94,3.11-6.32,5.54-10.11,7.31-3.8,1.77-8,2.65-12.6,2.65-6.64,0-12.52-1.63-17.66-4.9-5.14-3.26-9.15-7.76-12.04-13.49-2.89-5.72-4.33-12.33-4.33-19.83s1.42-14.07,4.25-19.75c2.83-5.67,6.8-10.14,11.88-13.41,5.08-3.26,10.89-4.9,17.42-4.9,4.5,0,8.67.83,12.52,2.49,3.85,1.66,7.28,3.96,10.27,6.9,3,2.94,5.4,6.4,7.22,10.35l20.39-7.54c-2.68-6.31-6.5-11.91-11.48-16.78-4.98-4.87-10.78-8.67-17.42-11.4-6.64-2.73-13.81-4.09-21.51-4.09-10.92,0-20.58,2.49-28.98,7.46-8.4,4.98-15.01,11.83-19.83,20.55-4.82,8.72-7.22,18.76-7.22,30.1s2.41,21.38,7.22,30.1c4.82,8.72,11.45,15.57,19.91,20.55Z" style="fill: #fff;"/>
      <path d="M654.37,213.63c3.53-6.31,5.3-13.59,5.3-21.83s-1.77-15.52-5.3-21.83c-3.53-6.31-8.46-11.26-14.77-14.85-6.32-3.58-13.59-5.38-21.83-5.38s-15.36,1.79-21.67,5.38c-6.32,3.59-11.24,8.54-14.77,14.85-3.53,6.32-5.3,13.59-5.3,21.83s1.79,15.52,5.38,21.83c3.58,6.32,8.53,11.27,14.85,14.85,6.31,3.59,13.59,5.38,21.83,5.38s15.33-1.79,21.59-5.38c6.26-3.58,11.16-8.53,14.69-14.85ZM635.42,203.44c-1.71,3.37-4.04,6.02-6.98,7.95-2.94,1.93-6.4,2.89-10.35,2.89s-7.49-.96-10.6-2.89c-3.11-1.93-5.51-4.57-7.22-7.95-1.71-3.37-2.57-7.25-2.57-11.64s.86-8.27,2.57-11.64c1.71-3.37,4.09-6.02,7.14-7.95,3.05-1.93,6.55-2.89,10.51-2.89s7.31.96,10.36,2.89c3.05,1.93,5.43,4.57,7.14,7.95,1.71,3.37,2.57,7.25,2.57,11.64s-.86,8.27-2.57,11.64Z" style="fill: #fff;"/>
      <path d="M744.11,231.93v-42.06c0-6.74,1.39-11.82,4.17-15.25,2.78-3.42,6.74-5.08,11.88-4.98,2.78,0,5.19.67,7.22,2.01,2.03,1.34,3.64,3.51,4.82,6.5,1.18,3,1.77,7.22,1.77,12.68v41.1h21.19v-45.91c0-12.31-2.46-21.43-7.38-27.37-4.92-5.94-12.1-8.91-21.51-8.91-5.67,0-10.65,1.47-14.93,4.41-4.28,2.94-7.6,7.14-9.95,12.6-2.03-5.78-5.27-10.06-9.71-12.84-4.44-2.78-9.93-4.17-16.46-4.17-4.71,0-8.99,1.04-12.84,3.13-3.85,2.09-7.01,5.16-9.47,9.23l-.96-10.44h-19.91v80.27h21.19v-42.06c0-6.74,1.37-11.82,4.09-15.25,2.73-3.42,6.66-5.08,11.8-4.98,2.78,0,5.22.67,7.3,2.01,2.09,1.34,3.69,3.51,4.82,6.5,1.12,3,1.69,7.22,1.69,12.68v41.1h21.19Z" style="fill: #fff;"/>
      <path d="M912.36,231.93h21.19v-45.91c0-12.31-2.46-21.43-7.38-27.37-4.92-5.94-12.1-8.91-21.51-8.91-5.67,0-10.65,1.47-14.93,4.41-4.28,2.94-7.6,7.14-9.95,12.6-2.03-5.78-5.27-10.06-9.71-12.84-4.44-2.78-9.93-4.17-16.46-4.17-4.71,0-8.99,1.04-12.84,3.13-3.85,2.09-7.01,5.16-9.47,9.23l-.96-10.44h-19.91v80.27h21.19v-42.06c0-6.74,1.37-11.82,4.09-15.25,2.73-3.42,6.66-5.08,11.8-4.98,2.78,0,5.22.67,7.3,2.01,2.09,1.34,3.69,3.51,4.82,6.5,1.12,3,1.69,7.22,1.69,12.68v41.1h21.19v-42.06c0-6.74,1.39-11.82,4.17-15.25,2.78-3.42,6.74-5.08,11.88-4.98,2.78,0,5.19.67,7.22,2.01,2.03,1.34,3.64,3.51,4.82,6.5,1.18,3,1.77,7.22,1.77,12.68v41.1Z" style="fill: #fff;"/>
      <path d="M1022.81,213.63c3.53-6.31,5.3-13.59,5.3-21.83s-1.77-15.52-5.3-21.83c-3.53-6.31-8.46-11.26-14.77-14.85-6.32-3.58-13.59-5.38-21.83-5.38s-15.36,1.79-21.67,5.38c-6.32,3.59-11.24,8.54-14.77,14.85-3.53,6.32-5.3,13.59-5.3,21.83s1.79,15.52,5.38,21.83c3.58,6.32,8.53,11.27,14.85,14.85,6.31,3.59,13.59,5.38,21.83,5.38s15.33-1.79,21.59-5.38c6.26-3.58,11.16-8.53,14.69-14.85ZM1003.86,203.44c-1.71,3.37-4.04,6.02-6.98,7.95-2.94,1.93-6.4,2.89-10.35,2.89s-7.49-.96-10.6-2.89c-3.11-1.93-5.51-4.57-7.22-7.95-1.71-3.37-2.57-7.25-2.57-11.64s.86-8.27,2.57-11.64c1.71-3.37,4.09-6.02,7.14-7.95,3.05-1.93,6.55-2.89,10.51-2.89s7.31.96,10.35,2.89c3.05,1.93,5.43,4.57,7.14,7.95,1.71,3.37,2.57,7.25,2.57,11.64s-.86,8.27-2.57,11.64Z" style="fill: #fff;"/>
      <path d="M1114.79,231.93v-45.43c.11-8.56-1.02-15.54-3.37-20.95-2.36-5.4-5.78-9.39-10.27-11.96-4.5-2.57-9.9-3.85-16.21-3.85s-11.43,1.58-15.97,4.74c-2.99,2.08-5.53,4.77-7.65,8.05l-.94-10.85h-19.91v80.27h21.19v-42.06c0-6.74,1.47-11.82,4.41-15.25,2.94-3.42,7.14-5.08,12.6-4.98,3,0,5.62.67,7.87,2.01,2.25,1.34,3.99,3.51,5.22,6.5,1.23,3,1.85,7.22,1.85,12.68v41.1h21.19Z" style="fill: #fff;"/>
      <path d="M1204.7,231.93v-45.43c0-8.56-1.18-15.54-3.53-20.95-2.36-5.4-5.75-9.39-10.19-11.96-4.44-2.57-9.87-3.85-16.29-3.85s-11.43,1.58-15.97,4.74c-2.83,1.96-5.26,4.47-7.3,7.5v-42.42h-21.19v112.38h21.19v-42.06c0-6.74,1.47-11.82,4.41-15.25,2.94-3.42,7.14-5.08,12.6-4.98,3,0,5.62.67,7.87,2.01,2.25,1.34,4.01,3.51,5.3,6.5,1.28,3,1.93,7.22,1.93,12.68v41.1h21.19Z" style="fill: #fff;"/>
      <path d="M1272.85,154.39c-5.41-3.1-12.18-4.66-20.31-4.66-6.74,0-12.44,1.04-17.1,3.13-4.66,2.09-8.43,4.76-11.32,8.03-2.89,3.27-5.08,6.61-6.58,10.03l18.62,6.42c1.93-3.1,4.28-5.4,7.06-6.9,2.78-1.5,5.88-2.25,9.31-2.25,3.75,0,6.72.94,8.91,2.81,2.19,1.87,3.8,4.52,4.82,7.95.41,1.38.71,2.89.96,4.49h-18.86c-10.38,0-18.44,2.17-24.16,6.5-5.73,4.33-8.59,10.78-8.59,19.35,0,7.81,2.65,13.86,7.95,18.14,5.3,4.28,12.76,6.42,22.39,6.42s16.67-3.05,20.79-9.15c.47-.69.9-1.42,1.31-2.18l.37,9.4h19.75l.48-44.47c.11-7.71-1.15-14.37-3.77-19.99-2.62-5.62-6.64-9.98-12.04-13.08ZM1265.38,207.29c-1.61,2.62-3.77,4.76-6.5,6.42-2.73,1.66-5.86,2.49-9.39,2.49-3.85,0-6.85-.67-8.99-2.01-2.14-1.34-3.21-3.18-3.21-5.54,0-3,1.34-5.32,4.01-6.98,2.67-1.66,7.49-2.49,14.45-2.49h12.04c0,2.78-.8,5.49-2.41,8.11Z" style="fill: #fff;"/>
      <path d="M1355.6,193.72c0,6.64-1.44,11.69-4.33,15.17-2.89,3.48-7.12,5.16-12.68,5.06-2.89,0-5.49-.67-7.79-2.01-2.3-1.34-4.07-3.53-5.3-6.58-1.23-3.05-1.85-7.25-1.85-12.6v-41.1h-21.19v45.43c0,8.56,1.15,15.55,3.45,20.95,2.3,5.41,5.7,9.39,10.19,11.96,4.49,2.57,9.95,3.85,16.37,3.85s11.4-1.58,15.89-4.74c2.94-2.06,5.46-4.73,7.57-7.98l.94,10.79h19.91v-80.27h-21.19v42.06Z" style="fill: #fff;"/>
      <path d="M1453.77,199.26c-1.44-3.48-3.75-6.64-6.9-9.47-3.16-2.83-7.36-4.9-12.6-6.18l-10.44-2.57c-2.78-.64-4.92-1.42-6.42-2.33-1.5-.91-2.25-2.06-2.25-3.45,0-2.14.78-3.82,2.33-5.06,1.55-1.23,3.77-1.85,6.66-1.85s5.78.67,8.67,2.01c2.89,1.34,4.71,3.08,5.46,5.22l17.5-8.03c-1.18-3.53-3.32-6.63-6.42-9.31-3.11-2.67-6.82-4.76-11.16-6.26-4.33-1.5-9.02-2.25-14.05-2.25-9.74,0-17.26,2.25-22.56,6.74-5.3,4.5-7.95,10.86-7.95,19.1,0,5.78,2.22,10.89,6.66,15.33,4.44,4.44,10.52,7.68,18.22,9.71l7.38,1.93c2.67.64,4.79,1.42,6.34,2.33,1.55.91,2.33,2.33,2.33,4.25s-.96,3.4-2.89,4.41c-1.93,1.02-4.66,1.53-8.19,1.53s-6.85-.94-9.63-2.81c-2.78-1.87-4.98-4.09-6.58-6.66l-18.14,8.35c1.93,4.28,4.6,7.89,8.03,10.84,3.42,2.94,7.39,5.19,11.88,6.74,4.5,1.55,9.31,2.33,14.45,2.33,6.21,0,11.74-1.02,16.62-3.05,4.87-2.03,8.72-4.9,11.56-8.59,2.83-3.69,4.25-7.95,4.25-12.76,0-3.32-.72-6.71-2.17-10.19Z" style="fill: #fff;"/>
      <polygon points="468.62 394.97 490.62 394.97 490.62 349.69 532.36 349.69 532.36 329.63 490.62 329.63 490.62 302.65 540.71 302.65 540.71 282.59 468.62 282.59 468.62 394.97" style="fill: #fff;"/>
      <path d="M610.86,318.15c-6.32-3.59-13.59-5.38-21.83-5.38s-15.36,1.79-21.67,5.38c-6.32,3.59-11.24,8.54-14.77,14.85-3.53,6.32-5.3,13.59-5.3,21.83s1.79,15.52,5.38,21.83c3.58,6.32,8.53,11.27,14.85,14.85,6.31,3.58,13.59,5.38,21.83,5.38s15.33-1.79,21.59-5.38c6.26-3.58,11.16-8.53,14.69-14.85,3.53-6.31,5.3-13.59,5.3-21.83s-1.77-15.52-5.3-21.83c-3.53-6.31-8.46-11.26-14.77-14.85ZM606.69,366.47c-1.71,3.37-4.04,6.02-6.98,7.95-2.94,1.93-6.4,2.89-10.35,2.89s-7.49-.96-10.6-2.89c-3.11-1.93-5.51-4.57-7.22-7.95-1.71-3.37-2.57-7.25-2.57-11.64s.86-8.27,2.57-11.64c1.71-3.37,4.09-6.02,7.14-7.95,3.05-1.93,6.55-2.89,10.52-2.89s7.3.96,10.35,2.89c3.05,1.93,5.43,4.57,7.14,7.95,1.71,3.37,2.57,7.25,2.57,11.64s-.86,8.27-2.57,11.64Z" style="fill: #fff;"/>
      <path d="M694.98,356.76c0,6.64-1.45,11.69-4.34,15.17-2.89,3.48-7.12,5.17-12.68,5.06-2.89,0-5.49-.67-7.79-2.01-2.3-1.34-4.07-3.53-5.3-6.58-1.23-3.05-1.85-7.25-1.85-12.6v-41.1h-21.19v45.43c0,8.56,1.15,15.55,3.45,20.95,2.3,5.41,5.7,9.39,10.19,11.96,4.5,2.57,9.95,3.85,16.38,3.85s11.4-1.58,15.89-4.74c2.94-2.06,5.46-4.73,7.57-7.98l.94,10.79h19.91v-80.27h-21.19v42.06Z" style="fill: #fff;"/>
      <path d="M793.55,316.62c-4.5-2.57-9.9-3.85-16.21-3.85s-11.43,1.58-15.97,4.74c-2.99,2.08-5.53,4.77-7.65,8.05l-.94-10.85h-19.91v80.27h21.19v-42.06c0-6.74,1.47-11.82,4.42-15.25,2.94-3.42,7.14-5.08,12.6-4.98,3,0,5.62.67,7.87,2.01,2.25,1.34,3.99,3.51,5.22,6.5,1.23,3,1.85,7.22,1.85,12.68v41.1h21.19v-45.43c.11-8.56-1.02-15.55-3.37-20.95-2.36-5.4-5.78-9.39-10.27-11.96Z" style="fill: #fff;"/>
      <path d="M878.48,325.32c-1.96-2.94-4.28-5.42-6.98-7.41-4.66-3.42-10.35-5.14-17.1-5.14-7.38,0-13.78,1.71-19.18,5.14-5.41,3.43-9.61,8.27-12.6,14.53-3,6.26-4.5,13.73-4.5,22.4s1.5,16,4.5,22.32c3,6.32,7.2,11.19,12.6,14.61,5.4,3.42,11.8,5.14,19.18,5.14,6.74,0,12.44-1.71,17.1-5.14,2.83-2.08,5.25-4.71,7.27-7.86l.83,11.07h20.07v-112.38h-21.19v42.73ZM869.57,374.58c-2.84,1.93-6.08,2.89-9.71,2.89-3.85,0-7.25-.96-10.19-2.89-2.94-1.93-5.27-4.6-6.98-8.03-1.71-3.42-2.57-7.33-2.57-11.72s.85-8.29,2.57-11.72c1.71-3.42,4.01-6.07,6.9-7.95,2.89-1.87,6.26-2.81,10.11-2.81s7.04.94,9.87,2.81c2.83,1.87,5.06,4.52,6.66,7.95,1.2,2.55,1.94,5.37,2.25,8.45v6.54c-.31,3.08-1.05,5.9-2.25,8.45-1.61,3.43-3.83,6.1-6.66,8.03Z" style="fill: #fff;"/>
      <path d="M969.26,317.42c-5.41-3.1-12.18-4.66-20.31-4.66-6.74,0-12.44,1.04-17.1,3.13-4.66,2.09-8.43,4.76-11.32,8.03-2.89,3.27-5.08,6.61-6.58,10.03l18.62,6.42c1.93-3.1,4.28-5.4,7.06-6.9,2.78-1.5,5.88-2.25,9.31-2.25,3.75,0,6.72.94,8.91,2.81,2.19,1.87,3.8,4.52,4.82,7.95.41,1.38.71,2.9.96,4.5h-18.86c-10.38,0-18.44,2.17-24.16,6.5-5.73,4.33-8.59,10.78-8.59,19.34,0,7.81,2.65,13.86,7.95,18.14,5.3,4.28,12.76,6.42,22.4,6.42s16.67-3.05,20.79-9.15c.47-.69.9-1.42,1.31-2.18l.37,9.4h19.75l.48-44.47c.11-7.71-1.15-14.37-3.77-19.99-2.62-5.62-6.64-9.98-12.04-13.08ZM961.8,370.32c-1.61,2.62-3.77,4.76-6.5,6.42-2.73,1.66-5.86,2.49-9.39,2.49-3.85,0-6.85-.67-8.99-2.01-2.14-1.34-3.21-3.18-3.21-5.54,0-3,1.34-5.32,4.01-6.98,2.67-1.66,7.49-2.49,14.45-2.49h12.04c0,2.78-.8,5.49-2.41,8.11Z" style="fill: #fff;"/>
      <path d="M1039.98,376.58c-1.28.48-2.46.72-3.53.72-2.89,0-5.08-.88-6.58-2.65-1.5-1.77-2.25-4.36-2.25-7.79v-34.2h20.07v-17.98h-20.07v-25.05h-21.19v25.05h-13v17.98h13v38.85c0,8.13,2.27,14.4,6.82,18.78,4.55,4.39,11.26,6.58,20.15,6.58,3.1,0,6.23-.62,9.39-1.85,3.16-1.23,6.02-2.81,8.59-4.74l-7.38-15.89c-1.39.96-2.73,1.69-4.01,2.17Z" style="fill: #fff;"/>
      <path d="M1075.14,277.29c-3.21,0-6.05,1.2-8.51,3.61-2.46,2.41-3.69,5.27-3.69,8.59s1.23,6.18,3.69,8.59c2.46,2.41,5.3,3.61,8.51,3.61s6.18-1.2,8.59-3.61c2.41-2.41,3.61-5.27,3.61-8.59s-1.2-6.18-3.61-8.59c-2.41-2.41-5.27-3.61-8.59-3.61Z" style="fill: #fff;"/>
      <rect x="1064.54" y="314.7" width="21.19" height="80.27" style="fill: #fff;"/>
      <path d="M1162.95,318.15c-6.32-3.59-13.59-5.38-21.83-5.38s-15.36,1.79-21.67,5.38c-6.32,3.59-11.24,8.54-14.77,14.85-3.53,6.32-5.3,13.59-5.3,21.83s1.79,15.52,5.38,21.83c3.58,6.32,8.53,11.27,14.85,14.85,6.31,3.58,13.59,5.38,21.83,5.38s15.33-1.79,21.59-5.38c6.26-3.58,11.16-8.53,14.69-14.85,3.53-6.31,5.3-13.59,5.3-21.83s-1.77-15.52-5.3-21.83c-3.53-6.31-8.46-11.26-14.77-14.85ZM1158.78,366.47c-1.71,3.37-4.04,6.02-6.98,7.95-2.94,1.93-6.4,2.89-10.35,2.89s-7.49-.96-10.6-2.89c-3.11-1.93-5.51-4.57-7.22-7.95-1.71-3.37-2.57-7.25-2.57-11.64s.86-8.27,2.57-11.64c1.71-3.37,4.09-6.02,7.14-7.95,3.05-1.93,6.55-2.89,10.51-2.89s7.31.96,10.35,2.89c3.05,1.93,5.43,4.57,7.14,7.95,1.71,3.37,2.57,7.25,2.57,11.64s-.86,8.27-2.57,11.64Z" style="fill: #fff;"/>
      <path d="M1256.06,316.62c-4.5-2.57-9.9-3.85-16.21-3.85s-11.43,1.58-15.97,4.74c-2.99,2.08-5.53,4.77-7.65,8.05l-.94-10.85h-19.91v80.27h21.19v-42.06c0-6.74,1.47-11.82,4.41-15.25,2.94-3.42,7.14-5.08,12.6-4.98,3,0,5.62.67,7.87,2.01,2.25,1.34,3.99,3.51,5.22,6.5,1.23,3,1.85,7.22,1.85,12.68v41.1h21.19v-45.43c.11-8.56-1.02-15.55-3.37-20.95-2.36-5.4-5.78-9.39-10.27-11.96Z" style="fill: #fff;"/>
    </g>
    <g>
      <path d="M353.52,116.69h23.74c1.23,0,2.08,1.23,1.65,2.38-3.36,8.85-12.96,29.94-35.9,46.01-1.23.86-2.9-.11-2.77-1.6,2.42-27.25,9.14-41.13,11.74-45.88.31-.56.9-.91,1.54-.91Z" style="fill: #a9d962;"/>
      <path d="M332.76,119.17c-3.55,7.97-6.23,16.8-8.23,26.03-.3,1.38-2.01,1.87-2.99.85-3.77-3.96-10.94-12.77-16.67-26.95-.47-1.15.39-2.41,1.63-2.41h24.65c1.28,0,2.12,1.31,1.6,2.48Z" style="fill: #78a658;"/>
      <path d="M215.26,116.69h11.06c.99,0,1.78.82,1.76,1.81-1.1,44.48,2.18,84.77,4.32,107.87.11,1.21-1,2.16-2.18,1.87-5.61-1.41-19.45-4.93-29.58-7.72-.55-.15-.99-.56-1.19-1.1-3.45-9.66-12.32-35.29-15.39-45.54-.24-.81.13-1.67.87-2.06,16.5-8.68,25.32-31.14,28.57-53.61.13-.87.86-1.52,1.74-1.52Z" style="fill: #4d7343;"/>
      <path d="M206.25,118.8c-2.11,10.56-8.23,33.96-23.04,43.24-1.01.63-2.35.09-2.64-1.07-4.4-17.48-6.75-32.88-7.75-42.33-.11-1.04.71-1.94,1.75-1.94h29.96c1.11,0,1.94,1.01,1.73,2.1Z" style="fill: #78a658;"/>
      <path d="M114.76,116.69h41.04c.94,0,1.71.74,1.75,1.69.49,11.35,1.73,22.62,3.55,33.81.19,1.2-.86,2.24-2.06,2.02-19.16-3.51-34.16-7.92-44.97-12.46-.65-.27-1.07-.91-1.07-1.62v-21.68c0-.97.79-1.76,1.76-1.76Z" style="fill: #a9d962;"/>
      <path d="M115.45,152.32c17.22,7.46,37.36,12.33,47.25,14.48.68.15,1.2.68,1.34,1.36,2.92,14.09,6.59,28.06,10.61,41.88.39,1.35-.87,2.59-2.21,2.17-11.14-3.48-39.91-12.76-58.55-23.24-.55-.31-.89-.9-.89-1.53v-33.51c0-1.27,1.29-2.12,2.45-1.61Z" style="fill: #78a658;"/>
      <path d="M113,393.65v-48.38c0-1.27,1.29-2.12,2.46-1.62,12.73,5.51,58.11,23.32,135.7,24.3.84.01,1.55.61,1.71,1.43,1.53,7.98,3.11,15.96,4.76,23.91.23,1.09-.61,2.11-1.72,2.11H114.76c-.97,0-1.76-.79-1.76-1.76Z" style="fill: #bad3d9;"/>
      <path d="M391.03,291.2c-7.51,5.79-15.46,11.13-23.64,16.02-1.11.67-2.54-.05-2.66-1.34-.85-9.24-1.59-40.16,23.93-67.82,1.09-1.18,3.06-.42,3.06,1.18v50.55c0,.55-.25,1.06-.68,1.4Z" style="fill: #a9d962;"/>
      <path d="M391.24,171.03c-11.18,11.89-26.56,23.2-48.86,33.59-1.13.52-2.43-.25-2.51-1.49-.44-7.71-.65-15.67-.49-23.66.01-.6.33-1.16.85-1.47,5.74-3.49,34.93-22.48,46.13-60.05.22-.75.91-1.27,1.69-1.27h1.9c.97,0,1.76.79,1.76,1.76v51.38c0,.45-.17.88-.48,1.21Z" style="fill: #78a658;"/>
      <path d="M159.48,329.08c-6.91-24.08-22.93-48.31-43.49-68.4-1.11-1.09-2.99-.29-2.99,1.26v53.18c0,.68.39,1.3.99,1.59,17.41,8.37,36.3,13,43.41,14.57,1.3.29,2.44-.92,2.07-2.2Z" style="fill: #78a658;"/>
      <path d="M355.08,292.55l-7.87-7.27c-1.13-1.04-2.95-.24-2.95,1.29v30.31c0,1.31,1.38,2.16,2.55,1.57,2.81-1.41,5.6-2.86,8.38-4.34.64-.34,1-1.05.91-1.78-.76-6.08-.89-12.24-.46-18.37.04-.53-.16-1.05-.56-1.42Z" style="fill: #4d7343;"/>
      <path d="M316.68,242.64l38.57,35.98c.99.92,2.59.43,2.91-.88,1.33-5.49,3.12-10.87,5.35-16.02,6.11-14.13,15.91-26.56,27.59-36.52.39-.33.62-.82.62-1.34v-19.84c0-1.47-1.7-2.29-2.85-1.37-20.75,16.43-45.95,28.45-71.54,37.04-1.26.42-1.61,2.04-.63,2.95Z" style="fill: #4d7343;"/>
      <path d="M282.02,210.3l11.41,10.65c.44.41,1.07.57,1.65.42,7.9-2.07,15.74-4.43,23.46-7.11.73-.25,1.21-.96,1.18-1.73-.62-16.48-.23-35.2,2.32-53.22.08-.57-.12-1.14-.54-1.53-3.42-3.2-18.21-18.61-23.21-39.75-.19-.79-.9-1.34-1.71-1.34h-18.61c-.98,0-1.77.8-1.76,1.78.21,13.51,2.72,66.28,5.26,90.73.04.42.24.81.55,1.1Z" style="fill: #4d7343;"/>
      <path d="M191.77,285.28l-8.32,7.68c-.71.66-1.82.62-2.48-.09l-4.63-4.96c-.66-.71-.63-1.82.09-2.49l36.78-34.31c1-.93.61-2.59-.7-2.97-28.91-8.59-68.4-21.45-96.94-36.12-1.17-.6-2.56.25-2.56,1.56v33.97c0,.52.23,1,.62,1.34,38.88,33.08,52.31,67.15,56.5,83.85.17.67.72,1.18,1.4,1.3,7.05,1.24,14.13,2.26,21.24,3.08,1.04.12,1.96-.7,1.96-1.75v-48.81c0-1.53-1.83-2.33-2.95-1.29Z" style="fill: #4d7343;"/>
      <path d="M268.29,213.84l-62.71,58.64c-.36.33-.56.8-.56,1.29v59.46c0,.97.79,1.76,1.76,1.76h41.4c.97,0,1.76-.79,1.76-1.76v-56.32c0-.97.79-1.76,1.76-1.76h34.87c.97,0,1.76.79,1.76,1.76v56.32c0,.97.79,1.76,1.76,1.76h18.08c.21,0,.41-.04.61-.11,8.16-2.97,16.22-6.25,24.15-9.82.63-.28,1.04-.92,1.04-1.61v-49.69c0-.49-.2-.95-.56-1.29l-62.71-58.64c-.68-.63-1.73-.63-2.4,0Z" style="fill: #fff;"/>
      <path d="M307.81,366.75c1.33,5.85,5.2,22.44,6.34,27.3.19.8.9,1.36,1.71,1.36h74.1c.97,0,1.76-.79,1.76-1.76v-70.08c0-1.43-1.62-2.26-2.78-1.43-34.13,24.5-72.27,39.62-80.04,42.58-.82.31-1.28,1.17-1.09,2.03Z" style="fill: #bad3d9;"/>
    </g>
  </g>
  <g>
    <path d="M192.65,511.64c-3.96,0-7.47-.92-10.53-2.76-3.06-1.84-5.46-4.4-7.2-7.68-1.74-3.28-2.61-7.04-2.61-11.28,0-3.2.49-6.13,1.47-8.79.98-2.66,2.37-4.95,4.17-6.87,1.8-1.92,3.93-3.41,6.39-4.47,2.46-1.06,5.17-1.59,8.13-1.59,3.96,0,7.46.93,10.5,2.79,3.04,1.86,5.41,4.42,7.11,7.68,1.7,3.26,2.55,7.01,2.55,11.25s-.85,8-2.55,11.28c-1.7,3.28-4.05,5.84-7.05,7.68-3,1.84-6.46,2.76-10.38,2.76ZM192.65,508.16c3.16,0,5.95-.78,8.37-2.34,2.42-1.56,4.32-3.71,5.7-6.45,1.38-2.74,2.07-5.89,2.07-9.45s-.7-6.71-2.1-9.45c-1.4-2.74-3.32-4.89-5.76-6.45-2.44-1.56-5.26-2.34-8.46-2.34s-5.97.78-8.43,2.34-4.39,3.71-5.79,6.45c-1.4,2.74-2.1,5.89-2.1,9.45s.7,6.71,2.1,9.45c1.4,2.74,3.35,4.89,5.85,6.45,2.5,1.56,5.35,2.34,8.55,2.34ZM210.35,513.2l-14.82-14.94,2.64-2.52,14.7,14.88-2.52,2.58Z" style="fill: #fff;"/>
    <path d="M219.47,496.28v-15.36h3.6v15.36h-3.6ZM223.07,496.28c0,3.32.39,5.84,1.17,7.56.78,1.72,1.85,2.89,3.21,3.51,1.36.62,2.86.93,4.5.93,2.84,0,5.06-1.05,6.66-3.15,1.6-2.1,2.4-5.03,2.4-8.79h2.22c0,3.2-.46,5.94-1.38,8.22-.92,2.28-2.26,4.03-4.02,5.25-1.76,1.22-3.94,1.83-6.54,1.83-2.28,0-4.32-.47-6.12-1.41-1.8-.94-3.2-2.44-4.2-4.5-1-2.06-1.5-4.75-1.5-8.07v-1.38h3.6ZM241.25,510.92l-.24-5.52v-24.48h3.6v30h-3.36Z" style="fill: #fff;"/>
    <path d="M263.03,511.64c-3.52,0-6.27-.81-8.25-2.43s-2.97-3.87-2.97-6.75.99-5.26,2.97-6.9c1.98-1.64,4.73-2.46,8.25-2.46h9v3.3h-8.52c-2.88,0-4.95.53-6.21,1.59-1.26,1.06-1.89,2.55-1.89,4.47s.65,3.28,1.95,4.32c1.3,1.04,3.11,1.56,5.43,1.56,1.92,0,3.57-.39,4.95-1.17s2.43-1.93,3.15-3.45c.72-1.52,1.08-3.4,1.08-5.64h2.1c0,4.08-.97,7.36-2.91,9.84-1.94,2.48-4.65,3.72-8.13,3.72ZM272.27,510.92l-.3-4.5v-11.58c0-2.56-.29-4.67-.87-6.33-.58-1.66-1.48-2.91-2.7-3.75-1.22-.84-2.81-1.26-4.77-1.26-1.8,0-3.31.36-4.53,1.08-1.22.72-2.23,1.84-3.03,3.36l-3.24-1.44c.84-1.44,1.79-2.62,2.85-3.54,1.06-.92,2.25-1.61,3.57-2.07,1.32-.46,2.78-.69,4.38-.69,2.68,0,4.9.54,6.66,1.62,1.76,1.08,3.08,2.7,3.96,4.86.88,2.16,1.32,4.88,1.32,8.16v16.08h-3.3Z" style="fill: #fff;"/>
    <path d="M283.67,510.92v-30h3.6v30h-3.6ZM285.17,494.48c0-3.24.61-5.86,1.83-7.86,1.22-2,2.8-3.47,4.74-4.41,1.94-.94,3.99-1.41,6.15-1.41v3.3c-1.76,0-3.45.31-5.07.93-1.62.62-2.95,1.66-3.99,3.12-1.04,1.46-1.56,3.45-1.56,5.97l-2.1.36Z" style="fill: #fff;"/>
    <path d="M302.99,510.92v-42h3.6v42h-3.6ZM306.59,500.48l-2.46-2.46,16.26-17.1h4.68l-18.48,19.56ZM321.77,510.92l-11.94-18.24,2.34-2.58,14.22,20.82h-4.62Z" style="fill: #fff;"/>
    <path d="M329.99,496.28v-15.36h3.6v15.36h-3.6ZM333.59,496.28c0,3.32.39,5.84,1.17,7.56.78,1.72,1.85,2.89,3.21,3.51,1.36.62,2.86.93,4.5.93,2.84,0,5.06-1.05,6.66-3.15,1.6-2.1,2.4-5.03,2.4-8.79h2.22c0,3.2-.46,5.94-1.38,8.22-.92,2.28-2.26,4.03-4.02,5.25-1.76,1.22-3.94,1.83-6.54,1.83-2.28,0-4.32-.47-6.12-1.41-1.8-.94-3.2-2.44-4.2-4.5-1-2.06-1.5-4.75-1.5-8.07v-1.38h3.6ZM351.77,510.92l-.24-5.52v-24.48h3.6v30h-3.36Z" style="fill: #fff;"/>
    <path d="M374.33,511.64c-2.28,0-4.24-.34-5.88-1.02-1.64-.68-2.97-1.56-3.99-2.64s-1.73-2.2-2.13-3.36l3.24-1.2c.68,1.48,1.77,2.67,3.27,3.57,1.5.9,3.11,1.35,4.83,1.35,2.12,0,3.92-.44,5.4-1.32,1.48-.88,2.22-2.12,2.22-3.72,0-1.44-.54-2.62-1.62-3.54-1.08-.92-2.68-1.66-4.8-2.22l-2.94-.78c-2.68-.72-4.75-1.77-6.21-3.15-1.46-1.38-2.19-2.93-2.19-4.65,0-2.76.91-4.91,2.73-6.45,1.82-1.54,4.57-2.31,8.25-2.31,1.72,0,3.27.25,4.65.75,1.38.5,2.56,1.21,3.54,2.13.98.92,1.71,2.02,2.19,3.3l-3.24,1.38c-.64-1.56-1.58-2.66-2.82-3.3-1.24-.64-2.86-.96-4.86-.96-2.12,0-3.79.45-5.01,1.35-1.22.9-1.83,2.17-1.83,3.81,0,.88.49,1.75,1.47,2.61.98.86,2.45,1.55,4.41,2.07l2.58.66c1.96.48,3.63,1.17,5.01,2.07,1.38.9,2.44,1.93,3.18,3.09.74,1.16,1.11,2.44,1.11,3.84,0,1.8-.46,3.35-1.38,4.65-.92,1.3-2.17,2.29-3.75,2.97-1.58.68-3.39,1.02-5.43,1.02Z" style="fill: #fff;"/>
    <path d="M409.19,473.12c-.64,0-1.2-.24-1.68-.72s-.72-1.04-.72-1.68c0-.68.24-1.25.72-1.71.48-.46,1.04-.69,1.68-.69.68,0,1.25.23,1.71.69.46.46.69,1.03.69,1.71,0,.64-.23,1.2-.69,1.68-.46.48-1.03.72-1.71.72ZM407.33,510.92v-30h3.6v30h-3.6Z" style="fill: #fff;"/>
    <path d="M430.48,511.64c-2.28,0-4.24-.34-5.88-1.02-1.64-.68-2.97-1.56-3.99-2.64s-1.73-2.2-2.13-3.36l3.24-1.2c.68,1.48,1.77,2.67,3.27,3.57,1.5.9,3.11,1.35,4.83,1.35,2.12,0,3.92-.44,5.4-1.32,1.48-.88,2.22-2.12,2.22-3.72,0-1.44-.54-2.62-1.62-3.54-1.08-.92-2.68-1.66-4.8-2.22l-2.94-.78c-2.68-.72-4.75-1.77-6.21-3.15-1.46-1.38-2.19-2.93-2.19-4.65,0-2.76.91-4.91,2.73-6.45,1.82-1.54,4.57-2.31,8.25-2.31,1.72,0,3.27.25,4.65.75,1.38.5,2.56,1.21,3.54,2.13.98.92,1.71,2.02,2.19,3.3l-3.24,1.38c-.64-1.56-1.58-2.66-2.82-3.3-1.24-.64-2.86-.96-4.86-.96-2.12,0-3.79.45-5.01,1.35-1.22.9-1.83,2.17-1.83,3.81,0,.88.49,1.75,1.47,2.61.98.86,2.45,1.55,4.41,2.07l2.58.66c1.96.48,3.63,1.17,5.01,2.07,1.38.9,2.44,1.93,3.18,3.09.74,1.16,1.11,2.44,1.11,3.84,0,1.8-.46,3.35-1.38,4.65-.92,1.3-2.17,2.29-3.75,2.97-1.58.68-3.39,1.02-5.43,1.02Z" style="fill: #fff;"/>
    <path d="M472.66,511.64c-3.52,0-6.27-.81-8.25-2.43s-2.97-3.87-2.97-6.75.99-5.26,2.97-6.9c1.98-1.64,4.73-2.46,8.25-2.46h9v3.3h-8.52c-2.88,0-4.95.53-6.21,1.59-1.26,1.06-1.89,2.55-1.89,4.47s.65,3.28,1.95,4.32c1.3,1.04,3.11,1.56,5.43,1.56,1.92,0,3.57-.39,4.95-1.17s2.43-1.93,3.15-3.45c.72-1.52,1.08-3.4,1.08-5.64h2.1c0,4.08-.97,7.36-2.91,9.84-1.94,2.48-4.65,3.72-8.13,3.72ZM481.9,510.92l-.3-4.5v-11.58c0-2.56-.29-4.67-.87-6.33-.58-1.66-1.48-2.91-2.7-3.75-1.22-.84-2.81-1.26-4.77-1.26-1.8,0-3.31.36-4.53,1.08-1.22.72-2.23,1.84-3.03,3.36l-3.24-1.44c.84-1.44,1.79-2.62,2.85-3.54,1.06-.92,2.25-1.61,3.57-2.07,1.32-.46,2.78-.69,4.38-.69,2.68,0,4.9.54,6.66,1.62,1.76,1.08,3.08,2.7,3.96,4.86.88,2.16,1.32,4.88,1.32,8.16v16.08h-3.3Z" style="fill: #fff;"/>
    <path d="M527.14,511.64c-3.96,0-7.47-.93-10.53-2.79-3.06-1.86-5.46-4.42-7.2-7.68-1.74-3.26-2.61-7.01-2.61-11.25s.86-7.99,2.58-11.25c1.72-3.26,4.1-5.82,7.14-7.68,3.04-1.86,6.52-2.79,10.44-2.79,2.36,0,4.67.43,6.93,1.29,2.26.86,4.31,2.06,6.15,3.6,1.84,1.54,3.26,3.31,4.26,5.31l-3.18,1.98c-.84-1.72-2.01-3.23-3.51-4.53-1.5-1.3-3.17-2.32-5.01-3.06-1.84-.74-3.72-1.11-5.64-1.11-3.16,0-5.97.78-8.43,2.34s-4.39,3.71-5.79,6.45c-1.4,2.74-2.1,5.89-2.1,9.45s.7,6.78,2.1,9.54c1.4,2.76,3.35,4.92,5.85,6.48,2.5,1.56,5.35,2.34,8.55,2.34,1.96,0,3.86-.41,5.7-1.23,1.84-.82,3.51-1.95,5.01-3.39,1.5-1.44,2.67-3.08,3.51-4.92l3.18,1.98c-1.04,2.12-2.47,4.01-4.29,5.67-1.82,1.66-3.87,2.95-6.15,3.87-2.28.92-4.6,1.38-6.96,1.38Z" style="fill: #fff;"/>
    <path d="M564.4,511.64c-2.88,0-5.43-.67-7.65-2.01-2.22-1.34-3.96-3.19-5.22-5.55-1.26-2.36-1.89-5.08-1.89-8.16s.62-5.8,1.86-8.16c1.24-2.36,2.97-4.21,5.19-5.55,2.22-1.34,4.75-2.01,7.59-2.01s5.43.67,7.65,2.01c2.22,1.34,3.95,3.19,5.19,5.55,1.24,2.36,1.86,5.08,1.86,8.16s-.62,5.8-1.86,8.16c-1.24,2.36-2.96,4.21-5.16,5.55-2.2,1.34-4.72,2.01-7.56,2.01ZM564.4,508.34c2.16,0,4.06-.53,5.7-1.59,1.64-1.06,2.93-2.52,3.87-4.38.94-1.86,1.41-4.01,1.41-6.45s-.47-4.59-1.41-6.45c-.94-1.86-2.25-3.32-3.93-4.38-1.68-1.06-3.6-1.59-5.76-1.59s-4.07.53-5.73,1.59c-1.66,1.06-2.96,2.52-3.9,4.38-.94,1.86-1.41,4.01-1.41,6.45s.48,4.59,1.44,6.45c.96,1.86,2.28,3.32,3.96,4.38,1.68,1.06,3.6,1.59,5.76,1.59Z" style="fill: #fff;"/>
    <path d="M586.18,510.92v-30h3.36l.18,4.32c.92-1.64,2.11-2.89,3.57-3.75,1.46-.86,3.17-1.29,5.13-1.29,2.36,0,4.4.57,6.12,1.71,1.72,1.14,2.96,2.89,3.72,5.25.84-2.24,2.07-3.96,3.69-5.16,1.62-1.2,3.59-1.8,5.91-1.8,3.28,0,5.91,1.12,7.89,3.36,1.98,2.24,2.95,5.64,2.91,10.2v17.16h-3.6v-15.36c0-3.32-.35-5.84-1.05-7.56-.7-1.72-1.63-2.89-2.79-3.51-1.16-.62-2.48-.93-3.96-.93-2.52,0-4.49,1.05-5.91,3.15-1.42,2.1-2.13,5.03-2.13,8.79v15.42h-3.6v-15.36c0-3.32-.35-5.84-1.05-7.56-.7-1.72-1.63-2.89-2.79-3.51-1.16-.62-2.48-.93-3.96-.93-2.52,0-4.49,1.05-5.91,3.15-1.42,2.1-2.13,5.03-2.13,8.79v15.42h-3.6Z" style="fill: #fff;"/>
    <path d="M636.76,510.92v-30h3.36l.18,4.32c.92-1.64,2.11-2.89,3.57-3.75,1.46-.86,3.17-1.29,5.13-1.29,2.36,0,4.4.57,6.12,1.71,1.72,1.14,2.96,2.89,3.72,5.25.84-2.24,2.07-3.96,3.69-5.16,1.62-1.2,3.59-1.8,5.91-1.8,3.28,0,5.91,1.12,7.89,3.36,1.98,2.24,2.95,5.64,2.91,10.2v17.16h-3.6v-15.36c0-3.32-.35-5.84-1.05-7.56-.7-1.72-1.63-2.89-2.79-3.51-1.16-.62-2.48-.93-3.96-.93-2.52,0-4.49,1.05-5.91,3.15-1.42,2.1-2.13,5.03-2.13,8.79v15.42h-3.6v-15.36c0-3.32-.35-5.84-1.05-7.56-.7-1.72-1.63-2.89-2.79-3.51-1.16-.62-2.48-.93-3.96-.93-2.52,0-4.49,1.05-5.91,3.15-1.42,2.1-2.13,5.03-2.13,8.79v15.42h-3.6Z" style="fill: #fff;"/>
    <path d="M700.3,511.64c-2.88,0-5.43-.67-7.65-2.01-2.22-1.34-3.96-3.19-5.22-5.55-1.26-2.36-1.89-5.08-1.89-8.16s.62-5.8,1.86-8.16c1.24-2.36,2.97-4.21,5.19-5.55,2.22-1.34,4.75-2.01,7.59-2.01s5.43.67,7.65,2.01c2.22,1.34,3.95,3.19,5.19,5.55,1.24,2.36,1.86,5.08,1.86,8.16s-.62,5.8-1.86,8.16c-1.24,2.36-2.96,4.21-5.16,5.55-2.2,1.34-4.72,2.01-7.56,2.01ZM700.3,508.34c2.16,0,4.06-.53,5.7-1.59,1.64-1.06,2.93-2.52,3.87-4.38.94-1.86,1.41-4.01,1.41-6.45s-.47-4.59-1.41-6.45c-.94-1.86-2.25-3.32-3.93-4.38-1.68-1.06-3.6-1.59-5.76-1.59s-4.07.53-5.73,1.59c-1.66,1.06-2.96,2.52-3.9,4.38-.94,1.86-1.41,4.01-1.41,6.45s.48,4.59,1.44,6.45c.96,1.86,2.28,3.32,3.96,4.38,1.68,1.06,3.6,1.59,5.76,1.59Z" style="fill: #fff;"/>
    <path d="M722.08,510.92v-30h3.36l.24,5.52v24.48h-3.6ZM743.62,495.56c0-3.32-.39-5.84-1.17-7.56-.78-1.72-1.84-2.89-3.18-3.51-1.34-.62-2.85-.93-4.53-.93-2.84,0-5.06,1.05-6.66,3.15-1.6,2.1-2.4,5.03-2.4,8.79h-2.22c0-3.2.46-5.94,1.38-8.22.92-2.28,2.27-4.03,4.05-5.25,1.78-1.22,3.95-1.83,6.51-1.83,2.32,0,4.37.47,6.15,1.41,1.78.94,3.18,2.43,4.2,4.47s1.51,4.74,1.47,8.1v1.38h-3.6ZM743.62,510.92v-15.36h3.6v15.36h-3.6Z" style="fill: #fff;"/>
    <path d="M755.32,510.92v-42h3.6v42h-3.6ZM776.86,495.56c0-3.32-.39-5.84-1.17-7.56-.78-1.72-1.84-2.89-3.18-3.51-1.34-.62-2.85-.93-4.53-.93-2.84,0-5.06,1.05-6.66,3.15-1.6,2.1-2.4,5.03-2.4,8.79h-2.22c0-3.2.46-5.94,1.38-8.22.92-2.28,2.27-4.03,4.05-5.25,1.78-1.22,3.95-1.83,6.51-1.83,2.32,0,4.37.47,6.15,1.41,1.78.94,3.18,2.43,4.2,4.47s1.51,4.74,1.47,8.1v1.38h-3.6ZM776.86,510.92v-15.36h3.6v15.36h-3.6Z" style="fill: #fff;"/>
    <path d="M797.98,511.64c-3.52,0-6.27-.81-8.25-2.43s-2.97-3.87-2.97-6.75.99-5.26,2.97-6.9c1.98-1.64,4.73-2.46,8.25-2.46h9v3.3h-8.52c-2.88,0-4.95.53-6.21,1.59-1.26,1.06-1.89,2.55-1.89,4.47s.65,3.28,1.95,4.32c1.3,1.04,3.11,1.56,5.43,1.56,1.92,0,3.57-.39,4.95-1.17s2.43-1.93,3.15-3.45c.72-1.52,1.08-3.4,1.08-5.64h2.1c0,4.08-.97,7.36-2.91,9.84-1.94,2.48-4.65,3.72-8.13,3.72ZM807.22,510.92l-.3-4.5v-11.58c0-2.56-.29-4.67-.87-6.33-.58-1.66-1.48-2.91-2.7-3.75-1.22-.84-2.81-1.26-4.77-1.26-1.8,0-3.31.36-4.53,1.08-1.22.72-2.23,1.84-3.03,3.36l-3.24-1.44c.84-1.44,1.79-2.62,2.85-3.54,1.06-.92,2.25-1.61,3.57-2.07,1.32-.46,2.78-.69,4.38-.69,2.68,0,4.9.54,6.66,1.62,1.76,1.08,3.08,2.7,3.96,4.86.88,2.16,1.32,4.88,1.32,8.16v16.08h-3.3Z" style="fill: #fff;"/>
    <path d="M817.72,496.28v-15.36h3.6v15.36h-3.6ZM821.32,496.28c0,3.32.39,5.84,1.17,7.56.78,1.72,1.85,2.89,3.21,3.51,1.36.62,2.86.93,4.5.93,2.84,0,5.06-1.05,6.66-3.15,1.6-2.1,2.4-5.03,2.4-8.79h2.22c0,3.2-.46,5.94-1.38,8.22-.92,2.28-2.26,4.03-4.02,5.25-1.76,1.22-3.94,1.83-6.54,1.83-2.28,0-4.32-.47-6.12-1.41-1.8-.94-3.2-2.44-4.2-4.5-1-2.06-1.5-4.75-1.5-8.07v-1.38h3.6ZM839.5,510.92l-.24-5.52v-24.48h3.6v30h-3.36Z" style="fill: #fff;"/>
    <path d="M862.06,511.64c-2.28,0-4.24-.34-5.88-1.02-1.64-.68-2.97-1.56-3.99-2.64s-1.73-2.2-2.13-3.36l3.24-1.2c.68,1.48,1.77,2.67,3.27,3.57,1.5.9,3.11,1.35,4.83,1.35,2.12,0,3.92-.44,5.4-1.32,1.48-.88,2.22-2.12,2.22-3.72,0-1.44-.54-2.62-1.62-3.54-1.08-.92-2.68-1.66-4.8-2.22l-2.94-.78c-2.68-.72-4.75-1.77-6.21-3.15-1.46-1.38-2.19-2.93-2.19-4.65,0-2.76.91-4.91,2.73-6.45,1.82-1.54,4.57-2.31,8.25-2.31,1.72,0,3.27.25,4.65.75,1.38.5,2.56,1.21,3.54,2.13.98.92,1.71,2.02,2.19,3.3l-3.24,1.38c-.64-1.56-1.58-2.66-2.82-3.3-1.24-.64-2.86-.96-4.86-.96-2.12,0-3.79.45-5.01,1.35-1.22.9-1.83,2.17-1.83,3.81,0,.88.49,1.75,1.47,2.61.98.86,2.45,1.55,4.41,2.07l2.58.66c1.96.48,3.63,1.17,5.01,2.07,1.38.9,2.44,1.93,3.18,3.09.74,1.16,1.11,2.44,1.11,3.84,0,1.8-.46,3.35-1.38,4.65-.92,1.3-2.17,2.29-3.75,2.97-1.58.68-3.39,1.02-5.43,1.02Z" style="fill: #fff;"/>
    <path d="M896.32,510.92v-42h24.18v3.48h-20.34v16.02h18.3v3.48h-18.3v19.02h-3.84Z" style="fill: #fff;"/>
    <path d="M939.82,511.64c-2.88,0-5.43-.67-7.65-2.01-2.22-1.34-3.96-3.19-5.22-5.55-1.26-2.36-1.89-5.08-1.89-8.16s.62-5.8,1.86-8.16c1.24-2.36,2.97-4.21,5.19-5.55,2.22-1.34,4.75-2.01,7.59-2.01s5.43.67,7.65,2.01c2.22,1.34,3.95,3.19,5.19,5.55,1.24,2.36,1.86,5.08,1.86,8.16s-.62,5.8-1.86,8.16c-1.24,2.36-2.96,4.21-5.16,5.55-2.2,1.34-4.72,2.01-7.56,2.01ZM939.82,508.34c2.16,0,4.06-.53,5.7-1.59,1.64-1.06,2.93-2.52,3.87-4.38.94-1.86,1.41-4.01,1.41-6.45s-.47-4.59-1.41-6.45c-.94-1.86-2.25-3.32-3.93-4.38-1.68-1.06-3.6-1.59-5.76-1.59s-4.07.53-5.73,1.59c-1.66,1.06-2.96,2.52-3.9,4.38-.94,1.86-1.41,4.01-1.41,6.45s.48,4.59,1.44,6.45c.96,1.86,2.28,3.32,3.96,4.38,1.68,1.06,3.6,1.59,5.76,1.59Z" style="fill: #fff;"/>
    <path d="M960.7,496.28v-15.36h3.6v15.36h-3.6ZM964.3,496.28c0,3.32.39,5.84,1.17,7.56.78,1.72,1.85,2.89,3.21,3.51,1.36.62,2.86.93,4.5.93,2.84,0,5.06-1.05,6.66-3.15,1.6-2.1,2.4-5.03,2.4-8.79h2.22c0,3.2-.46,5.94-1.38,8.22-.92,2.28-2.26,4.03-4.02,5.25-1.76,1.22-3.94,1.83-6.54,1.83-2.28,0-4.32-.47-6.12-1.41-1.8-.94-3.2-2.44-4.2-4.5-1-2.06-1.5-4.75-1.5-8.07v-1.38h3.6ZM982.48,510.92l-.24-5.52v-24.48h3.6v30h-3.36Z" style="fill: #fff;"/>
    <path d="M994.84,510.92v-30h3.36l.24,5.52v24.48h-3.6ZM1016.38,495.56c0-3.32-.39-5.84-1.17-7.56-.78-1.72-1.84-2.89-3.18-3.51-1.34-.62-2.85-.93-4.53-.93-2.84,0-5.06,1.05-6.66,3.15-1.6,2.1-2.4,5.03-2.4,8.79h-2.22c0-3.2.46-5.94,1.38-8.22.92-2.28,2.27-4.03,4.05-5.25,1.78-1.22,3.95-1.83,6.51-1.83,2.32,0,4.37.47,6.15,1.41,1.78.94,3.18,2.43,4.2,4.47s1.51,4.74,1.47,8.1v1.38h-3.6ZM1016.38,510.92v-15.36h3.6v15.36h-3.6Z" style="fill: #fff;"/>
    <path d="M1039.83,511.64c-2.64,0-4.98-.67-7.02-2.01-2.04-1.34-3.64-3.2-4.8-5.58-1.16-2.38-1.74-5.09-1.74-8.13s.58-5.8,1.74-8.16c1.16-2.36,2.76-4.21,4.8-5.55,2.04-1.34,4.38-2.01,7.02-2.01s4.81.67,6.75,2.01c1.94,1.34,3.46,3.19,4.56,5.55,1.1,2.36,1.65,5.08,1.65,8.16s-.55,5.75-1.65,8.13c-1.1,2.38-2.62,4.24-4.56,5.58-1.94,1.34-4.19,2.01-6.75,2.01ZM1040.55,508.4c1.92,0,3.62-.53,5.1-1.59,1.48-1.06,2.64-2.53,3.48-4.41.84-1.88,1.26-4.04,1.26-6.48s-.42-4.6-1.26-6.48c-.84-1.88-2-3.35-3.48-4.41-1.48-1.06-3.2-1.59-5.16-1.59-2.08,0-3.92.53-5.52,1.59-1.6,1.06-2.85,2.53-3.75,4.41-.9,1.88-1.35,4.04-1.35,6.48s.46,4.6,1.38,6.48c.92,1.88,2.18,3.35,3.78,4.41,1.6,1.06,3.44,1.59,5.52,1.59ZM1050.57,510.92l-.18-5.58v-36.42h3.6v42h-3.42Z" style="fill: #fff;"/>
    <path d="M1072.41,511.64c-3.52,0-6.27-.81-8.25-2.43s-2.97-3.87-2.97-6.75.99-5.26,2.97-6.9c1.98-1.64,4.73-2.46,8.25-2.46h9v3.3h-8.52c-2.88,0-4.95.53-6.21,1.59-1.26,1.06-1.89,2.55-1.89,4.47s.65,3.28,1.95,4.32c1.3,1.04,3.11,1.56,5.43,1.56,1.92,0,3.57-.39,4.95-1.17s2.43-1.93,3.15-3.45c.72-1.52,1.08-3.4,1.08-5.64h2.1c0,4.08-.97,7.36-2.91,9.84-1.94,2.48-4.65,3.72-8.13,3.72ZM1081.65,510.92l-.3-4.5v-11.58c0-2.56-.29-4.67-.87-6.33-.58-1.66-1.48-2.91-2.7-3.75-1.22-.84-2.81-1.26-4.77-1.26-1.8,0-3.31.36-4.53,1.08-1.22.72-2.23,1.84-3.03,3.36l-3.24-1.44c.84-1.44,1.79-2.62,2.85-3.54,1.06-.92,2.25-1.61,3.57-2.07,1.32-.46,2.78-.69,4.38-.69,2.68,0,4.9.54,6.66,1.62,1.76,1.08,3.08,2.7,3.96,4.86.88,2.16,1.32,4.88,1.32,8.16v16.08h-3.3Z" style="fill: #fff;"/>
    <path d="M1089.75,484.22v-3.3h18.48v3.3h-18.48ZM1103.91,511.64c-2.76,0-4.92-.73-6.48-2.19-1.56-1.46-2.34-3.53-2.34-6.21v-31.68h3.6v31.68c0,1.6.46,2.85,1.38,3.75.92.9,2.2,1.35,3.84,1.35.48,0,.95-.07,1.41-.21.46-.14,1.13-.51,2.01-1.11l1.5,3.12c-1.08.64-1.98,1.05-2.7,1.23-.72.18-1.46.27-2.22.27Z" style="fill: #fff;"/>
    <path d="M1117.23,473.12c-.64,0-1.2-.24-1.68-.72s-.72-1.04-.72-1.68c0-.68.24-1.25.72-1.71.48-.46,1.04-.69,1.68-.69.68,0,1.25.23,1.71.69.46.46.69,1.03.69,1.71,0,.64-.23,1.2-.69,1.68-.46.48-1.03.72-1.71.72ZM1115.37,510.92v-30h3.6v30h-3.6Z" style="fill: #fff;"/>
    <path d="M1141.29,511.64c-2.88,0-5.43-.67-7.65-2.01-2.22-1.34-3.96-3.19-5.22-5.55-1.26-2.36-1.89-5.08-1.89-8.16s.62-5.8,1.86-8.16c1.24-2.36,2.97-4.21,5.19-5.55,2.22-1.34,4.75-2.01,7.59-2.01s5.43.67,7.65,2.01c2.22,1.34,3.95,3.19,5.19,5.55,1.24,2.36,1.86,5.08,1.86,8.16s-.62,5.8-1.86,8.16c-1.24,2.36-2.96,4.21-5.16,5.55-2.2,1.34-4.72,2.01-7.56,2.01ZM1141.29,508.34c2.16,0,4.06-.53,5.7-1.59,1.64-1.06,2.93-2.52,3.87-4.38.94-1.86,1.41-4.01,1.41-6.45s-.47-4.59-1.41-6.45c-.94-1.86-2.25-3.32-3.93-4.38-1.68-1.06-3.6-1.59-5.76-1.59s-4.07.53-5.73,1.59c-1.66,1.06-2.96,2.52-3.9,4.38-.94,1.86-1.41,4.01-1.41,6.45s.48,4.59,1.44,6.45c.96,1.86,2.28,3.32,3.96,4.38,1.68,1.06,3.6,1.59,5.76,1.59Z" style="fill: #fff;"/>
    <path d="M1163.07,510.92v-30h3.36l.24,5.52v24.48h-3.6ZM1184.61,495.56c0-3.32-.39-5.84-1.17-7.56-.78-1.72-1.84-2.89-3.18-3.51-1.34-.62-2.85-.93-4.53-.93-2.84,0-5.06,1.05-6.66,3.15-1.6,2.1-2.4,5.03-2.4,8.79h-2.22c0-3.2.46-5.94,1.38-8.22.92-2.28,2.27-4.03,4.05-5.25,1.78-1.22,3.95-1.83,6.51-1.83,2.32,0,4.37.47,6.15,1.41,1.78.94,3.18,2.43,4.2,4.47s1.51,4.74,1.47,8.1v1.38h-3.6ZM1184.61,510.92v-15.36h3.6v15.36h-3.6Z" style="fill: #fff;"/>
    <path d="M1211.61,522.92v-42h3.36l.24,5.52v36.48h-3.6ZM1225.77,511.64c-2.52,0-4.76-.67-6.72-2.01-1.96-1.34-3.49-3.2-4.59-5.58-1.1-2.38-1.65-5.09-1.65-8.13s.55-5.8,1.65-8.16c1.1-2.36,2.63-4.21,4.59-5.55,1.96-1.34,4.2-2.01,6.72-2.01s4.98.67,7.02,2.01c2.04,1.34,3.64,3.19,4.8,5.55,1.16,2.36,1.74,5.08,1.74,8.16s-.58,5.75-1.74,8.13c-1.16,2.38-2.76,4.24-4.8,5.58s-4.38,2.01-7.02,2.01ZM1225.05,508.4c2.08,0,3.92-.53,5.52-1.59,1.6-1.06,2.86-2.53,3.78-4.41.92-1.88,1.38-4.04,1.38-6.48s-.45-4.6-1.35-6.48c-.9-1.88-2.15-3.35-3.75-4.41-1.6-1.06-3.44-1.59-5.52-1.59-1.92,0-3.63.53-5.13,1.59-1.5,1.06-2.67,2.53-3.51,4.41-.84,1.88-1.26,4.04-1.26,6.48s.42,4.6,1.26,6.48c.84,1.88,2,3.35,3.48,4.41,1.48,1.06,3.18,1.59,5.1,1.59Z" style="fill: #fff;"/>
    <path d="M1246.53,510.92v-30h3.6v30h-3.6ZM1248.03,494.48c0-3.24.61-5.86,1.83-7.86,1.22-2,2.8-3.47,4.74-4.41,1.94-.94,3.99-1.41,6.15-1.41v3.3c-1.76,0-3.45.31-5.07.93-1.62.62-2.95,1.66-3.99,3.12-1.04,1.46-1.56,3.45-1.56,5.97l-2.1.36Z" style="fill: #fff;"/>
    <path d="M1278.81,511.64c-2.88,0-5.43-.67-7.65-2.01-2.22-1.34-3.96-3.19-5.22-5.55-1.26-2.36-1.89-5.08-1.89-8.16s.62-5.8,1.86-8.16c1.24-2.36,2.97-4.21,5.19-5.55,2.22-1.34,4.75-2.01,7.59-2.01s5.43.67,7.65,2.01c2.22,1.34,3.95,3.19,5.19,5.55,1.24,2.36,1.86,5.08,1.86,8.16s-.62,5.8-1.86,8.16c-1.24,2.36-2.96,4.21-5.16,5.55-2.2,1.34-4.72,2.01-7.56,2.01ZM1278.81,508.34c2.16,0,4.06-.53,5.7-1.59,1.64-1.06,2.93-2.52,3.87-4.38.94-1.86,1.41-4.01,1.41-6.45s-.47-4.59-1.41-6.45c-.94-1.86-2.25-3.32-3.93-4.38-1.68-1.06-3.6-1.59-5.76-1.59s-4.07.53-5.73,1.59c-1.66,1.06-2.96,2.52-3.9,4.38-.94,1.86-1.41,4.01-1.41,6.45s.48,4.59,1.44,6.45c.96,1.86,2.28,3.32,3.96,4.38,1.68,1.06,3.6,1.59,5.76,1.59Z" style="fill: #fff;"/>
    <path d="M1298.43,523.82c-1.2,0-2.98-.48-5.34-1.44l1.32-3.06c1.04.4,1.92.7,2.64.9.72.2,1.28.3,1.68.3,3.04,0,4.56-1.94,4.56-5.82v-33.78h3.6v33.78c0,3.04-.7,5.32-2.1,6.84-1.4,1.52-3.52,2.28-6.36,2.28ZM1305.09,473c-.64,0-1.2-.24-1.68-.72s-.72-1.04-.72-1.68c0-.68.24-1.25.72-1.71.48-.46,1.04-.69,1.68-.69.68,0,1.25.23,1.71.69.46.46.69,1.03.69,1.71,0,.64-.23,1.2-.69,1.68-.46.48-1.03.72-1.71.72Z" style="fill: #fff;"/>
    <path d="M1329.15,511.64c-2.88,0-5.43-.67-7.65-2.01-2.22-1.34-3.96-3.19-5.22-5.55-1.26-2.36-1.89-5.08-1.89-8.16s.62-5.8,1.86-8.16c1.24-2.36,2.95-4.21,5.13-5.55,2.18-1.34,4.67-2.01,7.47-2.01s5.25.69,7.23,2.07,3.49,3.28,4.53,5.7c1.04,2.42,1.56,5.21,1.56,8.37h-25.62l1.38-1.14c0,2.76.46,5.12,1.38,7.08.92,1.96,2.23,3.46,3.93,4.5,1.7,1.04,3.67,1.56,5.91,1.56s4.29-.57,5.91-1.71,2.89-2.61,3.81-4.41l3,1.86c-.76,1.48-1.75,2.79-2.97,3.93-1.22,1.14-2.65,2.03-4.29,2.67-1.64.64-3.46.96-5.46.96ZM1318.23,494.12l-1.5-1.08h23.1l-1.5,1.14c0-2.12-.39-3.98-1.17-5.58-.78-1.6-1.87-2.85-3.27-3.75-1.4-.9-3.08-1.35-5.04-1.35s-3.69.45-5.31,1.35c-1.62.9-2.91,2.14-3.87,3.72-.96,1.58-1.44,3.43-1.44,5.55Z" style="fill: #fff;"/>
    <path d="M1361.73,511.64c-2.88,0-5.43-.67-7.65-2.01-2.22-1.34-3.96-3.19-5.22-5.55-1.26-2.36-1.89-5.08-1.89-8.16s.62-5.8,1.86-8.16c1.24-2.36,2.97-4.21,5.19-5.55,2.22-1.34,4.75-2.01,7.59-2.01s5.36.63,7.56,1.89c2.2,1.26,3.9,3.01,5.1,5.25l-3.12,1.68c-.92-1.72-2.21-3.07-3.87-4.05-1.66-.98-3.55-1.47-5.67-1.47s-4.07.53-5.73,1.59c-1.66,1.06-2.96,2.52-3.9,4.38-.94,1.86-1.41,4.01-1.41,6.45s.48,4.59,1.44,6.45c.96,1.86,2.28,3.32,3.96,4.38,1.68,1.06,3.6,1.59,5.76,1.59s4.08-.55,5.76-1.65c1.68-1.1,2.96-2.63,3.84-4.59l3.18,1.68c-1.2,2.44-2.91,4.36-5.13,5.76-2.22,1.4-4.77,2.1-7.65,2.1Z" style="fill: #fff;"/>
    <path d="M1377.81,484.22v-3.3h18.48v3.3h-18.48ZM1391.97,511.64c-2.76,0-4.92-.73-6.48-2.19-1.56-1.46-2.34-3.53-2.34-6.21v-31.68h3.6v31.68c0,1.6.46,2.85,1.38,3.75.92.9,2.2,1.35,3.84,1.35.48,0,.95-.07,1.41-.21.46-.14,1.13-.51,2.01-1.11l1.5,3.12c-1.08.64-1.98,1.05-2.7,1.23-.72.18-1.46.27-2.22.27Z" style="fill: #fff;"/>
  </g>
</svg>