<?xml version="1.0" encoding="UTF-8"?>
<svg id="Layer_1" data-name="Layer 1" xmlns="http://www.w3.org/2000/svg" viewBox="0 0 1350 286">
  <g>
    <path d="m380.17,113.5c8.45,4.98,18.14,7.47,29.06,7.47,7.81,0,15.04-1.39,21.67-4.17,6.63-2.78,12.44-6.69,17.42-11.72,4.98-5.03,8.8-10.81,11.48-17.34l-20.39-7.38c-1.82,4.07-4.2,7.65-7.14,10.76-2.94,3.11-6.32,5.54-10.11,7.31-3.8,1.77-8,2.65-12.6,2.65-6.64,0-12.52-1.63-17.66-4.9-5.14-3.26-9.15-7.76-12.04-13.49-2.89-5.72-4.33-12.33-4.33-19.83s1.42-14.07,4.25-19.75c2.83-5.67,6.8-10.14,11.88-13.41,5.08-3.26,10.89-4.9,17.42-4.9,4.5,0,8.67.83,12.52,2.49,3.85,1.66,7.28,3.96,10.27,6.9,3,2.94,5.4,6.4,7.22,10.35l20.39-7.54c-2.68-6.31-6.5-11.91-11.48-16.78-4.98-4.87-10.78-8.67-17.42-11.4-6.64-2.73-13.81-4.09-21.51-4.09-10.92,0-20.58,2.49-28.98,7.46-8.4,4.98-15.01,11.83-19.83,20.55-4.82,8.72-7.22,18.76-7.22,30.1s2.41,21.38,7.22,30.1c4.82,8.72,11.45,15.57,19.91,20.55Z" style="fill: #fff;"/>
    <path d="m545.37,100.74c3.53-6.31,5.3-13.59,5.3-21.83s-1.77-15.52-5.3-21.83c-3.53-6.31-8.46-11.26-14.77-14.85-6.32-3.58-13.59-5.38-21.83-5.38s-15.36,1.79-21.67,5.38c-6.32,3.59-11.24,8.54-14.77,14.85-3.53,6.32-5.3,13.59-5.3,21.83s1.79,15.52,5.38,21.83c3.58,6.32,8.53,11.27,14.85,14.85,6.31,3.59,13.59,5.38,21.83,5.38s15.33-1.79,21.59-5.38c6.26-3.58,11.16-8.53,14.69-14.85Zm-18.94-10.19c-1.71,3.37-4.04,6.02-6.98,7.95-2.94,1.93-6.4,2.89-10.35,2.89s-7.49-.96-10.6-2.89c-3.11-1.93-5.51-4.57-7.22-7.95-1.71-3.37-2.57-7.25-2.57-11.64s.86-8.27,2.57-11.64c1.71-3.37,4.09-6.02,7.14-7.95,3.05-1.93,6.55-2.89,10.51-2.89s7.31.96,10.36,2.89c3.05,1.93,5.43,4.57,7.14,7.95,1.71,3.37,2.57,7.25,2.57,11.64s-.86,8.27-2.57,11.64Z" style="fill: #fff;"/>
    <path d="m635.11,119.04v-42.06c0-6.74,1.39-11.82,4.17-15.25,2.78-3.42,6.74-5.08,11.88-4.98,2.78,0,5.19.67,7.22,2.01,2.03,1.34,3.64,3.51,4.82,6.5,1.18,3,1.77,7.22,1.77,12.68v41.1h21.19v-45.91c0-12.31-2.46-21.43-7.38-27.37-4.92-5.94-12.1-8.91-21.51-8.91-5.67,0-10.65,1.47-14.93,4.41-4.28,2.94-7.6,7.14-9.95,12.6-2.03-5.78-5.27-10.06-9.71-12.84-4.44-2.78-9.93-4.17-16.46-4.17-4.71,0-8.99,1.04-12.84,3.13-3.85,2.09-7.01,5.16-9.47,9.23l-.96-10.44h-19.91v80.27h21.19v-42.06c0-6.74,1.37-11.82,4.09-15.25,2.73-3.42,6.66-5.08,11.8-4.98,2.78,0,5.22.67,7.3,2.01,2.09,1.34,3.69,3.51,4.82,6.5,1.12,3,1.69,7.22,1.69,12.68v41.1h21.19Z" style="fill: #fff;"/>
    <path d="m803.36,119.04h21.19v-45.91c0-12.31-2.46-21.43-7.38-27.37-4.92-5.94-12.1-8.91-21.51-8.91-5.67,0-10.65,1.47-14.93,4.41-4.28,2.94-7.6,7.14-9.95,12.6-2.03-5.78-5.27-10.06-9.71-12.84-4.44-2.78-9.93-4.17-16.46-4.17-4.71,0-8.99,1.04-12.84,3.13-3.85,2.09-7.01,5.16-9.47,9.23l-.96-10.44h-19.91v80.27h21.19v-42.06c0-6.74,1.37-11.82,4.09-15.25,2.73-3.42,6.66-5.08,11.8-4.98,2.78,0,5.22.67,7.3,2.01,2.09,1.34,3.69,3.51,4.82,6.5,1.12,3,1.69,7.22,1.69,12.68v41.1h21.19v-42.06c0-6.74,1.39-11.82,4.17-15.25,2.78-3.42,6.74-5.08,11.88-4.98,2.78,0,5.19.67,7.22,2.01,2.03,1.34,3.64,3.51,4.82,6.5,1.18,3,1.77,7.22,1.77,12.68v41.1Z" style="fill: #fff;"/>
    <path d="m913.81,100.74c3.53-6.31,5.3-13.59,5.3-21.83s-1.77-15.52-5.3-21.83c-3.53-6.31-8.46-11.26-14.77-14.85-6.32-3.58-13.59-5.38-21.83-5.38s-15.36,1.79-21.67,5.38c-6.32,3.59-11.24,8.54-14.77,14.85-3.53,6.32-5.3,13.59-5.3,21.83s1.79,15.52,5.38,21.83c3.58,6.32,8.53,11.27,14.85,14.85,6.31,3.59,13.59,5.38,21.83,5.38s15.33-1.79,21.59-5.38c6.26-3.58,11.16-8.53,14.69-14.85Zm-18.94-10.19c-1.71,3.37-4.04,6.02-6.98,7.95-2.94,1.93-6.4,2.89-10.35,2.89s-7.49-.96-10.6-2.89c-3.11-1.93-5.51-4.57-7.22-7.95-1.71-3.37-2.57-7.25-2.57-11.64s.86-8.27,2.57-11.64c1.71-3.37,4.09-6.02,7.14-7.95,3.05-1.93,6.55-2.89,10.51-2.89s7.31.96,10.35,2.89c3.05,1.93,5.43,4.57,7.14,7.95,1.71,3.37,2.57,7.25,2.57,11.64s-.86,8.27-2.57,11.64Z" style="fill: #fff;"/>
    <path d="m1005.79,119.04v-45.43c.11-8.56-1.02-15.54-3.37-20.95-2.36-5.4-5.78-9.39-10.27-11.96s-9.9-3.85-16.21-3.85-11.43,1.58-15.97,4.74c-2.99,2.08-5.53,4.77-7.65,8.05l-.94-10.85h-19.91v80.27h21.19v-42.06c0-6.74,1.47-11.82,4.41-15.25,2.94-3.42,7.14-5.08,12.6-4.98,3,0,5.62.67,7.87,2.01,2.25,1.34,3.99,3.51,5.22,6.5,1.23,3,1.85,7.22,1.85,12.68v41.1h21.19Z" style="fill: #fff;"/>
    <path d="m1095.7,119.04v-45.43c0-8.56-1.18-15.54-3.53-20.95-2.36-5.4-5.75-9.39-10.19-11.96-4.44-2.57-9.87-3.85-16.29-3.85s-11.43,1.58-15.97,4.74c-2.83,1.96-5.26,4.47-7.3,7.5V6.66h-21.19v112.38h21.19v-42.06c0-6.74,1.47-11.82,4.41-15.25,2.94-3.42,7.14-5.08,12.6-4.98,3,0,5.62.67,7.87,2.01,2.25,1.34,4.01,3.51,5.3,6.5,1.28,3,1.93,7.22,1.93,12.68v41.1h21.19Z" style="fill: #fff;"/>
    <path d="m1163.85,41.5c-5.41-3.1-12.18-4.66-20.31-4.66-6.74,0-12.44,1.04-17.1,3.13-4.66,2.09-8.43,4.76-11.32,8.03-2.89,3.27-5.08,6.61-6.58,10.03l18.62,6.42c1.93-3.1,4.28-5.4,7.06-6.9,2.78-1.5,5.88-2.25,9.31-2.25,3.75,0,6.72.94,8.91,2.81,2.19,1.87,3.8,4.52,4.82,7.95.41,1.38.71,2.89.96,4.49h-18.86c-10.38,0-18.44,2.17-24.16,6.5-5.73,4.33-8.59,10.78-8.59,19.35,0,7.81,2.65,13.86,7.95,18.14,5.3,4.28,12.76,6.42,22.39,6.42s16.67-3.05,20.79-9.15c.47-.69.9-1.42,1.31-2.18l.37,9.4h19.75l.48-44.47c.11-7.71-1.15-14.37-3.77-19.99-2.62-5.62-6.64-9.98-12.04-13.08Zm-7.47,52.9c-1.61,2.62-3.77,4.76-6.5,6.42-2.73,1.66-5.86,2.49-9.39,2.49-3.85,0-6.85-.67-8.99-2.01-2.14-1.34-3.21-3.18-3.21-5.54,0-3,1.34-5.32,4.01-6.98,2.67-1.66,7.49-2.49,14.45-2.49h12.04c0,2.78-.8,5.49-2.41,8.11Z" style="fill: #fff;"/>
    <path d="m1246.6,80.83c0,6.64-1.44,11.69-4.33,15.17-2.89,3.48-7.12,5.16-12.68,5.06-2.89,0-5.49-.67-7.79-2.01-2.3-1.34-4.07-3.53-5.3-6.58-1.23-3.05-1.85-7.25-1.85-12.6v-41.1h-21.19v45.43c0,8.56,1.15,15.55,3.45,20.95,2.3,5.41,5.7,9.39,10.19,11.96,4.49,2.57,9.95,3.85,16.37,3.85s11.4-1.58,15.89-4.74c2.94-2.06,5.46-4.73,7.57-7.98l.94,10.79h19.91V38.77h-21.19v42.06Z" style="fill: #fff;"/>
    <path d="m1344.77,86.37c-1.44-3.48-3.75-6.64-6.9-9.47-3.16-2.83-7.36-4.9-12.6-6.18l-10.44-2.57c-2.78-.64-4.92-1.42-6.42-2.33-1.5-.91-2.25-2.06-2.25-3.45,0-2.14.78-3.82,2.33-5.06,1.55-1.23,3.77-1.85,6.66-1.85s5.78.67,8.67,2.01c2.89,1.34,4.71,3.08,5.46,5.22l17.5-8.03c-1.18-3.53-3.32-6.63-6.42-9.31-3.11-2.67-6.82-4.76-11.16-6.26-4.33-1.5-9.02-2.25-14.05-2.25-9.74,0-17.26,2.25-22.56,6.74-5.3,4.5-7.95,10.86-7.95,19.1,0,5.78,2.22,10.89,6.66,15.33,4.44,4.44,10.52,7.68,18.22,9.71l7.38,1.93c2.67.64,4.79,1.42,6.34,2.33,1.55.91,2.33,2.33,2.33,4.25s-.96,3.4-2.89,4.41c-1.93,1.02-4.66,1.53-8.19,1.53s-6.85-.94-9.63-2.81c-2.78-1.87-4.98-4.09-6.58-6.66l-18.14,8.35c1.93,4.28,4.6,7.89,8.03,10.84,3.42,2.94,7.39,5.19,11.88,6.74,4.5,1.55,9.31,2.33,14.45,2.33,6.21,0,11.74-1.02,16.62-3.05,4.87-2.03,8.72-4.9,11.56-8.59,2.83-3.69,4.25-7.95,4.25-12.76,0-3.32-.72-6.71-2.17-10.19Z" style="fill: #fff;"/>
    <polygon points="359.62 282.07 381.62 282.07 381.62 236.8 423.36 236.8 423.36 216.73 381.62 216.73 381.62 189.76 431.71 189.76 431.71 169.7 359.62 169.7 359.62 282.07" style="fill: #fff;"/>
    <path d="m501.86,205.26c-6.32-3.59-13.59-5.38-21.83-5.38s-15.36,1.79-21.67,5.38c-6.32,3.59-11.24,8.54-14.77,14.85-3.53,6.32-5.3,13.59-5.3,21.83s1.79,15.52,5.38,21.83c3.58,6.32,8.53,11.27,14.85,14.85,6.31,3.58,13.59,5.38,21.83,5.38s15.33-1.79,21.59-5.38c6.26-3.58,11.16-8.53,14.69-14.85,3.53-6.31,5.3-13.59,5.3-21.83s-1.77-15.52-5.3-21.83c-3.53-6.31-8.46-11.26-14.77-14.85Zm-4.17,48.32c-1.71,3.37-4.04,6.02-6.98,7.95-2.94,1.93-6.4,2.89-10.35,2.89s-7.49-.96-10.6-2.89c-3.11-1.93-5.51-4.57-7.22-7.95-1.71-3.37-2.57-7.25-2.57-11.64s.86-8.27,2.57-11.64c1.71-3.37,4.09-6.02,7.14-7.95,3.05-1.93,6.55-2.89,10.52-2.89s7.3.96,10.35,2.89c3.05,1.93,5.43,4.57,7.14,7.95,1.71,3.37,2.57,7.25,2.57,11.64s-.86,8.27-2.57,11.64Z" style="fill: #fff;"/>
    <path d="m585.98,243.86c0,6.64-1.45,11.69-4.34,15.17-2.89,3.48-7.12,5.17-12.68,5.06-2.89,0-5.49-.67-7.79-2.01-2.3-1.34-4.07-3.53-5.3-6.58-1.23-3.05-1.85-7.25-1.85-12.6v-41.1h-21.19v45.43c0,8.56,1.15,15.55,3.45,20.95,2.3,5.41,5.7,9.39,10.19,11.96,4.5,2.57,9.95,3.85,16.38,3.85s11.4-1.58,15.89-4.74c2.94-2.06,5.46-4.73,7.57-7.98l.94,10.79h19.91v-80.27h-21.19v42.06Z" style="fill: #fff;"/>
    <path d="m684.55,203.73c-4.5-2.57-9.9-3.85-16.21-3.85s-11.43,1.58-15.97,4.74c-2.99,2.08-5.53,4.77-7.65,8.05l-.94-10.85h-19.91v80.27h21.19v-42.06c0-6.74,1.47-11.82,4.42-15.25,2.94-3.42,7.14-5.08,12.6-4.98,3,0,5.62.67,7.87,2.01,2.25,1.34,3.99,3.51,5.22,6.5,1.23,3,1.85,7.22,1.85,12.68v41.1h21.19v-45.43c.11-8.56-1.02-15.55-3.37-20.95-2.36-5.4-5.78-9.39-10.27-11.96Z" style="fill: #fff;"/>
    <path d="m769.48,212.42c-1.96-2.94-4.28-5.42-6.98-7.41-4.66-3.42-10.35-5.14-17.1-5.14-7.38,0-13.78,1.71-19.18,5.14-5.41,3.43-9.61,8.27-12.6,14.53-3,6.26-4.5,13.73-4.5,22.4s1.5,16,4.5,22.32c3,6.32,7.2,11.19,12.6,14.61,5.4,3.42,11.8,5.14,19.18,5.14,6.74,0,12.44-1.71,17.1-5.14,2.83-2.08,5.25-4.71,7.27-7.86l.83,11.07h20.07v-112.38h-21.19v42.73Zm-8.91,49.26c-2.84,1.93-6.08,2.89-9.71,2.89-3.85,0-7.25-.96-10.19-2.89-2.94-1.93-5.27-4.6-6.98-8.03-1.71-3.42-2.57-7.33-2.57-11.72s.85-8.29,2.57-11.72c1.71-3.42,4.01-6.07,6.9-7.95,2.89-1.87,6.26-2.81,10.11-2.81s7.04.94,9.87,2.81c2.83,1.87,5.06,4.52,6.66,7.95,1.2,2.55,1.94,5.37,2.25,8.45v6.54c-.31,3.08-1.05,5.9-2.25,8.45-1.61,3.43-3.83,6.1-6.66,8.03Z" style="fill: #fff;"/>
    <path d="m860.26,204.53c-5.41-3.1-12.18-4.66-20.31-4.66-6.74,0-12.44,1.04-17.1,3.13-4.66,2.09-8.43,4.76-11.32,8.03-2.89,3.27-5.08,6.61-6.58,10.03l18.62,6.42c1.93-3.1,4.28-5.4,7.06-6.9,2.78-1.5,5.88-2.25,9.31-2.25,3.75,0,6.72.94,8.91,2.81,2.19,1.87,3.8,4.52,4.82,7.95.41,1.38.71,2.9.96,4.5h-18.86c-10.38,0-18.44,2.17-24.16,6.5-5.73,4.33-8.59,10.78-8.59,19.34,0,7.81,2.65,13.86,7.95,18.14,5.3,4.28,12.76,6.42,22.4,6.42s16.67-3.05,20.79-9.15c.47-.69.9-1.42,1.31-2.18l.37,9.4h19.75l.48-44.47c.11-7.71-1.15-14.37-3.77-19.99-2.62-5.62-6.64-9.98-12.04-13.08Zm-7.47,52.9c-1.61,2.62-3.77,4.76-6.5,6.42-2.73,1.66-5.86,2.49-9.39,2.49-3.85,0-6.85-.67-8.99-2.01-2.14-1.34-3.21-3.18-3.21-5.54,0-3,1.34-5.32,4.01-6.98,2.67-1.66,7.49-2.49,14.45-2.49h12.04c0,2.78-.8,5.49-2.41,8.11Z" style="fill: #fff;"/>
    <path d="m930.98,263.69c-1.28.48-2.46.72-3.53.72-2.89,0-5.08-.88-6.58-2.65-1.5-1.77-2.25-4.36-2.25-7.79v-34.2h20.07v-17.98h-20.07v-25.05h-21.19v25.05h-13v17.98h13v38.85c0,8.13,2.27,14.4,6.82,18.78,4.55,4.39,11.26,6.58,20.15,6.58,3.1,0,6.23-.62,9.39-1.85,3.16-1.23,6.02-2.81,8.59-4.74l-7.38-15.89c-1.39.96-2.73,1.69-4.01,2.17Z" style="fill: #fff;"/>
    <path d="m966.14,164.4c-3.21,0-6.05,1.2-8.51,3.61-2.46,2.41-3.69,5.27-3.69,8.59s1.23,6.18,3.69,8.59c2.46,2.41,5.3,3.61,8.51,3.61s6.18-1.2,8.59-3.61c2.41-2.41,3.61-5.27,3.61-8.59s-1.2-6.18-3.61-8.59c-2.41-2.41-5.27-3.61-8.59-3.61Z" style="fill: #fff;"/>
    <rect x="955.54" y="201.8" width="21.19" height="80.27" style="fill: #fff;"/>
    <path d="m1053.95,205.26c-6.32-3.59-13.59-5.38-21.83-5.38s-15.36,1.79-21.67,5.38c-6.32,3.59-11.24,8.54-14.77,14.85-3.53,6.32-5.3,13.59-5.3,21.83s1.79,15.52,5.38,21.83c3.58,6.32,8.53,11.27,14.85,14.85,6.31,3.58,13.59,5.38,21.83,5.38s15.33-1.79,21.59-5.38c6.26-3.58,11.16-8.53,14.69-14.85,3.53-6.31,5.3-13.59,5.3-21.83s-1.77-15.52-5.3-21.83c-3.53-6.31-8.46-11.26-14.77-14.85Zm-4.17,48.32c-1.71,3.37-4.04,6.02-6.98,7.95-2.94,1.93-6.4,2.89-10.35,2.89s-7.49-.96-10.6-2.89c-3.11-1.93-5.51-4.57-7.22-7.95-1.71-3.37-2.57-7.25-2.57-11.64s.86-8.27,2.57-11.64c1.71-3.37,4.09-6.02,7.14-7.95,3.05-1.93,6.55-2.89,10.51-2.89s7.31.96,10.35,2.89c3.05,1.93,5.43,4.57,7.14,7.95,1.71,3.37,2.57,7.25,2.57,11.64s-.86,8.27-2.57,11.64Z" style="fill: #fff;"/>
    <path d="m1147.06,203.73c-4.5-2.57-9.9-3.85-16.21-3.85s-11.43,1.58-15.97,4.74c-2.99,2.08-5.53,4.77-7.65,8.05l-.94-10.85h-19.91v80.27h21.19v-42.06c0-6.74,1.47-11.82,4.41-15.25,2.94-3.42,7.14-5.08,12.6-4.98,3,0,5.62.67,7.87,2.01,2.25,1.34,3.99,3.51,5.22,6.5,1.23,3,1.85,7.22,1.85,12.68v41.1h21.19v-45.43c.11-8.56-1.02-15.55-3.37-20.95-2.36-5.4-5.78-9.39-10.27-11.96Z" style="fill: #fff;"/>
  </g>
  <g>
    <path d="m244.52,3.8h23.74c1.23,0,2.08,1.23,1.65,2.38-3.36,8.85-12.96,29.94-35.9,46.01-1.23.86-2.9-.11-2.77-1.6,2.42-27.25,9.14-41.13,11.74-45.88.31-.56.9-.91,1.54-.91Z" style="fill: #a9d962;"/>
    <path d="m223.76,6.28c-3.55,7.97-6.23,16.8-8.23,26.03-.3,1.38-2.01,1.87-2.99.85-3.77-3.96-10.94-12.77-16.67-26.95-.47-1.15.39-2.41,1.63-2.41h24.65c1.28,0,2.12,1.31,1.6,2.48Z" style="fill: #78a658;"/>
    <path d="m106.26,3.8h11.06c.99,0,1.78.82,1.76,1.81-1.1,44.48,2.18,84.77,4.32,107.87.11,1.21-1,2.16-2.18,1.87-5.61-1.41-19.45-4.93-29.58-7.72-.55-.15-.99-.56-1.19-1.1-3.45-9.66-12.32-35.29-15.39-45.54-.24-.81.13-1.67.87-2.06,16.5-8.68,25.32-31.14,28.57-53.61.13-.87.86-1.52,1.74-1.52Z" style="fill: #4d7343;"/>
    <path d="m97.25,5.9c-2.11,10.56-8.23,33.96-23.04,43.24-1.01.63-2.35.09-2.64-1.07-4.4-17.48-6.75-32.88-7.75-42.33-.11-1.04.71-1.94,1.75-1.94h29.96c1.11,0,1.94,1.01,1.73,2.1Z" style="fill: #78a658;"/>
    <path d="m5.76,3.8h41.04c.94,0,1.71.74,1.75,1.69.49,11.35,1.73,22.62,3.55,33.81.19,1.2-.86,2.24-2.06,2.02-19.16-3.51-34.16-7.92-44.97-12.46-.65-.27-1.07-.91-1.07-1.62V5.56c0-.97.79-1.76,1.76-1.76Z" style="fill: #a9d962;"/>
    <path d="m6.45,39.43c17.22,7.46,37.36,12.33,47.25,14.48.68.15,1.2.68,1.34,1.36,2.92,14.09,6.59,28.06,10.61,41.88.39,1.35-.87,2.59-2.21,2.17-11.14-3.48-39.91-12.76-58.55-23.24-.55-.31-.89-.9-.89-1.53v-33.51c0-1.27,1.29-2.12,2.45-1.61Z" style="fill: #78a658;"/>
    <path d="m4,280.76v-48.38c0-1.27,1.29-2.12,2.46-1.62,12.73,5.51,58.11,23.32,135.7,24.3.84.01,1.55.61,1.71,1.43,1.53,7.98,3.11,15.96,4.76,23.91.23,1.09-.61,2.11-1.72,2.11H5.76c-.97,0-1.76-.79-1.76-1.76Z" style="fill: #bad3d9;"/>
    <path d="m282.03,178.31c-7.51,5.79-15.46,11.13-23.64,16.02-1.11.67-2.54-.05-2.66-1.34-.85-9.24-1.59-40.16,23.93-67.82,1.09-1.18,3.06-.42,3.06,1.18v50.55c0,.55-.25,1.06-.68,1.4Z" style="fill: #a9d962;"/>
    <path d="m282.24,58.14c-11.18,11.89-26.56,23.2-48.86,33.59-1.13.52-2.43-.25-2.51-1.49-.44-7.71-.65-15.67-.49-23.66.01-.6.33-1.16.85-1.47,5.74-3.49,34.93-22.48,46.13-60.05.22-.75.91-1.27,1.69-1.27h1.9c.97,0,1.76.79,1.76,1.76v51.38c0,.45-.17.88-.48,1.21Z" style="fill: #78a658;"/>
    <path d="m50.48,216.19c-6.91-24.08-22.93-48.31-43.49-68.4-1.11-1.09-2.99-.29-2.99,1.26v53.18c0,.68.39,1.3.99,1.59,17.41,8.37,36.3,13,43.41,14.57,1.3.29,2.44-.92,2.07-2.2Z" style="fill: #78a658;"/>
    <path d="m246.08,179.66l-7.87-7.27c-1.13-1.04-2.95-.24-2.95,1.29v30.31c0,1.31,1.38,2.16,2.55,1.57,2.81-1.41,5.6-2.86,8.38-4.34.64-.34,1-1.05.91-1.78-.76-6.08-.89-12.24-.46-18.37.04-.53-.16-1.05-.56-1.42Z" style="fill: #4d7343;"/>
    <path d="m207.68,129.75l38.57,35.98c.99.92,2.59.43,2.91-.88,1.33-5.49,3.12-10.87,5.35-16.02,6.11-14.13,15.91-26.56,27.59-36.52.39-.33.62-.82.62-1.34v-19.84c0-1.47-1.7-2.29-2.85-1.37-20.75,16.43-45.95,28.45-71.54,37.04-1.26.42-1.61,2.04-.63,2.95Z" style="fill: #4d7343;"/>
    <path d="m173.02,97.41l11.41,10.65c.44.41,1.07.57,1.65.42,7.9-2.07,15.74-4.43,23.46-7.11.73-.25,1.21-.96,1.18-1.73-.62-16.48-.23-35.2,2.32-53.22.08-.57-.12-1.14-.54-1.53-3.42-3.2-18.21-18.61-23.21-39.75-.19-.79-.9-1.34-1.71-1.34h-18.61c-.98,0-1.77.8-1.76,1.78.21,13.51,2.72,66.28,5.26,90.73.04.42.24.81.55,1.1Z" style="fill: #4d7343;"/>
    <path d="m82.77,172.39l-8.32,7.68c-.71.66-1.82.62-2.48-.09l-4.63-4.96c-.66-.71-.63-1.82.09-2.49l36.78-34.31c1-.93.61-2.59-.7-2.97-28.91-8.59-68.4-21.45-96.94-36.12-1.17-.6-2.56.25-2.56,1.56v33.97c0,.52.23,1,.62,1.34,38.88,33.08,52.31,67.15,56.5,83.85.17.67.72,1.18,1.4,1.3,7.05,1.24,14.13,2.26,21.24,3.08,1.04.12,1.96-.7,1.96-1.75v-48.81c0-1.53-1.83-2.33-2.95-1.29Z" style="fill: #4d7343;"/>
    <path d="m159.29,100.95l-62.71,58.64c-.36.33-.56.8-.56,1.29v59.46c0,.97.79,1.76,1.76,1.76h41.4c.97,0,1.76-.79,1.76-1.76v-56.32c0-.97.79-1.76,1.76-1.76h34.87c.97,0,1.76.79,1.76,1.76v56.32c0,.97.79,1.76,1.76,1.76h18.08c.21,0,.41-.04.61-.11,8.16-2.97,16.22-6.25,24.15-9.82.63-.28,1.04-.92,1.04-1.61v-49.69c0-.49-.2-.95-.56-1.29l-62.71-58.64c-.68-.63-1.73-.63-2.4,0Z" style="fill: #fff;"/>
    <path d="m198.81,253.86c1.33,5.85,5.2,22.44,6.34,27.3.19.8.9,1.36,1.71,1.36h74.1c.97,0,1.76-.79,1.76-1.76v-70.08c0-1.43-1.62-2.26-2.78-1.43-34.13,24.5-72.27,39.62-80.04,42.58-.82.31-1.28,1.17-1.09,2.03Z" style="fill: #bad3d9;"/>
  </g>
</svg>