<?xml version="1.0" encoding="utf-8"?>
<!-- Generator: Adobe Illustrator 24.0.1, SVG Export Plug-In . SVG Version: 6.00 Build 0)  -->
<svg version="1.1" id="Layer_1" xmlns="http://www.w3.org/2000/svg" xmlns:xlink="http://www.w3.org/1999/xlink" x="0px" y="0px"
	 viewBox="0 0 425 200" style="enable-background:new 0 0 425 200;" xml:space="preserve">
<style type="text/css">
	.st0{fill:#FFFFFF;}
</style>
<g id="Group_947" transform="translate(-1102.075 -297.533)">
	<g id="Group_942" transform="translate(1102.075 438.582)">
		<path id="Path_172" class="st0" d="M85,26.3c-0.9,0-1.7,0.4-2.2,1.2c-0.6,1-0.9,2.1-0.8,3.2c0,2.8,1.1,4.3,3.2,4.3
			c0.6,0,1.3-0.1,1.9-0.3c0.6-0.2,1.2-0.4,1.9-0.7v3.4c-1.3,0.6-2.8,0.8-4.2,0.8c-1.9,0.1-3.8-0.6-5.1-1.9c-1.3-1.6-1.9-3.6-1.8-5.6
			c0-1.4,0.3-2.8,0.9-4c0.5-1.1,1.4-2.1,2.5-2.7c1.2-0.6,2.5-1,3.8-0.9c1.6,0,3.2,0.4,4.6,1l-1.2,3.1c-0.5-0.3-1.1-0.5-1.6-0.6
			C86.2,26.4,85.6,26.3,85,26.3z"/>
		<path id="Path_173" class="st0" d="M101.6,32.2c0.1,1.6-0.4,3.2-1.5,4.4c-1.1,1.1-2.7,1.7-4.2,1.6c-1.6,0.1-3.1-0.5-4.2-1.6
			c-2-2.5-2.1-6.2,0-8.7c1.1-1.1,2.7-1.6,4.2-1.6c1,0,2.1,0.2,3,0.7c0.9,0.5,1.6,1.2,2,2.1C101.3,30.1,101.6,31.2,101.6,32.2z
			 M94.1,32.2c0,0.8,0.1,1.5,0.4,2.3c0.2,0.5,0.8,0.8,1.3,0.8c0.6,0,1.1-0.3,1.3-0.8c0.3-0.7,0.4-1.5,0.4-2.3c0-0.8-0.1-1.5-0.4-2.2
			c-0.4-0.7-1.4-1-2.1-0.5c-0.2,0.1-0.4,0.3-0.5,0.5C94.2,30.7,94.1,31.5,94.1,32.2z"/>
		<path id="Path_174" class="st0" d="M106.3,38.2c-0.8,0-1.5-0.2-2.1-0.7c-0.7-0.5-1.2-1.2-1.4-2.1c-0.4-1-0.5-2.1-0.5-3.2
			c-0.1-1.5,0.3-3.1,1.1-4.4c0.7-1,1.9-1.6,3.1-1.6c0.6,0,1.2,0.1,1.7,0.4c0.5,0.3,1,0.8,1.3,1.3h0.1c-0.1-0.9-0.2-1.8-0.2-2.7v-3.1
			h4V38h-3l-0.9-1.4h-0.2C108.7,37.6,107.6,38.3,106.3,38.2z M107.9,35.1c0.5,0.1,1-0.2,1.3-0.6c0.3-0.6,0.4-1.2,0.4-1.8v-0.3
			c0.1-0.7-0.1-1.5-0.4-2.2c-0.3-0.4-0.8-0.7-1.4-0.6c-0.5,0-1,0.3-1.2,0.7c-0.3,0.6-0.5,1.4-0.4,2.1c0,0.7,0.1,1.4,0.4,2
			C107,34.8,107.4,35.1,107.9,35.1z"/>
		<path id="Path_175" class="st0" d="M120.6,38.2c-1.6,0.1-3.2-0.4-4.4-1.5c-1.1-1.2-1.7-2.7-1.6-4.3c-0.1-1.6,0.4-3.2,1.5-4.5
			c1.1-1.1,2.6-1.7,4.2-1.6c1.5-0.1,2.9,0.4,4,1.4c1,1,1.5,2.5,1.4,3.9v1.8h-7.1c0,0.6,0.3,1.1,0.7,1.5c0.5,0.4,1.2,0.6,1.8,0.5
			c0.6,0,1.3-0.1,1.9-0.2c0.7-0.2,1.3-0.4,1.9-0.7v2.8c-0.6,0.3-1.3,0.5-1.9,0.7C122.2,38.2,121.4,38.2,120.6,38.2z M120.3,29
			c-0.4,0-0.9,0.1-1.2,0.4c-0.3,0.4-0.5,0.9-0.6,1.4h3.4c0-0.5-0.2-1-0.5-1.3C121.2,29.2,120.8,29,120.3,29L120.3,29z"/>
		<path id="Path_176" class="st0" d="M135.3,38h-3.9V23.2h8.7v3.2h-4.8v2.8h4.4v3.2h-4.4V38z"/>
		<path id="Path_177" class="st0" d="M148.2,26.3c0.3,0,0.7,0,1,0.1l0.2,0l-0.4,3.7c-0.4-0.1-0.9-0.1-1.3-0.1
			c-0.7-0.1-1.4,0.2-1.9,0.6c-0.4,0.5-0.6,1.1-0.6,1.7V38h-4V26.5h2.9l0.6,1.8h0.2c0.3-0.6,0.8-1.1,1.4-1.5
			C146.9,26.5,147.5,26.3,148.2,26.3z"/>
		<path id="Path_178" class="st0" d="M157.4,38l-0.8-1.5h-0.1c-0.4,0.6-1,1-1.6,1.4c-0.7,0.3-1.4,0.4-2.1,0.4
			c-0.9,0.1-1.9-0.3-2.6-1c-0.7-0.8-1-1.7-0.9-2.7c-0.1-1.1,0.4-2.1,1.3-2.7c1.1-0.7,2.4-1,3.7-1l1.9-0.1v-0.2
			c0.1-0.7-0.4-1.3-1-1.4c-0.1,0-0.2,0-0.4,0c-1.1,0.1-2.2,0.4-3.2,0.8l-1.1-2.6c1.6-0.7,3.3-1.1,5.1-1c1.2-0.1,2.5,0.3,3.4,1.1
			c0.8,0.8,1.3,1.9,1.2,3.1V38L157.4,38z M154.5,35.4c0.5,0,0.9-0.2,1.2-0.5c0.3-0.3,0.5-0.7,0.5-1.2v-0.9l-0.9,0
			c-1.3,0-2,0.5-2,1.4C153.3,35.1,153.7,35.4,154.5,35.4L154.5,35.4z"/>
		<path id="Path_179" class="st0" d="M175.9,38v-6.2c0-0.6-0.1-1.2-0.3-1.7c-0.2-0.4-0.6-0.6-1-0.6c-0.6,0-1.1,0.3-1.3,0.8
			c-0.3,0.8-0.5,1.6-0.4,2.4V38h-4v-6.2c0-0.6-0.1-1.2-0.3-1.7c-0.2-0.4-0.6-0.6-1-0.6c-0.6,0-1.1,0.3-1.4,0.8
			c-0.3,0.9-0.5,1.8-0.4,2.7v5h-4V26.5h3l0.5,1.4h0.2c0.3-0.5,0.8-0.9,1.3-1.2c0.6-0.3,1.3-0.4,2-0.4c1.3-0.1,2.7,0.4,3.5,1.5h0.3
			c0.3-0.5,0.8-0.9,1.4-1.1c0.6-0.3,1.3-0.4,1.9-0.4c1.1-0.1,2.2,0.3,3,1c0.7,0.9,1.1,2,1,3.2V38H175.9z"/>
		<path id="Path_180" class="st0" d="M187,38.2c-1.6,0.1-3.2-0.4-4.4-1.5c-1.1-1.2-1.7-2.7-1.6-4.3c-0.1-1.6,0.4-3.2,1.5-4.5
			c1.1-1.1,2.6-1.7,4.2-1.6c1.5-0.1,2.9,0.4,4,1.4c1,1,1.5,2.5,1.4,3.9v1.8H185c0,0.6,0.3,1.1,0.7,1.5c0.5,0.4,1.2,0.6,1.8,0.5
			c0.6,0,1.3-0.1,1.9-0.2c0.7-0.2,1.3-0.4,1.9-0.7v2.8c-0.6,0.3-1.3,0.5-1.9,0.7C188.6,38.2,187.8,38.2,187,38.2z M186.8,29
			c-0.4,0-0.9,0.1-1.2,0.4c-0.3,0.4-0.5,0.9-0.6,1.4h3.4c0-0.5-0.2-1-0.5-1.3C187.7,29.2,187.2,29,186.8,29L186.8,29z"/>
		<path id="Path_181" class="st0" d="M203.1,38l-1.3-5.5l-0.3-1.7l-0.2-1.3h-0.1c-0.3,1.9-0.6,3.1-0.7,3.6l-1.2,4.9h-4.2l-3.1-11.5
			h3.9l0.9,4.4c0.3,1.2,0.4,2.5,0.5,3.8h0.1c0.1-1.2,0.3-2.4,0.6-3.5l1.1-4.6h4.4l1,4.7c0.3,1.2,0.5,2.3,0.6,3.5h0.1
			c0-0.5,0.1-1.2,0.2-1.9c0.1-0.6,0.2-1.2,0.3-1.8l1-4.4h3.8L207.3,38L203.1,38z"/>
		<path id="Path_182" class="st0" d="M222,32.2c0.1,1.6-0.4,3.2-1.5,4.4c-1.1,1.1-2.7,1.7-4.2,1.6c-1.6,0.1-3.1-0.5-4.2-1.6
			c-2-2.5-2.1-6.2,0-8.7c1.1-1.1,2.7-1.6,4.2-1.6c1,0,2.1,0.2,3,0.7c0.9,0.5,1.6,1.2,2,2.1C221.8,30.1,222,31.2,222,32.2z
			 M214.6,32.2c0,0.8,0.1,1.5,0.4,2.3c0.2,0.5,0.8,0.8,1.3,0.8c0.6,0,1.1-0.3,1.3-0.8c0.3-0.7,0.4-1.5,0.4-2.3
			c0-0.8-0.1-1.5-0.4-2.2c-0.4-0.7-1.4-1-2.1-0.5c-0.2,0.1-0.4,0.3-0.5,0.5C214.7,30.7,214.5,31.5,214.6,32.2L214.6,32.2z"/>
		<path id="Path_183" class="st0" d="M230.1,26.3c0.3,0,0.7,0,1,0.1l0.2,0l-0.4,3.7c-0.4-0.1-0.9-0.1-1.3-0.1
			c-0.7-0.1-1.4,0.2-1.9,0.6c-0.4,0.5-0.6,1.1-0.6,1.7V38h-4V26.5h2.9l0.6,1.8h0.2c0.3-0.6,0.8-1.1,1.4-1.5
			C228.9,26.5,229.5,26.3,230.1,26.3z"/>
		<path id="Path_184" class="st0" d="M235.7,31.6c0.4-0.6,0.8-1.2,1.2-1.8l2.6-3.2h4.4l-4,4.9l4.2,6.6h-4.5l-2.5-4.1l-1.3,1V38h-4
			V22.2h4v6.2C235.9,29.5,235.8,30.5,235.7,31.6L235.7,31.6z"/>
		<path id="Path_185" class="st0" d="M253.3,34.5c0.1,1.1-0.4,2.1-1.3,2.8c-1.1,0.7-2.3,1-3.6,0.9c-0.7,0-1.5,0-2.2-0.1
			c-0.7-0.1-1.3-0.3-1.9-0.5v-3.2c0.7,0.3,1.3,0.5,2,0.7c0.6,0.2,1.3,0.3,2,0.3c0.9,0,1.3-0.2,1.3-0.6c0-0.2-0.2-0.4-0.4-0.5
			c-0.7-0.4-1.4-0.7-2.1-0.9c-0.9-0.3-1.6-0.8-2.2-1.5c-0.4-0.6-0.7-1.3-0.6-2.1c0-1,0.4-1.9,1.2-2.5c1-0.7,2.3-1,3.5-0.9
			c0.7,0,1.4,0.1,2.1,0.2c0.7,0.2,1.4,0.4,2.1,0.7l-1.1,2.6c-0.5-0.2-1.1-0.4-1.7-0.6c-0.5-0.1-0.9-0.2-1.4-0.2c-0.6,0-1,0.2-1,0.5
			c0,0.2,0.1,0.4,0.3,0.5c0.6,0.3,1.3,0.6,2,0.8c0.6,0.2,1.2,0.6,1.8,1c0.4,0.3,0.7,0.7,0.9,1.1C253.3,33.4,253.4,33.9,253.3,34.5z"
			/>
		<path id="Path_186" class="st0" d="M262.2,23l-5.5,15.2h-3.5l5.5-15.2H262.2z"/>
		<path id="Path_187" class="st0" d="M262.8,38V23.2h4v11.6h5.7V38L262.8,38z"/>
		<path id="Path_188" class="st0" d="M273.5,23.7c0-0.5,0.1-1,0.5-1.3c1-0.6,2.2-0.6,3.2,0c0.4,0.3,0.5,0.8,0.5,1.3
			c0,1.2-0.7,1.7-2.1,1.7C274.2,25.4,273.5,24.8,273.5,23.7z M277.6,38h-4V26.5h4V38z"/>
		<path id="Path_189" class="st0" d="M286.3,26.3c1.2,0,2.3,0.6,3,1.6c1.5,2.7,1.5,6,0,8.7c-0.7,1-1.8,1.6-3.1,1.6
			c-0.4,0-0.8,0-1.1-0.1c-0.3-0.1-0.6-0.2-0.9-0.4c-0.3-0.2-0.6-0.5-0.9-0.8H283l-0.6,1.1h-3.1V22.2h4v3.6c0,0.4,0,1.2-0.1,2.2h0.1
			C283.9,26.9,285,26.3,286.3,26.3L286.3,26.3z M284.8,29.4c-0.5,0-0.9,0.2-1.2,0.6c-0.3,0.6-0.4,1.2-0.4,1.8v0.6
			c-0.1,0.7,0.1,1.4,0.4,2c0.3,0.4,0.8,0.7,1.3,0.6c0.5,0,0.9-0.3,1.1-0.7c0.3-0.7,0.4-1.4,0.4-2.1
			C286.3,30.4,285.8,29.4,284.8,29.4L284.8,29.4z"/>
		<path id="Path_190" class="st0" d="M298.5,26.3c0.3,0,0.7,0,1,0.1l0.2,0l-0.4,3.7c-0.4-0.1-0.9-0.1-1.3-0.1
			c-0.7-0.1-1.4,0.2-1.9,0.6c-0.4,0.5-0.6,1.1-0.6,1.7V38h-4V26.5h2.9l0.6,1.8h0.2c0.3-0.6,0.8-1.1,1.4-1.5
			C297.2,26.5,297.9,26.3,298.5,26.3z"/>
		<path id="Path_191" class="st0" d="M307.7,38l-0.8-1.5h-0.1c-0.4,0.6-1,1-1.6,1.4c-0.7,0.3-1.4,0.4-2.1,0.4
			c-0.9,0.1-1.9-0.3-2.6-1c-0.7-0.8-1-1.7-0.9-2.7c-0.1-1.1,0.4-2.1,1.3-2.7c1.1-0.7,2.4-1,3.7-1l1.9-0.1v-0.2
			c0.1-0.7-0.4-1.3-1-1.4c-0.1,0-0.2,0-0.4,0c-1.1,0.1-2.2,0.4-3.2,0.8l-1.1-2.6c1.6-0.7,3.3-1.1,5.1-1c1.2-0.1,2.5,0.3,3.4,1.1
			c0.8,0.8,1.3,1.9,1.2,3.1V38L307.7,38z M304.8,35.4c0.5,0,0.9-0.2,1.2-0.5c0.3-0.3,0.5-0.7,0.5-1.2v-0.9l-0.9,0
			c-1.3,0-2,0.5-2,1.4C303.7,35.1,304,35.4,304.8,35.4L304.8,35.4z"/>
		<path id="Path_192" class="st0" d="M319,26.3c0.3,0,0.7,0,1,0.1l0.2,0l-0.4,3.7c-0.4-0.1-0.9-0.1-1.3-0.1
			c-0.7-0.1-1.4,0.2-1.9,0.6c-0.4,0.5-0.6,1.1-0.6,1.7V38h-4V26.5h2.9l0.6,1.8h0.2c0.3-0.6,0.8-1.1,1.4-1.5
			C317.8,26.5,318.4,26.3,319,26.3z"/>
		<path id="Path_193" class="st0" d="M320.7,23.7c0-0.5,0.1-1,0.5-1.3c1-0.6,2.2-0.6,3.2,0c0.4,0.3,0.5,0.8,0.5,1.3
			c0,1.2-0.7,1.7-2.1,1.7C321.4,25.4,320.7,24.8,320.7,23.7z M324.8,38h-4V26.5h4V38z"/>
		<path id="Path_194" class="st0" d="M332,38.2c-1.6,0.1-3.2-0.4-4.4-1.5c-1.1-1.2-1.7-2.7-1.6-4.3c-0.1-1.6,0.4-3.2,1.5-4.5
			c1.1-1.1,2.6-1.7,4.2-1.6c1.5-0.1,2.9,0.4,4,1.4c1,1,1.5,2.5,1.4,3.9v1.8H330c0,0.6,0.3,1.1,0.7,1.5c0.5,0.4,1.2,0.6,1.8,0.5
			c0.6,0,1.3-0.1,1.9-0.2c0.7-0.2,1.3-0.4,1.9-0.7v2.8c-0.6,0.3-1.3,0.5-1.9,0.7C333.6,38.2,332.8,38.2,332,38.2z M331.8,29
			c-0.4,0-0.9,0.1-1.2,0.4c-0.3,0.4-0.5,0.9-0.6,1.4h3.4c0-0.5-0.2-1-0.5-1.3C332.7,29.2,332.2,29,331.8,29L331.8,29z"/>
		<path id="Path_195" class="st0" d="M347.1,34.5c0.1,1.1-0.4,2.1-1.3,2.8c-1.1,0.7-2.3,1-3.6,0.9c-0.7,0-1.5,0-2.2-0.1
			c-0.7-0.1-1.3-0.3-1.9-0.5v-3.2c0.7,0.3,1.3,0.5,2,0.7c0.6,0.2,1.3,0.3,2,0.3c0.9,0,1.3-0.2,1.3-0.6c0-0.2-0.2-0.4-0.4-0.5
			c-0.7-0.4-1.4-0.7-2.1-0.9c-0.9-0.3-1.6-0.8-2.2-1.5c-0.4-0.6-0.7-1.3-0.6-2.1c0-1,0.4-1.9,1.2-2.5c1-0.7,2.3-1,3.5-0.9
			c0.7,0,1.4,0.1,2.1,0.2c0.7,0.2,1.4,0.4,2.1,0.7l-1.1,2.6c-0.5-0.2-1.1-0.4-1.7-0.6c-0.5-0.1-0.9-0.2-1.4-0.2c-0.6,0-1,0.2-1,0.5
			c0,0.2,0.1,0.4,0.3,0.5c0.6,0.3,1.3,0.6,2,0.8c0.6,0.2,1.2,0.6,1.8,1c0.4,0.3,0.7,0.7,0.9,1.1C347,33.4,347.1,33.9,347.1,34.5z"/>
	</g>
	<g id="Group_943" transform="translate(1184.243 420.357)">
		<path id="Path_196" class="st0" d="M77.9,22h2.4c0.8-0.1,1.7,0.1,2.4,0.5c0.5,0.3,0.8,0.9,0.7,1.5c0,0.4-0.1,0.8-0.4,1.2
			c-0.3,0.3-0.6,0.5-1,0.6v0.1c0.5,0.1,0.9,0.3,1.2,0.6c0.3,0.4,0.4,0.8,0.4,1.3c0,0.7-0.3,1.3-0.8,1.7c-0.6,0.4-1.4,0.7-2.1,0.6
			h-2.9L77.9,22z M79.2,25.4h1.3c0.4,0,0.8-0.1,1.2-0.3c0.3-0.2,0.4-0.5,0.4-0.9c0-0.3-0.1-0.6-0.4-0.8c-0.4-0.2-0.9-0.3-1.3-0.3
			h-1.1L79.2,25.4z M79.2,26.4V29h1.4c0.4,0,0.9-0.1,1.2-0.3c0.3-0.2,0.5-0.6,0.4-1c0-0.4-0.1-0.7-0.4-0.9c-0.4-0.2-0.9-0.3-1.3-0.3
			L79.2,26.4z"/>
		<path id="Path_197" class="st0" d="M89.3,30.1h-4.6V22h4.6v1.1h-3.2v2.2h3v1.1h-3V29h3.2L89.3,30.1z"/>
		<path id="Path_198" class="st0" d="M95.2,27.9c0,0.7-0.3,1.3-0.8,1.7c-0.6,0.4-1.4,0.7-2.1,0.6c-0.8,0-1.5-0.1-2.2-0.4v-1.2
			c0.4,0.2,0.8,0.3,1.2,0.4c0.4,0.1,0.8,0.1,1.2,0.1c0.4,0,0.8-0.1,1.2-0.3c0.2-0.2,0.4-0.5,0.4-0.8c0-0.3-0.1-0.6-0.3-0.8
			c-0.4-0.3-0.9-0.6-1.4-0.7c-0.6-0.2-1.1-0.6-1.6-1c-0.3-0.4-0.5-0.9-0.5-1.4c0-0.6,0.2-1.2,0.7-1.6c0.6-0.4,1.2-0.6,1.9-0.6
			c0.8,0,1.6,0.2,2.3,0.5l-0.4,1.1c-0.6-0.3-1.3-0.4-1.9-0.5c-0.3,0-0.7,0.1-1,0.3c-0.2,0.2-0.3,0.5-0.3,0.7c0,0.2,0,0.4,0.1,0.5
			c0.1,0.2,0.3,0.3,0.4,0.4c0.3,0.2,0.7,0.4,1.1,0.5c0.5,0.2,0.9,0.4,1.3,0.7c0.3,0.2,0.5,0.4,0.6,0.7
			C95.1,27.3,95.2,27.6,95.2,27.9z"/>
		<path id="Path_199" class="st0" d="M98.9,30.1h-1.3v-6.9h-2.4V22h6.1v1.1h-2.4V30.1z"/>
		<path id="Path_200" class="st0" d="M104.3,30.1V22h1.3v8.1H104.3z"/>
		<path id="Path_201" class="st0" d="M113.9,30.1h-1.6l-4-6.4h0l0,0.4c0.1,0.7,0.1,1.3,0.1,1.9v4.2h-1.2V22h1.6l4,6.4h0
			c0-0.1,0-0.4,0-0.9s0-0.9,0-1.2V22h1.2L113.9,30.1z"/>
		<path id="Path_202" class="st0" d="M122.2,30.1h-1.6l-4-6.4h0l0,0.4c0.1,0.7,0.1,1.3,0.1,1.9v4.2h-1.2V22h1.6l4,6.4h0
			c0-0.1,0-0.4,0-0.9s0-0.9,0-1.2V22h1.2L122.2,30.1z"/>
		<path id="Path_203" class="st0" d="M131,26.1c0.1,1.1-0.3,2.2-1,3.1c-1.6,1.5-4,1.5-5.6,0c-0.7-0.9-1.1-2-1-3.1
			c-0.1-1.1,0.3-2.2,1-3.1c0.7-0.7,1.8-1.1,2.8-1.1c1-0.1,2.1,0.3,2.8,1.1C130.7,23.9,131,25,131,26.1z M124.8,26.1
			c-0.1,0.8,0.2,1.6,0.6,2.3c0.9,1,2.5,1,3.5,0.1c0,0,0.1-0.1,0.1-0.1c0.8-1.4,0.8-3.1,0-4.5c-0.4-0.5-1.1-0.8-1.8-0.8
			c-0.7,0-1.4,0.2-1.8,0.8C124.9,24.5,124.7,25.3,124.8,26.1L124.8,26.1z"/>
		<path id="Path_204" class="st0" d="M136.7,22h1.4l-2.8,8.1h-1.4L131,22h1.4l1.7,5c0.1,0.2,0.2,0.5,0.3,0.9s0.2,0.7,0.2,0.8
			c0-0.3,0.1-0.6,0.2-1s0.2-0.6,0.2-0.8L136.7,22z"/>
		<path id="Path_205" class="st0" d="M143.6,30.1l-0.8-2.2h-3.1l-0.8,2.2h-1.4l3-8.1h1.4l3,8.1H143.6z M142.4,26.7l-0.8-2.2
			c-0.1-0.1-0.1-0.4-0.2-0.7s-0.2-0.6-0.2-0.7c-0.1,0.5-0.3,1-0.4,1.5l-0.7,2.1L142.4,26.7z"/>
		<path id="Path_206" class="st0" d="M148.3,30.1h-1.3v-6.9h-2.4V22h6.1v1.1h-2.4V30.1z"/>
		<path id="Path_207" class="st0" d="M151.3,30.1V22h1.3v8.1H151.3z"/>
		<path id="Path_208" class="st0" d="M161.3,26.1c0.1,1.1-0.3,2.2-1,3.1c-1.6,1.5-4,1.5-5.6,0c-0.7-0.9-1.1-2-1-3.1
			c-0.1-1.1,0.3-2.2,1-3.1c0.7-0.7,1.8-1.1,2.8-1.1c1-0.1,2.1,0.3,2.8,1.1C161.1,23.9,161.4,25,161.3,26.1z M155.2,26.1
			c-0.1,0.8,0.2,1.6,0.6,2.3c0.9,1,2.5,1,3.5,0.1c0,0,0.1-0.1,0.1-0.1c0.8-1.4,0.8-3.1,0-4.5c-0.4-0.5-1.1-0.8-1.8-0.8
			c-0.7,0-1.4,0.2-1.8,0.8C155.3,24.5,155.1,25.3,155.2,26.1L155.2,26.1z"/>
		<path id="Path_209" class="st0" d="M169.2,30.1h-1.6l-4-6.4h0l0,0.4c0.1,0.7,0.1,1.3,0.1,1.9v4.2h-1.2V22h1.6l4,6.4h0
			c0-0.1,0-0.4,0-0.9s0-0.9,0-1.2V22h1.2L169.2,30.1z"/>
		<path id="Path_210" class="st0" d="M173.1,30.1V22h1.3v8.1H173.1z"/>
		<path id="Path_211" class="st0" d="M182.7,30.1h-1.6l-4-6.4h0l0,0.4c0.1,0.7,0.1,1.3,0.1,1.9v4.2H176V22h1.6l4,6.4h0
			c0-0.1,0-0.4,0-0.9c0-0.5,0-0.9,0-1.2V22h1.2L182.7,30.1z"/>
	</g>
	<g id="Group_944" transform="translate(1149.729 387.642)">
		<path id="Path_212" class="st0" d="M88.7,36.5l-1.4-4h-5.5l-1.4,4h-2.5l5.4-14.4h2.6l5.4,14.4H88.7z M86.6,30.5l-1.3-3.9
			c-0.1-0.3-0.2-0.7-0.4-1.2c-0.2-0.6-0.3-1-0.4-1.2c-0.2,0.9-0.5,1.8-0.8,2.6l-1.3,3.7H86.6z"/>
		<path id="Path_213" class="st0" d="M124.4,36.5h-2.6l-2.4-8.6c-0.1-0.4-0.2-0.9-0.4-1.6c-0.2-0.7-0.3-1.2-0.3-1.5
			c-0.1,0.4-0.2,1-0.3,1.6s-0.3,1.2-0.4,1.5l-2.4,8.5h-2.6l-1.9-7.2l-1.9-7.2h2.4l2.1,8.4c0.3,1.2,0.5,2.4,0.7,3.6
			c0.1-0.6,0.2-1.2,0.3-1.9c0.1-0.7,0.3-1.2,0.4-1.7l2.3-8.4h2.3l2.4,8.4c0.3,1.2,0.6,2.3,0.7,3.5c0.2-1.2,0.4-2.4,0.7-3.6l2-8.3
			h2.4L124.4,36.5z"/>
		<path id="Path_214" class="st0" d="M157.2,36.5l-1.4-4h-5.5l-1.4,4h-2.5l5.4-14.4h2.6l5.4,14.4H157.2z M155.1,30.5l-1.3-3.9
			c-0.1-0.3-0.2-0.7-0.4-1.2c-0.2-0.6-0.3-1-0.4-1.2c-0.2,0.9-0.5,1.8-0.8,2.6l-1.3,3.7H155.1z"/>
		<path id="Path_215" class="st0" d="M182,30.7v5.7h-2.3V22.1h4.1c1.4-0.1,2.9,0.3,4.1,1c0.9,0.8,1.4,1.9,1.3,3.1
			c0,1.8-1.1,3.3-2.8,3.8l4.1,6.4h-2.7l-3.4-5.7L182,30.7z M182,28.8h1.6c0.8,0.1,1.7-0.1,2.4-0.6c0.5-0.5,0.8-1.1,0.7-1.8
			c0.1-0.7-0.2-1.3-0.8-1.7c-0.7-0.4-1.6-0.6-2.4-0.5H182L182,28.8z"/>
		<path id="Path_216" class="st0" d="M222.3,29.2c0.1,2-0.6,4-2,5.4c-1.6,1.3-3.6,2-5.7,1.9h-4V22.1h4.4c2-0.1,3.9,0.5,5.3,1.8
			C221.7,25.4,222.4,27.2,222.3,29.2z M219.8,29.2c0-3.4-1.6-5.2-4.8-5.2h-2v10.4h1.7C218.1,34.5,219.8,32.7,219.8,29.2L219.8,29.2z
			"/>
		<path id="Path_217" class="st0" d="M251.8,32.6c0,1.2-0.5,2.3-1.4,3c-1.1,0.8-2.5,1.2-3.8,1.1c-1.4,0.1-2.7-0.2-4-0.8v-2.2
			c0.7,0.3,1.4,0.6,2.1,0.7c0.7,0.2,1.4,0.3,2.1,0.3c0.7,0.1,1.4-0.1,2.1-0.5c0.4-0.3,0.7-0.9,0.7-1.4c0-0.5-0.2-1-0.6-1.4
			c-0.8-0.6-1.6-1-2.5-1.3c-1.1-0.4-2-1-2.8-1.8c-0.5-0.7-0.8-1.6-0.8-2.5c0-1.1,0.4-2.1,1.3-2.8c1-0.7,2.2-1.1,3.4-1
			c1.4,0,2.8,0.3,4.1,0.9l-0.7,1.9c-1.1-0.5-2.2-0.8-3.4-0.8c-0.6,0-1.2,0.1-1.7,0.5c-0.4,0.3-0.6,0.8-0.6,1.3c0,0.3,0.1,0.7,0.2,1
			c0.2,0.3,0.5,0.6,0.8,0.8c0.6,0.4,1.3,0.7,1.9,0.9c0.8,0.3,1.6,0.7,2.3,1.2c0.5,0.3,0.8,0.8,1.1,1.3
			C251.7,31.4,251.8,32,251.8,32.6z"/>
	</g>
	<g id="Group_945" transform="translate(1187.439 297.533)">
		<path id="Path_218" class="st0" d="M87.6,36.5h-9.7v-1.7l3.7-3.7c0.8-0.8,1.5-1.6,2.2-2.4c0.3-0.4,0.6-0.8,0.8-1.3
			c0.2-0.4,0.2-0.9,0.2-1.3c0-0.6-0.2-1.1-0.6-1.5c-0.4-0.4-1-0.6-1.6-0.6c-0.5,0-1.1,0.1-1.6,0.3c-0.6,0.3-1.2,0.7-1.8,1.1L78,23.8
			c0.7-0.6,1.5-1.1,2.3-1.4c0.8-0.3,1.6-0.4,2.4-0.4c1.2-0.1,2.3,0.3,3.2,1c0.8,0.7,1.3,1.7,1.2,2.8c0,0.6-0.1,1.3-0.3,1.8
			c-0.3,0.6-0.6,1.3-1.1,1.8c-0.7,0.9-1.5,1.7-2.4,2.5l-2.5,2.4v0.1h6.8L87.6,36.5z"/>
		<path id="Path_219" class="st0" d="M117.2,29.3c0.1,1.9-0.3,3.9-1.2,5.6c-1.5,2-4.4,2.4-6.4,0.9c-0.4-0.3-0.7-0.6-1-1
			c-0.9-1.7-1.4-3.6-1.2-5.5c-0.1-1.9,0.3-3.9,1.2-5.6c1.5-2,4.4-2.4,6.4-0.9c0.4,0.3,0.7,0.6,0.9,1
			C116.9,25.5,117.3,27.4,117.2,29.3z M109.8,29.3c-0.1,1.4,0.1,2.9,0.6,4.2c0.5,1.1,1.7,1.5,2.8,1.1c0.5-0.2,0.9-0.6,1.1-1.1
			c0.8-2.7,0.8-5.6,0-8.4c-0.4-1.1-1.7-1.6-2.7-1.1c-0.5,0.2-0.9,0.6-1.1,1.1C109.9,26.5,109.7,27.9,109.8,29.3z"/>
		<path id="Path_220" class="st0" d="M146.8,36.5H137v-1.7l3.7-3.7c0.8-0.8,1.5-1.6,2.2-2.4c0.3-0.4,0.6-0.8,0.8-1.3
			c0.2-0.4,0.2-0.9,0.2-1.3c0-0.6-0.2-1.1-0.6-1.5c-0.4-0.4-1-0.6-1.6-0.6c-0.5,0-1.1,0.1-1.6,0.3c-0.6,0.3-1.2,0.7-1.8,1.1
			l-1.2-1.5c0.7-0.6,1.5-1.1,2.3-1.4c0.8-0.3,1.6-0.4,2.4-0.4c1.2-0.1,2.3,0.3,3.2,1c0.8,0.7,1.3,1.7,1.2,2.8c0,0.6-0.1,1.3-0.3,1.8
			c-0.3,0.6-0.6,1.3-1.1,1.8c-0.7,0.9-1.5,1.7-2.4,2.5l-2.5,2.4v0.1h6.8L146.8,36.5z"/>
		<path id="Path_221" class="st0" d="M176.3,29.3c0.1,1.9-0.3,3.9-1.2,5.6c-1.5,2-4.4,2.4-6.4,0.9c-0.4-0.3-0.7-0.6-1-1
			c-0.9-1.7-1.4-3.6-1.2-5.5c-0.1-1.9,0.3-3.9,1.2-5.6c1.5-2,4.4-2.4,6.4-0.9c0.4,0.3,0.7,0.6,0.9,1C176,25.5,176.5,27.4,176.3,29.3
			z M168.9,29.3c-0.1,1.4,0.1,2.9,0.6,4.2c0.5,1.1,1.7,1.5,2.8,1.1c0.5-0.2,0.9-0.6,1.1-1.1c0.8-2.7,0.8-5.6,0-8.4
			c-0.4-1.1-1.7-1.6-2.7-1.1c-0.5,0.2-0.9,0.6-1.1,1.1C169.1,26.5,168.8,27.9,168.9,29.3L168.9,29.3z"/>
	</g>
	<g id="Group_946" transform="translate(1133.84 324.475)">
		<path id="Path_222" class="st0" d="M116.4,44.3c0,7.6-2.1,13.4-6.2,17.5c-4.2,4.1-10,6.1-17.6,6.1H77.9V22.6h15.7
			c7.3,0,12.9,1.9,16.8,5.6C114.4,31.9,116.4,37.2,116.4,44.3z M103.6,44.7c0-4.2-0.8-7.2-2.5-9.2c-1.6-2-4.1-3-7.5-3h-3.6v25.4h2.7
			c3.7,0,6.4-1.1,8.2-3.2S103.6,49.1,103.6,44.7z"/>
		<path id="Path_223" class="st0" d="M148.8,67.9h-26.9V22.6h26.9v9.8h-14.7v7.1h13.6v9.8h-13.6v8.6h14.7V67.9z"/>
		<path id="Path_224" class="st0" d="M182.2,22.6h13.7l-14.8,45.3h-14.4l-14.8-45.3h13.8l6.2,23c1,3.5,1.7,7.1,2.1,10.7
			c0.1-1.4,0.4-3.3,0.9-5.4c0.4-2.2,0.8-3.9,1.1-5.1L182.2,22.6z"/>
		<path id="Path_225" class="st0" d="M199.5,67.9V22.6h12.3v45.3H199.5z"/>
		<path id="Path_226" class="st0" d="M246,67.9h-26.9V22.6H246v9.8h-14.7v7.1h13.6v9.8h-13.6v8.6H246V67.9z"/>
		<path id="Path_227" class="st0" d="M283.5,54.1c0,2.7-0.7,5.3-2.1,7.5c-1.5,2.3-3.7,4-6.2,5.1c-3,1.3-6.2,1.9-9.5,1.8
			c-2.5,0-5.1-0.2-7.6-0.6c-2.2-0.5-4.4-1.2-6.4-2.2V54.7c2.3,1.2,4.8,2.1,7.3,2.8c2.3,0.6,4.6,1,6.9,1c1.4,0.1,2.8-0.2,4-0.9
			c0.8-0.5,1.3-1.5,1.3-2.4c0-0.6-0.2-1.2-0.5-1.6c-0.5-0.6-1-1-1.6-1.4c-0.8-0.5-2.8-1.4-6-2.9c-2.4-1-4.6-2.3-6.6-3.9
			c-1.4-1.2-2.5-2.7-3.3-4.3c-0.8-1.8-1.1-3.8-1.1-5.8c-0.2-3.8,1.5-7.5,4.6-9.8c3-2.3,7.2-3.5,12.5-3.5c5,0.1,9.8,1.2,14.3,3.3
			l-3.8,9.5c-4.2-1.9-7.9-2.9-11-2.9c-1.2-0.1-2.4,0.2-3.5,0.8c-0.7,0.5-1.1,1.2-1.1,2.1c0,1,0.6,1.9,1.4,2.4
			c2.4,1.5,4.9,2.8,7.5,3.8c3.9,1.8,6.6,3.6,8.1,5.7C282.9,48.7,283.7,51.4,283.5,54.1z"/>
	</g>
</g>
</svg>
