<?xml version="1.0" encoding="utf-8"?>
<!-- Generator: Adobe Illustrator 25.4.1, SVG Export Plug-In . SVG Version: 6.00 Build 0)  -->
<svg version="1.1" id="Layer_1" xmlns="http://www.w3.org/2000/svg" xmlns:xlink="http://www.w3.org/1999/xlink" x="0px" y="0px"
	 viewBox="0 0 1000 300" style="enable-background:new 0 0 1000 300;" xml:space="preserve">
<style type="text/css">
	.st0{fill:#FFFFFF;}
	.st1{fill:#486BB3;}
	.st2{fill:#5791CD;}
	.st3{fill:#FF004A;}
	.st4{fill:#091313;}
	.st5{fill:#4695EB;}
	.st6{fill-rule:evenodd;clip-rule:evenodd;fill:#FF004A;}
</style>
<rect class="st0" width="1000" height="300"/>
<g>
	<path class="st1" d="M862,164.2c-0.4-0.1-0.7-0.1-1.1-0.1c-0.6,0-1.3,0.2-1.9,0.5c-2.3,1.1-3.4,3.9-2.3,6.3l0,0l11.1,26.8
		c10.6-6.8,18.7-16.9,22.9-28.7L862,164.2L862,164.2z M817.5,168c-0.5-2.2-2.4-3.7-4.6-3.8c-0.3,0-0.6,0-1,0.1v-0.1l-28.3,4.8
		c4.3,11.8,12.3,21.8,22.8,28.5l11-26.5l-0.1-0.1C817.7,170.1,817.8,169,817.5,168L817.5,168z M841.3,178.5c-1.3-2.4-4.2-3.2-6.5-2
		c-0.8,0.5-1.5,1.1-2,2l0,0l-13.9,25.2c10,3.4,20.7,3.9,31,1.6c1.9-0.4,3.8-1,5.6-1.6l-14-25.2H841.3z M885.4,119.9L864,139.1v0.1
		c-2,1.8-2.2,4.8-0.5,6.8c0.6,0.7,1.4,1.2,2.4,1.5v0.1l27.8,8C894.8,143.1,891.9,130.6,885.4,119.9L885.4,119.9z M845.5,122.1
		c0.1,2.7,2.4,4.7,5.1,4.6c0.9,0,1.9-0.4,2.6-0.9h0.1l23.5-16.6c-8.9-8.7-20.5-14.3-32.9-15.9L845.5,122.1L845.5,122.1z
		 M820.7,125.9c2.2,1.6,5.2,1.1,6.8-1.1c0.6-0.8,0.9-1.7,0.9-2.6l0.1-0.1l1.6-28.8c-2,0.2-3.9,0.6-5.9,1
		c-10.3,2.3-19.7,7.5-27.2,14.8L820.7,125.9L820.7,125.9z M808.1,147.6c2.6-0.7,4.1-3.4,3.4-5.9c-0.3-0.9-0.8-1.8-1.5-2.4v-0.1
		l-21.6-19.3c-6.6,10.7-9.4,23.3-8,35.8L808.1,147.6L808.1,147.6z M829.1,156.1l8,3.8l7.9-3.8l2-8.6l-5.5-6.9h-8.8l-5.5,6.9
		L829.1,156.1z"/>
	<path class="st1" d="M968.5,177.8l-22.7-98.4c-1.2-5.2-4.7-9.5-9.5-11.8l-91.7-43.8c-4.8-2.3-10.4-2.3-15.2,0l-91.7,43.8
		c-4.8,2.3-8.3,6.6-9.5,11.8l-22.6,98.4c-0.6,2.5-0.6,5.1,0,7.6c0.2,0.8,0.4,1.5,0.6,2.2c0.4,1.2,1,2.4,1.7,3.5
		c0.3,0.5,0.6,0.9,1,1.4l63.5,78.9c0.3,0.3,0.6,0.7,0.9,1c1,1.1,2.1,2,3.3,2.8c1.6,1,3.2,1.7,5,2.2c1.5,0.4,3,0.6,4.5,0.6h1h100.8
		c0.6,0,1.2,0,1.8-0.1c0.9-0.1,1.7-0.3,2.6-0.5c0.6-0.2,1.2-0.4,1.8-0.6c0.5-0.2,0.9-0.4,1.4-0.6c0.7-0.3,1.3-0.7,1.9-1.1
		c1.6-1,3-2.3,4.2-3.7l1.9-2.4l61.5-76.5c1.2-1.5,2.1-3.1,2.7-4.9c0.3-0.7,0.5-1.5,0.7-2.2C969,182.8,969,180.2,968.5,177.8
		L968.5,177.8z M873.3,216.1c0.3,0.8,0.6,1.5,0.9,2.2c-0.6,1-0.7,2.1-0.4,3.2c1.3,3.1,3,6,4.9,8.7c1.1,1.4,2,2.9,2.9,4.4
		c0.2,0.4,0.5,1,0.7,1.5c1.6,2.6,0.7,6-1.9,7.6s-6,0.7-7.6-1.9c-0.2-0.3-0.3-0.6-0.5-1s-0.5-1-0.7-1.4c-0.6-1.6-1.2-3.3-1.6-5
		c-1-3.2-2.2-6.3-3.8-9.2c-0.7-0.9-1.7-1.5-2.8-1.7c-0.2-0.3-0.8-1.5-1.2-2.1c-16.3,6.2-34.4,6.1-50.7-0.1l-1.2,2.3
		c-0.9,0.1-1.7,0.5-2.4,1.2c-1.9,3.1-3.3,6.4-4.3,9.9c-0.4,1.7-1,3.4-1.6,5c-0.2,0.4-0.5,1-0.7,1.4l0,0l0,0c-1,2.9-4.2,4.4-7,3.3
		c-2.9-1-4.4-4.2-3.3-7c0.1-0.3,0.3-0.7,0.5-1c0.2-0.4,0.5-1.1,0.7-1.5c0.9-1.5,1.9-3,2.9-4.4c1.9-2.8,3.6-5.8,5-8.9
		c0.1-1.1,0-2.1-0.5-3.1l1-2.4c-15-8.9-26.3-22.9-31.7-39.5l-2.4,0.4c-0.9-0.7-2-1-3.2-1.1c-3.3,0.6-6.5,1.6-9.6,2.8
		c-1.6,0.7-3.2,1.4-4.9,1.9c-0.4,0.1-1,0.2-1.4,0.3h-0.1h-0.1c-2.9,1-6-0.6-7-3.5s0.6-6,3.5-7c0.3-0.1,0.7-0.2,1-0.2h0.1l0,0
		c0.5-0.1,1-0.3,1.5-0.3c1.7-0.2,3.5-0.4,5.3-0.4c3.3-0.2,6.6-0.8,9.8-1.6c1-0.6,1.8-1.4,2.4-2.4l2.3-0.7
		c-2.5-17.3,1.5-35,11.2-49.5l-1.8-1.6c-0.1-1.1-0.4-2.2-1.1-3.2c-2.5-2.2-5.3-4.1-8.2-5.7c-1.6-0.8-3.1-1.7-4.6-2.7
		c-0.3-0.2-0.8-0.6-1.1-0.9l-0.1-0.1c-2.6-1.9-3.2-5.5-1.4-8.1c1.1-1.3,2.7-2,4.4-1.9c1.4,0.1,2.7,0.6,3.8,1.4
		c0.4,0.3,0.9,0.7,1.2,1c1.3,1.2,2.5,2.5,3.6,3.8c2.2,2.5,4.7,4.7,7.4,6.7c1,0.5,2.2,0.6,3.3,0.3c0.7,0.5,1.3,0.9,2,1.4
		c9.6-10.3,22.1-17.4,35.9-20.5c3.3-0.7,6.6-1.2,9.9-1.5l0.1-2.3c0.9-0.8,1.5-1.7,1.8-2.8c0.1-3.3-0.1-6.7-0.6-10
		c-0.3-1.7-0.6-3.5-0.7-5.2c0-0.4,0-1,0-1.4c0-0.1,0-0.1,0-0.2c-0.3-3,1.9-5.7,4.9-6s5.7,1.9,6,4.9c0,0.4,0,0.7,0,1.1
		c0,0.5,0,1.1,0,1.6c-0.2,1.8-0.4,3.5-0.8,5.2c-0.5,3.3-0.7,6.6-0.6,10c0.2,1.1,0.9,2.1,1.8,2.7c0,0.4,0.1,1.7,0.1,2.5
		c17.4,1.6,33.5,9.4,45.6,22l2.1-1.5c1.1,0.2,2.3,0.1,3.3-0.4c2.7-2,5.2-4.2,7.4-6.7c1.1-1.3,2.3-2.6,3.6-3.8c0.3-0.3,0.8-0.7,1.2-1
		c2.2-2.1,5.7-2.1,7.8,0.1s2.1,5.7-0.1,7.8c-0.3,0.3-0.6,0.5-0.9,0.7c-0.4,0.3-0.9,0.7-1.2,1c-1.5,1-3,1.9-4.6,2.7
		c-2.9,1.6-5.6,3.6-8.2,5.7c-0.7,0.9-1.1,2-1,3.1c-0.3,0.3-1.4,1.2-1.9,1.7c9.7,14.5,13.8,32.1,11.4,49.4l2.2,0.6
		c0.6,1,1.4,1.8,2.4,2.4c3.2,0.9,6.5,1.4,9.8,1.6c1.8,0,3.5,0.2,5.3,0.4c0.5,0.1,1.1,0.3,1.6,0.4c3,0.4,5.1,3.2,4.7,6.2
		c-0.4,3-3.2,5.1-6.2,4.7c-0.3,0-0.7-0.1-1-0.2h-0.1h-0.1c-0.5-0.1-1-0.2-1.4-0.3c-1.7-0.5-3.3-1.2-4.9-1.9
		c-3.1-1.2-6.3-2.2-9.6-2.8c-1.1,0-2.2,0.4-3.1,1.1c-0.8-0.1-1.6-0.3-2.3-0.4C899.7,192.9,888.4,207.1,873.3,216.1L873.3,216.1z"/>
	<path class="st0" d="M980.4,180.3L955.7,72.9c-1.3-5.6-5.1-10.4-10.4-12.9l-100-47.7c-5.3-2.5-11.4-2.5-16.6,0L728.6,60.1
		c-5.2,2.5-9,7.2-10.4,12.9l-24.7,107.4c-1.1,5-0.2,10.2,2.6,14.5c0.3,0.5,0.7,1,1.1,1.5l69.3,86.1c3.7,4.5,9.2,7.1,15,7.1h111.1
		c5.8,0,11.3-2.6,15-7.1l69.2-86.1C980.3,191.8,981.7,185.9,980.4,180.3L980.4,180.3z M968.5,185.3c-0.2,0.8-0.4,1.5-0.6,2.2
		c-0.6,1.8-1.6,3.4-2.7,4.9L903.6,269l-1.9,2.4c-1.2,1.5-2.6,2.7-4.2,3.7c-0.6,0.4-1.3,0.8-1.9,1.1c-0.4,0.2-0.9,0.4-1.4,0.6
		c-0.6,0.2-1.2,0.4-1.8,0.6c-0.8,0.2-1.7,0.4-2.6,0.5c-0.6,0.1-1.2,0.1-1.8,0.1H787.2h-1c-1.5,0-3-0.2-4.5-0.6
		c-1.8-0.5-3.5-1.2-5-2.2c-1.2-0.8-2.4-1.7-3.4-2.8c-0.3-0.3-0.6-0.6-0.9-1l-63.5-78.9c-0.4-0.4-0.7-0.9-1-1.4
		c-0.7-1.1-1.3-2.3-1.7-3.5c-0.3-0.7-0.5-1.5-0.6-2.2c-0.6-2.5-0.6-5.1,0-7.6l22.6-98.4c1.2-5.2,4.7-9.5,9.5-11.8l91.7-43.8
		c4.8-2.3,10.4-2.3,15.2,0l91.7,43.8c4.8,2.3,8.3,6.6,9.5,11.8l22.7,98.4C969,180.3,969,182.8,968.5,185.3L968.5,185.3z"/>
	<path class="st0" d="M928.9,169.8c-0.5-0.1-1.1-0.3-1.6-0.4c-1.7-0.2-3.5-0.4-5.3-0.4c-3.3-0.2-6.6-0.8-9.8-1.6
		c-1-0.6-1.8-1.4-2.4-2.4l-2.2-0.6c2.4-17.3-1.7-34.9-11.4-49.4c0.6-0.5,1.6-1.5,1.9-1.7c-0.1-1.1,0.3-2.2,1-3.1
		c2.5-2.2,5.3-4.1,8.2-5.7c1.6-0.8,3.1-1.7,4.6-2.7c0.4-0.3,0.8-0.7,1.2-1c2.6-1.6,3.3-5,1.7-7.6s-5-3.3-7.6-1.7
		c-0.3,0.2-0.6,0.4-0.9,0.7c-0.4,0.3-0.9,0.7-1.2,1c-1.3,1.2-2.5,2.5-3.6,3.8c-2.2,2.5-4.7,4.7-7.4,6.7c-1.1,0.4-2.2,0.6-3.3,0.4
		l-2.1,1.5c-12-12.6-28.2-20.4-45.6-22c-0.1-0.7-0.1-2.1-0.1-2.5c-0.9-0.6-1.6-1.6-1.8-2.7c-0.1-3.3,0.1-6.7,0.6-10
		c0.3-1.7,0.6-3.5,0.7-5.2c0-0.4,0-1.1,0-1.6c0.3-3-1.9-5.7-4.9-6s-5.7,1.9-6,4.9c0,0.4,0,0.7,0,1.1c0,0.1,0,0.1,0,0.2
		c0,0.5,0,1,0,1.4c0.1,1.8,0.4,3.5,0.7,5.2c0.5,3.3,0.7,6.6,0.6,10c-0.3,1.1-0.9,2.1-1.8,2.8l-0.1,2.3c-3.3,0.3-6.7,0.8-9.9,1.5
		c-13.7,3.1-26.2,10.2-35.9,20.5c-0.7-0.5-1.3-0.9-2-1.4c-1.1,0.3-2.3,0.2-3.3-0.3c-2.7-2-5.2-4.2-7.4-6.7c-1.1-1.3-2.3-2.6-3.6-3.8
		c-0.3-0.3-0.8-0.7-1.2-1c-1.1-0.9-2.4-1.4-3.8-1.4c-1.7-0.1-3.3,0.6-4.4,1.9c-1.9,2.6-1.2,6.2,1.4,8.1l0.1,0.1
		c0.4,0.3,0.8,0.7,1.1,0.9c1.5,1,3,1.9,4.6,2.7c2.9,1.6,5.6,3.6,8.2,5.7c0.7,0.9,1,2,1.1,3.2l1.8,1.6c-9.7,14.6-13.7,32.2-11.2,49.5
		l-2.3,0.7c-0.6,1-1.4,1.8-2.4,2.4c-3.2,0.9-6.5,1.4-9.8,1.6c-1.8,0-3.5,0.2-5.3,0.4c-0.4,0.1-1,0.2-1.5,0.3l0,0h-0.1
		c-3,0.4-5.1,3.2-4.7,6.2c0.4,3,3.2,5.1,6.2,4.7c0.3,0,0.7-0.1,1-0.2h0.1h0.1c0.5-0.1,1-0.2,1.4-0.3c1.7-0.5,3.3-1.2,4.9-1.9
		c3.1-1.2,6.3-2.2,9.6-2.8c1.1,0.1,2.2,0.5,3.2,1.1l2.4-0.4c5.4,16.6,16.6,30.7,31.7,39.5l-1,2.4c0.5,1,0.6,2,0.5,3.1
		c-1.4,3.1-3,6.1-5,8.9c-1.1,1.4-2,2.9-2.9,4.4c-0.2,0.4-0.5,1-0.7,1.5c-1.6,2.6-0.7,6,1.9,7.6c2.6,1.6,6,0.7,7.6-1.9
		c0.2-0.3,0.3-0.6,0.5-1l0,0l0,0c0.2-0.4,0.5-1,0.7-1.4c0.6-1.6,1.2-3.3,1.6-5c0.9-3.5,2.4-6.8,4.3-9.9c0.7-0.6,1.5-1,2.4-1.2
		l1.2-2.3c16.3,6.3,34.3,6.3,50.7,0.1c0.3,0.6,1,1.8,1.2,2.1c1.1,0.2,2.1,0.8,2.8,1.7c1.6,2.9,2.8,6,3.8,9.2c0.4,1.7,1,3.4,1.6,5
		c0.2,0.4,0.5,1,0.7,1.4c1,2.9,4.2,4.4,7.1,3.3s4.4-4.2,3.3-7.1c-0.1-0.3-0.3-0.7-0.5-1c-0.2-0.4-0.5-1.1-0.7-1.5
		c-0.9-1.5-1.9-3-2.9-4.4c-1.9-2.7-3.5-5.7-4.9-8.7c-0.3-1.1-0.1-2.3,0.4-3.2c-0.4-0.7-0.7-1.5-0.9-2.2
		c15.1-8.9,26.3-23.1,31.6-39.8c0.7,0.1,1.9,0.3,2.3,0.4c0.8-0.8,1.9-1.2,3.1-1.1c3.3,0.6,6.5,1.6,9.6,2.8c1.6,0.7,3.2,1.4,4.9,1.9
		c0.4,0.1,1,0.2,1.4,0.3h0.1h0.1c2.9,0.9,6-0.6,7-3.5c0.9-2.9-0.6-6-3.5-7C929.6,170,929.3,169.9,928.9,169.8L928.9,169.8z
		 M876.8,113.9l-23.5,16.6h-0.1c-2.2,1.6-5.2,1.1-6.8-1.1c-0.6-0.8-0.9-1.7-0.9-2.6l0,0l-1.6-28.7
		C856.3,99.6,867.9,105.2,876.8,113.9L876.8,113.9z M832.6,145.4h8.8l5.5,6.9l-2,8.6l-7.9,3.8l-8-3.8l-2-8.6L832.6,145.4z
		 M824.3,99.1c1.9-0.4,3.9-0.8,5.9-1l-1.6,28.8l-0.1,0.1c-0.1,2.7-2.4,4.7-5,4.6c-1,0-1.9-0.4-2.6-0.9l0,0L797,113.9
		C804.6,106.5,814,101.4,824.3,99.1z M788.5,124.7L810,144v0.1c2,1.8,2.2,4.8,0.5,6.8c-0.6,0.7-1.5,1.2-2.4,1.5v0.1l-27.6,8
		C779.1,148,781.9,135.4,788.5,124.7L788.5,124.7z M817.3,175.9l-11,26.5c-10.5-6.7-18.6-16.8-22.8-28.5l28.3-4.8v0.1
		c0.3-0.1,0.6-0.1,0.9-0.1c2.7,0,4.8,2.2,4.8,4.9c0,0.6-0.1,1.3-0.4,1.8L817.3,175.9z M849.8,210c-10.3,2.4-21,1.8-31-1.6l13.9-25.2
		l0,0c1.3-2.4,4.2-3.2,6.6-2c0.8,0.4,1.5,1.1,2,2h0.1l14,25.2C853.5,209.1,851.7,209.6,849.8,210L849.8,210z M867.8,202.5
		l-11.1-26.8l0,0c-1-2.4,0-5.1,2.3-6.3c0.6-0.3,1.2-0.4,1.9-0.5c0.4,0,0.7,0,1.1,0.1v-0.1l28.6,4.8
		C886.4,185.6,878.4,195.8,867.8,202.5L867.8,202.5z M893.6,160.4l-27.8-8v-0.1c-2.6-0.7-4.1-3.4-3.4-6c0.3-0.9,0.8-1.7,1.5-2.4
		v-0.1l21.4-19.2C891.9,135.4,894.8,147.9,893.6,160.4L893.6,160.4z"/>
</g>
<g>
	<polygon class="st2" points="188.9,65.8 148.9,88.9 188.9,111.9 	"/>
	<polygon class="st3" points="109,65.8 109,111.9 148.9,88.9 	"/>
	<polygon class="st4" points="188.9,111.9 148.9,88.9 109,111.9 148.9,135 	"/>
	<polygon class="st2" points="66.8,138.8 106.8,161.9 106.8,115.7 	"/>
	<polygon class="st3" points="106.8,208 146.8,185 106.8,161.9 	"/>
	<polygon class="st4" points="106.8,115.7 106.8,161.9 146.8,185 146.8,138.8 	"/>
	<polygon class="st2" points="191.1,208 191.1,161.9 151.1,185 	"/>
	<polygon class="st3" points="231.1,138.8 191.1,115.7 191.1,161.9 	"/>
	<polygon class="st4" points="151.1,185 191.1,161.9 191.1,115.7 151.1,138.8 	"/>
	<path class="st5" d="M235.7,20.2H62.2c-23.7,0-43.1,19.4-43.1,43.1v173.5c0,23.7,19.4,43.1,43.1,43.1H181l-32-78l-23.3,49.2H62.2
		c-7.8,0-14.4-6.6-14.4-14.4V63.2c0-7.8,6.6-14.4,14.4-14.4h173.5c7.8,0,14.4,6.6,14.4,14.4v173.5c0,7.8-6.6,14.4-14.4,14.4H198
		l11.8,28.7h25.8c23.7,0,43.1-19.4,43.1-43.1V63.2C278.8,39.5,259.4,20.2,235.7,20.2z"/>
</g>
<g>
	<path class="st6" d="M493.1,78.9c-1.3,0-2.8,0-4.1,0.1c-16.5,1.1-29,11.8-35.8,19.5c-7.2-7.4-19.9-17.6-36.6-18H415
		c-28.5,0-51,21.1-52,49.2c-1,25.5,16.3,47,29.5,60.9c17.1,18.2,42.5,36.7,58.9,46.2c1.3,0.8,2.9,1.1,4.4,1.1c1.7,0,3.4-0.4,4.8-1.3
		c15.9-10.1,40.6-29.5,57-48.4c12.6-14.5,29.1-36.8,27.2-62.2C542.5,99.1,520.4,78.9,493.1,78.9"/>
	<g>
		<path d="M583.8,120.5l0.8,1.1c-3.1,12.6-6.3,22.4-9.2,29.2h-14.5c2.3-11,4-21,5.1-30.3H583.8z"/>
		<path d="M638,178.3c0,6.3-2.1,11.1-6.5,14.3c-4.2,3.2-10.5,4.8-18.4,4.8c-4.4,0-8.2-0.2-11.4-0.7c-3.2-0.4-6.5-1.3-9.8-2.6v-16.2
			c3.1,1.3,6.6,2.6,10.4,3.5c3.8,0.9,7.2,1.3,10.1,1.3c4.4,0,6.6-1,6.6-3c0-1-0.7-2-1.8-2.8c-1.2-0.8-4.8-2.3-10.7-4.8
			c-5.4-2.2-9.2-4.7-11.3-7.6c-2.1-2.8-3.2-6.4-3.2-10.7c0-5.5,2.1-9.7,6.4-12.7c4.2-3,10.2-4.6,17.9-4.6c3.9,0,7.5,0.4,11,1.2
			c3.5,0.9,6.9,2.1,10.6,3.7l-5.5,13.1c-2.7-1.2-5.6-2.2-8.6-3.1c-3-0.9-5.5-1.2-7.4-1.2c-3.4,0-5,0.8-5,2.5c0,1,0.6,1.9,1.8,2.6
			c1.1,0.7,4.5,2.1,10.1,4.4c4.1,1.7,7.2,3.4,9.2,5s3.5,3.6,4.5,5.7C637.6,172.5,638,175.1,638,178.3z"/>
	</g>
</g>
</svg>
