<?xml version="1.0" encoding="UTF-8"?>
<svg id="Layer_1" data-name="Layer 1" xmlns="http://www.w3.org/2000/svg" viewBox="0 0 420 280">
  <defs>
    <style>
      .cls-1 {
        fill: #4695eb;
      }

      .cls-2 {
        fill: #fff;
      }

      .cls-3 {
        fill: #ff004a;
      }
    </style>
  </defs>
  <path class="cls-3" d="M141.99,195.37h-.17c-.13,0-13.33-1.16-18-1.63-4.93-.47-6.6-4.54-6.52-7.16l1.54-94.68c0-1.2.99-2.14,2.19-2.1,1.2,0,2.14.99,2.1,2.19l-1.54,94.73v.04c0,.73.21,2.53,2.61,2.74,3.56.34,12.09,1.07,15.99,1.41l14.57-99.23c.17-1.16,1.24-1.97,2.44-1.8,1.16.17,1.97,1.24,1.8,2.44l-14.87,101.24c-.17,1.03-1.07,1.8-2.14,1.8h0Z"/>
  <path class="cls-2" d="M313.3,245.01H106.7c-1.2,0-2.14-.94-2.14-2.14V37.13c0-1.2.94-2.14,2.14-2.14h206.6c1.2,0,2.14.94,2.14,2.14v205.74c0,1.2-.94,2.14-2.14,2.14ZM108.84,240.73h202.3V39.27H108.84v201.46Z"/>
  <path class="cls-1" d="M156,76.52h-23.02c-4.24,0-7.67-3.43-7.67-7.67v-.39c0-4.24,3.43-7.72,7.67-7.72h23.02c4.2.04,7.63,3.43,7.67,7.67v.39c0,4.24-3.43,7.67-7.67,7.72ZM132.99,72.23h23.02c1.84-.04,3.34-1.54,3.39-3.39v-.39c-.04-1.84-1.54-3.34-3.39-3.39h-23.02c-1.89,0-3.39,1.54-3.39,3.39v.39c0,1.89,1.5,3.39,3.39,3.39Z"/>
  <path class="cls-1" d="M121.54,93.96c-1.59.09-3.17-.56-4.24-1.76-1.63-1.84-1.54-4.41-1.5-5.1l-.09-35.75c-.04-.6-.04-2.83,1.41-4.41.86-.9,2.06-1.41,3.34-1.41h3.77c2.14-.13,5.49,1.16,6,5.19.17,1.29.3,2.19,1.93,2.19h24.09c1.63,0,1.76-.94,1.93-2.19.26-3.09,2.96-5.4,6.04-5.23h3.77c1.24-.04,2.44.47,3.34,1.37,1.46,1.54,1.46,3.77,1.46,4.37l.09,23.06c0,4.2-2.83,7.07-3.26,7.5l-11.53,11.49c-.39.39-.94.64-1.54.64l-34.98.04h-.04ZM124.28,49.81h-3.81c-.13,0-.21.04-.21.04-.21.39-.3.86-.3,1.29v.13l.13,35.92v.26c-.04.39,0,1.46.43,1.93.09.09.3.34,1.03.3h.04l34.08-.04,10.8-10.84.09-.09s1.93-1.84,1.89-4.37l-.09-23.15v-.13c.04-.43-.09-.9-.3-1.29-.04-.04-.13-.04-.21,0h-3.99c-.6,0-1.37.21-1.54,1.5-.34,2.7-1.71,5.92-6.17,5.96h-24c-4.41-.04-5.79-3.26-6.13-5.96-.17-1.24-.94-1.5-1.59-1.46h-.13Z"/>
  <path class="cls-1" d="M207.44,147.71h-2.57c-3.56,0-6.43-2.87-6.43-6.43v-71.58c0-1.2.94-2.14,2.14-2.14s2.14.94,2.14,2.14v71.58c0,1.2.94,2.14,2.14,2.14h2.57c1.2,0,2.14-.94,2.14-2.14v-71.58c0-1.2.94-2.14,2.14-2.14s2.14.94,2.14,2.14v71.58c0,3.56-2.87,6.43-6.43,6.43h0Z"/>
  <path class="cls-1" d="M233.15,224.35c-.26,0-.51-.04-.77-.13-7.8-3-12.99-10.54-12.94-18.9,0-7.37,4.03-14.19,10.5-17.79v-52.93c-9.82-5.44-13.33-17.79-7.89-27.6,2.27-4.07,5.83-7.2,10.12-8.96,1.11-.43,2.36.09,2.79,1.2.09.26.17.51.17.81v13.03h9.13v-13.12c0-1.2.94-2.14,2.14-2.14.26,0,.51.04.77.13,10.46,4.07,15.6,15.86,11.53,26.32-1.76,4.46-5.01,8.19-9.26,10.46v52.76c9.86,5.36,13.46,17.7,8.1,27.52-2.23,4.11-5.87,7.33-10.2,9.09-1.11.43-2.36-.09-2.79-1.2-.09-.26-.17-.51-.17-.81v-13.03h-9.09v13.12c0,1.24-.94,2.19-2.14,2.19h0ZM230.84,103.56c-7.33,4.97-9.26,14.92-4.33,22.25,1.63,2.4,3.86,4.29,6.47,5.53.77.34,1.24,1.11,1.24,1.93v55.55c0,.81-.47,1.59-1.24,1.93-8.02,3.73-11.49,13.24-7.76,21.3,1.24,2.7,3.26,5.01,5.79,6.64v-11.79c0-1.2.94-2.14,2.14-2.14h13.42c1.2,0,2.14.94,2.14,2.14v11.62c7.33-4.93,9.3-14.92,4.33-22.25-1.63-2.44-3.9-4.37-6.56-5.61-.77-.34-1.24-1.11-1.24-1.93v-55.34c0-.86.47-1.63,1.24-1.97,8.06-3.69,11.62-13.16,7.93-21.22-1.24-2.74-3.26-5.1-5.83-6.77v11.79c0,1.2-.94,2.14-2.14,2.14h-13.42c-1.2,0-2.14-.94-2.14-2.14v-11.66h-.04Z"/>
  <path class="cls-3" d="M290.59,179.86c-1.2,0-2.14-.94-2.14-2.14v-33c0-1.2.94-2.14,2.14-2.14s2.14.94,2.14,2.14v33c0,1.2-.94,2.14-2.14,2.14Z"/>
  <path class="cls-2" d="M299.16,152.47h-.56c-1.2,0-2.14-.94-2.14-2.14s.94-2.14,2.14-2.14h.56c1.2,0,2.14.94,2.14,2.14s-.94,2.14-2.14,2.14Z"/>
  <path class="cls-2" d="M299.16,172.27h-.56c-1.2,0-2.14-.94-2.14-2.14s.94-2.14,2.14-2.14h.56c1.2,0,2.14.94,2.14,2.14s-.94,2.14-2.14,2.14Z"/>
  <path class="cls-2" d="M299.16,231.72h-.56c-1.2,0-2.14-.94-2.14-2.14s.94-2.14,2.14-2.14h.56c1.2,0,2.14.94,2.14,2.14s-.94,2.14-2.14,2.14Z"/>
  <path class="cls-2" d="M281.46,152.47h-.56c-1.2,0-2.14-.94-2.14-2.14s.94-2.14,2.14-2.14h.56c1.2,0,2.14.94,2.14,2.14s-.99,2.14-2.14,2.14Z"/>
  <path class="cls-2" d="M281.46,172.27h-.56c-1.2,0-2.14-.94-2.14-2.14s.94-2.14,2.14-2.14h.56c1.2,0,2.14.94,2.14,2.14s-.99,2.14-2.14,2.14Z"/>
  <path class="cls-2" d="M281.46,231.72h-.56c-1.2,0-2.14-.94-2.14-2.14s.94-2.14,2.14-2.14h.56c1.2,0,2.14.94,2.14,2.14s-.99,2.14-2.14,2.14Z"/>
  <path class="cls-2" d="M263.72,93.02h-.56c-1.2,0-2.14-.94-2.14-2.14s.94-2.14,2.14-2.14h.56c1.2,0,2.14.94,2.14,2.14s-.94,2.14-2.14,2.14Z"/>
  <path class="cls-2" d="M263.72,112.82h-.56c-1.2,0-2.14-.94-2.14-2.14s.94-2.14,2.14-2.14h.56c1.2,0,2.14.94,2.14,2.14s-.94,2.14-2.14,2.14Z"/>
  <path class="cls-2" d="M263.72,132.62h-.56c-1.2,0-2.14-.94-2.14-2.14s.94-2.14,2.14-2.14h.56c1.2,0,2.14.94,2.14,2.14s-.94,2.14-2.14,2.14Z"/>
  <path class="cls-2" d="M263.72,152.47h-.56c-1.2,0-2.14-.94-2.14-2.14s.94-2.14,2.14-2.14h.56c1.2,0,2.14.94,2.14,2.14s-.94,2.14-2.14,2.14Z"/>
  <path class="cls-2" d="M263.72,172.27h-.56c-1.2,0-2.14-.94-2.14-2.14s.94-2.14,2.14-2.14h.56c1.2,0,2.14.94,2.14,2.14s-.94,2.14-2.14,2.14Z"/>
  <path class="cls-2" d="M263.72,192.07h-.56c-1.2,0-2.14-.94-2.14-2.14s.94-2.14,2.14-2.14h.56c1.2,0,2.14.94,2.14,2.14s-.94,2.14-2.14,2.14Z"/>
  <path class="cls-2" d="M263.72,211.92h-.56c-1.2,0-2.14-.94-2.14-2.14s.94-2.14,2.14-2.14h.56c1.2,0,2.14.94,2.14,2.14s-.94,2.14-2.14,2.14Z"/>
  <path class="cls-2" d="M263.72,231.72h-.56c-1.2,0-2.14-.94-2.14-2.14s.94-2.14,2.14-2.14h.56c1.2,0,2.14.94,2.14,2.14s-.94,2.14-2.14,2.14Z"/>
  <path class="cls-2" d="M246.01,93.02h-.56c-1.2,0-2.14-.94-2.14-2.14s.94-2.14,2.14-2.14h.56c1.2,0,2.14.94,2.14,2.14s-.94,2.14-2.14,2.14Z"/>
  <path class="cls-2" d="M246.01,231.72h-.56c-1.2,0-2.14-.94-2.14-2.14s.94-2.14,2.14-2.14h.56c1.2,0,2.14.94,2.14,2.14s-.94,2.14-2.14,2.14Z"/>
  <path class="cls-2" d="M228.31,93.02h-.56c-1.2,0-2.14-.94-2.14-2.14s.94-2.14,2.14-2.14h.56c1.2,0,2.14.94,2.14,2.14s-.99,2.14-2.14,2.14Z"/>
  <path class="cls-2" d="M228.31,231.72h-.56c-1.2,0-2.14-.94-2.14-2.14s.94-2.14,2.14-2.14h.56c1.2,0,2.14.94,2.14,2.14s-.99,2.14-2.14,2.14Z"/>
  <path class="cls-2" d="M210.57,172.27h-.56c-1.2,0-2.14-.94-2.14-2.14s.94-2.14,2.14-2.14h.56c1.2,0,2.14.94,2.14,2.14s-.94,2.14-2.14,2.14Z"/>
  <path class="cls-2" d="M210.57,192.07h-.56c-1.2,0-2.14-.94-2.14-2.14s.94-2.14,2.14-2.14h.56c1.2,0,2.14.94,2.14,2.14s-.94,2.14-2.14,2.14Z"/>
  <path class="cls-2" d="M210.57,211.92h-.56c-1.2,0-2.14-.94-2.14-2.14s.94-2.14,2.14-2.14h.56c1.2,0,2.14.94,2.14,2.14s-.94,2.14-2.14,2.14Z"/>
  <path class="cls-2" d="M210.57,231.72h-.56c-1.2,0-2.14-.94-2.14-2.14s.94-2.14,2.14-2.14h.56c1.2,0,2.14.94,2.14,2.14s-.94,2.14-2.14,2.14Z"/>
  <path class="cls-2" d="M192.86,93.02h-.56c-1.2,0-2.14-.94-2.14-2.14s.94-2.14,2.14-2.14h.56c1.2,0,2.14.94,2.14,2.14s-.94,2.14-2.14,2.14Z"/>
  <path class="cls-2" d="M192.86,112.82h-.56c-1.2,0-2.14-.94-2.14-2.14s.94-2.14,2.14-2.14h.56c1.2,0,2.14.94,2.14,2.14s-.94,2.14-2.14,2.14Z"/>
  <path class="cls-2" d="M192.86,132.62h-.56c-1.2,0-2.14-.94-2.14-2.14s.94-2.14,2.14-2.14h.56c1.2,0,2.14.94,2.14,2.14s-.94,2.14-2.14,2.14Z"/>
  <path class="cls-2" d="M192.86,152.47h-.56c-1.2,0-2.14-.94-2.14-2.14s.94-2.14,2.14-2.14h.56c1.2,0,2.14.94,2.14,2.14s-.94,2.14-2.14,2.14Z"/>
  <path class="cls-2" d="M192.86,172.27h-.56c-1.2,0-2.14-.94-2.14-2.14s.94-2.14,2.14-2.14h.56c1.2,0,2.14.94,2.14,2.14s-.94,2.14-2.14,2.14Z"/>
  <path class="cls-2" d="M192.86,192.07h-.56c-1.2,0-2.14-.94-2.14-2.14s.94-2.14,2.14-2.14h.56c1.2,0,2.14.94,2.14,2.14s-.94,2.14-2.14,2.14Z"/>
  <path class="cls-2" d="M192.86,211.92h-.56c-1.2,0-2.14-.94-2.14-2.14s.94-2.14,2.14-2.14h.56c1.2,0,2.14.94,2.14,2.14s-.94,2.14-2.14,2.14Z"/>
  <path class="cls-2" d="M192.86,231.72h-.56c-1.2,0-2.14-.94-2.14-2.14s.94-2.14,2.14-2.14h.56c1.2,0,2.14.94,2.14,2.14s-.94,2.14-2.14,2.14Z"/>
  <path class="cls-2" d="M175.16,93.02h-.56c-1.2,0-2.14-.94-2.14-2.14s.94-2.14,2.14-2.14h.56c1.2,0,2.14.94,2.14,2.14s-.99,2.14-2.14,2.14Z"/>
  <path class="cls-2" d="M175.16,112.82h-.56c-1.2,0-2.14-.94-2.14-2.14s.94-2.14,2.14-2.14h.56c1.2,0,2.14.94,2.14,2.14s-.99,2.14-2.14,2.14Z"/>
  <path class="cls-2" d="M175.16,132.62h-.56c-1.2,0-2.14-.94-2.14-2.14s.94-2.14,2.14-2.14h.56c1.2,0,2.14.94,2.14,2.14s-.99,2.14-2.14,2.14Z"/>
  <path class="cls-2" d="M175.16,152.47h-.56c-1.2,0-2.14-.94-2.14-2.14s.94-2.14,2.14-2.14h.56c1.2,0,2.14.94,2.14,2.14s-.99,2.14-2.14,2.14Z"/>
  <path class="cls-2" d="M175.16,172.27h-.56c-1.2,0-2.14-.94-2.14-2.14s.94-2.14,2.14-2.14h.56c1.2,0,2.14.94,2.14,2.14s-.99,2.14-2.14,2.14Z"/>
  <path class="cls-2" d="M175.16,192.07h-.56c-1.2,0-2.14-.94-2.14-2.14s.94-2.14,2.14-2.14h.56c1.2,0,2.14.94,2.14,2.14s-.99,2.14-2.14,2.14Z"/>
  <path class="cls-2" d="M175.16,211.92h-.56c-1.2,0-2.14-.94-2.14-2.14s.94-2.14,2.14-2.14h.56c1.2,0,2.14.94,2.14,2.14s-.99,2.14-2.14,2.14Z"/>
  <path class="cls-2" d="M175.16,231.72h-.56c-1.2,0-2.14-.94-2.14-2.14s.94-2.14,2.14-2.14h.56c1.2,0,2.14.94,2.14,2.14s-.99,2.14-2.14,2.14Z"/>
  <path class="cls-2" d="M157.46,152.47h-.6c-1.2,0-2.14-.94-2.14-2.14s.94-2.14,2.14-2.14h.56c1.2,0,2.14.94,2.14,2.14s-.94,2.14-2.1,2.14h0Z"/>
  <path class="cls-2" d="M157.46,172.27h-.6c-1.2,0-2.14-.94-2.14-2.14s.94-2.14,2.14-2.14h.56c1.2,0,2.14.94,2.14,2.14s-.94,2.14-2.1,2.14h0Z"/>
  <path class="cls-2" d="M157.46,192.07h-.6c-1.2,0-2.14-.94-2.14-2.14s.94-2.14,2.14-2.14h.56c1.2,0,2.14.94,2.14,2.14s-.94,2.14-2.1,2.14h0Z"/>
  <path class="cls-2" d="M157.46,211.92h-.6c-1.2,0-2.14-.94-2.14-2.14s.94-2.14,2.14-2.14h.56c1.2,0,2.14.94,2.14,2.14s-.94,2.14-2.1,2.14h0Z"/>
  <path class="cls-2" d="M157.46,231.72h-.6c-1.2,0-2.14-.94-2.14-2.14s.94-2.14,2.14-2.14h.56c1.2,0,2.14.94,2.14,2.14s-.94,2.14-2.1,2.14h0Z"/>
  <path class="cls-2" d="M139.71,211.92h-.56c-1.2,0-2.14-.94-2.14-2.14s.94-2.14,2.14-2.14h.56c1.2,0,2.14.94,2.14,2.14s-.94,2.14-2.14,2.14Z"/>
  <path class="cls-2" d="M139.71,231.72h-.56c-1.2,0-2.14-.94-2.14-2.14s.94-2.14,2.14-2.14h.56c1.2,0,2.14.94,2.14,2.14s-.94,2.14-2.14,2.14Z"/>
  <path class="cls-2" d="M122.01,211.92h-.56c-1.2,0-2.14-.94-2.14-2.14s.94-2.14,2.14-2.14h.56c1.2,0,2.14.94,2.14,2.14s-.94,2.14-2.14,2.14Z"/>
  <path class="cls-2" d="M122.01,231.72h-.56c-1.2,0-2.14-.94-2.14-2.14s.94-2.14,2.14-2.14h.56c1.2,0,2.14.94,2.14,2.14s-.94,2.14-2.14,2.14Z"/>
  <path class="cls-1" d="M298.3,175.58h-15.43c-3.56,0-6.43,2.87-6.43,6.43v33c0,3.56,2.87,6.43,6.43,6.43h15.43c3.56,0,6.43-2.87,6.43-6.43v-33c0-3.56-2.87-6.43-6.43-6.43ZM280.73,194.86h19.72v7.29h-19.72v-7.29ZM282.87,179.86h15.43c1.2,0,2.14.94,2.14,2.14v8.57h-19.72v-8.57c0-1.2.94-2.14,2.14-2.14ZM298.3,217.15h-15.43c-1.2,0-2.14-.94-2.14-2.14v-8.58h19.72v8.58c0,1.2-.94,2.14-2.14,2.14Z"/>
  <path class="cls-1" d="M299.58,45.7h-54.01c-1.2,0-2.14.94-2.14,2.14v23.15c0,1.2.94,2.14,2.14,2.14h28.72v57.43c0,1.2.94,2.14,2.14,2.14h23.15c1.2,0,2.14-.94,2.14-2.14V47.84c0-1.2-.94-2.14-2.14-2.14ZM297.44,128.42h-18.86v-6s3.44,0,3.44,0c1.2,0,2.14-.94,2.14-2.14s-.94-2.14-2.14-2.14h-3.44v-6.34s3.44,0,3.44,0c1.2,0,2.14-.94,2.14-2.14s-.94-2.14-2.14-2.14h-3.44v-6.3s3.44,0,3.44,0c1.2,0,2.14-.94,2.14-2.14s-.94-2.14-2.14-2.14h-3.44v-6.3s3.44,0,3.44,0c1.2,0,2.14-.94,2.14-2.14s-.94-2.14-2.14-2.14h-3.44v-6.34s3.44,0,3.44,0c1.2,0,2.14-.94,2.14-2.14s-.94-2.14-2.14-2.14h-3.44v-4.72c0-1.2-.94-2.14-2.14-2.14h-8.99v-4.28c0-1.2-.94-2.14-2.14-2.14s-2.14.94-2.14,2.14v4.28h-5.14v-4.28c0-1.2-.94-2.14-2.14-2.14s-2.14.94-2.14,2.14v4.28h-6.01v-18.86h49.72v78.44Z"/>
  <path class="cls-3" d="M225.44,71.84h-37.72c-3.56,0-6.43-2.87-6.43-6.43v-13.29c0-3.56,2.87-6.43,6.43-6.43h37.72c3.56,0,6.43,2.87,6.43,6.43v13.29c0,3.56-2.87,6.43-6.43,6.43ZM187.72,49.99c-1.2,0-2.14.94-2.14,2.14v13.29c0,1.2.94,2.14,2.14,2.14h37.72c1.2,0,2.14-.94,2.14-2.14v-13.29c0-1.2-.94-2.14-2.14-2.14h-37.72Z"/>
</svg>