<?xml version="1.0" encoding="UTF-8"?>
<svg id="Layer_1" data-name="Layer 1" xmlns="http://www.w3.org/2000/svg" viewBox="0 0 420 280">
  <defs>
    <style>
      .cls-1 {
        fill: #091313;
      }

      .cls-2 {
        fill: #4695eb;
      }

      .cls-3 {
        fill: #ff004a;
      }
    </style>
  </defs>
  <path class="cls-2" d="M237.33,106.48l-28.35-17.39c-3.54-2.17-3.54-7.31,0-9.48l28.35-17.39c.75-.46,1.37-1.09,1.83-1.83l17.39-28.35c2.17-3.54,7.31-3.54,9.48,0l17.39,28.35c.46.75,1.09,1.37,1.83,1.83l28.35,17.39c3.54,2.17,3.54,7.31,0,9.48l-28.35,17.39c-.75.46-1.37,1.09-1.83,1.83l-17.39,28.35c-2.17,3.54-7.31,3.54-9.48,0l-17.39-28.35c-.46-.75-1.09-1.37-1.83-1.83Z"/>
  <path class="cls-3" d="M296.65,48.21l-12.14-7.45c-1.51-.93-1.51-3.13,0-4.06l12.14-7.45c.32-.2.59-.46.78-.78l7.45-12.14c.93-1.51,3.13-1.51,4.06,0l7.45,12.14c.2.32.46.59.78.78l12.14,7.45c1.51.93,1.51,3.13,0,4.06l-12.14,7.45c-.32.2-.59.46-.78.78l-7.45,12.14c-.93,1.51-3.13,1.51-4.06,0l-7.45-12.14c-.2-.32-.46-.59-.78-.78Z"/>
  <g>
    <g>
      <path class="cls-1" d="M126,174.76H25.69c-4.14,0-7.5-3.36-7.5-7.5s3.36-7.5,7.5-7.5h100.3c4.14,0,7.5,3.36,7.5,7.5s-3.36,7.5-7.5,7.5Z"/>
      <path class="cls-1" d="M126,148.96h-44.6c-2.54,0-4.9-1.28-6.29-3.41l-17.32-26.59h-28.05c-4.14,0-7.5-3.36-7.5-7.5s3.36-7.5,7.5-7.5h32.12c2.54,0,4.9,1.28,6.29,3.41l17.32,26.59h40.53c4.14,0,7.5,3.36,7.5,7.5s-3.36,7.5-7.5,7.5Z"/>
      <path class="cls-1" d="M61.86,229.82H29.75c-4.14,0-7.5-3.36-7.5-7.5s3.36-7.5,7.5-7.5h28.05l17.32-26.59c1.38-2.12,3.75-3.41,6.29-3.41h44.6c4.14,0,7.5,3.36,7.5,7.5s-3.36,7.5-7.5,7.5h-40.53l-17.32,26.59c-1.38,2.12-3.75,3.41-6.29,3.41Z"/>
    </g>
    <path class="cls-1" d="M342.15,188.03c1.85,3.19,6.05,4.37,9.24,2.52l31.07-17.8c1.01-.67,1.85-1.51,2.52-2.52,1.85-3.36.67-7.39-2.52-9.24l-31.07-17.8c-1.01-.5-2.18-.84-3.36-.84-2.35,0-4.53,1.18-5.88,3.02-1.85,3.36-.67,7.39,2.52,9.24l7.77,4.48c.35.2.68.43.99.67h-56.18c-.1-3.65-.27-7.25-.52-10.8h19.13c2.54,0,4.9-1.28,6.29-3.41l17.32-26.59h12.82l-7.62,4.39c-3.19,1.85-4.37,6.05-2.52,9.24,1.85,3.19,6.05,4.37,9.24,2.52l31.07-17.8c1.01-.67,1.85-1.51,2.52-2.52,1.85-3.36.67-7.39-2.52-9.24l-31.07-17.8c-1.01-.5-2.18-.84-3.36-.84-2.35,0-4.53,1.18-5.88,3.02-1.85,3.36-.67,7.39,2.52,9.24l7.77,4.48c.17.1.32.21.48.32h-17.51c-2.54,0-4.9,1.28-6.29,3.41l-17.32,26.59h-16.59c-.28-2.08-.59-4.15-.92-6.16-.7-4.17-4.77-6.88-8.9-5.98h0c-3.96.87-6.51,4.69-5.85,8.69,1.84,11.07,2.82,23.47,2.82,36.38,0,21.19-2.63,41.01-7.41,55.81-4.98,15.41-10.19,18.88-11.63,18.88h-113.38c-2.19,0-3.65-2.27-2.73-4.26,1.34-2.9,2.63-6.22,3.85-10.01,5.25-16.25,8.13-37.71,8.13-60.42s-2.89-44.17-8.13-60.42c-1.22-3.79-2.52-7.11-3.85-10.01-.92-1.99.54-4.26,2.73-4.26h42.38c4.1,0,7.43-3.33,7.43-7.43s-3.39-7.57-7.57-7.57h-67.03c-8.86,0-21.03,6.86-28.74,39.53-.95,4.03,1.55,8.07,5.58,9.02,4.04.95,8.07-1.55,9.02-5.58,4.94-20.93,11.78-27.97,14.14-27.97,1.44,0,6.65,3.47,11.63,18.88,4.78,14.8,7.41,34.62,7.41,55.81s-2.63,41.01-7.41,55.81c-4.97,15.41-10.19,18.88-11.63,18.88-2.4,0-9.34-7.19-14.28-28.57-.93-4.04-4.96-6.55-9-5.62-4.04.93-6.55,4.96-5.62,9,6,25.92,16.26,40.19,28.9,40.19h138.16c7.5,0,18.09-5.08,25.9-29.27,2.6-8.05,4.62-17.37,5.99-27.5h16.58l17.32,26.59c1.38,2.12,3.75,3.41,6.29,3.41h16.96l-7.69,4.43c-3.19,1.85-4.37,6.05-2.52,9.24,1.85,3.19,6.05,4.37,9.24,2.52l31.07-17.8c1.01-.67,1.85-1.51,2.52-2.52,1.85-3.36.67-7.39-2.52-9.24l-31.07-17.8c-1.01-.5-2.18-.84-3.36-.84-2.35,0-4.53,1.18-5.88,3.02-1.85,3.36-.67,7.39,2.52,9.24l7.77,4.48c.15.08.27.18.41.28h-13.38l-17.32-26.59c-1.38-2.12-3.75-3.41-6.29-3.41h-19.12c.23-3.31.4-6.66.5-10.06h54.44l-7.02,4.04c-3.19,1.85-4.37,6.05-2.52,9.24Z"/>
  </g>
</svg>