<?xml version="1.0" encoding="UTF-8"?>
<svg id="Layer_1" data-name="Layer 1" xmlns="http://www.w3.org/2000/svg" viewBox="0 0 420 280">
  <defs>
    <style>
      .cls-1 {
        fill: #4695eb;
      }

      .cls-2 {
        fill: #fff;
      }
    </style>
  </defs>
  <path class="cls-1" d="M303.97,131.89c0-11.97-5.57-22.89-14.94-29.33-.17-5.82-1.85-11.45-4.9-16.3-2.72-4.34-6.42-7.88-10.71-10.25-1.43-7.26-5.05-13.97-10.25-18.93-5.97-5.7-13.65-8.84-21.62-8.84-12.79,0-23.88,7.97-29.2,19.52-.92,2.01-3.77,2.01-4.69,0-5.32-11.56-16.41-19.52-29.2-19.52-7.98,0-15.66,3.14-21.62,8.84-5.19,4.96-8.82,11.67-10.25,18.93-4.29,2.38-7.99,5.91-10.71,10.25-3.05,4.86-4.74,10.48-4.9,16.3-9.37,6.43-14.94,17.35-14.94,29.33,0,9.74,3.84,19.05,10.56,25.69-2.02,4.6-3.09,9.72-3.09,14.86,0,15.61,9.66,29.36,23.55,33.64,1.73,6.7,5.38,12.85,10.33,17.36,5.88,5.37,13.36,8.32,21.07,8.32,12.19,0,22.84-7.24,28.42-17.92,1.32-2.54,4.95-2.54,6.28,0,5.58,10.69,16.23,17.92,28.42,17.92,7.71,0,15.19-2.96,21.07-8.32,4.95-4.52,8.6-10.66,10.33-17.36,13.9-4.28,23.55-18.03,23.55-33.64,0-5.14-1.07-10.26-3.09-14.86,6.72-6.63,10.56-15.95,10.56-25.69Z"/>
  <path class="cls-2" d="M241.55,48.23c7.98,0,15.66,3.14,21.62,8.84,5.19,4.96,8.82,11.67,10.25,18.93,4.29,2.38,7.99,5.91,10.71,10.25,3.05,4.86,4.74,10.48,4.9,16.3,9.37,6.43,14.94,17.35,14.94,29.33,0,9.74-3.84,19.05-10.56,25.69,2.02,4.6,3.09,9.72,3.09,14.86,0,15.61-9.66,29.36-23.55,33.64-1.73,6.7-5.38,12.85-10.33,17.36-5.88,5.37-13.36,8.32-21.07,8.32-12.19,0-22.84-7.24-28.42-17.92-.66-1.27-1.9-1.9-3.14-1.9s-2.48.63-3.14,1.9c-5.58,10.69-16.23,17.92-28.42,17.92-7.71,0-15.19-2.96-21.07-8.32-4.95-4.52-8.6-10.66-10.33-17.36-13.9-4.28-23.55-18.03-23.55-33.64,0-5.14,1.07-10.26,3.09-14.86-6.72-6.63-10.56-15.95-10.56-25.69,0-11.97,5.57-22.89,14.94-29.33.16-5.82,1.85-11.45,4.9-16.3,2.72-4.34,6.42-7.88,10.71-10.25,1.43-7.26,5.05-13.97,10.25-18.93,5.97-5.7,13.65-8.84,21.62-8.84,12.79,0,23.88,7.97,29.2,19.52.46,1,1.4,1.5,2.35,1.5s1.88-.5,2.35-1.5c5.32-11.56,16.41-19.52,29.2-19.52M241.55,36.23c-8.6,0-16.96,2.6-24.16,7.51-2.68,1.83-5.15,3.94-7.39,6.3-2.23-2.36-4.71-4.48-7.39-6.3-7.21-4.92-15.56-7.51-24.16-7.51-11.08,0-21.7,4.32-29.91,12.17-5.69,5.44-10,12.45-12.41,20.12-4.09,3.07-7.64,6.93-10.42,11.37-3.14,5-5.23,10.6-6.17,16.45-9.8,8.82-15.5,21.72-15.5,35.56,0,10.2,3.23,20.15,9.02,28.24-1.03,4-1.56,8.16-1.56,12.3,0,18.44,10.4,35.14,25.94,42.71,2.66,6.55,6.75,12.5,11.84,17.16,8.09,7.39,18.45,11.46,29.16,11.46,12,0,23.31-5.1,31.56-13.83,8.25,8.73,19.56,13.83,31.56,13.83,10.71,0,21.07-4.07,29.16-11.46,5.09-4.65,9.18-10.6,11.84-17.16,15.55-7.57,25.94-24.27,25.94-42.71,0-4.15-.53-8.3-1.56-12.3,5.8-8.1,9.02-18.04,9.02-28.24,0-13.83-5.71-26.73-15.5-35.56-.94-5.85-3.04-11.45-6.17-16.45-2.78-4.44-6.33-8.3-10.42-11.37-2.41-7.67-6.72-14.68-12.41-20.12-8.21-7.85-18.83-12.17-29.91-12.17h0Z"/>
  <path class="cls-2" d="M252.92,151.5c-4.76-2.75-10.66-1.7-14.23,2.19l-23.71-13.69,23.71-13.69c3.56,3.89,9.47,4.93,14.23,2.19,5.5-3.18,7.38-10.21,4.21-15.71-3.18-5.5-10.21-7.38-15.71-4.21-4.76,2.75-6.81,8.38-5.22,13.41l-23.71,13.69v-27.37c5.15-1.14,9.01-5.73,9.01-11.23,0-6.35-5.15-11.5-11.5-11.5s-11.5,5.15-11.5,11.5c0,5.49,3.85,10.09,9.01,11.23v27.37l-23.71-13.69c1.59-5.03-.46-10.67-5.22-13.41-5.5-3.18-12.53-1.29-15.71,4.21-3.18,5.5-1.29,12.53,4.21,15.71,4.76,2.75,10.66,1.7,14.23-2.19l23.71,13.69-23.71,13.69c-3.56-3.89-9.47-4.93-14.23-2.19-5.5,3.18-7.38,10.21-4.21,15.71,3.18,5.5,10.21,7.38,15.71,4.21,4.76-2.75,6.81-8.38,5.22-13.41l23.71-13.69v27.37c-5.15,1.14-9.01,5.73-9.01,11.23,0,6.35,5.15,11.5,11.5,11.5s11.5-5.15,11.5-11.5c0-5.49-3.85-10.09-9.01-11.23v-27.37l23.71,13.69c-1.59,5.03.46,10.67,5.22,13.41,5.5,3.18,12.53,1.29,15.71-4.21,3.18-5.5,1.29-12.53-4.21-15.71Z"/>
</svg>