<?xml version="1.0" encoding="UTF-8"?>
<svg id="Layer_1" data-name="Layer 1" xmlns="http://www.w3.org/2000/svg" viewBox="0 0 170 170">
  <defs>
    <style>
      .cls-1 {
        fill: #5791cd;
      }

      .cls-2 {
        fill: #ff004a;
      }

      .cls-2, .cls-3 {
        fill-rule: evenodd;
      }

      .cls-4 {
        fill: #62c;
      }

      .cls-5 {
        fill: #091313;
      }

      .cls-3 {
        fill: #4695eb;
      }

      .cls-6 {
        fill: #fff;
      }

      .cls-7 {
        fill: #f18f01;
      }

      .cls-8 {
        fill: #ee1e4f;
      }

      .cls-9 {
        fill: #4595eb;
      }

      .cls-10 {
        fill: #ff004a;
      }
    </style>
  </defs>
  <path class="cls-6" d="M136.88,32.79H33.12c-2.97,0-5.36,2.41-5.36,5.36v93.69c0,2.96,2.4,5.36,5.36,5.36h103.76c2.97,0,5.36-2.41,5.36-5.36V38.16c0-2.96-2.4-5.36-5.36-5.36ZM83.56,133.82h-10.07c-.01-6.68-4.22-12.39-10.13-14.64,2.95-1.86,4.91-5.15,4.91-8.89,0-5.79-4.71-10.5-10.5-10.5s-10.5,4.71-10.5,10.5c0,3.74,1.97,7.03,4.91,8.89-5.91,2.25-10.1,7.96-10.12,14.64h-8.94c-1.09,0-1.99-.89-1.99-1.98v-35.73h52.43v37.71ZM83.56,93.24h-10.14c-.53-6.09-4.55-11.21-10.06-13.3,2.95-1.85,4.91-5.14,4.91-8.88,0-5.79-4.71-10.5-10.5-10.5s-10.5,4.71-10.5,10.5c0,3.74,1.97,7.03,4.91,8.88-5.5,2.1-9.53,7.21-10.05,13.3h-11v-37.71h52.43v37.71ZM138.87,131.84c0,1.09-.89,1.98-1.99,1.98h-9.41c-.01-6.68-4.22-12.39-10.13-14.64,2.95-1.86,4.91-5.15,4.91-8.89,0-5.79-4.71-10.5-10.5-10.5s-10.5,4.71-10.5,10.5c0,3.74,1.97,7.03,4.91,8.89-5.9,2.25-10.1,7.96-10.12,14.64h-9.61v-37.71h52.43v35.73ZM138.87,93.24h-11.46c-.53-6.09-4.55-11.21-10.06-13.3,2.95-1.85,4.91-5.14,4.91-8.88,0-5.79-4.71-10.5-10.5-10.5s-10.5,4.71-10.5,10.5c0,3.74,1.97,7.03,4.91,8.88-5.5,2.1-9.53,7.21-10.05,13.3h-9.67v-37.71h52.43v37.71ZM138.87,52.15H31.13v-14c0-1.09.89-1.98,1.99-1.98h103.76c1.09,0,1.99.89,1.99,1.98v14Z"/>
  <g>
    <path id="Path_959" data-name="Path 959" class="cls-2" d="M42.38,44.53c0,1.87-1.52,3.38-3.38,3.38s-3.38-1.52-3.38-3.38,1.52-3.38,3.38-3.38h0c1.87,0,3.38,1.52,3.38,3.38h0Z"/>
    <path id="Path_960" data-name="Path 960" class="cls-3" d="M52.53,44.53c0,1.87-1.52,3.38-3.38,3.38s-3.38-1.52-3.38-3.38,1.52-3.38,3.38-3.38c1.87,0,3.38,1.52,3.38,3.38h0Z"/>
    <path id="Path_961" data-name="Path 961" class="cls-3" d="M62.68,44.53c0,1.87-1.52,3.38-3.38,3.38s-3.38-1.52-3.38-3.38,1.52-3.38,3.38-3.38c1.87,0,3.38,1.52,3.38,3.38h0Z"/>
  </g>
  <g>
    <path class="cls-10" d="M70.53,93.24h-25.51c.69-6.42,6.14-11.45,12.75-11.45s12.07,5.03,12.76,11.45Z"/>
    <path class="cls-10" d="M65.39,71.06c0,4.21-3.41,7.62-7.62,7.62s-7.62-3.41-7.62-7.62,3.42-7.62,7.62-7.62,7.62,3.42,7.62,7.62Z"/>
  </g>
  <g>
    <g>
      <path class="cls-7" d="M72.04,133.82v.03h-28.54v-.03h1.44c.01-7.06,5.76-12.8,12.83-12.8s12.82,5.74,12.83,12.8h1.44Z"/>
      <rect class="cls-5" x="43.51" y="133.82" width="1.44" height=".03"/>
      <rect class="cls-5" x="70.6" y="133.82" width="1.44" height=".03"/>
    </g>
    <path class="cls-7" d="M65.39,110.3c0,4.2-3.41,7.62-7.62,7.62s-7.62-3.42-7.62-7.62,3.42-7.62,7.62-7.62,7.62,3.42,7.62,7.62Z"/>
  </g>
  <g>
    <path class="cls-9" d="M124.51,93.24h-25.51c.69-6.42,6.14-11.45,12.75-11.45s12.07,5.03,12.76,11.45Z"/>
    <path class="cls-9" d="M119.37,71.06c0,4.21-3.41,7.62-7.62,7.62s-7.62-3.41-7.62-7.62,3.42-7.62,7.62-7.62,7.62,3.42,7.62,7.62Z"/>
  </g>
  <g>
    <path class="cls-4" d="M124.59,133.82v.03h-25.66v-.03c.01-7.06,5.76-12.8,12.83-12.8s12.82,5.74,12.83,12.8Z"/>
    <path class="cls-4" d="M119.37,110.3c0,4.2-3.41,7.62-7.62,7.62s-7.62-3.42-7.62-7.62,3.42-7.62,7.62-7.62,7.62,3.42,7.62,7.62Z"/>
  </g>
  <path class="cls-1" d="M143.52,163.1v-9.4h9.4c.7,0,1.3-.6,1.3-1.3s-.6-1.3-1.3-1.3h-9.4v-9.1c0-.7-.6-1.3-1.3-1.3s-1.3.6-1.3,1.3v9.1h-9.1c-.7,0-1.3.6-1.3,1.3s.6,1.3,1.3,1.3h9.1v9.4c0,.7.6,1.3,1.3,1.3.7,0,1.3-.6,1.3-1.3h0Z"/>
  <path class="cls-1" d="M22.02,23.32v-6.7h6.7c.7,0,1.3-.6,1.3-1.3s-.6-1.3-1.3-1.3h-6.7v-6.5c0-.7-.6-1.3-1.3-1.3s-1.3.6-1.3,1.3v6.5h-6.5c-.7,0-1.3.6-1.3,1.3s.6,1.3,1.3,1.3h6.5v6.7c0,.7.6,1.3,1.3,1.3s1.3-.6,1.3-1.3h0Z"/>
  <path class="cls-8" d="M12.15,69.82v-4h4c.7,0,1.3-.6,1.3-1.3s-.6-1.3-1.3-1.3h-4v-3.9c0-.7-.6-1.3-1.3-1.3s-1.3.6-1.3,1.3v3.9h-3.9c-.7,0-1.3.6-1.3,1.3s.6,1.3,1.3,1.3h3.9v4c0,.7.6,1.3,1.3,1.3s1.3-.6,1.3-1.3Z"/>
  <path class="cls-8" d="M48.48,27.6v-4h4c.7,0,1.3-.6,1.3-1.3s-.6-1.3-1.3-1.3h-4v-3.9c0-.7-.6-1.3-1.3-1.3s-1.3.6-1.3,1.3v3.9h-3.9c-.7,0-1.3.6-1.3,1.3s.6,1.3,1.3,1.3h3.9v4c0,.7.6,1.3,1.3,1.3.7,0,1.3-.6,1.3-1.3Z"/>
  <path class="cls-8" d="M159.52,114.2v-4h4c.7,0,1.3-.6,1.3-1.3s-.6-1.3-1.3-1.3h-4v-3.9c0-.7-.6-1.3-1.3-1.3s-1.3.6-1.3,1.3v3.9h-3.9c-.7,0-1.3.6-1.3,1.3s.6,1.3,1.3,1.3h3.9v4c0,.7.6,1.3,1.3,1.3.8,0,1.3-.5,1.3-1.3Z"/>
  <path class="cls-8" d="M118.12,154.24v-4h4c.7,0,1.3-.6,1.3-1.3s-.6-1.3-1.3-1.3h-4v-3.9c0-.7-.6-1.3-1.3-1.3s-1.3.6-1.3,1.3v3.9h-3.9c-.7,0-1.3.6-1.3,1.3s.6,1.3,1.3,1.3h3.9v4c0,.7.6,1.3,1.3,1.3.8,0,1.3-.6,1.3-1.3h0Z"/>
</svg>