<?xml version="1.0" encoding="UTF-8"?>
<svg id="Layer_1" xmlns="http://www.w3.org/2000/svg" version="1.1" viewBox="0 0 420 280">
  <!-- Generator: Adobe Illustrator 29.6.0, SVG Export Plug-In . SVG Version: 2.1.1 Build 207)  -->
  <defs>
    <style>
      .st0 {
        fill: #4695eb;
      }

      .st1 {
        fill: #fff;
      }

      .st2 {
        fill: #ff004a;
      }
    </style>
  </defs>
  <path class="st0" d="M157,186.2l-36.4-22.3c-4.5-2.8-4.5-9.4,0-12.2l36.4-22.3c1-.6,1.8-1.4,2.3-2.3l22.3-36.4c2.8-4.5,9.4-4.5,12.2,0l22.3,36.4c.6,1,1.4,1.8,2.3,2.3l36.4,22.3c4.5,2.8,4.5,9.4,0,12.2l-36.4,22.3c-1,.6-1.8,1.4-2.3,2.3l-22.3,36.4c-2.8,4.5-9.4,4.5-12.2,0l-22.3-36.4c-.6-1-1.4-1.8-2.3-2.3h0Z"/>
  <path class="st2" d="M233.2,111.4l-15.6-9.6c-1.9-1.2-1.9-4,0-5.2l15.6-9.6c.4-.3.8-.6,1-1l9.6-15.6c1.2-1.9,4-1.9,5.2,0l9.6,15.6c.3.4.6.8,1,1l15.6,9.6c1.9,1.2,1.9,4,0,5.2l-15.6,9.6c-.4.3-.8.6-1,1l-9.6,15.6c-1.2,1.9-4,1.9-5.2,0l-9.6-15.6c-.3-.4-.6-.8-1-1Z"/>
  <path class="st1" d="M405,56.8l-9.9-9.5c-4-3.8-9.2-5.9-14.8-5.9s-11.2,2.3-15.2,6.3l-22.3,21.4v-27c-.9-2.9-2.5-5.3-5.2-6.7l-247.9-.7c-1.4-10.7-11.2-20.3-21.1-23.9-21.5-7.7-42.8,6.4-46.9,28.2l-.3,187.1c2.6,24.7,19.5,40.3,44.1,42.2h265.5c7.7-.7,11.5-3.5,12.3-11.3l-.3-109.8,62.1-59.8.2-.2.2-.2c8.1-8.5,7.9-22.1-.7-30.2ZM39.8,192.8V43.3c1.7-14,17.4-21.6,28.4-12.3,1.5,1.3,5.2,7.9,5.2,9.6v151.6c.4.5.4.7,0,.7v-.7c-1.6-1.7-8.9-6.1-16.8-6.1-12.2,0-15.7,6.2-16.8,6.8ZM324.3,249.2H68.9c-13.2,0-18.9-4.3-21.2-6.4-6.9-6.5-9.7-19.1-4.9-27.4,6.2-10.8,22.7-10.1,28.5.8,3.3,6.1.8,14.8,9.3,17.1,3.5,1,10.9-2.7,10.9-6.4V52.8h232.7v34.1l-38.4,37-.2.2-.2.2c-3,3.1-5,7.1-5.7,11.4l-3.3,20.5-3.2,19.8,19.8-3.1,21.1-3.3c3.7-.6,7.2-2.1,10.1-4.5v84.1ZM395.2,76.9l-52.1,50.1-18.7,18-8.5,8.1c-1,1.1-2.4,1.8-3.9,2l-21.1,3.3,3.3-20.5c.2-1.4.9-2.6,1.8-3.6l28.3-27.3,18.6-17.9,32.5-31.2c1.3-1.4,3.1-2.1,4.9-2.1s3.4.6,4.7,1.9l9.9,9.5c2.7,2.6,2.8,6.9.2,9.6Z"/>
</svg>