<?xml version="1.0" encoding="utf-8"?>
<!-- Generator: Adobe Illustrator 28.3.0, SVG Export Plug-In . SVG Version: 6.00 Build 0)  -->
<svg version="1.1" id="Layer_1" xmlns="http://www.w3.org/2000/svg" xmlns:xlink="http://www.w3.org/1999/xlink" x="0px" y="0px"
	 viewBox="0 0 420 280" style="enable-background:new 0 0 420 280;" xml:space="preserve">
<style type="text/css">
	.st0{fill:#FF004A;}
	.st1{fill:#4695EB;}
	.st2{fill-rule:evenodd;clip-rule:evenodd;fill:#091313;}
</style>
<path class="st0" d="M214.5,129.9v-19.3c0-2.7,2.2-4.9,4.9-4.9s4.9,2.2,4.9,4.9v31.1c0,2.7-2.2,4.9-4.9,4.9h-31.1
	c-2.7,0-4.9-2.2-4.9-4.9s2.2-4.9,4.9-4.9h19.3l-52.2-52.2c-1.9-1.9-1.9-5,0-6.9s5-1.9,6.9,0L214.5,129.9L214.5,129.9z"/>
<path class="st1" d="M226.2,197.9H119.6c-2.7,0-4.9-2.2-4.9-4.9V42c0-2.7,2.2-4.9,4.9-4.9h151c2.7,0,4.9,2.2,4.9,4.9v96.2
	c0,2.7-2.2,4.9-4.9,4.9c-2.7,0-4.9-2.2-4.9-4.9V46.8H124.4v141.3h101.7c2.7,0,4.9,2.2,4.9,4.9C231.1,195.6,228.9,197.8,226.2,197.9
	L226.2,197.9z"/>
<g>
	<path class="st2" d="M305.3,155.3c0-3.4-2.7-6.1-6.1-6.1h-57.1c-3.4,0-6.1,2.7-6.1,6.1v81.6c0,3.4,2.7,6.1,6.1,6.1h57.1
		c3.4,0,6.1-2.7,6.1-6.1V155.3z M301.2,155.3v81.6c0,1.2-0.9,2-2,2h-57.1c-1.2,0-2-0.9-2-2v-81.6c0-1.2,0.9-2,2-2h57.1
		C300.3,153.2,301.2,154.1,301.2,155.3z"/>
	<path class="st2" d="M256.7,206.4c-2.9,1.9-5.6,3.6-7.3,5.3c-3.6,3.6-3.5,9.8,0.5,13.8c3.9,3.9,10.1,4.1,13.8,0.5
		c3.2-3.2,7-9.9,10.1-15.9c13.1-1.6,23.2-12.8,23.2-26.3c0-14.6-11.8-26.6-26.6-26.6c-14.6,0-26.6,11.8-26.6,26.6
		C244.1,193.4,249.1,201.7,256.7,206.4L256.7,206.4z M273.3,202.3L273.3,202.3c-2.9,6.3-8.2,16.8-12.4,20.9
		c-2.1,2.1-5.7,1.8-8.1-0.5c-2.3-2.3-2.6-5.9-0.5-8.1C256.5,210.5,267,205.2,273.3,202.3L273.3,202.3z M276.1,205.5
		c9.7-2.5,16.9-11.3,16.9-21.8c0-12.4-10.1-22.5-22.5-22.5S248,171.3,248,183.7c0,8.9,5.2,16.6,12.6,20.2c3.8-2.1,7.7-4,10.7-5.4
		c1.5-0.8,3.4-0.5,4.6,0.8c1.2,1.2,1.5,3.1,0.8,4.6C276.7,204.5,276.4,205,276.1,205.5L276.1,205.5z"/>
	<path class="st2" d="M270.6,177.7c-4.5,0-8.1,3.6-8.1,8.1s3.6,8.1,8.1,8.1s8.1-3.6,8.1-8.1S275.1,177.7,270.6,177.7z M270.6,181.7
		c2.2,0,4.1,1.9,4.1,4.1s-1.9,4.1-4.1,4.1s-4.1-1.9-4.1-4.1S268.4,181.7,270.6,181.7z"/>
	<path class="st2" d="M284.9,212.3c-4.5,0-8.1,3.6-8.1,8.1s3.6,8.1,8.1,8.1s8.1-3.6,8.1-8.1C293.1,216,289.4,212.3,284.9,212.3z
		 M284.9,216.4c2.2,0,4.1,1.9,4.1,4.1s-1.9,4.1-4.1,4.1s-4.1-1.9-4.1-4.1C280.8,218.3,282.6,216.4,284.9,216.4z"/>
	<path class="st2" d="M249.2,232.2c0,1.4-1.2,2.6-2.6,2.6c-1.4,0-2.6-1.2-2.6-2.6c0-1.4,1.2-2.6,2.6-2.6
		C248,229.7,249.2,230.8,249.2,232.2"/>
	<path class="st2" d="M249.2,159.8c0,1.4-1.2,2.6-2.6,2.6c-1.4,0-2.6-1.2-2.6-2.6c0-1.4,1.2-2.6,2.6-2.6S249.2,158.4,249.2,159.8"/>
	<path class="st2" d="M297,232.2c0,1.4-1.2,2.6-2.6,2.6s-2.6-1.2-2.6-2.6c0-1.4,1.2-2.6,2.6-2.6C296,229.7,297,230.8,297,232.2"/>
	<path class="st2" d="M297,159.8c0,1.4-1.2,2.6-2.6,2.6s-2.6-1.2-2.6-2.6c0-1.4,1.2-2.6,2.6-2.6C296,157.2,297,158.4,297,159.8"/>
</g>
</svg>
