<?xml version="1.0" encoding="UTF-8"?>
<svg id="Layer_1" xmlns="http://www.w3.org/2000/svg" version="1.1" viewBox="0 0 420 420">
  <!-- Generator: Adobe Illustrator 29.6.0, SVG Export Plug-In . SVG Version: 2.1.1 Build 207)  -->
  <defs>
    <style>
      .st0 {
        fill: #4695eb;
      }

      .st1 {
        fill: #091313;
      }

      .st2 {
        fill: #fff;
      }

      .st3 {
        fill: #ff004a;
      }
    </style>
  </defs>
  <path class="st2" d="M183.1,71.1c-26.4,0-49.6,15.8-59.3,40.2l-85.4,194.1-.2.5v.3c-.1,0-.2.3-.2.3l-.2.5c-7.5,19.8-4.9,41,7.1,58.3,12,17.4,31.6,27.7,52.5,27.7s17.5-1.8,25.8-5.5l60-26.3,60,26.3c8.3,3.6,17,5.5,25.8,5.5,20.9,0,40.5-10.4,52.5-27.7,11.9-17.3,14.5-38.5,7.1-58.3l-.2-.5v-.3c-.1,0-.2-.3-.2-.3l-.2-.5-85.4-194.1c-9.7-24.5-32.9-40.2-59.3-40.2h0Z"/>
  <path class="st3" d="M351.5,60.7l-18.4-11.3c-2.3-1.4-2.3-4.7,0-6.1l18.4-11.3c.5-.3.9-.7,1.2-1.2l11.3-18.4c1.4-2.3,4.7-2.3,6.1,0l11.3,18.4c.3.5.7.9,1.2,1.2l18.4,11.3c2.3,1.4,2.3,4.7,0,6.1l-18.4,11.3c-.5.3-.9.7-1.2,1.2l-11.3,18.4c-1.4,2.3-4.7,2.3-6.1,0l-11.3-18.4c-.3-.5-.7-.9-1.2-1.2Z"/>
  <path class="st1" d="M318.2,310.9l-.2-.5-.2-.5-85.5-194.3c-8-20.4-27.2-33.5-49.1-33.5s-41.2,13.1-49.1,33.5l-85.5,194.3-.2.5-.2.5c-6.2,16.4-4,33.9,5.8,48.2,9.9,14.4,26.2,23,43.4,23s14.5-1.5,21.4-4.5l60.1-26.4c1.4-.6,2.8-.9,4.3-.9s3,.3,4.3.9l60.1,26.4c6.9,3,14.1,4.5,21.4,4.5,17.2,0,33.5-8.6,43.4-23,9.9-14.3,12-31.8,5.8-48.2Z"/>
  <path class="st2" d="M269,361c-4.2,0-8.6-.9-12.9-2.8l-60.1-26.4c-4.1-1.8-8.4-2.7-12.8-2.7s-8.7.9-12.8,2.7l-60.1,26.4c-4.3,1.9-8.7,2.8-12.9,2.8-20.7,0-37.7-20.9-29.5-42.6l43.9-99.6h143l43.9,99.6c8.2,21.7-8.8,42.6-29.5,42.6Z"/>
  <path class="st0" d="M261.7,148.9l-42.9-26.3c-5.4-3.3-5.4-11.1,0-14.4l42.9-26.3c1.1-.7,2.1-1.7,2.8-2.8l26.3-42.9c3.3-5.4,11.1-5.4,14.4,0l26.3,42.9c.7,1.1,1.7,2.1,2.8,2.8l42.9,26.3c5.4,3.3,5.4,11.1,0,14.4l-42.9,26.3c-1.1.7-2.1,1.7-2.8,2.8l-26.3,42.9c-3.3,5.4-11.1,5.4-14.4,0l-26.3-42.9c-.7-1.1-1.7-2.1-2.8-2.8h0Z"/>
</svg>