<?xml version="1.0" encoding="UTF-8"?>
<svg id="Layer_1" data-name="Layer 1" xmlns="http://www.w3.org/2000/svg" viewBox="0 0 420 280">
  <g>
    <path d="M141.54,245.25c-10.28,0-19.95-4-27.22-11.28-7.27-7.27-11.28-16.94-11.28-27.22s4-19.95,11.28-27.23L247.8,46.03c7.27-7.27,16.94-11.28,27.22-11.28s19.95,4,27.22,11.28c7.27,7.27,11.28,16.94,11.28,27.22,0,10.28-4,19.95-11.28,27.22l-133.49,133.49c-7.27,7.27-16.94,11.28-27.22,11.28Z" style="fill: #ff004a; stroke-width: 0px;"/>
    <path d="M275.03,37.84c9.46,0,18.35,3.68,25.04,10.37,13.81,13.81,13.81,36.28,0,50.09l-133.49,133.49c-6.69,6.69-15.58,10.37-25.04,10.37s-18.35-3.68-25.04-10.37c-13.81-13.81-13.81-36.28,0-50.09L249.98,48.21c6.69-6.69,15.58-10.37,25.04-10.37M275.03,31.67c-10.64,0-21.28,4.06-29.4,12.18L112.13,177.34c-16.24,16.24-16.24,42.57,0,58.81h0c8.12,8.12,18.76,12.18,29.4,12.18s21.28-4.06,29.4-12.18l133.49-133.49c16.24-16.24,16.24-42.57,0-58.81h0c-8.12-8.12-18.76-12.18-29.4-12.18h0Z" style="fill: #091313; stroke-width: 0px;"/>
  </g>
  <circle cx="276.43" cy="71.86" r="13.2" style="fill: #fff; stroke-width: 0px;"/>
  <circle cx="145.74" cy="202.54" r="13.2" style="fill: #fff; stroke-width: 0px;"/>
  <path d="M124.33,132.76c1.57,1.42,3.09,2.18,4.33,2.59-.66-8.53-6.13-26.12-13.09-29,.89,15.89,5.13,23.13,8.76,26.42Z" style="fill: #4695eb; stroke-width: 0px;"/>
  <path d="M102.95,132.76c3.62-3.29,7.86-10.53,8.76-26.42-6.95,2.89-12.42,20.48-13.09,29.01,1.24-.41,2.76-1.17,4.33-2.59Z" style="fill: #ff004a; stroke-width: 0px;"/>
  <path d="M99.69,176.4l29.04-29.04v-8.34c-1.83-.42-4.22-1.38-6.63-3.52-3.98-3.54-6.8-9.13-8.46-16.68-1.66,7.55-4.48,13.14-8.46,16.68-2.41,2.14-4.8,3.1-6.63,3.52v38.58c.38-.4.75-.81,1.14-1.2Z" style="fill: #091313; stroke-width: 0px;"/>
  <path d="M246.36,209.71h-12.21c4.86,6.99,11.84,17.47,11.84,17.47h-41.09v-12.53l-27.73,27.73c-2.56,2.56-5.35,4.79-8.31,6.72h106.05c0-23.42-7.63-13.84-8.27-19.61-1.3-11.82-5.67-19.77-20.28-19.77Z" style="fill: #4695eb; stroke-width: 0px;"/>
  <path d="M208.88,40.71l-5.66-9.81h-.35l-5.66,9.81-5.66-9.81h-.35l-5.66,9.81-5.66-9.81h-.35l-5.66,9.81-5.66-9.81h-.35l-5.66,9.81-5.66-9.81h-.35l-5.66,9.81-5.66-9.81h-34.43c0,21.75,24.02,39.38,42.6,39.38h53.73l32.67-32.67c2.56-2.56,5.35-4.79,8.31-6.72h-33.16l-5.66,9.81Z" style="fill: #4695eb; stroke-width: 0px;"/>
  <path d="M316.56,148.95l-4.76,1.74-23.4,8.53-6.93,2.53c-3.85,1.4-8.12-.58-9.52-4.43-1.41-3.86.58-8.12,4.43-9.53l7.34-2.67,5.14-1.88c-.12-.52-.19-1.07-.19-1.63v-10.74l14.86-14.85v21.87l7.94-2.89c.11-.04.22-.07.32-.11.74-.23,1.48-.34,2.22-.34,3.04,0,5.88,1.87,6.98,4.89,1.4,3.85-.58,8.12-4.44,9.52Z" style="fill: #091313; stroke-width: 0px;"/>
  <path d="M281.47,181.12l35.09-12.79c3.85-1.41,5.84-5.67,4.43-9.52-1.1-3.01-3.95-4.89-6.98-4.89-.84,0-1.7.15-2.54.45l-35.09,12.79c-3.85,1.41-5.84,5.67-4.43,9.52,1.41,3.85,5.67,5.84,9.52,4.43Z" style="fill: #091313; stroke-width: 0px;"/>
  <path d="M321,178.18c-1.1-3.01-3.95-4.89-6.98-4.89-.84,0-1.7.15-2.54.45l-35.09,12.79c-3.85,1.41-5.84,5.67-4.43,9.52s5.67,5.84,9.52,4.43l7.14-2.6c.01.22.03.43.06.65,0,0,3.04,20.47,3.04,20.47.83,4.99,7.92,5.04,8.77,0l3.78-26.83,12.29-4.48c3.85-1.41,5.84-5.67,4.43-9.52Z" style="fill: #091313; stroke-width: 0px;"/>
</svg>