<?xml version="1.0" encoding="UTF-8"?>
<svg id="Layer_1" data-name="Layer 1" xmlns="http://www.w3.org/2000/svg" viewBox="0 0 420 280">
  <defs>
    <style>
      .cls-1 {
        fill: #4695eb;
      }

      .cls-2 {
        fill: #fff;
      }

      .cls-3 {
        fill: #ff004a;
      }
    </style>
  </defs>
  <path class="cls-1" d="M138.91,155.17h0c-14.18-14.18-37.18-14.18-51.36,0h0c-3.02,3.02-7.92,3.02-10.94,0h0c-14.18-14.18-37.18-14.18-51.36,0h0c-14.18,14.18-14.18,37.18,0,51.36l51.36,51.36c3.02,3.02,7.92,3.02,10.94,0,7.54-7.54,51.36-51.36,51.36-51.36,14.18-14.18,14.18-37.18,0-51.36Z"/>
  <path class="cls-2" d="M277.7,126.43h-8.26v-26.19c0-28.18-22.93-51.11-51.11-51.11h-16.67c-28.18,0-51.11,22.93-51.11,51.11v26.19h-8.26c-6.44,0-11.67,5.22-11.67,11.67v102.19c0,6.44,5.22,11.67,11.67,11.67h135.41c6.44,0,11.67-5.22,11.67-11.67v-102.19c0-6.44-5.22-11.67-11.67-11.67ZM173.56,100.24c0-15.49,12.61-28.1,28.1-28.1h16.67c15.49,0,28.1,12.61,28.1,28.1v26.19h-72.87v-26.19ZM252.69,165.89l-54.34,55.58-27.09-31.45c-3.03-3.52-2.63-8.83.88-11.86,3.52-3.03,8.83-2.63,11.86.88l15.13,17.57,41.53-42.48c3.25-3.32,8.57-3.38,11.89-.13,3.32,3.25,3.38,8.57.13,11.89Z"/>
  <path class="cls-1" d="M356.31,24.59h0c-10.54-10.54-27.62-10.54-38.15,0h0c-2.24,2.24-5.88,2.24-8.13,0h0c-10.54-10.54-27.62-10.54-38.15,0h0c-10.54,10.54-10.54,27.62,0,38.15l38.15,38.15c2.24,2.24,5.88,2.25,8.12,0,5.6-5.6,38.16-38.16,38.16-38.16,10.54-10.54,10.54-27.62,0-38.15Z"/>
  <path class="cls-3" d="M375.98,181.7h0c-7.54-7.54-19.76-7.54-27.29,0h0c-1.61,1.61-4.21,1.61-5.81,0h0c-7.54-7.54-19.76-7.54-27.29,0h0c-7.54,7.54-7.54,19.76,0,27.29l27.29,27.29c1.61,1.61,4.21,1.61,5.81,0,4.01-4.01,27.29-27.29,27.29-27.29,7.54-7.54,7.54-19.76,0-27.29Z"/>
  <path class="cls-3" d="M132.22,36.42h0c-7.54-7.54-19.76-7.54-27.29,0h0c-1.61,1.61-4.21,1.61-5.81,0h0c-7.54-7.54-19.76-7.54-27.29,0h0c-7.54,7.54-7.54,19.76,0,27.29l27.29,27.29c1.61,1.61,4.21,1.61,5.81,0,4.01-4.01,27.29-27.29,27.29-27.29,7.54-7.54,7.54-19.76,0-27.29Z"/>
</svg>