<?xml version="1.0" encoding="utf-8"?>
<!-- Generator: Adobe Illustrator 27.6.1, SVG Export Plug-In . SVG Version: 6.00 Build 0)  -->
<svg version="1.1" id="Layer_1" xmlns="http://www.w3.org/2000/svg" xmlns:xlink="http://www.w3.org/1999/xlink" x="0px" y="0px"
	 viewBox="0 0 100 100" style="enable-background:new 0 0 100 100;" xml:space="preserve">
<style type="text/css">
	.st0{fill:#AAAAAA;}
</style>
<circle class="st0" cx="28.8" cy="16.3" r="4.6"/>
<path class="st0" d="M98,17.2H40.4c0-0.3,0.1-0.6,0.1-0.9c0-6.4-5.2-11.7-11.7-11.7S17.2,9.9,17.2,16.3c0,0,0,0,0,0
	c0,0.3,0,0.6,0.1,0.9H2v71.4h23.9l1,6.7l6.2-6.7H98V17.2z M28.8,7.9c4.7,0,8.5,3.8,8.5,8.5c0,3.6-5.3,11.7-8.5,16.1
	c-3.2-4.4-8.5-12.6-8.5-16.1C20.4,11.7,24.1,7.9,28.8,7.9z M32.6,32.6c2.6,0.7,4.4,2.1,4.4,3.4c0,1.8-3.5,3.9-8.2,3.9
	s-8.2-2-8.2-3.9c0-1.3,1.7-2.7,4.3-3.4c1.2,1.8,2.2,3.1,2.5,3.5l1.3,1.7l1.3-1.7C30.4,35.8,31.4,34.4,32.6,32.6z M28.2,82.1
	l-4.9-3.9l19.2-4.4L29.1,88.3L28.2,82.1z M93.2,83.9H37.5l14.3-15.4l-35.8,8.2l9.1,7.2v0.1H6.8V22h12c1.3,2.7,2.7,5.3,4.4,7.8
	c-3.4,1.2-5.7,3.5-5.7,6.2c0,4,5,7.1,11.4,7.1S40.2,40,40.2,36c0-2.7-2.3-4.9-5.7-6.1c1.6-2.5,3.1-5.1,4.4-7.9h54.3V83.9z"/>
<path class="st0" d="M30.8,65.6h-4.2v-8.2c0-1,0-1.9,0.1-2.7c-0.3,0.4-0.6,0.7-1,1l-1.8,1.5l-2.2-2.7l5.3-4.3h3.8L30.8,65.6z"/>
<path class="st0" d="M80.2,41.5H69v-2.7l3.8-3.8c1.1-1.1,1.8-1.9,2.1-2.3c0.3-0.3,0.5-0.7,0.7-1.1c0.1-0.3,0.2-0.6,0.2-0.9
	c0-0.4-0.1-0.7-0.4-1c-0.3-0.2-0.7-0.4-1.1-0.4c-0.5,0-1,0.2-1.5,0.4c-0.6,0.3-1.2,0.7-1.7,1.2l-2.3-2.7c0.6-0.6,1.3-1.1,2-1.5
	c0.6-0.3,1.2-0.5,1.8-0.7c0.7-0.2,1.4-0.2,2.1-0.2c0.9,0,1.8,0.2,2.7,0.5c0.7,0.3,1.4,0.8,1.8,1.5c0.4,0.6,0.7,1.4,0.7,2.2
	c0,0.6-0.1,1.1-0.2,1.7c-0.2,0.5-0.4,1.1-0.7,1.5c-0.4,0.6-0.8,1.1-1.3,1.6c-0.5,0.6-1.6,1.6-3.3,3.1v0.1h5.8V41.5z"/>
<path class="st0" d="M84.1,63.1c0,0.9-0.3,1.8-0.9,2.5c-0.7,0.7-1.6,1.3-2.5,1.5v0.1c2.6,0.3,3.9,1.5,3.9,3.7c0,1.3-0.6,2.6-1.7,3.4
	c-1.4,0.9-3.1,1.3-4.7,1.2c-0.8,0-1.5-0.1-2.3-0.2c-0.8-0.1-1.6-0.4-2.3-0.7v-3.5c0.7,0.3,1.3,0.6,2.1,0.8c0.6,0.2,1.3,0.2,1.9,0.2
	c0.7,0,1.4-0.1,2-0.4c0.4-0.3,0.7-0.7,0.6-1.2c0-0.4-0.1-0.7-0.3-1c-0.3-0.3-0.7-0.5-1.1-0.5c-0.6-0.1-1.3-0.2-1.9-0.2h-1v-3.1h1
	c2.1,0,3.2-0.5,3.2-1.6c0-0.4-0.2-0.7-0.5-0.9c-0.4-0.2-0.8-0.3-1.3-0.3c-1.1,0-2.2,0.4-3.1,1l-1.7-2.8c0.8-0.5,1.6-0.9,2.5-1.2
	c1-0.3,2-0.4,3-0.4c1.3-0.1,2.6,0.3,3.8,1C83.6,61.1,84.1,62.1,84.1,63.1z"/>
<path class="st0" d="M63.2,70.1c-2.1,0-4.1-0.6-5.9-1.8l1.8-2.6c1.5,1,3.2,1.4,5,1.2l0.3,3.2C64,70.1,63.6,70.1,63.2,70.1z
	 M54.6,65.6c-0.4-0.7-0.8-1.4-1-2.2c-0.3-1-0.4-2-0.4-3c0-0.7,0.1-1.5,0.2-2.2l3.1,0.7c-0.1,0.5-0.2,1-0.2,1.5
	c0,0.7,0.1,1.4,0.3,2.1c0.1,0.5,0.4,0.9,0.6,1.3L54.6,65.6z M35.1,57c-0.3,0-0.5,0-0.8,0l-0.1-3.2c1.9,0.1,3.8-0.4,5.5-1.4l1.6,2.8
	C39.5,56.3,37.3,57,35.1,57z M57.6,56.8l-2.5-2c1.7-1.9,3.9-3.1,6.3-3.6l0.8,3.1C60.5,54.5,58.9,55.4,57.6,56.8L57.6,56.8z
	 M65.2,53.8l-0.3-3.2c1.3-0.1,2.5-0.1,3.8-0.1h0.2c0.7,0,1.4-0.1,2.2-0.2l0.8,3.1c-1,0.2-1.9,0.3-2.9,0.3h-0.3
	C67.5,53.6,66.4,53.6,65.2,53.8L65.2,53.8z M44.2,53.1L42,50.8c1.3-1.2,2-3,1.9-4.8l3.2,0.1C47.2,48.7,46.2,51.2,44.2,53.1
	L44.2,53.1z M75.3,51.6L73.4,49c0.9-0.7,1.6-1.6,2.2-2.6l0.2-0.3c0.3-0.5,0.6-1.1,0.9-1.7l2.9,1.4c-0.3,0.6-0.6,1.2-0.9,1.8
	l-0.2,0.4C77.6,49.3,76.6,50.6,75.3,51.6L75.3,51.6z M47.2,43L44,42.8c0.1-2.5,1.3-4.9,3.1-6.7l2.2,2.3C48,39.6,47.3,41.2,47.2,43z
	 M51.6,36.6l-1.7-2.7c1.1-0.7,2.3-1.3,3.5-1.9c0.9-0.4,1.8-0.7,2.7-1l1,3c-0.8,0.2-1.6,0.5-2.3,0.9C53.7,35.4,52.6,36,51.6,36.6
	L51.6,36.6z M60,33.3l-0.6-3.1c2.2-0.4,4.5-0.6,6.8-0.5L66,32.9C64,32.8,62,33,60,33.3z"/>
<path class="st0" d="M68.1,69.2l-1.1-3c0.9-0.3,1.8-0.8,2.7-1.2l1.6,2.8C70.3,68.3,69.2,68.8,68.1,69.2z"/>
</svg>
