<svg id="Layer_1" data-name="Layer 1" xmlns="http://www.w3.org/2000/svg" viewBox="0 0 100 100"><path d="M61.05,69.88H55.54a13.46,13.46,0,0,1,4.87-10.37,15.61,15.61,0,1,0-19.93,0,13.46,13.46,0,0,1,4.87,10.37H39.84A7.94,7.94,0,0,0,37,63.75a21.11,21.11,0,1,1,27,0A7.94,7.94,0,0,0,61.05,69.88Z"/><path d="M60.71,75H40.18a1.84,1.84,0,0,1,0-3.67H60.71a1.84,1.84,0,0,1,0,3.67Z"/><path d="M60.71,79.93H40.18a1.84,1.84,0,0,1,0-3.67H60.71a1.84,1.84,0,0,1,0,3.67Z"/><path d="M60.71,84.87H40.18a1.84,1.84,0,0,1,0-3.67H60.71a1.84,1.84,0,0,1,0,3.67Z"/><path d="M56.72,89.82H44.17a1.84,1.84,0,1,1,0-3.67H56.72a1.84,1.84,0,1,1,0,3.67Z"/><polygon points="50.53 54.3 56.18 51.04 56.18 44.51 50.53 47.77 50.53 54.3"/><polygon points="51.07 54.61 56.18 57.56 56.18 51.66 51.07 54.61"/><polygon points="55.87 43.35 55.87 37.45 50.76 40.4 55.87 43.35"/><polygon points="50.22 40.72 44.57 43.98 50.22 47.24 55.87 43.98 50.22 40.72"/><polygon points="49.68 40.4 44.57 37.45 44.57 43.35 49.68 40.4"/><polygon points="56.72 44.83 56.72 50.73 61.83 47.77 56.72 44.83"/><polygon points="49.91 54.3 49.91 47.77 44.26 44.51 44.26 44.51 44.26 51.04 44.26 51.04 44.26 51.04 49.91 54.3"/><polygon points="43.72 44.83 38.61 47.77 43.72 50.73 43.72 44.83"/><polygon points="44.26 51.66 44.26 57.56 49.37 54.61 44.26 51.66"/><polygon points="24.4 47.66 12.48 52.76 12.48 42.56 24.4 47.66"/><polygon points="31.92 29.57 19.89 24.75 27.1 17.54 31.92 29.57"/><polygon points="50.04 22.1 44.94 10.18 55.14 10.18 50.04 22.1"/><polygon points="68.13 29.63 72.95 17.59 80.16 24.8 68.13 29.63"/><polygon points="75.6 47.74 87.52 42.64 87.52 52.84 75.6 47.74"/><polygon points="68.08 65.83 80.11 70.66 72.9 77.86 68.08 65.83"/><polygon points="31.87 65.78 27.05 77.81 19.84 70.6 31.87 65.78"/></svg>