<?xml version="1.0" encoding="utf-8"?>
<!-- Generator: Adobe Illustrator 27.6.1, SVG Export Plug-In . SVG Version: 6.00 Build 0)  -->
<svg version="1.1" id="Layer_1" xmlns="http://www.w3.org/2000/svg" xmlns:xlink="http://www.w3.org/1999/xlink" x="0px" y="0px"
	 viewBox="0 0 100 100" style="enable-background:new 0 0 100 100;" xml:space="preserve">
<style type="text/css">
	.st0{fill:#AAAAAA;}
</style>
<path class="st0" d="M80.8,34.7V30v-2.1L76,23.1L69.9,17l-4.8-4.8H63h-4.7l-0.1-0.1v0.1h-39v75.6h61.6V34.7L80.8,34.7L80.8,34.7z
	 M76,83H24V17h34.2v17.8H76V83z M76,30H63V17v-0.1l0.1,0.1L76,30L76,30L76,30z"/>
<path class="st0" d="M35.1,59.7c-1.2,0-2.2-0.5-3.1-1.5c-1.5-1.7-1.6-3.9-0.1-5.7c1.2-1.5,3.5-2.8,6.7-3.9c1.2-0.3,2.4-0.8,3.7-1
	c0.8-1.5,1.6-3.1,2.3-4.8c0.7-1.6,1.3-3.1,1.7-4.6c-1.8-3.1-3.6-6.8-3.5-9.7c0-2.5,1.5-4.2,3.9-4.5c2.2-0.2,3.8,0.8,4.5,2.9
	c0.9,2.8,0,7-1,10.7c0.9,1.5,2,3,3.2,4.5c1,1.3,2,2.4,3,3.6c4,0,7.9,0.3,10.2,1.6c2.1,1.2,2.9,2.9,2.3,5c-0.7,2.3-2.5,3.5-4.8,3.1
	c-3-0.3-6.5-3.2-9.1-6c-1.8,0.1-3.9,0.2-6,0.6c-1.5,0.2-3,0.5-4.4,0.8c-0.5,0.9-1,1.7-1.5,2.4c-2,2.9-3.8,4.8-5.5,5.9
	C36.8,59.5,36,59.7,35.1,59.7L35.1,59.7z M39.6,52.1c-2.4,0.8-4.3,1.8-5.1,2.8c-0.3,0.3-0.3,0.6,0.1,1.2c0.2,0.2,0.3,0.5,1.3,0
	C37,55.3,38.4,54,39.6,52.1L39.6,52.1z M60.2,49.5c1.7,1.5,3.2,2.4,4.4,2.5c0.5,0.1,0.7,0.1,1-0.7c0.1-0.2,0.1-0.3-0.6-0.8
	C64,50,62.3,49.6,60.2,49.5L60.2,49.5z M48.9,41.9c-0.3,0.9-0.7,1.7-0.9,2.3c-0.3,0.9-0.8,1.7-1.2,2.5c0.6-0.1,1.2-0.2,1.7-0.2
	c1.2-0.1,2.3-0.3,3.5-0.3c-0.6-0.7-1-1.3-1.3-1.6C50.3,43.9,49.6,43,48.9,41.9L48.9,41.9z M47.3,27.5c-0.5,0.1-0.8,0.1-0.8,1
	c0,1.2,0.5,2.8,1.4,4.7c0.5-2.3,0.6-4.2,0.2-5.2C47.8,27.5,47.7,27.5,47.3,27.5L47.3,27.5z"/>
<g>
	<path class="st0" d="M35.9,67.1c0-0.9,0.6-1.3,1.3-1.3h3.3c2.1,0,4.1,1.3,4.1,4c0,2.3-1.4,4-4,4h-2v2.5c0,0.9-0.6,1.4-1.3,1.4
		c-0.8,0-1.3-0.5-1.3-1.4L35.9,67.1L35.9,67.1z M38.6,71.4H40c1.1,0,1.8-0.8,1.8-1.6c0-1.1-0.7-1.6-1.8-1.6h-1.4V71.4z"/>
	<path class="st0" d="M45.9,67.1c0-0.9,0.6-1.3,1.3-1.3h3.2c3.5,0,5.5,2.8,5.5,5.8c0,3.9-2.6,6-5.5,6h-3.2c-0.7,0-1.3-0.5-1.3-1.3
		V67.1z M48.6,75.1H50c2.1,0,3.1-1.4,3.1-3.5c0-2-1-3.3-3-3.3h-1.5V75.1z"/>
	<path class="st0" d="M57.5,67.1c0-0.9,0.6-1.3,1.3-1.3h4.1c0.8,0,1.3,0.5,1.3,1.2c0,0.8-0.5,1.2-1.3,1.2H60v2.1h2.4
		c0.8,0,1.3,0.5,1.3,1.2c0,0.8-0.5,1.2-1.3,1.2H60V76c0,0.9-0.6,1.4-1.3,1.4c-0.8,0-1.3-0.5-1.3-1.4L57.5,67.1z"/>
</g>
</svg>
