<?xml version="1.0" encoding="utf-8"?>
<!-- Generator: Adobe Illustrator 27.6.1, SVG Export Plug-In . SVG Version: 6.00 Build 0)  -->
<svg version="1.1" id="Layer_1" xmlns="http://www.w3.org/2000/svg" xmlns:xlink="http://www.w3.org/1999/xlink" x="0px" y="0px"
	 viewBox="0 0 100 100" style="enable-background:new 0 0 100 100;" xml:space="preserve">
<style type="text/css">
	.st0{fill:#AAAAAA;}
</style>
<path class="st0" d="M12.2,12.2v75.6h75.6V12.2H12.2z M83,17v12.9H17V17H83z M17,83V34.7h66V83H17z"/>
<rect x="73.5" y="20.5" class="st0" width="6" height="6"/>
<rect x="64.3" y="20.5" class="st0" width="6" height="6"/>
<path class="st0" d="M59.9,47.3c-0.6,0.6-0.6,1.6,0,2.3l7.8,7.8l-7.8,7.8c-0.6,0.6-0.6,1.6,0,2.3c0.3,0.3,0.7,0.5,1.1,0.5
	c0.4,0,0.8-0.2,1.1-0.5l10.1-10.1l-10-10.1C61.6,46.7,60.6,46.7,59.9,47.3z"/>
<path class="st0" d="M40.1,47.3c-0.6-0.6-1.6-0.6-2.3,0L27.7,57.4l10.1,10.1c0.3,0.3,0.7,0.5,1.2,0.5c0.4,0,0.8-0.2,1.1-0.5
	c0.6-0.6,0.6-1.6,0-2.3l-7.8-7.8l7.8-7.8C40.8,49,40.7,48,40.1,47.3C40.1,47.4,40.1,47.3,40.1,47.3z"/>
<path class="st0" d="M53.5,47.4c-0.8-0.3-1.7,0.1-2.1,0.9l-6.3,17.1c-0.3,0.8,0.1,1.7,0.9,2.1c0.2,0.1,0.4,0.1,0.6,0.1
	c0.7,0,1.3-0.4,1.5-1l6.3-17.1C54.8,48.6,54.4,47.7,53.5,47.4z"/>
</svg>
