<svg id="Layer_1" data-name="Layer 1" xmlns="http://www.w3.org/2000/svg" viewBox="0 0 100 100"><path d="M12.2,12.2V87.8H87.8V12.2ZM83,17V29.9H17V17ZM17,83V34.7H83V83Z"/><rect x="73.49" y="20.53" width="6.04" height="6.04"/><rect x="64.33" y="20.53" width="6.04" height="6.04"/><path d="M59.92,47.34a1.61,1.61,0,0,0,0,2.26l7.82,7.82-7.82,7.81a1.61,1.61,0,0,0,0,2.26,1.57,1.57,0,0,0,1.13.47,1.6,1.6,0,0,0,1.14-.47L72.26,57.42,62.19,47.34A1.62,1.62,0,0,0,59.92,47.34Z"/><path d="M40.08,47.34a1.62,1.62,0,0,0-2.27,0L27.74,57.42,37.81,67.49A1.6,1.6,0,0,0,39,68a1.56,1.56,0,0,0,1.13-.47,1.61,1.61,0,0,0,0-2.26l-7.82-7.81,7.82-7.82A1.61,1.61,0,0,0,40.08,47.34Z"/><path d="M53.55,47.38a1.61,1.61,0,0,0-2.06.94L45.21,65.4a1.61,1.61,0,0,0,.94,2.06,1.58,1.58,0,0,0,.56.1,1.6,1.6,0,0,0,1.5-1L54.5,49.43A1.6,1.6,0,0,0,53.55,47.38Z"/></svg>