<?xml version="1.0" encoding="utf-8"?>
<!-- Generator: Adobe Illustrator 27.6.1, SVG Export Plug-In . SVG Version: 6.00 Build 0)  -->
<svg version="1.1" id="Layer_1" xmlns="http://www.w3.org/2000/svg" xmlns:xlink="http://www.w3.org/1999/xlink" x="0px" y="0px"
	 viewBox="0 0 100 100" style="enable-background:new 0 0 100 100;" xml:space="preserve">
<style type="text/css">
	.st0{fill:#AAAAAA;}
</style>
<path class="st0" d="M50.1,25.2h-17c-2.8,0-5,2.2-5,5v1.2c0,2.8,2.2,5,5,5h17c2.8,0,5-2.2,5-5v-1.2C55.1,27.4,52.9,25.2,50.1,25.2z
	 M51.9,31.4c0,1-0.8,1.8-1.8,1.8h-17c-1,0-1.8-0.8-1.8-1.8v-1.2c0-1,0.8-1.8,1.8-1.8h17c1,0,1.8,0.8,1.8,1.8V31.4z"/>
<path class="st0" d="M52.5,44.9H29.9c-0.9,0-1.6,0.7-1.6,1.6c0,0.9,0.7,1.6,1.6,1.6l0,0h22.6c0.9,0,1.6-0.7,1.6-1.6
	C54.1,45.6,53.4,44.9,52.5,44.9z"/>
<path class="st0" d="M52.5,39.5H29.9c-0.9,0-1.6,0.7-1.6,1.6c0,0.9,0.7,1.6,1.6,1.6l0,0h22.6c0.9,0,1.6-0.7,1.6-1.6
	C54.1,40.2,53.4,39.5,52.5,39.5z"/>
<path class="st0" d="M52.5,50.3H29.9c-0.9,0-1.6,0.7-1.6,1.6c0,0.9,0.7,1.6,1.6,1.6l0,0h22.6c0.9,0,1.6-0.7,1.6-1.6
	C54.1,51,53.4,50.3,52.5,50.3z"/>
<path class="st0" d="M73.3,30.7c-1.3,0-2.6,0.2-3.8,0.5v-7.7c0-5.1-4.1-9.2-9.2-9.2H22.9c-7,0-12.6,5.6-12.6,12.6v46.4
	c0,7,5.6,12.6,12.6,12.6h41.3l0.5-0.2c1.1-0.5,4.8-2.4,4.8-5.6V63c1.2,0.3,2.5,0.5,3.8,0.5c9.1-0.2,16.2-7.8,16-16.8
	C89.1,37.9,82.1,30.9,73.3,30.7L73.3,30.7z M64.7,69.7H22.9c-2.1,0.2-3.6,2.2-3.4,4.3c0.2,1.8,1.6,3.2,3.4,3.4h41.8v2.4
	c-0.4,0.5-1,0.9-1.6,1.2H22.9c-4.3,0-7.8-3.5-7.8-7.8l0,0V26.8c0-4.3,3.5-7.8,7.8-7.8h37.4c2.4,0,4.4,2,4.4,4.4v9.7
	c-7.7,4.7-10.1,14.8-5.4,22.5c1.3,2.2,3.2,4.1,5.4,5.4V69.7z M73.3,60.3c-7.3,0-13.2-5.9-13.2-13.2c0-7.3,5.9-13.2,13.2-13.2
	c7.3,0,13.2,5.9,13.2,13.2c0,0,0,0,0,0C86.5,54.4,80.6,60.3,73.3,60.3z"/>
<path class="st0" d="M79.6,41.3l-8.4,8.4l-3-3c-0.6-0.6-1.6-0.6-2.2,0c0,0,0,0,0,0c-0.6,0.6-0.6,1.6,0.1,2.2l5.2,5.2l10.6-10.7
	c0.6-0.6,0.6-1.6,0-2.2c0,0,0,0,0,0C81.3,40.7,80.3,40.7,79.6,41.3z"/>
</svg>
