<?xml version="1.0" encoding="utf-8"?>
<!-- Generator: Adobe Illustrator 26.0.1, SVG Export Plug-In . SVG Version: 6.00 Build 0)  -->
<svg version="1.1" id="Layer_1" xmlns="http://www.w3.org/2000/svg" xmlns:xlink="http://www.w3.org/1999/xlink" x="0px" y="0px"
	 viewBox="0 0 170 170" style="enable-background:new 0 0 170 170;" xml:space="preserve">
<style type="text/css">
	.st0{fill:#5791CD;}
	.st1{fill:#EE1E4F;}
	.st2{fill-rule:evenodd;clip-rule:evenodd;fill:#181616;}
	.st3{fill:#181616;}
</style>
<path class="st0" d="M8.2,37.6c-0.7,0-1.3,0.6-1.3,1.3s0.6,1.3,1.3,1.3h9.4v9.1c0,0.7,0.6,1.3,1.3,1.3s1.3-0.6,1.3-1.3v-9.1h9.1
	c0.7,0,1.3-0.6,1.3-1.3s-0.6-1.3-1.3-1.3h-9.1v-9.4c0-0.7-0.6-1.3-1.3-1.3s-1.3,0.6-1.3,1.3v9.4H8.2L8.2,37.6z"/>
<path class="st0" d="M134.7,129.2c-0.7,0-1.3,0.6-1.3,1.3s0.6,1.3,1.3,1.3h6.7v6.5c0,0.7,0.6,1.3,1.3,1.3s1.3-0.6,1.3-1.3v-6.5h6.5
	c0.7,0,1.3-0.6,1.3-1.3s-0.6-1.3-1.3-1.3H144v-6.7c0-0.7-0.6-1.3-1.3-1.3s-1.3,0.6-1.3,1.3v6.7H134.7L134.7,129.2z"/>
<path class="st1" d="M91,146.3c0,0.7,0.6,1.3,1.3,1.3h4v3.9c0,0.7,0.6,1.3,1.3,1.3c0.7,0,1.3-0.6,1.3-1.3v-3.9h3.9
	c0.7,0,1.3-0.6,1.3-1.3s-0.6-1.3-1.3-1.3h-3.9v-4c0-0.7-0.6-1.3-1.3-1.3c-0.7,0-1.3,0.6-1.3,1.3v4h-4C91.6,145,91,145.6,91,146.3z"
	/>
<path class="st1" d="M147.6,102.3c0,0.7,0.6,1.3,1.3,1.3h4v3.9c0,0.7,0.6,1.3,1.3,1.3s1.3-0.6,1.3-1.3v-3.9h3.9
	c0.7,0,1.3-0.6,1.3-1.3s-0.6-1.3-1.3-1.3h-3.9v-4c0-0.7-0.6-1.3-1.3-1.3s-1.3,0.6-1.3,1.3v4h-4C148.2,101,147.6,101.6,147.6,102.3z"
	/>
<path class="st1" d="M55.8,22.9c0,0.7,0.6,1.3,1.3,1.3h4v3.9c0,0.7,0.6,1.3,1.3,1.3s1.3-0.6,1.3-1.3v-3.9h3.9c0.7,0,1.3-0.6,1.3-1.3
	c0-0.7-0.6-1.3-1.3-1.3h-3.9v-4l0,0c0-0.7-0.6-1.3-1.3-1.3s-1.3,0.6-1.3,1.3v4h-4C56.4,21.6,55.8,22.1,55.8,22.9z"/>
<path class="st1" d="M13.7,95.3c-0.7,0-1.3,0.6-1.3,1.3s0.6,1.3,1.3,1.3h4v3.9c0,0.7,0.6,1.3,1.3,1.3c0.7,0,1.3-0.6,1.3-1.3v-3.9
	h3.9c0.7,0,1.3-0.6,1.3-1.3s-0.6-1.3-1.3-1.3h-3.9v-4c0-0.7-0.6-1.3-1.3-1.3c-0.7,0-1.3,0.6-1.3,1.3v4H13.7L13.7,95.3z"/>
<g>
	<path class="st2" d="M87.9,32c-28.9,0-52.3,23.4-52.3,52.3c0,23.1,15,42.7,35.8,49.6c2.6,0.5,3.6-1.1,3.6-2.5c0-1.2,0-5.4-0.1-9.7
		c-14.5,3.2-17.6-6.2-17.6-6.2c-2.4-6-5.8-7.7-5.8-7.7c-4.7-3.2,0.4-3.2,0.4-3.2c5.3,0.4,8,5.4,8,5.4c4.7,8,12.2,5.7,15.2,4.3
		c0.5-3.4,1.8-5.7,3.3-7c-11.6-1.3-23.8-5.8-23.8-25.8c0-5.7,2-10.4,5.4-14c-0.5-1.3-2.3-6.6,0.5-13.8c0,0,4.4-1.4,14.4,5.4
		c4.2-1.2,8.6-1.7,13.1-1.8c4.4,0,8.9,0.6,13.1,1.8c10-6.8,14.4-5.4,14.4-5.4c2.8,7.2,1.1,12.5,0.5,13.8c3.4,3.7,5.4,8.3,5.4,14
		c0,20.1-12.2,24.5-23.9,25.8c1.9,1.6,3.5,4.8,3.5,9.7c0,7-0.1,12.6-0.1,14.4c0,1.4,0.9,3,3.6,2.5c20.8-6.9,35.7-26.5,35.7-49.6
		C140.2,55.4,116.8,32,87.9,32z"/>
	<path class="st3" d="M55.4,107.1c-0.1,0.3-0.5,0.3-0.9,0.2c-0.4-0.2-0.6-0.5-0.5-0.8c0.1-0.3,0.5-0.3,0.9-0.2
		C55.4,106.4,55.6,106.8,55.4,107.1L55.4,107.1z M54.8,106.6"/>
	<path class="st3" d="M57.6,109.4c-0.2,0.2-0.7,0.1-1.1-0.2c-0.3-0.4-0.4-0.9-0.2-1.1c0.3-0.2,0.7-0.1,1.1,0.2
		C57.8,108.7,57.8,109.2,57.6,109.4L57.6,109.4z M57.1,108.9"/>
	<path class="st3" d="M59.6,112.4c-0.3,0.2-0.8,0-1.2-0.5c-0.3-0.5-0.3-1,0-1.2c0.3-0.2,0.8,0,1.2,0.4C60,111.6,60,112.2,59.6,112.4
		L59.6,112.4z M59.6,112.4"/>
	<path class="st3" d="M62.5,115.3c-0.3,0.3-0.9,0.2-1.3-0.2c-0.5-0.4-0.6-1-0.3-1.3c0.3-0.3,0.9-0.2,1.4,0.2
		C62.6,114.4,62.8,115,62.5,115.3L62.5,115.3z M62.5,115.3"/>
	<path class="st3" d="M66.4,117c-0.1,0.4-0.7,0.6-1.3,0.4c-0.6-0.2-1-0.7-0.9-1.1c0.1-0.4,0.7-0.6,1.3-0.4
		C66.1,116.1,66.5,116.6,66.4,117L66.4,117z M66.4,117"/>
	<path class="st3" d="M70.6,117.3c0,0.4-0.5,0.8-1.1,0.8c-0.6,0-1.1-0.3-1.1-0.8c0-0.4,0.5-0.8,1.1-0.8
		C70.1,116.6,70.6,116.9,70.6,117.3L70.6,117.3z M70.6,117.3"/>
	<path class="st3" d="M74.6,116.7c0.1,0.4-0.4,0.9-1,1c-0.6,0.1-1.2-0.1-1.2-0.6c-0.1-0.4,0.4-0.9,1-1C74,116,74.5,116.2,74.6,116.7
		L74.6,116.7z M74.6,116.7"/>
</g>
</svg>
