<?xml version="1.0" encoding="utf-8"?>
<!-- Generator: Adobe Illustrator 26.0.1, SVG Export Plug-In . SVG Version: 6.00 Build 0)  -->
<svg version="1.1" id="Layer_1" xmlns="http://www.w3.org/2000/svg" xmlns:xlink="http://www.w3.org/1999/xlink" x="0px" y="0px"
	 viewBox="0 0 170 170" style="enable-background:new 0 0 170 170;" xml:space="preserve">
<style type="text/css">
	.st0{fill:#5791CD;}
	.st1{fill:#EE1E4F;}
	.st2{fill:#091313;}
</style>
<path class="st0" d="M24.7,140.2h9.4v9.4c0,0.7,0.6,1.3,1.3,1.3s1.3-0.6,1.3-1.3v-9.4h9.1c0.7,0,1.3-0.6,1.3-1.3
	c0-0.7-0.6-1.3-1.3-1.3h-9.1v-9.1c0-0.7-0.6-1.3-1.3-1.3s-1.3,0.6-1.3,1.3v9.1h-9.4c-0.7,0-1.3,0.6-1.3,1.3
	C23.4,139.6,24,140.2,24.7,140.2L24.7,140.2z"/>
<path class="st0" d="M140.8,26.9h6.7v6.7c0,0.7,0.6,1.3,1.3,1.3c0.7,0,1.3-0.6,1.3-1.3v-6.7h6.5c0.7,0,1.3-0.6,1.3-1.3
	s-0.6-1.3-1.3-1.3h-6.5v-6.5c0-0.7-0.6-1.3-1.3-1.3c-0.7,0-1.3,0.6-1.3,1.3v6.5h-6.7c-0.7,0-1.3,0.6-1.3,1.3S140.1,26.9,140.8,26.9
	L140.8,26.9z"/>
<path class="st1" d="M114.8,35.8h4v4c0,0.7,0.6,1.3,1.3,1.3s1.3-0.6,1.3-1.3v-4h3.9c0.7,0,1.3-0.6,1.3-1.3s-0.6-1.3-1.3-1.3h-3.9
	v-3.9c0-0.7-0.6-1.3-1.3-1.3s-1.3,0.6-1.3,1.3v3.9h-4c-0.7,0-1.3,0.6-1.3,1.3S114,35.8,114.8,35.8z"/>
<path class="st1" d="M148.3,81.3h4v4c0,0.7,0.6,1.3,1.3,1.3s1.3-0.6,1.3-1.3v-4h3.9c0.7,0,1.3-0.6,1.3-1.3c0-0.7-0.6-1.3-1.3-1.3
	h-3.9v-3.9c0-0.7-0.6-1.3-1.3-1.3s-1.3,0.6-1.3,1.3v3.9h-4c-0.7,0-1.3,0.6-1.3,1.3C147,80.8,147.5,81.3,148.3,81.3z"/>
<path class="st1" d="M63.2,134.9h4v4c0,0.7,0.6,1.3,1.3,1.3s1.3-0.6,1.3-1.3l0,0v-4h3.9c0.7,0,1.3-0.6,1.3-1.3
	c0-0.7-0.6-1.3-1.3-1.3h-3.9v-3.9c0-0.7-0.6-1.3-1.3-1.3s-1.3,0.6-1.3,1.3v3.9h-4c-0.7,0-1.3,0.6-1.3,1.3
	C61.9,134.3,62.4,134.9,63.2,134.9z"/>
<path class="st1" d="M11.1,107.7h4v4c0,0.7,0.6,1.3,1.3,1.3c0.7,0,1.3-0.6,1.3-1.3v-4h3.9c0.7,0,1.3-0.6,1.3-1.3
	c0-0.7-0.6-1.3-1.3-1.3h-3.9v-3.9c0-0.7-0.6-1.3-1.3-1.3c-0.7,0-1.3,0.6-1.3,1.3v3.9h-4c-0.7,0-1.3,0.6-1.3,1.3
	C9.8,107.1,10.4,107.7,11.1,107.7L11.1,107.7z"/>
<g>
	<path class="st2" d="M130,48.6H40c-5.4,0-9.7,4.4-9.7,9.7v53.3c0,5.4,4.4,9.7,9.7,9.7H130c5.4,0,9.7-4.4,9.7-9.7V58.3
		C139.8,53,135.4,48.6,130,48.6z M134.8,111.7c0,2.6-2.1,4.7-4.7,4.7H40c-2.6,0-4.7-2.1-4.7-4.7V58.3c0-2.6,2.1-4.7,4.7-4.7H130
		c2.6,0,4.7,2.1,4.7,4.7V111.7z"/>
	<path class="st2" d="M124.6,60.7L85,87.8L45.4,60.7c-1.1-0.8-2.7-0.5-3.5,0.7c-0.8,1.1-0.5,2.7,0.7,3.5l23.4,16L51.3,95.1
		c-1,1-1,2.5,0,3.5c0.5,0.5,1.1,0.8,1.8,0.8c0.6,0,1.3-0.2,1.7-0.7l15.4-15L85,93.9l14.8-10.2l15.4,15c0.5,0.5,1.1,0.7,1.7,0.7
		c0.7,0,1.3-0.3,1.8-0.8c1-1,0.9-2.6,0-3.5l-14.6-14.3l23.4-16c1.1-0.8,1.4-2.3,0.7-3.5C127.3,60.2,125.8,59.9,124.6,60.7z"/>
</g>
</svg>
