<?xml version="1.0" encoding="utf-8"?>
<!-- Generator: Adobe Illustrator 26.0.1, SVG Export Plug-In . SVG Version: 6.00 Build 0)  -->
<svg version="1.1" id="Layer_1" xmlns="http://www.w3.org/2000/svg" xmlns:xlink="http://www.w3.org/1999/xlink" x="0px" y="0px"
	 viewBox="0 0 170 170" style="enable-background:new 0 0 170 170;" xml:space="preserve">
<style type="text/css">
	.st0{fill:#5791CD;}
	.st1{fill:#EE1E4F;}
	.st2{fill:none;}
	.st3{fill:#4695EB;}
	.st4{fill:#FF004A;}
	.st5{fill:#0D1515;}
</style>
<path class="st0" d="M17.6,126.5H27v9.4c0,0.7,0.6,1.3,1.3,1.3s1.3-0.6,1.3-1.3v-9.4h9.1c0.7,0,1.3-0.6,1.3-1.3s-0.6-1.3-1.3-1.3
	h-9.1v-9.1c0-0.7-0.6-1.3-1.3-1.3s-1.3,0.6-1.3,1.3v9.1h-9.4c-0.7,0-1.3,0.6-1.3,1.3C16.3,125.9,16.9,126.5,17.6,126.5L17.6,126.5z"
	/>
<path class="st0" d="M139.1,44h6.7v6.7c0,0.7,0.6,1.3,1.3,1.3s1.3-0.6,1.3-1.3V44h6.5c0.7,0,1.3-0.6,1.3-1.3c0-0.7-0.6-1.3-1.3-1.3
	h-6.5v-6.5c0-0.7-0.6-1.3-1.3-1.3s-1.3,0.6-1.3,1.3v6.5h-6.7c-0.7,0-1.3,0.6-1.3,1.3C137.8,43.4,138.4,44,139.1,44L139.1,44z"/>
<path class="st1" d="M118.6,20.2h4v4c0,0.7,0.6,1.3,1.3,1.3s1.3-0.6,1.3-1.3v-4h3.9c0.7,0,1.3-0.6,1.3-1.3s-0.6-1.3-1.3-1.3h-3.9
	v-3.9c0-0.7-0.6-1.3-1.3-1.3s-1.3,0.6-1.3,1.3v3.9h-4c-0.7,0-1.3,0.6-1.3,1.3S117.8,20.2,118.6,20.2z"/>
<path class="st1" d="M144.3,16h4v4c0,0.7,0.6,1.3,1.3,1.3s1.3-0.6,1.3-1.3v-4h3.9c0.7,0,1.3-0.6,1.3-1.3c0-0.7-0.6-1.3-1.3-1.3h-3.9
	V9.5c0-0.7-0.6-1.3-1.3-1.3s-1.3,0.6-1.3,1.3v3.9h-4c-0.7,0-1.3,0.6-1.3,1.3C143,15.5,143.5,16,144.3,16z"/>
<path class="st1" d="M11.1,149.2h4v4c0,0.7,0.6,1.3,1.3,1.3c0.7,0,1.3-0.6,1.3-1.3l0,0v-4h3.9c0.7,0,1.3-0.6,1.3-1.3
	s-0.6-1.3-1.3-1.3h-3.9v-3.9c0-0.7-0.6-1.3-1.3-1.3c-0.7,0-1.3,0.6-1.3,1.3v3.9h-4c-0.7,0-1.3,0.6-1.3,1.3
	C9.8,148.6,10.3,149.2,11.1,149.2z"/>
<path class="st1" d="M7.2,103.4h4v4c0,0.7,0.6,1.3,1.3,1.3c0.7,0,1.3-0.6,1.3-1.3v-4h3.9c0.7,0,1.3-0.6,1.3-1.3
	c0-0.7-0.6-1.3-1.3-1.3h-3.9v-3.9c0-0.7-0.6-1.3-1.3-1.3c-0.7,0-1.3,0.6-1.3,1.3v3.9h-4c-0.7,0-1.3,0.6-1.3,1.3
	C5.9,102.8,6.5,103.4,7.2,103.4L7.2,103.4z"/>
<path class="st2" d="M117,95.2L117,95.2l-0.1-29.5H96.8l-5.4,3.7l12.2,11.9c0.8,0.8,0.8,2.1,0,2.9c-0.4,0.4-0.9,0.7-1.5,0.7
	c-0.5,0-1-0.2-1.4-0.6L87.8,71.8l-12.3,8.5l-8.7-6v24.8h46.3C115.3,99.1,117,97.3,117,95.2z"/>
<path class="st2" d="M113,103.2H66.8v1.4c0,4,3.3,7.3,7.3,7.3h32.4l15,15v-15h2.5c4,0,7.3-3.3,7.3-7.3V73c0-4-3.3-7.3-7.3-7.3h-3
	v29.4C121.1,99.5,117.5,103.2,113,103.2z"/>
<path class="st2" d="M62.8,72.2L50.3,84.3c-0.3,0.4-0.9,0.6-1.4,0.6c-0.6,0-1.1-0.3-1.5-0.7c-0.8-0.8-0.8-2.1,0-2.9l12.3-11.8
	L40.1,56.2c-1-0.7-1.3-2-0.6-2.9c0.7-1,2-1.3,2.9-0.6l21.7,14.9c1.9-3.5,5.6-5.8,9.9-5.8h21.2l13.2-9.1c1-0.7,2.3-0.4,3,0.5
	c0.6,1,0.3,2.3-0.6,2.9l-8.2,5.6h14.2V50.7c0-2.2-1.8-3.9-3.9-3.9H38c-2.2,0-3.9,1.8-3.9,3.9v44.5c0,2.2,1.8,3.9,3.9,3.9h24.8V73
	C62.8,72.7,62.8,72.4,62.8,72.2z"/>
<path class="st2" d="M67.5,69.8l8,5.4l13.9-9.5H74.1C71.2,65.7,68.7,67.4,67.5,69.8z"/>
<path class="st3" d="M116.9,95.2L116.9,95.2c0.1,2.2-1.7,3.9-3.8,3.9H66.8v4.1H113c4.5,0,8.1-3.7,8.1-8.1V65.7h-4.2V95.2z"/>
<path class="st3" d="M38,99.1c-2.2,0-3.9-1.8-3.9-3.9V50.7c0-2.2,1.8-3.9,3.9-3.9h75c2.2,0,3.9,1.8,3.9,3.9v11.1h4.2V50.7
	c0.1-4.4-3.6-8.1-8.1-8.1H38c-4.5,0-8.1,3.7-8.1,8.1v44.4c0,4.5,3.7,8.1,8.1,8.1h24.8v-4.1H38z"/>
<path class="st3" d="M75.5,75.3l-8-5.4c-0.5,1-0.8,2.1-0.8,3.2v1.3l8.7,6l12.3-8.5l12.8,12.5c0.4,0.4,0.9,0.6,1.4,0.6
	c0.6,0,1.1-0.3,1.5-0.7c0.8-0.8,0.8-2.2,0-2.9L91.4,69.4l5.4-3.7h-7.4L75.5,75.3z"/>
<path class="st3" d="M110.9,56.1c0.9-0.7,1.2-1.9,0.6-2.9c-0.8-0.9-2-1.2-3-0.5l-13.2,9.1h7.4L110.9,56.1z"/>
<path class="st3" d="M42.5,52.7c-0.9-0.7-2.3-0.4-2.9,0.6c-0.7,0.9-0.4,2.3,0.6,2.9l19.5,13.3L47.4,81.3c-0.8,0.8-0.8,2.1,0,2.9
	c0.4,0.4,0.9,0.7,1.5,0.7c0.5,0,1.1-0.2,1.4-0.6l12.5-12.2c0.1-1.7,0.6-3.2,1.4-4.6L42.5,52.7z"/>
<path class="st4" d="M74.1,65.7h15.3l5.8-4H74.1c-4.2,0-7.9,2.4-9.9,5.8l3.3,2.3C68.7,67.4,71.2,65.7,74.1,65.7z"/>
<path class="st4" d="M63.1,71.8l-0.3,0.3c0,0.3,0,0.6,0,0.9v26.1h4V74.3L63.1,71.8z"/>
<path class="st4" d="M124.1,61.7h-3v4h3c4,0,7.3,3.3,7.3,7.3v31.6c0,4-3.3,7.3-7.3,7.3h-2.5v15l-15-15H74.1c-4,0-7.3-3.3-7.3-7.3
	v-1.4h-4v1.4c0,6.2,5.1,11.3,11.3,11.3h30.7l13.9,13.9l6.8,6.8v-9.7v-11.1c5.6-0.7,9.9-5.5,9.9-11.2V73
	C135.4,66.8,130.3,61.7,124.1,61.7z"/>
<polygon class="st4" points="96.8,65.7 116.9,65.7 116.9,61.7 102.7,61.7 "/>
<rect x="62.8" y="99.1" class="st5" width="4" height="4.1"/>
<rect x="116.9" y="61.7" class="st5" width="4.2" height="4"/>
<polygon class="st5" points="95.3,61.7 89.4,65.7 96.8,65.7 102.7,61.7 "/>
<path class="st5" d="M67.5,69.8l-3.3-2.3c-0.8,1.4-1.3,3-1.4,4.6l0.3-0.3l3.6,2.5V73C66.8,71.9,67.1,70.8,67.5,69.8z"/>
</svg>
