<svg id="Layer_1" data-name="Layer 1" xmlns="http://www.w3.org/2000/svg" width="1024" height="1024" viewBox="0 0 1024 1024">
  <defs>
    <style>
      .cls-1 {
        fill: #ff004a;
      }

      .cls-2 {
        fill: #4695eb;
      }

      .cls-3 {
        fill: #091313;
      }
    </style>
  </defs>
  <g>
    <g>
      <path class="cls-1" d="M235.08,104.91V276.25c0,33,35.7,53.6,64.27,37.11l148.38-85.67c28.56-16.5,28.56-57.72,0-74.22L299.35,67.8C270.78,51.31,235.08,71.93,235.08,104.91Z"/>
      <path class="cls-2" d="M788.92,104.91V276.25c0,33-35.7,53.6-64.27,37.11L576.27,227.69c-28.56-16.5-28.56-57.72,0-74.22L724.65,67.8C753.22,51.31,788.92,71.93,788.92,104.91Z"/>
      <path class="cls-1" d="M299.35,952.88l148.38-85.67c28.57-16.49,28.57-57.72,0-74.21L299.35,707.33c-28.57-16.49-64.27,4.12-64.27,37.11V915.78C235.08,948.76,270.78,969.37,299.35,952.88Z"/>
      <path class="cls-2" d="M22.42,473.24l148.39-85.67c28.56-16.49,64.27,4.12,64.27,37.1V596c0,33-35.71,53.6-64.27,37.11L22.42,547.45C-6.14,531-6.14,489.73,22.42,473.24Z"/>
      <path class="cls-1" d="M1001.58,473.24,853.19,387.57c-28.56-16.49-64.27,4.12-64.27,37.1V596c0,33,35.71,53.6,64.27,37.11l148.39-85.67C1030.14,531,1030.14,489.73,1001.58,473.24Z"/>
      <path class="cls-2" d="M724.65,952.88,576.27,867.21c-28.57-16.49-28.57-57.72,0-74.21l148.38-85.67c28.57-16.49,64.27,4.12,64.27,37.11V915.78C788.92,948.76,753.22,969.37,724.65,952.88Z"/>
    </g>
    <g>
      <g>
        <path class="cls-3" d="M323.05,422.59l-.32-.18c-15-8.59-34,2.42-34.05,19.71V573.68a120.91,120.91,0,0,0,60.45,104.71L462.79,744l.32.18c15,8.59,34-2.42,34.05-19.71V592.92a120.9,120.9,0,0,0-60.45-104.71Z"/>
        <path class="cls-3" d="M526.84,724.16v.32c0,17.29,19,28.3,34,19.71l.32-.18,113.66-65.62a120.91,120.91,0,0,0,60.45-104.71V442.12c-.05-17.29-19-28.3-34.05-19.71l-.32.18L587.29,488.21a120.9,120.9,0,0,0-60.45,104.71Z"/>
      </g>
      <path class="cls-3" d="M688.28,395l.28-.16c15-8.71,15-30.67,0-39.38l-.28-.16L574.63,289.71a120.9,120.9,0,0,0-120.91,0L340.06,355.33l-.28.16c-15,8.71-15,30.67,0,39.38l.28.16,113.66,65.62a121,121,0,0,0,120.91,0Z"/>
    </g>
  </g>
</svg>
