<?xml version="1.0" encoding="utf-8"?>
<!-- Generator: Adobe Illustrator 16.0.3, SVG Export Plug-In . SVG Version: 6.00 Build 0)  -->
<!DOCTYPE svg PUBLIC "-//W3C//DTD SVG 1.1//EN" "http://www.w3.org/Graphics/SVG/1.1/DTD/svg11.dtd">
<svg version="1.1" id="Capa_1" xmlns="http://www.w3.org/2000/svg" xmlns:xlink="http://www.w3.org/1999/xlink" x="0px" y="0px"
	 width="235px" height="60.5px" viewBox="0 0 235 60.5" enable-background="new 0 0 235 60.5" xml:space="preserve">
<g>
	<path fill="#004379" d="M64.4,58.011c0.554,0.215,1.436,0.43,2.332,0.43c0.965,0,1.476-0.299,1.476-0.756
		c0-0.418-0.442-0.675-1.555-0.961c-1.545-0.408-2.568-1.042-2.568-2.055c0-1.173,1.339-2.063,3.516-2.063
		c1.064,0,1.82,0.153,2.373,0.347L69.507,54.2c-0.357-0.134-1.037-0.325-1.934-0.325c-0.912,0-1.35,0.314-1.35,0.661
		c0,0.438,0.508,0.634,1.723,0.98c1.639,0.451,2.397,1.087,2.397,2.063c0,1.155-1.185,2.137-3.732,2.137
		c-1.062,0-2.111-0.216-2.634-0.428L64.4,58.011z"/>
	<path fill="#004379" d="M88.112,59.717c-2.74,0-4.37-1.542-4.37-3.504c0-2.063,1.795-3.606,4.523-3.606
		c2.854,0,4.412,1.583,4.412,3.482c0,2.271-1.832,3.628-4.55,3.628H88.112z M88.211,58.481c1.42,0,2.232-0.992,2.232-2.343
		c0-1.233-0.785-2.294-2.232-2.294c-1.449,0-2.264,1.038-2.264,2.328c0,1.295,0.842,2.309,2.249,2.309H88.211z"/>
	<polygon fill="#004379" points="106.46,52.72 108.557,52.72 108.557,58.295 112.253,58.295 112.253,59.606 106.46,59.606 	"/>
	<path fill="#004379" d="M127.979,52.72v3.952c0,1.198,0.619,1.799,1.684,1.799c1.104,0,1.705-0.572,1.705-1.799V52.72h2.1v3.859
		c0,2.125-1.45,3.138-3.876,3.138c-2.343,0-3.712-0.973-3.712-3.156V52.72H127.979z"/>
	<polygon fill="#004379" points="149.481,54.027 146.97,54.027 146.97,52.72 154.113,52.72 154.113,54.027 151.578,54.027 
		151.578,59.604 149.481,59.604 	"/>
	<rect x="167.638" y="52.717" fill="#004379" width="2.094" height="6.888"/>
	<path fill="#004379" d="M187.885,59.717c-2.74,0-4.369-1.542-4.369-3.504c0-2.063,1.791-3.606,4.521-3.606
		c2.854,0,4.412,1.583,4.412,3.482c0,2.271-1.831,3.628-4.55,3.628H187.885z M187.98,58.481c1.423,0,2.234-0.992,2.234-2.343
		c0-1.233-0.785-2.294-2.234-2.294c-1.447,0-2.262,1.038-2.262,2.328c0,1.295,0.843,2.309,2.251,2.309H187.98z"/>
	<path fill="#004379" d="M206.218,59.604v-6.888h2.454l1.932,2.524c0.55,0.727,1.088,1.584,1.516,2.361h0.029
		c-0.126-0.909-0.165-1.841-0.165-2.884v-2.002h1.928v6.888h-2.204l-1.985-2.655c-0.554-0.748-1.173-1.624-1.615-2.434h-0.058
		c0.07,0.921,0.097,1.892,0.097,3.013v2.076H206.218z"/>
	<path fill="#004379" d="M228.191,58.011c0.549,0.215,1.435,0.43,2.327,0.43c0.968,0,1.477-0.299,1.477-0.756
		c0-0.418-0.439-0.675-1.559-0.961c-1.542-0.408-2.563-1.042-2.563-2.055c0-1.173,1.336-2.063,3.513-2.063
		c1.063,0,1.82,0.153,2.374,0.347l-0.473,1.247c-0.354-0.134-1.031-0.325-1.928-0.325c-0.908,0-1.35,0.314-1.35,0.661
		c0,0.438,0.508,0.634,1.723,0.98c1.642,0.451,2.4,1.087,2.4,2.063c0,1.155-1.188,2.137-3.739,2.137
		c-1.058,0-2.11-0.216-2.631-0.428L228.191,58.011z"/>
	<path fill="#004379" d="M65.291,31.89c2.767,1.312,6.734,2.31,10.986,2.31c6.313,0,9.997-2.414,9.997-6.038
		c0-3.257-2.55-5.2-9.001-6.986c-7.799-2.1-12.62-5.148-12.62-10.083c0-5.517,6.168-9.611,15.452-9.611
		c4.824,0,8.437,0.84,10.497,1.731L88.9,6.942c-1.492-0.686-4.68-1.681-9.004-1.681c-6.523,0-9.004,2.888-9.004,5.305
		c0,3.311,2.908,4.938,9.503,6.828c8.081,2.361,12.118,5.199,12.118,10.399c0,5.461-5.387,10.239-16.656,10.239
		c-4.61,0-9.645-1.05-12.195-2.311L65.291,31.89z"/>
	<path fill="#004379" d="M121.151,38.033c-12.688,0-21.475-7.246-21.475-17.96c0-11.241,9.356-18.591,22.116-18.591
		c13.112,0,21.548,7.403,21.548,17.906c0,12.132-9.993,18.645-22.116,18.645H121.151z M121.438,34.307
		c9.782,0,15.31-6.672,15.31-14.708c0-7.036-4.961-14.389-15.238-14.389c-10.281,0-15.382,7.089-15.382,14.755
		c0,7.46,5.527,14.342,15.24,14.342H121.438z"/>
	<polygon fill="#004379" points="152.772,2.059 178.504,2.059 178.504,5.891 159.009,5.891 159.009,17.656 177.015,17.656 
		177.015,21.436 159.009,21.436 159.009,37.457 152.772,37.457 	"/>
	<rect x="188.784" y="2.059" fill="#004379" width="6.24" height="35.398"/>
	<path fill="#004379" d="M206.51,31.89c2.764,1.312,6.733,2.31,10.982,2.31c6.313,0,9.998-2.414,9.998-6.038
		c0-3.257-2.554-5.2-8.999-6.986c-7.802-2.1-12.623-5.148-12.623-10.083c0-5.517,6.167-9.611,15.453-9.611
		c4.821,0,8.437,0.84,10.496,1.731l-1.702,3.73c-1.489-0.686-4.68-1.681-9.004-1.681c-6.523,0-9.002,2.888-9.002,5.305
		c0,3.311,2.905,4.938,9.501,6.828c8.081,2.361,12.12,5.199,12.12,10.399c0,5.461-5.39,10.239-16.661,10.239
		c-4.608,0-9.639-1.05-12.193-2.311L206.51,31.89z"/>
	<path fill="#004379" d="M51.875,17.876c-1.167-1.533-2.937-2.343-4.729-2.343c-1.254,0-2.508,0.391-3.582,1.209
		c-2.61,1.976-3.118,5.697-1.139,8.309c1.167,1.536,2.935,2.347,4.728,2.347c1.248,0,2.511-0.394,3.58-1.21
		C53.343,24.208,53.857,20.488,51.875,17.876"/>
	<path fill="#004379" d="M8.968,36.487c-0.89-1.171-2.231-1.786-3.594-1.786c-0.951,0-1.91,0.299-2.722,0.919
		c-1.988,1.504-2.376,4.336-0.867,6.315c0.884,1.17,2.232,1.785,3.591,1.785c0.95,0,1.909-0.303,2.725-0.92
		C10.084,41.298,10.475,38.469,8.968,36.487"/>
	<path fill="#004379" d="M19.393,5.157c-0.003,0.25-0.015,0.497-0.051,0.748c-0.115,0.852-0.412,1.646-0.854,2.352
		c10.578,3.342,18.622,8.945,21.413,11.005c0.337-1.101,0.905-2.103,1.687-2.943C36.093,11.966,25.327,6.595,19.393,5.157"/>
	<path fill="#004379" d="M16.869,2.492c-0.845-1.12-2.136-1.709-3.435-1.709c-0.908,0-1.819,0.29-2.602,0.88
		c-1.895,1.439-2.27,4.146-0.827,6.038c0.848,1.12,2.135,1.708,3.435,1.708c0.908,0,1.825-0.287,2.604-0.882
		C17.94,7.09,18.31,4.388,16.869,2.492"/>
	<path fill="#004379" d="M23.694,49.907c-4.695-2.019-10.473-6.107-12.867-7.841c-0.412,0.792-0.992,1.493-1.726,2.05
		c-0.189,0.145-0.403,0.267-0.604,0.388c5.501,4.301,11.812,7.396,14.44,8.556C22.972,51.975,23.228,50.9,23.694,49.907"/>
	<path fill="#004379" d="M36.295,47.457c4.195-6.012,7.726-15.175,8.694-18.732c-0.388-0.115-0.767-0.256-1.128-0.426
		c-1.928,8.33-5.988,15.799-7.847,18.894C36.114,47.273,36.204,47.368,36.295,47.457"/>
	<path fill="#004379" d="M35.931,49.481c-1.248-1.64-3.133-2.503-5.041-2.503c-1.331,0-2.676,0.42-3.815,1.287
		c-2.778,2.112-3.32,6.072-1.209,8.852c1.239,1.639,3.125,2.499,5.031,2.499c1.335,0,2.677-0.418,3.82-1.283
		C37.494,56.219,38.039,52.259,35.931,49.481"/>
	<path fill="#004379" d="M5.375,33.055c0.099,0,0.195,0.012,0.298,0.014c0.869-12.271,3.522-20.079,4.638-22.9
		c-0.196-0.12-0.386-0.255-0.569-0.399C5.257,20.232,4.048,29.834,3.744,33.289C4.271,33.145,4.815,33.055,5.375,33.055"/>
</g>
</svg>
