<?xml version="1.0" encoding="UTF-8"?>
<svg id="Layer_1" data-name="Layer 1" xmlns="http://www.w3.org/2000/svg" viewBox="0 0 1000 167.9">
  <defs>
    <style>
      .cls-1 {
        font-size: 18.61px;
      }

      .cls-1, .cls-2, .cls-3 {
        fill: #fff;
      }

      .cls-1, .cls-2, .cls-4, .cls-5 {
        font-family: MarkerFelt-Wide, 'Marker Felt';
      }

      .cls-2 {
        font-size: 14px;
      }

      .cls-6, .cls-4 {
        fill: #4695eb;
      }

      .cls-7 {
        letter-spacing: 0em;
      }

      .cls-8 {
        letter-spacing: 0em;
      }

      .cls-4, .cls-5 {
        font-size: 22.46px;
      }

      .cls-5 {
        fill: #ff004a;
      }

      .cls-9 {
        fill: #ff2061;
      }

      .cls-10 {
        letter-spacing: -.09em;
      }

      .cls-11 {
        letter-spacing: -.16em;
      }

      .cls-12 {
        letter-spacing: -.12em;
      }

      .cls-13 {
        letter-spacing: -.02em;
      }

      .cls-14 {
        letter-spacing: -.02em;
      }

      .cls-15 {
        fill: #265589;
      }

      .cls-16 {
        letter-spacing: -.05em;
      }

      .cls-17 {
        letter-spacing: .08em;
      }

      .cls-18 {
        letter-spacing: .06em;
      }

      .cls-19 {
        letter-spacing: .02em;
      }

      .cls-20 {
        letter-spacing: .03em;
      }

      .cls-21 {
        letter-spacing: .02em;
      }

      .cls-22 {
        letter-spacing: .02em;
      }

      .cls-23 {
        letter-spacing: .03em;
      }

      .cls-24 {
        letter-spacing: .03em;
      }

      .cls-25 {
        letter-spacing: .03em;
      }

      .cls-26 {
        letter-spacing: .02em;
      }

      .cls-27 {
        letter-spacing: .02em;
      }

      .cls-28 {
        letter-spacing: .02em;
      }

      .cls-29 {
        letter-spacing: .02em;
      }

      .cls-30 {
        letter-spacing: .02em;
      }

      .cls-31 {
        letter-spacing: .01em;
      }

      .cls-32 {
        letter-spacing: .04em;
      }

      .cls-33 {
        letter-spacing: .05em;
      }

      .cls-34 {
        letter-spacing: .06em;
      }

      .cls-35 {
        letter-spacing: .04em;
      }

      .cls-36 {
        letter-spacing: .04em;
      }

      .cls-37 {
        letter-spacing: .05em;
      }

      .cls-38 {
        letter-spacing: .05em;
      }

      .cls-39 {
        letter-spacing: .04em;
      }

      .cls-40 {
        letter-spacing: .04em;
      }

      .cls-41 {
        letter-spacing: .05em;
      }

      .cls-42 {
        letter-spacing: .03em;
      }

      .cls-43 {
        letter-spacing: .03em;
      }

      .cls-44 {
        letter-spacing: .03em;
      }

      .cls-45 {
        letter-spacing: .03em;
      }

      .cls-46 {
        letter-spacing: .03em;
      }

      .cls-47 {
        letter-spacing: .04em;
      }

      .cls-48 {
        letter-spacing: .04em;
      }

      .cls-49 {
        letter-spacing: .03em;
      }

      .cls-50 {
        letter-spacing: 0em;
      }

      .cls-51 {
        letter-spacing: .01em;
      }

      .cls-52 {
        letter-spacing: .01em;
      }

      .cls-53 {
        letter-spacing: 0em;
      }

      .cls-54 {
        letter-spacing: 0em;
      }
    </style>
  </defs>
  <g>
    <path class="cls-9" d="M829.51,142.05c-.72.25-.24.94,1.46.66.36-.41.69-.79.97-1.24-.77.3-1.59.46-2.43.58Z"/>
    <path class="cls-9" d="M840.26,137.86c.21-.54.29-1.14.37-1.67.03-.55.02-1.05-.07-1.44-.22-.79-.62-1.08-1.23-.63.24,1.02.11,1.65-.01,2.28-.14.64-.29,1.29-.52,2.56-1.09,1.54-2.56,1.91-2.52,1.43-.08.14-.26.32-.51.48-.26.15-.56.32-.87.5-.32.15-.65.32-.93.51-.29.17-.55.35-.72.6,1.24.03,2.61-.44,3.8-1.34,1.19-.89,2.18-2.23,2.68-3.75.55-.46.45.23.53.47Z"/>
    <path class="cls-9" d="M771.77,11.46l1.23.12c-.33-.07-.75-.11-1.23-.12Z"/>
    <path class="cls-9" d="M653.83,10.89c.9-.02,1.27-.13,1.32-.22-.83.07-1.52.13-1.32.22Z"/>
    <path class="cls-9" d="M633.69,9.74c.43.03.8.05,1.19.07-.45-.1-.91-.15-1.19-.07Z"/>
    <path class="cls-9" d="M771.77,11.46l-3.15-.33c-.22.34,1.61.25,3.15.33Z"/>
    <path class="cls-9" d="M839.55,112.04c.05.66.15,1.21.27,1.71-.05-.54-.08-1.07-.11-1.61-.06-.03-.11-.05-.16-.1Z"/>
    <path class="cls-9" d="M823.76,10.61h.96c.28-.12.55-.26.8-.43l-1.75.43Z"/>
    <path class="cls-9" d="M844.69,39.83c.04-.9-.85-1.22-1.23-1.56.36.51.54,1.18.61,1.97.17.01.37-.1.63-.41Z"/>
    <path class="cls-9" d="M843.14,103.09l.12,1.12c-.03-.29-.08-.78-.12-1.12Z"/>
    <path class="cls-9" d="M795.2,10.42c-.07-.13-.21-.25-.36-.32,0,.11.14.22.36.32Z"/>
    <path class="cls-9" d="M783.26,139.99c-.03.06.01.1,0,.16.23-.09.3-.15,0-.16Z"/>
    <path class="cls-9" d="M829.51,144.37l-.64.05c-.07.17-.14.33-.14.5l.78-.54Z"/>
    <path class="cls-9" d="M596.84,8.6c.07,0,.1.01.16.02.97-.1.42-.08-.16-.02Z"/>
    <path class="cls-9" d="M287.7,51.23c.79-3.83,1.02,6.24,1.9.47-.35.54-1.38-5.24-1.9-.47Z"/>
    <path class="cls-9" d="M839.66,111c-.01-.54-.02-1.09,0-1.64-.03.74-.03,1.25,0,1.64Z"/>
    <path class="cls-9" d="M289.6,51.7h0l.08-.6c-.04.25-.06.39-.09.6Z"/>
    <path class="cls-9" d="M511.93,9.13c.17.16.51.27.87.39-.03-.09-.22-.2-.87-.39Z"/>
    <path class="cls-9" d="M575.18,10.39l-1.57-.12c.62.08,1.12.11,1.57.12Z"/>
    <path class="cls-9" d="M479.08,10.38c-.85-.07-1.14-.19-2.3-.07.11.04.21.08.35.11.42-.12.98-.18,1.95-.04Z"/>
    <path class="cls-9" d="M444.9,10.39c.18.07.42.12.63.18.34-.01.73-.03,1.08-.05l-1.71-.13Z"/>
    <path class="cls-9" d="M679.37,140.41c.75.25,1.21.52,1.58.8-.53-.63,4.5-.85-1.58-.8Z"/>
    <path class="cls-9" d="M840.04,112.02c-.22-.2-.33-.49-.38-1.02.02.39.03.77.05,1.14.13.1.26.12.33-.12Z"/>
    <path class="cls-9" d="M477.69,17.37l-5.43-.13c1.52.09,3.49.13,5.43.13Z"/>
    <path class="cls-9" d="M434.12,140.54l1.25-.11c-.48-.02-.92,0-1.25.11Z"/>
    <path class="cls-9" d="M456.14,17.37c-.97-.31-2-.49-3.06-.61-.22.07-.48.13-.63.23l3.69.38Z"/>
    <path class="cls-9" d="M680.96,141.22s-.01,0-.01,0c0,0,0,0,.01,0Z"/>
    <path class="cls-9" d="M716.73,139.11c-5.18-.03-2.43,1.14-3.53,1.81-6.18.33-2.86-.86-4.96-1.45-3.86.31-6.82,1.38-9.69,1.33-.21-.19-.77-.26-.12-.5-4.08.93-12.1.05-16.86,1.21-.35-.1-.53-.2-.62-.29.77.58.89,1.18.73,1.6-2.32.02-4.31.74-5.18-.03,1.42.02,1.54-.28,2.21-.52l-2.43.33c-2.19-1.09,3.32-.38,3.32-1.19-4.74.36-10.27,1.26-13.9.95-.76-1.07,8.49-.36,3.65-1.31l5.62.41c-4.3-1.69,3.41.12-.53-1.69-7.4-.31-8.27.55-15.65.23-1.66.59.55.88-1.11,1.47-10.49,1.07-8.25-2.69-15.96-1.27-2,.71-2.77,2.07-8.26,1.35l1.87-1.21c-7.16-.12-4.09,1.74-11.59.93,1.33-.48,5.63-.4,4.54-.54-4.86-.96-3.44.69-7.17.69l-.77-1.07c-7.62.17-16.02.94-24.47,1.14.47-.32,1.91-.65-.06-.98-10.65.54-22.73-.13-33.01-.77l-3.92.92c-.91-.01-1.69-.42-.71-.6-4-.35-.21.59-2.13.95-2.28.06-3.01-.53-1.57-.81-7.06.78-20.12,1.69-27.57.7l1.45-.27c-5.8-.38-6.54,1.9-11.92,1.03l1.03-.16c-12.58-.4-26.48.45-36.08-.95-1.82,1.33-12.45-.59-13.26,1.26-7.18-.92-5.13-1.25-15.24-1.87-2.7-.09-4.03,1.16-7.37,1.35l-.08-.97-4.53,1.02-2.41-1.16-3.13.25c1.25.06,2.65.44,2.46.72-4.89.44-11.93-.68-12.05-1.17l-11.58.82c.26-.39,2.2-.52,3.73-.77-6.18.99-1.12-1.02-6.79-.11.76.22-.41.58-.54.77-2.82-.59-9.25-.59-14-.34l.91-.67c-8.59-.17-18.1.32-27.74.31,3.46.31,2.66,1.47-.16,1.58l-1.13-1.03c-1.82.64,2.95.39-.79,1.16-3.6-.12-2.42-1.17-.35-1.5l-4.38.36c-.26-.31.77-.47,1.04-.86-1.8.64-7.56-1.03-10.15.08l-.25-.31c-9.63,0-14,.34-21.85.4-.15.89-3.22.69-5.56,1.41-5.77-.28-12.17-.98-19.12-.9-2.44.22-2.8.41-2.82.61-.01.1.06.2,0,.31-.08.11-.24.22-.68.33-.14-.38-1.51-.71-2.39-1.18-.44-.25-.79-.43-.84-.58-.06-.13.13-.12.78-.05-1.38-.47-2.41-1.15-3.23-1.89-.82-.75-1.44-1.55-1.96-2.46-.51-.92-.94-1.96-1.14-3.29-.1-.56-.15-1.65-.21-2.73-.07-1.09-.14-2.28-.22-3.6-.33,1.14-.47,2.43-.75,1.77-.13-1.91.34-4.36.73-4.08l.08.51c-1.21-11.84,2.35-27.33.67-36.76l.08.53-.88-9.78c.14-4.5.61,2.7,1.11-.63-1.35-10.55.19-16.66-.7-25.35,1.19-3.36,1.15-9.33,1-15.58-.07-3.13-.18-6.33-.16-9.32,0-1.7.06-2.43.33-3.32.25-.86.74-1.56,1.23-2.1-.23,0-.44.01-.65.04.04-.42.21-.71.34-.95.17-.22.36-.37.55-.49.18-.13.42-.19.62-.29.2-.11.42-.21.66-.37-.43-.26-1.54.9-1.09-.06,1.12-1.36,2.71-2.36,4.45-2.79.21-.07.44-.11.66-.14.22-.03.44-.1.67-.09l.68-.04c.24-.01.61,0,.91,0,1.27,0,2.54.02,3.81.02,5.09.05,10.24.19,15.39.37,10.31.35,20.69.85,30.88,1.11,7.45.15,4.23-2.9,13.62-1.56l-2.67,1.04c15.03-1.25,30.74.04,45.46-1.02-.88.24-.9.55-2.34.55,3.11.76,11.5.04,11.55-.58,2.29.07.53.56,1.94.87,3.12.45,7.83-.97,9.48-.21.28.12-.88.25-1.45.3,2.03-.37,9.47.09,7.52-.78,5.52.42,10.57-.39,14.97.13,2.87-.98,9.46.47,10.37-.91-.4,1.43,9.68,1.15,13.18.48-1.17.43,3.04.45,1.67,1.04,3.99-.02,7.64-.28,6.94-1.02,7.34,1.71,14.76-1.37,18.9.81,11.84-.77,22.8-1.28,33.45-1.62-.38,1.42-11.77.14-11.32,1.63,10.1-.59,15.93-1.81,25.95-1.46,2.59.19-1.47.62-2.35.86,10.09-.59,19.52.13,28.5-.64-.02.13-.99.28-1.91.39,1.77-.05,4.12.21,3.92-.44l-1.73.18c-2.83-.94,7.03-1.96,7.35-2.45-3,1.85,8.87.47,4.1,2.8,1.17-.12,2.63-.43,2.36-.86,1.73.13,2.28.38.52.87,6.34-.35,4.09-1.04,9.83-1.02-.02.31-1.18.43-1.77.8,2.91-.61,5.83-1.22,10.69-.96-.29.19.27.43-1.18.43,8.34-.09,14.21-1.62,23.36-1.04-2.7,1.36,3.11.45,3.6,1.62l4.92-.35-1.97-.57c4.31.02,8.12-.84,11.82-.45l-3.2.48,8.07-.22-4.57-.45c4.36-.61-.47-1.49,5.27-1.16-1.17.12,4.31.01,6.56.71h-.01c2.13-.37,4.32-.77,7.51-.47.83.38-.67,1.3-.13,1.55,2.1-.98,10.09-.27,12.75-1.32-.89.25-.93.86-.64.99l1.77-.8c2,.26,2.29.38,1.96.87,6,.15-1.91-1.49,5.22-.85-.56.06-.29.18-1.46.31,7.16.34,13.83-.51,20.4-.11,1.94,1.18-5.74.29-3.52,1.29,9.48-.21,19.63-1.42,28.81-1.14l-1.71-.13c1.27-1.67,6.83.83,11.47.04-1.14.12-1.49.93-1.18.74,6.28.27,12.85-.41,22.37-.94l-1.18.43c3.7.38,9.75.22,13.75.42,1.19-.43,3.47-.36,2.08-.98,12.33,2.44,23.52-1.31,34.47.73-1.31,0-3.12.38-2.08.38l9.32-.4c-.74-.73-1.22-.44-3.18-1.01,1.18-.43,3.81-.77,6.12-.77-4.19.48.04,1.17,1.85,1.58-.3-.22.32-.47.16-.7.59.17.98.31,1.31.37.32.09.55.14.74.13.37-.01.55-.18.79-.33.24-.15.55-.32,1.17-.25.6.1,1.59.39,2.82,1.45l-.49.15c1.05.51,2.05,1.11,2.93,1.89.9.77,1.7,1.75,2.21,2.97-.15.67-.5.11-.93-.52-.44-.64-1.05-1.33-1.37-1.17,1.05,1.31,2.14,2.67,2.82,4.3.7,1.62.75,3.43.36,5.13-.12-.79-.16-1.79-.25-2.73-.09-.91-.27-1.81-.57-2.49,0,.44-.06.83-.1,1.17-.02.34-.07.64-.13.91-.05.27-.08.5-.1.73-.04.26-.06.49-.08.72-.08.92-.06,1.71-.14,3.09l.02-.27-.45,6.38.27-1.62c2.2,4.72.4,9.6,1.84,15.95-1.36-6.17-.79-1.02-1.74-1.49-.27,1.62-.56,4.09-.83,3.39.77,3-.61,5.01.52,9.25-.31.19-.03,3.21-.8,2.53.24,3.9.53-.92.92-.59,1.05,6.02-1.27,14.14.17,22.8.59,7.46,1.63,8.84,2.15,15.77-.49,2.34-1.12-1.91-1.12-1.91-.45,3.77-.37,6.61-.02,10.16-.27-.72-.5.02-.84,1.11.08,2.85,1.12,1.91.67,5.67-.34-.65-.89-1.47-1.23-2.85.28,3.36.86,6.68,1.13,10.16-.54.92-.81-2.1-1.16-3.33.23,3.89.51,10.17,1.31,11.3.15-.75.22-1.65.33-2.47.04,1.42-.73.73-.88-.32-.66-3.35.29-4.83.6-5.02l.2,2.48c1.8-2.54-.29-9.95-.18-14.94l1.31,2.08-1.09-5.12c.34-1.09,1.07-1.83,1.27.63.65-3.58-.47-3.17.26-6.24.11-.34.18-.19.23.13l-.39-3.49c.28.68.93-.58.74,1.57.76-6.27-.98-10.11.01-12.47l.08.52c-.44-8.7-.96-.84-2.09-7.37l2.37-4.39-.96-.86c.03-.9.11-2.67.49-2.34-.66-3.34-.42.57-1.04-1.37.88-4.32-.41-11.91,1.12-12.89-.73-1.55-.56,4.13-1.07-.48,1.65-1.32-.28-5.33.47-9.28.85,1.21.4,4.95,1.16,1-1.44-2.38.32-7.69.04-11.01-1.14-.16-.48-7.24-.86-12.82.1.09.18-.52.27-1.57.07-1.11.05-2.81-.47-4.6-.49-1.79-1.46-3.66-2.72-5.19-1.25-1.54-2.77-2.72-4.06-3.5l.25-.09c-.8.25-2.49-.38-4.64-.6-.54-.06-1.09-.12-1.67-.11-.59-.02-1.11,0-1.65.02-1.07.03-2.13.06-3.11.12.15-.69.86-.97,2.97-1.28h-3.67c-.87.38-2.01.57-4.39.7l.92-.86c-4.88.05-9.83,1.02-16.12.44-.35.81,5,2.25-1.65,2.79-.25-.44-.49-1.18,1.25-1.36-.57.06-2.03.36-3.18.18l2.65-.73c-2.86-.32-1.5.61-3.78.54.05-.62-1.69-.44-1.37-.94.58-.06,2,.26,2.87.01-2.58-.11-5.7-.48-6.73-.95.22.35,0,.84-1.89.92-4.88.05-1.67-.75-4.52-1.07-1.18.43-4.3-.02-4.38.91-1.43,0-1.69-.44-2.25-.69-2.53.41-11.81.12-8.96,1.11l.65.07c-.12.01-.26.03-.41.04h.02-.02c-8.28.92-17.21-.53-25.43-.13v-.31c-4.89.36-10.91.21-14.41.88-1.45,0-3.43-.57-2.8-.94-3.75.23-4.17.58-9.59.07,3.77-.54-1.3-.48,3.86-.4-4.87-.27-5.98-.77-11.21.08,1.78-.8-3.67-1-5.99-.77l3.41.57c-2.6.12-4.88.05-7.2-.02l1.25-1.05c-9.97-1.28-17.99,2.17-25.58.04-2.64.73,5.42.52,3.06,1.37-4.59-.14-9.37-1.65-10.8-1.65-6.28-.58-5.86,1.53-12.44,1.13.84.37,1.64,1.37-3.28,1.72-4.59-.14-5.64-1.57-2.74-1.87,1.1-.03,1.63.09,1.59.21,1.48-.14,3.43-.3,1.61-.7l-.6.37c-2.28-.38-8.59-.34-7.11-.95-3.47.36-1.48.61,1.09.81-5.89-.54-9.2-.02-15.26-.38.96.21,1.85.65.89.64-8.89-.46-3.91.71-9.94.87-3.42-.57,1.23-1.36-4.84-.88-3.7-.39-.78-.99.69-1.3-5.52.72-10.32-.47-13.48-.61l2.91-.3c-1.74.18-3.17.17-4.62.17l1.66.75c-1.71-.13-3.16-.13-3.12-.44-1.76.49,1.35,1.24-2.15,1.91-2.28-.38-6.94.41-7.72-.58,7.16.34-.79-1,5.27-1.16-1.17.12-2.6.11-4.31-.02-.26-.11.24-.21.71-.26-6.85-.89-3.15,1.12-10.25,1.1.9-.56-1.65-1.06-2.81-.94,2.86.01,1.37.93-1.26,1.36-4.56-.44-4.95.32-7.34.27l2.72.2c-.92.56-3.2.49-6.38.66-.27-.44,2.88-.3,1.75-.49-3.53.98-7.97-1.02-12.88-.36-2.28-.38-.22-1.05-2.22-1.31-5.51.73-5.97-.77-11.76-.17,1.67.75,1.96.57-2.12,1.3l9.52-.53-6.11,1.09c2.87.01,6.06-.47,7.78-.34-2.91.61-2.61.43-1.24,1.05-3.93-1.13-7.79.66-12.34-.1l.14-1.86c-6.83-.83-12.14.95-21.01.49l2.85.32c-1.19.74-5.48.1-8.35.4.27-.62-1.53-.85-2.76-1.24.15.46-6.49-.04-7.3,1.2l-3.96-.82c-7.16-.34-8.18,1.77-15.06,1.56,2.07-.68-1.06-1.12,3.56-1.6-2.3,0-4.37-.12-4.4.31-1.34-.39-6.38.84-8.49.25-.97.27-1.29.92-3.87.87-.28-.13.01-.31.01-.31-.01.31-4.04.42-1.79,1.11-7.08-1.94-19.8.14-25.96-1.53-5.02.21-11.06.41-15.62.45.29-.19.01-.31.88-.25-6.28-.58-3.86,1.79-11.01,1.14-3.65-1.01,3.8-.54,1.52-.92-.99-2.05-8.63.28-13.44-.92l1.17-.12c-3.68-.7-8.97.78-14.98.63,0,0,.29-.18.04-.31-4.11,1.04-11.89,1.39-17.67,1.68,1.8-.8,2.63-.42,1.53-1.24-2.59.12.76,1.31-4.41,1.53-1.68-.44-5.41-.82-5.91-1.69l4.88-.05c-2.5-1.12-6.32.04-8.89-.16l.33-.49c-7.48.16-7.58,1.4-15.62,1.31l.83.37c-4.39,1.23-3.68-.69-8.06.22l-1.33-1.24c-2.9.3-10.15,1.2-15.35,1.44,2.94-.92,9.03-1.39,12.79-1.94-2.87,0-9.76.09-11.26.71,1.16-.12,2.62-.42,3.76-.23-3.52.98-8.16,1.46-13.89,1.44.51-1.21-3.22-1.36-7.6-1.44-1.09-.02-2.23-.04-3.35-.07l-.85-.02c-.33,0-.66.01-.99.02-.66-.01-1.29.12-1.91.16-2.48.36-4.52,1.19-5.87,1.52-1.27.99-2.42,2.1-3.4,3.35-.96,1.26-1.77,2.63-2.39,4.09-.6,1.47-1,3.03-1.19,4.63l-.09,1.21c-.03.43-.02.67-.04,1.02-.02.65-.04,1.3-.07,1.95-.19,5.23-.47,10.67-.4,16.57,1.88-4.18.05,3.44,1.98,2.72.12,2.75.09,3.8-.03,4.04l-1.15,8.33c-.56,1.97-.42-2.61-.86-2.36-.15,6.02-.82,2.52-1.33,6.51.69-.82.99,2.09.72,5.52l.89-4.83c1.03,8.41-1.62,7.27-.6,15.74l-.61-2.68c.36,4.35-.01,16.04,1.54,20.31-.22.77-.75,1.79-.89-.13-.23,10.39,1.65,23.14.69,31.21l-.47-.79c.07.97.29,1.81.43,2.72.07.47.17,1.13.21,1.74.1.63.12,1.32.2,2.09-.23-.1-.71-.89-.45.26.23.64.88,2.21,1.92,3.79,1.03,1.6,2.44,3.14,3.57,4.3-.82-.47-1.58-1.05-2.32-1.67,1.96,2.67,4.53,4.4,7.1,5.24.32.1.64.2.96.3.32.07.65.14.97.2.63.15,1.27.18,1.9.24.62.06,1.24,0,1.84,0,.57-.03.96-.1,1.44-.15,3.69-.44,7.17-1,11.42-1.16-.02,1.39,7.96,1.84,11.94,2.06l-.14.2c11.81.17,20.05-1.15,30.99-1.69,6.79,1.51,22.99.63,33.89,1.47-1.67-.25.27-1.08,2.21-1.22,2.56.28,7.08-.96,6.67.31l-.91-.02c1.93,1.25,7.19.92,11.3.95l.68-1.66c10.74,2.42,28.15-.89,34.01,1.28,2.59-.42,5.8-.41,8.37-.83l-.14.89c7.18.23,10.77.34,19.65.13l-1.81.64c5.01.06,6.32-2.57,10.94-2.62l1.39,1.33c8.74-.02,17.58,1.15,26.21-.06-.14.19-.4.58-1.81.63,4.11.03,15.91.9,14.41-.93.1,1.19,9.01.12,13.73-.41l-.73.88c3.98-1.12,4.11-1.43,9.67-1.74,1.32.11,1.15.7-.6.48,4.39.46,3.42-.83,8.75-.36l-1.98.56c4.52.07,4.16-.23,6.65-.89,2.84-.35,8.57.22,9.24,1.02.61-.48,3.08-1.13,5.75-.9.36.3-.61.49-1.1.58,7.56.6,11.23-1.02,16.43-.16.11.29.45.44.88.52-6-.02-10.84-.07-10.38-.13,0,.81,4.85.95.99,2.07,3.89-.61,10.55-1.94,15.27-1.56.23.08.45.16.62.28l-.49.09c1.09.08,2.07,0,2.99-.13,1.51.13,2.47.23,3.91.24.56.67,5.56.36,7.98.39-.2-.89,2.97-.74,0-1.48.38.06-.46.11-2.06.14-.36.03-.79.04-1.03.09.05-.02.1-.05.16-.08-1.59.02-3.66.04-6.01.06,1.91-.45,3.91-.83,6.58-.34,1.24-.57,2.61-1.15,3.38-1.43,3.31,1.24,9.69,1.9,10.57,2.66,7.38-.5,17.39-.33,22.03-1.99,2.1-.21,2.41.48,3.2.74-1.21.17-2.65.14-3.31.38,4.2-.43,12.43-.17,13.43-1.33,5.29.52-2.97,1.07,4.3.88l-.98.36c14.3,1.86,23.24-2.97,39.1-.58-1.1-.15-1.65-.21-1.87-.41,18.07,1.05,37.24-.99,55.07.68,5.07.34,5.62-.41,8.71-.97l1.1.95,5.29-1.1c7.5-.8,12.99,2.33,22.48.81l-1.22-.64c3.41.12,10.8-.38,10.23.36.35-.12,1.12-.67,2.45-.33l.1.5,8.38-.85c6.49.36-1.02,1.98,8.46,2.07,3.52-.19,10.03-1.45,8.71-1.78-1.42-.02-3.63-.31-3.74-.81l3.22-.26c.58-1.47,3.06-2.97-4.85-3.99l-5.51.9-1.78-.71,4.64-.04c-2.63-.67-4.3-.08-6.17.33-.44-.38-1.22-.64-2.31-.78l-5.41,1.4c-.66-.57,2.43-1.14-1.2-1.46-2.53.65,2.43,1.29-1.77,1.71-2.64-.67-1.87-1.21-4.96-.64-.44-.38.22-.62,1.45-.78-2.76.45-7.29.19-8.71.97-2.75-.82-9.3.21-9.03-1.17-.87.33-4.85,1.09-7.38,1.15,4.62-1.66-9.47-.1-8.25-1.88-3.42,1.49-12.36.66-18.42,1.49.34-.12,1-.36,1.54-.28-3.41-.12-4.4-.57-6.59-.86-.44,1.23-5.75,1.52-8.61,2.28-4.18-1.19,2.54-1.45,1.23-2.59.21,1-7.26,1-5.84,1.83-3.2-.74-2.76-.36-4.4-1.38-.56,1.54-2.98.26-5.63,1.21-4.63-.76-1.19-1.45-6.27-.98-2.42-.47,2.1-1.02,2.1-1.02ZM595.86,141.78v-.02c1.04-.02,1.93-.04,2.5-.05-.52.01-1.24.03-2.5.07ZM585.7,141.8c1.24.03,2.78.04,4.41.03.36.31-.03.62-1.05.6.55-.2-1.84-.38-3.36-.64ZM607.18,147.94c-1.61.13-2.15-.05-2.37-.23.76-.02,1.65-.05,2.81-.11.05-.03.14-.07.19-.11-.15.17-.33.33-.64.44Z"/>
    <path class="cls-9" d="M610.07,146.77c.23-.02.36-.06.66-.06-.33-.08-.64-.14-.96-.2-.2.1-.4.19-.57.28.29,0,.59,0,.87-.01Z"/>
    <path class="cls-9" d="M773.21,11.6l-.21-.02c.18.03.34.07.45.13-.14-.04-.14-.07-.24-.11Z"/>
    <polygon class="cls-9" points="445.43 140.1 445.45 140.33 446.33 140.13 445.43 140.1"/>
    <path class="cls-9" d="M829.15,14.64c.1.08.34.15.68.24-.03-.06-.27-.16-.68-.24Z"/>
    <path class="cls-9" d="M840.31,29.49l-.32,3.42c.18-1.48.26-2.56.32-3.42Z"/>
    <path class="cls-9" d="M839.87,48.07c.16.24.27.3.38.36,0-.01,0-.02,0-.04l-.39-.33Z"/>
    <path class="cls-9" d="M576.46,16.32c-.25,0-.5.02-.72.04-1.68.17-.54.1.72-.04Z"/>
    <path class="cls-9" d="M664.38,14.25c-.93.16-1.85.32-2.83.42,1.57.07,2.78.09,2.83-.42Z"/>
    <path class="cls-9" d="M478.29,17.39s0,0,.01-.02h-.61l.6.02Z"/>
    <path class="cls-9" d="M657.47,14.65c1.57.18,2.87.14,4.09.02-1.28-.06-2.79-.15-4.09-.02Z"/>
    <path class="cls-9" d="M839.46,128.6l-.04.89c.06-.01.11.04.14.11l-.11-1Z"/>
    <path class="cls-9" d="M839.57,129.61l.1.99c0-.46,0-.85-.1-.99Z"/>
    <path class="cls-9" d="M839.84,132.46l-.07-.86c-.02-.26-.07-.67-.1-1,.01.8-.07,1.44.17,1.86Z"/>
    <path class="cls-9" d="M839.87,104.01l-.32-.28c.07.15.17.25.32.28Z"/>
    <path class="cls-9" d="M839.78,96.53c-.07,1.78-.69,4.47-.48,6.96l.26.23c-.48-1.17.77-5.5.23-7.19Z"/>
    <path class="cls-9" d="M843.75,65.33l-.26,6.26c.34-1.09.8-2.53.88.31,1.02-7.9-.77,1.63-.63-6.58Z"/>
    <path class="cls-9" d="M844.25,45.91c.16,3.37.5-.04.69.14-.31-2.13-.39-2.65-.69-.14Z"/>
    <path class="cls-9" d="M729.39,10.9l.34-.81c-2.59.12-.02.31-.34.81Z"/>
    <polygon class="cls-9" points="702.55 15.06 705.08 15.56 706.28 14.82 702.55 15.06"/>
    <polygon class="cls-9" points="686.71 9.32 687.84 9.2 683.51 9.5 686.71 9.32"/>
    <path class="cls-9" d="M450.98,9.61l.78.99c1.75-.18,2.12-1.29-.78-.99Z"/>
    <path class="cls-9" d="M349.22,10.62c-1.11-.5-3.97-.82-5.73-.33,2.29.07,4.57.46,5.73.33Z"/>
    <polygon class="cls-9" points="418.44 148.06 416.39 148.4 420.25 148.12 418.44 148.06"/>
  </g>
  <path class="cls-3" d="M141.04,58.08c3.31,3.01,6.43,6.21,9.9,9.03l.32,1.36-17.32,15.75c-2.93,1.19-2.21-4.84-2.47-6.28-.08-.42-.27-.71-.68-.85l-18.25-.05c-.78-.06-1.58-.35-2.03-1.02v-16.01s.64-.64.64-.64l19.33-.25c.37-.17.83-.41.96-.82.44-1.48-.52-6.69,1.96-6.67.95,0,6.52,5.4,7.66,6.44ZM134.8,56.98c-.74,1.56.61,4.17-1.74,4.49l-19.39.19c-.46.41-.47.95-.52,1.52-.21,2.36-.26,7.62,0,9.93.1.86.22,1.3,1.13,1.41,5.87.69,13.02-.59,19.03.04,2.12.59.69,2.97,1.47,4.5l1.14-.22,11.31-10.82-11.31-10.82-1.14-.22Z"/>
  <path class="cls-3" d="M308.23,58.08c3.31,3.01,6.43,6.21,9.9,9.03l.32,1.36-17.32,15.75c-2.93,1.19-2.21-4.84-2.47-6.28-.08-.42-.27-.71-.68-.85l-18.25-.05c-.78-.06-1.58-.35-2.03-1.02v-16.01s.64-.64.64-.64l19.33-.25c.37-.17.83-.41.96-.82.44-1.48-.52-6.69,1.96-6.67.95,0,6.52,5.4,7.66,6.44ZM301.99,56.98c-.74,1.56.61,4.17-1.74,4.49l-19.39.19c-.46.41-.47.95-.52,1.52-.21,2.36-.26,7.62,0,9.93.1.86.22,1.3,1.13,1.41,5.87.69,13.02-.59,19.03.04,2.12.59.69,2.97,1.47,4.5l1.14-.22,11.31-10.82-11.31-10.82-1.14-.22Z"/>
  <path class="cls-3" d="M487.07,58.08c3.31,3.01,6.43,6.21,9.9,9.03l.32,1.36-17.32,15.75c-2.93,1.19-2.21-4.84-2.47-6.28-.08-.42-.27-.71-.68-.85l-18.25-.05c-.78-.06-1.58-.35-2.03-1.02v-16.01s.64-.64.64-.64l19.33-.25c.37-.17.83-.41.96-.82.44-1.48-.52-6.69,1.96-6.67.95,0,6.52,5.4,7.66,6.44ZM480.83,56.98c-.74,1.56.61,4.17-1.74,4.49l-19.39.19c-.46.41-.47.95-.52,1.52-.21,2.36-.26,7.62,0,9.93.1.86.22,1.3,1.13,1.41,5.87.69,13.02-.59,19.03.04,2.12.59.69,2.97,1.47,4.5l1.14-.22,11.31-10.82-11.31-10.82-1.14-.22Z"/>
  <path class="cls-3" d="M678.68,58.08c3.31,3.01,6.43,6.21,9.9,9.03l.32,1.36-17.32,15.75c-2.93,1.19-2.21-4.84-2.47-6.28-.08-.42-.27-.71-.68-.85l-18.25-.05c-.78-.06-1.58-.35-2.03-1.02v-16.01s.64-.64.64-.64l19.33-.25c.37-.17.83-.41.96-.82.44-1.48-.52-6.69,1.96-6.67.95,0,6.52,5.4,7.66,6.44ZM672.45,56.98c-.74,1.56.61,4.17-1.74,4.49l-19.39.19c-.46.41-.47.95-.52,1.52-.21,2.36-.26,7.62,0,9.93.1.86.22,1.3,1.13,1.41,5.87.69,13.02-.59,19.03.04,2.12.59.69,2.97,1.47,4.5l1.14-.22,11.31-10.82-11.31-10.82-1.14-.22Z"/>
  <path class="cls-3" d="M857.53,58.08c3.31,3.01,6.43,6.21,9.9,9.03l.32,1.36-17.32,15.75c-2.93,1.19-2.21-4.84-2.47-6.28-.08-.42-.27-.71-.68-.85l-18.25-.05c-.78-.06-1.58-.35-2.03-1.02v-16.01s.64-.64.64-.64l19.33-.25c.37-.17.83-.41.96-.82.44-1.48-.52-6.69,1.96-6.67.95,0,6.52,5.4,7.66,6.44ZM851.29,56.98c-.74,1.56.61,4.17-1.74,4.49l-19.39.19c-.46.41-.47.95-.52,1.52-.21,2.36-.26,7.62,0,9.93.1.86.22,1.3,1.13,1.41,5.87.69,13.02-.59,19.03.04,2.12.59.69,2.97,1.47,4.5l1.14-.22,11.31-10.82-11.31-10.82-1.14-.22Z"/>
  <path class="cls-3" d="M84.65,94.3c-.46.33,4.98,8.66,4.96,10.15-.03,1.81-2.89,3.02-4.49,2.98-2.43-.06-10.84-3.7-13.65-4.78-6.37-2.46-12.59-5.28-18.87-7.96-2.76-.43-5.68.19-8.33.25-2.39.06-4.81-.1-7.2-.03-10.25.32-24.17,3.49-25.11-11.05-.35-5.5.06-13.4.31-19.05.17-3.95.65-16.18,2.07-19.14,2.26-4.7,8.25-6.3,13.06-6.6,20.38-1.25,41.95,1.56,62.41.31,15,.25,12.45,12.66,12.94,23.56.29,6.58,1.95,22.25-1.88,27.45-1.12,1.52-4.89,3.9-6.71,3.9h-9.51ZM78.1,98.35c-1.31-4.24-6.81-9.23,1.1-9.97,3.62-.34,7.42.32,10.91.34,2.38,0,4.34-.66,5.01-3.13.41-7.85.06-15.75-.19-23.56-.13-3.88.11-8.36-.3-12.18-.33-3.05-2.61-4.29-5.45-4.53-7.83-.67-17.43.48-25.6.34-11.72-.21-23.79-1.42-35.56-.65-3.16.2-5.96.71-6.66,4.25-.94,4.7-1.13,13.05-1.29,18.05s-.59,13.83,0,18.74c.33,2.77,2.37,3.42,4.83,3.59,5.97.42,13.78-.83,19.96-.96,3.4-.07,6.83.02,10.23.09,7.55,3.46,15.16,6.83,23,9.6Z"/>
  <text class="cls-4" transform="translate(28.35 74.93)"><tspan class="cls-45" x="0" y="0">Qu</tspan><tspan class="cls-44" x="26.37" y="0">e</tspan><tspan class="cls-35" x="37.26" y="0">r</tspan><tspan x="47.18" y="0">y</tspan></text>
  <text class="cls-5" transform="translate(511.14 129.21)"><tspan class="cls-23" x="0" y="0">L</tspan><tspan class="cls-18" x="11.39" y="0">a</tspan><tspan class="cls-39" x="24.1" y="0">n</tspan><tspan class="cls-33" x="36.31" y="0">g</tspan><tspan class="cls-40" x="47.72" y="0">ch</tspan><tspan class="cls-37" x="71.03" y="0">a</tspan><tspan class="cls-34" x="83.52" y="0">i</tspan><tspan class="cls-38" x="90.15" y="0">n</tspan><tspan class="cls-17" x="102.41" y="0">4</tspan><tspan x="118.89" y="0">j</tspan></text>
  <path class="cls-6" d="M270.52,52.03c-.02-1.51.12-3.24-.18-4.71-.05-.26-.06-.48-.38-.41-.03-4.74-4.96-8.7-8.64-10.48l-.34-.06c-.11,0-.19.14-.22.15-.14.02-.28-.02-.42,0-.04-.62-1.03-.73-1.47-.76-.26-.02-.57-.13-.49.31-.05,0-.09,0-.14,0l-.08-.14c-.1-.04-.23,0-.34-.01-.05,0-.09,0-.14,0-.15-.73-1.21-.77-1.75-.75-.27,0-.56-.15-.48.3-.05,0-.09,0-.14,0-.28,0-1.73-.05-1.81,0v-.45c-.3.14-.75-.15-.91-.15h-3.07c-.29,0-1.15.28-1.46.3-.67.05-1.36-.03-2.03,0-.27.01-.56-.15-.48.3-.32,0-.65,0-.98,0,.02-.53.09-.42-.34-.45-.64-.05-1.46-.03-2.1,0-.27.01-.56-.15-.48.3-.14,0-.28,0-.42,0,.05-.6.02-.37-.34-.46-1.45-.36-3,.05-4.47-.3l-61.92.15-.48.46s-.18.14-.42.15c-.05,0-.09,0-.14,0l-.07-.3-.35.3c-.14,0-.28,0-.42,0-.02,0-.15-.15-.28-.15-.14,0-.28,0-.42,0-.4,0-1.43.06-1.39.6v.15c-.11-.02-.3-.01-.42,0-.09,0-.25-.02-.28,0-.04-.14-.16-.15-.28-.15-.46-.02-1.08,0-1.12.6-.21.06-.22.13-.56.15-.28.01-.43-.44-.7.45-.04.01-.09-.01-.14,0-.66.15-.95-.15-1.25.75-.09,0-.19,0-.28,0-.02,0-.08-.15-.18-.13l-.17.11-.2.62c-.1.07-.27.14-.28.15-.04-.89-.69.38-.73.41-.14.09-.34,0-.58.2-.11.08-.62.69-.63.9-.05.04-.09.11-.14.15-.59.46-.87.55-1.12,1.36-.01.05.01.11,0,.15-.49.04-.54.4-.7.75-.02.04.02.11,0,.15-.68-.11-.48.5-.66.86-.84,1.67-1.14,2.74-1.15,4.71,0,.55,0,1.11,0,1.66-.53,1.29-.22,3.01-.27,4.45-.37,9.68-.46,19.37,0,29.05.04.91-.22,2.02.27,2.79,0,.6,0,1.21,0,1.81.02,1.6.14,1.51.53,2.82.16.55-.06,1.59.73,1.7.03.13-.02.31,0,.45.09.57.27.33.42.45.18.15.1.36.14.45.16.36.2.71.7.75.02.04-.02.1,0,.15.18.54.13.26.42.45.09.06.12.14.14.15-.06.7.25.49.56.6.04.14-.06.38.13.53.14.11.33.03.42.07.24.41-.02.35.56.6.04.02.1-.02.14,0,.12.57.91,1.06,1.39,1.2.11.03.3-.03.42,0-.04.53.12.6.56.6.19,0,.4-.13.49-.12.11,0,.14.22.21.27l.14.39c.16.13.27-.09.28-.09.19.02.51.1.7.15,0,.59.76.72,1.19.73.11,0,.19-.13.2-.13.18.01.37-.02.56,0-.03.53.96.73,1.35.75.21,0,.3-.14.32-.14.37,0,.75-.02,1.12,0,.06.34.14.53.49.6,1.35.11,2.7.18,4.06.16.25,0,.45-.16.47-.16,5.62-.05,11.25.05,16.87,0,.22.23.5.15.76.15,5.53.12,11.08-.07,16.59-.16,2.95-.05,6.59.33,9.43-.22.23-.04.49-.02.41-.38.19,0,.37,0,.56,0,2.6-.05,5.21.03,7.81,0,.47.25,1.33.26,1.81,0,.09,0,.19,0,.28,0,.57.02,2.01.2,1.95-.75.32,0,.65,0,.98,0,.47,0,1.17.17,1.81.15.44.25,1.24.25,1.67,0,.19,0,.37,0,.56,0,.59.02,1.91.21,2.09-.6.27.03.56-.02.84,0,.07,0,.33.28.56.15v-.3c.14,0,.28-.01.42,0,.31.03.7.49.7-.45.21-.04.48.03.7,0,.81-.1.65-.71.43-1.44l-.24-.19c-.1-.02-.17.13-.18.13-.31-.03-.42-.07-.7-.15-.14-.75-.54-.54-.98-.45-.17.03-.46-.09-.56.15-.48-.09-.88.14-1.12.15-.28,0-.56,0-.84,0,.06-.56.02-.67-.5-.74-1.58-.21-3.29-.1-4.87-.16-7.06-.26-14.17-.14-21.26-.16-9.99-.02-19.99.02-29.97,0-1.62,0-3.26,0-4.88,0-1.02,0-2.05,0-3.07,0-.32,0-.64.15-.7.15-.05,0-.09,0-.14,0-.09,0-.19,0-.28,0-.06,0-.27-.12-.42-.15.03-.57-.98-.56-1.39-.6-.31-.04-.66.04-.98,0-.06-.68-.67-.54-1.12-.6-.18-.02-.39.03-.56,0-.03-.46-.23-.49-.56-.6-.27-.1-.41.16-.7-.3-.03-.05.04-.25,0-.3-.04-.05-.21.02-.27,0-.13-.05-.18-.09-.28-.15-.02-.56-.65-.28-.69-.98l-.29.08c-.07-.09-.43.06-.42-.45,0-.22.33-.46-.42-.45-.01-.1,0-.2,0-.3-.06-.71-.42-.63-.53-1.01-.15-.52.07-1.71-.73-1.85,0-.15,0-.3,0-.45.02-.66,0-1.11,0-1.73v-38.24c0-.3,0-.7,0-.98,0-.15,0-.3,0-.45.56-.05.61-.9.7-1.36.03-.16-.03-.32.14-.45.2-.16.22.14.42-.45.03-.08-.03-.23,0-.3.59.15.46-.43.6-.56.18-.17.6-.49.82-.7.15-.15.43-.15.4-.55.32-.22.45-.3.84-.45.49-.19.72-.4,1.08-.56.46-.21,1.23-.04,1.29-.79.16-.02.39-.01.56,0,.02,0,.11.24.26.13.06-.07,0-.27.02-.28.02-.02.46-.01.56,0,.06,0,.16.18.46.15.35-.03,1.13-.26.93-.75.32,0,.65,0,.98,0h.42c.54.08,1.2-.25,1.67-.3.32-.03.79-.03,1.12,0,.25.02.59.13.98.15,1.4.08,2.68.02,4.04,0,.23,0,.47,0,.7,0,.29,0,.99.43,1.39,0,.18.03.38-.02.56,0,.15.02.37.13.7.15,2.56.17,5.49.11,8.09.15,6.5.09,13.02.01,19.52,0,.19,0,.37,0,.56,0,.32,0,.65,0,.98,0,.23,0,.46,0,.7,0,3.66-.01,7.35.1,11.01,0,.93-.03.54-.09.84-.3.04-.03.42,0,.56,0,.72-.03,1.51-.03,2.23,0,1.82.07,3.73.27,5.58.3,3.26.06,6.48,0,9.76,0,2.41,0,4.84,0,7.25,0,.19,0,.37,0,.56,0,.39.31.94.31,1.4.3v-.3c.09,0,.19,0,.28,0-.01.58,1.16.76,1.53.45.06.04.25-.04.28,0,.64.79,1.14.54,1.99.94.89.42,3.43,2.74,3.85,3.67.13.3.67,1.43.72,1.56.03.09-.01.31,0,.45.13,1.4.1,3.14.27,4.45.05.38.25.57.3,1.04.14,1.41-.34,2-.43,3.17-.24,2.95.8,5.88.43,8.9-.06.51-.37.81-.43,1.49-.13,1.6.16,3.58.15,5.28,0,1.34-.32,2.99-.15,4.37.05.4.15.63.56.67,0,.05,0,.1,0,.15.01.84.28,1.93.29,2.78,0,.7-.29,1.16-.29,1.66,0,1.21.2,2.53.14,3.84,0,.21-.12.67-.14,1.05-.01.2.01.4,0,.6-.04.55-.17,1.05-.14,1.74.01.29-.14.6.28.52v.75s-.09,0-.14,0c-.15,0-.34-.07-.43.09-.24.36-.19.92-.34,1.25-.16.35-.28.29-.48.91-.01.04.01.1,0,.15-.35-.07-.46.45-.56.75-.02.08.03.22,0,.3-.32-.01-.37.21-.53.4-.55.67-1.23,1.34-1.56,2.16-.36.18-.95.09-.98.75-.08-.02-.19.01-.28,0-.04,0-.14-.15-.28-.15-.4,0-1.06.21-1.25.6-.18,0-.37-.01-.56,0-.18.01-.36.02-.52.1l-1.01.8c-.09,0-.19,0-.28,0-1.67-.11-1.75.27-3.15.43-.77.09-1.61-.07-2.35.02-1.66.2-.63,1.34.43,1.49.63.09,3.54.09,3.96-.22.14-.1.12-.22.14-.37.67-.06,1.41.03,2.09,0,.15,0,.35.05.42-.15.22.02.47,0,.7,0,.56-.02.52.01.98-.3.1-.07.39.16.28-.45.23,0,.47,0,.7,0l.02.28.19.02c.19-.23.57-.24.5-.6.19-.04.37-.13.56-.15.02,0,.12.15.22.15.37-.02.74-.15.75-.6.02,0,.12-.13.28-.15.02,0,.13.24.41.09.26-.14.35-.57.46-.65.21-.14.69.08.66-.49.04-.02.1.02.14,0,.89-.38,1.14-.99,1.67-1.66.04-.05.09-.1.14-.15.02-.02.25.04.35-.15.41-.77.19-.31.55-.75.15-.18.11-.58.21-.79.14-.28.57-.24.55-.93,0-.12-.14-.22-.14-.24,0-.1,0-.2,0-.3.48.03.43-.42.56-.6.01-.02.18.04.24-.04.66-.85.43-2.85.6-3.8.06-.32.36-.5.49-.83.54-1.39.29-3.54.34-5.05.28-7.85.29-15.83.28-23.71,0-1.6.02-3.22,0-4.82Z"/>
  <g>
    <path class="cls-3" d="M183.6,62.39c.03.21-.11.55-.41,1.04-.32.5-.62.82-.91.94-.16.06-.34.06-.53-.01-.09-.04-.18-.1-.25-.18-.11-.13-.2-.22-.27-.27-.24.25-.54.39-.88.41-.35.02-.67-.03-.94-.14-.42-.17-.67-.26-.74-.28-.19-.04-.38-.08-.57-.13s-.37-.12-.53-.21c-1.24-.74-1.86-2.33-1.86-4.79,0-1.42.22-2.75.65-4,.43-1.25.95-1.96,1.55-2.13.06-.02.16,0,.29.07.13.07.23.1.3.1.1,0,.22-.05.35-.15.13-.1.24-.16.32-.18.08-.02.17-.03.26-.03.37,0,.82.12,1.34.36s1,.55,1.43.92c.79.68,1.19,2.02,1.19,4,0,1.75-.26,3.07-.78,3.96.07.06.2.16.39.31.11.05.22.09.34.14.16.07.25.16.27.25ZM180.69,59.91c.23-.5.35-1.18.35-2.03,0-.91-.12-1.79-.36-2.63-.24-.84-.49-1.29-.76-1.36-.15-.04-.24-.02-.28.06,0,.07-.01.17-.07.31-.42.44-.76,1.08-1.02,1.94-.26.85-.39,1.74-.39,2.65s.13,1.71.39,2.42c.55-1.06,1.11-1.62,1.68-1.68.07,0,.15.02.22.1.14.14.22.21.24.22ZM179.64,62.29c-.07-.12-.23-.27-.49-.46-.12-.08-.31-.21-.56-.36.31.84.56,1.26.76,1.25.11,0,.19-.05.22-.11.02-.1.04-.21.07-.31Z"/>
    <path class="cls-3" d="M190.84,56.08c.07.09.1.19.1.28s-.05.21-.16.34c-.11.13-.16.21-.16.25v6.51c0,.06.03.15.09.29.06.14.09.24.09.31,0,.17-.14.29-.43.36-.15.04-.5-.01-1.05-.15-.6-.15-.92-.3-.98-.45-.05-.12-.03-.28.04-.49.09-.24.14-.41.14-.5s-.01-.21-.04-.36c-.14.47-.34.88-.59,1.25-.31.43-.62.64-.92.64s-.73-.11-1.23-.32c-.5-.21-.79-.41-.87-.59-.26-.6-.39-2.8-.39-6.62-.07-.18-.11-.35-.11-.53,0-.29.11-.49.32-.59.07-.03.18-.04.35-.04.32,0,.7.05,1.13.15s.7.2.8.3c.05.06.07.12.07.18,0,.1-.07.27-.21.5-.14.23-.21.39-.21.5-.02,3.68,0,5.53.08,5.56.13.05.46-.39.99-1.3.53-.91.79-1.6.79-2.08v-2.62c-.12-.12-.18-.27-.18-.45,0-.36.16-.61.48-.74.04-.02.09-.03.17-.03.25,0,.62.06,1.11.18s.75.21.8.27Z"/>
    <path class="cls-3" d="M198.18,63.76c0,.13-.07.24-.17.34-.1.09-.22.13-.35.11-1.16-.16-1.8-.38-1.93-.66-.02-.04-.03-.07-.03-.11,0-.05.02-.1.06-.15s.07-.1.08-.15c0-.04.03-.08.06-.12.02-.07.02-.24.01-.49-.11.08-.28.31-.5.67-.23.4-.44.68-.62.84-.3.28-.64.42-1.02.42-.22,0-.44-.09-.66-.27-.1-.08-.29-.27-.55-.55-.45-.5-.69-.78-.73-.83-.2-.26-.29-.51-.29-.74,0-.07,0-.15.03-.22.18-.82.73-1.6,1.65-2.34.67-.53,1.62-1.1,2.86-1.69,0-.3-.07-.49-.22-.57-.09-.06-.42.05-.98.32-.56.27-.95.49-1.18.68-.08.07-.2.18-.36.31-.16.09-.3.12-.43.08-.1-.03-.32-.2-.66-.5s-.52-.51-.55-.62c-.08-.25,0-.45.24-.59,0,0,.2-.07.56-.17.35-.19.69-.37,1.04-.56.73-.35,1.34-.53,1.85-.56.21,0,.46.1.73.34.24.21.49.43.73.64.25.21.5.41.76.61.3.26.45.51.45.76v5.29c.09.24.13.41.13.49ZM195.94,59.68c-.46.18-.85.45-1.18.81-.24.3-.49.59-.73.88-.2.2-.38.45-.55.76-.17.31-.26.54-.26.69,0,.07.03.11.08.11.2,0,.63-.42,1.32-1.27.68-.84,1.12-1.51,1.32-1.99Z"/>
    <path class="cls-3" d="M204.46,56.65c.04.15-.01.27-.15.36-.11.06-.22.12-.32.18-.59.9-1.39,2.1-2.39,3.63,0,1.48,0,2.25.01,2.3,0,.05.04.17.11.36.06.19.09.34.09.46,0,.18-.08.3-.24.36-.1.05-.24.07-.42.07-.35,0-.75-.08-1.18-.24-.54-.19-.81-.42-.81-.71,0-.08.04-.22.11-.41.08-.19.11-.34.11-.46v-5.54c-.1-.52-.15-.79-.15-.81,0-.29.13-.47.39-.55.11-.03.25-.04.41-.04.33,0,.67.05,1.03.16s.57.22.64.34c.02.04.03.08.03.14,0,.05-.07.27-.2.67v.67c.22-.4.44-.8.66-1.2.29-.5.5-.77.64-.8.21-.04.52.08.94.36s.65.51.7.7Z"/>
    <path class="cls-3" d="M211.79,62.7c.02.18-.16.5-.53.97-.37.47-.66.69-.87.66-.4-.06-1.25-1.14-2.55-3.25-.09.1-.25.27-.48.49v1.65s.01.13.03.25.04.21.05.27c.03.32-.04.52-.2.62-.08.05-.22.07-.41.07-.35,0-.7-.07-1.04-.2-.39-.15-.59-.33-.59-.53v-10.39c0-.15.05-.31.14-.49.09-.18.2-.29.32-.34.03,0,.07-.01.11-.01.24,0,.58.08,1.01.24.43.16.67.31.72.43.03.07.04.12.04.17,0,.07-.04.17-.11.29-.08.12-.11.23-.11.33v4.86l2.07-2.84c.12-.17.28-.26.46-.27.18,0,.42.1.74.34.35.26.54.52.55.77,0,.1-.21.47-.66,1.09-.69.99-1.1,1.58-1.22,1.76l1.82,2.51c.06.09.2.19.41.29.17.08.26.17.27.27Z"/>
    <path class="cls-3" d="M218.81,56.08c.07.09.1.19.1.28s-.05.21-.16.34c-.11.13-.16.21-.16.25v6.51c0,.06.03.15.09.29.06.14.09.24.09.31,0,.17-.14.29-.43.36-.15.04-.5-.01-1.05-.15-.6-.15-.92-.3-.98-.45-.05-.12-.03-.28.04-.49.09-.24.14-.41.14-.5s-.01-.21-.04-.36c-.14.47-.34.88-.59,1.25-.31.43-.62.64-.92.64s-.73-.11-1.23-.32c-.5-.21-.79-.41-.87-.59-.26-.6-.39-2.8-.39-6.62-.07-.18-.11-.35-.11-.53,0-.29.11-.49.32-.59.07-.03.18-.04.35-.04.32,0,.7.05,1.13.15s.7.2.8.3c.05.06.07.12.07.18,0,.1-.07.27-.21.5-.14.23-.21.39-.21.5-.02,3.68,0,5.53.08,5.56.13.05.46-.39.99-1.3.53-.91.79-1.6.79-2.08v-2.62c-.12-.12-.18-.27-.18-.45,0-.36.16-.61.48-.74.04-.02.09-.03.17-.03.25,0,.62.06,1.11.18s.75.21.8.27Z"/>
    <path class="cls-3" d="M224.74,62.69c0,.51-.17.92-.51,1.23-.34.31-.82.47-1.44.48-.15,0-.31-.02-.49-.07-.32-.08-.49-.13-.5-.14-.17-.04-.34-.08-.51-.12s-.32-.11-.44-.22c-.21-.19-.41-.44-.6-.77-.16-.26-.31-.53-.46-.8s-.22-.43-.22-.49c0-.13.09-.23.28-.29.05-.02.13-.03.25-.03.28,0,.63.03,1.06.09.42.06.66.11.69.15s.09.31.15.81c.06.43.15.64.29.64.21,0,.32-.29.32-.87,0-.74-.2-1.2-.59-1.39-.9-.42-1.48-.79-1.76-1.12-.34-.4-.52-1.01-.52-1.82,0-.53.14-1.03.42-1.51.28-.47.61-.75.99-.85.17-.04.71.14,1.62.53.08.03.33.08.74.15.29.06.49.15.62.29.18.21.28.56.31,1.02,0,.35.01.69.01,1.04.07.32.1.5.1.56,0,.26-.13.41-.38.45-.13.02-.39-.03-.77-.15-.42-.14-.69-.28-.8-.43-.03-.04-.06-.39-.08-1.05-.03-.62-.09-.94-.2-.94-.14,0-.27.18-.39.55-.12.36-.18.74-.18,1.13,0,.49.11.81.32.94.46.25.91.51,1.37.76.45.26.77.52.95.79.23.35.35.83.35,1.43Z"/>
    <path class="cls-3" d="M235.42,61.23c-.03.23-.12.42-.27.56-.27.58-.69,1.16-1.25,1.75-.61.63-1.1.94-1.47.94-.06,0-.11,0-.15-.01-.41-.13-.87-.29-1.39-.49-.92-.37-1.62-1.09-2.1-2.14-.43-.95-.64-2.06-.64-3.32,0-1.54.29-2.9.88-4.07.62-1.25,1.41-1.9,2.35-1.95.36-.02.9.17,1.6.56s1.17.78,1.39,1.17c.22.39.38,1.23.46,2.54.02.28-.02.56-.11.85-.11.35-.26.5-.43.48-.33-.05-.74-.15-1.23-.31-.6-.2-.92-.36-.97-.49-.02-.05-.03-.09-.03-.13,0-.08.04-.19.12-.31s.12-.23.12-.31c.05-.38.07-.74.07-1.08,0-.48-.06-.82-.17-1.01-.56.41-.99,1.1-1.27,2.06-.24.81-.36,1.73-.36,2.76,0,.79.07,1.5.21,2.12.14.62.31,1,.5,1.13.09.06.35-.13.78-.57s.7-.78.82-1.04c0,0,.05-.16.13-.45.06-.17.13-.27.22-.31.16-.06.57.08,1.22.4.66.32.98.55.96.68Z"/>
    <path class="cls-3" d="M240.83,56.05c.51.24.91.73,1.19,1.47.25.67.38,1.47.38,2.38,0,1.26-.21,2.35-.64,3.28-.48.99-1.07,1.44-1.78,1.34-.26-.07-.65-.14-1.18-.24-.38-.05-.73-.12-1.04-.21-.53-.14-.96-.59-1.27-1.36-.29-.71-.43-1.54-.43-2.49s.15-1.83.45-2.62c.34-.86.81-1.46,1.41-1.81.1-.06.24-.08.42-.08.19,0,.56.06,1.11.18.35,0,.82.05,1.39.15ZM239.27,57.31c-.25,0-.49.31-.7.92s-.32,1.2-.32,1.76c0,.67.08,1.33.24,1.99.18.71.38,1.09.62,1.15.3.07.56-.27.8-1.01.22-.71.34-1.49.34-2.35,0-.48-.06-.95-.18-1.41-.17-.69-.43-1.04-.78-1.04Z"/>
    <path class="cls-3" d="M249.68,54.86c-.07,0-.18-.03-.31-.09-.13-.06-.24-.08-.32-.06l-1.44.39v7.36c0,.27.07.56.2.88.04.09.03.27-.03.53-.06.29-.14.47-.27.55-.02,0-.07.01-.14.01-.31,0-.74-.06-1.29-.18-.62-.14-.98-.28-1.09-.41-.13-.17-.13-.39.01-.67.12-.24.18-.42.18-.53v-6.93l-.99.25s-.12.05-.23.12c-.11.07-.2.1-.27.08-.21-.06-.51-.33-.88-.83-.37-.5-.54-.84-.49-1.02.07-.21.29-.38.66-.49.09-.03.21-.03.36-.01.15.02.27.02.35,0l4.87-1.25s.18-.06.41-.17c.15-.06.29-.09.41-.07.26.04.44.14.53.31.07.11.13.32.21.63.09.36.14.68.14.95,0,.21-.03.36-.08.47-.05.11-.22.17-.5.18Z"/>
    <path class="cls-3" d="M199.51,77.67c0,.69-.23,1.26-.69,1.7-.46.44-1.09.67-1.9.69-.21,0-.42-.03-.66-.1-.43-.12-.65-.18-.67-.18-.22-.05-.45-.1-.68-.15s-.43-.16-.59-.31c-.25-.22-.46-.59-.62-1.09-.2-.59-.34-.96-.45-1.11-.08-.07-.16-.21-.27-.39-.03-.14,0-.28.08-.41s.17-.22.29-.26c.06-.02.16-.03.31-.03.33,0,.73.04,1.2.12.47.08.74.15.79.22.06.07.13.4.22,1.01.08.56.21.87.38.94.04.02.08.03.13.03.18,0,.33-.15.46-.44s.19-.63.19-1c0-.81-.25-1.35-.76-1.62-1.16-.63-1.97-1.2-2.44-1.74-.54-.62-.78-1.34-.73-2.18.05-.7.3-1.41.76-2.12.46-.71.95-1.13,1.46-1.25.21-.05.87.16,1.96.62.27.1.54.21.82.32.28.11.5.28.67.49.26.33.39.89.39,1.69,0,.15,0,.37-.01.66,0,.25-.01.43-.01.53,0,.07.04.17.1.32.05.1.07.21.06.31-.02.41-.19.64-.52.69-.19.03-.53-.04-1.04-.21-.56-.18-.92-.37-1.06-.57-.02-.03-.03-.12-.03-.28,0-.14.02-.46.05-.95.03-.49.05-.85.05-1.08,0-.4-.05-.6-.14-.59-.29.02-.53.23-.72.62-.19.4-.29.85-.29,1.35,0,.84.25,1.44.74,1.79.56.35,1.12.71,1.68,1.06.53.35.9.69,1.11,1.04.26.45.39,1.07.39,1.88Z"/>
    <path class="cls-3" d="M206,77.22c.08.14-.1.56-.55,1.25-.49.74-.96,1.24-1.43,1.5-.06.03-.14.04-.25.04-.36,0-.84-.11-1.43-.34-.63-.22-1.04-.47-1.23-.73-.54-.7-.81-1.67-.81-2.91,0-1.18.24-2.21.71-3.11.51-.98,1.17-1.48,1.96-1.5.29,0,.64.07,1.05.22.5.2.92.46,1.25.8.08.08.16.34.24.76.09.45.14.89.14,1.32,0,.64-.1,1.07-.31,1.32-.96.31-1.94.48-2.94.52-.02.46.04.94.17,1.44.13.5.27.76.41.77.19,0,.41-.15.67-.46.23-.27.38-.5.43-.69.07-.28.15-.57.27-.87.15-.02.44.06.88.22s.7.32.77.45ZM203.51,72.94c-.16-.02-.38.23-.67.76-.29.52-.45,1.02-.5,1.5.42-.02.76-.12,1.01-.31.15-.11.22-.58.22-1.4,0-.35-.02-.53-.07-.55Z"/>
    <path class="cls-3" d="M212.05,72.25c.04.15-.01.27-.15.36-.11.06-.22.12-.32.18-.59.9-1.39,2.1-2.39,3.63,0,1.48,0,2.25.01,2.3,0,.05.04.17.1.36.06.19.09.34.09.46,0,.18-.08.3-.24.36-.1.05-.24.07-.42.07-.36,0-.75-.08-1.18-.24-.54-.19-.81-.42-.81-.71,0-.08.04-.22.11-.41.07-.19.11-.34.11-.46v-5.54c-.1-.52-.15-.79-.15-.81,0-.29.13-.47.39-.55.11-.03.25-.04.41-.04.33,0,.67.05,1.03.16s.57.22.64.34c.02.04.03.08.03.14,0,.05-.07.27-.2.67v.67c.22-.4.44-.8.66-1.2.29-.5.5-.77.64-.8.21-.04.52.08.94.36.42.28.65.51.7.7Z"/>
    <path class="cls-3" d="M219.28,71.94c-.36.92-.78,2.34-1.25,4.24-.42,1.72-.63,2.69-.62,2.93v.69c0,.3-.12.47-.34.52-.21.04-.72-.05-1.52-.27-.8-.21-1.24-.39-1.34-.52-.05-.07-.07-.18-.07-.31s0-.22-.03-.27c-.43-1.36-.74-2.47-.94-3.33-.23-1.06-.4-2.24-.5-3.53,0-.03,0-.11-.03-.24-.02-.1-.03-.19-.03-.25,0-.21.09-.35.28-.42.08-.03.44.04,1.08.19.63.15.98.29,1.04.41.03.06.04.12.04.2,0,.09-.03.21-.08.36-.06.14-.08.24-.08.29.1.73.2,1.37.29,1.93.22,1.34.4,2.14.53,2.39.14-.81.39-1.87.74-3.16.17-.62.34-1.25.52-1.88.03-.17.06-.34.08-.5.07-.19.18-.3.35-.35.11-.04.41.05.9.25.53.22.85.43.97.63Z"/>
    <path class="cls-3" d="M222.78,79.39c.04.34-.08.55-.35.63-.05,0-.11.01-.2.01-.34,0-.75-.07-1.25-.21-.53-.15-.84-.31-.94-.48-.05-.07,0-.22.13-.43.08-.14.13-.4.13-.77v-5.88c-.11-.35-.17-.59-.17-.71s.17-.18.52-.18c.28,0,.67.09,1.17.26.5.17.8.32.9.45.03.04.04.08.04.14,0,.07-.05.21-.16.42-.11.21-.16.36-.16.46v5.63c0,.09.05.21.16.35.11.14.17.24.17.31ZM222.82,69.72s.01.06.01.11c0,.21-.04.47-.13.8-.09.35-.18.55-.27.59-.09.04-.49-.06-1.2-.3-.71-.24-1.09-.41-1.13-.51-.03-.05-.04-.12-.04-.21,0-.25.07-.52.2-.8.15-.32.32-.49.5-.53.21-.04.59.04,1.12.25s.84.4.94.61Z"/>
    <path class="cls-3" d="M229.48,76.94c0,.18-.15.42-.46.71-.25.55-.48.95-.67,1.19-.43.56-.96.89-1.58.99-.13.02-.26.03-.38.03-.52,0-1.17-.25-1.93-.76-.66-.45-.99-1.48-.99-3.09,0-1.19.18-2.28.55-3.25.4-1.05.89-1.6,1.47-1.64.46-.03,1.02.09,1.68.36.66.27,1.11.57,1.34.9.2.27.29.63.29,1.08,0,.12,0,.3-.03.52-.02.23-.02.39-.01.48.02.25.03.37.03.35,0,.3-.14.44-.43.43-.34,0-.65-.06-.95-.15-.4-.14-.64-.33-.73-.57-.03-.08.01-.2.12-.34.11-.14.15-.26.13-.35.02-.06.03-.23.03-.49,0-.56-.1-.85-.29-.87-.3-.02-.55.43-.76,1.36-.19.82-.28,1.72-.28,2.69,0,1.15.13,1.75.41,1.82.21.05.5-.19.84-.7.29-.44.45-.73.47-.89.02-.15.04-.31.06-.47.07-.26.23-.38.5-.36.17.02.46.13.88.32.42.2.64.34.67.44s.04.18.04.25Z"/>
    <path class="cls-3" d="M235.94,77.22c.08.14-.1.56-.55,1.25-.49.74-.96,1.24-1.43,1.5-.06.03-.14.04-.25.04-.36,0-.84-.11-1.43-.34-.62-.22-1.04-.47-1.23-.73-.54-.7-.81-1.67-.81-2.91,0-1.18.24-2.21.71-3.11.51-.98,1.17-1.48,1.96-1.5.29,0,.64.07,1.05.22.5.2.92.46,1.25.8.08.08.16.34.24.76.09.45.14.89.14,1.32,0,.64-.1,1.07-.31,1.32-.96.31-1.94.48-2.94.52-.02.46.04.94.17,1.44.13.5.27.76.41.77.19,0,.41-.15.67-.46.23-.27.38-.5.43-.69.07-.28.15-.57.27-.87.15-.02.44.06.88.22.44.17.7.32.77.45ZM233.44,72.94c-.16-.02-.38.23-.67.76-.29.52-.45,1.02-.5,1.5.42-.02.76-.12,1.01-.31.15-.11.22-.58.22-1.4,0-.35-.02-.53-.07-.55Z"/>
  </g>
  <path class="cls-6" d="M449.37,52.03c-.02-1.51.14-3.24-.2-4.71-.06-.26-.07-.48-.42-.41-.03-4.74-5.48-8.7-9.54-10.48l-.37-.06c-.12,0-.21.14-.25.15-.15.02-.31-.02-.46,0-.04-.62-1.14-.73-1.62-.76-.29-.02-.63-.13-.54.31-.05,0-.1,0-.15,0l-.09-.14c-.11-.04-.25,0-.37-.01-.05,0-.1,0-.15,0-.16-.73-1.34-.77-1.93-.75-.3,0-.62-.15-.53.3-.05,0-.1,0-.15,0-.31,0-1.91-.05-2,0v-.45c-.33.14-.83-.15-1-.15h-3.39c-.32,0-1.27.28-1.62.3-.74.05-1.5-.03-2.24,0-.3.01-.62-.15-.53.3-.36,0-.72,0-1.08,0,.02-.53.1-.42-.38-.45-.7-.05-1.61-.03-2.32,0-.3.01-.62-.15-.53.3-.15,0-.31,0-.46,0,.05-.6.02-.37-.37-.46-1.6-.36-3.31.05-4.93-.3l-68.35.15-.53.46s-.19.14-.46.15c-.05,0-.1,0-.15,0l-.08-.3-.38.3c-.15,0-.31,0-.46,0-.03,0-.17-.15-.31-.15-.15,0-.31,0-.46,0-.45,0-1.58.06-1.54.6v.15c-.12-.02-.33-.01-.46,0-.09,0-.27-.02-.31,0-.04-.14-.18-.15-.31-.15-.51-.02-1.19,0-1.23.6-.23.06-.24.13-.62.15-.31.01-.47-.44-.77.45-.05.01-.1-.01-.15,0-.73.15-1.05-.15-1.39.75-.1,0-.21,0-.31,0-.02,0-.09-.15-.2-.13l-.19.11-.22.62c-.11.07-.3.14-.31.15-.05-.89-.76.38-.81.41-.15.09-.37,0-.64.2-.12.08-.69.69-.7.9-.06.04-.1.11-.15.15-.65.46-.96.55-1.23,1.36-.02.05.02.11,0,.15-.54.04-.59.4-.77.75-.02.04.02.11,0,.15-.75-.11-.53.5-.73.86-.93,1.67-1.26,2.74-1.27,4.71,0,.55,0,1.11,0,1.66-.59,1.29-.24,3.01-.3,4.45-.41,9.68-.51,19.37,0,29.05.05.91-.24,2.02.3,2.79,0,.6,0,1.21,0,1.81.02,1.6.15,1.51.58,2.82.18.55-.07,1.59.81,1.7.03.13-.02.31,0,.45.1.57.3.33.46.45.2.15.11.36.15.45.18.36.23.71.77.75.02.04-.02.1,0,.15.2.54.14.26.46.45.09.06.13.14.15.15-.06.7.27.49.62.6.05.14-.07.38.15.53.15.11.36.03.47.07.26.41-.02.35.62.6.05.02.11-.02.15,0,.13.57,1,1.06,1.54,1.2.12.03.33-.03.46,0-.04.53.13.6.62.6.21,0,.44-.13.54-.12.12,0,.15.22.23.27l.15.39c.17.13.29-.09.31-.09.21.02.56.1.77.15,0,.59.84.72,1.32.73.12,0,.21-.13.22-.13.2.01.41-.02.62,0-.04.53,1.06.73,1.49.75.23,0,.34-.14.36-.14.41,0,.82-.02,1.23,0,.07.34.16.53.54.6,1.49.11,2.98.18,4.48.16.28,0,.49-.16.52-.16,6.2-.05,12.42.05,18.62,0,.24.23.55.15.84.15,6.1.12,12.24-.07,18.31-.16,3.26-.05,7.27.33,10.41-.22.26-.04.54-.02.45-.38.21,0,.41,0,.62,0,2.87-.05,5.75.03,8.62,0,.52.25,1.47.26,2,0,.1,0,.21,0,.31,0,.63.02,2.22.2,2.15-.75.36,0,.72,0,1.08,0,.52,0,1.29.17,2,.15.49.25,1.37.25,1.85,0,.2,0,.41,0,.62,0,.65.02,2.11.21,2.31-.6.3.03.62-.02.92,0,.08,0,.36.28.61.15v-.3c.15,0,.31-.01.46,0,.34.03.77.49.77-.45.23-.04.53.03.77,0,.9-.1.72-.71.47-1.44l-.27-.19c-.11-.02-.19.13-.2.13-.35-.03-.46-.07-.77-.15-.15-.75-.6-.54-1.08-.45-.19.03-.5-.09-.62.15-.53-.09-.97.14-1.23.15-.31,0-.62,0-.92,0,.07-.56.02-.67-.55-.74-1.74-.21-3.63-.1-5.38-.16-7.8-.26-15.65-.14-23.46-.16-11.03-.02-22.06.02-33.09,0-1.79,0-3.59,0-5.39,0-1.13,0-2.26,0-3.39,0-.36,0-.71.15-.77.15-.05,0-.1,0-.15,0-.1,0-.21,0-.31,0-.07,0-.3-.12-.46-.15.03-.57-1.09-.56-1.54-.6-.35-.04-.73.04-1.08,0-.06-.68-.73-.54-1.23-.6-.19-.02-.43.03-.62,0-.03-.46-.26-.49-.62-.6-.3-.1-.46.16-.77-.3-.03-.05.04-.25,0-.3-.05-.05-.23.02-.3,0-.14-.05-.2-.09-.31-.15-.02-.56-.71-.28-.76-.98l-.31.08c-.08-.09-.47.06-.46-.45,0-.22.36-.46-.46-.45-.01-.1,0-.2,0-.3-.07-.71-.46-.63-.58-1.01-.17-.52.08-1.71-.8-1.85,0-.15,0-.3,0-.45.03-.66,0-1.11,0-1.73v-38.24c0-.3,0-.7,0-.98,0-.15,0-.3,0-.45.62-.05.67-.9.77-1.36.04-.16-.03-.32.15-.45.22-.16.25.14.46-.45.03-.08-.03-.23,0-.3.65.15.51-.43.66-.56.2-.17.67-.49.9-.7.17-.15.47-.15.44-.55.35-.22.5-.3.92-.45.54-.19.79-.4,1.2-.56.51-.21,1.36-.04,1.42-.79.17-.02.43-.01.62,0,.02,0,.12.24.28.13.07-.07,0-.27.03-.28.02-.02.51-.01.62,0,.07,0,.18.18.51.15.38-.03,1.24-.26,1.03-.75.36,0,.72,0,1.08,0h.46c.59.08,1.32-.25,1.85-.3.36-.03.87-.03,1.23,0,.27.02.65.13,1.08.15,1.55.08,2.96.02,4.46,0,.26,0,.51,0,.77,0,.32,0,1.09.43,1.54,0,.19.03.42-.02.62,0,.16.02.41.13.77.15,2.82.17,6.06.11,8.93.15,7.17.09,14.37.01,21.55,0,.21,0,.41,0,.62,0,.36,0,.72,0,1.08,0,.26,0,.51,0,.77,0,4.04-.01,8.12.1,12.16,0,1.03-.03.6-.09.92-.3.05-.03.47,0,.62,0,.79-.03,1.67-.03,2.46,0,2,.07,4.11.27,6.16.3,3.59.06,7.16,0,10.77,0,2.67,0,5.34,0,8,0,.21,0,.41,0,.62,0,.43.31,1.03.31,1.54.3v-.3c.1,0,.2,0,.31,0-.01.58,1.28.76,1.69.45.06.04.28-.04.31,0,.71.79,1.26.54,2.2.94.98.42,3.79,2.74,4.25,3.67.15.3.74,1.43.79,1.56.03.09-.01.31,0,.45.14,1.4.12,3.14.3,4.45.05.38.27.57.33,1.04.16,1.41-.37,2-.48,3.17-.26,2.95.89,5.88.47,8.9-.07.51-.41.81-.47,1.49-.14,1.6.18,3.58.17,5.28,0,1.34-.36,2.99-.17,4.37.05.4.16.63.62.67,0,.05,0,.1,0,.15.01.84.31,1.93.32,2.78,0,.7-.32,1.16-.32,1.66,0,1.21.22,2.53.16,3.84-.01.21-.13.67-.15,1.05-.01.2.01.4,0,.6-.04.55-.18,1.05-.15,1.74.01.29-.16.6.31.52v.75s-.1,0-.15,0c-.16,0-.37-.07-.48.09-.26.36-.21.92-.38,1.25-.17.35-.31.29-.53.91-.02.04.01.1,0,.15-.38-.07-.51.45-.62.75-.03.08.03.22,0,.3-.35-.01-.41.21-.59.4-.61.67-1.36,1.34-1.72,2.16-.39.18-1.05.09-1.08.75-.09-.02-.21.01-.31,0-.04,0-.16-.15-.31-.15-.44,0-1.16.21-1.39.6-.2,0-.41-.01-.62,0-.2.01-.39.02-.58.1l-1.12.8c-.1,0-.21,0-.31,0-1.84-.11-1.93.27-3.48.43-.85.09-1.77-.07-2.6.02-1.84.2-.7,1.34.47,1.49.69.09,3.91.09,4.38-.22.16-.1.13-.22.15-.37.74-.06,1.55.03,2.31,0,.17,0,.39.05.46-.15.25.02.52,0,.77,0,.62-.02.58.01,1.08-.3.11-.07.43.16.31-.45.26,0,.51,0,.77,0l.02.28.21.02c.21-.23.63-.24.55-.6.21-.04.41-.13.62-.15.02,0,.13.15.25.15.41-.02.82-.15.83-.6.03,0,.13-.13.31-.15.02,0,.14.24.45.09.29-.14.39-.57.51-.65.23-.14.76.08.73-.49.04-.02.11.02.15,0,.98-.38,1.26-.99,1.85-1.66.05-.05.1-.1.15-.15.03-.02.28.04.39-.15.46-.77.21-.31.61-.75.17-.18.12-.58.24-.79.15-.28.63-.24.61-.93,0-.12-.15-.22-.15-.24,0-.1,0-.2,0-.3.53.03.47-.42.62-.6.01-.02.2.04.27-.04.73-.85.48-2.85.66-3.8.06-.32.39-.5.54-.83.6-1.39.32-3.54.38-5.05.31-7.85.32-15.83.31-23.71,0-1.6.02-3.22,0-4.82Z"/>
  <text class="cls-2" transform="translate(368.58 63.97)"><tspan class="cls-14" x="0" y="0">Step </tspan><tspan class="cls-11" x="28.56" y="0">1</tspan><tspan class="cls-13" x="35.39" y="0">:</tspan><tspan class="cls-47" x="-27.64" y="15.6">A</tspan><tspan class="cls-22" x="-17.87" y="15.6">n</tspan><tspan class="cls-19" x="-10.53" y="15.6">a</tspan><tspan class="cls-52" x="-3.09" y="15.6">l</tspan><tspan class="cls-13" x=".27" y="15.6">yze </tspan><tspan class="cls-12" x="23.93" y="15.6">F</tspan><tspan class="cls-22" x="29.02" y="15.6">a</tspan><tspan class="cls-13" x="36.49" y="15.6">ct</tspan><tspan class="cls-49" x="47.83" y="15.6">o</tspan><tspan class="cls-14" x="54.92" y="15.6">rs</tspan></text>
  <path class="cls-6" d="M640.98,52.03c-.02-1.51.15-3.24-.22-4.71-.06-.26-.07-.48-.46-.41-.04-4.74-6.04-8.7-10.52-10.48l-.41-.06c-.14,0-.23.14-.27.15-.17.02-.34-.02-.51,0-.05-.62-1.26-.73-1.78-.76-.32-.02-.69-.13-.59.31-.06,0-.11,0-.17,0l-.1-.14c-.12-.04-.28,0-.41-.01-.06,0-.11,0-.17,0-.18-.73-1.48-.77-2.13-.75-.33,0-.68-.15-.59.3-.06,0-.11,0-.17,0-.34,0-2.11-.05-2.21,0v-.45c-.36.14-.92-.15-1.1-.15h-3.74c-.35,0-1.4.28-1.78.3-.81.05-1.65-.03-2.47,0-.33.01-.68-.15-.59.3-.4,0-.79,0-1.19,0,.02-.53.11-.42-.42-.45-.77-.05-1.77-.03-2.56,0-.33.01-.68-.15-.59.3-.17,0-.34,0-.51,0,.06-.6.02-.37-.41-.46-1.77-.36-3.65.05-5.44-.3l-75.4.15-.58.46s-.22.14-.51.15c-.06,0-.11,0-.17,0l-.09-.3-.42.3c-.17,0-.34,0-.51,0-.03,0-.19-.15-.34-.15-.17,0-.34,0-.51,0-.49,0-1.75.06-1.7.6v.15c-.13-.02-.37-.01-.51,0-.1,0-.3-.02-.34,0-.05-.14-.2-.15-.34-.15-.57-.02-1.31,0-1.36.6-.25.06-.27.13-.68.15-.35.01-.52-.44-.85.45-.05.01-.12-.01-.17,0-.81.15-1.16-.15-1.53.75-.11,0-.23,0-.34,0-.02,0-.09-.15-.22-.13l-.21.11-.25.62c-.12.07-.33.14-.34.15-.05-.89-.84.38-.89.41-.17.09-.41,0-.71.2-.13.08-.76.69-.77.9-.06.04-.11.11-.17.15-.71.46-1.06.55-1.36,1.36-.02.05.02.11,0,.15-.6.04-.65.4-.85.75-.02.04.02.11,0,.15-.83-.11-.59.5-.81.86-1.03,1.67-1.39,2.74-1.4,4.71,0,.55,0,1.11,0,1.66-.65,1.29-.27,3.01-.33,4.45-.45,9.68-.56,19.37,0,29.05.05.91-.26,2.02.33,2.79,0,.6,0,1.21,0,1.81.02,1.6.17,1.51.64,2.82.2.55-.07,1.59.89,1.7.03.13-.03.31,0,.45.11.57.33.33.51.45.22.15.12.36.17.45.2.36.25.71.85.75.02.04-.02.1,0,.15.22.54.16.26.51.45.1.06.15.14.17.15-.07.7.3.49.68.6.05.14-.08.38.16.53.17.11.4.03.51.07.29.41-.02.35.68.6.05.02.13-.02.17,0,.14.57,1.11,1.06,1.7,1.2.14.03.36-.03.51,0-.05.53.14.6.68.6.23,0,.48-.13.59-.12.13,0,.17.22.26.27l.17.39c.19.13.32-.09.34-.09.23.02.62.1.85.15,0,.59.93.72,1.45.73.13,0,.23-.13.25-.13.22.01.46-.02.68,0-.04.53,1.17.73,1.64.75.25,0,.37-.14.39-.14.45,0,.91-.02,1.36,0,.07.34.17.53.6.6,1.65.11,3.28.18,4.94.16.31,0,.54-.16.57-.16,6.84-.05,13.7.05,20.54,0,.27.23.6.15.93.15,6.73.12,13.5-.07,20.2-.16,3.59-.05,8.02.33,11.48-.22.28-.04.59-.02.5-.38.23,0,.45,0,.68,0,3.16-.05,6.34.03,9.51,0,.57.25,1.63.26,2.21,0,.11,0,.23,0,.34,0,.7.02,2.45.2,2.38-.75.4,0,.79,0,1.19,0,.57,0,1.43.17,2.21.15.54.25,1.51.25,2.04,0,.23,0,.45,0,.68,0,.72.02,2.33.21,2.55-.6.33.03.68-.02,1.02,0,.09,0,.4.28.68.15v-.3c.17,0,.34-.01.51,0,.38.03.85.49.85-.45.25-.04.58.03.85,0,.99-.1.79-.71.52-1.44l-.3-.19c-.13-.02-.21.13-.23.13-.38-.03-.51-.07-.85-.15-.17-.75-.66-.54-1.19-.45-.21.03-.55-.09-.68.15-.59-.09-1.07.14-1.36.15-.34,0-.68,0-1.02,0,.08-.56.03-.67-.61-.74-1.92-.21-4.01-.1-5.94-.16-8.6-.26-17.26-.14-25.88-.16-12.16-.02-24.34.02-36.5,0-1.98,0-3.96,0-5.94,0-1.24,0-2.49,0-3.74,0-.39,0-.78.15-.85.15-.06,0-.11,0-.17,0-.11,0-.23,0-.34,0-.08,0-.33-.12-.51-.15.03-.57-1.2-.56-1.7-.6-.38-.04-.81.04-1.19,0-.07-.68-.81-.54-1.36-.6-.21-.02-.48.03-.68,0-.04-.46-.29-.49-.68-.6-.33-.1-.5.16-.85-.3-.03-.05.05-.25,0-.3-.05-.05-.26.02-.33,0-.15-.05-.22-.09-.34-.15-.02-.56-.79-.28-.84-.98l-.35.08c-.09-.09-.52.06-.51-.45,0-.22.4-.46-.51-.45-.01-.1.01-.2,0-.3-.07-.71-.51-.63-.64-1.01-.18-.52.08-1.71-.88-1.85,0-.15,0-.3,0-.45.03-.66,0-1.11,0-1.73v-38.24c0-.3,0-.7,0-.98,0-.15,0-.3,0-.45.69-.05.74-.9.85-1.36.04-.16-.03-.32.17-.45.24-.16.27.14.51-.45.03-.08-.03-.23,0-.3.72.15.56-.43.73-.56.22-.17.74-.49,1-.7.18-.15.52-.15.48-.55.39-.22.55-.3,1.02-.45.6-.19.87-.4,1.32-.56.56-.21,1.5-.04,1.57-.79.19-.02.48-.01.68,0,.03,0,.14.24.31.13.08-.07,0-.27.03-.28.03-.02.56-.01.68,0,.08,0,.2.18.56.15.42-.03,1.37-.26,1.13-.75.4,0,.79,0,1.19,0h.51c.65.08,1.46-.25,2.04-.3.39-.03.96-.03,1.36,0,.3.02.72.13,1.19.15,1.71.08,3.26.02,4.92,0,.28,0,.57,0,.85,0,.35,0,1.2.43,1.7,0,.22.03.46-.02.68,0,.18.02.46.13.85.15,3.11.17,6.69.11,9.85.15,7.91.09,15.85.01,23.77,0,.23,0,.45,0,.68,0,.4,0,.79,0,1.19,0,.28,0,.57,0,.85,0,4.46-.01,8.96.1,13.41,0,1.13-.03.66-.09,1.02-.3.05-.03.52,0,.68,0,.88-.03,1.84-.03,2.72,0,2.21.07,4.54.27,6.79.3,3.97.06,7.9,0,11.88,0,2.94,0,5.89,0,8.83,0,.23,0,.45,0,.68,0,.47.31,1.14.31,1.7.3v-.3c.11,0,.23,0,.34,0-.01.58,1.41.76,1.87.45.07.04.3-.04.34,0,.78.79,1.39.54,2.42.94,1.08.42,4.18,2.74,4.69,3.67.16.3.82,1.43.87,1.56.04.09-.02.31,0,.45.16,1.4.13,3.14.33,4.45.06.38.3.57.36,1.04.17,1.41-.41,2-.53,3.17-.29,2.95.98,5.88.52,8.9-.08.51-.46.81-.52,1.49-.16,1.6.19,3.58.18,5.28,0,1.34-.39,2.99-.19,4.37.06.4.18.63.69.67,0,.05,0,.1,0,.15.02.84.34,1.93.35,2.78.01.7-.35,1.16-.35,1.66,0,1.21.24,2.53.17,3.84-.01.21-.14.67-.17,1.05-.01.2.02.4,0,.6-.04.55-.2,1.05-.17,1.74.01.29-.18.6.34.52v.75s-.11,0-.17,0c-.18,0-.41-.07-.52.09-.29.36-.24.92-.42,1.25-.19.35-.34.29-.59.91-.02.04.02.1,0,.15-.42-.07-.56.45-.68.75-.03.08.03.22,0,.3-.38-.01-.45.21-.65.4-.67.67-1.5,1.34-1.9,2.16-.43.18-1.16.09-1.19.75-.1-.02-.23.01-.34,0-.04,0-.17-.15-.34-.15-.48,0-1.29.21-1.53.6-.23,0-.46-.01-.68,0-.22.01-.43.02-.64.1l-1.23.8c-.11,0-.23,0-.34,0-2.03-.11-2.13.27-3.84.43-.93.09-1.96-.07-2.86.02-2.03.2-.77,1.34.52,1.49.76.09,4.31.09,4.83-.22.17-.1.15-.22.17-.37.82-.06,1.71.03,2.55,0,.19,0,.43.05.51-.15.27.02.57,0,.85,0,.68-.02.64.01,1.19-.3.12-.07.47.16.34-.45.28,0,.57,0,.85,0l.02.28.23.02c.23-.23.7-.24.6-.6.23-.04.45-.13.68-.15.02,0,.15.15.27.15.45-.02.9-.15.92-.6.03,0,.15-.13.34-.15.03,0,.16.24.5.09.32-.14.43-.57.57-.65.25-.14.84.08.8-.49.05-.02.12.02.17,0,1.09-.38,1.39-.99,2.04-1.66.05-.05.11-.1.17-.15.03-.02.31.04.43-.15.5-.77.23-.31.67-.75.19-.18.14-.58.26-.79.17-.28.7-.24.67-.93,0-.12-.17-.22-.17-.24,0-.1,0-.2,0-.3.58.03.52-.42.68-.6.01-.02.22.04.29-.04.8-.85.52-2.85.73-3.8.07-.32.43-.5.59-.83.66-1.39.35-3.54.42-5.05.35-7.85.35-15.83.35-23.71,0-1.6.03-3.22,0-4.82Z"/>
  <text class="cls-2" transform="translate(551.94 63.97)"><tspan class="cls-14" x="0" y="0">Step </tspan><tspan class="cls-16" x="28.56" y="0">2</tspan><tspan class="cls-14" x="37" y="0">:</tspan><tspan class="cls-7" x="-36.18" y="15.6">S</tspan><tspan class="cls-26" x="-29" y="15.6">y</tspan><tspan class="cls-13" x="-20.87" y="15.6">n</tspan><tspan class="cls-31" x="-14.15" y="15.6">t</tspan><tspan class="cls-29" x="-8.35" y="15.6">he</tspan><tspan class="cls-26" x="5.48" y="15.6">s</tspan><tspan class="cls-53" x="11.51" y="15.6">i</tspan><tspan class="cls-14" x="15" y="15.6">ze Op</tspan><tspan class="cls-53" x="46.78" y="15.6">t</tspan><tspan class="cls-52" x="52.51" y="15.6">i</tspan><tspan class="cls-24" x="56.01" y="15.6">o</tspan><tspan class="cls-27" x="63.1" y="15.6">n</tspan><tspan class="cls-13" x="70.38" y="15.6">s</tspan></text>
  <path class="cls-6" d="M819.82,52.03c-.02-1.51.14-3.24-.2-4.71-.06-.26-.07-.48-.42-.41-.03-4.74-5.48-8.7-9.54-10.48l-.37-.06c-.12,0-.21.14-.25.15-.15.02-.31-.02-.46,0-.04-.62-1.14-.73-1.62-.76-.29-.02-.63-.13-.54.31-.05,0-.1,0-.15,0l-.09-.14c-.11-.04-.25,0-.37-.01-.05,0-.1,0-.15,0-.16-.73-1.34-.77-1.93-.75-.3,0-.62-.15-.53.3-.05,0-.1,0-.15,0-.31,0-1.91-.05-2,0v-.45c-.33.14-.83-.15-1-.15h-3.39c-.32,0-1.27.28-1.62.3-.74.05-1.5-.03-2.24,0-.3.01-.62-.15-.53.3-.36,0-.72,0-1.08,0,.02-.53.1-.42-.38-.45-.7-.05-1.61-.03-2.32,0-.3.01-.62-.15-.53.3-.15,0-.31,0-.46,0,.05-.6.02-.37-.37-.46-1.6-.36-3.31.05-4.93-.3l-68.35.15-.53.46s-.19.14-.46.15c-.05,0-.1,0-.15,0l-.08-.3-.38.3c-.15,0-.31,0-.46,0-.03,0-.17-.15-.31-.15-.15,0-.31,0-.46,0-.45,0-1.58.06-1.54.6v.15c-.12-.02-.33-.01-.46,0-.09,0-.27-.02-.31,0-.04-.14-.18-.15-.31-.15-.51-.02-1.19,0-1.23.6-.23.06-.24.13-.62.15-.31.01-.47-.44-.77.45-.05.01-.1-.01-.15,0-.73.15-1.05-.15-1.39.75-.1,0-.21,0-.31,0-.02,0-.09-.15-.2-.13l-.19.11-.22.62c-.11.07-.3.14-.31.15-.05-.89-.76.38-.81.41-.15.09-.37,0-.64.2-.12.08-.69.69-.7.9-.06.04-.1.11-.15.15-.65.46-.96.55-1.23,1.36-.02.05.02.11,0,.15-.54.04-.59.4-.77.75-.02.04.02.11,0,.15-.75-.11-.53.5-.73.86-.93,1.67-1.26,2.74-1.27,4.71,0,.55,0,1.11,0,1.66-.59,1.29-.24,3.01-.3,4.45-.41,9.68-.51,19.37,0,29.05.05.91-.24,2.02.3,2.79,0,.6,0,1.21,0,1.81.02,1.6.15,1.51.58,2.82.18.55-.07,1.59.81,1.7.03.13-.02.31,0,.45.1.57.3.33.46.45.2.15.11.36.15.45.18.36.23.71.77.75.02.04-.02.1,0,.15.2.54.14.26.46.45.09.06.13.14.15.15-.06.7.27.49.62.6.05.14-.07.38.15.53.15.11.36.03.47.07.26.41-.02.35.62.6.05.02.11-.02.15,0,.13.57,1,1.06,1.54,1.2.12.03.33-.03.46,0-.04.53.13.6.62.6.21,0,.44-.13.54-.12.12,0,.15.22.23.27l.15.39c.17.13.29-.09.31-.09.21.02.56.1.77.15,0,.59.84.72,1.32.73.12,0,.21-.13.22-.13.2.01.41-.02.62,0-.04.53,1.06.73,1.49.75.23,0,.34-.14.36-.14.41,0,.82-.02,1.23,0,.07.34.16.53.54.6,1.49.11,2.98.18,4.48.16.28,0,.49-.16.52-.16,6.2-.05,12.42.05,18.62,0,.24.23.55.15.84.15,6.1.12,12.24-.07,18.31-.16,3.26-.05,7.27.33,10.41-.22.26-.04.54-.02.45-.38.21,0,.41,0,.62,0,2.87-.05,5.75.03,8.62,0,.52.25,1.47.26,2,0,.1,0,.21,0,.31,0,.63.02,2.22.2,2.15-.75.36,0,.72,0,1.08,0,.52,0,1.29.17,2,.15.49.25,1.37.25,1.85,0,.2,0,.41,0,.62,0,.65.02,2.11.21,2.31-.6.3.03.62-.02.92,0,.08,0,.36.28.61.15v-.3c.15,0,.31-.01.46,0,.34.03.77.49.77-.45.23-.04.53.03.77,0,.9-.1.72-.71.47-1.44l-.27-.19c-.11-.02-.19.13-.2.13-.35-.03-.46-.07-.77-.15-.15-.75-.6-.54-1.08-.45-.19.03-.5-.09-.62.15-.53-.09-.97.14-1.23.15-.31,0-.62,0-.92,0,.07-.56.02-.67-.55-.74-1.74-.21-3.63-.1-5.38-.16-7.8-.26-15.65-.14-23.46-.16-11.03-.02-22.06.02-33.09,0-1.79,0-3.59,0-5.39,0-1.13,0-2.26,0-3.39,0-.36,0-.71.15-.77.15-.05,0-.1,0-.15,0-.1,0-.21,0-.31,0-.07,0-.3-.12-.46-.15.03-.57-1.09-.56-1.54-.6-.35-.04-.73.04-1.08,0-.06-.68-.73-.54-1.23-.6-.19-.02-.43.03-.62,0-.03-.46-.26-.49-.62-.6-.3-.1-.46.16-.77-.3-.03-.05.04-.25,0-.3-.05-.05-.23.02-.3,0-.14-.05-.2-.09-.31-.15-.02-.56-.71-.28-.76-.98l-.31.08c-.08-.09-.47.06-.46-.45,0-.22.36-.46-.46-.45-.01-.1,0-.2,0-.3-.07-.71-.46-.63-.58-1.01-.17-.52.08-1.71-.8-1.85,0-.15,0-.3,0-.45.03-.66,0-1.11,0-1.73v-38.24c0-.3,0-.7,0-.98,0-.15,0-.3,0-.45.62-.05.67-.9.77-1.36.04-.16-.03-.32.15-.45.22-.16.25.14.46-.45.03-.08-.03-.23,0-.3.65.15.51-.43.66-.56.2-.17.67-.49.9-.7.17-.15.47-.15.44-.55.35-.22.5-.3.92-.45.54-.19.79-.4,1.2-.56.51-.21,1.36-.04,1.42-.79.17-.02.43-.01.62,0,.02,0,.12.24.28.13.07-.07,0-.27.03-.28.02-.02.51-.01.62,0,.07,0,.18.18.51.15.38-.03,1.24-.26,1.03-.75.36,0,.72,0,1.08,0h.46c.59.08,1.32-.25,1.85-.3.36-.03.87-.03,1.23,0,.27.02.65.13,1.08.15,1.55.08,2.96.02,4.46,0,.26,0,.51,0,.77,0,.32,0,1.09.43,1.54,0,.19.03.42-.02.62,0,.16.02.41.13.77.15,2.82.17,6.06.11,8.93.15,7.17.09,14.37.01,21.55,0,.21,0,.41,0,.62,0,.36,0,.72,0,1.08,0,.26,0,.51,0,.77,0,4.04-.01,8.12.1,12.16,0,1.03-.03.6-.09.92-.3.05-.03.47,0,.62,0,.79-.03,1.67-.03,2.46,0,2,.07,4.11.27,6.16.3,3.59.06,7.16,0,10.77,0,2.67,0,5.34,0,8,0,.21,0,.41,0,.62,0,.43.31,1.03.31,1.54.3v-.3c.1,0,.2,0,.31,0-.01.58,1.28.76,1.69.45.06.04.28-.04.31,0,.71.79,1.26.54,2.2.94.98.42,3.79,2.74,4.25,3.67.15.3.74,1.43.79,1.56.03.09-.01.31,0,.45.14,1.4.12,3.14.3,4.45.05.38.27.57.33,1.04.16,1.41-.37,2-.48,3.17-.26,2.95.89,5.88.47,8.9-.07.51-.41.81-.47,1.49-.14,1.6.18,3.58.17,5.28,0,1.34-.36,2.99-.17,4.37.05.4.16.63.62.67,0,.05,0,.1,0,.15.01.84.31,1.93.32,2.78,0,.7-.32,1.16-.32,1.66,0,1.21.22,2.53.16,3.84-.01.21-.13.67-.15,1.05-.01.2.01.4,0,.6-.04.55-.18,1.05-.15,1.74.01.29-.16.6.31.52v.75s-.1,0-.15,0c-.16,0-.37-.07-.48.09-.26.36-.21.92-.38,1.25-.17.35-.31.29-.53.91-.02.04.01.1,0,.15-.38-.07-.51.45-.62.75-.03.08.03.22,0,.3-.35-.01-.41.21-.59.4-.61.67-1.36,1.34-1.72,2.16-.39.18-1.05.09-1.08.75-.09-.02-.21.01-.31,0-.04,0-.16-.15-.31-.15-.44,0-1.16.21-1.39.6-.2,0-.41-.01-.62,0-.2.01-.39.02-.58.1l-1.12.8c-.1,0-.21,0-.31,0-1.84-.11-1.93.27-3.48.43-.85.09-1.77-.07-2.6.02-1.84.2-.7,1.34.47,1.49.69.09,3.91.09,4.38-.22.16-.1.13-.22.15-.37.74-.06,1.55.03,2.31,0,.17,0,.39.05.46-.15.25.02.52,0,.77,0,.62-.02.58.01,1.08-.3.11-.07.43.16.31-.45.26,0,.51,0,.77,0l.02.28.21.02c.21-.23.63-.24.55-.6.21-.04.41-.13.62-.15.02,0,.13.15.25.15.41-.02.82-.15.83-.6.03,0,.13-.13.31-.15.02,0,.14.24.45.09.29-.14.39-.57.51-.65.23-.14.76.08.73-.49.04-.02.11.02.15,0,.98-.38,1.26-.99,1.85-1.66.05-.05.1-.1.15-.15.03-.02.28.04.39-.15.46-.77.21-.31.61-.75.17-.18.12-.58.24-.79.15-.28.63-.24.61-.93,0-.12-.15-.22-.15-.24,0-.1,0-.2,0-.3.53.03.47-.42.62-.6.01-.02.2.04.27-.04.73-.85.48-2.85.66-3.8.06-.32.39-.5.54-.83.6-1.39.32-3.54.38-5.05.31-7.85.32-15.83.31-23.71,0-1.6.02-3.22,0-4.82Z"/>
  <text class="cls-2" transform="translate(738.73 63.97)"><tspan class="cls-14" x="0" y="0">Step </tspan><tspan class="cls-10" x="28.56" y="0">3</tspan><tspan class="cls-13" x="36.37" y="0">:</tspan><tspan class="cls-50" x="-31.9" y="15.6">R</tspan><tspan class="cls-20" x="-23.44" y="15.6">e</tspan><tspan class="cls-43" x="-16.79" y="15.6">c</tspan><tspan class="cls-25" x="-10.02" y="15.6">o</tspan><tspan class="cls-46" x="-2.92" y="15.6">m</tspan><tspan class="cls-51" x="8.6" y="15.6">m</tspan><tspan class="cls-30" x="19.82" y="15.6">e</tspan><tspan class="cls-28" x="26.34" y="15.6">n</tspan><tspan class="cls-8" x="33.58" y="15.6">d</tspan><tspan class="cls-14" x="41.03" y="15.6">a</tspan><tspan class="cls-53" x="47.89" y="15.6">t</tspan><tspan class="cls-54" x="53.61" y="15.6">i</tspan><tspan class="cls-25" x="57.11" y="15.6">o</tspan><tspan class="cls-14" x="64.21" y="15.6">n</tspan></text>
  <g>
    <rect class="cls-15" x="874.9" y="38.49" width="111.86" height="59.03" rx="12" ry="12"/>
    <text class="cls-1" transform="translate(893.09 73.01)"><tspan class="cls-21" x="0" y="0">R</tspan><tspan class="cls-48" x="11.61" y="0">e</tspan><tspan x="20.72" y="0">s</tspan><tspan class="cls-32" x="28.35" y="0">p</tspan><tspan class="cls-41" x="39.05" y="0">o</tspan><tspan class="cls-36" x="48.86" y="0">n</tspan><tspan class="cls-42" x="58.91" y="0">s</tspan><tspan x="67.1" y="0">e</tspan></text>
  </g>
</svg>