<svg id="Layer_1" data-name="Layer 1" xmlns="http://www.w3.org/2000/svg" viewBox="0 0 600 100"><defs><style>.cls-1{fill:#4695eb;}.cls-2{fill:#fff;}.cls-3,.cls-4{fill:#ff004a;}.cls-4{fill-rule:evenodd;}</style></defs><path class="cls-1" d="M159.13,76.77,120.26,55.15V48.09l38.87-24.48V35.45L132.36,51.1,159.13,65Z"/><path class="cls-1" d="M185.63,65,212.41,51.1,185.63,35.45V23.61L224.5,48.09v7.06L185.63,76.77Z"/><path class="cls-1" d="M49.51,19.56l-8-7.58a2.91,2.91,0,1,0-4,4.21l2.66,2.52a31.35,31.35,0,0,0-5.6,61.74l8,7.57a2.9,2.9,0,0,0,4-4.21L43.91,81.3a31.34,31.34,0,0,0,5.6-61.74ZM67.11,55A25.57,25.57,0,0,1,42.18,75.55l4.07-4.28a2.9,2.9,0,0,0-4.21-4l-6.94,7.3a25.54,25.54,0,0,1,6.81-50.11l-4,4.27a2.9,2.9,0,0,0,4.2,4L49,25.43A25.56,25.56,0,0,1,67.11,55Z"/><path class="cls-2" d="M23.38,74.49H64.15a1.11,1.11,0,0,0,1.11-1.1V28.79a1.11,1.11,0,0,0-1.11-1.1H20a1.11,1.11,0,0,0-1.11,1.1h0v44.6A1.11,1.11,0,0,0,20,74.49Zm-2.29-2.21V29.9h42V72.28Z"/><path class="cls-1" d="M29.78,44.59a1.1,1.1,0,0,0,1.56,0v0l4.42-4.42a1.11,1.11,0,0,0-1.56-1.57h0l-3.65,3.65-1.43-1.43a1.1,1.1,0,1,0-1.63,1.49.23.23,0,0,0,.07.07Z"/><path class="cls-2" d="M31.68,49.33a8.3,8.3,0,1,0-8.3-8.3v0A8.29,8.29,0,0,0,31.68,49.33Zm0-14.38A6.09,6.09,0,1,1,25.6,41h0A6.08,6.08,0,0,1,31.68,35Z"/><path class="cls-1" d="M29.78,64.68a1.12,1.12,0,0,0,1.57,0l4.42-4.43a1.1,1.1,0,0,0-.18-1.55,1.11,1.11,0,0,0-1.37,0l-3.64,3.65-1.44-1.43a1.1,1.1,0,0,0-1.56,1.56h0Z"/><path class="cls-2" d="M31.68,69.43a8.3,8.3,0,1,0-8.3-8.3h0A8.32,8.32,0,0,0,31.68,69.43Zm0-14.39a6.1,6.1,0,1,1-6.08,6.1h0A6.09,6.09,0,0,1,31.68,55Z"/><path class="cls-2" d="M44.6,37.66H59a1.11,1.11,0,1,0,0-2.21H44.6a1.11,1.11,0,1,0,0,2.21Z"/><path class="cls-2" d="M44.6,42.7H59a1.11,1.11,0,1,0,0-2.21H44.6a1.11,1.11,0,1,0,0,2.21Z"/><path class="cls-2" d="M44.6,47.75H59a1.11,1.11,0,0,0,0-2.21H44.6a1.11,1.11,0,0,0,0,2.21Z"/><path class="cls-2" d="M44.6,57.75H59a1.11,1.11,0,0,0,0-2.22H44.6a1.11,1.11,0,0,0,0,2.22Z"/><path class="cls-2" d="M44.6,62.79H59a1.11,1.11,0,1,0,0-2.21H44.6a1.11,1.11,0,0,0,0,2.21Z"/><path class="cls-2" d="M44.6,67.83H59a1.1,1.1,0,0,0,1.11-1.1A1.11,1.11,0,0,0,59,65.62H44.6a1.11,1.11,0,0,0,0,2.21Z"/><rect class="cls-2" x="175.4" y="51.19" width="2.01" height="6.03"/><rect class="cls-2" x="167.36" y="55.21" width="2.01" height="2.01"/><path class="cls-2" d="M204.14,57a8.09,8.09,0,0,0-10.68,2.4l-8.38-4.19V45.13l12.8-6.4a5.68,5.68,0,0,0,3,2,5.53,5.53,0,0,0,1.5.2,5.77,5.77,0,1,0-2.89-10.77,5.7,5.7,0,0,0-2.67,6.48l-11.77,5.89V35.18H173.54V30.47a8.09,8.09,0,1,0-2.31,0v4.71H159.68v7.37l-11.76-5.89A5.76,5.76,0,1,0,142.35,41a5.47,5.47,0,0,0,1.5-.2,5.61,5.61,0,0,0,3-2l12.8,6.4V55.25l-8.38,4.18A8.09,8.09,0,0,0,140.63,57a8.09,8.09,0,0,0,4.05,15.09,8,8,0,0,0,4-1.09,8.1,8.1,0,0,0,3.63-9.54l7.34-3.67V65.2h11.55v9.35a5.78,5.78,0,1,0,2.31,0V65.2h11.54V57.83l7.34,3.67A8.1,8.1,0,0,0,196.05,71a8,8,0,0,0,4,1.09A8.09,8.09,0,0,0,204.14,57Zm-58.32,9a2.31,2.31,0,1,1,.85-3.15A2.31,2.31,0,0,1,145.82,66Zm24.25-43.56a2.31,2.31,0,1,1,2.31,2.31A2.31,2.31,0,0,1,170.07,22.48ZM164.3,39.8h2.31v2.31H164.3Zm16.16,20.78H164.3V53.65h4.62V51.34h4.62V49h6.92Zm0-13.85H164.3V44.42h16.16Zm0-4.62H168.92V39.8h11.54ZM202.1,65.2a2.31,2.31,0,1,1-.85-3.16A2.32,2.32,0,0,1,202.1,65.2Z"/><rect class="cls-2" x="171.38" y="53.2" width="2.01" height="4.02"/><path class="cls-2" d="M317.19,29.82a5.14,5.14,0,0,0,7.27-7.27,5.14,5.14,0,0,0-7.27,7.27Z"/><path class="cls-1" d="M320.83,23.3a2.88,2.88,0,0,1,2,4.92,2.88,2.88,0,1,1-2-4.92Z"/><path class="cls-2" d="M324.94,30h0a1.08,1.08,0,0,0-.79.34,1.1,1.1,0,0,0-.32.8,1.07,1.07,0,0,0,.2.63,32.6,32.6,0,0,1,4.89,11.64,1.14,1.14,0,0,0,1.11.91l.22,0a1.13,1.13,0,0,0,.89-1.34,34.77,34.77,0,0,0-5.24-12.45A1.12,1.12,0,0,0,324.94,30Z"/><path class="cls-2" d="M293.69,60.82a13.86,13.86,0,0,0,2.83,1.88,1.15,1.15,0,0,0,.48.1,1.1,1.1,0,0,0,.47-.1,13.29,13.29,0,0,0,2.83-1.88,7.67,7.67,0,0,0,2.95-5.73,4,4,0,0,0-3.89-4A3.54,3.54,0,0,0,297,52a3.58,3.58,0,0,0-2.37-1h0a4,4,0,0,0-3.88,4A7.69,7.69,0,0,0,293.69,60.82Z"/><path class="cls-3" d="M297.56,54.59a1.16,1.16,0,0,0,.42-.43,1.58,1.58,0,0,1,1.38-.84A1.69,1.69,0,0,1,301,55.09a5.39,5.39,0,0,1-2.18,4A7.71,7.71,0,0,1,297,60.35a7.91,7.91,0,0,1-1.82-1.24,5.41,5.41,0,0,1-2.17-4,1.68,1.68,0,0,1,1.62-1.77h0a1.57,1.57,0,0,1,1.38.84A1.15,1.15,0,0,0,297.56,54.59Z"/><path class="cls-2" d="M303.57,18.11A32.55,32.55,0,0,1,315.2,23a1.13,1.13,0,1,0,1.3-1.85h0A34.87,34.87,0,0,0,304,15.9a.91.91,0,0,0-.23,0h-.34v.06a1.13,1.13,0,0,0-.81,1.07A1.12,1.12,0,0,0,303.57,18.11Z"/><path class="cls-2" d="M287.61,65.32a27.08,27.08,0,0,0,18.78,0,1.12,1.12,0,0,0,.7-1v-3.9a19.87,19.87,0,0,0,2.74.2,19.58,19.58,0,0,0,6.86-1.24,1.14,1.14,0,0,0,.69-1.05v-7a7.64,7.64,0,0,0-4-6.73,5.35,5.35,0,0,0,1.73-3.92,5.26,5.26,0,1,0-10.52,0,5.35,5.35,0,0,0,1.73,3.92A7.59,7.59,0,0,0,303.6,47a10,10,0,0,0-2.47-1.57,6.89,6.89,0,1,0-8.26,0A9.85,9.85,0,0,0,290.4,47a7.5,7.5,0,0,0-2.7-2.43,5.35,5.35,0,0,0,1.73-3.92,5.26,5.26,0,1,0-10.52,0,5.35,5.35,0,0,0,1.73,3.92,7.65,7.65,0,0,0-4,6.73v7a1.16,1.16,0,0,0,.7,1.05,19.52,19.52,0,0,0,6.86,1.24,19.87,19.87,0,0,0,2.74-.2v3.9A1.11,1.11,0,0,0,287.61,65.32ZM284.17,45.9a5.22,5.22,0,0,1,4.61,2.81,10,10,0,0,0-1.87,5.86V58a14.51,14.51,0,0,1-2.74.28,16.48,16.48,0,0,1-5.29-.84V51.25A5.26,5.26,0,0,1,284.17,45.9Zm0-2.26a3,3,0,1,1,3-3A3,3,0,0,1,284.17,43.64ZM291,49.55l.08-.11A7.84,7.84,0,0,1,297,46.75h0A7.83,7.83,0,0,1,303,49.47l.06.08a7.82,7.82,0,0,1,1.53,2.89.45.45,0,0,0,0,.08l.06.23.1.49a.51.51,0,0,0,0,.13l.05.45a1.64,1.64,0,0,1,0,.22v.14c0,.13,0,.26,0,.39v8.89a24.59,24.59,0,0,1-15.66,0V54.57A7.67,7.67,0,0,1,291,49.55Zm1.37-9.67A4.63,4.63,0,1,1,297,44.49,4.62,4.62,0,0,1,292.37,39.88Zm17.46,6h0a5.26,5.26,0,0,1,5.29,5.35v6.23a16.48,16.48,0,0,1-5.29.84,14.42,14.42,0,0,1-2.74-.28V54.57c0-.1,0-.2,0-.3v-.14a10,10,0,0,0-1.86-5.41A5.2,5.2,0,0,1,309.83,45.9Zm0-2.26a3,3,0,1,1,3-3A3,3,0,0,1,309.83,43.64Z"/><path class="cls-2" d="M290.49,81.9h-.05A32.55,32.55,0,0,1,278.8,77a1.13,1.13,0,0,0-.64-.2h0a1.16,1.16,0,0,0-.8.32,1.1,1.1,0,0,0-.34.8,1.12,1.12,0,0,0,.51,1A34.87,34.87,0,0,0,290,84.1l.26,0a1.12,1.12,0,0,0,1.1-.87,1.13,1.13,0,0,0-.14-.86A1.15,1.15,0,0,0,290.49,81.9Z"/><path class="cls-2" d="M297,21.46a5.14,5.14,0,1,0-5.14-5.14A5.15,5.15,0,0,0,297,21.46Z"/><path class="cls-3" d="M294.12,16.32A2.88,2.88,0,1,1,297,19.2,2.88,2.88,0,0,1,294.12,16.32Z"/><path class="cls-2" d="M320.83,68.68a5.14,5.14,0,1,0,3.63,1.5A5.1,5.1,0,0,0,320.83,68.68Z"/><path class="cls-1" d="M323.72,73.81a2.89,2.89,0,0,1-4.93,2,2.88,2.88,0,1,1,4.93-2Z"/><path class="cls-2" d="M315.81,76.79a1.13,1.13,0,0,0-.6.2,32.55,32.55,0,0,1-11.63,4.9,1.09,1.09,0,0,0-.73.46,1.12,1.12,0,0,0-.19.85,1.13,1.13,0,0,0,1.11.93l.2,0h0a34.93,34.93,0,0,0,12.45-5.23,1.14,1.14,0,0,0,.49-.72,1.14,1.14,0,0,0-1.15-1.36Z"/><path class="cls-2" d="M330.26,55.67a1.14,1.14,0,0,0-.26,0,1.11,1.11,0,0,0-1.09.91A32.75,32.75,0,0,1,324,68.19a1.14,1.14,0,0,0,.27,1.58,1.13,1.13,0,0,0,.65.2,1.11,1.11,0,0,0,.93-.48l0,0A34.8,34.8,0,0,0,331.12,57a1.14,1.14,0,0,0-.15-.85A1.16,1.16,0,0,0,330.26,55.67Z"/><path class="cls-2" d="M330.7,44.86A5.14,5.14,0,1,0,335.84,50,5.15,5.15,0,0,0,330.7,44.86Z"/><path class="cls-3" d="M333.58,50a2.88,2.88,0,1,1-2.88-2.88A2.89,2.89,0,0,1,333.58,50Z"/><path class="cls-2" d="M297,78.54a5.14,5.14,0,1,0,5.14,5.14A5.15,5.15,0,0,0,297,78.54Z"/><path class="cls-3" d="M299.88,83.68A2.88,2.88,0,1,1,297,80.8,2.88,2.88,0,0,1,299.88,83.68Z"/><path class="cls-2" d="M276.81,70.18a5.15,5.15,0,1,0,1.5,3.63A5.1,5.1,0,0,0,276.81,70.18Z"/><path class="cls-1" d="M276.06,73.81a2.9,2.9,0,1,1-.85-2A2.86,2.86,0,0,1,276.06,73.81Z"/><path class="cls-2" d="M273.17,31.32a5.12,5.12,0,1,0-3.63-1.5A5.13,5.13,0,0,0,273.17,31.32Z"/><path class="cls-1" d="M273.17,23.3a2.9,2.9,0,1,1-2,.85A2.86,2.86,0,0,1,273.17,23.3Z"/><path class="cls-2" d="M278.15,23.21a1.14,1.14,0,0,0,.61-.18l0,0a32.5,32.5,0,0,1,11.64-4.89,1.14,1.14,0,0,0,.9-1.33,1.15,1.15,0,0,0-.82-.88v-.06l-.35,0-.18,0a34.84,34.84,0,0,0-12.45,5.24,1.1,1.1,0,0,0-.49.71,1.11,1.11,0,0,0,.16.85A1.13,1.13,0,0,0,278.15,23.21Z"/><path class="cls-2" d="M263.78,44.31a.75.75,0,0,0,.21,0,1.14,1.14,0,0,0,1.11-.89A32.48,32.48,0,0,1,270,31.81a1.16,1.16,0,0,0,.19-.85,1.13,1.13,0,0,0-.47-.73A1.22,1.22,0,0,0,269,30a1.13,1.13,0,0,0-.92.51A34.77,34.77,0,0,0,262.88,43a1.11,1.11,0,0,0,.9,1.32Z"/><path class="cls-2" d="M269.06,70a1.11,1.11,0,0,0,.63-.19A1.13,1.13,0,0,0,270,68.2a32.55,32.55,0,0,1-4.9-11.63,1.13,1.13,0,0,0-1.11-.92h0a1.13,1.13,0,0,0-1.11,1.14,1.38,1.38,0,0,0,0,.22,34.77,34.77,0,0,0,5.24,12.45A1.12,1.12,0,0,0,269.06,70Z"/><circle class="cls-2" cx="263.3" cy="50" r="5.14"/><path class="cls-3" d="M260.42,50a2.88,2.88,0,1,1,2.88,2.88A2.88,2.88,0,0,1,260.42,50Z"/><path class="cls-2" d="M456.4,62.24V60.17h2.79A19.61,19.61,0,0,0,440.63,41v3.36h-2.07V41a19.62,19.62,0,0,0-18.45,17.4h3.29v2.07H420s0,.06,0,.09a19.63,19.63,0,0,0,18.58,19.56V77.28h2.07v2.86a19.62,19.62,0,0,0,18.49-17.91H456.4ZM449.6,52l-7.15,7.07a3.3,3.3,0,0,1,.38,1.5,3.24,3.24,0,1,1-3.24-3.24,3.32,3.32,0,0,1,1.41.33l7.17-7.09A1,1,0,0,1,449.6,52Z"/><path class="cls-4" d="M413.26,60.58a26,26,0,0,1,4.24-14.31l-.43-.43a2.76,2.76,0,0,1-.82-2,5.59,5.59,0,0,1,2-3.69,5.59,5.59,0,0,1,3.68-2,2.8,2.8,0,0,1,2,.81l.26.26a26.18,26.18,0,0,1,7.45-3.78,5.91,5.91,0,0,1-.52-2.48c0-2.76,1.68-4.83,3.91-4.83h9.19c2.22,0,3.9,2.07,3.9,4.83a6,6,0,0,1-.52,2.49,26.67,26.67,0,0,1,6.08,2.83l.42-.42a2.81,2.81,0,0,1,2-.82,3.93,3.93,0,0,1,2,.64c-6.56-12.75-23.32-18.52-40-13.81,12.5,13,1,15-3.87,6.08-6.76-12.85-22-15.2-36.58-11.25C388.28,23.19,397.21,31,400,43.2c.88,6.89-4.24,5.55-8.12,0,1,25.21,18.59,37.41,33.76,39.68A26.34,26.34,0,0,1,413.26,60.58Z"/><path class="cls-1" d="M457.27,44.73l1.82-1.82c.23-.24-.29-1.14-1.17-2s-1.79-1.41-2-1.17l-1.95,2a23.64,23.64,0,0,0-12.1-4.74V35.26h2.34c.73,0,1.33-1,1.33-2.26s-.6-2.26-1.33-2.26H435c-.73,0-1.33,1-1.33,2.26s.6,2.26,1.33,2.26h2.33v1.67A23.7,23.7,0,0,0,424,42.71l-1.89-1.89c-.24-.23-1.14.29-2,1.17s-1.4,1.79-1.16,2l2,2a23.75,23.75,0,1,0,36.41-1.27ZM440.63,80.14V77.28h-2.07v2.86A19.63,19.63,0,0,1,420,60.58v-.09h3.42V58.42h-3.3A19.63,19.63,0,0,1,438.56,41v3.36h2.07V41a19.61,19.61,0,0,1,18.56,19.15H456.4v2.07h2.72A19.62,19.62,0,0,1,440.63,80.14Z"/><path class="cls-1" d="M448.17,50.58,441,57.67a3.32,3.32,0,0,0-1.41-.33,3.24,3.24,0,1,0,3.24,3.24,3.3,3.3,0,0,0-.38-1.5L449.6,52A1,1,0,0,0,448.17,50.58Z"/><path class="cls-3" d="M446.26,49.33a1.07,1.07,0,0,1-.49-.12,13,13,0,0,0-1.46-.69,1,1,0,1,1,.75-1.88,14.35,14.35,0,0,1,1.69.79,1,1,0,0,1-.49,1.9Z"/><path class="cls-3" d="M425.88,59.62h-.13a1,1,0,0,1-.87-1.14,15.27,15.27,0,0,1,.82-3.26,1,1,0,0,1,1.9.72,13,13,0,0,0-.71,2.81A1,1,0,0,1,425.88,59.62Zm2.2-5.82a1,1,0,0,1-.56-.17,1,1,0,0,1-.28-1.4,14.43,14.43,0,0,1,2.16-2.57,1,1,0,0,1,1.39,1.47,12.38,12.38,0,0,0-1.86,2.22A1,1,0,0,1,428.08,53.8Zm4.52-4.27a1,1,0,0,1-.87-.5,1,1,0,0,1,.36-1.39,15.34,15.34,0,0,1,3.07-1.36,1,1,0,0,1,.61,1.94,12.88,12.88,0,0,0-2.66,1.17A.94.94,0,0,1,432.6,49.53Zm9.06-1.75h-.15a12.22,12.22,0,0,0-2.9-.1,1,1,0,0,1-1.09-.93,1,1,0,0,1,.93-1.09,15.08,15.08,0,0,1,3.36.11,1,1,0,0,1-.15,2Z"/><path class="cls-3" d="M426.09,64.47a1,1,0,0,1-1-.79,14.1,14.1,0,0,1-.29-1.84,1,1,0,0,1,2-.19,12.23,12.23,0,0,0,.25,1.59,1,1,0,0,1-.77,1.21A.86.86,0,0,1,426.09,64.47Z"/><path class="cls-3" d="M442.35,53.16a.93.93,0,0,1-.32,0,7.78,7.78,0,0,0-1.5-.35,1,1,0,0,1,.26-2,9.6,9.6,0,0,1,1.89.44,1,1,0,0,1-.33,2Z"/><path class="cls-3" d="M434.19,54.52a1,1,0,0,1-.81-.4,1,1,0,0,1,.19-1.42A9.91,9.91,0,0,1,437,51a1,1,0,0,1,1.25.72,1,1,0,0,1-.72,1.24,7.9,7.9,0,0,0-2.71,1.34A1,1,0,0,1,434.19,54.52Z"/><path class="cls-3" d="M431.22,58.68a1,1,0,0,1-.33-.06,1,1,0,0,1-.63-1.28,9.37,9.37,0,0,1,.79-1.77,1,1,0,1,1,1.76,1,7.68,7.68,0,0,0-.63,1.4A1,1,0,0,1,431.22,58.68Z"/><path id="path3055" class="cls-1" d="M551.81,32.3a2.43,2.43,0,0,0-.88.22l-12,5.74a2.28,2.28,0,0,0-1.24,1.55l-3,12.9a2.3,2.3,0,0,0,.32,1.75l.13.18L543.46,65a2.33,2.33,0,0,0,1.8.86H558.6a2.29,2.29,0,0,0,1.8-.85l8.31-10.34a2.29,2.29,0,0,0,.45-1.93l-3-12.9a2.3,2.3,0,0,0-1.25-1.55l-12-5.74A2.35,2.35,0,0,0,551.81,32.3Z"/><path id="path3059" class="cls-2" d="M551.93,36.69a.76.76,0,0,0-.72.8v.2a5,5,0,0,0,.1.69,6.79,6.79,0,0,1,.08,1.3.73.73,0,0,1-.24.37v.31a8.35,8.35,0,0,0-1.3.2,9.18,9.18,0,0,0-4.7,2.68l-.26-.18a.55.55,0,0,1-.43,0,7.42,7.42,0,0,1-1-.88,5.47,5.47,0,0,0-.47-.5l-.16-.13a.89.89,0,0,0-.5-.19.69.69,0,0,0-.58.26.77.77,0,0,0,.18,1.06h0l.15.12a5.2,5.2,0,0,0,.6.35,7.86,7.86,0,0,1,1.07.75.77.77,0,0,1,.14.42l.23.2A9.39,9.39,0,0,0,542.68,51l-.3.09c-.08.1-.19.27-.31.31a6.88,6.88,0,0,1-1.29.22,5.6,5.6,0,0,0-.69,0l-.19,0h0a.72.72,0,1,0,.32,1.4h0l.18-.05a5.49,5.49,0,0,0,.65-.24,6.51,6.51,0,0,1,1.25-.37,1,1,0,0,1,.42.14l.31,0a9.31,9.31,0,0,0,4.15,5.18l-.13.31a.66.66,0,0,1,.06.41,7.48,7.48,0,0,1-.65,1.17,5.65,5.65,0,0,0-.38.57l-.1.2a.72.72,0,1,0,1.3.61h0a1.51,1.51,0,0,0,.09-.18,5.6,5.6,0,0,0,.21-.66,5,5,0,0,1,.56-1.29.54.54,0,0,1,.31-.15l.16-.3a9.32,9.32,0,0,0,5.4.39,9.89,9.89,0,0,0,1.24-.37l.15.27a.58.58,0,0,1,.37.23,6.07,6.07,0,0,1,.49,1.21c.07.22.11.42.21.66l.09.18a.77.77,0,0,0,1,.41.76.76,0,0,0,.3-1l-.09-.2c-.12-.22-.26-.37-.39-.57a7.18,7.18,0,0,1-.64-1.14.59.59,0,0,1,.06-.43,1.41,1.41,0,0,1-.12-.29,9.36,9.36,0,0,0,4.15-5.21l.3.05a.61.61,0,0,1,.41-.15,7.32,7.32,0,0,1,1.25.37c.22.08.4.18.65.25l.18,0h0a.75.75,0,0,0,.92-.52.77.77,0,0,0-.6-.88l-.21-.05c-.25,0-.46,0-.69,0a7,7,0,0,1-1.29-.21.78.78,0,0,1-.31-.32l-.29-.08A9.33,9.33,0,0,0,561,47.6a9.45,9.45,0,0,0-1.35-3.11l.25-.23a.54.54,0,0,1,.14-.41,6,6,0,0,1,1.07-.75c.2-.12.39-.2.6-.35l.15-.13A.72.72,0,1,0,561,41.5l-.16.12c-.19.17-.31.33-.48.51a5.75,5.75,0,0,1-1,.87.68.68,0,0,1-.43,0l-.28.2a9.44,9.44,0,0,0-6-2.89c0-.09,0-.27,0-.32a.54.54,0,0,1-.24-.36,6.79,6.79,0,0,1,.08-1.3,5,5,0,0,0,.1-.69v-.2a.76.76,0,0,0-.72-.8Zm-.9,5.58L550.82,46h0a.63.63,0,0,1-.63.61.71.71,0,0,1-.38-.12h0l-3.1-2.2a7.47,7.47,0,0,1,3.57-1.94A6.88,6.88,0,0,1,551,42.27Zm1.8,0a7.43,7.43,0,0,1,4.31,2.08l-3.07,2.18h0a.63.63,0,0,1-.87-.12.54.54,0,0,1-.14-.36h0Zm-7.26,3.48,2.83,2.53v0a.62.62,0,0,1,.08.87.63.63,0,0,1-.33.22h0l-3.62,1A7.44,7.44,0,0,1,545.57,45.75Zm12.7,0a7.61,7.61,0,0,1,1.08,4.67l-3.64-1h0a.63.63,0,0,1-.45-.76.59.59,0,0,1,.2-.33h0l2.81-2.51Zm-6.92,2.72h1.16l.72.9L553,50.5l-1,.5-1-.5-.26-1.13Zm3.71,3.07h.15l3.75.63A7.47,7.47,0,0,1,556,56l-1.45-3.52h0a.63.63,0,0,1,.31-.82.73.73,0,0,1,.24-.07Zm-6.29,0a.63.63,0,0,1,.61.49.64.64,0,0,1,0,.39v0l-1.44,3.47a7.41,7.41,0,0,1-3-3.74l3.71-.63h.13Zm3.14,1.52a.72.72,0,0,1,.29.06.66.66,0,0,1,.29.28h0l1.83,3.3c-.24.08-.48.15-.73.21a7.42,7.42,0,0,1-4.06-.21l1.83-3.3h0A.64.64,0,0,1,551.91,53.09Z"/><path class="cls-2" d="M561.83,68.73c5.75-7,15.54-9.09,24.18-7.73l1.81.28-1.11,1.46c-5.5,7.27-15.65,9.52-24.25,7.76l-1.77-.36,1.14-1.41Z"/><path class="cls-2" d="M564.07,17c6.06,4.87,9.68,12.94,8.18,20.71l-.33,1.7-1.39-1c-6.22-4.59-10.41-13.12-8.19-20.83l.45-1.58,1.28,1Z"/><path class="cls-2" d="M589,42c-1.19,8.45-7.26,17-15.92,18.93l-1.6.35.29-1.61c1.54-8.48,7.45-16.23,15.82-18.87l1.65-.52L589,42Z"/><path class="cls-2" d="M580,23.43a22.89,22.89,0,0,1-2.71,22.76l-1.17,1.5-.71-1.76c-3-7.42-2.27-16.34,2.72-22.74l1.14-1.45.73,1.69Z"/><path class="cls-2" d="M525.71,23.19c5,6.4,5.75,15.32,2.72,22.74l-.71,1.76-1.16-1.5a22.87,22.87,0,0,1-2.72-22.76l.73-1.69,1.14,1.45Z"/><path class="cls-2" d="M541.4,70.5c-8.6,1.76-18.75-.49-24.25-7.76L516,61.28l1.81-.28c8.64-1.36,18.42.7,24.18,7.73l1.14,1.4-1.77.37Z"/><path class="cls-2" d="M541.52,17.55c2.22,7.71-2,16.24-8.18,20.83l-1.4,1-.33-1.7c-1.5-7.77,2.12-15.84,8.18-20.71l1.28-1,.45,1.58Z"/><path class="cls-2" d="M516.23,40.8c8.37,2.64,14.28,10.39,15.82,18.87l.29,1.61-1.6-.35C522.08,59,516,50.45,514.82,42l-.24-1.72,1.65.52Z"/><path class="cls-2" d="M558,76.58a27.51,27.51,0,0,0,4.56,4.08l1.16.78-1,.94c-.43.38-.86.77-1.28,1.17l-.52.48-.66-.28c-4-1.74-5.16-6.06-8.29-8.1-3.13,2-4.27,6.36-8.29,8.1L543,84l-.52-.48c-.42-.4-.85-.79-1.28-1.17l-1-.94,1.16-.78a27.51,27.51,0,0,0,4.56-4.08,23.69,23.69,0,0,1-6,2.47c-3.92.66-8.12.89-11.85-.74l-1.8-.78,1.62-1.12c3.69-2.54,7.64-4.91,12.23-5.28a39.12,39.12,0,0,1,10.8.71h0l0,0a3.35,3.35,0,0,0,2,0l0,0h0a39.21,39.21,0,0,1,10.82-.71c4.57.37,8.53,2.74,12.21,5.28l1.62,1.12-1.8.78c-3.73,1.63-7.93,1.4-11.86.74a24.14,24.14,0,0,1-6-2.47Z"/></svg>