<?xml version="1.0" encoding="utf-8"?>
<!-- Generator: Adobe Illustrator 25.3.1, SVG Export Plug-In . SVG Version: 6.00 Build 0)  -->
<svg version="1.1" id="Layer_1" xmlns="http://www.w3.org/2000/svg" xmlns:xlink="http://www.w3.org/1999/xlink" x="0px" y="0px"
	 viewBox="0 0 600 100" style="enable-background:new 0 0 600 100;" xml:space="preserve">
<style type="text/css">
	.st0{fill:#4695EB;}
	.st1{fill:#FFFFFF;}
	.st2{fill:#FF004A;}
	.st3{fill-rule:evenodd;clip-rule:evenodd;fill:#FF004A;}
</style>
<g>
	<g>
		<path class="st0" d="M164.7,76.6L125.8,55v-7.1l38.9-24.5v11.8L137.9,51l26.8,13.9V76.6z"/>
		<path class="st0" d="M191.2,64.8L218,51l-26.8-15.6V23.5l38.9,24.5V55l-38.9,21.6V64.8z"/>
	</g>
	<g>
		<rect x="181" y="51" class="st1" width="2" height="6"/>
		<rect x="172.9" y="55.1" class="st1" width="2" height="2"/>
		<path class="st1" d="M209.7,56.9c-1.9-1.1-4-1.4-6.1-0.8c-1.9,0.5-3.5,1.6-4.5,3.2l-8.4-4.2V45l12.8-6.4c0.8,1,1.8,1.7,3,2
			c0.5,0.1,1,0.2,1.5,0.2c1,0,2-0.3,2.9-0.8c1.3-0.8,2.3-2,2.7-3.5s0.2-3-0.6-4.4s-2-2.3-3.5-2.7c-1.5-0.4-3-0.2-4.4,0.6
			c-1.3,0.8-2.3,2-2.7,3.5c-0.3,1-0.2,2,0,3l-11.8,5.9V35h-11.5v-4.7c3.9-0.6,6.9-3.9,6.9-8c0-4.5-3.6-8.1-8.1-8.1s-8.1,3.6-8.1,8.1
			c0,4.1,3,7.4,6.9,8V35h-11.5v7.4l-11.8-5.9c0.3-1,0.3-2,0-3c-0.4-1.5-1.4-2.7-2.7-3.5c-1.3-0.8-2.9-1-4.4-0.6
			c-1.5,0.4-2.7,1.4-3.5,2.7s-1,2.9-0.6,4.4c0.4,1.5,1.4,2.7,2.7,3.5c0.9,0.5,1.9,0.8,2.9,0.8c0.5,0,1-0.1,1.5-0.2
			c1.2-0.3,2.3-1,3-2l12.8,6.4v10.1l-8.4,4.2c-1.1-1.6-2.7-2.7-4.5-3.2c-2.1-0.6-4.3-0.3-6.1,0.8c-3.9,2.2-5.2,7.2-3,11
			c1.5,2.6,4.2,4,7,4c1.4,0,2.8-0.3,4-1.1c3.4-1.9,4.8-6,3.6-9.5l7.3-3.7v7.4h11.5v9.4c-2.6,0.5-4.6,2.9-4.6,5.7
			c0,3.2,2.6,5.8,5.8,5.8s5.8-2.6,5.8-5.8c0-2.8-2-5.1-4.6-5.7v-9.4h11.5v-7.4l7.3,3.7c-1.2,3.6,0.3,7.6,3.6,9.5
			c1.3,0.7,2.7,1.1,4,1.1c2.8,0,5.5-1.5,7-4C214.9,64.1,213.6,59.1,209.7,56.9z M151.4,65.9c-1.1,0.6-2.5,0.3-3.2-0.8
			c-0.6-1.1-0.3-2.5,0.8-3.2c1.1-0.6,2.5-0.3,3.2,0.8C152.9,63.8,152.5,65.3,151.4,65.9z M175.6,22.3c0-1.3,1-2.3,2.3-2.3
			s2.3,1,2.3,2.3s-1,2.3-2.3,2.3S175.6,23.6,175.6,22.3z M169.9,39.7h2.3V42h-2.3V39.7z M186,60.4h-16.2v-6.9h4.6v-2.3h4.6v-2.3h6.9
			V60.4z M186,46.6h-16.2v-2.3H186V46.6z M186,42h-11.5v-2.3H186V42z M207.7,65.1c-0.6,1.1-2,1.5-3.2,0.8c-1.1-0.6-1.5-2-0.8-3.2
			c0.6-1.1,2.1-1.5,3.2-0.8C207.9,62.5,208.3,63.9,207.7,65.1z"/>
		<rect x="176.9" y="53.1" class="st1" width="2" height="4"/>
	</g>
</g>
<g>
	<path class="st1" d="M427.8,29.9c1,1,2.3,1.5,3.6,1.5s2.6-0.5,3.6-1.5c1-1,1.5-2.3,1.5-3.6c0-1.4-0.5-2.7-1.5-3.6
		c-1-1-2.3-1.5-3.6-1.5s-2.7,0.5-3.6,1.5c-1,1-1.5,2.3-1.5,3.6C426.3,27.6,426.9,28.9,427.8,29.9z"/>
	<path class="st0" d="M431.5,23.3c0.8,0,1.5,0.3,2,0.8c0.5,0.5,0.8,1.3,0.8,2c0,0.8-0.3,1.5-0.8,2c-1.1,1.1-3,1.1-4.1,0
		c-0.5-0.5-0.8-1.3-0.8-2c0-0.8,0.3-1.5,0.8-2C430,23.6,430.7,23.3,431.5,23.3z"/>
	<path class="st1" d="M435.6,30.1C435.6,30.1,435.6,30.1,435.6,30.1L435.6,30.1c-0.3,0-0.6,0.1-0.8,0.3c-0.2,0.2-0.3,0.5-0.3,0.8
		c0,0.2,0.1,0.4,0.2,0.6c2.4,3.5,4.1,7.5,4.9,11.6c0.1,0.5,0.6,0.9,1.1,0.9c0.1,0,0.1,0,0.2,0c0.3-0.1,0.6-0.2,0.7-0.5
		c0.2-0.3,0.2-0.6,0.2-0.9c-0.9-4.4-2.7-8.7-5.2-12.4C436.3,30.3,436,30.1,435.6,30.1z"/>
	<path class="st1" d="M404.3,60.9c1.4,1.2,2.8,1.9,2.8,1.9c0.2,0.1,0.3,0.1,0.5,0.1c0.2,0,0.3,0,0.5-0.1c0.1,0,1.4-0.7,2.8-1.9
		c1.9-1.7,2.9-3.7,2.9-5.7c0-2.2-1.7-4-3.9-4c-0.8,0-1.6,0.3-2.4,1c-0.7-0.7-1.5-1-2.4-1h0c-2.1,0-3.9,1.8-3.9,4
		C401.4,57.2,402.4,59.2,404.3,60.9z"/>
	<path class="st2" d="M408.2,54.6c0.2-0.1,0.3-0.2,0.4-0.4c0.3-0.5,0.8-0.8,1.4-0.8c0.9,0,1.6,0.8,1.6,1.8c0,1.4-0.7,2.8-2.2,4
		c-0.8,0.7-1.5,1.1-1.8,1.2c-0.3-0.2-1-0.5-1.8-1.2c-1.4-1.3-2.2-2.6-2.2-4c0-1,0.7-1.8,1.6-1.8h0c0.6,0,1.1,0.3,1.4,0.8
		C407,54.7,407.6,54.9,408.2,54.6z"/>
	<polygon class="st1" points="405.3,51.4 405.3,51.4 405.3,51.4 	"/>
	<path class="st1" d="M414.2,18.2c4.1,0.8,8.1,2.5,11.6,4.9c0.2,0.1,0.4,0.2,0.6,0.2c0.4,0,0.7-0.2,0.9-0.5c0.4-0.5,0.2-1.2-0.3-1.6
		l0,0c-3.7-2.5-8-4.3-12.4-5.2c-0.1,0-0.2,0-0.2,0l-0.3,0V16c-0.5,0.1-0.8,0.6-0.8,1.1C413.3,17.6,413.7,18.1,414.2,18.2z"/>
	<path class="st1" d="M398.2,65.4c0.2,0.1,4.2,1.7,9.4,1.7c5.2,0,9.2-1.6,9.4-1.7c0.4-0.2,0.7-0.6,0.7-1v-3.9
		c0.9,0.1,1.8,0.2,2.7,0.2c3.8,0,6.7-1.2,6.9-1.2c0.4-0.2,0.7-0.6,0.7-1v-7c0-2.8-1.6-5.4-4-6.7c1.1-1,1.7-2.4,1.7-3.9
		c0-2.9-2.4-5.3-5.3-5.3c-2.9,0-5.3,2.4-5.3,5.3c0,1.5,0.6,2.9,1.7,3.9c-1.1,0.6-2,1.4-2.7,2.4c-0.7-0.6-1.6-1.2-2.5-1.6
		c1.7-1.3,2.8-3.3,2.8-5.5c0-3.8-3.1-6.9-6.9-6.9c-3.8,0-6.9,3.1-6.9,6.9c0,2.2,1,4.2,2.8,5.5c-0.9,0.4-1.7,0.9-2.5,1.6
		c-0.7-1-1.6-1.9-2.7-2.4c1.1-1,1.7-2.4,1.7-3.9c0-2.9-2.4-5.3-5.3-5.3c-2.9,0-5.3,2.4-5.3,5.3c0,1.5,0.6,2.9,1.7,3.9
		c-2.5,1.3-4,3.9-4,6.7v7c0,0.5,0.3,0.9,0.7,1c0.1,0.1,3,1.2,6.9,1.2c0.9,0,1.8-0.1,2.7-0.2v3.9C397.5,64.8,397.8,65.2,398.2,65.4z
		 M394.8,45.9c1.9,0,3.7,1.1,4.6,2.8c-1.2,1.7-1.9,3.7-1.9,5.9v3.5c-0.9,0.2-1.7,0.3-2.7,0.3c-1.9,0-3.7-0.3-5.3-0.8v-6.2
		C389.5,48.3,391.8,45.9,394.8,45.9z M394.8,43.7c-1.7,0-3-1.4-3-3c0-1.7,1.3-3,3-3c1.7,0,3,1.4,3,3
		C397.8,42.3,396.5,43.7,394.8,43.7z M401.6,49.6c0,0,0.1-0.1,0.1-0.1c1.5-1.7,3.6-2.7,5.9-2.7v0c2.3,0,4.5,1,5.9,2.7
		c0,0,0,0.1,0.1,0.1c0.7,0.9,1.2,1.8,1.5,2.9c0,0,0,0,0,0.1c0,0.1,0,0.2,0.1,0.2l0.1,0.5c0,0,0,0.1,0,0.1l0.1,0.4c0,0.1,0,0.2,0,0.2
		l0,0.1c0,0,0,0,0,0l0,0c0,0.1,0,0.3,0,0.4v8.9c-1.2,0.4-4,1.3-7.8,1.3c-3.8,0-6.6-0.8-7.8-1.3v-4.3c0,0,0-0.1,0-0.1v-4.5
		C399.8,52.7,400.4,51,401.6,49.6z M403,39.9c0-2.5,2.1-4.6,4.6-4.6c2.6,0,4.6,2.1,4.6,4.6c0,2.5-2.1,4.6-4.6,4.6
		C405.1,44.5,403,42.5,403,39.9z M420.5,45.9L420.5,45.9c3,0,5.3,2.4,5.3,5.4v6.2c-1.6,0.5-3.4,0.8-5.3,0.8c-1,0-1.9-0.1-2.7-0.3
		v-3.5c0-0.1,0-0.2,0-0.3l0-0.1c-0.1-2-0.7-3.8-1.9-5.4C416.8,47,418.5,45.9,420.5,45.9z M420.5,43.7c-1.7,0-3-1.4-3-3
		c0-1.7,1.3-3,3-3s3,1.4,3,3C423.5,42.3,422.1,43.7,420.5,43.7z"/>
	<path class="st1" d="M401.1,81.9L401.1,81.9c-4.2-0.9-8.2-2.5-11.7-4.9c-0.2-0.1-0.4-0.2-0.6-0.2h0c-0.3,0-0.6,0.1-0.8,0.3
		c-0.2,0.2-0.3,0.5-0.3,0.8c0,0.4,0.2,0.7,0.5,1c3.7,2.5,8,4.3,12.4,5.2c0.1,0,0.2,0,0.3,0c0.2,0,0.4-0.1,0.6-0.2
		c0.3-0.2,0.4-0.4,0.5-0.7c0.1-0.3,0-0.6-0.1-0.9C401.7,82.2,401.4,82,401.1,81.9z"/>
	<path class="st1" d="M407.6,21.5c2.8,0,5.1-2.3,5.1-5.1c0-2.8-2.3-5.1-5.1-5.1c-2.8,0-5.1,2.3-5.1,5.1
		C402.5,19.2,404.8,21.5,407.6,21.5z"/>
	<path class="st2" d="M404.8,16.4c0-1.6,1.3-2.9,2.9-2.9c1.6,0,2.9,1.3,2.9,2.9c0,1.6-1.3,2.9-2.9,2.9C406,19.2,404.8,18,404.8,16.4
		z"/>
	<path class="st1" d="M431.5,68.7c-1.4,0-2.7,0.5-3.6,1.5c-1,1-1.5,2.3-1.5,3.6c0,1.4,0.5,2.7,1.5,3.6c1,1,2.3,1.5,3.6,1.5
		c1.3,0,2.6-0.5,3.6-1.5c1-1,1.5-2.3,1.5-3.6c0-1.4-0.5-2.7-1.5-3.6C434.1,69.3,432.8,68.7,431.5,68.7z"/>
	<path class="st0" d="M434.4,73.9c0,0.8-0.3,1.5-0.8,2c-1.1,1.1-3,1.1-4.1,0c-0.5-0.5-0.8-1.3-0.8-2c0-0.8,0.3-1.5,0.8-2
		s1.3-0.8,2-0.8c0.8,0,1.5,0.3,2,0.8C434,72.4,434.4,73.1,434.4,73.9z"/>
	<path class="st1" d="M426.4,76.8c-0.2,0-0.4,0.1-0.6,0.2c-3.5,2.4-7.5,4.1-11.6,4.9c-0.3,0.1-0.6,0.2-0.7,0.5
		c-0.2,0.2-0.2,0.5-0.2,0.8c0.1,0.5,0.6,0.9,1.1,0.9c0.1,0,0.1,0,0.2,0l0,0c4.4-0.9,8.7-2.7,12.5-5.2c0.3-0.2,0.4-0.4,0.5-0.7
		c0.1-0.3,0-0.6-0.2-0.8C427.2,77,426.8,76.8,426.4,76.8z"/>
	<path class="st1" d="M440.9,55.7c-0.1,0-0.2,0-0.3,0c-0.5,0-1,0.4-1.1,0.9c-0.8,4.1-2.5,8.1-4.9,11.6c-0.2,0.2-0.2,0.5-0.2,0.8
		c0.1,0.3,0.2,0.6,0.5,0.7c0.2,0.1,0.4,0.2,0.6,0.2c0.4,0,0.7-0.2,0.9-0.5l0,0c2.5-3.7,4.3-8,5.2-12.4c0.1-0.3,0-0.6-0.2-0.9
		C441.4,56,441.2,55.8,440.9,55.7z"/>
	<path class="st1" d="M441.3,44.9c-2.8,0-5.1,2.3-5.1,5.1s2.3,5.1,5.1,5.1s5.1-2.3,5.1-5.1S444.2,44.9,441.3,44.9z"/>
	<path class="st2" d="M444.2,50c0,1.6-1.3,2.9-2.9,2.9c-1.6,0-2.9-1.3-2.9-2.9c0-1.6,1.3-2.9,2.9-2.9
		C442.9,47.2,444.2,48.5,444.2,50z"/>
	<path class="st1" d="M407.6,78.6c-2.8,0-5.1,2.3-5.1,5.1c0,2.8,2.3,5.1,5.1,5.1c2.8,0,5.1-2.3,5.1-5.1
		C412.8,80.9,410.5,78.6,407.6,78.6z"/>
	<path class="st2" d="M410.5,83.7c0,1.6-1.3,2.9-2.9,2.9c-1.6,0-2.9-1.3-2.9-2.9c0-1.6,1.3-2.9,2.9-2.9
		C409.2,80.8,410.5,82.1,410.5,83.7z"/>
	<path class="st1" d="M387.4,70.2c-1-1-2.3-1.5-3.6-1.5c-1.4,0-2.7,0.5-3.6,1.5c-1,1-1.5,2.3-1.5,3.6c0,1.4,0.5,2.7,1.5,3.6
		c1,1,2.3,1.5,3.6,1.5c1.3,0,2.6-0.5,3.6-1.5c1-1,1.5-2.3,1.5-3.6C388.9,72.5,388.4,71.2,387.4,70.2z"/>
	<path class="st0" d="M386.7,73.9c0,0.8-0.3,1.5-0.8,2c-1.1,1.1-3,1.1-4.1,0c-0.5-0.5-0.8-1.3-0.8-2c0-0.8,0.3-1.5,0.8-2
		c0.5-0.5,1.3-0.8,2-0.8c0.8,0,1.5,0.3,2,0.8S386.7,73.1,386.7,73.9z"/>
	<path class="st1" d="M383.8,31.4c1.3,0,2.6-0.5,3.6-1.5c1-1,1.5-2.3,1.5-3.6c0-1.4-0.5-2.7-1.5-3.6c-1-1-2.3-1.5-3.6-1.5
		c-1.4,0-2.7,0.5-3.6,1.5c-1,1-1.5,2.3-1.5,3.6c0,1.4,0.5,2.7,1.5,3.6C381.2,30.9,382.5,31.4,383.8,31.4z"/>
	<path class="st0" d="M383.8,23.3c0.8,0,1.5,0.3,2,0.8c0.5,0.5,0.8,1.3,0.8,2c0,0.8-0.3,1.5-0.8,2c-1.1,1.1-3,1.1-4.1,0
		c-0.5-0.5-0.8-1.3-0.8-2c0-0.8,0.3-1.5,0.8-2C382.3,23.6,383,23.3,383.8,23.3z"/>
	<path class="st1" d="M388.8,23.3c0.2,0,0.4-0.1,0.6-0.2l0,0c3.5-2.4,7.5-4.1,11.6-4.9c0.6-0.1,1-0.7,0.9-1.3
		c-0.1-0.4-0.4-0.8-0.8-0.9v-0.1l-0.3,0c-0.1,0-0.1,0-0.2,0c-4.4,0.9-8.7,2.7-12.5,5.2c-0.3,0.2-0.4,0.4-0.5,0.7
		c-0.1,0.3,0,0.6,0.2,0.9C388,23.1,388.4,23.3,388.8,23.3z"/>
	<path class="st1" d="M374.4,44.4c0.1,0,0.1,0,0.2,0c0.5,0,1-0.4,1.1-0.9c0.8-4.1,2.5-8.1,4.9-11.6c0.2-0.2,0.2-0.5,0.2-0.8
		c-0.1-0.3-0.2-0.6-0.5-0.7c-0.2-0.1-0.4-0.2-0.7-0.2c-0.4,0-0.7,0.2-0.9,0.5c-2.5,3.7-4.3,8-5.2,12.5c-0.1,0.3,0,0.6,0.2,0.8
		C373.9,44.1,374.1,44.3,374.4,44.4z"/>
	<path class="st1" d="M379.7,70c0.2,0,0.4-0.1,0.6-0.2c0.3-0.2,0.4-0.4,0.5-0.7c0.1-0.3,0-0.6-0.2-0.9c-2.4-3.5-4.1-7.5-4.9-11.6
		c-0.1-0.5-0.6-0.9-1.1-0.9c0,0,0,0,0,0c-0.6,0-1.1,0.5-1.1,1.1c0,0.1,0,0.2,0,0.2c0.9,4.4,2.7,8.7,5.2,12.5
		C379,69.8,379.3,70,379.7,70z"/>
	<ellipse class="st1" cx="373.9" cy="50" rx="5.1" ry="5.1"/>
	<path class="st2" d="M371.1,50c0-1.6,1.3-2.9,2.9-2.9c1.6,0,2.9,1.3,2.9,2.9c0,1.6-1.3,2.9-2.9,2.9C372.3,52.9,371.1,51.6,371.1,50
		z"/>
</g>
<g>
	<path class="st1" d="M86.9,61.6v-2.1h2.8c-0.2-10.3-8.4-18.6-18.6-19.2v3.4H69v-3.4c-9.6,0.5-17.4,7.9-18.5,17.4h3.3v2.1h-3.4
		c0,0,0,0.1,0,0.1c0,10.5,8.2,19,18.6,19.6v-2.9h2.1v2.9c9.8-0.5,17.7-8.2,18.5-17.9L86.9,61.6L86.9,61.6z M80.1,51.4
		c-2.4,2.4-4.8,4.7-7.2,7.1c0.2,0.4,0.4,1,0.4,1.5c0,1.8-1.4,3.2-3.2,3.2s-3.2-1.4-3.2-3.2c0-1.8,1.4-3.2,3.2-3.2
		c0.5,0,1,0.1,1.4,0.3c2.4-2.4,4.8-4.7,7.2-7.1C79.6,49,81,50.5,80.1,51.4z"/>
	<path class="st3" d="M43.7,60c0-5.1,1.5-10,4.2-14.3l-0.4-0.4c-0.5-0.5-0.8-1.2-0.8-2c0-1.1,0.7-2.4,2-3.7c1.3-1.3,2.6-2,3.7-2
		c0.8,0,1.5,0.3,2,0.8l0.3,0.3c2.3-1.7,4.8-2.9,7.5-3.8c-0.3-0.7-0.5-1.6-0.5-2.5c0-2.8,1.7-4.8,3.9-4.8h9.2c2.2,0,3.9,2.1,3.9,4.8
		c0,0.9-0.2,1.8-0.5,2.5c2.1,0.7,4.2,1.6,6.1,2.8l0.4-0.4c0.5-0.5,1.2-0.8,2-0.8c0.6,0,1.3,0.2,2,0.6c-6.6-12.8-23.3-18.5-40-13.8
		c12.5,13,1,15-3.9,6.1c-6.8-12.9-22-15.2-36.6-11.3c10.7,4.5,19.6,12.2,22.3,24.5c0.9,6.9-4.2,5.5-8.1,0
		c1,25.2,18.6,37.4,33.8,39.7C48.7,77.6,43.7,69.3,43.7,60z"/>
	<path class="st0" d="M87.7,44.1l1.8-1.8c0.2-0.2-0.3-1.1-1.2-2c-0.9-0.9-1.8-1.4-2-1.2L84.4,41c-3.4-2.6-7.6-4.3-12.1-4.7l0-1.7
		h2.3c0.7,0,1.3-1,1.3-2.3c0-1.2-0.6-2.3-1.3-2.3h-9.2c-0.7,0-1.3,1-1.3,2.3c0,1.2,0.6,2.3,1.3,2.3h2.3v1.7
		c-5.1,0.5-9.7,2.6-13.4,5.8l-1.9-1.9c-0.2-0.2-1.1,0.3-2,1.2c-0.9,0.9-1.4,1.8-1.2,2l2,2c-3.1,4-5,9.1-5,14.6
		c0,13.1,10.7,23.8,23.8,23.8c13.1,0,23.8-10.7,23.8-23.8C93.8,53.9,91.5,48.3,87.7,44.1z M71.1,79.5v-2.9H69v2.9
		C58.7,79,50.4,70.4,50.4,60c0,0,0-0.1,0-0.1h3.4v-2.1h-3.3c1-9.5,8.8-16.9,18.5-17.4v3.4h2.1v-3.4c10.2,0.5,18.3,8.9,18.6,19.2
		h-2.8v2.1h2.7C88.8,71.3,80.9,79,71.1,79.5z"/>
	<path class="st0" d="M78.6,50c-2.4,2.4-4.8,4.7-7.2,7.1c-0.4-0.2-0.9-0.3-1.4-0.3c-1.8,0-3.2,1.4-3.2,3.2c0,1.8,1.4,3.2,3.2,3.2
		c1.8,0,3.2-1.4,3.2-3.2c0-0.5-0.1-1-0.4-1.5c2.4-2.4,4.8-4.7,7.2-7.1C81,50.5,79.6,49,78.6,50z"/>
	<g>
		<path class="st2" d="M76.7,48.7c-0.2,0-0.3,0-0.5-0.1c-0.5-0.3-1-0.5-1.5-0.7c-0.5-0.2-0.8-0.8-0.6-1.3c0.2-0.5,0.8-0.8,1.3-0.6
			c0.6,0.2,1.1,0.5,1.7,0.8c0.5,0.3,0.7,0.9,0.4,1.4C77.4,48.5,77.1,48.7,76.7,48.7z"/>
		<path class="st2" d="M56.3,59c0,0-0.1,0-0.1,0c-0.6-0.1-0.9-0.6-0.9-1.1c0.1-1.1,0.4-2.2,0.8-3.3c0.2-0.5,0.8-0.8,1.3-0.6
			c0.5,0.2,0.8,0.8,0.6,1.3c-0.3,0.9-0.6,1.9-0.7,2.8C57.3,58.6,56.8,59,56.3,59z M58.5,53.2c-0.2,0-0.4-0.1-0.6-0.2
			c-0.5-0.3-0.6-0.9-0.3-1.4c0.6-0.9,1.4-1.8,2.2-2.6c0.4-0.4,1-0.4,1.4,0c0.4,0.4,0.4,1,0,1.4c-0.7,0.7-1.3,1.4-1.9,2.2
			C59.2,53,58.9,53.2,58.5,53.2z M63.1,48.9c-0.3,0-0.7-0.2-0.9-0.5c-0.3-0.5-0.1-1.1,0.4-1.4c1-0.6,2-1,3.1-1.4
			c0.5-0.2,1.1,0.1,1.3,0.7c0.2,0.5-0.1,1.1-0.7,1.3c-0.9,0.3-1.8,0.7-2.7,1.2C63.4,48.9,63.2,48.9,63.1,48.9z M72.1,47.2
			c0,0-0.1,0-0.2,0C71,47,70,47,69.1,47c-0.6,0-1-0.4-1.1-0.9c0-0.6,0.4-1,0.9-1.1c1.1-0.1,2.3,0,3.4,0.1c0.6,0.1,0.9,0.6,0.9,1.2
			C73,46.8,72.6,47.2,72.1,47.2z"/>
		<path class="st2" d="M56.5,63.9c-0.5,0-0.9-0.3-1-0.8c-0.1-0.6-0.2-1.2-0.3-1.8c-0.1-0.6,0.4-1.1,0.9-1.1c0.6-0.1,1.1,0.4,1.1,0.9
			c0.1,0.5,0.1,1.1,0.3,1.6c0.1,0.5-0.2,1.1-0.8,1.2C56.7,63.8,56.6,63.9,56.5,63.9z"/>
	</g>
	<g>
		<path class="st2" d="M72.8,52.5c-0.1,0-0.2,0-0.3-0.1c-0.5-0.2-1-0.3-1.5-0.3c-0.6-0.1-0.9-0.6-0.9-1.1c0.1-0.6,0.6-0.9,1.1-0.9
			c0.6,0.1,1.3,0.2,1.9,0.4c0.5,0.2,0.8,0.8,0.6,1.3C73.6,52.3,73.2,52.5,72.8,52.5z"/>
		<path class="st2" d="M64.6,53.9c-0.3,0-0.6-0.1-0.8-0.4c-0.3-0.4-0.3-1.1,0.2-1.4c1-0.8,2.2-1.4,3.4-1.7c0.5-0.1,1.1,0.2,1.2,0.7
			c0.1,0.5-0.2,1.1-0.7,1.2c-1,0.3-1.9,0.7-2.7,1.3C65.1,53.8,64.9,53.9,64.6,53.9z"/>
		<path class="st2" d="M61.7,58.1c-0.1,0-0.2,0-0.3-0.1c-0.5-0.2-0.8-0.8-0.6-1.3c0.2-0.6,0.5-1.2,0.8-1.8c0.3-0.5,0.9-0.7,1.4-0.4
			c0.5,0.3,0.7,0.9,0.4,1.4c-0.3,0.4-0.5,0.9-0.6,1.4C62.5,57.8,62.1,58.1,61.7,58.1z"/>
	</g>
</g>
<g>
	<g>
		<path id="path3055" class="st0" d="M299.3,32.3c-0.3,0-0.6,0.1-0.9,0.2l-12,5.7c-0.6,0.3-1.1,0.9-1.2,1.5l-3,12.9
			c-0.1,0.6,0,1.2,0.3,1.7c0,0.1,0.1,0.1,0.1,0.2L291,65c0.4,0.5,1.1,0.9,1.8,0.9l13.3,0c0.7,0,1.4-0.3,1.8-0.9l8.3-10.3
			c0.4-0.5,0.6-1.3,0.4-1.9l-3-12.9c-0.2-0.7-0.6-1.2-1.2-1.5l-12-5.7C300.1,32.4,299.7,32.3,299.3,32.3z"/>
		<path id="path3059" class="st1" d="M299.4,36.7c-0.4,0-0.7,0.4-0.7,0.8c0,0,0,0,0,0c0,0.1,0,0.1,0,0.2c0,0.3,0.1,0.4,0.1,0.7
			c0.1,0.5,0.1,0.9,0.1,1.3c0,0.1-0.1,0.3-0.2,0.4l0,0.3c-0.4,0-0.9,0.1-1.3,0.2c-1.9,0.4-3.5,1.4-4.7,2.7c-0.1-0.1-0.2-0.2-0.3-0.2
			c-0.1,0-0.3,0.1-0.4,0c-0.3-0.2-0.6-0.5-1-0.9c-0.2-0.2-0.3-0.3-0.5-0.5c0,0-0.1-0.1-0.2-0.1c-0.2-0.1-0.3-0.2-0.5-0.2
			c-0.2,0-0.4,0.1-0.6,0.3c-0.2,0.3-0.2,0.8,0.2,1.1c0,0,0,0,0,0c0,0,0.1,0.1,0.1,0.1c0.2,0.2,0.4,0.2,0.6,0.3
			c0.4,0.3,0.8,0.5,1.1,0.8c0.1,0.1,0.1,0.3,0.1,0.4l0.2,0.2c-1.2,1.9-1.8,4.2-1.5,6.5l-0.3,0.1c-0.1,0.1-0.2,0.3-0.3,0.3
			c-0.4,0.1-0.8,0.2-1.3,0.2c-0.2,0-0.4,0-0.7,0.1c-0.1,0-0.1,0-0.2,0c0,0,0,0,0,0c0,0,0,0,0,0c-0.4,0.1-0.7,0.5-0.6,0.9
			c0.1,0.4,0.5,0.6,0.9,0.5c0,0,0,0,0,0c0,0,0,0,0,0c0.1,0,0.1,0,0.2,0c0.2-0.1,0.4-0.2,0.6-0.2c0.5-0.2,0.9-0.3,1.3-0.4
			c0.2,0,0.3,0.1,0.4,0.1l0.3-0.1c0.7,2.2,2.2,4,4.1,5.2l-0.1,0.3c0,0.1,0.1,0.3,0.1,0.4c-0.1,0.4-0.4,0.7-0.7,1.2
			c-0.1,0.2-0.3,0.3-0.4,0.6c0,0.1-0.1,0.1-0.1,0.2c-0.2,0.4,0,0.9,0.3,1c0.4,0.2,0.8,0,1-0.4c0,0,0,0,0,0c0,0,0,0,0,0
			c0-0.1,0.1-0.1,0.1-0.2c0.1-0.2,0.1-0.4,0.2-0.7c0.2-0.5,0.3-1,0.6-1.3c0.1-0.1,0.2-0.1,0.3-0.2l0.2-0.3c1.7,0.6,3.5,0.8,5.4,0.4
			c0.4-0.1,0.8-0.2,1.2-0.4c0,0.1,0.1,0.2,0.2,0.3c0.1,0,0.3,0.1,0.4,0.2c0.2,0.3,0.3,0.7,0.5,1.2c0.1,0.2,0.1,0.4,0.2,0.7
			c0,0.1,0.1,0.1,0.1,0.2c0.2,0.4,0.6,0.6,1,0.4c0.4-0.2,0.5-0.6,0.3-1c0-0.1-0.1-0.1-0.1-0.2c-0.1-0.2-0.3-0.4-0.4-0.6
			c-0.3-0.4-0.5-0.8-0.6-1.1c-0.1-0.2,0-0.3,0.1-0.4c0,0-0.1-0.2-0.1-0.3c2-1.2,3.5-3.1,4.1-5.2c0.1,0,0.3,0,0.3,0.1
			c0.1-0.1,0.2-0.2,0.4-0.1c0.4,0.1,0.8,0.2,1.3,0.4c0.2,0.1,0.4,0.2,0.6,0.2c0.1,0,0.1,0,0.2,0c0,0,0,0,0,0c0,0,0,0,0,0
			c0.4,0.1,0.8-0.1,0.9-0.5c0.1-0.4-0.2-0.8-0.6-0.9c-0.1,0-0.1,0-0.2,0c-0.3,0-0.5,0-0.7-0.1c-0.5-0.1-0.9-0.1-1.3-0.2
			c-0.2-0.1-0.3-0.2-0.3-0.3l-0.3-0.1c0.2-1.1,0.1-2.2-0.2-3.4c-0.3-1.1-0.7-2.2-1.3-3.1c0.1-0.1,0.2-0.2,0.3-0.2
			c0-0.1,0-0.3,0.1-0.4c0.3-0.3,0.6-0.5,1.1-0.8c0.2-0.1,0.4-0.2,0.6-0.3c0,0,0.1-0.1,0.2-0.1c0.3-0.3,0.4-0.7,0.2-1.1
			c-0.2-0.3-0.7-0.3-1.1-0.1c0,0-0.1,0.1-0.2,0.1c-0.2,0.2-0.3,0.3-0.5,0.5c-0.4,0.4-0.6,0.7-1,0.9c-0.1,0.1-0.3,0.1-0.4,0l-0.3,0.2
			c-1.6-1.6-3.7-2.7-6-2.9c0-0.1,0-0.3,0-0.3c-0.1-0.1-0.2-0.2-0.2-0.4c0-0.4,0-0.8,0.1-1.3c0-0.2,0.1-0.4,0.1-0.7
			c0-0.1,0-0.1,0-0.2C300.1,37.1,299.8,36.7,299.4,36.7L299.4,36.7z M298.5,42.3l-0.2,3.8l0,0c0,0.3-0.3,0.6-0.6,0.6
			c-0.1,0-0.3,0-0.4-0.1l0,0l-3.1-2.2c1-0.9,2.2-1.6,3.6-1.9C298,42.4,298.3,42.3,298.5,42.3z M300.3,42.3c1.6,0.2,3.1,0.9,4.3,2.1
			l-3.1,2.2l0,0c-0.3,0.2-0.7,0.1-0.9-0.1c-0.1-0.1-0.1-0.2-0.1-0.4l0,0L300.3,42.3z M293.1,45.8l2.8,2.5l0,0
			c0.3,0.2,0.3,0.6,0.1,0.9c-0.1,0.1-0.2,0.2-0.3,0.2l0,0l-3.6,1C291.8,48.8,292.2,47.2,293.1,45.8z M305.8,45.8
			c0.4,0.7,0.7,1.4,0.9,2.3c0.2,0.8,0.2,1.6,0.2,2.4l-3.6-1l0,0c-0.3-0.1-0.5-0.4-0.5-0.8c0-0.1,0.1-0.3,0.2-0.3l0,0L305.8,45.8
			L305.8,45.8z M298.9,48.5h1.2l0.7,0.9l-0.3,1.1l-1,0.5l-1-0.5l-0.3-1.1L298.9,48.5z M302.6,51.6c0,0,0.1,0,0.1,0l0,0l3.7,0.6
			c-0.5,1.5-1.6,2.9-3,3.8l-1.5-3.5l0,0c-0.1-0.3,0-0.7,0.3-0.8C302.4,51.6,302.5,51.6,302.6,51.6L302.6,51.6z M296.3,51.6
			c0.3,0,0.5,0.2,0.6,0.5c0,0.1,0,0.3,0,0.4l0,0l-1.4,3.5c-1.3-0.9-2.4-2.2-3-3.7l3.7-0.6l0,0C296.2,51.6,296.2,51.6,296.3,51.6
			L296.3,51.6z M299.4,53.1c0.1,0,0.2,0,0.3,0.1c0.1,0.1,0.2,0.2,0.3,0.3h0l1.8,3.3c-0.2,0.1-0.5,0.1-0.7,0.2
			c-1.4,0.3-2.8,0.2-4.1-0.2l1.8-3.3h0C299,53.3,299.2,53.1,299.4,53.1z"/>
	</g>
	<g>
		<g>
			<path class="st1" d="M309.3,68.8c5.8-7,15.5-9.1,24.2-7.7l1.8,0.3l-1.1,1.5c-5.5,7.3-15.7,9.5-24.3,7.8l-1.8-0.4L309.3,68.8
				L309.3,68.8z"/>
		</g>
		<g>
			<path class="st1" d="M311.6,17c6.1,4.9,9.7,12.9,8.2,20.7l-0.3,1.7l-1.4-1c-6.2-4.6-10.4-13.1-8.2-20.8l0.5-1.6L311.6,17
				L311.6,17z"/>
		</g>
		<g>
			<path class="st1" d="M336.5,42c-1.2,8.5-7.3,17-15.9,18.9l-1.6,0.4l0.3-1.6c1.5-8.5,7.4-16.2,15.8-18.9l1.7-0.5L336.5,42
				L336.5,42z"/>
		</g>
		<g>
			<path class="st1" d="M327.5,23.5c3.2,7.4,2.2,16.4-2.7,22.8l-1.2,1.5l-0.7-1.8c-3-7.4-2.3-16.3,2.7-22.7l1.1-1.5L327.5,23.5
				L327.5,23.5z"/>
		</g>
		<g>
			<path class="st1" d="M273.2,23.2c5,6.4,5.7,15.3,2.7,22.7l-0.7,1.8l-1.2-1.5c-4.9-6.4-5.9-15.4-2.7-22.8l0.7-1.7L273.2,23.2
				L273.2,23.2z"/>
		</g>
		<g>
			<path class="st1" d="M288.9,70.5c-8.6,1.8-18.8-0.5-24.3-7.8l-1.1-1.5l1.8-0.3c8.6-1.4,18.4,0.7,24.2,7.7l1.1,1.4L288.9,70.5
				L288.9,70.5z"/>
		</g>
		<g>
			<path class="st1" d="M289,17.6c2.2,7.7-2,16.2-8.2,20.8l-1.4,1l-0.3-1.7c-1.5-7.8,2.1-15.8,8.2-20.7l1.3-1L289,17.6L289,17.6z"/>
		</g>
		<g>
			<path class="st1" d="M263.7,40.8c8.4,2.6,14.3,10.4,15.8,18.9l0.3,1.6l-1.6-0.4c-8.7-1.9-14.7-10.5-15.9-18.9l-0.2-1.7
				L263.7,40.8L263.7,40.8z"/>
		</g>
		<g>
			<path class="st1" d="M305.5,76.6c1.4,1.5,2.9,2.9,4.6,4.1l1.2,0.8l-1,0.9c-0.4,0.4-0.9,0.8-1.3,1.2l-0.5,0.5l-0.7-0.3
				c-4-1.7-5.2-6.1-8.3-8.1c-3.1,2-4.3,6.4-8.3,8.1l-0.7,0.3l-0.5-0.5c-0.4-0.4-0.8-0.8-1.3-1.2l-1-0.9l1.2-0.8
				c1.7-1.1,3.2-2.6,4.6-4.1c-1.9,1-3.8,2.1-6,2.5c-3.9,0.7-8.1,0.9-11.8-0.7l-1.8-0.8l1.6-1.1c3.7-2.5,7.6-4.9,12.2-5.3
				c3.6-0.2,7.3-0.1,10.8,0.7l0,0l0,0c0.7,0.2,1.4,0.2,2,0l0,0l0,0c3.5-0.8,7.2-0.9,10.8-0.7c4.6,0.4,8.5,2.7,12.2,5.3l1.6,1.1
				l-1.8,0.8c-3.7,1.6-7.9,1.4-11.9,0.7C309.3,78.7,307.4,77.6,305.5,76.6L305.5,76.6z"/>
		</g>
	</g>
</g>
<g>
	<g>
		<path class="st0" d="M531.5,72.2h-53L505,26.3L531.5,72.2z M486.5,67.6h37L505,35.5L486.5,67.6z"/>
	</g>
	<g>
		<path class="st2" d="M565.7,73.8c-12.9,0-23.4-10.5-23.4-23.4c0-12.9,10.5-23.4,23.4-23.4c12.9,0,23.4,10.5,23.4,23.4
			C589.1,63.3,578.6,73.8,565.7,73.8z M565.7,31.7c-10.3,0-18.7,8.4-18.7,18.7c0,10.3,8.4,18.7,18.7,18.7c10.3,0,18.7-8.4,18.7-18.7
			C584.4,40.1,576,31.7,565.7,31.7z"/>
	</g>
	<path class="st1" d="M547.9,35.5c-1.2-1.2-3.3-1.2-4.5,0c-1.2,1.2-1.2,3.3,0,4.5l7.2,7.2h-45.1c-1.8,0-3.2,1.4-3.2,3.2
		c0,1.8,1.4,3.2,3.2,3.2h45.1l-7.2,7.2c-1.2,1.2-1.2,3.3,0,4.5c0.6,0.6,1.4,0.9,2.2,0.9c0.8,0,1.6-0.3,2.2-0.9l14.9-14.9L547.9,35.5
		z"/>
</g>
</svg>
