<svg id="Layer_1" data-name="Layer 1" xmlns="http://www.w3.org/2000/svg" viewBox="0 0 100 100"><circle cx="28.82" cy="16.34" r="4.6"/><path d="M98,17.22H40.41a6.79,6.79,0,0,0,.07-.88,11.66,11.66,0,1,0-23.32,0,6.73,6.73,0,0,0,.06.88H2V88.67H25.91l1,6.65,6.17-6.65H98ZM28.82,7.88a8.46,8.46,0,0,1,8.46,8.46c0,3.57-5.29,11.71-8.46,16.15-3.17-4.44-8.46-12.58-8.46-16.15A8.46,8.46,0,0,1,28.82,7.88Zm3.82,24.74C35.27,33.33,37,34.71,37,36c0,1.83-3.49,3.88-8.16,3.88s-8.16-2-8.16-3.88c0-1.28,1.71-2.66,4.34-3.37,1.25,1.81,2.24,3.13,2.54,3.54l1.28,1.68,1.28-1.68C30.4,35.75,31.39,34.43,32.64,32.62ZM28.17,82.09l-4.88-3.87,19.16-4.37L29.09,88.26Zm65.05,1.78H37.52L51.85,68.43,16.08,76.58l9.11,7.23v.06H6.78V22h12a61.44,61.44,0,0,0,4.39,7.82c-3.42,1.21-5.69,3.48-5.69,6.15,0,4,5,7.08,11.36,7.08S40.18,40,40.18,36c0-2.67-2.27-4.94-5.69-6.15A62.69,62.69,0,0,0,38.88,22H93.22Z"/><path d="M30.83,65.59H26.6V57.43c0-1,0-1.9.06-2.72a8.11,8.11,0,0,1-1,1l-1.75,1.45-2.16-2.66,5.29-4.31h3.76Z"/><path d="M80.19,41.54H69V38.8L72.76,35c1.08-1.13,1.78-1.89,2.11-2.31a4.91,4.91,0,0,0,.69-1.06,2.24,2.24,0,0,0,.2-.92,1.21,1.21,0,0,0-.39-.95,1.61,1.61,0,0,0-1.1-.35,2.94,2.94,0,0,0-1.47.42A9.66,9.66,0,0,0,71.12,31l-2.29-2.67a12.56,12.56,0,0,1,2-1.53,7.26,7.26,0,0,1,1.77-.7,8.75,8.75,0,0,1,2.14-.24,6.54,6.54,0,0,1,2.68.52,4.25,4.25,0,0,1,1.82,1.51,3.89,3.89,0,0,1,.65,2.19,5.91,5.91,0,0,1-.23,1.67,5.76,5.76,0,0,1-.7,1.52,10,10,0,0,1-1.26,1.56q-.78.83-3.35,3.12v.11h5.84Z"/><path d="M84.09,63.11a3.66,3.66,0,0,1-.87,2.46,5,5,0,0,1-2.54,1.5v.06c2.58.32,3.86,1.54,3.86,3.65a4,4,0,0,1-1.7,3.39,7.94,7.94,0,0,1-4.73,1.23,13.67,13.67,0,0,1-2.3-.18,12.67,12.67,0,0,1-2.3-.65V71.11a9.17,9.17,0,0,0,2.06.76,8.26,8.26,0,0,0,1.94.25,3.93,3.93,0,0,0,2-.39,1.3,1.3,0,0,0,.63-1.2,1.35,1.35,0,0,0-.33-1A2.14,2.14,0,0,0,78.75,69a8.71,8.71,0,0,0-1.89-.17h-1V65.73h1c2.11,0,3.17-.54,3.17-1.63a1,1,0,0,0-.47-.9,2.3,2.3,0,0,0-1.26-.3,5.8,5.8,0,0,0-3.06,1l-1.73-2.78A8.24,8.24,0,0,1,76,59.91,10.85,10.85,0,0,1,79,59.55a6.43,6.43,0,0,1,3.75,1A3,3,0,0,1,84.09,63.11Z"/><path d="M63.16,70.12a10.22,10.22,0,0,1-5.87-1.78l1.82-2.63a7.3,7.3,0,0,0,5,1.16l.34,3.18A12.1,12.1,0,0,1,63.16,70.12Zm-8.53-4.53a8.51,8.51,0,0,1-1-2.2,11.19,11.19,0,0,1-.41-3,9.45,9.45,0,0,1,.24-2.2l3.12.72a6,6,0,0,0-.16,1.48,8.11,8.11,0,0,0,.29,2.14,5.1,5.1,0,0,0,.63,1.35ZM35.13,57c-.27,0-.54,0-.8,0l-.06-3.21a10.12,10.12,0,0,0,5.5-1.37l1.61,2.77A12.49,12.49,0,0,1,35.13,57Zm22.51-.25-2.46-2.05a11.61,11.61,0,0,1,6.35-3.61l.77,3.11A8.55,8.55,0,0,0,57.64,56.71Zm7.59-3-.29-3.19a34.85,34.85,0,0,1,3.77-.12h.22a8.57,8.57,0,0,0,2.15-.25l.79,3.11a12,12,0,0,1-2.94.34h-.28A30.94,30.94,0,0,0,65.23,53.69Zm-21-.69-2.21-2.31A5.91,5.91,0,0,0,43.91,46l3.2.11A9.08,9.08,0,0,1,44.26,53Zm31.06-1.43L73.37,49a8.43,8.43,0,0,0,2.17-2.64l.19-.34c.28-.51.58-1.06.87-1.65l2.87,1.41c-.31.63-.64,1.23-.94,1.78l-.19.36A11.62,11.62,0,0,1,75.32,51.57ZM47.19,43,44,42.76a9.87,9.87,0,0,1,3.12-6.68l2.23,2.29A6.68,6.68,0,0,0,47.19,43Zm4.43-6.39-1.72-2.7a30.13,30.13,0,0,1,3.48-1.87,22.94,22.94,0,0,1,2.68-1l1,3a18.65,18.65,0,0,0-2.32.9A26.63,26.63,0,0,0,51.62,36.62ZM60,33.33l-.59-3.14a28.15,28.15,0,0,1,6.78-.45L66,32.93A25.34,25.34,0,0,0,60,33.33Z"/><path d="M68.14,69.17l-1.09-3a20.32,20.32,0,0,0,2.67-1.24l1.55,2.8A22.22,22.22,0,0,1,68.14,69.17Z"/></svg>