<svg id="Layer_1" data-name="Layer 1" xmlns="http://www.w3.org/2000/svg" viewBox="0 0 420 280"><defs><style>.cls-1{fill:#4695eb;}.cls-2{fill:#fff;}</style></defs><path class="cls-1" d="M99.57,242.86H44.42V39.32H99.57v24H74.05V218.81H99.57Z"/><path class="cls-1" d="M320.43,218.81h25.41V63.37H320.43v-24h55.15V242.86H320.43Z"/><path class="cls-2" d="M210,240.59A102.87,102.87,0,1,1,312.87,137.72,103,103,0,0,1,210,240.59Zm0-189.74a86.87,86.87,0,1,0,86.87,86.87A87,87,0,0,0,210,50.85Z"/><path class="cls-2" d="M210,199.7a61.71,61.71,0,0,1-59.17-43.49,8,8,0,0,1,15.27-4.77,46,46,0,0,0,87.8,0,8,8,0,1,1,15.27,4.77A61.71,61.71,0,0,1,210,199.7Z"/><ellipse class="cls-2" cx="180.11" cy="106.71" rx="10.93" ry="17.82"/><path class="cls-2" d="M248.86,122.53a4.05,4.05,0,0,1-2-.53l-18.52-10.62a4,4,0,0,1,0-6.94l18.52-10.63a4,4,0,1,1,4,6.94l-12.47,7.16,12.47,7.15a4,4,0,0,1-2,7.47Z"/></svg>