<svg id="Layer_1" data-name="Layer 1" xmlns="http://www.w3.org/2000/svg" viewBox="0 0 420 280"><defs><style>.cls-1{fill:#fff;}.cls-2{fill:#4695eb;}.cls-3{fill:#ff004a;}</style></defs><path class="cls-1" d="M279.7,70.34a17.78,17.78,0,1,0-5.18-12.55A17.73,17.73,0,0,0,279.7,70.34Z"/><path class="cls-2" d="M292.25,47.83a10,10,0,1,1-7,2.93A9.87,9.87,0,0,1,292.25,47.83Z"/><path class="cls-1" d="M306.43,71.07h0A3.91,3.91,0,0,0,302.53,75a3.88,3.88,0,0,0,.69,2.17,112.45,112.45,0,0,1,16.91,40.16,3.9,3.9,0,0,0,3.83,3.15,3.81,3.81,0,0,0,.75-.07,3.91,3.91,0,0,0,3.07-4.63,120.31,120.31,0,0,0-18.09-43A3.88,3.88,0,0,0,306.43,71.07Z"/><path class="cls-1" d="M198.59,177.33a44.57,44.57,0,0,0,9.77,6.5,3.87,3.87,0,0,0,3.26,0,44.76,44.76,0,0,0,9.78-6.5c6.65-5.8,10.17-12.64,10.17-19.75a13.69,13.69,0,0,0-13.42-13.92,12.24,12.24,0,0,0-8.16,3.4,12.21,12.21,0,0,0-8.15-3.4h0a13.69,13.69,0,0,0-13.42,13.92C188.41,164.69,191.93,171.52,198.59,177.33Z"/><path class="cls-3" d="M211.92,155.83a4,4,0,0,0,1.47-1.47,5.51,5.51,0,0,1,4.76-2.91,5.83,5.83,0,0,1,5.62,6.13c0,4.86-2.53,9.53-7.51,13.88a28.22,28.22,0,0,1-6.27,4.28,28.46,28.46,0,0,1-6.27-4.28c-5-4.35-7.5-9-7.5-13.88a5.83,5.83,0,0,1,5.61-6.13h0a5.53,5.53,0,0,1,4.77,2.91A3.91,3.91,0,0,0,211.92,155.83Z"/><path class="cls-1" d="M232.66,29.92a112.41,112.41,0,0,1,40.17,16.89,3.9,3.9,0,1,0,4.49-6.38l-.1-.07a120.42,120.42,0,0,0-43-18.07,3.47,3.47,0,0,0-.78-.1l-1.17,0v.19a3.9,3.9,0,0,0,.35,7.57Z"/><path class="cls-1" d="M177.58,192.88a93.33,93.33,0,0,0,64.83,0,3.88,3.88,0,0,0,2.42-3.6V175.83a66.42,66.42,0,0,0,33.13-3.6,3.89,3.89,0,0,0,2.41-3.6v-24.3a26.34,26.34,0,0,0-13.9-23.23,18.47,18.47,0,0,0,6-13.54,18.16,18.16,0,1,0-36.31,0,18.46,18.46,0,0,0,6,13.53,26,26,0,0,0-9.32,8.38,34.58,34.58,0,0,0-8.53-5.43,23.8,23.8,0,1,0-28.51,0,34.3,34.3,0,0,0-8.52,5.42,25.92,25.92,0,0,0-9.32-8.37,18.46,18.46,0,0,0,6-13.53,18.16,18.16,0,1,0-36.31,0,18.47,18.47,0,0,0,6,13.54,26.34,26.34,0,0,0-13.9,23.23v24.3a3.89,3.89,0,0,0,2.41,3.6,66.66,66.66,0,0,0,33.12,3.61v13.44A3.87,3.87,0,0,0,177.58,192.88Zm-11.87-67a18,18,0,0,1,15.93,9.7,34.47,34.47,0,0,0-6.48,20.22v12a52.46,52.46,0,0,1-9.45.95,56.53,56.53,0,0,1-18.27-2.91V144.33A18.18,18.18,0,0,1,165.71,125.85Zm0-7.8a10.49,10.49,0,1,1,10.35-10.49A10.44,10.44,0,0,1,165.71,118.05Zm23.57,20.38a2.42,2.42,0,0,0,.27-.36A27,27,0,0,1,210,128.8h0a27,27,0,0,1,20.54,9.36,1.86,1.86,0,0,0,.21.28,26.78,26.78,0,0,1,5.28,10c0,.08,0,.15.08.27.08.27.14.54.2.79l.34,1.72c0,.14.05.29.07.44l.2,1.53.06.78,0,.19a.86.86,0,0,1,0,.16v.12c0,.45,0,.89,0,1.34v30.7a84.71,84.71,0,0,1-54.07,0V171.55c0-.12,0-.24,0-.37V155.77A26.63,26.63,0,0,1,189.28,138.43ZM194,105.05A16,16,0,1,1,210,121,16,16,0,0,1,194,105.05Zm60.28,20.8h0a18.18,18.18,0,0,1,18.27,18.48v21.48a56.53,56.53,0,0,1-18.27,2.92,52.54,52.54,0,0,1-9.46-1v-12c0-.34,0-.68,0-1v-.51a34.55,34.55,0,0,0-6.44-18.67A18,18,0,0,1,254.29,125.85Zm0-7.8a10.49,10.49,0,1,1,10.36-10.49A10.44,10.44,0,0,1,254.29,118.05Z"/><path class="cls-1" d="M187.53,250.11l-.19,0a112.31,112.31,0,0,1-40.17-16.89,3.88,3.88,0,0,0-2.19-.7h0a3.91,3.91,0,0,0-3.95,3.86,3.89,3.89,0,0,0,1.75,3.29,120.41,120.41,0,0,0,43,18.08,3.94,3.94,0,0,0,.9.1,3.9,3.9,0,0,0,.88-7.7Z"/><path class="cls-1" d="M210,41.48a17.74,17.74,0,1,0-17.75-17.74A17.76,17.76,0,0,0,210,41.48Z"/><path class="cls-3" d="M200.06,23.74A9.95,9.95,0,1,1,210,33.68,10,10,0,0,1,200.06,23.74Z"/><path class="cls-1" d="M292.25,204.48a17.69,17.69,0,1,0,12.56,5.18A17.65,17.65,0,0,0,292.25,204.48Z"/><path class="cls-2" d="M302.22,222.2a10,10,0,1,1-2.93-7A9.87,9.87,0,0,1,302.22,222.2Z"/><path class="cls-1" d="M274.92,232.48a3.91,3.91,0,0,0-2.07.69,112.36,112.36,0,0,1-40.15,16.9,3.88,3.88,0,0,0-2.52,1.6,3.84,3.84,0,0,0-.64,2.92,3.9,3.9,0,0,0,3.84,3.22,4,4,0,0,0,.68-.06l.17,0a120.44,120.44,0,0,0,43-18.08,3.9,3.9,0,0,0-2.29-7.16Z"/><path class="cls-1" d="M324.8,159.58a5.37,5.37,0,0,0-.89-.09,3.91,3.91,0,0,0-3.77,3.16,112.52,112.52,0,0,1-16.9,40.15,3.9,3.9,0,1,0,6.38,4.48l.07-.09a120.28,120.28,0,0,0,18.09-43,3.9,3.9,0,0,0-3-4.64Z"/><path class="cls-1" d="M326.32,122.26A17.74,17.74,0,1,0,344.07,140,17.76,17.76,0,0,0,326.32,122.26Z"/><path class="cls-3" d="M336.26,140a9.95,9.95,0,1,1-9.94-9.94A10,10,0,0,1,336.26,140Z"/><path class="cls-1" d="M210,238.52a17.74,17.74,0,1,0,17.75,17.74A17.76,17.76,0,0,0,210,238.52Z"/><path class="cls-3" d="M220,256.26a9.95,9.95,0,1,1-9.95-9.94A10,10,0,0,1,220,256.26Z"/><path class="cls-1" d="M140.31,209.66a17.78,17.78,0,1,0,5.18,12.55A17.65,17.65,0,0,0,140.31,209.66Z"/><path class="cls-2" d="M137.72,222.21a10,10,0,1,1-2.93-7A9.87,9.87,0,0,1,137.72,222.21Z"/><path class="cls-1" d="M127.75,75.52a17.69,17.69,0,1,0-12.55-5.18A17.72,17.72,0,0,0,127.75,75.52Z"/><path class="cls-2" d="M127.75,47.83a10,10,0,1,1-7,2.93A9.87,9.87,0,0,1,127.75,47.83Z"/><path class="cls-1" d="M144.92,47.53a4,4,0,0,0,2.13-.62l.1-.07a112.38,112.38,0,0,1,40.17-16.9,3.9,3.9,0,0,0,.28-7.6v-.22l-1.2.08a3.54,3.54,0,0,0-.62.09,120.42,120.42,0,0,0-43,18.07,3.89,3.89,0,0,0-1.15,5.4A3.87,3.87,0,0,0,144.92,47.53Z"/><path class="cls-1" d="M95.32,120.37a3.51,3.51,0,0,0,.72.07,4,4,0,0,0,3.83-3.09,112.46,112.46,0,0,1,16.9-40.16,3.9,3.9,0,0,0-1-5.43,3.9,3.9,0,0,0-2.31-.69,3.86,3.86,0,0,0-3.17,1.74,120.17,120.17,0,0,0-18.1,43,3.88,3.88,0,0,0,.6,2.93A3.93,3.93,0,0,0,95.32,120.37Z"/><path class="cls-1" d="M113.57,208.91a3.9,3.9,0,0,0,3.22-6.09,112.28,112.28,0,0,1-16.91-40.16A3.89,3.89,0,0,0,96,159.49H96a3.91,3.91,0,0,0-3.84,4,3.6,3.6,0,0,0,.09.76,120.13,120.13,0,0,0,18.09,43A3.91,3.91,0,0,0,113.57,208.91Z"/><ellipse class="cls-1" cx="93.68" cy="140" rx="17.75" ry="17.74"/><path class="cls-3" d="M83.74,140a9.95,9.95,0,1,1,9.94,9.94A10,10,0,0,1,83.74,140Z"/></svg>