<svg id="Layer_1" data-name="Layer 1" xmlns="http://www.w3.org/2000/svg" viewBox="0 0 420 280"><defs><style>.cls-1{fill:#fff;}.cls-2{fill:#4695eb;}.cls-3{fill:#ff004a;}</style></defs><path class="cls-1" d="M322.12,88.61a1.87,1.87,0,0,0,0-.34v0a3.08,3.08,0,0,0-.16-.54l-.05-.1a2.53,2.53,0,0,0-.28-.47l-.05,0a2.16,2.16,0,0,0-.37-.37l0,0h0a2.43,2.43,0,0,0-.47-.28l-.12,0-.13,0L176.75,39.55a2.55,2.55,0,0,0-1.34-.06l-76,17.59-.28.09-.07,0a2.42,2.42,0,0,0-.5.27l0,0,0,0a2.46,2.46,0,0,0-.41.38L98,58a2.2,2.2,0,0,0-.28.44l0,.06a2.43,2.43,0,0,0-.17.54s0,.08,0,.12a.68.68,0,0,0,0,.14,1.55,1.55,0,0,0,0,.43h0l8.37,96a2.47,2.47,0,0,0,1.12,1.88l127.14,82.55h0l0,0a2.13,2.13,0,0,0,.41.18,1.76,1.76,0,0,0,.2.09,2.59,2.59,0,0,0,.68.09,2.48,2.48,0,0,0,.61-.07l.17-.07a2.24,2.24,0,0,0,.39-.14l0,0h0l74.55-40.88a2.47,2.47,0,0,0,1.29-2l9.56-108.54a.16.16,0,0,0,0-.07A1.34,1.34,0,0,0,322.12,88.61ZM175.86,44.52,312,88.81l-16.27,6-57.43,21.23L108,60.23Zm-73,18.94,132.86,56.92-2.6,113.16L110.75,154.09Zm137,95.69.88-38.65,40-14.78-2.38,51.34-22.64,10.09a2.47,2.47,0,0,0-1.54,1.87l-.16.81a2.51,2.51,0,0,0,3.37,2.8L278,163.44l-2.31,49.74L238.1,233.8Zm67.87,36.5L281.57,210l2.3-49.13L299.35,154a2.52,2.52,0,0,0,1.59-2.22l0-.84a2.5,2.5,0,0,0-3.4-2.44l-13.4,6,2.39-50.89,30.23-11.18Z"/><path class="cls-1" d="M148.91,85.21l-.56-.26a2.53,2.53,0,0,0-2.44.22,2.48,2.48,0,0,0-1.08,2.19l4.49,86.76a2.51,2.51,0,0,0,1.17,2l.52.34a2.57,2.57,0,0,0,1.34.38,2.46,2.46,0,0,0,1.26-.34,2.49,2.49,0,0,0,1.24-2.28l-4.47-86.84A2.46,2.46,0,0,0,148.91,85.21Z"/><path class="cls-1" d="M175.66,97.24,175,97a2.5,2.5,0,0,0-3.53,2.36l2.77,90.56a2.53,2.53,0,0,0,1.16,2l.59.37a2.5,2.5,0,0,0,3.84-2.19l-2.73-90.65A2.52,2.52,0,0,0,175.66,97.24Z"/><path class="cls-1" d="M136.62,79.67l-.53-.24a2.52,2.52,0,0,0-2.45.23,2.48,2.48,0,0,0-1.07,2.21l5.22,85a2.5,2.5,0,0,0,1.16,2l.5.31a2.46,2.46,0,0,0,1.34.39,2.55,2.55,0,0,0,1.27-.34,2.5,2.5,0,0,0,1.22-2.31l-5.19-85A2.53,2.53,0,0,0,136.62,79.67Z"/><path class="cls-1" d="M113.92,69.46l-.49-.22a2.5,2.5,0,0,0-3.51,2.48l6.45,81.57a2.49,2.49,0,0,0,1.14,1.91l.47.3a2.5,2.5,0,0,0,3.83-2.31l-6.43-81.65A2.48,2.48,0,0,0,113.92,69.46Z"/><path class="cls-1" d="M125,74.43l-.51-.23a2.5,2.5,0,0,0-2.45.23,2.52,2.52,0,0,0-1.07,2.23l5.87,83.23a2.52,2.52,0,0,0,1.16,1.94l.48.3a2.49,2.49,0,0,0,3.83-2.28l-5.84-83.31A2.5,2.5,0,0,0,125,74.43Z"/><path class="cls-1" d="M161.91,91.05l-.6-.26a2.49,2.49,0,0,0-3.52,2.38l3.68,88.62a2.5,2.5,0,0,0,1.16,2l.55.35a2.52,2.52,0,0,0,1.35.39,2.49,2.49,0,0,0,2.49-2.6l-3.64-88.71A2.52,2.52,0,0,0,161.91,91.05Z"/><path class="cls-1" d="M190.24,103.81l-.67-.3a2.48,2.48,0,0,0-2.4.19,2.51,2.51,0,0,0-1.13,2.13l1.75,92.59a2.48,2.48,0,0,0,1.16,2.06l.62.4a2.57,2.57,0,0,0,1.34.38,2.42,2.42,0,0,0,1.22-.32,2.49,2.49,0,0,0,1.28-2.22L191.71,106A2.48,2.48,0,0,0,190.24,103.81Z"/><path class="cls-1" d="M205.73,110.78l-.72-.32a2.49,2.49,0,0,0-3.52,2.29l.59,94.69a2.5,2.5,0,0,0,1.16,2.1l.66.42a2.54,2.54,0,0,0,2.55.07,2.48,2.48,0,0,0,1.28-2.2L207.2,113A2.48,2.48,0,0,0,205.73,110.78Z"/><path class="cls-1" d="M222.21,118.2l-.77-.35a2.5,2.5,0,0,0-3.52,2.26L217.2,217a2.5,2.5,0,0,0,1.16,2.13l.7.44a2.51,2.51,0,0,0,1.34.39,2.57,2.57,0,0,0,1.2-.3,2.49,2.49,0,0,0,1.3-2.18l.78-97A2.48,2.48,0,0,0,222.21,118.2Z"/><path class="cls-2" d="M391.36,70.37H373.19V52.21a2.5,2.5,0,1,0-5,0V70.37H350.56a2.5,2.5,0,0,0,0,5h17.63V93a2.5,2.5,0,0,0,5,0V75.37h18.17a2.5,2.5,0,0,0,0-5Z"/><path class="cls-2" d="M57.67,183.46h-13v-13a2.5,2.5,0,0,0-5,0v13H27.07a2.5,2.5,0,1,0,0,5H39.68v12.6a2.5,2.5,0,0,0,5,0v-12.6h13a2.5,2.5,0,0,0,0-5Z"/><path class="cls-3" d="M125.22,222.29h-7.84v-7.83a2.5,2.5,0,0,0-5,0v7.83h-7.56a2.5,2.5,0,0,0,0,5h7.56v7.57a2.5,2.5,0,0,0,5,0v-7.57h7.84a2.5,2.5,0,0,0,0-5Z"/><path class="cls-3" d="M66.93,110.49H59.1v-7.83a2.5,2.5,0,0,0-5,0v7.83H46.53a2.5,2.5,0,1,0,0,5H54.1v7.57a2.5,2.5,0,0,0,5,0v-7.57h7.83a2.5,2.5,0,0,0,0-5Z"/><path class="cls-3" d="M296.78,39.34h-7.84V31.51a2.5,2.5,0,1,0-5,0v7.83h-7.56a2.5,2.5,0,0,0,0,5h7.56v7.57a2.5,2.5,0,1,0,5,0V44.34h7.84a2.5,2.5,0,0,0,0-5Z"/><path class="cls-3" d="M363,165.45h-7.83v-7.84a2.5,2.5,0,0,0-5,0v7.84h-7.57a2.5,2.5,0,0,0,0,5h7.57V178a2.5,2.5,0,1,0,5,0v-7.56H363a2.5,2.5,0,0,0,0-5Z"/></svg>