<svg id="Layer_1" data-name="Layer 1" xmlns="http://www.w3.org/2000/svg" viewBox="0 0 420 280"><defs><style>.cls-1{fill:#4695eb;}.cls-1,.cls-2,.cls-3{fill-rule:evenodd;}.cls-2{fill:#ff004a;}.cls-3{fill:#fff;}</style></defs><polygon class="cls-1" points="238.78 158.78 238.78 128.77 212.8 113.77 186.81 128.77 186.81 158.78 212.8 173.78 238.78 158.78"/><polygon class="cls-2" points="327.2 118.04 327.2 101.43 312.82 93.13 298.44 101.43 298.44 118.04 312.82 126.34 327.2 118.04"/><polygon class="cls-2" points="254.08 40.45 254.08 23.85 239.7 15.55 225.32 23.85 225.32 40.45 239.7 48.76 254.08 40.45"/><polygon class="cls-2" points="246.82 251.99 246.82 235.39 232.45 227.08 218.07 235.39 218.07 251.99 232.45 260.29 246.82 251.99"/><path class="cls-3" d="M344,143.3c0-8.11-4.24-15.8-11.7-22.75a22.35,22.35,0,0,1-5.24,6.36c5.09,5.11,8,10.62,8,16.39,0,15.39-19.76,29-50.28,37.6a256.3,256.3,0,0,0-12.16-34.42,268.53,268.53,0,0,0,15.16-39.84c.89.27,1.85.51,2.72.79a22.16,22.16,0,0,1,2.41-8c-1-.32-2-.6-3-.91,8.56-35,5.4-63-11-72.47-5.4-3.13-11.88-3.89-19-2.76a22.54,22.54,0,0,1,1.68,8.24c4.81-.5,9.18.13,12.87,2.26,13.34,7.7,15.27,31.67,7.4,62.41a259.39,259.39,0,0,0-41.73-7.32A265.93,265.93,0,0,0,216,59.45q5.28-5.22,10.47-9.57a22,22,0,0,1-5.7-5.93q-5.31,4.38-10.68,9.56c-26.3-25.42-52.44-37-69-27.4s-19.57,37.4-11,72.38C97.21,108.66,76,125,76,143.3c0,18.93,22.61,35.64,57.16,45.74-7.58,33.5-4.11,60.05,11.79,69.22,15.75,9.1,40.17-.9,65.15-23.77.53.48,1.06,1,1.58,1.48a22,22,0,0,1,4.45-7.17l0,0a256.41,256.41,0,0,0,26.52-31.28,261,261,0,0,0,36.21-6.24c7,29.23,4.72,51.85-8.16,59.29-4.86,2.8-10.88,3.09-17.61,1.41a22.28,22.28,0,0,1-4.58,7.19c10.19,3.34,19.37,3.34,26.66-.87,15.89-9.17,19.37-35.72,11.78-69.22C321.43,178.94,344,162.23,344,143.3Zm-64.42-38.92a263.34,263.34,0,0,1-11.81,31.45c-3.43-7.15-7.21-14.36-11.37-21.57q-4.73-8.17-9.74-15.77A254.72,254.72,0,0,1,279.62,104.38ZM228.61,88c-6.09-.36-12.28-.59-18.61-.59s-12.5.19-18.58.55A260.39,260.39,0,0,1,210,65.57,260.82,260.82,0,0,1,228.61,88Zm-83.09-54.2c13.49-7.8,35.6,2.88,58.59,25.63a264,264,0,0,0-24.23,29.42,260.27,260.27,0,0,0-41.79,7.29C130.24,65.47,132.19,41.53,145.52,33.84Zm6.68,102a262.48,262.48,0,0,1-11.83-31.5,253.06,253.06,0,0,1,33-5.89q-5,7.62-9.76,15.82C159.41,121.47,155.63,128.68,152.2,135.83Zm.28,21.06q3.41,6.6,7.22,13.22c3.55,6.16,7.26,12.06,11.06,17.74a258,258,0,0,1-27.4-4.85A249.57,249.57,0,0,1,152.48,156.89ZM84.89,143.3c0-14.87,18.48-28.12,47.27-36.71a267,267,0,0,0,15.17,39.9,254.8,254.8,0,0,0-12.16,34.41C104.65,172.35,84.89,158.69,84.89,143.3Zm64.49,107.23c-12.88-7.44-15.12-30.06-8.16-59.29a262.91,262.91,0,0,0,36.24,6.25A257.58,257.58,0,0,0,204,228.73C182.46,248.83,162.1,257.87,149.38,250.53ZM210,222.86a250.63,250.63,0,0,1-20.84-24.38q10.19.66,20.83.67c7.1,0,14.07-.23,20.87-.68A251.08,251.08,0,0,1,210,222.86Zm27.69-33.81c-8.92.75-18.18,1.17-27.7,1.17s-18.76-.42-27.66-1.17c-5.12-7.35-10.13-15.14-14.9-23.41-3.75-6.49-7.19-13-10.35-19.39,4.13-9,8.87-18.27,14.21-27.52,4.33-7.5,8.84-14.64,13.46-21.39,8.15-.62,16.59-1,25.24-1s17.1.36,25.27,1c4.61,6.73,9.11,13.87,13.42,21.34,5.34,9.25,10.09,18.48,14.22,27.52-3.16,6.42-6.6,12.9-10.35,19.39C247.8,173.9,242.81,181.71,237.7,189.05Zm11.58-1.21q5.68-8.49,11-17.73,3.82-6.62,7.22-13.22A249.57,249.57,0,0,1,276.64,183,255.17,255.17,0,0,1,249.28,187.84Z"/></svg>