<svg id="Layer_1" data-name="Layer 1" xmlns="http://www.w3.org/2000/svg" viewBox="0 0 420 280"><defs><style>.cls-1{fill:#4695eb;}.cls-2{fill:#fff;}</style></defs><path id="path3055" class="cls-1" d="M209.59,78.9a8,8,0,0,0-3,.77L165.06,99.49a7.89,7.89,0,0,0-4.29,5.34l-10.23,44.52a7.82,7.82,0,0,0,1.07,6,7.17,7.17,0,0,0,.45.63l28.72,35.7a8,8,0,0,0,6.2,3H233a8,8,0,0,0,6.2-2.95L267.93,156a7.8,7.8,0,0,0,1.53-6.66l-10.25-44.52a7.84,7.84,0,0,0-4.29-5.34L213.43,79.67A8,8,0,0,0,209.59,78.9Z"/><path id="path3059" class="cls-2" d="M210,94.05a2.64,2.64,0,0,0-2.49,2.76s0,0,0,.07c0,.21,0,.46,0,.64,0,.88.23,1.55.34,2.36a23,23,0,0,1,.28,4.5,2.74,2.74,0,0,1-.81,1.29l0,1a31.46,31.46,0,0,0-4.49.69,32,32,0,0,0-16.23,9.26c-.27-.18-.75-.53-.89-.63a2,2,0,0,1-1.48-.14,24,24,0,0,1-3.35-3,20.09,20.09,0,0,0-1.63-1.73c-.15-.13-.38-.31-.55-.44a2.94,2.94,0,0,0-1.73-.66,2.42,2.42,0,0,0-2,.88,2.63,2.63,0,0,0,.61,3.66l0,0c.16.13.36.3.51.41a19.94,19.94,0,0,0,2.06,1.2,23.07,23.07,0,0,1,3.69,2.6,2.74,2.74,0,0,1,.5,1.43l.8.71a32.11,32.11,0,0,0-5.07,22.4l-1,.3a3.35,3.35,0,0,1-1.07,1.08,23.06,23.06,0,0,1-4.45.73,22.17,22.17,0,0,0-2.38.19l-.66.16h-.06a2.49,2.49,0,1,0,1.1,4.84h0l.05,0c.2,0,.46-.09.64-.14a20.25,20.25,0,0,0,2.23-.86,22.83,22.83,0,0,1,4.33-1.27,2.78,2.78,0,0,1,1.42.5l1.09-.18a32.33,32.33,0,0,0,14.32,17.88l-.46,1.08a2.41,2.41,0,0,1,.23,1.4,24.86,24.86,0,0,1-2.25,4,19.67,19.67,0,0,0-1.33,2c-.1.18-.23.47-.32.67a2.49,2.49,0,1,0,4.48,2.12h0c.09-.19.22-.45.3-.63A19.15,19.15,0,0,0,195,175c.66-1.65,1-3.39,1.92-4.46A2,2,0,0,1,198,170l.56-1a32.15,32.15,0,0,0,18.66,1.34,32.85,32.85,0,0,0,4.26-1.29l.53,1a2,2,0,0,1,1.27.77,23.2,23.2,0,0,1,1.7,4.17,22.08,22.08,0,0,0,.72,2.28c.08.18.22.44.31.64a2.5,2.5,0,1,0,4.49-2.13c-.1-.19-.23-.48-.33-.66a19.51,19.51,0,0,0-1.33-2,23.38,23.38,0,0,1-2.2-3.94,2,2,0,0,1,.19-1.47,10.46,10.46,0,0,1-.41-1,32.31,32.31,0,0,0,14.31-18l1.06.19a2,2,0,0,1,1.39-.52,22.93,22.93,0,0,1,4.33,1.28,22.47,22.47,0,0,0,2.23.86l.64.13.05,0h0a2.49,2.49,0,1,0,1.1-4.83l-.72-.17a19.93,19.93,0,0,0-2.38-.2,22.31,22.31,0,0,1-4.45-.73,2.79,2.79,0,0,1-1.07-1.07l-1-.3A32.25,32.25,0,0,0,236.78,121l.88-.79a2,2,0,0,1,.47-1.41,22,22,0,0,1,3.69-2.59,22.08,22.08,0,0,0,2.06-1.21l.55-.44a2.49,2.49,0,1,0-3.09-3.88c-.17.13-.4.31-.55.44a20.25,20.25,0,0,0-1.64,1.73,23.36,23.36,0,0,1-3.35,3,2.78,2.78,0,0,1-1.51.17l-.94.67a32.54,32.54,0,0,0-20.61-10c0-.33-.06-.93-.06-1.11a2,2,0,0,1-.82-1.24,23.83,23.83,0,0,1,.29-4.5c.11-.81.3-1.48.34-2.36,0-.2,0-.49,0-.71A2.63,2.63,0,0,0,210,94.05Zm-3.11,19.26-.74,13-.05,0a2.19,2.19,0,0,1-3.48,1.68h0l-10.68-7.57a25.55,25.55,0,0,1,12.32-6.71C205.12,113.57,206,113.42,206.89,113.31Zm6.22,0A25.82,25.82,0,0,1,228,120.48L217.38,128l0,0a2.19,2.19,0,0,1-3.48-1.67h0Zm-25.06,12,9.75,8.73v.05a2.19,2.19,0,0,1,.28,3,2.24,2.24,0,0,1-1.14.75v0l-12.5,3.61A25.52,25.52,0,0,1,188.05,125.34Zm43.83,0a26,26,0,0,1,3.74,16.14l-12.57-3.62v-.05a2.19,2.19,0,0,1-.86-3.76v0l9.7-8.68ZM208,134.74h4l2.49,3.1-.9,3.88L210,143.44l-3.6-1.73-.89-3.87Zm12.8,10.62a2.19,2.19,0,0,1,.51,0l0,0,12.93,2.19a25.59,25.59,0,0,1-10.35,13l-5-12.12,0,0a2.19,2.19,0,0,1,1.06-2.84,2.28,2.28,0,0,1,.83-.22Zm-21.71,0a2.19,2.19,0,0,1,2.1,1.71,2.14,2.14,0,0,1-.12,1.35l0,0-5,12a25.74,25.74,0,0,1-10.32-12.91l12.82-2.17,0,0a3.13,3.13,0,0,1,.43,0Zm10.83,5.26a2.19,2.19,0,0,1,1,.22,2.16,2.16,0,0,1,1,.93H212l6.32,11.42a25.44,25.44,0,0,1-2.53.71,25.8,25.8,0,0,1-14-.72l6.31-11.4h0A2.18,2.18,0,0,1,209.92,150.67Z"/><path class="cls-2" d="M244.18,204.67C264,180.4,297.82,173.28,327.65,178l6.23,1-3.81,5c-19,25.1-54,32.89-83.73,26.79l-6.11-1.25,4-4.84Z"/><path class="cls-2" d="M251.92,26.07c20.91,16.82,33.4,44.69,28.21,71.5L279,103.45l-4.81-3.56C252.75,84,238.26,54.59,245.92,28l1.58-5.45,4.42,3.55Z"/><path class="cls-2" d="M338.1,112.37C334,141.54,313,171.14,283.16,177.73L277.63,179l1-5.58c5.32-29.26,25.72-56,54.59-65.13l5.7-1.8-.83,5.93Z"/><path class="cls-2" d="M307,48.28c11.07,25.54,7.7,56.44-9.37,78.56l-4,5.19L291.1,126c-10.43-25.64-7.83-56.41,9.42-78.5l3.91-5L307,48.28Z"/><path class="cls-2" d="M119.48,47.46c17.25,22.09,19.85,52.86,9.41,78.5L126.42,132l-4-5.19c-17.07-22.12-20.43-53-9.37-78.56l2.53-5.83,3.91,5Z"/><path class="cls-2" d="M173.66,210.76c-29.7,6.09-64.74-1.69-83.73-26.79l-3.81-5,6.23-1c29.83-4.68,63.61,2.44,83.47,26.71l4,4.83-6.11,1.26Z"/><path class="cls-2" d="M174.07,28c7.67,26.62-6.81,56.06-28.25,71.92L141,103.45l-1.13-5.88c-5.19-26.81,7.3-54.68,28.21-71.5l4.43-3.55L174.07,28Z"/><path class="cls-2" d="M86.78,108.24c28.86,9.12,49.27,35.87,54.59,65.13l1,5.58-5.54-1.22C107,171.14,86,141.54,81.9,112.37l-.83-5.93,5.71,1.8Z"/><path class="cls-2" d="M231,231.75c4.86,5.17,9.9,10.14,15.74,14.07l4,2.7-3.6,3.24c-1.49,1.34-3,2.68-4.42,4l-1.8,1.68-2.27-1c-13.89-6-17.83-20.92-28.62-28-10.79,7-14.73,22-28.62,28l-2.27,1-1.81-1.68c-1.46-1.36-2.92-2.7-4.41-4l-3.59-3.24,4-2.69c5.83-3.94,10.88-8.91,15.74-14.08-6.66,3.3-13.27,7.1-20.85,8.52-13.54,2.27-28,3.08-40.89-2.53L121.08,235l5.59-3.86c12.73-8.78,26.39-17,42.22-18.22,12.45-.68,25.08-.37,37.29,2.44l.16,0,.16,0a11.2,11.2,0,0,0,7,0l.16,0,.16,0c12.2-2.81,24.84-3.12,37.34-2.44,15.79,1.26,29.45,9.45,42.17,18.22l5.58,3.86-6.22,2.71c-12.87,5.62-27.36,4.8-40.93,2.52-7.56-1.42-14.16-5.21-20.81-8.51Z"/></svg>