<?xml version="1.0" encoding="UTF-8"?>
<svg id="Layer_1" data-name="Layer 1" xmlns="http://www.w3.org/2000/svg" viewBox="0 0 631.11 285.19">
  <defs>
    <style>
      .cls-1 {
        fill: #4695eb;
      }

      .cls-2 {
        fill: #fff;
      }
    </style>
  </defs>
  <path class="cls-2" d="M67.27,63.71c0,4.27-1.06,7.92-3.18,10.92-2.12,3.01-5.09,5.3-8.9,6.88-3.81,1.58-8.3,2.37-13.46,2.37-2.73,0-5.31-.13-7.74-.39-2.43-.26-4.67-.64-6.71-1.13-2.04-.49-3.83-1.1-5.38-1.82v-8.04c2.47,1.02,5.47,1.96,9.02,2.84,3.55.87,7.27,1.31,11.15,1.31,3.62,0,6.67-.48,9.17-1.45,2.5-.97,4.4-2.37,5.7-4.19,1.3-1.82,1.95-4.02,1.95-6.58s-.54-4.53-1.63-6.19-2.88-3.17-5.4-4.54c-2.51-1.36-5.94-2.82-10.28-4.36-3.06-1.08-5.75-2.28-8.09-3.58-2.33-1.3-4.29-2.77-5.87-4.41-1.58-1.64-2.77-3.55-3.58-5.72s-1.21-4.65-1.21-7.45c0-3.85.98-7.14,2.93-9.89,1.96-2.75,4.67-4.85,8.14-6.31s7.45-2.19,11.96-2.19c3.85,0,7.41.36,10.68,1.08,3.27.72,6.27,1.69,9,2.91l-2.61,7.2c-2.6-1.08-5.35-1.99-8.26-2.71-2.91-.72-5.91-1.08-9-1.08s-5.7.45-7.82,1.36c-2.12.9-3.74,2.18-4.86,3.82-1.12,1.64-1.68,3.6-1.68,5.87,0,2.53.53,4.64,1.6,6.31s2.78,3.16,5.13,4.46,5.47,2.66,9.35,4.07c4.24,1.55,7.84,3.18,10.8,4.91,2.96,1.73,5.21,3.83,6.76,6.31,1.54,2.48,2.32,5.63,2.32,9.44Z"/>
  <path class="cls-2" d="M132.47,10.8v46.65c0,5.1-1.03,9.63-3.08,13.61-2.06,3.98-5.15,7.11-9.3,9.39-4.14,2.29-9.34,3.43-15.58,3.43-8.91,0-15.69-2.42-20.34-7.25s-6.98-11.29-6.98-19.38V10.8h8.43v46.7c0,6.12,1.62,10.83,4.86,14.15,3.24,3.32,8.08,4.98,14.52,4.98,4.41,0,8.01-.8,10.82-2.39,2.81-1.59,4.9-3.83,6.26-6.71,1.36-2.88,2.05-6.21,2.05-9.99V10.8h8.33Z"/>
  <path class="cls-2" d="M166.36,10.8c9.3,0,16.1,1.82,20.39,5.45,4.29,3.63,6.44,8.84,6.44,15.61,0,3.06-.5,5.96-1.5,8.7-1,2.75-2.62,5.16-4.86,7.25-2.24,2.09-5.17,3.73-8.8,4.93-3.63,1.2-8.08,1.8-13.34,1.8h-8.78v28.36h-8.38V10.8h18.84ZM165.57,17.95h-9.67v29.39h7.84c4.6,0,8.44-.49,11.52-1.48s5.38-2.59,6.93-4.81c1.54-2.22,2.32-5.17,2.32-8.85,0-4.8-1.53-8.38-4.59-10.73-3.06-2.35-7.84-3.53-14.35-3.53Z"/>
  <path class="cls-2" d="M244.38,82.9h-40.14V10.8h40.14v7.4h-31.76v23.33h29.94v7.3h-29.94v26.68h31.76v7.4Z"/>
  <path class="cls-2" d="M275.8,10.8c5.92,0,10.81.73,14.67,2.19,3.86,1.46,6.75,3.69,8.66,6.68,1.91,2.99,2.86,6.81,2.86,11.44,0,3.81-.69,7-2.07,9.54s-3.19,4.61-5.42,6.19c-2.24,1.58-4.62,2.79-7.15,3.65l19.78,32.4h-9.76l-17.66-30.08h-14.99v30.08h-8.38V10.8h19.48ZM275.3,18.04h-10.6v27.67h11.44c5.88,0,10.22-1.2,13-3.6,2.78-2.4,4.17-5.93,4.17-10.6,0-4.9-1.47-8.37-4.41-10.41-2.94-2.04-7.47-3.06-13.59-3.06Z"/>
  <path class="cls-2" d="M355.3,63.71c0,4.27-1.06,7.92-3.18,10.92-2.12,3.01-5.09,5.3-8.9,6.88-3.81,1.58-8.3,2.37-13.46,2.37-2.73,0-5.31-.13-7.74-.39-2.43-.26-4.67-.64-6.71-1.13-2.04-.49-3.83-1.1-5.38-1.82v-8.04c2.47,1.02,5.47,1.96,9.02,2.84,3.55.87,7.27,1.31,11.15,1.31,3.62,0,6.67-.48,9.17-1.45,2.5-.97,4.4-2.37,5.7-4.19,1.3-1.82,1.95-4.02,1.95-6.58s-.54-4.53-1.63-6.19-2.88-3.17-5.4-4.54c-2.51-1.36-5.94-2.82-10.28-4.36-3.06-1.08-5.75-2.28-8.09-3.58-2.33-1.3-4.29-2.77-5.87-4.41-1.58-1.64-2.77-3.55-3.58-5.72s-1.21-4.65-1.21-7.45c0-3.85.98-7.14,2.93-9.89,1.96-2.75,4.67-4.85,8.14-6.31s7.45-2.19,11.96-2.19c3.85,0,7.41.36,10.68,1.08,3.27.72,6.27,1.69,9,2.91l-2.61,7.2c-2.6-1.08-5.35-1.99-8.26-2.71-2.91-.72-5.91-1.08-9-1.08s-5.7.45-7.82,1.36c-2.12.9-3.74,2.18-4.86,3.82-1.12,1.64-1.68,3.6-1.68,5.87,0,2.53.53,4.64,1.6,6.31s2.78,3.16,5.13,4.46,5.47,2.66,9.35,4.07c4.24,1.55,7.84,3.18,10.8,4.91,2.96,1.73,5.21,3.83,6.76,6.31,1.54,2.48,2.32,5.63,2.32,9.44Z"/>
  <path class="cls-2" d="M428.49,46.75c0,5.56-.71,10.61-2.12,15.16-1.41,4.55-3.51,8.47-6.29,11.74-2.78,3.27-6.22,5.79-10.33,7.57-4.11,1.78-8.88,2.66-14.3,2.66s-10.46-.89-14.62-2.66c-4.16-1.78-7.61-4.31-10.36-7.59-2.75-3.29-4.8-7.22-6.17-11.79-1.36-4.57-2.05-9.63-2.05-15.19,0-7.36,1.22-13.82,3.65-19.38,2.43-5.56,6.12-9.88,11.07-12.97,4.95-3.09,11.15-4.64,18.62-4.64s13.14,1.53,18.02,4.59c4.88,3.06,8.58,7.36,11.1,12.9,2.51,5.54,3.77,12.07,3.77,19.6ZM371.08,46.75c0,6.12.87,11.41,2.61,15.88,1.74,4.47,4.41,7.92,8.01,10.36,3.6,2.43,8.18,3.65,13.73,3.65s10.17-1.22,13.73-3.65c3.57-2.43,6.21-5.88,7.92-10.36,1.71-4.47,2.56-9.76,2.56-15.88,0-9.3-1.95-16.58-5.84-21.82-3.9-5.24-9.97-7.87-18.22-7.87-5.59,0-10.19,1.2-13.81,3.6-3.62,2.4-6.3,5.81-8.06,10.23-1.76,4.42-2.64,9.71-2.64,15.85Z"/>
  <path class="cls-2" d="M496.84,82.9h-9.67l-39.31-60.56h-.39c.1,1.61.21,3.44.35,5.5.13,2.05.24,4.24.32,6.56.08,2.32.12,4.68.12,7.08v41.43h-7.79V10.8h9.62l39.16,60.36h.34c-.07-1.15-.15-2.79-.25-4.91-.1-2.12-.19-4.41-.27-6.85s-.12-4.73-.12-6.83V10.8h7.89v72.1Z"/>
  <path class="cls-2" d="M512.48,82.9V10.8h8.38v72.1h-8.38Z"/>
  <path class="cls-2" d="M567.47,17.16c-3.98,0-7.55.68-10.73,2.05-3.17,1.36-5.87,3.34-8.09,5.92-2.22,2.58-3.92,5.7-5.1,9.35s-1.78,7.76-1.78,12.33c0,6.05.95,11.3,2.84,15.76s4.72,7.9,8.48,10.33c3.76,2.43,8.47,3.65,14.13,3.65,3.22,0,6.25-.27,9.1-.81,2.84-.54,5.61-1.22,8.31-2.05v7.3c-2.63.99-5.39,1.72-8.29,2.19-2.89.48-6.33.71-10.31.71-7.33,0-13.46-1.52-18.37-4.56s-8.6-7.34-11.05-12.9c-2.45-5.56-3.67-12.11-3.67-19.68,0-5.46.76-10.45,2.29-14.97,1.53-4.52,3.76-8.42,6.71-11.71,2.94-3.29,6.56-5.83,10.85-7.62,4.29-1.79,9.21-2.69,14.77-2.69,3.65,0,7.17.36,10.55,1.08,3.39.72,6.44,1.76,9.17,3.11l-3.35,7.1c-2.3-1.05-4.83-1.96-7.57-2.74-2.75-.77-5.71-1.16-8.9-1.16Z"/>
  <path class="cls-1" d="M622.32,10.8l-26.83,72.1h-8.09l26.88-72.1h8.04Z"/>
  <path class="cls-2" d="M67.27,151.52c0,4.27-1.06,7.92-3.18,10.92-2.12,3.01-5.09,5.3-8.9,6.88-3.81,1.58-8.3,2.37-13.46,2.37-2.73,0-5.31-.13-7.74-.39-2.43-.26-4.67-.64-6.71-1.13-2.04-.49-3.83-1.1-5.38-1.83v-8.04c2.47,1.02,5.47,1.96,9.02,2.83,3.55.87,7.27,1.31,11.15,1.31,3.62,0,6.67-.49,9.17-1.46,2.5-.97,4.4-2.37,5.7-4.19,1.3-1.82,1.95-4.02,1.95-6.58s-.54-4.53-1.63-6.19-2.88-3.17-5.4-4.54c-2.51-1.36-5.94-2.82-10.28-4.36-3.06-1.08-5.75-2.28-8.09-3.58-2.33-1.3-4.29-2.77-5.87-4.41-1.58-1.64-2.77-3.55-3.58-5.72s-1.21-4.65-1.21-7.45c0-3.85.98-7.14,2.93-9.89,1.96-2.75,4.67-4.85,8.14-6.31s7.45-2.19,11.96-2.19c3.85,0,7.41.36,10.68,1.08,3.27.72,6.27,1.69,9,2.91l-2.61,7.2c-2.6-1.08-5.35-1.99-8.26-2.71-2.91-.72-5.91-1.08-9-1.08s-5.7.45-7.82,1.36c-2.12.9-3.74,2.18-4.86,3.82-1.12,1.64-1.68,3.6-1.68,5.87,0,2.53.53,4.64,1.6,6.31s2.78,3.16,5.13,4.46c2.35,1.3,5.47,2.66,9.35,4.07,4.24,1.55,7.84,3.18,10.8,4.91,2.96,1.73,5.21,3.83,6.76,6.31,1.54,2.48,2.32,5.63,2.32,9.44Z"/>
  <path class="cls-2" d="M132.47,98.6v46.65c0,5.1-1.03,9.63-3.08,13.61-2.06,3.98-5.15,7.11-9.3,9.39-4.14,2.29-9.34,3.43-15.58,3.43-8.91,0-15.69-2.42-20.34-7.25s-6.98-11.29-6.98-19.38v-46.46h8.43v46.7c0,6.12,1.62,10.83,4.86,14.15,3.24,3.32,8.08,4.98,14.52,4.98,4.41,0,8.01-.8,10.82-2.39,2.81-1.59,4.9-3.83,6.26-6.71,1.36-2.88,2.05-6.21,2.05-9.99v-46.75h8.33Z"/>
  <path class="cls-2" d="M147.52,98.6h20.42c9.01,0,15.78,1.35,20.32,4.04,4.54,2.7,6.81,7.28,6.81,13.76,0,2.79-.53,5.3-1.6,7.52-1.07,2.22-2.62,4.05-4.66,5.5-2.04,1.45-4.55,2.45-7.55,3.01v.49c3.16.49,5.95,1.4,8.38,2.71,2.43,1.32,4.34,3.16,5.72,5.52s2.07,5.38,2.07,9.02c0,4.44-1.03,8.19-3.08,11.24-2.06,3.06-4.96,5.37-8.7,6.93-3.75,1.56-8.19,2.34-13.32,2.34h-24.81v-72.1ZM155.9,129.52h13.81c6.28,0,10.63-1.04,13.04-3.11,2.42-2.07,3.62-5.1,3.62-9.07s-1.44-7.07-4.32-8.88c-2.88-1.81-7.46-2.71-13.73-2.71h-12.43v23.77ZM155.9,136.57v26.98h14.99c6.41,0,10.95-1.26,13.61-3.77,2.66-2.51,3.99-5.91,3.99-10.18,0-2.73-.6-5.06-1.8-7-1.2-1.94-3.14-3.43-5.82-4.46-2.68-1.04-6.26-1.55-10.73-1.55h-14.25Z"/>
  <path class="cls-2" d="M253.94,170.7l-8.88-22.88h-28.9l-8.83,22.88h-8.48l28.21-72.4h7.55l28.01,72.4h-8.68ZM242.55,140.37l-8.43-22.73c-.2-.59-.52-1.56-.96-2.91-.44-1.35-.9-2.74-1.36-4.19-.46-1.45-.84-2.61-1.13-3.5-.33,1.35-.68,2.69-1.06,4.02-.38,1.33-.75,2.56-1.11,3.7-.36,1.13-.67,2.1-.94,2.88l-8.58,22.73h23.57Z"/>
  <path class="cls-2" d="M290.69,170.7h-8.43v-64.7h-22.69v-7.4h53.71v7.4h-22.59v64.7Z"/>
  <path class="cls-2" d="M382.67,134.55c0,5.56-.71,10.61-2.12,15.16-1.41,4.55-3.51,8.47-6.29,11.74-2.78,3.27-6.22,5.79-10.33,7.57-4.11,1.78-8.88,2.66-14.3,2.66s-10.46-.89-14.62-2.66c-4.16-1.78-7.61-4.31-10.36-7.59-2.75-3.29-4.8-7.22-6.17-11.79-1.36-4.57-2.05-9.63-2.05-15.19,0-7.36,1.22-13.82,3.65-19.38,2.43-5.56,6.12-9.88,11.07-12.97,4.95-3.09,11.15-4.64,18.62-4.64s13.14,1.53,18.02,4.59c4.88,3.06,8.58,7.36,11.1,12.9,2.51,5.54,3.77,12.07,3.77,19.6ZM325.26,134.55c0,6.12.87,11.41,2.61,15.88,1.74,4.47,4.41,7.92,8.01,10.36,3.6,2.43,8.18,3.65,13.73,3.65s10.17-1.22,13.73-3.65c3.57-2.43,6.21-5.88,7.92-10.36,1.71-4.47,2.56-9.76,2.56-15.88,0-9.3-1.95-16.58-5.84-21.82-3.9-5.24-9.97-7.87-18.22-7.87-5.59,0-10.19,1.2-13.81,3.6-3.62,2.4-6.3,5.81-8.06,10.23-1.76,4.42-2.64,9.71-2.64,15.85Z"/>
  <path class="cls-2" d="M426.37,170.7l-24.21-63.81h-.39c.13,1.35.25,2.99.35,4.93.1,1.94.18,4.05.25,6.34.07,2.29.1,4.61.1,6.98v45.57h-7.79v-72.1h12.43l22.83,59.97h.35l23.18-59.97h12.33v72.1h-8.29v-46.16c0-2.14.03-4.28.1-6.44.07-2.15.15-4.19.25-6.12.1-1.92.2-3.59.3-5.01h-.39l-24.51,63.72h-6.85Z"/>
  <path class="cls-2" d="M481.46,170.7v-72.1h8.38v72.1h-8.38Z"/>
  <path class="cls-2" d="M536.45,104.96c-3.98,0-7.55.68-10.73,2.05-3.17,1.36-5.87,3.34-8.09,5.92-2.22,2.58-3.92,5.7-5.1,9.35s-1.78,7.76-1.78,12.33c0,6.05.94,11.3,2.84,15.76,1.89,4.46,4.72,7.9,8.48,10.33,3.76,2.43,8.47,3.65,14.13,3.65,3.22,0,6.25-.27,9.1-.81,2.84-.54,5.61-1.22,8.31-2.05v7.3c-2.63.99-5.39,1.72-8.29,2.19-2.89.48-6.33.71-10.31.71-7.33,0-13.46-1.52-18.37-4.56-4.92-3.04-8.6-7.34-11.05-12.9-2.45-5.56-3.67-12.11-3.67-19.68,0-5.46.76-10.45,2.29-14.97,1.53-4.52,3.76-8.42,6.71-11.71,2.94-3.29,6.56-5.83,10.85-7.62,4.29-1.79,9.21-2.69,14.77-2.69,3.65,0,7.17.36,10.55,1.08,3.39.72,6.44,1.76,9.17,3.11l-3.35,7.1c-2.3-1.05-4.83-1.96-7.57-2.74-2.75-.77-5.71-1.16-8.9-1.16Z"/>
  <path class="cls-1" d="M591.29,98.6l-26.83,72.1h-8.09l26.88-72.1h8.04Z"/>
  <path class="cls-2" d="M16.18,277.49c-1.64,0-3.09-.12-4.34-.34-1.25-.23-2.32-.54-3.21-.94v-7.15c1.05.33,2.19.58,3.4.76,1.22.18,2.53.27,3.95.27,1.84,0,3.53-.36,5.08-1.09,1.54-.72,2.78-1.96,3.7-3.7.92-1.74,1.38-4.14,1.38-7.2v-71.71h8.43v71.06c0,4.5-.75,8.24-2.24,11.2s-3.62,5.17-6.36,6.63c-2.75,1.46-6.01,2.19-9.79,2.19Z"/>
  <path class="cls-2" d="M94.89,258.5l-8.88-22.88h-28.9l-8.83,22.88h-8.48l28.21-72.4h7.55l28.01,72.4h-8.68ZM83.5,228.17l-8.43-22.73c-.2-.59-.52-1.56-.96-2.91-.44-1.35-.9-2.74-1.36-4.19-.46-1.45-.84-2.61-1.13-3.5-.33,1.35-.68,2.69-1.06,4.02-.38,1.33-.75,2.56-1.11,3.7-.36,1.13-.67,2.1-.94,2.88l-8.58,22.73h23.57Z"/>
  <path class="cls-2" d="M159.85,186.4l-25.89,72.1h-8.43l-25.89-72.1h8.78l16.87,47.49c.69,1.91,1.31,3.73,1.85,5.47.54,1.74,1.03,3.42,1.45,5.03.43,1.61.81,3.17,1.13,4.68.33-1.51.71-3.08,1.13-4.71.43-1.63.92-3.32,1.48-5.08.56-1.76,1.18-3.61,1.87-5.55l16.77-47.34h8.88Z"/>
  <path class="cls-2" d="M210.89,258.5l-8.88-22.88h-28.9l-8.83,22.88h-8.48l28.21-72.4h7.55l28.01,72.4h-8.68ZM199.5,228.17l-8.43-22.73c-.2-.59-.52-1.56-.96-2.91-.44-1.35-.9-2.74-1.36-4.19-.46-1.45-.84-2.61-1.13-3.5-.33,1.35-.68,2.69-1.06,4.02-.38,1.33-.75,2.56-1.11,3.7-.36,1.13-.67,2.1-.94,2.88l-8.58,22.73h23.57Z"/>
</svg>