<?xml version="1.0" encoding="utf-8"?>
<!-- Generator: Adobe Illustrator 28.3.0, SVG Export Plug-In . SVG Version: 6.00 Build 0)  -->
<svg version="1.1" id="Layer_1" xmlns="http://www.w3.org/2000/svg" xmlns:xlink="http://www.w3.org/1999/xlink" x="0px" y="0px"
	 viewBox="0 0 600 300" style="enable-background:new 0 0 600 300;" xml:space="preserve">
<style type="text/css">
	.st0{fill:#091313;}
	.st1{fill:#FFFFFF;}
	.st2{fill:#FF004A;}
	.st3{fill:#4695EB;}
	.st4{fill:none;stroke:#000000;stroke-width:0.3143;stroke-miterlimit:10;}
	.st5{fill-rule:evenodd;clip-rule:evenodd;fill:#4695EB;}
</style>
<g>
	<path class="st0" d="M494.2,262.7c-3.3,0.2-6.3,0.2-8.9,0l-58.7,4v-0.2c-2.8,0.7-5.8,1.2-8.9,1.4c-6.1,0.4-11.6-0.2-16.5-1.9v2.4
		l-46.5,3.1v-2.1c-4.6,2.1-9.7,3.4-15.5,3.7c-7.9,0.5-14.8-0.8-20.5-3.9c-5.5,3.5-11.9,5.5-19.4,6L125.9,287v-0.2
		c-2.8,0.7-5.8,1.2-8.9,1.4c-6.9,0.5-13-0.4-18.4-2.6c-5.9,2.9-12.4,4.7-19.4,5.2c-14.6,1-23.4-4.6-28.2-9.5
		c-6.6-6.7-9.9-16.1-9.9-28c0-7.3,1.5-14.1,4.4-20.2c0.5-1.1,1.1-2.1,1.7-3.1c-3-0.2-5.8-1.2-8.2-2.9c0,0-0.1,0-0.1,0
		c-2.2,0.1-4.3-0.1-6.3-0.7l-13.2-4.1l2.2-14.1c1.5-9.5,12.9-31,22.5-48c-7,3-13.7,5.6-17.6,6.4l-9.5,2l-6.1-6.9
		C7.7,157.9,6.3,153,7,148c0.9-5.9,4.1-9.9,8.5-13.5l-1.2-2.2l7.2-9.1c0.3-0.3,0.8-0.9,1.4-1.7c2.8-3.3,4-4.9,4.5-5.6l1.4-3.8
		c0,0,1.9-1.5,2.4-1.9c-0.4-4.8,1.2-9.8,4.6-13.8l2-2.3l2.6-1.6c4.7-2.9,12-6.8,21.1-11.8c24.9-13.6,62.5-34,80.9-50.4l6-5.4
		l7.7,0.8c3.6,0.4,6.9,1.9,9.4,4.2c3.4-2.6,7.1-4.6,11.8-4.9c2.1-0.1,4.1,0.1,6.1,0.7l20.2,6l-5.1,8.3c4.5-1.5,9.1-3,13.6-4.3
		c11-3.9,21.8-6.3,32.1-7c1.9-0.1,3.9-0.2,5.8-0.2c7.3,0,22.3,2.1,31.6,7.9c6.2,3.7,10.9,7.5,13.1,13.1c2.7,2.4,4.8,5.4,6.4,8.5
		c0.6-0.5,1.1-0.9,1.7-1.4V47l10-5.3c10.2-5.4,28.5-11.6,42.2-15.7c11-3.9,21.8-6.3,32.1-7c1.9-0.1,3.9-0.2,5.8-0.2
		c7.3,0,22.3,2.1,31.6,7.9c6.2,3.7,10.9,7.5,13.1,13.1c2.7,2.4,4.8,5.4,6.4,8.5c0.6-0.5,1.1-0.9,1.7-1.4v-9.5l10-5.3
		c10.2-5.4,28.5-11.6,42.2-15.7c11-3.9,21.8-6.3,32.1-7c1.9-0.1,3.9-0.2,5.8-0.2c7.3,0,22.3,2.1,31.6,7.9
		c6.2,3.7,10.9,7.5,13.1,13.1c9.4,8.6,12.2,24.5,12.4,28.5c0.3,4.3,0,8.6-0.2,12.7l0,0.4l0,0.4c-1.3,13.5-6.1,27.8-14.4,42.7l5,4
		l-2.9,4.9c-10.7,17.8-29,31.7-43.8,43c-3.5,2.7-6.7,5.1-9.4,7.3l-0.3,0.3c-3.3,2.6-8,5.9-13.6,9.5c1.8,0.5,3.6,1.1,5.4,1.7
		l15.1,5.7l-8.9,22.9c2.6,4.3,4,9.3,4,15c0,6.2-1.7,11.9-4.9,17.2c-2.9,4.7-7,8.5-12,11.4l-10.4,4.1
		C499.3,262.2,496.8,262.6,494.2,262.7z M96.9,212.1c0.6,0.2,1.2,0.4,1.8,0.6c3.4-1.8,7.1-3.1,11-4l-0.9-1c-2.1-2.3-3.8-5.4-5-9.2
		C101.6,202.7,99.3,207.3,96.9,212.1z M239.7,200.1c2.4-0.2,4.7-0.2,6.8-0.1v-0.4l6.2-0.4l-1.1-1.2c-2.1-2.3-3.7-5.2-4.9-8.9
		c-1.8,1.4-3.6,2.8-5.1,4l-0.3,0.3c-2.5,1.9-6,4.5-10.2,7.3L239.7,200.1z M395.6,189.5l-1.1-1.2c-2.1-2.3-3.7-5.2-4.9-8.9
		c-1.9,1.4-3.6,2.8-5.1,4l-0.4,0.3c-2.5,1.9-5.9,4.4-10.1,7.2L395.6,189.5z M487.9,116.5c6.1-5.4,12.1-11.6,16.7-17.6
		c4.5-5.8,8.1-11.7,10.6-17c-4.4,2.1-9.2,5-14,8.6c-7.9,10.1-12,16.9-13.4,19.7V116.5z M202.2,135.8c6.1-5.4,12.1-11.6,16.7-17.6
		c4.5-5.8,8.1-11.7,10.6-17c-4.4,2.1-9.2,5-14,8.6c-7.9,10.1-12,16.9-13.4,19.7V135.8z M345,126.2c6.1-5.4,12.1-11.6,16.7-17.6
		c4.5-5.8,8.1-11.7,10.6-17c-4.4,2.1-9.2,5-14,8.6c-7.9,10.1-12,16.9-13.4,19.7V126.2z"/>
	<path class="st1" d="M586.6,59.4c-0.3-4.6-3.5-19-11.6-25.3c-1.3-4.8-5.3-8-11.1-11.5c-7.8-4.8-21.2-7-28.4-7
		c-1.8,0-3.6,0.1-5.4,0.2c-9.8,0.7-20,2.9-30.5,6.7c-12.9,3.8-31.3,10-41.1,15.2l-6.2,3.3v6.9c0,0.5,0,1,0.1,1.6
		c-3.7,3-7.4,6.1-10.9,9.3c-1.8-5.5-4.8-11.6-9.4-15.1c-1.3-4.8-5.3-8-11.1-11.5c-7.8-4.8-21.2-7-28.4-7c-1.8,0-3.6,0.1-5.4,0.2
		c-9.8,0.7-20,2.9-30.5,6.7c-12.9,3.8-31.3,10-41.1,15.2l-6.2,3.3v6.9c0,0.5,0,1,0.1,1.6c-3.7,3-7.4,6.1-10.9,9.3
		c-1.8-5.5-4.8-11.6-9.4-15.1c-1.3-4.8-5.3-8-11.1-11.5c-7.8-4.8-21.2-7-28.4-7c-1.8,0-3.6,0.1-5.4,0.2c-9.8,0.7-20,2.9-30.5,6.7
		c-9,2.6-20.5,6.4-30.1,10.2c1-1.5,2-3.1,2.9-4.6l7.2-11.8l-12.6-3.7c-1.2-0.4-2.5-0.5-3.9-0.4c-4.9,0.3-8.2,3.3-13.4,8.3
		c-0.2-0.7-0.4-1.4-0.8-2.2c-1.5-3.1-4.5-5.1-8-5.5l-4.8-0.5l-3.8,3.4c-19,16.9-57,37.6-82.2,51.3c-9.1,5-16.3,8.9-20.9,11.7l-1.6,1
		l-1.2,1.5c-2.8,3.3-3.7,7.6-2.5,11.3c0.1,0.3,0.2,0.5,0.3,0.8c-0.7,0.5-4.3,3.4-4.3,3.4l-1,2.6c-0.7,1.1-2.5,3.4-5.4,6.9
		c-0.6,0.7-1,1.3-1.3,1.5l-4.5,5.7l1.8,3.4c-6.5,4.7-9.7,7.6-10.4,12.5c-0.5,3.2,0.4,6.3,2.4,8.6l3.8,4.3l5.9-1.2
		c5.5-1.1,19.6-7.2,33.8-13.9c-14.2,23.7-29.8,52.5-31.4,62.4l-1.4,8.8l8.2,2.5c1.3,0.4,2.6,0.5,4,0.5c0.8-0.1,1.6-0.2,2.4-0.4
		c2.1,2.3,5.1,3.5,8.3,3.3c2.2-0.1,4.3-0.9,6.2-2.3c1.6-1.1,2.9-2.1,4.1-2.9c0,0.1-0.1,0.3-0.1,0.4c-0.6,2.5-1.3,5.1-1.8,7.6
		c-2.7,2.7-4.9,5.8-6.6,9.3c-2.5,5.2-3.7,11-3.7,17.3c0,10.2,2.8,18.2,8.2,23.7c3.9,4,11.2,8.6,23.5,7.8c6.2-0.4,11.9-2,17-4.6
		l2.6-1.3c5,2.7,11.1,3.8,18.1,3.3c5.8-0.4,11-1.8,15.4-4.1v2.4l56.3-3.8l7.9-0.5l17.7-1.2l8-0.5l30.8-2.1l18.1-1.2l12.5-0.8
		l3.1-0.2l12.6-0.9c7.7-0.5,14.1-2.9,19-7c0.2-0.1,0.3-0.3,0.4-0.4c5.2,4.1,12,5.9,20.4,5.3c9.1-0.6,16.5-3.8,21.8-9.3
		c0,0,0,0,0.1-0.1v7.3l33.6-2.3v-7.6c5.7,5.1,13.5,7.3,22.9,6.7c5.8-0.4,11-1.8,15.4-4.1v2.4l52.8-3.6c2.5,0.2,5.2,0.3,8.4,0
		c2.4-0.2,4.7-0.5,6.9-1.1l1.2-0.1l-0.1-0.2c2.1-0.6,4-1.4,5.8-2.3c4.5-2.4,8.1-5.6,10.7-9.7c2.6-4.1,3.9-8.7,3.9-13.6
		c0-5.4-1.5-10-4.4-13.7c-0.1-0.2-0.2-0.3-0.4-0.5l7.8-20.3l-9.4-3.6c-6.2-2.3-12.4-3.3-18.6-2.9c-7.7,0.5-14,2.9-18.9,7
		c-0.1,0.1-0.2,0.2-0.3,0.2c-0.8-0.5-1.6-1-2.5-1.4c21.6-6.6,39.4-19,47.4-25.2l0.3-0.2c2.8-2.3,6.1-4.8,9.6-7.4
		c14.2-10.9,32-24.4,42-41l-4.9-3.9c9.5-15.8,14.9-30.8,16.3-44.8l0-0.2l0-0.2C586.6,67.4,586.8,63.3,586.6,59.4z M338.6,118.8
		c1.1-2.8,5.8-11,15.4-23.2c10.1-7.7,19.9-12.5,28.1-14c-1.3,8.6-6.7,19.5-15.4,30.7c-7.4,9.6-18,19.8-28.2,26.9V118.8z
		 M317.9,145.5l0-0.1c0.2-4.4,2.1-9.8,5.4-15.7l11.7,11.9c-6,3.7-11.7,6.2-16.3,6.5c-0.2,0-0.4,0-0.6,0
		C317.9,147.6,317.8,146.8,317.9,145.5z M282.4,203.6l-11.2,0.8l-1,0.1l1.9-6.5C275.2,200.2,278.7,202.1,282.4,203.6z M195.7,128.5
		c1.1-2.8,5.8-11,15.4-23.2c10.1-7.7,19.9-12.5,28.1-14c-1.3,8.6-6.7,19.5-15.4,30.7c-7.4,9.6-18,19.8-28.2,26.9V128.5z
		 M175.7,157.7c-0.2,0-0.4,0-0.6,0c-0.1-0.5-0.2-1.3-0.1-2.7l0-0.1c0.2-4.4,2.1-9.8,5.4-15.7l11.7,11.9
		C186.1,155,180.4,157.4,175.7,157.7z M81.5,252.7c-0.1-0.5-0.1-1.2-0.1-2.1c0-1,0.1-1.8,0.2-2.4c0.1,0,0.2,0,0.3,0.1
		c0.9,0.2,1.7,0.5,2.6,0.8c0,0.3,0,0.7,0,1c0,0.6,0,1.1,0,1.7c-0.4,0.2-0.8,0.3-1.3,0.5C82.7,252.4,82.1,252.6,81.5,252.7z
		 M98.9,219.8l-0.5-0.2c-3.5-1.4-7.1-2.4-10.8-2.8c5.2-10.8,11.5-23.3,16.6-32.7c0.6-1.2,1.3-2.3,1.9-3.5c0.6-1.1,1.1-2.1,1.7-3.2
		c-0.1,9.5,0.9,20.4,5.8,25.7l10.2,11.1c-2.2-0.2-4.5-0.2-6.9-0.1C110,214.5,103.9,216.5,98.9,219.8z M127.1,214.6l2.1-6.9
		c3.2,2.2,6.6,4.1,10.3,5.6l-7.1,0.5v2.3C130.7,215.4,128.9,214.9,127.1,214.6z M239.7,206.5l-6.6,0.4l-18.9,1.3l-11.9,0.8
		c15.9-6.8,28.7-15.7,35.1-20.6l0.3-0.2c2.8-2.3,6.1-4.8,9.6-7.4c1.3-1,2.5-1.9,3.8-2.9c0.7,6.3,2.2,12.2,5.4,15.6l10.4,11.2
		l-13.9,0.9v1.9C249.5,206.6,245.1,206.1,239.7,206.5z M350.1,199.1l-4.8,0.3c15.9-6.8,28.7-15.7,35.1-20.6l0.3-0.2
		c2.8-2.3,6.1-4.8,9.6-7.4c1.2-1,2.5-1.9,3.8-2.9c0.7,6.3,2.2,12.2,5.4,15.6l10.4,11.2c-1.5,0.4-2.9,0.8-4.2,1.3v-1.1l-36.3,2.4
		L350.1,199.1z M413.1,194.4l1.8-6c3.1,2.2,6.5,4,10.1,5.5c-2.3-0.2-4.7-0.3-7.3-0.1C416.1,193.9,414.6,194.1,413.1,194.4z
		 M461.5,138.5c-0.2,0-0.4,0-0.6,0c-0.1-0.5-0.2-1.3-0.1-2.7l0-0.1c0.2-4.4,2.1-9.8,5.4-15.7l11.7,11.9
		C471.8,135.7,466.1,138.1,461.5,138.5z M509.6,102.7c-7.4,9.6-18,19.8-28.2,26.9v-20.4c1.1-2.8,5.8-11,15.4-23.2
		c10.1-7.7,19.9-12.5,28.1-14C523.7,80.6,518.3,91.5,509.6,102.7z"/>
	<g>
		<path class="st2" d="M104,162.9c1.2,3.4,3.7,7,5,7.9c-0.2-0.4,0.2-8.9,2.1-15.7c1.7-6.9,5.4-14.4,9.7-22l1.9-3.4l2.1-3.7
			l21.5-36.4c10.6-17.5,21.9-31.9,31.5-47.5c-2.3-0.7-16.6,17.3-23.8,17.8c-1.2,0.1-6.4,1.3-7.2-1.2c-0.6-2.6,8.1-15.9,6.8-16
			c-26.9,24-88,54-104.8,64.2c-1.9,2.2,6.6,0,5.8,4.6c-0.4,1.9-7,7.1-11.4,10.5c-1,2.8-7.2,9.8-8.3,11.1c0.4,0.8,7.2,1.4,5.4,3.6
			c-1,1.7-17.2,11.7-16.2,12.9c8.9-1.8,55.3-23.8,65-30.5c-9.3,11.8-48.5,77.6-50.5,90.6c1.7,0.5,9.3-7.7,11.6-8.4
			c1.9-0.5-2.3,12.8-0.4,11.2c7.2-5,9.7-7.9,13.3-8.3c1.9-0.1,7.5,0.7,9.3,3.1c1.3,1.8-3.5,16.5-4.7,24.2c-2.9,2.1-5.2,4.7-6.8,8.1
			c-1.7,3.6-2.6,7.8-2.6,12.4c0,7.4,1.8,13,5.4,16.7c3.6,3.7,8.8,5.3,15.6,4.8c4.7-0.3,9-1.4,12.7-3.3v-10.2
			c-1.9,0.9-3.8,1.7-5.6,2.4c-1.9,0.7-3.8,1.1-5.8,1.2c-6.6,0.4-9.8-3.6-9.8-12.3c0-4.1,0.8-7.5,2.4-9.9c1.6-2.5,3.9-3.8,6.7-4
			c1.9-0.1,3.7,0,5.3,0.4c1.7,0.4,3.3,1,5,1.6l3.7-9.8c-4.4-1.8-9-2.5-13.9-2.2c-3.8,0.3-7.1,1.2-10,2.7c4.8-11.1,16.4-34.9,25-50.6
			C97.8,174.1,100.7,168.5,104,162.9z"/>
		<path class="st2" d="M575.9,60.7c-0.2-5-4.6-17.3-9.1-18.6c3.1,6.6,1.4,14.6-0.4,13.9c-1.2-0.3-3.3-2.5-4.8-4.2
			c-0.8-1.4-1.9-2.2-2.3-2.5c-0.6-0.4-1.7,1.1-1.5,2.8c0.4,2.5-0.6,18.1-2.1,17.5c1.2-10.9-3.3-21.9-4.3-22.5l-1.5-0.9
			c-0.2-1-0.2-1.8,0.2-2.5c1.2-1.3,3.5-4.8,6.6-5.4c3.1-0.6,7.5,1.4,7.9-0.3c-0.2-1.2-1.9-3-6.8-6c-5.4-3.4-16.6-5.5-23-5.5
			c-10.4,0.1-21.3,2.3-32.5,6.3C487.7,37,471.1,42.9,463,47.2c0,0.4,10.8-1.1,10.6-0.3c0,0.2,0,0.2-0.2,0.4
			C458.2,57,444,69.5,432.5,83.4c0.1-0.8,0.2-1.6,0.3-2.3c0.2-3.7,0.4-7.5,0.2-10.8c-0.2-5-4.6-17.3-9.1-18.6
			c3.1,6.6,1.4,14.6-0.4,13.9c-1.2-0.3-3.3-2.5-4.8-4.2c-0.8-1.4-1.9-2.2-2.3-2.5c-0.6-0.4-1.7,1.1-1.5,2.8
			c0.4,2.5-0.6,18.1-2.1,17.5c1.2-10.9-3.3-21.9-4.3-22.5l-1.5-0.9c-0.2-1-0.2-1.8,0.2-2.5c1.2-1.3,3.5-4.8,6.6-5.4
			c3.1-0.6,7.5,1.4,7.9-0.3c-0.2-1.2-1.9-3-6.8-6c-5.4-3.4-16.6-5.5-23-5.5c-10.4,0.1-21.3,2.3-32.5,6.3
			c-14.7,4.3-31.3,10.2-39.3,14.5c0,0.4,10.8-1.1,10.6-0.3c0,0.2,0,0.2-0.2,0.4c-15.2,9.7-29.4,22.2-40.9,36.1
			c0.1-0.8,0.2-1.6,0.3-2.3c0.2-3.7,0.4-7.5,0.2-10.8c-0.2-5-4.6-17.3-9.1-18.6c3.1,6.6,1.4,14.6-0.4,13.9c-1.2-0.3-3.3-2.5-4.8-4.2
			c-0.8-1.4-1.9-2.2-2.3-2.5c-0.6-0.4-1.7,1.1-1.5,2.8c0.4,2.5-0.6,18.1-2.1,17.5c1.2-10.9-3.3-21.9-4.3-22.5l-1.5-0.9
			c-0.2-1-0.2-1.8,0.2-2.5c1.2-1.3,3.5-4.8,6.6-5.4c3.1-0.6,7.5,1.4,7.9-0.3c-0.2-1.2-1.9-3-6.8-6c-5.4-3.4-16.6-5.5-23-5.5
			c-10.4,0.1-21.3,2.3-32.5,6.3c-14.7,4.3-31.3,10.2-39.3,14.5c0,0.4,10.8-1.1,10.6-0.3c0,0.2,0,0.2-0.2,0.4
			c-34.8,22.2-64.4,59-67.7,94.2c-1.7,10.1-2.3,30.2,1.9,34.7c0.8-2.7,1-6.5,2.9-7.4l0.8-0.1c8.3,13.5,25.3,20.2,43.1,19
			c22.8-1.7,46.2-14.3,62.7-27c8.3-6.8,20.3-15.1,30.9-24.7c-1.2,10.6-1.2,26.6,2.4,30.5c0.8-2.7,1-6.5,2.9-7.4l0.8-0.1
			c8.3,13.5,25.3,20.2,43.1,19c22.8-1.7,46.2-14.3,62.7-27c8.3-6.8,20.3-15.1,30.9-24.7c-1.2,10.6-1.2,26.6,2.4,30.5
			c0.8-2.7,1-6.5,2.9-7.4l0.8-0.1c8.3,13.5,25.3,20.2,43.1,19c22.8-1.7,46.2-14.3,62.7-27c13.9-11.3,37.7-26.8,48.9-45.3
			c-4.3,4-10.1,8.3-15.9,12.3c13-17.2,23.8-36.8,25.7-56.2C575.9,67.7,576.1,64,575.9,60.7z M174.4,168.5c-5.8,0-10.8-3.6-10.1-13.4
			c0.6-12.1,9.3-27.3,21.7-41c-1.4,5.3-3.3,11.6-1,13.9c0-3.3,6.6-14.9,18.8-30.3c12.8-10,26.7-16.9,38.9-17.7c2.7-0.2,5,0.3,7,1
			C256.4,113.5,201.9,168.3,174.4,168.5z M317.3,158.9c-5.8,0-10.8-3.6-10.1-13.4c0.6-12.1,9.3-27.3,21.7-41
			c-1.4,5.3-3.3,11.6-1,13.9c0-3.3,6.6-14.9,18.8-30.3c12.8-10,26.7-16.9,38.9-17.7c2.7-0.2,5,0.3,7,1
			C399.3,103.9,344.8,158.7,317.3,158.9z M460.1,149.3c-5.8,0-10.8-3.6-10.1-13.4c0.6-12.1,9.3-27.3,21.7-41
			c-1.4,5.3-3.3,11.6-1,13.9c0-3.3,6.6-14.9,18.8-30.3c12.8-10,26.7-16.9,38.9-17.7c2.7-0.2,5,0.3,7,1
			C542.1,94.2,487.7,149.1,460.1,149.3z"/>
		<path class="st2" d="M117.1,224.8c-7.1,0.5-12.5,2.8-16.3,7c-3.7,4.2-5.6,10-5.6,17.5c0,7.5,1.9,13.2,5.6,16.9
			c3.8,3.7,9.1,5.3,16.2,4.8c7.1-0.5,12.5-2.8,16.2-7c3.7-4.2,5.5-10,5.5-17.6c0-7.6-1.8-13.2-5.5-16.8
			C129.6,225.9,124.2,224.3,117.1,224.8z M123.8,257.3c-1.5,2.2-3.8,3.4-6.8,3.6c-6,0.4-9-3.7-9-12.4c0-8.7,3-13.3,9.1-13.7
			c3-0.2,5.2,0.7,6.7,2.8c1.5,2,2.3,5.3,2.3,9.8C126,251.7,125.3,255.1,123.8,257.3z"/>
		<path class="st2" d="M175,241.9c0,2.7,0.1,6.4,0.4,10.9l-0.2,0l-16.3-30l-15.8,1.1v44.8l10.7-0.7v-20.2c0-2.6-0.2-6.4-0.6-11.3
			l0.3,0l16.4,30.5l15.9-1.1v-44.8l-10.8,0.7V241.9z"/>
		<polygon class="st2" points="188.4,230.6 199.4,229.9 199.4,264.8 211.5,264 211.5,229.1 222.4,228.3 222.4,218.4 188.4,220.7 		
			"/>
		<path class="st2" d="M258,229.3c0-8.8-6.1-12.8-18.3-12l-14.7,1v44.8l12.1-0.8v-16.3l3.1-0.2l9.5,15.7l13.7-0.9l-13.1-18.6
			C255.5,238.6,258,234.5,258,229.3z M239.4,236.7l-2.3,0.2v-10.2l2.4-0.2c4.1-0.3,6.2,1.1,6.2,4.2
			C245.8,234.4,243.7,236.4,239.4,236.7z"/>
		<polygon class="st2" points="263.8,260.5 275.9,259.6 275.9,214.8 263.8,215.6 		"/>
		<path class="st2" d="M308.5,234v-0.3c2.1-0.7,3.8-1.9,5.1-3.8c1.3-1.9,1.9-4.1,1.9-6.6c0-3.8-1.5-6.5-4.4-8.1
			c-3-1.6-7.5-2.2-13.6-1.8l-15.6,1.1v44.8l17.4-1.2c5.3-0.4,9.4-1.8,12.5-4.4c3.1-2.5,4.6-5.9,4.6-9.9c0-2.7-0.6-4.9-1.9-6.6
			C313.3,235.6,311.3,234.5,308.5,234z M294,222.8l3.4-0.2c3.8-0.3,5.7,0.9,5.7,3.4c0,1.4-0.5,2.5-1.4,3.3c-1,0.8-2.3,1.2-4,1.3
			l-3.6,0.2V222.8z M298.2,248.8l-4.3,0.3v-9.4l4-0.3c1.9-0.1,3.4,0.2,4.4,0.9c1,0.7,1.5,1.8,1.5,3.3
			C303.9,246.8,302,248.5,298.2,248.8z"/>
		<path class="st2" d="M346.4,236.3c0,3.2-0.6,5.6-1.7,7.1c-1.1,1.5-2.9,2.3-5.4,2.5c-2.3,0.2-4.1-0.4-5.2-1.8
			c-1.2-1.4-1.8-3.6-1.8-6.8V211l-12.2,0.8v27.3c0,5.9,1.6,10.3,4.9,13.2c3.3,2.9,8,4.2,14.1,3.7c6.3-0.4,11-2.4,14.4-5.8
			c3.3-3.4,5-8.1,5-14v-27l-12.1,0.8V236.3z"/>
		<polygon class="st2" points="360.9,219 371.8,218.3 371.8,253.2 383.9,252.4 383.9,217.4 394.9,216.7 394.9,206.8 360.9,209.1 		
			"/>
		<path class="st2" d="M417.7,204.6c-7.1,0.5-12.5,2.8-16.3,7c-3.7,4.2-5.6,10-5.6,17.5c0,7.5,1.9,13.2,5.6,16.9s9.1,5.3,16.2,4.8
			c7.1-0.5,12.5-2.8,16.2-7c3.7-4.2,5.5-10,5.5-17.6c0-7.6-1.8-13.2-5.5-16.8C430.2,205.7,424.8,204.1,417.7,204.6z M424.5,237
			c-1.5,2.2-3.8,3.4-6.8,3.6c-6,0.4-9-3.7-9-12.4c0-8.7,3-13.3,9.1-13.7c3-0.2,5.2,0.7,6.7,2.8c1.5,2,2.3,5.3,2.3,9.8
			C426.7,231.5,425.9,234.8,424.5,237z"/>
		<path class="st2" d="M493.8,210c0.7-0.6,1.9-1,3.4-1.1c3-0.2,6.7,0.5,10.9,2.2l3.7-9.6c-4.8-1.8-9.6-2.6-14.2-2.3
			c-5.3,0.4-9.4,1.8-12.4,4.3c-3,2.5-4.5,5.8-4.5,10c0,2.2,0.4,4.1,1.1,5.7c0.7,1.6,1.8,2.9,3.3,4.1c1.5,1.1,3.7,2.3,6.6,3.4
			c3.2,1.2,5.2,2.1,6,2.5c0.7,0.4,1.3,0.8,1.6,1.3c0.3,0.4,0.5,1,0.5,1.6c0,1-0.4,1.8-1.3,2.5c-0.8,0.7-2.2,1.1-4,1.2
			c-2.1,0.1-4.4,0-6.9-0.5c-2.5-0.5-4.9-1.3-7.2-2.3v10.3l-11.3-16.1c5.1-3.2,7.6-7.4,7.6-12.6c0-8.8-6.1-12.8-18.3-12l-14.7,1v44.8
			l12.1-0.8v-16.3l3.1-0.2l9.5,15.7l13.7-0.9l-1.4-1.9c2,0.8,4,1.3,5.9,1.6c2,0.3,4.5,0.3,7.5,0.1c3.6-0.2,6.7-1,9.3-2.4
			c2.7-1.4,4.7-3.2,6.1-5.4c1.4-2.3,2.1-4.8,2.1-7.5c0-3-0.8-5.5-2.3-7.4c-1.5-1.9-4.2-3.6-8-5.1c-4-1.6-6.5-2.7-7.4-3.3
			c-0.9-0.6-1.4-1.4-1.4-2.3C492.7,211.3,493.1,210.6,493.8,210z M458.1,221.9l-2.3,0.2v-10.2l2.4-0.2c4.1-0.3,6.2,1.1,6.2,4.2
			C464.5,219.6,462.4,221.7,458.1,221.9z"/>
	</g>
</g>
</svg>
