<?xml version="1.0" encoding="utf-8"?>
<!-- Generator: Adobe Illustrator 28.3.0, SVG Export Plug-In . SVG Version: 6.00 Build 0)  -->
<svg version="1.1" id="Layer_1" xmlns="http://www.w3.org/2000/svg" xmlns:xlink="http://www.w3.org/1999/xlink" x="0px" y="0px"
	 viewBox="0 0 420 280" style="enable-background:new 0 0 420 280;" xml:space="preserve">
<style type="text/css">
	.st0{fill:#4695EB;}
	.st1{fill:#FF004A;}
</style>
<path d="M270.5,50.6c6.9-7.2,18.4-7.3,25.5-0.4s6.3,16.9-0.6,24s-17.4,8.9-24.5,1.9C263.7,69.2,263.5,57.8,270.5,50.6L270.5,50.6z"
	/>
<path d="M246.2,192.2l-32.7,14.4c-1.5,0.5-2.9,1.9-3.9,3.2c-3.6,5-2.5,11.8,2.2,15.2c3.7,2.7,8.1,2.6,11.8,0.8l8.6-3.9l28.4-13
	c17-10.1,10.6-22.5,7-27.6s-21.7-29.7-21.7-29.7l8.7-10.8l20.3-25l18.9,15.4c0,0,5.3,4.5,14.7-0.8l28.8-15.3c2-1.2,4-3,4.9-7.3
	c0.8-4.3-2.5-10.6-8-11c-2.1-0.2-3.9,0.5-6.7,1.7L301,110.4c0,0-9.3-12.3-12.3-15.6c-3-3.3-6-6-10-9.3c-3.9-3.2-14.7-7.6-19.5-7.8
	H256l-31.2,1.9c-5.5,0.2-7.6,2.9-10.6,5c-2.9,2-23.4,15.9-24.8,17.1c-2.6,2-3.3,4.4-3.2,6.9c0.2,4.6,4,8.6,8.8,8.5
	c2.5-0.1,5.3-1.5,8.1-3.7l23.2-15l13.7,0.2l-21.6,33.7c-11.3,14.2,0.8,26.2,4.9,31.8L246.2,192.2z"/>
<path class="st0" d="M219.7,169.8l-1.5-1.8c-1.9-2.6-5.6-6.7-7.8-11.7c0-0.3-27.4,32.7-27.4,32.7l-30,31c-1.2,1-2,2.9-2.5,4.4
	c-1.5,6,2.1,11.9,7.8,13.3c4.4,1.1,8.5-0.5,11.3-3.5l10.9-11.3l20.4-20.8c6.3-5.7,19.1-18.7,25.2-25L219.7,169.8z"/>
<path class="st1" d="M69.8,60.6h157.3c3.2,0,5.9-2.6,5.9-5.9l0,0c0-3.2-2.6-5.9-5.9-5.9H69.8c-3.2,0-5.9,2.6-5.9,5.9l0,0
	C64,58,66.6,60.6,69.8,60.6z"/>
<path class="st1" d="M69.8,81.1h123.7c3.2,0,5.9-2.6,5.9-5.9l0,0c0-3.2-2.6-5.9-5.9-5.9H69.8c-3.2,0-5.9,2.6-5.9,5.9l0,0
	C64,78.5,66.6,81.1,69.8,81.1z"/>
<path class="st1" d="M69.8,101.5h87.3c3.2,0,5.9-2.6,5.9-5.9l0,0c0-3.2-2.6-5.9-5.9-5.9H69.8c-3.2,0-5.9,2.6-5.9,5.9l0,0
	C64,98.9,66.6,101.5,69.8,101.5z"/>
<path class="st1" d="M69.8,122.1h100.4c3.2,0,5.9-2.6,5.9-5.9l0,0c0-3.2-2.6-5.9-5.9-5.9H69.8c-3.2,0-5.9,2.6-5.9,5.9l0,0
	C64,119.4,66.6,122.1,69.8,122.1z"/>
<path class="st1" d="M69.8,142.5H161c3.2,0,5.9-2.6,5.9-5.9l0,0c0-3.2-2.6-5.9-5.9-5.9H69.8c-3.2,0-5.9,2.6-5.9,5.9l0,0
	C64,139.9,66.6,142.5,69.8,142.5z"/>
<path class="st1" d="M69.8,163h109.5c3.2,0,5.9-2.6,5.9-5.9l0,0c0-3.2-2.6-5.9-5.9-5.9H69.8c-3.2,0-5.9,2.6-5.9,5.9l0,0
	C64,160.3,66.6,163,69.8,163z"/>
<path class="st1" d="M69.8,183.5h66.8c3.2,0,5.9-2.6,5.9-5.9l0,0c0-3.2-2.6-5.9-5.9-5.9H69.8c-3.2,0-5.9,2.6-5.9,5.9l0,0
	C64,180.9,66.6,183.5,69.8,183.5z"/>
<path class="st1" d="M69.8,203.9h80.5c3.2,0,5.9-2.6,5.9-5.9l0,0c0-3.2-2.6-5.9-5.9-5.9H69.8c-3.2,0-5.9,2.6-5.9,5.9l0,0
	C64,201.3,66.6,203.9,69.8,203.9z"/>
<path class="st1" d="M69.8,224.4h60c3.2,0,5.9-2.6,5.9-5.9l0,0c0-3.2-2.6-5.9-5.9-5.9h-60c-3.2,0-5.9,2.6-5.9,5.9l0,0
	C64,221.8,66.6,224.4,69.8,224.4z"/>
</svg>
