<?xml version="1.0" encoding="utf-8"?>
<!-- Generator: Adobe Illustrator 28.3.0, SVG Export Plug-In . SVG Version: 6.00 Build 0)  -->
<svg version="1.1" id="Layer_1" xmlns="http://www.w3.org/2000/svg" xmlns:xlink="http://www.w3.org/1999/xlink" x="0px" y="0px"
	 viewBox="0 0 420 280" style="enable-background:new 0 0 420 280;" xml:space="preserve">
<style type="text/css">
	.st0{fill:#4695EB;}
	.st1{fill:#FFFFFF;}
	.st2{fill:#FF004A;}
</style>
<path class="st0" d="M171,134.6c-2.4,0-4.3-2.1-4.1-4.5c1-10.5,5.7-20.4,13.2-28c8.6-8.6,20.3-13.4,32.5-13.4
	c12.2,0,23.9,4.8,32.5,13.4c7.5,7.5,12.2,17.5,13.2,28c0.3,2.4-1.7,4.5-4.1,4.5l0,0c-2.1,0-3.9-1.6-4.2-3.7
	c-0.8-8.6-4.7-16.7-10.9-22.9c-7-7-16.6-11-26.6-11c-9.9,0-19.5,3.9-26.6,11c-6.2,6.2-9.9,14.3-10.9,22.9
	C174.9,133.1,173.1,134.6,171,134.6L171,134.6z"/>
<path class="st0" d="M196.6,158.5h31.7c2.3,0,4.2,1.8,4.2,4.2l0,0c0,2.3-1.8,4.2-4.2,4.2h-31.7c-2.3,0-4.2-1.8-4.2-4.2l0,0
	C192.5,160.4,194.4,158.5,196.6,158.5z"/>
<path class="st1" d="M305.3,36.3c-2.3-4.6-7-7.4-12.9-7.4h-165c-5.8,0-10.5,2.8-12.9,7.4c-2.3,4.6-1.5,10.1,2.1,14.7l40,51.5
	c-5.4,9.4-8.6,20.4-8.6,32.1c0,25.1,14.4,46.9,35.3,57.4V236c0,8.5,6.2,15,14.4,15c2,0,4-0.4,6-1.2l20-8
	c7.3-2.9,12.5-10.7,12.5-18.5v-29.2c23.6-9.5,40.4-32.7,40.4-59.7c0-13.2-4-25.5-10.9-35.7l37.3-47.9
	C306.8,46.4,307.6,40.8,305.3,36.3z M225.9,223.4c0,3.6-2.7,7.4-5.9,8.7l-20,7.9c-0.8,0.3-1.4,0.4-2.1,0.4c-2.3,0-3.8-1.7-3.8-4.4
	v-39.9c5.8,1.8,11.9,2.7,18.4,2.7c4.6,0,9-0.5,13.4-1.4L225.9,223.4z M268.5,134.6c0,22.4-13.1,41.7-32.1,50.6
	c-3.3,1.6-6.9,2.8-10.6,3.8c-4.3,1.1-8.8,1.6-13.4,1.6c-6.4,0-12.6-1.1-18.4-3.1c-3.7-1.3-7.3-2.9-10.6-4.9
	c-16.2-9.8-27.1-27.6-27.1-47.9c0-8.9,2.1-17.5,5.8-25c1.7-3.3,3.7-6.6,6-9.5c10.3-13.1,26.2-21.6,44.2-21.6
	c16.5,0,31.3,7.1,41.5,18.5c2.4,2.7,4.7,5.7,6.5,8.9C265.6,114.3,268.5,124,268.5,134.6z M294.9,44.5l-35.7,45.9
	c-11.7-12.4-28.3-20.1-46.7-20.1c-19.8,0-37.6,9-49.4,23.1l-38-48.9c-2.2-2.8-1.1-5,2.4-5h165.1C296,39.4,297,41.7,294.9,44.5z"/>
<polygon class="st2" points="243.6,103.7 216.4,150.6 196.7,130.9 243.6,103.7 216.4,150.6 196.7,130.9 "/>
</svg>
