<?xml version="1.0" encoding="utf-8"?>
<!-- Generator: Adobe Illustrator 27.6.1, SVG Export Plug-In . SVG Version: 6.00 Build 0)  -->
<svg version="1.1" id="Layer_1" xmlns="http://www.w3.org/2000/svg" xmlns:xlink="http://www.w3.org/1999/xlink" x="0px" y="0px"
	 viewBox="0 0 420 280" style="enable-background:new 0 0 420 280;" xml:space="preserve">
<style type="text/css">
	.st0{fill:#4695EB;}
	.st1{fill:#FF004A;}
	.st2{fill:#091313;}
</style>
<g>
	<g>
		<g>
			<path class="st0" d="M357.9,223.8l-26.3-15.2l-26.3,15.2l26.3,15.2L357.9,223.8z"/>
			<path class="st1" d="M303.9,226.3v30.4l26.3,15.2v-30.4L303.9,226.3z"/>
			<path class="st2" d="M333,271.9l26.3-15.2v-30.4L333,241.5V271.9z"/>
		</g>
		<g>
			<path class="st0" d="M297.1,223.8l-26.3-15.2l-26.3,15.2l26.3,15.2L297.1,223.8z"/>
			<path class="st1" d="M243.1,226.3v30.4l26.3,15.2v-30.4L243.1,226.3z"/>
			<path class="st2" d="M272.2,271.9l26.3-15.2v-30.4l-26.3,15.2V271.9z"/>
		</g>
		<g>
			<path class="st0" d="M236.3,223.8L210,208.6l-26.3,15.2L210,239L236.3,223.8z"/>
			<path class="st1" d="M182.2,226.3v30.4l26.3,15.2v-30.4L182.2,226.3z"/>
			<path class="st2" d="M211.4,271.9l26.3-15.2v-30.4l-26.3,15.2V271.9z"/>
		</g>
		<g>
			<path class="st0" d="M175.5,223.8l-26.3-15.2l-26.3,15.2l26.3,15.2L175.5,223.8z"/>
			<path class="st1" d="M121.4,226.3v30.4l26.3,15.2v-30.4L121.4,226.3z"/>
			<path class="st2" d="M150.6,271.9l26.3-15.2v-30.4l-26.3,15.2V271.9z"/>
		</g>
		<g>
			<path class="st0" d="M114.7,223.8l-26.3-15.2l-26.3,15.2L88.4,239L114.7,223.8z"/>
			<path class="st1" d="M60.6,226.3v30.4L87,271.9v-30.4L60.6,226.3z"/>
			<path class="st2" d="M89.8,271.9l26.3-15.2v-30.4l-26.3,15.2V271.9z"/>
		</g>
	</g>
	<g>
		<g>
			<path class="st0" d="M327.5,172.9l-26.3-15.2l-26.3,15.2l26.3,15.2L327.5,172.9z"/>
			<path class="st1" d="M273.5,175.4v30.4l26.3,15.2v-30.4L273.5,175.4z"/>
			<path class="st2" d="M302.6,221l26.3-15.2v-30.4l-26.3,15.2V221z"/>
		</g>
		<g>
			<path class="st0" d="M266.7,172.9l-26.3-15.2l-26.3,15.2l26.3,15.2L266.7,172.9z"/>
			<path class="st1" d="M212.6,175.4v30.4L239,221v-30.4L212.6,175.4z"/>
			<path class="st2" d="M241.8,221l26.3-15.2v-30.4l-26.3,15.2V221z"/>
		</g>
		<g>
			<path class="st0" d="M205.9,172.9l-26.3-15.2l-26.3,15.2l26.3,15.2L205.9,172.9z"/>
			<path class="st1" d="M151.8,175.4v30.4l26.3,15.2v-30.4L151.8,175.4z"/>
			<path class="st2" d="M181,221l26.3-15.2v-30.4L181,190.6V221z"/>
		</g>
		<g>
			<path class="st0" d="M145.1,172.9l-26.3-15.2l-26.3,15.2l26.3,15.2L145.1,172.9z"/>
			<path class="st1" d="M91,175.4v30.4l26.3,15.2v-30.4L91,175.4z"/>
			<path class="st2" d="M120.2,221l26.3-15.2v-30.4l-26.3,15.2V221z"/>
		</g>
	</g>
	<g>
		<g>
			<path class="st0" d="M297.1,122l-26.3-15.2L244.5,122l26.3,15.2L297.1,122z"/>
			<path class="st1" d="M243.1,124.4v30.4l26.3,15.2v-30.4L243.1,124.4z"/>
			<path class="st2" d="M272.2,170l26.3-15.2v-30.4l-26.3,15.2V170z"/>
		</g>
		<g>
			<path class="st0" d="M236.3,122L210,106.8L183.7,122l26.3,15.2L236.3,122z"/>
			<path class="st1" d="M182.2,124.4v30.4l26.3,15.2v-30.4L182.2,124.4z"/>
			<path class="st2" d="M211.4,170l26.3-15.2v-30.4l-26.3,15.2V170z"/>
		</g>
		<g>
			<path class="st0" d="M175.5,122l-26.3-15.2L122.9,122l26.3,15.2L175.5,122z"/>
			<path class="st1" d="M121.4,124.4v30.4l26.3,15.2v-30.4L121.4,124.4z"/>
			<path class="st2" d="M150.6,170l26.3-15.2v-30.4l-26.3,15.2V170z"/>
		</g>
	</g>
	<g>
		<g>
			<path class="st0" d="M266.7,71l-26.3-15.2L214.1,71l26.3,15.2L266.7,71z"/>
			<path class="st1" d="M212.6,73.5v30.4l26.3,15.2V88.7L212.6,73.5z"/>
			<path class="st2" d="M241.8,119.1l26.3-15.2V73.5l-26.3,15.2V119.1z"/>
		</g>
		<g>
			<path class="st0" d="M205.9,71l-26.3-15.2L153.3,71l26.3,15.2L205.9,71z"/>
			<path class="st1" d="M151.8,73.5v30.4l26.3,15.2V88.7L151.8,73.5z"/>
			<path class="st2" d="M181,119.1l26.3-15.2V73.5L181,88.7V119.1z"/>
		</g>
	</g>
	<g>
		<path class="st0" d="M236.3,20.1L210,4.9l-26.3,15.2L210,35.3L236.3,20.1z"/>
		<path class="st1" d="M182.2,22.6V53l26.3,15.2V37.8L182.2,22.6z"/>
		<path class="st2" d="M211.4,68.2L237.8,53V22.6l-26.3,15.2V68.2z"/>
	</g>
</g>
</svg>
