<?xml version="1.0" encoding="utf-8"?>
<!-- Generator: Adobe Illustrator 27.6.1, SVG Export Plug-In . SVG Version: 6.00 Build 0)  -->
<svg version="1.1" id="Layer_1" xmlns="http://www.w3.org/2000/svg" xmlns:xlink="http://www.w3.org/1999/xlink" x="0px" y="0px"
	 viewBox="0 0 420 280" style="enable-background:new 0 0 420 280;" xml:space="preserve">
<style type="text/css">
	.st0{fill-rule:evenodd;clip-rule:evenodd;fill:#4695EB;}
	.st1{fill-rule:evenodd;clip-rule:evenodd;fill:#FF004A;}
	.st2{fill-rule:evenodd;clip-rule:evenodd;fill:#FFFFFF;}
</style>
<polygon class="st0" points="238.8,158.8 238.8,128.8 212.8,113.8 186.8,128.8 186.8,158.8 212.8,173.8 "/>
<polygon class="st1" points="327.2,118 327.2,101.4 312.8,93.1 298.4,101.4 298.4,118 312.8,126.3 "/>
<polygon class="st1" points="254.1,40.5 254.1,23.9 239.7,15.6 225.3,23.9 225.3,40.5 239.7,48.8 "/>
<polygon class="st1" points="246.8,252 246.8,235.4 232.4,227.1 218.1,235.4 218.1,252 232.4,260.3 "/>
<path class="st2" d="M344,143.3c0-8.1-4.2-15.8-11.7-22.8c-1.3,2.4-3.1,4.6-5.2,6.4c5.1,5.1,8,10.6,8,16.4c0,15.4-19.8,29-50.3,37.6
	c-3.2-11.7-7.3-23.3-12.2-34.4c6.1-12.9,11.2-26.2,15.2-39.8c0.9,0.3,1.9,0.5,2.7,0.8c0.3-2.8,1.1-5.5,2.4-8c-1-0.3-2-0.6-3-0.9
	c8.6-35,5.4-63-11-72.5c-5.4-3.1-11.9-3.9-19-2.8c1.1,2.6,1.6,5.4,1.7,8.2c4.8-0.5,9.2,0.1,12.9,2.3c13.3,7.7,15.3,31.7,7.4,62.4
	c-13.7-3.6-27.6-6-41.7-7.3c-7.3-10.4-15.4-20.2-24.1-29.4c3.5-3.5,7-6.7,10.5-9.6c-2.3-1.6-4.2-3.6-5.7-5.9
	c-3.5,2.9-7.1,6.1-10.7,9.6c-26.3-25.4-52.4-37-69-27.4s-19.6,37.4-11,72.4C97.2,108.7,76,125,76,143.3c0,18.9,22.6,35.6,57.2,45.7
	c-7.6,33.5-4.1,60.1,11.8,69.2c15.8,9.1,40.2-0.9,65.2-23.8c0.5,0.5,1.1,1,1.6,1.5c1-2.7,2.5-5.1,4.4-7.2l0,0
	c9.7-9.7,18.5-20.2,26.5-31.3c12.2-1.2,24.3-3.3,36.2-6.2c7,29.2,4.7,51.9-8.2,59.3c-4.9,2.8-10.9,3.1-17.6,1.4
	c-1,2.7-2.6,5.1-4.6,7.2c10.2,3.3,19.4,3.3,26.7-0.9c15.9-9.2,19.4-35.7,11.8-69.2C321.4,178.9,344,162.2,344,143.3z M279.6,104.4
	c-3.3,10.7-7.2,21.2-11.8,31.4c-3.4-7.1-7.2-14.4-11.4-21.6c-3.2-5.4-6.4-10.7-9.7-15.8C257.8,99.7,268.8,101.7,279.6,104.4
	L279.6,104.4z M228.6,88c-6.1-0.4-12.3-0.6-18.6-0.6s-12.5,0.2-18.6,0.6c5.8-7.8,12-15.3,18.6-22.4C216.6,72.7,222.8,80.2,228.6,88z
	 M145.5,33.8c13.5-7.8,35.6,2.9,58.6,25.6c-8.8,9.2-16.9,19-24.2,29.4c-14.1,1.3-28.1,3.7-41.8,7.3
	C130.2,65.5,132.2,41.5,145.5,33.8L145.5,33.8z M152.2,135.8c-4.6-10.2-8.6-20.8-11.8-31.5c10.9-2.7,21.9-4.7,33-5.9
	c-3.3,5.1-6.6,10.4-9.8,15.8C159.4,121.5,155.6,128.7,152.2,135.8L152.2,135.8z M152.5,156.9c2.3,4.4,4.7,8.8,7.2,13.2
	c3.6,6.2,7.3,12.1,11.1,17.7c-9.2-1.1-18.4-2.7-27.4-4.9C145.9,174.1,149,165.4,152.5,156.9L152.5,156.9z M84.9,143.3
	c0-14.9,18.5-28.1,47.3-36.7c4,13.7,9.1,27,15.2,39.9c-4.9,11.2-8.9,22.7-12.2,34.4C104.7,172.4,84.9,158.7,84.9,143.3z
	 M149.4,250.5c-12.9-7.4-15.1-30.1-8.2-59.3c11.9,2.9,24,5,36.2,6.2c8,11.1,16.9,21.5,26.5,31.2
	C182.5,248.8,162.1,257.9,149.4,250.5z M210,222.9c-7.5-7.7-14.4-15.8-20.8-24.4c6.8,0.4,13.7,0.7,20.8,0.7s14.1-0.2,20.9-0.7
	C224.4,207,217.5,215.2,210,222.9z M237.7,189.1c-8.9,0.8-18.2,1.2-27.7,1.2s-18.8-0.4-27.7-1.2c-5.1-7.4-10.1-15.1-14.9-23.4
	c-3.8-6.5-7.2-13-10.4-19.4c4.1-9,8.9-18.3,14.2-27.5c4.3-7.5,8.8-14.6,13.5-21.4c8.1-0.6,16.6-1,25.2-1s17.1,0.4,25.3,1
	c4.6,6.7,9.1,13.9,13.4,21.3c5.3,9.2,10.1,18.5,14.2,27.5c-3.2,6.4-6.6,12.9-10.4,19.4C247.8,173.9,242.8,181.7,237.7,189.1
	L237.7,189.1z M249.3,187.8c3.8-5.7,7.5-11.6,11-17.7c2.5-4.4,5-8.8,7.2-13.2c3.5,8.5,6.6,17.2,9.1,26.1
	C267.6,185.1,258.5,186.7,249.3,187.8L249.3,187.8z"/>
</svg>
