<?xml version="1.0" encoding="utf-8"?>
<!-- Generator: Adobe Illustrator 27.6.1, SVG Export Plug-In . SVG Version: 6.00 Build 0)  -->
<svg version="1.1" id="Layer_1" xmlns="http://www.w3.org/2000/svg" xmlns:xlink="http://www.w3.org/1999/xlink" x="0px" y="0px"
	 viewBox="0 0 420 280" style="enable-background:new 0 0 420 280;" xml:space="preserve">
<style type="text/css">
	.st0{fill:#4695EB;}
	.st1{fill:#FFFFFF;}
</style>
<path id="path3055" class="st0" d="M209.6,78.9c-1,0.1-2.1,0.3-3,0.8l-41.5,19.8c-2.2,1-3.7,3-4.3,5.3l-10.2,44.5
	c-0.5,2.1-0.1,4.2,1.1,6c0.1,0.2,0.3,0.4,0.4,0.6l28.7,35.7c1.5,1.9,3.8,3,6.2,3h46c2.4,0,4.7-1.1,6.2-2.9l28.7-35.7
	c1.5-1.9,2.1-4.3,1.5-6.7l-10.2-44.5c-0.5-2.3-2.1-4.3-4.3-5.3l-41.5-19.8C212.2,79.1,210.9,78.8,209.6,78.9z"/>
<path id="path3059" class="st1" d="M210,94.1c-1.4,0.1-2.6,1.3-2.5,2.8c0,0,0,0,0,0.1c0,0.2,0,0.5,0,0.6c0,0.9,0.2,1.6,0.3,2.4
	c0.2,1.5,0.3,3,0.3,4.5c-0.1,0.5-0.4,0.9-0.8,1.3v1c-1.5,0.1-3,0.4-4.5,0.7c-6.2,1.4-11.9,4.6-16.2,9.3c-0.3-0.2-0.8-0.5-0.9-0.6
	c-0.5,0.1-1,0.1-1.5-0.1c-1.2-0.9-2.3-1.9-3.4-3c-0.5-0.6-1.1-1.2-1.6-1.7c-0.1-0.1-0.4-0.3-0.6-0.4c-0.5-0.4-1.1-0.6-1.7-0.7
	c-0.8,0-1.5,0.3-2,0.9c-0.8,1.2-0.6,2.8,0.6,3.7l0,0c0.2,0.1,0.4,0.3,0.5,0.4c0.7,0.4,1.4,0.8,2.1,1.2c1.3,0.7,2.5,1.6,3.7,2.6
	c0.3,0.4,0.5,0.9,0.5,1.4l0.8,0.7c-4.4,6.6-6.2,14.6-5.1,22.4l-1,0.3c-0.3,0.4-0.6,0.8-1.1,1.1c-1.5,0.4-2.9,0.6-4.4,0.7
	c-0.8,0-1.6,0.1-2.4,0.2l-0.7,0.2h-0.1c-1.4,0.2-2.3,1.5-2.1,2.8c0.2,1.4,1.5,2.3,2.8,2.1c0.1,0,0.3,0,0.4-0.1l0,0h0.1
	c0.2,0,0.5-0.1,0.6-0.1c0.8-0.2,1.5-0.5,2.2-0.9c1.4-0.6,2.8-1,4.3-1.3c0.5,0,1,0.2,1.4,0.5l1.1-0.2c2.4,7.5,7.5,13.9,14.3,17.9
	l-0.5,1.1c0.2,0.4,0.3,0.9,0.2,1.4c-0.6,1.4-1.4,2.7-2.2,4c-0.5,0.6-0.9,1.3-1.3,2c-0.1,0.2-0.2,0.5-0.3,0.7
	c-0.7,1.2-0.3,2.7,0.9,3.4s2.7,0.3,3.4-0.9c0.1-0.1,0.2-0.3,0.2-0.4l0,0c0.1-0.2,0.2-0.4,0.3-0.6c0.3-0.7,0.5-1.4,0.7-2.2
	c0.7-1.6,1-3.4,1.9-4.5c0.3-0.3,0.7-0.5,1.1-0.5l0.6-1c5.9,2.3,12.4,2.8,18.7,1.3c1.4-0.3,2.9-0.8,4.3-1.3l0.5,1
	c0.5,0.1,1,0.4,1.3,0.8c0.7,1.3,1.3,2.7,1.7,4.2c0.2,0.8,0.4,1.5,0.7,2.3c0.1,0.2,0.2,0.4,0.3,0.6c0.5,1.3,1.9,2,3.2,1.5
	s2-1.9,1.5-3.2c-0.1-0.2-0.1-0.3-0.2-0.5c-0.1-0.2-0.2-0.5-0.3-0.7c-0.4-0.7-0.8-1.4-1.3-2c-0.9-1.2-1.6-2.6-2.2-3.9
	c-0.1-0.5-0.1-1,0.2-1.5c-0.2-0.3-0.3-0.7-0.4-1c6.8-4,11.9-10.4,14.3-18l1.1,0.2c0.4-0.3,0.9-0.5,1.4-0.5c1.5,0.3,2.9,0.7,4.3,1.3
	c0.7,0.3,1.5,0.6,2.2,0.9l0.6,0.1h0.1l0,0c1.3,0.4,2.7-0.3,3.2-1.6c0.4-1.3-0.3-2.7-1.6-3.2c-0.2-0.1-0.3-0.1-0.5-0.1l-0.7-0.2
	c-0.8-0.1-1.6-0.2-2.4-0.2c-1.5-0.1-3-0.3-4.4-0.7c-0.4-0.3-0.8-0.6-1.1-1.1l-1-0.3c1.1-7.8-0.7-15.8-5.1-22.3l0.9-0.8
	c0-0.5,0.1-1,0.5-1.4c1.1-1,2.4-1.9,3.7-2.6c0.7-0.4,1.4-0.8,2.1-1.2l0.6-0.4c1.1-0.8,1.5-2.3,0.7-3.4s-2.3-1.5-3.4-0.7
	c-0.1,0.1-0.2,0.2-0.3,0.3c-0.2,0.1-0.4,0.3-0.6,0.4c-0.6,0.5-1.1,1.1-1.6,1.7c-1,1.1-2.1,2.1-3.4,3c-0.5,0.2-1,0.3-1.5,0.2
	l-0.9,0.7c-5.4-5.7-12.8-9.3-20.6-10c0-0.3-0.1-0.9-0.1-1.1c-0.4-0.3-0.7-0.7-0.8-1.2c0-1.5,0.1-3,0.3-4.5c0.1-0.8,0.3-1.5,0.3-2.4
	c0-0.2,0-0.5,0-0.7C212.5,95.3,211.4,94.1,210,94.1z M206.9,113.3l-0.7,13h-0.1c0,1.2-1.1,2.1-2.3,2.1c-0.4,0-0.9-0.2-1.2-0.4l0,0
	l-10.7-7.6c3.4-3.3,7.7-5.7,12.3-6.7C205.1,113.6,206,113.4,206.9,113.3z M213.1,113.3c5.6,0.7,10.8,3.2,14.9,7.2l-10.6,7.5l0,0
	c-1,0.7-2.3,0.5-3.1-0.5c-0.3-0.3-0.4-0.8-0.4-1.2l0,0L213.1,113.3z M188.1,125.3l9.8,8.7v0.1c0.9,0.8,1,2.1,0.3,3
	c-0.3,0.4-0.7,0.6-1.1,0.8l0,0l-12.5,3.6C183.8,135.8,185.1,130.2,188.1,125.3L188.1,125.3z M231.9,125.3c3,4.8,4.3,10.5,3.7,16.1
	l-12.6-3.6v-0.1c-1.2-0.3-1.9-1.5-1.5-2.7c0.1-0.4,0.3-0.8,0.7-1.1l0,0L231.9,125.3L231.9,125.3z M208,134.7h4l2.5,3.1l-0.9,3.9
	l-3.6,1.7l-3.6-1.7l-0.9-3.9L208,134.7z M220.8,145.4c0.2,0,0.3,0,0.5,0l0,0l12.9,2.2c-1.9,5.4-5.5,9.9-10.4,13l-5-12.1l0,0
	c-0.5-1.1,0-2.3,1.1-2.8C220.2,145.5,220.5,145.4,220.8,145.4L220.8,145.4z M199.1,145.4c1,0,1.9,0.7,2.1,1.7
	c0.1,0.5,0.1,0.9-0.1,1.4l0,0l-5,12c-4.8-3.1-8.4-7.6-10.3-12.9l12.8-2.2l0,0C198.7,145.3,198.9,145.3,199.1,145.4L199.1,145.4z
	 M209.9,150.6c0.3,0,0.7,0.1,1,0.2c0.4,0.2,0.8,0.5,1,0.9h0.1l6.3,11.4c-0.8,0.3-1.7,0.5-2.5,0.7c-4.6,1.1-9.5,0.8-14-0.7l6.3-11.4
	l0,0C208.5,151.1,209.2,150.7,209.9,150.6L209.9,150.6z"/>
<path class="st1" d="M244.2,204.7c19.8-24.3,53.6-31.4,83.5-26.7l6.2,1l-3.8,5c-19,25.1-54,32.9-83.7,26.8l-6.1-1.2L244.2,204.7
	L244.2,204.7z"/>
<path class="st1" d="M251.9,26.1c20.9,16.8,33.4,44.7,28.2,71.5l-1.1,5.9l-4.8-3.6C252.8,84,238.3,54.6,245.9,28l1.6-5.5L251.9,26.1
	L251.9,26.1z"/>
<path class="st1" d="M338.1,112.4c-4.1,29.2-25.1,58.8-54.9,65.4l-5.5,1.3l1-5.6c5.3-29.3,25.7-56,54.6-65.1l5.7-1.8L338.1,112.4
	L338.1,112.4z"/>
<path class="st1" d="M307,48.3c11.1,25.5,7.7,56.4-9.4,78.6l-4,5.2l-2.5-6c-10.4-25.6-7.8-56.4,9.4-78.5l3.9-5L307,48.3z"/>
<path class="st1" d="M119.5,47.5c17.3,22.1,19.8,52.9,9.4,78.5l-2.5,6l-4-5.2c-17.1-22.1-20.4-53-9.4-78.6l2.5-5.8L119.5,47.5
	L119.5,47.5z"/>
<path class="st1" d="M173.7,210.8C144,216.9,109,209.1,90,184l-3.8-5l6.2-1c29.8-4.7,63.6,2.4,83.5,26.7l4,4.8L173.7,210.8
	L173.7,210.8z"/>
<path class="st1" d="M174.1,28c7.7,26.6-6.8,56.1-28.2,71.9l-4.8,3.5l-1.1-5.9c-5.2-26.8,7.3-54.7,28.2-71.5l4.4-3.5L174.1,28z"/>
<path class="st1" d="M86.8,108.2c28.9,9.1,49.3,35.9,54.6,65.1l1,5.6l-5.5-1.2c-29.8-6.6-50.8-36.2-54.9-65.4l-0.8-5.9
	C81.1,106.4,86.8,108.2,86.8,108.2z"/>
<path class="st1" d="M231,231.8c4.9,5.2,9.9,10.1,15.7,14.1l4,2.7l-3.6,3.2c-1.5,1.3-3,2.7-4.4,4l-1.8,1.7l-2.3-1
	c-13.9-6-17.8-20.9-28.6-28c-10.8,7-14.7,22-28.6,28l-2.3,1l-1.8-1.7c-1.5-1.4-2.9-2.7-4.4-4l-3.6-3.2l4-2.7
	c5.8-3.9,10.9-8.9,15.7-14.1c-6.7,3.3-13.3,7.1-20.9,8.5c-13.5,2.3-28,3.1-40.9-2.5l-6.2-2.7l5.6-3.9c12.7-8.8,26.4-17,42.2-18.2
	c12.4-0.7,25.1-0.4,37.3,2.4h0.2h0.2c2.3,0.7,4.7,0.7,7,0h0.2h0.2c12.2-2.8,24.8-3.1,37.3-2.4c15.8,1.3,29.5,9.4,42.2,18.2l5.6,3.9
	l-6.2,2.7c-12.9,5.6-27.4,4.8-40.9,2.5C244.2,238.8,237.6,235,231,231.8L231,231.8z"/>
</svg>
