<?xml version="1.0" encoding="utf-8"?>
<!-- Generator: Adobe Illustrator 26.0.1, SVG Export Plug-In . SVG Version: 6.00 Build 0)  -->
<svg version="1.1" id="Layer_1" xmlns="http://www.w3.org/2000/svg" xmlns:xlink="http://www.w3.org/1999/xlink" x="0px" y="0px"
	 viewBox="0 0 420 280" style="enable-background:new 0 0 420 280;" xml:space="preserve">
<style type="text/css">
	.st0{fill:#091313;}
	.st1{fill:#4695EB;}
	.st2{fill:#FF004A;}
</style>
<path class="st0" d="M279.7,70.3c6.9,7,18.2,7,25.1,0.1s7-18.2,0.1-25.1s-18.2-7-25.1-0.1c-3.4,3.3-5.2,7.9-5.2,12.6
	C274.5,62.5,276.4,67,279.7,70.3z"/>
<path class="st1" d="M292.2,47.8c5.5,0,10,4.4,10.1,9.9s-4.4,10-9.9,10.1s-10-4.4-10.1-9.9c0-2.7,1-5.2,2.9-7.1
	C287.1,48.9,289.6,47.8,292.2,47.8z"/>
<path class="st0" d="M306.4,71.1L306.4,71.1c-2.2,0-3.9,1.8-3.9,3.9c0,0,0,0,0,0c0,0.8,0.2,1.5,0.7,2.2
	c8.2,12.2,13.9,25.8,16.9,40.2c0.4,1.8,2,3.2,3.8,3.2c0.3,0,0.5,0,0.8-0.1c2.1-0.4,3.5-2.5,3.1-4.6c0,0,0,0,0,0
	c-3.2-15.4-9.3-30-18.1-43C309,71.7,307.7,71.1,306.4,71.1z"/>
<path class="st0" d="M198.6,177.3c3,2.6,6.2,4.8,9.8,6.5c1,0.5,2.2,0.5,3.3,0c3.5-1.7,6.8-3.9,9.8-6.5c6.6-5.8,10.2-12.6,10.2-19.8
	c0.1-7.5-5.9-13.8-13.4-13.9c-3,0.1-6,1.3-8.2,3.4c-2.2-2.1-5.1-3.3-8.1-3.4l0,0c-7.5,0.1-13.5,6.4-13.4,13.9
	C188.4,164.7,191.9,171.5,198.6,177.3z"/>
<path class="st2" d="M211.9,155.8c0.6-0.4,1.1-0.9,1.5-1.5c0.9-1.8,2.8-2.9,4.8-2.9c3.2,0.1,5.7,2.8,5.6,6c0,0,0,0.1,0,0.1
	c0,4.9-2.5,9.5-7.5,13.9c-1.9,1.7-4,3.1-6.3,4.3c-2.3-1.1-4.4-2.6-6.3-4.3c-5-4.4-7.5-9-7.5-13.9c-0.2-3.2,2.3-6,5.5-6.1
	c0,0,0.1,0,0.1,0l0,0c2,0,3.8,1.1,4.8,2.9C207.7,156.2,210,156.9,211.9,155.8z"/>
<path class="st0" d="M232.7,29.9c14.4,3,28,8.7,40.2,16.9c1.8,1.2,4.2,0.8,5.4-0.9c1.2-1.8,0.8-4.2-0.9-5.4l0,0l-0.1-0.1
	c-13-8.8-27.6-14.9-43-18.1c-0.3-0.1-0.5-0.1-0.8-0.1h-1.2v0.2c-2.1,0.6-3.3,2.8-2.6,4.8C230,28.6,231.2,29.7,232.7,29.9L232.7,29.9
	z"/>
<path class="st0" d="M177.6,192.9c20.9,7.7,43.9,7.7,64.8,0c1.5-0.6,2.4-2,2.4-3.6v-13.4c11.2,1.6,22.6,0.4,33.1-3.6
	c1.5-0.6,2.4-2,2.4-3.6v-24.3c0-9.7-5.3-18.6-13.9-23.2c3.8-3.5,6-8.4,6-13.5c0.2-10-7.7-18.3-17.7-18.6c-10-0.2-18.3,7.7-18.6,17.7
	c0,0.3,0,0.6,0,0.9c0,5.1,2.2,10.1,6,13.5c-3.7,2-6.9,4.9-9.3,8.4c-2.6-2.2-5.4-4-8.5-5.4c10.5-7.9,12.7-22.8,4.8-33.3
	s-22.8-12.7-33.3-4.8s-12.7,22.8-4.8,33.3c1.4,1.8,3,3.4,4.8,4.8c-3.1,1.4-6,3.2-8.5,5.4c-2.4-3.5-5.6-6.4-9.3-8.4
	c3.8-3.5,6-8.4,6-13.5c0.2-10-7.7-18.3-17.7-18.6c-10-0.2-18.3,7.7-18.6,17.7c0,0.3,0,0.6,0,0.9c0,5.2,2.2,10.1,6,13.5
	c-8.6,4.6-13.9,13.5-13.9,23.2v24.3c0,1.6,1,3,2.4,3.6c10.6,4,22,5.2,33.1,3.6v13.4C175.3,190.8,176.2,192.3,177.6,192.9z
	 M165.7,125.9c6.7,0,12.8,3.8,15.9,9.7c-4.2,5.9-6.5,13-6.5,20.2v12c-3.1,0.6-6.3,0.9-9.4,0.9c-6.2,0-12.4-0.9-18.3-2.9v-21.5
	c-0.2-10,7.8-18.3,17.9-18.5C165.4,125.9,165.6,125.8,165.7,125.9L165.7,125.9z M165.7,118.1c-5.8,0.1-10.6-4.6-10.6-10.3
	c-0.1-5.8,4.6-10.6,10.3-10.6s10.6,4.6,10.6,10.3c0,0,0,0.1,0,0.1C176.1,113.3,171.4,118,165.7,118.1L165.7,118.1z M189.3,138.5
	c0.1-0.1,0.2-0.2,0.3-0.4c5.1-5.9,12.6-9.3,20.4-9.3l0,0c7.9,0,15.4,3.4,20.5,9.4c0.1,0.1,0.1,0.2,0.2,0.3c2.5,2.9,4.3,6.3,5.3,10
	c0,0.1,0,0.1,0.1,0.3c0.1,0.3,0.1,0.5,0.2,0.8l0.3,1.7c0,0.1,0.1,0.3,0.1,0.4l0.2,1.5l0.1,0.8v0.2c0,0.1,0,0.1,0,0.2v0.1
	c0,0.4,0,0.9,0,1.3v30.7c-17.5,5.9-36.5,5.9-54.1,0v-14.9c0-0.1,0-0.2,0-0.4v-15.4C182.9,149.4,185.2,143.3,189.3,138.5L189.3,138.5
	z M194,105.1c0-8.8,7.1-16,15.9-16c8.8,0,16,7.1,16,15.9s-7.1,16-15.9,16c0,0,0,0,0,0C201.2,121,194,113.9,194,105.1z M254.3,125.9
	L254.3,125.9c10-0.1,18.2,8,18.3,18.1c0,0.1,0,0.3,0,0.4v21.5c-5.9,2-12.1,3-18.3,2.9c-3.2,0-6.3-0.4-9.5-1v-12c0-0.3,0-0.7,0-1
	v-0.5c-0.3-6.7-2.5-13.2-6.4-18.7C241.5,129.6,247.6,125.9,254.3,125.9L254.3,125.9z M254.3,118.1c-5.8,0.1-10.5-4.6-10.6-10.4
	c-0.1-5.8,4.6-10.5,10.4-10.6c5.8-0.1,10.5,4.6,10.6,10.4c0,0,0,0.1,0,0.1C264.7,113.3,260,118,254.3,118.1L254.3,118.1z"/>
<path class="st0" d="M187.5,250.1h-0.2c-14.4-3-28-8.7-40.2-16.9c-0.6-0.4-1.4-0.7-2.2-0.7l0,0c-2.2,0-3.9,1.7-3.9,3.9
	c0,1.3,0.6,2.6,1.8,3.3c13,8.8,27.6,14.9,43,18.1c0.3,0.1,0.6,0.1,0.9,0.1c2.2,0,3.9-1.7,3.9-3.9
	C190.6,252.1,189.3,250.6,187.5,250.1L187.5,250.1z"/>
<path class="st0" d="M210,41.5c9.8,0,17.7-8,17.7-17.7S219.8,6,210,6c-9.8,0-17.7,7.9-17.7,17.7C192.3,33.5,200.2,41.5,210,41.5z"/>
<path class="st2" d="M200.1,23.7c0-5.5,4.4-10,9.9-10c5.5,0,10,4.4,10,9.9c0,5.5-4.4,10-9.9,10c0,0,0,0,0,0
	C204.5,33.6,200.1,29.2,200.1,23.7z"/>
<path class="st0" d="M292.2,204.5c-9.8,0-17.7,8-17.6,17.7c0,9.8,8,17.7,17.7,17.6c9.8,0,17.7-8,17.6-17.7c0-4.7-1.9-9.2-5.2-12.5
	C301.5,206.3,297,204.5,292.2,204.5z"/>
<path class="st1" d="M302.2,222.2c0,5.5-4.4,10-9.9,10.1s-10-4.4-10.1-9.9s4.4-10,9.9-10.1c2.7,0,5.2,1,7.1,2.9
	C301.2,217,302.2,219.6,302.2,222.2z"/>
<path class="st0" d="M274.9,232.5c-0.7,0-1.5,0.3-2.1,0.7c-12.2,8.2-25.8,13.9-40.1,16.9c-1,0.2-1.9,0.8-2.5,1.6
	c-0.6,0.8-0.8,1.9-0.6,2.9c0.3,1.9,1.9,3.2,3.8,3.2c0.2,0,0.5,0,0.7-0.1h0.2c15.4-3.2,30-9.3,43-18.1c1.8-1.2,2.3-3.6,1.1-5.4
	C277.6,233.1,276.3,232.5,274.9,232.5L274.9,232.5z"/>
<path class="st0" d="M324.8,159.6c-0.3-0.1-0.6-0.1-0.9-0.1c-1.8,0-3.4,1.3-3.8,3.2c-3,14.4-8.7,28-16.9,40.2
	c-1.3,1.7-0.9,4.2,0.8,5.5c1.7,1.3,4.2,0.9,5.5-0.8c0.1-0.1,0.1-0.1,0.1-0.2l0.1-0.1c8.8-13,14.9-27.6,18.1-43
	C328.2,162.1,326.9,160,324.8,159.6C324.8,159.6,324.8,159.6,324.8,159.6L324.8,159.6z"/>
<path class="st0" d="M326.3,122.3c-9.8,0-17.7,8-17.7,17.7s8,17.7,17.8,17.7c9.8,0,17.7-7.9,17.7-17.7
	C344.1,130.2,336.1,122.3,326.3,122.3z"/>
<path class="st2" d="M336.3,140c0,5.5-4.4,10-9.9,10c-5.5,0-10-4.4-10-9.9c0-5.5,4.4-10,9.9-10c0,0,0,0,0,0
	C331.8,130.1,336.2,134.5,336.3,140z"/>
<path class="st0" d="M210,238.5c-9.8,0-17.7,8-17.7,17.7c0,9.8,8,17.7,17.8,17.7c9.8,0,17.7-7.9,17.7-17.7
	C227.7,246.5,219.8,238.5,210,238.5z"/>
<path class="st2" d="M220,256.3c0,5.5-4.4,10-9.9,10c-5.5,0-10-4.4-10-9.9c0-5.5,4.4-10,9.9-10c0,0,0,0,0,0
	C215.5,246.3,220,250.8,220,256.3z"/>
<path class="st0" d="M140.3,209.7c-6.9-7-18.2-7-25.1-0.1c-7,6.9-7,18.2-0.1,25.1c6.9,7,18.2,7,25.1,0.1c3.4-3.3,5.2-7.9,5.2-12.6
	C145.5,217.5,143.6,213,140.3,209.7z"/>
<path class="st1" d="M137.7,222.2c0,5.5-4.4,10-9.9,10.1c-5.5,0-10-4.4-10.1-9.9c0-5.5,4.4-10,9.9-10.1c2.7,0,5.2,1,7.1,2.9
	C136.7,217.1,137.7,219.6,137.7,222.2z"/>
<path class="st0" d="M127.8,75.5c9.8,0,17.7-8,17.6-17.7c0-9.8-8-17.7-17.7-17.6s-17.7,8-17.6,17.7c0,4.7,1.9,9.2,5.2,12.5
	C118.5,73.7,123,75.5,127.8,75.5z"/>
<path class="st1" d="M127.8,47.8c5.5,0,10,4.4,10.1,9.9c0,5.5-4.4,10-9.9,10.1c-5.5,0-10-4.4-10.1-9.9c0-2.7,1-5.2,2.9-7.1
	C122.6,48.9,125.1,47.8,127.8,47.8z"/>
<path class="st0" d="M144.9,47.5c0.8,0,1.5-0.2,2.1-0.6l0.1-0.1c12.2-8.2,25.8-13.9,40.2-16.9c2.1-0.4,3.5-2.4,3.1-4.6
	c-0.3-1.5-1.4-2.7-2.8-3v-0.2l-1.2,0.1c-0.2,0-0.4,0-0.6,0.1c-15.4,3.2-30,9.3-43,18.1c-1.8,1.2-2.3,3.6-1.2,5.4c0,0,0,0,0,0
	C142.4,46.9,143.6,47.5,144.9,47.5z"/>
<path class="st0" d="M95.3,120.4c0.2,0,0.5,0.1,0.7,0.1c1.8,0,3.4-1.3,3.8-3.1c3-14.4,8.7-28,16.9-40.2c1.2-1.8,0.8-4.2-1-5.4
	c0,0,0,0,0,0c-0.7-0.5-1.5-0.7-2.3-0.7c-1.3,0-2.5,0.7-3.2,1.7c-8.8,13-14.9,27.6-18.1,43c-0.2,1,0,2.1,0.6,2.9
	C93.4,119.6,94.3,120.2,95.3,120.4z"/>
<path class="st0" d="M113.6,208.9c2.2,0,3.9-1.8,3.9-3.9c0-0.8-0.2-1.5-0.7-2.2c-8.2-12.2-13.9-25.8-16.9-40.2
	c-0.4-1.9-2-3.2-3.9-3.2l0,0c-2.2,0-3.9,1.8-3.8,4c0,0,0,0,0,0c0,0.3,0,0.5,0.1,0.8c3.2,15.4,9.3,30,18.1,43
	C111.1,208.3,112.3,208.9,113.6,208.9z"/>
<ellipse class="st0" cx="93.7" cy="140" rx="17.8" ry="17.7"/>
<path class="st2" d="M83.7,140c0-5.5,4.4-10,9.9-10c5.5,0,10,4.4,10,9.9c0,5.5-4.4,10-9.9,10c0,0,0,0,0,0
	C88.2,149.9,83.8,145.5,83.7,140z"/>
</svg>
