<?xml version="1.0" encoding="utf-8"?>
<!-- Generator: Adobe Illustrator 27.6.1, SVG Export Plug-In . SVG Version: 6.00 Build 0)  -->
<svg version="1.1" id="Layer_1" xmlns="http://www.w3.org/2000/svg" xmlns:xlink="http://www.w3.org/1999/xlink" x="0px" y="0px"
	 viewBox="0 0 1280 775" style="enable-background:new 0 0 1280 775;" xml:space="preserve">
<path d="M160.6,641.6c0,22.1-4.5,40.4-13.4,55.1c-8.5,14.3-22,24.8-37.8,29.7l41.3,42.7h-29.3l-33.8-38.9l-6.5,0.2
	c-25.5,0-45.3-7.8-59.2-23.3C7.9,691.5,1,669.6,1,641.3c0-28.1,7-49.8,20.9-65.2c13.9-15.4,33.7-23.2,59.3-23.2
	c24.9,0,44.4,7.9,58.4,23.6S160.6,613.9,160.6,641.6z M22.4,641.6c0,23.3,5,41,15,53.1c10,12.1,24.5,18.1,43.6,18.1
	c19.2,0,33.7-6,43.5-18s14.7-29.7,14.7-53.2c0-23.2-4.9-40.8-14.7-52.8c-9.8-12-24.2-18-43.4-18c-19.2,0-33.8,6-43.8,18.1
	S22.4,618.5,22.4,641.6z"/>
<path d="M359.4,555.6v111.5c0,19.7-6,35.1-17.9,46.3c-11.9,11.2-28.4,16.9-49.2,16.9c-20.9,0-37-5.7-48.5-17
	c-11.4-11.3-17.1-26.9-17.1-46.7v-111h20.2v112.5c0,14.4,4,25.4,11.9,33.1c7.9,7.7,19.5,11.6,34.9,11.6c14.7,0,25.9-3.9,33.8-11.6
	c7.9-7.7,11.8-18.8,11.9-33.3V555.6H359.4z"/>
<path d="M543.5,728l-21.6-54.8h-69.5L431,728h-20.4l68.6-173.1h17L564.4,728H543.5z M515.6,655.2l-20.2-53.4
	c-2.6-6.8-5.3-15.1-8.1-24.9c-2,8.4-4.5,16.7-7.5,24.9l-20.4,53.4H515.6z"/>
<path d="M637.6,656.3V728h-20.2V555.6H665c21.3,0,37,4,47.2,12.1c10.2,8.1,15.3,20.3,15.2,36.5c0,22.8-11.6,38.2-34.9,46.2
	l47.1,77.5h-23.8l-42-71.7L637.6,656.3z M637.6,639.1h27.6c14.2,0,24.7-2.8,31.3-8.4s10-14,10-25.3c0-11.4-3.4-19.6-10.1-24.6
	c-6.8-5-17.6-7.6-32.6-7.5h-26.3V639.1z"/>
<path d="M922,728h-23.7l-63.2-83.6l-18.2,16V728h-20.2V555.6h20.2v85.5l78.7-85.5h23.8l-69.8,74.9L922,728z"/>
<path d="M1106,555.6v111.5c0,19.7-6,35.1-17.9,46.3c-11.9,11.2-28.4,16.9-49.2,16.9c-20.9,0-37-5.7-48.5-17
	c-11.4-11.3-17.1-26.9-17.1-46.7v-111h20.2v112.5c0,14.4,4,25.4,11.9,33.1c7.9,7.7,19.5,11.6,34.9,11.6c14.7,0,25.9-3.9,33.8-11.6
	c7.9-7.7,11.8-18.8,11.9-33.3V555.6H1106z"/>
<path d="M1279,682.1c0,15.2-5.5,27-16.6,35.5c-11.1,8.5-26.1,12.7-45.1,12.7c-20.6,0-36.4-2.6-47.4-7.9v-19.3
	c7.5,3.1,15.3,5.5,23.2,7.1c8.2,1.7,16.5,2.6,24.9,2.6c13.4,0,23.6-2.5,30.4-7.6c6.8-5.1,10.2-12.1,10.2-21.2c0-6-1.2-10.9-3.6-14.7
	c-2.4-3.8-6.4-7.3-12.1-10.5c-5.7-3.2-14.3-6.9-25.8-11c-16.1-5.7-27.7-12.5-34.6-20.4c-6.9-7.9-10.4-18.1-10.4-30.8
	c0-13.3,5-23.9,15.1-31.7s23.3-11.8,39.8-11.7c17.3,0,33.1,3.1,47.6,9.4l-6.3,17.4c-14.3-6-28.2-9-41.8-9c-10.7,0-19,2.3-25,6.8
	c-6,4.6-9,10.9-9,19c0,6,1.1,10.9,3.3,14.7s5.9,7.3,11.1,10.5c5.3,3.2,13.3,6.7,24.2,10.5c18.2,6.4,30.7,13.4,37.6,20.8
	C1275.5,660.7,1279,670.3,1279,682.1z"/>
<polygon points="643.5,263.9 707.2,227 707.2,153.4 643.5,190.2 "/>
<polygon points="649.6,267.4 707.2,300.7 707.2,234.1 "/>
<polygon points="703.8,140.4 703.8,73.8 646.1,107.1 "/>
<polygon points="640,110.6 576.2,147.4 640,184.2 703.8,147.4 "/>
<polygon points="633.9,107.1 576.2,73.8 576.2,140.4 "/>
<polygon points="713.3,156.9 713.3,223.5 771,190.2 "/>
<polygon points="636.5,263.9 636.5,190.2 572.8,153.4 572.8,153.4 572.8,227 572.8,227 572.8,227 "/>
<polygon points="566.6,156.9 509,190.2 566.6,223.5 "/>
<polygon points="572.8,234.1 572.8,300.7 630.4,267.4 "/>
<path d="M778.4,1H501.6c-37.9,0.1-68.6,30.8-68.7,68.7v276.8c0.1,37.9,30.8,68.6,68.7,68.7h189.5L640,290.9l-37.1,78.5H501.6
	c-12.6-0.2-22.7-10.3-22.9-22.9V69.7c0.2-12.6,10.3-22.7,22.9-22.9h276.8c12.6,0.2,22.7,10.3,22.9,22.9v276.8
	c-0.2,12.6-10.3,22.7-22.9,22.9h-60.1l18.9,45.8h41.2c37.9-0.1,68.6-30.8,68.7-68.7V69.7C847,31.8,816.3,1.1,778.4,1z"/>
</svg>
