<svg id="Layer_1" data-name="Layer 1" xmlns="http://www.w3.org/2000/svg" viewBox="0 0 1024 1024"><defs><style>.cls-1{fill:#fff;}</style></defs><title>quarkus_icon_1color_1024px_reverse</title><polygon class="cls-1" points="520.57 649.6 677.9 558.76 677.9 377.09 520.57 467.93 520.57 649.6"/><polygon class="cls-1" points="535.63 658.3 677.9 740.44 677.9 576.16 535.63 658.3"/><polygon class="cls-1" points="669.34 344.85 669.34 180.57 527.07 262.71 669.34 344.85"/><polygon class="cls-1" points="512 271.41 354.66 362.25 512 453.09 669.34 362.25 512 271.41"/><polygon class="cls-1" points="496.93 262.71 354.66 180.57 354.66 344.85 496.93 262.71"/><polygon class="cls-1" points="692.97 385.79 692.97 550.06 835.24 467.93 692.97 385.79"/><polygon class="cls-1" points="503.43 649.6 503.43 467.93 346.1 377.09 346.1 377.09 346.1 558.76 346.1 558.76 346.1 558.76 503.43 649.6"/><polygon class="cls-1" points="331.03 385.79 188.76 467.93 331.03 550.06 331.03 385.79"/><polygon class="cls-1" points="346.1 576.16 346.1 740.44 488.37 658.3 346.1 576.16"/><path class="cls-1" d="M853.47,1H170.53C77.29,1,1,77.29,1,170.53V853.47C1,946.71,77.29,1023,170.53,1023h467.7L512,716.39,420.42,910H170.53C139.9,910,114,884.1,114,853.47V170.53C114,139.9,139.9,114,170.53,114H853.47C884.1,114,910,139.9,910,170.53V853.47C910,884.1,884.1,910,853.47,910H705.28l46.52,113H853.47c93.24,0,169.53-76.29,169.53-169.53V170.53C1023,77.29,946.71,1,853.47,1Z"/></svg>