<?xml version="1.0" encoding="utf-8"?>
<!-- Generator: Adobe Illustrator 27.6.1, SVG Export Plug-In . SVG Version: 6.00 Build 0)  -->
<svg version="1.1" id="Layer_1" xmlns="http://www.w3.org/2000/svg" xmlns:xlink="http://www.w3.org/1999/xlink" x="0px" y="0px"
	 viewBox="0 0 1024 1024" style="enable-background:new 0 0 1024 1024;" xml:space="preserve">
<polygon points="520.6,649.6 677.9,558.8 677.9,377.1 520.6,467.9 "/>
<polygon points="535.6,658.3 677.9,740.4 677.9,576.2 "/>
<polygon points="669.3,344.9 669.3,180.6 527.1,262.7 "/>
<polygon points="512,271.4 354.7,362.2 512,453.1 669.3,362.2 "/>
<polygon points="496.9,262.7 354.7,180.6 354.7,344.9 "/>
<polygon points="693,385.8 693,550.1 835.2,467.9 "/>
<polygon points="503.4,649.6 503.4,467.9 346.1,377.1 346.1,377.1 346.1,558.8 346.1,558.8 346.1,558.8 "/>
<polygon points="331,385.8 188.8,467.9 331,550.1 "/>
<polygon points="346.1,576.2 346.1,740.4 488.4,658.3 "/>
<path d="M853.5,1H170.5C77.3,1,1,77.3,1,170.5v682.9C1,946.7,77.3,1023,170.5,1023h467.7L512,716.4L420.4,910H170.5
	c-30.6,0-56.5-25.9-56.5-56.5V170.5c0-30.6,25.9-56.5,56.5-56.5h682.9c30.6,0,56.5,25.9,56.5,56.5v682.9c0,30.6-25.9,56.5-56.5,56.5
	H705.3l46.5,113h101.7c93.2,0,169.5-76.3,169.5-169.5V170.5C1023,77.3,946.7,1,853.5,1z"/>
</svg>
