<?xml version="1.0" encoding="utf-8"?>
<!-- Generator: Adobe Illustrator 23.0.2, SVG Export Plug-In . SVG Version: 6.00 Build 0)  -->
<svg version="1.1" id="Layer_1" xmlns="http://www.w3.org/2000/svg" xmlns:xlink="http://www.w3.org/1999/xlink" x="0px" y="0px"
	 viewBox="0 0 1280 195" style="enable-background:new 0 0 1280 195;" xml:space="preserve">
<title>quarkus_logo_horizontal_1color_1280px_reverse</title>
<path d="M404,89.4c0,17.3-3.5,31.6-10.5,43.1c-6.6,11.2-17.2,19.4-29.6,23.2l32.3,33.4h-22.9l-26.5-30.4l-5.1,0.2
	c-20,0-35.4-6.1-46.3-18.2s-16.3-29.3-16.3-51.4c0-22,5.4-39,16.3-51S321.9,20,341.9,20c19.5,0,34.7,6.1,45.7,18.5
	S404,67.7,404,89.4z M295.9,89.4c0,18.3,3.9,32.1,11.7,41.6s19.2,14.2,34.1,14.1c15,0,26.4-4.7,34.1-14.1
	c7.7-9.4,11.5-23.3,11.5-41.6c0-18.1-3.8-31.9-11.5-41.3S356.9,34.1,341.9,34c-15,0-26.5,4.7-34.3,14.2S295.9,71.4,295.9,89.4
	L295.9,89.4z"/>
<path d="M559.6,22.1v87.2c0,15.4-4.7,27.4-14,36.2c-9.3,8.8-22.2,13.2-38.6,13.2c-16.3,0-29-4.4-37.9-13.3
	c-8.9-8.9-13.4-21-13.4-36.6V22.1h15.8v88c0,11.3,3.1,19.9,9.3,25.9s15.3,9,27.3,9c11.4,0,20.3-3,26.4-9.1c6.2-6.1,9.3-14.7,9.3-26
	V22.1H559.6z"/>
<path d="M703.6,157l-16.9-42.9h-54.4L615.6,157h-16l53.7-135.4h13.3L719.9,157H703.6z M681.8,100L666,58.2c-2-5.3-4.2-11.8-6.3-19.5
	c-1.6,6.6-3.5,13.1-5.8,19.5l-16,41.8L681.8,100z"/>
<path d="M777.2,100.9V157h-15.8V22.1h37.2c16.7,0,29,3.2,36.9,9.5s11.9,15.9,11.9,28.6c0,17.8-9.1,29.9-27.3,36.2L857,157h-18.7
	l-32.9-56.1L777.2,100.9z M777.2,87.4h21.6c11.1,0,19.3-2.2,24.5-6.6c5.2-4.4,7.8-11,7.8-19.8c0-8.9-2.6-15.3-7.9-19.3
	c-5.3-3.9-13.8-5.9-25.5-5.9h-20.5V87.4z"/>
<path d="M999.8,157h-18.6l-49.5-65.4l-14.2,12.5V157h-15.8V22.1h15.8V89L979,22.1h18.7l-54.6,58.6L999.8,157z"/>
<path d="M1143.7,22.1v87.2c0,15.4-4.7,27.4-14,36.2s-22.2,13.2-38.5,13.2c-16.3,0-29-4.4-37.9-13.3c-8.9-8.9-13.4-21-13.4-36.6V22.1
	h15.8v88c0,11.3,3.1,19.9,9.3,25.9c6.2,6,15.3,9,27.3,9c11.4,0,20.3-3,26.5-9.1c6.2-6.1,9.3-14.7,9.3-26.1V22.1H1143.7z"/>
<path d="M1279,121.1c0,11.9-4.3,21.1-13,27.8s-20.4,10-35.3,10c-16.1,0-28.5-2.1-37.1-6.2v-15.2c5.9,2.4,12,4.3,18.2,5.5
	c6.4,1.3,12.9,2,19.5,2c10.5,0,18.4-2,23.8-6c5.3-4,8-9.5,8-16.6c0-4.7-0.9-8.5-2.8-11.5s-5-5.7-9.5-8.3c-4.4-2.5-11.2-5.4-20.2-8.6
	c-12.6-4.5-21.6-9.8-27.1-16c-5.4-6.2-8.1-14.2-8.1-24.1c0-10.4,3.9-18.7,11.8-24.8c7.9-6.2,18.3-9.2,31.2-9.2
	c12.8-0.1,25.5,2.4,37.2,7.4l-4.9,13.6c-11.2-4.7-22.1-7-32.7-7c-8.4,0-14.9,1.8-19.6,5.3s-7.1,8.5-7.1,14.8c0,4.7,0.9,8.5,2.6,11.5
	c1.7,3,4.7,5.7,8.8,8.2c4.1,2.5,10.4,5.2,18.9,8.3c14.2,5,24,10.4,29.4,16.2S1279,111.8,1279,121.1z"/>
<polygon points="98.2,122.4 127.7,105.4 127.7,71.4 98.2,88.4 "/>
<polygon points="101,124 127.7,139.4 127.7,108.6 "/>
<polygon points="126.1,65.3 126.1,34.6 99.4,50 "/>
<polygon points="96.6,51.6 67.2,68.6 96.6,85.6 126.1,68.6 "/>
<polygon points="93.8,50 67.2,34.6 67.2,65.3 "/>
<polygon points="130.5,73 130.5,103.7 157.1,88.4 "/>
<polygon points="95,122.4 95,88.4 65.6,71.4 65.6,71.4 65.6,105.4 65.6,105.4 65.6,105.4 "/>
<polygon points="62.8,73 36.1,88.4 62.8,103.7 "/>
<polygon points="65.6,108.6 65.6,139.4 92.2,124 "/>
<path d="M160.5,1H32.7C15.2,1,1,15.2,1,32.7v127.8c0,17.5,14.2,31.7,31.7,31.7h87.5l-23.6-57.4l-17.1,36.2H32.7
	c-5.8-0.1-10.5-4.8-10.6-10.6V32.7c0.1-5.8,4.8-10.5,10.6-10.6h127.8c5.8,0.1,10.5,4.8,10.6,10.6v127.8c-0.1,5.8-4.8,10.5-10.6,10.6
	h-27.7l8.7,21.1h19c17.5,0,31.7-14.2,31.7-31.7V32.7C192.2,15.2,178,1.1,160.5,1z"/>
</svg>
