<?xml version="1.0" encoding="UTF-8"?>
<svg id="Layer_1" data-name="Layer 1" xmlns="http://www.w3.org/2000/svg" xmlns:xlink="http://www.w3.org/1999/xlink" viewBox="0 0 630 175">
  <defs>
    <style>
      .cls-1 {
        fill: url(#linear-gradient-2);
      }

      .cls-1, .cls-2, .cls-3, .cls-4 {
        fill-rule: evenodd;
      }

      .cls-2 {
        fill: url(#linear-gradient-3);
      }

      .cls-4 {
        fill: url(#linear-gradient);
      }
    </style>
    <linearGradient id="linear-gradient" x1="37.96" y1="-505.89" x2="130.37" y2="-506.71" gradientTransform="translate(0 595)" gradientUnits="userSpaceOnUse">
      <stop offset="0" stop-color="#f926e1"/>
      <stop offset="1" stop-color="#2ab5fb"/>
    </linearGradient>
    <linearGradient id="linear-gradient-2" x1="15" y1="-507.3" x2="141.2" y2="-507.88" gradientTransform="translate(0 595)" gradientUnits="userSpaceOnUse">
      <stop offset="0" stop-color="#f926e1"/>
      <stop offset="1" stop-color="#2ab5fb"/>
    </linearGradient>
    <linearGradient id="linear-gradient-3" x1="394.45" y1="-506.01" x2="614.71" y2="-509.1" gradientTransform="translate(0 595)" gradientUnits="userSpaceOnUse">
      <stop offset="0" stop-color="#f926e1"/>
      <stop offset="1" stop-color="#2ab5fb"/>
    </linearGradient>
  </defs>
  <path class="cls-4" d="M58.98,72.79c-18.9-5.59-16.76,43.08,5.27,29.74,6.36-3.85,14.74-9.38,24.77-9.38,9.05,0,14,9.8,23.05,9.8,13.03-1.42,12.47-26.16,3.67-26.96-9.26,0-16.85,15.64-28.83,11.96-10.35-3.17-20.96-13.11-27.93-15.16ZM61.54,64.95c9.65,2.86,18.06,12.09,27.81,15.08.79.24,1.47.25,2.27.03,1.87-.51,4-2.08,5.53-3.24,5.65-4.28,10.85-9.04,18.38-9.04h.38l.38.03c19.41,1.76,19.22,41.51-3.5,43.98l-.45.05h-.56c-.72,0-1.44-.02-2.15-.11-5.84-.73-9.83-3.37-13.98-6.27-1.65-1.16-4.5-3.35-6.65-3.35-7.42,0-14.11,4.37-20.27,8.1-6.06,3.67-13.13,5-19.56,1.41-7.59-4.23-10.85-13.52-11.19-21.9-.35-8.69,2.39-18.9,10.31-23.45,4.11-2.36,8.76-2.66,13.24-1.33h.01Z"/>
  <path class="cls-1" d="M78.1,33.02c-73.95-4.85-26.43-.29-42.99,21.58-7.05,9.33-11.26,21.02-11.26,33.78,0,30.57,24.29,55.36,54.25,55.36,22.18,0,41.25-13.59,49.66-33.04,5.24-10.43,8.4-25.57.09-44.1-8.37-19.13-27.53-32.11-49.75-33.57h0ZM78.67,24c34.03,2.23,62.54,28.52,62.54,64.37s-28.26,64.39-63.11,64.39S15,123.94,15,88.38c0-14.26,4.57-28.01,13.11-39.3,1.26-1.67,2.44-3.48,1.69-5.61-1.65-4.7-5.14-7.22-3.05-13.43,2.59-7.67,11.04-7.85,17.59-7.82,11.31.06,23.03,1.03,34.33,1.77h0Z"/>
  <path class="cls-2" d="M423.24,116.28c-10.46,0-19.62-8.58-19.62-22v-.22c0-13.75,8.84-21.89,19.62-21.89s20.16,8.8,20.16,21.89v.22c0,13.09-9.81,22-20.16,22ZM469.75,90.98c1.09-11.23,8.5-19.57,18.3-19.57,11.22,0,17.11,9.12,17.98,19.57h-36.28ZM489.69,124.84c10.68,0,17.54-4.34,23.21-10.78l-5.23-4.78c-4.58,4.89-10.02,8.12-17.76,8.12-10.02,0-18.63-7-19.83-19.45h44.67c.11-1,.11-1.67.11-2.78,0-16.79-9.59-30.35-26.26-30.35-15.58,0-27.02,13.34-27.02,29.91v.22c0,17.79,12.64,29.91,28.11,29.91v-.02ZM539.35,123.45h7.42l24.54-57.98h-9.05l-19.09,47.74-18.98-47.74h-9.27l24.43,57.98h0ZM594.95,124.08c11.22,0,20.05-6.34,20.05-17.24v-.07c0-10.46-9.48-13.95-18.3-16.65-7.61-2.36-14.66-4.5-14.66-10.01v-.17c0-4.72,4.19-8.23,10.75-8.23,5.37,0,11.29,2.08,16.45,5.48l3.76-6.36c-5.7-3.84-13.22-6.25-19.99-6.25-10.96,0-18.92,6.47-18.92,16.23v.22c0,10.65,9.89,13.79,18.79,16.37,7.47,2.13,14.17,4.37,14.17,10.2v.11c0,5.56-4.9,9.12-11.66,9.12s-13.4-2.67-19.5-7.34l-4.25,6.12c6.32,5.23,15.25,8.45,23.32,8.45v.02ZM421.65,123.89c10.43,0,17.13-5.89,21.74-12.78v11.19h7.96V50.39h-7.96v25.8c-4.39-6.45-11.2-12.23-21.74-12.23-13.62,0-27.12,11.12-27.12,29.91v.22c0,18.9,13.51,29.79,27.12,29.79h0Z"/>
  <path class="cls-3" d="M257.98,124.33c-4.36,0-8.41-.74-12.15-2.22-3.74-1.48-6.97-3.6-9.7-6.34-2.72-2.74-4.85-5.99-6.37-9.73-1.53-3.74-2.29-7.91-2.29-12.51v-.22c0-4.22.71-8.23,2.12-12.01,1.42-3.78,3.4-7.08,5.94-9.89,2.54-2.82,5.58-5.04,9.1-6.67,3.52-1.63,7.43-2.45,11.71-2.45,4.87,0,9.08.89,12.64,2.67,3.56,1.78,6.52,4.17,8.88,7.17,2.36,3,4.1,6.45,5.23,10.34,1.12,3.89,1.69,7.95,1.69,12.17,0,.67-.02,1.37-.05,2.11-.04.74-.09,1.52-.16,2.34h-40.64c.8,3.85,2.45,6.76,4.96,8.73,2.5,1.96,5.61,2.95,9.32,2.95,2.76,0,5.23-.48,7.41-1.45,2.18-.96,4.43-2.52,6.76-4.67l9.48,8.56c-2.76,3.48-6.1,6.21-10.03,8.17-3.92,1.96-8.53,2.95-13.84,2.95h-.01ZM268.13,88.66c-.51-3.78-1.82-6.84-3.92-9.17-2.11-2.33-4.9-3.5-8.39-3.5s-6.3,1.15-8.44,3.45c-2.14,2.3-3.54,5.37-4.19,9.23h24.95,0ZM289.97,63.15h17.05v11.77c1.63-4,3.86-7.19,6.7-9.59,2.84-2.4,6.66-3.49,11.48-3.27v17.32h-.85c-5.39,0-9.62,1.67-12.71,5.01-3.08,3.34-4.63,8.53-4.63,15.58v22.31h-17.05v-59.14h0ZM359.19,124.52c-4.54,0-8.74-.8-12.62-2.41s-7.22-3.81-10.04-6.61-5.03-6.08-6.64-9.85c-1.61-3.77-2.41-7.82-2.41-12.15v-.22c0-4.33.8-8.38,2.41-12.15,1.61-3.77,3.84-7.07,6.69-9.91,2.85-2.84,6.22-5.08,10.1-6.72s8.12-2.46,12.73-2.46,8.74.8,12.62,2.41c3.88,1.61,7.23,3.81,10.04,6.61,2.82,2.8,5.03,6.08,6.64,9.85,1.61,3.77,2.41,7.82,2.41,12.15v.22c0,4.33-.8,8.38-2.41,12.15-1.61,3.77-3.84,7.07-6.69,9.91-2.85,2.84-6.22,5.08-10.1,6.72s-8.12,2.46-12.73,2.46ZM358.84,109.83c2.41,0,4.55-.43,6.41-1.29,1.86-.86,3.45-2.03,4.77-3.52,1.31-1.49,2.32-3.22,3.01-5.2.7-1.98,1.04-4.08,1.04-6.32v-.22c0-2.24-.36-4.34-1.1-6.32-.73-1.98-1.79-3.73-3.18-5.26-1.39-1.53-3.03-2.74-4.93-3.63s-3.98-1.34-6.25-1.34c-2.41,0-4.55.43-6.41,1.29-1.86.86-3.45,2.03-4.77,3.52-1.32,1.49-2.32,3.22-3.02,5.2-.69,1.98-1.04,4.08-1.04,6.32v.22c0,2.24.37,4.34,1.1,6.32.73,1.97,1.79,3.73,3.18,5.26,1.39,1.53,3.01,2.74,4.88,3.63,1.86.89,3.96,1.34,6.3,1.34h0ZM184.28,50.39v21.99c.96-1.28,2.01-2.48,3.15-3.65,1.14-1.15,2.41-2.17,3.82-3.08,1.4-.89,2.95-1.59,4.65-2.13,1.7-.52,3.61-.78,5.75-.78,6.42,0,11.38,1.96,14.88,5.89s5.25,9.34,5.25,16.23v38.58h-17.05v-33.17c0-3.98-.88-7-2.63-9.02-1.75-2.04-4.23-3.06-7.44-3.06s-5.74,1.02-7.6,3.06c-1.86,2.02-2.79,5.04-2.79,9.02v32.01h-17.05V50.39h17.06Z"/>
</svg>