<?xml version="1.0" encoding="UTF-8"?>
<svg id="Layer_1" data-name="Layer 1" xmlns="http://www.w3.org/2000/svg" viewBox="0 0 417.57 175">
  <defs>
    <style>
      .cls-1 {
        fill: #fff;
      }
    </style>
  </defs>
  <path id="IBM_" data-name="IBM®" class="cls-1" d="M387.23,151.42c0-4.47,3.38-7.94,7.67-7.94s7.67,3.38,7.67,7.94-3.38,7.94-7.67,7.94-7.67-3.38-7.67-7.94ZM400.73,151.88v-1c0-3.19-2.56-5.75-5.84-5.75s-5.84,2.56-5.84,5.75v1c0,3.19,2.56,5.75,5.84,5.75s5.84-2.56,5.84-5.75ZM393.71,155.44h-1.92v-8.03h3.65c1.83,0,2.74,1.1,2.74,2.56s-.55,2.1-1.46,2.37l1.83,3.1h-2.19l-1.46-2.74h-1.1v2.74h-.09,0ZM395.17,151.24c.64,0,.91-.27.91-.82v-.55c0-.55-.37-.82-.91-.82h-1.46v2.28h1.46v-.09ZM15.01,149.78h70.26v9.13H15.01v-9.13ZM15.01,139.74h70.26v-9.13H15.01v9.13ZM35.09,120.58h30.11v-9.13h-30.11v9.13ZM35.09,101.42h30.11v-9.13h-30.11v9.13ZM35.09,82.25h30.11v-9.13h-30.11v9.13ZM65.2,53.96h-30.11v9.13h30.11v-9.13ZM15.01,43.93h70.26v-9.13H15.01v9.13ZM15.01,24.76h70.26v-9.13H15.01v9.13ZM95.31,158.9h73.91c9.49,0,18.16-3.47,24.82-9.13h-98.73v9.13h0ZM95.31,139.74h107.13c1.64-2.83,2.92-5.93,3.83-9.13h-110.87v9.13s-.09,0-.09,0ZM115.39,120.58h30.11v-9.13h-30.11v9.13ZM115.39,73.13v9.13h79.66c2.92-2.65,5.38-5.75,7.39-9.13h-87.05ZM206.18,43.93c-.91-3.19-2.19-6.3-3.83-9.13h-107.13v9.13h110.96ZM115.39,63.09h30.11v-9.13h-30.11v9.13ZM173.79,63.09h32.67c.73-2.92,1.1-6.02,1.1-9.13h-33.76v9.13ZM173.79,111.45v9.13h33.76c0-3.1-.37-6.21-1.1-9.13h-32.67ZM195.05,92.29h-79.66v9.13h87.05c-2.01-3.38-4.47-6.48-7.39-9.13h0ZM194.05,24.76c-6.66-5.66-15.33-9.13-24.82-9.13h-73.91v9.13h98.73ZM215.76,158.9h50.19v-9.13h-50.19v9.13ZM215.76,139.74h50.19v-9.13h-50.19v9.13ZM235.84,120.58h30.11v-9.13h-30.11v9.13ZM235.84,101.42h30.11v-9.13h-30.11v9.13ZM326.18,158.9h50.19v-9.13h-50.19v9.13ZM326.18,139.74h50.19v-9.13h-50.19v9.13ZM326.18,120.58h30.11v-9.13h-30.11v9.13ZM356.29,92.29h-30.11v9.13h30.11v-9.13ZM326.18,82.25h30.11v-9.13h-56.48l-3.19,9.13h26.46l3.1-8.67v8.67ZM356.29,53.96h-49.82l-3.19,9.13h52.93v-9.13h.09ZM319.79,15.64l-3.19,9.13h59.77v-9.13h-56.58ZM296.07,158.9l3.19-9.13h-6.39l3.19,9.13ZM289.31,139.74h13.51l3.19-9.13h-19.98l3.19,9.13h.09ZM282.56,120.58h27.01l3.19-9.13h-33.49l3.19,9.13h.09ZM275.81,101.42h40.52l3.19-9.13h-46.99l3.19,9.13h.09ZM235.84,63.09h52.93l-3.19-9.13h-49.82v9.13h.09ZM309.94,43.93h66.43v-9.13h-63.24l-3.19,9.13ZM279,34.8h-63.24v9.13h66.43l-3.19-9.13ZM272.34,15.64h-56.58v9.13h59.77l-3.19-9.13ZM295.43,82.25l-3.19-9.13h-56.48v9.13h30.11v-8.67l3.1,8.67h26.46Z"/>
</svg>