<?xml version="1.0" encoding="UTF-8"?>
<svg id="Layer_1" xmlns="http://www.w3.org/2000/svg" version="1.1" viewBox="0 0 630 175">
  <!-- Generator: Adobe Illustrator 30.2.1, SVG Export Plug-In . SVG Version: 2.1.1 Build 1)  -->
  <defs>
    <style>
      .st0 {
        fill: #e00;
      }
    </style>
  </defs>
  <path class="st0" d="M139.5,98.3c12.3,0,30-2.5,30-17.1,0-1.1,0-2.3-.3-3.4l-7.3-31.7c-1.7-7-3.2-10.1-15.4-16.3-9.5-4.9-30.2-12.9-36.4-12.9s-7.4,7.4-14.2,7.4-11.4-5.5-17.5-5.5-9.7,4-12.7,12.3c0,0-8.2,23.3-9.3,26.6-.2.6-.2,1.3-.2,1.9,0,9,35.6,38.7,83.3,38.7M171.4,87.1c1.7,8,1.7,8.9,1.7,9.9,0,13.7-15.4,21.3-35.7,21.3-45.9,0-86-26.8-86-44.6,0-2.5.5-4.9,1.5-7.2-16.5.8-37.8,3.8-37.8,22.6,0,30.9,73.1,68.9,131.1,68.9s55.6-20.1,55.6-35.9-10.8-26.6-30.2-35.1"/>
  <path d="M171.4,87.1c1.7,8,1.7,8.9,1.7,9.9,0,13.7-15.4,21.3-35.7,21.3-45.9,0-86-26.8-86-44.6,0-2.5.5-4.9,1.5-7.2l3.6-8.9c-.2.6-.2,1.2-.2,1.9,0,9,35.6,38.7,83.3,38.7s30-2.5,30-17.1c0-1.1,0-2.3-.3-3.4l2.2,9.3Z"/>
  <path d="M583,107.4c0,11.7,7,17.3,19.8,17.3,3.9,0,7.8-.7,11.7-1.6v-13.5c-2.4.8-5,1.2-7.5,1.1-5.3,0-7.2-1.6-7.2-6.6v-20.7h15.3v-13.9h-15.3v-17.7l-16.7,3.6v14h-11.1v13.9h11v24ZM531.1,107.7c0-3.6,3.6-5.4,9.1-5.4,3.3,0,6.7.4,9.9,1.2v7c-3.2,1.7-6.8,2.6-10.4,2.6-5.4,0-8.6-2.1-8.6-5.5M536.2,124.9c5.3.2,10.6-1.3,15.1-4.2v3.3h16.5v-35c0-13.3-9-20.6-23.9-20.6-8.8.1-17.5,2.2-25.5,6l6,12.3c5.2-2.5,10.8-4,16.5-4.3,6.9,0,10.4,2.7,10.4,8.2v2.7c-4-1-8.2-1.6-12.4-1.6-14,0-22.5,5.9-22.5,16.4s7.6,16.9,19.8,16.9M445.5,124.1h17.7v-28.3h29.7v28.3h17.8V51.8h-17.7v27.7h-29.7v-27.7h-17.7v72.2ZM378,96.7c0-7.6,6.2-13.8,13.8-13.8.2,0,.4,0,.5,0,4.2,0,8.4,1.4,11.5,4.2v19.1c-3.1,2.9-7.3,4.5-11.5,4.4-7.7.3-14.1-5.8-14.3-13.4,0-.1,0-.3,0-.4M404.1,124h16.5V48.2l-16.7,3.6v20.5c-13.4-7.9-30.7-3.6-38.6,9.8-7.9,13.4-3.6,30.7,9.8,38.6,4.3,2.6,9.3,3.9,14.4,4,5.3,0,10.4-1.6,14.6-4.7v4.1ZM328.3,82.1c5.3,0,9.9,3.6,11.4,8.7h-22.7c1.3-5.2,6-8.8,11.3-8.7M300.2,96.8c0,15.9,13,28.3,29.7,28.3,8.4.3,16.5-2.7,22.8-8.3l-11-9.8c-2.9,2.8-6.9,4.3-10.9,4.1-5.8.2-11.2-3.3-13.4-8.7h38.9v-4.2c0-17.3-11.6-29.8-27.5-29.8-15.5-.2-28.2,12.1-28.4,27.6,0,.2,0,.4,0,.7M271.4,67c5.9,0,9.2,3.7,9.2,8.2s-3.3,8.2-9.2,8.2h-17.5v-16.3h17.5ZM236.1,124h17.7v-26.3h13.5l13.6,26.3h19.9l-15.9-28.9c8.3-3.4,13.6-11.4,13.6-20.3,0-13-10.2-23-25.5-23h-37v72.2Z"/>
</svg>