<?xml version="1.0" encoding="UTF-8"?>
<svg id="Layer_1" data-name="Layer 1" xmlns="http://www.w3.org/2000/svg" viewBox="0 0 630 175">
  <defs>
    <style>
      .cls-1 {
        fill: #e00;
      }
    </style>
  </defs>
  <path class="cls-1" d="M139.51,98.28c12.27,0,30.02-2.53,30.02-17.12.04-1.13-.07-2.25-.3-3.35l-7.31-31.73c-1.69-6.98-3.17-10.15-15.43-16.28-9.51-4.86-30.23-12.9-36.36-12.9-5.71,0-7.36,7.35-14.17,7.35s-11.41-5.49-17.54-5.49-9.72,4.01-12.68,12.26c0,0-8.25,23.26-9.31,26.63-.17.62-.24,1.26-.22,1.9,0,9.04,35.6,38.69,83.3,38.69M171.41,87.08c1.7,8.03,1.7,8.87,1.7,9.93,0,13.73-15.44,21.35-35.73,21.35-45.86.03-86.02-26.84-86.02-44.6,0-2.47.5-4.92,1.48-7.19-16.49.82-37.84,3.77-37.84,22.61,0,30.87,73.15,68.92,131.06,68.92,44.4,0,55.6-20.08,55.6-35.94,0-12.47-10.79-26.63-30.23-35.09"/>
  <path d="M171.41,87.08c1.7,8.03,1.7,8.87,1.7,9.93,0,13.73-15.44,21.35-35.73,21.35-45.86.03-86.02-26.84-86.02-44.6,0-2.47.5-4.92,1.48-7.19l3.59-8.88c-.16.61-.24,1.23-.22,1.86,0,9.04,35.6,38.69,83.3,38.69,12.27,0,30.02-2.53,30.02-17.12.04-1.13-.07-2.25-.3-3.35l2.19,9.32h-.01Z"/>
  <path d="M583.03,107.41c0,11.66,7.01,17.33,19.8,17.33,3.94-.1,7.85-.65,11.66-1.65v-13.52c-2.44.77-4.98,1.16-7.53,1.14-5.27,0-7.22-1.65-7.22-6.6v-20.72h15.26v-13.93h-15.26v-17.65l-16.67,3.61v14.04h-11.07v13.93h11.03v24.03h0ZM531.06,107.72c0-3.61,3.62-5.36,9.08-5.36,3.34.02,6.66.43,9.9,1.24v7.01c-3.19,1.74-6.79,2.63-10.42,2.58-5.35,0-8.56-2.06-8.56-5.46M536.16,124.94c5.88,0,10.63-1.24,15.06-4.23v3.3h16.49v-34.97c0-13.3-8.96-20.59-23.92-20.59-8.36,0-16.61,1.96-25.5,5.98l5.98,12.28c6.39-2.69,11.77-4.33,16.5-4.33,6.86,0,10.41,2.68,10.41,8.15v2.68c-4.04-1.05-8.2-1.57-12.38-1.55-14.03,0-22.49,5.88-22.49,16.41,0,9.59,7.63,16.91,19.8,16.91M445.49,124.05h17.74v-28.29h29.7v28.26h17.79V51.82h-17.72v27.74h-29.7v-27.74h-17.74l-.07,72.22h0ZM377.96,96.69c0-7.85,6.19-13.83,14.34-13.83,4.24-.09,8.36,1.43,11.53,4.24v19.07c-3.11,2.94-7.26,4.51-11.53,4.37-8.04,0-14.34-5.98-14.34-13.82M404.05,124.06h16.5V48.22l-16.67,3.61v20.52c-4.24-2.41-9.05-3.65-13.93-3.61-15.88,0-28.36,12.27-28.36,27.95-.19,15.3,12.06,27.86,27.36,28.04h.49c5.26.03,10.39-1.63,14.64-4.74l-.04,4.06h.01ZM328.32,82.11c5.26,0,9.69,3.4,11.44,8.66h-22.75c1.65-5.42,5.78-8.66,11.31-8.66M300.2,96.82c0,15.89,12.99,28.26,29.69,28.26,9.18,0,15.89-2.48,22.8-8.26l-11.04-9.81c-2.58,2.69-6.39,4.13-10.92,4.13-5.83.16-11.16-3.28-13.42-8.66h38.88v-4.15c0-17.33-11.65-29.8-27.54-29.8-15.47-.23-28.2,12.12-28.44,27.59v.66M271.44,66.98c5.88,0,9.18,3.71,9.18,8.15s-3.29,8.15-9.18,8.15h-17.54v-16.3s17.54,0,17.54,0ZM236.14,124.02h17.74v-26.3h13.5l13.62,26.3h19.86l-15.89-28.88c8.26-3.36,13.65-11.4,13.61-20.32,0-12.99-10.21-23-25.5-23h-36.95v72.2h.01Z"/>
</svg>